<svg width="1700" height="1700" viewBox="0 0 1700 1700" fill="none" xmlns="http://www.w3.org/2000/svg">
<path d="M895.899 1300.44L892.402 1296.53V1291.58L895.899 1287.93L899.688 1285.32L902.894 1283.24L907.557 1280.63L911.637 1275.94H917.465H922.128H928.831L934.076 1279.33V1285.32V1290.02L931.454 1296.53L928.831 1303.31L922.128 1306.7H915.134H908.722L902.894 1305.13L899.688 1303.31L895.899 1300.44Z" stroke="url(#paint0_linear_140_922)" stroke-width="5"/>
<path d="M786.535 1304.35L792.752 1300.44L797.98 1296.27L792.752 1288.45L789.078 1285.06L782.013 1280.63L775.796 1275.94L763.645 1272.55L756.015 1280.63L759.406 1292.1L763.645 1304.35L770.144 1308.52H778.622L786.535 1304.35Z" stroke="url(#paint1_linear_140_922)" stroke-width="5"/>
<path d="M821.586 1243.88L825.083 1248.31L821.586 1253.52L807.306 1256.65H795.066L784.866 1253.52L777.58 1248.31L765.049 1240.23L755.723 1233.45L747.563 1222.24L741.735 1208.95L737.363 1196.95V1185.75L741.735 1176.88H751.643H761.552L770.877 1185.75L777.58 1196.95L784.866 1208.95L792.443 1220.94L801.477 1227.45L811.677 1236.58L821.586 1243.88Z" stroke="url(#paint2_linear_140_922)" stroke-width="5"/>
<path d="M874.917 1240.23L870.545 1248.31L874.917 1256.65H890.654L901.437 1253.52L916.591 1248.31L924.751 1243.88L933.202 1233.45L941.654 1222.24L949.813 1214.94L954.768 1208.95V1196.95L949.813 1185.75L941.654 1176.88H933.202L924.751 1185.75L916.591 1192.52L910.762 1203.73L901.437 1214.94L895.608 1222.24L885.7 1233.45L874.917 1240.23Z" stroke="url(#paint3_linear_140_922)" stroke-width="5"/>
<path d="M463.131 999.367V1004.84V1034.04L460.217 1058.28L456.137 1086.43L450.891 1107.29V1124.75L444.188 1147.69L438.36 1175.84V1209.73V1229.8V1252.74V1269.16V1282.98L434.571 1299.92L421.749 1327.03L414.463 1303.31V1282.98V1255.35L417.96 1224.59V1199.56L421.749 1169.85L426.994 1142.74L434.571 1118.49L438.36 1094.51L444.188 1070.01L450.891 1051.5L456.137 1034.04L460.217 1016.57L463.131 999.367Z" stroke="url(#paint4_linear_140_922)" stroke-width="5"/>
<path d="M1222.3 1044.2V1014.75V999.887L1236.29 1039.77L1246.19 1062.19L1252.31 1086.17L1257.27 1111.19L1263.39 1151.6L1271.26 1183.66V1209.73V1241.79V1273.07V1305.4L1263.1 1339.54L1252.31 1297.31L1246.19 1257.17V1225.89V1199.82V1172.19L1241.24 1146.12L1234.25 1115.63L1229.29 1086.17L1222.3 1044.2Z" stroke="url(#paint5_linear_140_922)" stroke-width="5"/>
<path d="M625.539 726.97C626.407 724.349 624.986 721.52 622.365 720.652C619.744 719.783 616.915 721.204 616.046 723.826L625.539 726.97ZM616.13 739.474L611.384 737.902L611.13 738.668V739.474H616.13ZM616.13 755.636H611.13V756.042L611.195 756.443L616.13 755.636ZM628.953 776.751L625.525 780.391L625.866 780.712L626.261 780.964L628.953 776.751ZM645.273 787.178L642.581 791.391L643.366 791.893L644.28 792.078L645.273 787.178ZM660.718 790.306L659.726 795.206L660.217 795.306H660.718V790.306ZM680.535 790.306V795.306H681.345L682.114 795.05L680.535 790.306ZM705.598 781.964L707.177 786.708L707.388 786.638L707.592 786.549L705.598 781.964ZM726.581 772.841L728.574 777.426L728.805 777.325L729.025 777.202L726.581 772.841ZM750.769 759.286L753.213 763.647L753.334 763.58L753.451 763.505L750.769 759.286ZM772.918 745.209L775.599 749.429L775.906 749.234L776.181 748.998L772.918 745.209ZM788.655 731.654L785.836 727.525L785.604 727.683L785.391 727.866L788.655 731.654ZM810.803 716.535L814.311 720.098L807.984 712.406L810.803 716.535ZM764.466 762.153L760.958 758.59L760.865 758.682L760.776 758.78L764.466 762.153ZM726.581 803.6L729.273 807.813L729.827 807.459L730.271 806.973L726.581 803.6ZM708.221 815.33L710.453 819.804L710.69 819.686L710.913 819.544L708.221 815.33ZM680.535 829.146L681.169 834.106L682.01 833.998L682.768 833.62L680.535 829.146ZM656.055 832.274L654.208 836.92L655.408 837.397L656.689 837.234L656.055 832.274ZM640.318 826.018L636.893 829.66L637.587 830.312L638.471 830.664L640.318 826.018ZM628.953 815.33L624.848 818.186L625.147 818.615L625.527 818.973L628.953 815.33ZM620.793 803.6L616.075 805.255L616.3 805.897L616.688 806.455L620.793 803.6ZM616.13 790.306L611.155 790.802L611.214 791.397L611.412 791.96L616.13 790.306ZM614.673 775.708L609.941 774.092L609.589 775.122L609.697 776.205L614.673 775.708ZM769.712 756.989L766.204 753.426L766.204 753.426L769.712 756.989ZM760.095 776.751L755.599 774.563L755.548 774.668L755.501 774.776L760.095 776.751ZM740.278 809.856L736.211 806.947L736.2 806.963L736.188 806.98L740.278 809.856ZM728.912 826.018L731.773 830.118L732.495 829.614L733.002 828.894L728.912 826.018ZM714.341 836.184L711.48 832.083L710.91 832.481L710.471 833.018L714.341 836.184ZM705.598 846.872L708.543 850.912L709.062 850.534L709.468 850.038L705.598 846.872ZM689.861 858.341L691.929 862.893L692.394 862.682L692.806 862.382L689.861 858.341ZM671.501 866.683L672.252 871.626L672.938 871.522L673.569 871.235L671.501 866.683ZM656.055 869.029L654.014 873.593L655.354 874.193L656.806 873.972L656.055 869.029ZM640.318 861.991L636.807 865.551L637.451 866.186L638.277 866.555L640.318 861.991ZM628.953 850.782L624.449 852.954L624.825 853.734L625.442 854.342L628.953 850.782ZM622.541 837.487L617.64 838.474L617.764 839.092L618.038 839.659L622.541 837.487ZM619.918 824.454L614.942 824.941L614.967 825.192L615.017 825.44L619.918 824.454ZM622.855 803.113C622.586 800.365 620.14 798.355 617.392 798.624C614.643 798.893 612.633 801.338 612.902 804.087L622.855 803.113ZM634.635 856.386L638.146 852.826L634.635 856.386ZM737.363 822.89L741.598 825.549L741.892 825.08L742.077 824.557L737.363 822.89ZM725.415 841.919L729.638 844.596L729.644 844.587L729.649 844.578L725.415 841.919ZM714.341 859.384L718.118 862.66L718.363 862.378L718.563 862.061L714.341 859.384ZM701.227 874.503L704.462 878.315L704.753 878.068L705.004 877.779L701.227 874.503ZM689.861 884.148L686.626 880.336L686.547 880.403L686.471 880.473L689.861 884.148ZM680.535 892.75L682.639 897.286L683.35 896.956L683.925 896.425L680.535 892.75ZM664.798 900.049V905.049H665.901L666.902 904.585L664.798 900.049ZM651.393 900.049L648.641 904.224L649.893 905.049H651.393V900.049ZM640.318 892.75L635.881 895.054L636.014 895.31L636.175 895.549L640.318 892.75ZM634.635 881.802L629.922 883.469L630.038 883.797L630.198 884.105L634.635 881.802ZM630.118 869.029L625.13 869.367L625.176 870.05L625.404 870.696L630.118 869.029ZM633.941 851.486C633.755 848.731 631.37 846.649 628.615 846.836C625.86 847.023 623.777 849.407 623.964 852.162L633.941 851.486ZM817.797 766.324V761.324H816.885L816.031 761.646L817.797 766.324ZM884.534 766.324L886.329 761.657L885.463 761.324H884.534V766.324ZM936.944 791.844C939.521 792.836 942.414 791.55 943.406 788.973C944.398 786.396 943.112 783.503 940.535 782.511L936.944 791.844ZM664.798 928.984L660.655 931.783L662.142 933.984H664.798V928.984ZM680.535 928.984V933.984H681.637L682.637 933.521L680.535 928.984ZM696.855 921.424L698.957 925.961L699.8 925.571L700.446 924.903L696.855 921.424ZM708.221 909.694L711.812 913.173L712.144 912.83L712.406 912.429L708.221 909.694ZM719.295 892.75L723.48 895.486L723.609 895.289L723.718 895.081L719.295 892.75ZM728.912 874.503L724.915 871.499L724.675 871.818L724.489 872.172L728.912 874.503ZM740.278 859.384L736.944 855.657L736.577 855.986L736.281 856.38L740.278 859.384ZM754.266 846.872L751.78 842.533L751.324 842.795L750.933 843.145L754.266 846.872ZM772.918 836.184L771.406 831.418L770.896 831.58L770.432 831.846L772.918 836.184ZM878.414 826.018L879.006 821.053L878.711 821.018H878.414V826.018ZM904.642 829.146L906.886 824.678L906.104 824.285L905.235 824.181L904.642 829.146ZM921.254 837.487L924.424 833.621L923.994 833.269L923.498 833.019L921.254 837.487ZM938.739 851.824L942.101 848.123L942.007 848.038L941.91 847.958L938.739 851.824ZM957.682 869.029L961.532 865.838L961.306 865.566L961.044 865.328L957.682 869.029ZM970.214 884.148L966.364 887.339L966.411 887.395L966.459 887.45L970.214 884.148ZM984.202 900.049L988.024 896.825L987.991 896.786L987.956 896.746L984.202 900.049ZM996.733 914.907L1000.94 912.204L1000.76 911.931L1000.56 911.684L996.733 914.907ZM1003.44 925.334L999.23 928.038L1000.24 929.612L1002.04 930.135L1003.44 925.334ZM1015.97 928.984L1014.57 933.784L1015.94 934.182L1017.31 933.801L1015.97 928.984ZM1029.08 925.334L1030.42 930.151L1032.1 929.684L1033.13 928.274L1029.08 925.334ZM1036.66 914.907L1032.93 911.574L1032.76 911.763L1032.61 911.968L1036.66 914.907ZM1044.82 905.784L1048.55 909.117L1048.73 908.914L1048.89 908.693L1044.82 905.784ZM1058.21 895.66C1059.82 893.414 1059.3 890.291 1057.05 888.684C1054.81 887.077 1051.69 887.595 1050.08 889.841L1058.21 895.66ZM808.472 841.919H813.472V841.376L813.355 840.845L808.472 841.919ZM808.472 850.782L811.848 854.469L813.472 852.983V850.782H808.472ZM802.352 856.386L805.179 860.51L805.469 860.311L805.728 860.074L802.352 856.386ZM797.98 859.384L795.152 855.26L795.1 855.297L795.048 855.334L797.98 859.384ZM791.86 863.815L794.067 868.302L794.449 868.114L794.793 867.865L791.86 863.815ZM786.032 866.683L787.899 871.321L788.072 871.252L788.239 871.169L786.032 866.683ZM780.203 869.029L778.336 864.391L776.399 865.17L775.592 867.096L780.203 869.029ZM778.455 873.2L773.843 871.266L773.455 872.194V873.2H778.455ZM778.455 874.503H773.455V875.404L773.769 876.249L778.455 874.503ZM780.203 879.195L775.518 880.941L776.414 883.346L778.89 884.02L780.203 879.195ZM786.906 881.02L785.593 885.844L786.238 886.02H786.906V881.02ZM799.729 881.02L802.29 876.725L801.106 876.02H799.729V881.02ZM804.974 884.148H809.974V881.308L807.535 879.853L804.974 884.148ZM804.974 892.75L809.68 894.441L809.974 893.621V892.75H804.974ZM802.352 900.049L806.328 903.08L806.796 902.466L807.057 901.74L802.352 900.049ZM797.98 905.784L800.672 909.997L801.419 909.52L801.957 908.815L797.98 905.784ZM791.86 909.694V914.694H793.321L794.552 913.907L791.86 909.694ZM780.203 909.694V904.694H779.587L778.988 904.844L780.203 909.694ZM772.918 911.519L771.703 906.668L767.918 907.616V911.519H772.918ZM772.918 919.339H767.918V922.051L770.191 923.53L772.918 919.339ZM776.123 921.424L773.397 925.615L773.615 925.758L773.848 925.876L776.123 921.424ZM780.203 923.51L777.928 927.962L778.999 928.51H780.203V923.51ZM791.86 923.51L794.573 919.31L793.335 918.51H791.86V923.51ZM797.106 926.898L802.021 925.982L801.627 923.866L799.819 922.698L797.106 926.898ZM797.98 931.59H802.98V931.129L802.896 930.675L797.98 931.59ZM797.98 946.188L801.223 949.994L802.98 948.497V946.188H797.98ZM791.86 951.402V956.402H793.701L795.103 955.208L791.86 951.402ZM776.123 951.402V946.402H774.64L773.397 947.21L776.123 951.402ZM772.918 953.487L770.191 949.296L769.87 949.505L769.584 949.76L772.918 953.487ZM769.712 956.354L766.378 952.628L764.712 954.118V956.354H769.712ZM769.712 967.303H764.712V969.681L766.557 971.182L769.712 967.303ZM772.918 969.909L769.763 973.789L770.394 974.302L771.155 974.589L772.918 969.909ZM778.455 971.995L776.692 976.674L777.544 976.995H778.455V971.995ZM786.032 971.995L787.526 967.223L786.796 966.995H786.032V971.995ZM791.86 973.819L790.366 978.591L791.096 978.819H791.86V973.819ZM795.066 973.819L797.506 969.455L796.369 968.819H795.066V973.819ZM799.729 976.426H804.729V973.493L802.169 972.062L799.729 976.426ZM799.729 992.588L804.38 994.423L804.729 993.539V992.588H799.729ZM797.98 997.019L800.256 1001.47L801.938 1000.61L802.631 998.855L797.98 997.019ZM791.86 1000.15V1005.15H793.064L794.136 1004.6L791.86 1000.15ZM772.918 1000.15V995.147H771.594L770.444 995.802L772.918 1000.15ZM769.712 1001.97L767.238 997.627L766.941 997.796L766.67 998.004L769.712 1001.97ZM765.632 1005.1L762.59 1001.13L760.632 1002.63V1005.1H765.632ZM765.632 1015.01H760.632V1017.6L762.757 1019.1L765.632 1015.01ZM769.712 1017.87L766.837 1021.96L768.131 1022.87H769.712V1017.87ZM776.123 1017.87L778.165 1013.31L777.19 1012.87H776.123V1017.87ZM780.203 1019.7L778.162 1024.26L779.136 1024.7H780.203V1019.7ZM797.106 1019.7H802.106V1014.7H797.106V1019.7ZM797.106 1027.26H792.106V1027.57L792.144 1027.87L797.106 1027.26ZM797.98 1034.3L802.904 1035.16L803.035 1034.42L802.942 1033.68L797.98 1034.3ZM797.106 1039.25L801.791 1040.99L801.951 1040.57L802.03 1040.12L797.106 1039.25ZM795.066 1044.72L798.019 1048.76L799.228 1047.87L799.751 1046.47L795.066 1044.72ZM791.86 1047.07V1052.07H793.494L794.813 1051.1L791.86 1047.07ZM772.918 1047.07V1042.07H772.216L771.542 1042.26L772.918 1047.07ZM765.632 1049.15L764.256 1044.35L763.399 1044.59L762.679 1045.12L765.632 1049.15ZM762.426 1051.5L759.473 1047.47L757.426 1048.96V1051.5H762.426ZM762.426 1061.93H757.426V1064.74L759.828 1066.2L762.426 1061.93ZM769.712 1066.36L767.114 1070.63L768.311 1071.36H769.712V1066.36ZM780.203 1066.36L781.178 1061.45L780.695 1061.36H780.203V1066.36ZM788.072 1067.92L787.097 1072.83L787.58 1072.92H788.072V1067.92ZM791.86 1067.92H796.86V1062.92H791.86V1067.92ZM791.86 1074.44L796.042 1077.18L796.86 1075.93V1074.44H791.86ZM786.906 1082L789.976 1085.95L790.632 1085.43L791.088 1084.74L786.906 1082ZM780.203 1087.21L781.178 1092.12L782.339 1091.89L783.273 1091.16L780.203 1087.21ZM769.712 1089.3V1094.3H770.204L770.687 1094.2L769.712 1089.3ZM762.426 1089.3L758.274 1092.08L759.759 1094.3H762.426V1089.3ZM888.031 827.165L887.439 832.13L887.439 832.13L888.031 827.165ZM884.534 851.824H879.534V854.855L882.221 856.257L884.534 851.824ZM893.277 856.386L890.964 860.819L891.46 861.078L892.002 861.221L893.277 856.386ZM904.642 859.384L908.694 856.453L907.646 855.005L905.918 854.549L904.642 859.384ZM907.848 863.815L912.107 861.196L912.009 861.037L911.899 860.885L907.848 863.815ZM911.054 869.029H916.054V867.615L915.313 866.41L911.054 869.029ZM911.054 874.503L915.54 876.71L916.054 875.666V874.503H911.054ZM907.848 881.02L909.207 885.832L911.351 885.226L912.335 883.227L907.848 881.02ZM896.774 884.148L898.07 888.977L898.102 888.969L898.133 888.96L896.774 884.148ZM888.031 886.494L886.735 881.665L883.031 882.659V886.494H888.031ZM888.031 900.049H883.031V901.352L883.667 902.489L888.031 900.049ZM890.363 904.22L885.998 906.659L887.061 908.561L889.178 909.077L890.363 904.22ZM896.774 905.784L898.536 901.105L898.253 900.998L897.959 900.926L896.774 905.784ZM902.311 907.869L900.549 912.548L901.401 912.869H902.311V907.869ZM911.054 907.869L914.387 904.142L912.964 902.869H911.054V907.869ZM915.134 911.519H920.134V909.283L918.467 907.792L915.134 911.519ZM915.134 923.51L916.349 928.36L920.134 927.412V923.51H915.134ZM907.848 925.334L906.633 920.484L906.561 920.502L906.489 920.523L907.848 925.334ZM902.311 926.898L903.436 931.77L903.554 931.743L903.67 931.71L902.311 926.898ZM893.277 928.984L892.152 924.112L889.603 924.7L888.633 927.13L893.277 928.984ZM890.363 936.283L885.719 934.428L885.363 935.321V936.283H890.363ZM890.363 951.402H885.363V955.604L889.503 956.327L890.363 951.402ZM902.311 953.487L901.451 958.412L901.878 958.487H902.311V953.487ZM915.134 953.487L917.255 948.959L916.247 948.487H915.134V953.487ZM921.254 956.354H926.254V953.175L923.375 951.827L921.254 956.354ZM921.254 967.303L924.296 971.271L926.254 969.77V967.303H921.254ZM915.134 971.995L916.349 976.845L917.354 976.593L918.176 975.963L915.134 971.995ZM907.848 973.819V978.819H908.465L909.063 978.67L907.848 973.819ZM902.311 973.819V968.819H901.193L900.181 969.296L902.311 973.819ZM896.774 976.426V981.426H897.892L898.904 980.95L896.774 976.426ZM890.363 976.426V971.426H885.363V976.426H890.363ZM890.363 987.635H885.363V987.944L885.401 988.251L890.363 987.635ZM891.237 994.673L886.275 995.29L886.347 995.871L886.552 996.419L891.237 994.673ZM893.277 1000.15L888.592 1001.89L889.804 1005.15H893.277V1000.15ZM921.254 1000.15L923.423 995.643L922.395 995.147H921.254V1000.15ZM925.042 1001.97H930.042V998.831L927.212 997.467L925.042 1001.97ZM925.042 1015.01L928.06 1018.99L930.042 1017.49V1015.01H925.042ZM921.254 1017.87L922.682 1022.66L923.55 1022.41L924.271 1021.86L921.254 1017.87ZM915.134 1019.7V1024.7H915.863L916.562 1024.49L915.134 1019.7ZM907.848 1019.7V1014.7H907.279L906.724 1014.83L907.848 1019.7ZM898.814 1021.78V1026.78H899.384L899.939 1026.66L898.814 1021.78ZM893.277 1021.78V1016.78H889.414L888.439 1020.52L893.277 1021.78ZM891.237 1029.6L886.399 1028.34L886.237 1028.96V1029.6H891.237ZM891.237 1044.72H886.237V1047.59L888.713 1049.04L891.237 1044.72ZM898.814 1049.15L896.29 1053.47L897.459 1054.15H898.814V1049.15ZM927.957 1049.15L930.449 1044.82L929.292 1044.15H927.957V1049.15ZM932.037 1051.5H937.037V1048.61L934.529 1047.17L932.037 1051.5ZM932.037 1061.93L936.17 1064.74L937.037 1063.47V1061.93H932.037ZM927.957 1067.92V1072.92H930.602L932.09 1070.74L927.957 1067.92ZM902.311 1067.92V1062.92H901.66L901.03 1063.09L902.311 1067.92ZM894.443 1070.01L893.162 1065.17L890.348 1065.92L889.607 1068.74L894.443 1070.01ZM893.277 1074.44L888.441 1073.17L887.835 1075.47L889.243 1077.39L893.277 1074.44ZM898.814 1082L894.78 1084.95L895.524 1085.97L896.661 1086.51L898.814 1082ZM903.185 1084.08L906.912 1080.75L906.244 1080L905.338 1079.57L903.185 1084.08ZM907.848 1089.3L904.121 1092.63L904.307 1092.84L904.515 1093.02L907.848 1089.3ZM911.054 1092.17L907.72 1095.89L909.144 1097.17H911.054V1092.17ZM927.957 1092.17V1097.17H930.316L931.816 1095.34L927.957 1092.17ZM932.037 1087.21L935.896 1090.39L936.224 1089.99L936.464 1089.54L932.037 1087.21ZM938.739 1074.44L934.409 1071.94L934.359 1072.03L934.312 1072.12L938.739 1074.44ZM943.402 1066.36L940.305 1062.43L939.551 1063.03L939.072 1063.86L943.402 1066.36ZM953.311 1058.54L950.578 1054.35L950.39 1054.47L950.213 1054.61L953.311 1058.54ZM964.094 1051.5L962.46 1046.77L961.877 1046.98L961.361 1047.31L964.094 1051.5ZM976.916 1047.07L976.089 1042.14L975.678 1042.21L975.283 1042.34L976.916 1047.07ZM990.905 1044.72V1039.72H990.488L990.078 1039.79L990.905 1044.72ZM1000.23 1044.72V1049.72H1000.57L1000.9 1049.68L1000.23 1044.72ZM1013.64 1042.9L1014.57 1037.99L1013.77 1037.83L1012.96 1037.94L1013.64 1042.9ZM1023.25 1044.72L1022.32 1049.63L1022.36 1049.64L1022.39 1049.65L1023.25 1044.72ZM1036.66 1047.07L1039.05 1042.67L1038.33 1042.28L1037.52 1042.14L1036.66 1047.07ZM1044.82 1051.5L1042.43 1055.89L1042.5 1055.93L1042.57 1055.97L1044.82 1051.5ZM1054.14 1056.19L1057.83 1052.82L1057.21 1052.14L1056.39 1051.73L1054.14 1056.19ZM1059.39 1061.93L1063.45 1059L1063.28 1058.77L1063.08 1058.55L1059.39 1061.93ZM1065.22 1070.01L1069.45 1067.34L1069.36 1067.21L1069.27 1067.08L1065.22 1070.01ZM1072.8 1082L1077.06 1079.38L1077.04 1079.35L1077.02 1079.33L1072.8 1082ZM1076 1087.21L1071.74 1089.83L1071.85 1090L1071.97 1090.17L1076 1087.21ZM1081.54 1094.77H1086.54V1093.14L1085.57 1091.82L1081.54 1094.77ZM1081.54 1122.4L1085.43 1125.54L1086.54 1124.17V1122.4H1081.54ZM1070.17 1136.48L1066.28 1133.34L1066.27 1133.36L1066.25 1133.38L1070.17 1136.48ZM1065.22 1142.74L1068.46 1146.55L1068.83 1146.23L1069.14 1145.84L1065.22 1142.74ZM1059.39 1147.69L1056.15 1143.88L1055.49 1144.44L1055.06 1145.2L1059.39 1147.69ZM1054.14 1156.81L1058.25 1159.66L1058.37 1159.49L1058.48 1159.3L1054.14 1156.81ZM1048.9 1164.37L1044.79 1161.52L1044.68 1161.69L1044.57 1161.86L1048.9 1164.37ZM1044.82 1171.41L1048.34 1174.96L1048.81 1174.49L1049.14 1173.92L1044.82 1171.41ZM1036.66 1179.49L1033.14 1175.94L1032.3 1176.77L1031.93 1177.88L1036.66 1179.49ZM1032.58 1191.48L1027.85 1189.87L1027.81 1189.98L1027.78 1190.08L1032.58 1191.48ZM1029.08 1203.47L1024.28 1202.07L1024.08 1202.76V1203.47H1029.08ZM1029.08 1234.75H1024.08V1235.85L1024.54 1236.85L1029.08 1234.75ZM1032.58 1242.31L1028.04 1244.41L1028.57 1245.55L1029.57 1246.3L1032.58 1242.31ZM1041.9 1249.35L1045.16 1245.55L1045.04 1245.45L1044.92 1245.36L1041.9 1249.35ZM1048.9 1255.35L1045.64 1259.14L1046.54 1259.91L1047.69 1260.2L1048.9 1255.35ZM1059.39 1257.95L1058.18 1262.81L1059.37 1263.1L1060.57 1262.81L1059.39 1257.95ZM1070.17 1255.35L1071.35 1260.21L1073.76 1259.62L1074.75 1257.35L1070.17 1255.35ZM1072.8 1249.35L1069.16 1245.91L1068.56 1246.55L1068.21 1247.35L1072.8 1249.35ZM1076 1245.96V1240.96H1073.85L1072.37 1242.53L1076 1245.96ZM1081.54 1245.96L1083.52 1241.37L1082.57 1240.96H1081.54V1245.96ZM1089.41 1249.35L1092.66 1245.55L1092.08 1245.06L1091.38 1244.76L1089.41 1249.35ZM1096.4 1255.35L1100.45 1252.42L1100.11 1251.94L1099.66 1251.55L1096.4 1255.35ZM1102.81 1264.21L1107.55 1262.62L1107.31 1261.9L1106.86 1261.28L1102.81 1264.21ZM1106.31 1274.64H1111.31V1273.82L1111.05 1273.05L1106.31 1274.64ZM1106.31 1310.61L1110.72 1312.97L1111.31 1311.87V1310.61H1106.31ZM1102.81 1317.13L1106.86 1320.06L1107.06 1319.79L1107.22 1319.49L1102.81 1317.13ZM1096.4 1325.99L1092.35 1323.06L1091.89 1323.69L1091.65 1324.44L1096.4 1325.99ZM758.929 1084.08L763.081 1081.3L762.825 1080.92L762.503 1080.59L758.929 1084.08ZM752.809 1077.83L748.515 1080.39L748.819 1080.9L749.235 1081.32L752.809 1077.83ZM748.146 1070.01L752.441 1067.45L752.18 1067.01L751.836 1066.63L748.146 1070.01ZM737.655 1058.54L741.344 1055.16L740.961 1054.74L740.495 1054.42L737.655 1058.54ZM727.455 1051.5L730.295 1047.38L729.622 1046.92L728.837 1046.69L727.455 1051.5ZM719.295 1049.15L720.677 1044.35L720.429 1044.28L720.175 1044.23L719.295 1049.15ZM707.638 1047.07L705.771 1051.71L706.25 1051.9L706.757 1051.99L707.638 1047.07ZM701.809 1044.72L703.676 1040.08L703.147 1039.87L702.583 1039.78L701.809 1044.72ZM690.152 1042.9L690.926 1037.96L690.541 1037.9H690.152V1042.9ZM671.501 1042.9V1037.9H670.988L670.486 1038L671.501 1042.9ZM651.393 1047.07L650.377 1042.17L649.945 1042.26L649.535 1042.43L651.393 1047.07ZM640.318 1051.5L638.461 1046.86L637.482 1047.25L636.744 1048L640.318 1051.5ZM630.118 1061.93L626.544 1058.43L626.256 1058.73L626.02 1059.06L630.118 1061.93ZM621.376 1074.44L617.277 1071.58L616.988 1071.99L616.788 1072.45L621.376 1074.44ZM615.838 1087.21L611.251 1085.22L611.082 1085.61L610.981 1086.03L615.838 1087.21ZM612.341 1101.55L607.484 1100.36L607.341 1100.95V1101.55H612.341ZM612.341 1127.1H607.341V1129.11L608.739 1130.56L612.341 1127.1ZM621.376 1136.48L625.318 1133.4L625.158 1133.2L624.978 1133.01L621.376 1136.48ZM630.118 1147.69L634.384 1145.08L634.236 1144.84L634.061 1144.61L630.118 1147.69ZM640.318 1164.37L636.052 1166.98L636.389 1167.53L636.854 1167.98L640.318 1164.37ZM656.055 1179.49L660.526 1177.25L660.141 1176.48L659.519 1175.88L656.055 1179.49ZM664.798 1196.96H669.798V1195.77L669.269 1194.72L664.798 1196.96ZM664.798 1234.75L669.088 1237.32L669.798 1236.14V1234.75H664.798ZM656.055 1249.35L658.454 1253.74L659.646 1253.09L660.345 1251.92L656.055 1249.35ZM640.318 1257.95V1262.95H641.596L642.717 1262.34L640.318 1257.95ZM628.953 1257.95L627.978 1262.86L628.461 1262.95H628.953V1257.95ZM615.838 1255.35L611.153 1257.09L612.127 1259.71L614.864 1260.25L615.838 1255.35ZM612.341 1245.96L617.027 1244.22C616.297 1242.26 614.429 1240.96 612.341 1240.96V1245.96ZM601.267 1245.96V1240.96H598.819L597.318 1242.9L601.267 1245.96ZM593.981 1255.35L597.844 1258.52L597.888 1258.47L597.931 1258.41L593.981 1255.35ZM586.696 1264.21L582.833 1261.03L582.148 1261.87L581.868 1262.91L586.696 1264.21ZM582.907 1278.29L578.079 1276.99L577.907 1277.62V1278.29H582.907ZM582.907 1299.14H577.907V1299.94L578.16 1300.71L582.907 1299.14ZM586.696 1310.61L581.948 1312.18L582.045 1312.47L582.177 1312.75L586.696 1310.61ZM593.981 1325.99L589.463 1328.13L589.485 1328.18L589.508 1328.22L593.981 1325.99ZM601.267 1340.59H606.267V1339.41L605.741 1338.35L601.267 1340.59ZM810.803 809.856L815.507 811.552L815.578 811.355L815.632 811.152L810.803 809.856ZM814.3 796.822L819.129 798.118L819.3 797.482V796.822H814.3ZM814.3 790.306H819.3V783.063L812.528 785.63L814.3 790.306ZM797.106 796.822L798.814 801.522L798.846 801.51L798.878 801.498L797.106 796.822ZM778.455 803.6L779.01 808.569L779.602 808.503L780.162 808.299L778.455 803.6ZM764.466 805.164V810.164H764.745L765.022 810.133L764.466 805.164ZM750.769 800.164C748.008 800.164 745.769 802.403 745.769 805.164C745.769 807.925 748.008 810.164 750.769 810.164V800.164ZM884.534 815.33H889.534V813.941L888.818 812.752L884.534 815.33ZM878.414 805.164H873.414V806.553L874.13 807.743L878.414 805.164ZM878.414 796.822L876.175 792.352L873.414 793.735V796.822H878.414ZM885.7 793.173V788.173H884.517L883.46 788.703L885.7 793.173ZM904.642 793.173L907.116 788.828L905.966 788.173H904.642V793.173ZM911.054 796.822L908.58 801.168L908.919 801.361L909.284 801.499L911.054 796.822ZM918.631 799.69L920.514 795.058L920.458 795.035L920.401 795.014L918.631 799.69ZM928.248 803.6L926.365 808.232L926.729 808.38L927.112 808.469L928.248 803.6ZM934.951 805.164L936.541 800.424L936.317 800.348L936.087 800.295L934.951 805.164ZM947.349 814.597C949.967 815.475 952.802 814.064 953.68 811.446C954.558 808.828 953.148 805.994 950.529 805.116L947.349 814.597ZM1092.32 1338.5L1087.57 1336.95L1087.49 1337.19L1087.44 1337.43L1092.32 1338.5ZM1089.41 1351.8L1094.29 1352.89L1094.29 1352.88L1094.29 1352.87L1089.41 1351.8ZM1086.78 1363.53V1368.53H1090.79L1091.66 1364.62L1086.78 1363.53ZM601.267 1359.35H596.267V1364.35H601.267V1359.35ZM671.21 1359.35V1364.35H674.682L675.895 1361.1L671.21 1359.35ZM678.204 1340.59L682.889 1342.33L683.012 1342L683.087 1341.66L678.204 1340.59ZM681.41 1325.99L686.293 1327.06L686.41 1326.53V1325.99H681.41ZM681.41 1316.6H686.41V1315.35L685.819 1314.25L681.41 1316.6ZM678.204 1310.61L682.613 1308.25L682.025 1307.15L680.989 1306.46L678.204 1310.61ZM671.21 1305.92L673.995 1301.76L672.731 1300.92H671.21V1305.92ZM668.004 1305.92H663.004V1310.92H668.004V1305.92ZM668.004 1299.14L664.962 1295.17L663.004 1296.67V1299.14H668.004ZM678.204 1291.32L676.502 1286.62L675.775 1286.88L675.162 1287.35L678.204 1291.32ZM690.444 1286.89V1281.89H689.566L688.742 1282.19L690.444 1286.89ZM713.758 1286.89H718.758V1281.89H713.758V1286.89ZM713.758 1296.27H708.758V1297.29L709.153 1298.22L713.758 1296.27ZM717.838 1305.92L713.233 1307.86L713.297 1308.02L713.371 1308.16L717.838 1305.92ZM725.706 1321.56L721.24 1323.8L721.498 1324.32L721.865 1324.76L725.706 1321.56ZM737.655 1335.89L733.814 1339.1L734.589 1340.03L735.704 1340.5L737.655 1335.89ZM748.729 1340.59L746.778 1345.19L747.216 1345.38L747.68 1345.48L748.729 1340.59ZM763.3 1343.71L762.251 1348.6L762.77 1348.71H763.3V1343.71ZM795.94 1343.71V1348.71H796.599L797.236 1348.54L795.94 1343.71ZM807.597 1340.59L808.893 1345.42L810.358 1345.02L811.358 1343.88L807.597 1340.59ZM816.049 1330.94L819.809 1334.24L819.94 1334.09L820.058 1333.93L816.049 1330.94ZM823.043 1321.56L819.805 1317.75L819.373 1318.11L819.034 1318.57L823.043 1321.56ZM828.872 1316.6V1311.6H827.034L825.634 1312.79L828.872 1316.6ZM861.803 1316.6L865.518 1313.26L864.029 1311.6H861.803V1316.6ZM870.254 1325.99L874.113 1322.81L874.043 1322.72L873.969 1322.64L870.254 1325.99ZM878.414 1335.89L874.555 1339.07L875.225 1339.89L876.167 1340.36L878.414 1335.89ZM887.74 1340.59L885.492 1345.05L885.935 1345.28L886.413 1345.41L887.74 1340.59ZM899.105 1343.71L897.779 1348.54L898.43 1348.71H899.105V1343.71ZM938.739 1343.71V1348.71H939.327L939.9 1348.58L938.739 1343.71ZM951.854 1340.59L953.014 1345.45L954.659 1345.06L955.728 1343.75L951.854 1340.59ZM959.722 1330.94L955.891 1327.73L955.869 1327.75L955.848 1327.78L959.722 1330.94ZM967.591 1321.56L971.422 1324.77L971.902 1324.2L972.194 1323.51L967.591 1321.56ZM970.796 1314L975.4 1315.95L975.516 1315.68L975.599 1315.39L970.796 1314ZM972.836 1306.96L968.397 1304.66L968.171 1305.1L968.034 1305.57L972.836 1306.96ZM978.373 1296.27L982.813 1298.57L982.985 1298.24L983.105 1297.89L978.373 1296.27ZM981.579 1286.89V1281.89H978.004L976.848 1285.27L981.579 1286.89ZM1000.81 1286.89L1004.42 1283.42L1002.94 1281.89H1000.81V1286.89ZM1009.85 1296.27L1014.19 1293.79L1013.88 1293.25L1013.45 1292.8L1009.85 1296.27ZM1015.97 1306.96L1020.85 1308.03L1021.26 1306.15L1020.31 1304.48L1015.97 1306.96ZM1012.76 1321.56L1017.54 1323.04L1017.6 1322.84L1017.65 1322.63L1012.76 1321.56ZM1009.85 1330.94L1005.07 1329.46L1004.56 1331.12L1005.18 1332.74L1009.85 1330.94ZM1012.76 1338.5L1017.53 1337L1017.48 1336.85L1017.43 1336.7L1012.76 1338.5ZM1015.97 1348.67L1011.2 1350.17L1011.26 1350.37L1011.34 1350.57L1015.97 1348.67ZM1022.09 1363.53L1017.46 1365.43L1018.74 1368.53H1022.09V1363.53ZM616.046 723.826L611.384 737.902L620.876 741.047L625.539 726.97L616.046 723.826ZM611.13 739.474V755.636H621.13V739.474H611.13ZM611.195 756.443L612.944 767.131L622.813 765.516L621.064 754.829L611.195 756.443ZM614.451 769.964L625.525 780.391L632.38 773.11L621.306 762.683L614.451 769.964ZM626.261 780.964L642.581 791.391L647.965 782.964L631.645 772.537L626.261 780.964ZM644.28 792.078L659.726 795.206L661.711 785.405L646.265 782.277L644.28 792.078ZM660.718 795.306H680.535V785.306H660.718V795.306ZM682.114 795.05L707.177 786.708L704.019 777.22L678.956 785.561L682.114 795.05ZM707.592 786.549L728.574 777.426L724.587 768.255L703.604 777.379L707.592 786.549ZM729.025 777.202L753.213 763.647L748.325 754.924L724.136 768.479L729.025 777.202ZM753.451 763.505L775.599 749.429L770.236 740.989L748.087 755.066L753.451 763.505ZM776.181 748.998L791.918 735.443L785.391 727.866L769.654 741.421L776.181 748.998ZM791.474 735.784L813.622 720.665L807.984 712.406L785.836 727.525L791.474 735.784ZM760.776 758.78L722.89 800.227L730.271 806.973L768.157 765.526L760.776 758.78ZM723.889 799.387L705.529 811.117L710.913 819.544L729.273 807.813L723.889 799.387ZM705.988 810.856L678.303 824.672L682.768 833.62L710.453 819.804L705.988 810.856ZM679.901 824.186L655.422 827.314L656.689 837.234L681.169 834.106L679.901 824.186ZM657.902 827.628L642.165 821.372L638.471 830.664L654.208 836.92L657.902 827.628ZM643.744 822.375L632.378 811.688L625.527 818.973L636.893 829.66L643.744 822.375ZM633.057 812.475L624.897 800.745L616.688 806.455L624.848 818.186L633.057 812.475ZM625.511 801.945L620.848 788.651L611.412 791.96L616.075 805.255L625.511 801.945ZM621.105 789.809L619.648 775.211L609.697 776.205L611.155 790.802L621.105 789.809ZM619.404 777.324L622.61 767.94L613.147 764.707L609.941 774.092L619.404 777.324ZM766.204 753.426L760.958 758.59L767.974 765.716L773.22 760.552L766.204 753.426ZM765.216 754.801L755.599 774.563L764.591 778.939L774.208 759.177L765.216 754.801ZM755.501 774.776L749.673 788.331L758.86 792.281L764.688 778.726L755.501 774.776ZM736.188 806.98L724.822 823.142L733.002 828.894L744.368 812.732L736.188 806.98ZM726.051 821.917L711.48 832.083L717.202 840.285L731.773 830.118L726.051 821.917ZM710.471 833.018L701.728 843.706L709.468 850.038L718.211 839.35L710.471 833.018ZM702.653 842.831L686.916 854.301L692.806 862.382L708.543 850.912L702.653 842.831ZM687.793 853.789L669.433 862.131L673.569 871.235L691.929 862.893L687.793 853.789ZM670.75 861.74L655.305 864.086L656.806 873.972L672.252 871.626L670.75 861.74ZM658.097 864.465L642.36 857.426L638.277 866.555L654.014 873.593L658.097 864.465ZM633.456 848.61L627.045 835.316L618.038 839.659L624.449 852.954L633.456 848.61ZM627.443 836.501L624.82 823.467L615.017 825.44L617.64 838.474L627.443 836.501ZM624.895 823.967L622.855 803.113L612.902 804.087L614.942 824.941L624.895 823.967ZM643.829 858.431L638.146 852.826L631.125 859.946L636.807 865.551L643.829 858.431ZM638.146 852.826L632.464 847.222L625.442 854.342L631.125 859.946L638.146 852.826ZM618.038 839.659C623.338 850.65 628.712 857.567 631.125 859.946L638.146 852.826C636.77 851.469 632.003 845.595 627.045 835.316L618.038 839.659ZM750.2 787.396L739.569 802.255L747.701 808.073L758.333 793.215L750.2 787.396ZM739.569 802.255L736.211 806.947L744.344 812.766L747.701 808.073L739.569 802.255ZM738.921 803.496L732.65 821.222L742.077 824.557L748.349 806.832L738.921 803.496ZM733.129 820.231L721.181 839.26L729.649 844.578L741.598 825.549L733.129 820.231ZM721.192 839.241L710.118 856.706L718.563 862.061L729.638 844.596L721.192 839.241ZM710.564 856.108L697.449 871.227L705.004 877.779L718.118 862.66L710.564 856.108ZM697.991 870.691L686.626 880.336L693.096 887.96L704.462 878.315L697.991 870.691ZM686.471 880.473L677.145 889.075L683.925 896.425L693.251 887.823L686.471 880.473ZM678.431 888.214L662.694 895.513L666.902 904.585L682.639 897.286L678.431 888.214ZM664.798 895.049H651.393V905.049H664.798V895.049ZM654.144 895.874L643.07 888.575L637.567 896.925L648.641 904.224L654.144 895.874ZM644.756 890.447L639.073 879.498L630.198 884.105L635.881 895.054L644.756 890.447ZM639.349 880.135L634.832 867.362L625.404 870.696L629.922 883.469L639.349 880.135ZM635.107 868.691L633.941 851.486L623.964 852.162L625.13 869.367L635.107 868.691ZM807.295 712.972L786.75 733.199L793.765 740.325L814.311 720.098L807.295 712.972ZM786.75 733.199L766.204 753.426L773.22 760.552L793.765 740.325L786.75 733.199ZM756.032 794.983L819.563 771.002L816.031 761.646L752.5 785.628L756.032 794.983ZM817.797 771.324H884.534V761.324H817.797V771.324ZM882.739 770.99L936.944 791.844L940.535 782.511L886.329 761.657L882.739 770.99ZM636.175 895.549L660.655 931.783L668.941 926.185L644.461 889.951L636.175 895.549ZM664.798 933.984H680.535V923.984H664.798V933.984ZM682.637 933.521L698.957 925.961L694.754 916.887L678.434 924.447L682.637 933.521ZM700.446 924.903L711.812 913.173L704.63 906.215L693.264 917.945L700.446 924.903ZM712.406 912.429L723.48 895.486L715.11 890.015L704.035 906.958L712.406 912.429ZM723.718 895.081L733.335 876.834L724.489 872.172L714.872 890.419L723.718 895.081ZM732.909 877.507L744.274 862.388L736.281 856.38L724.915 871.499L732.909 877.507ZM743.611 863.111L757.6 850.598L750.933 843.145L736.944 855.657L743.611 863.111ZM756.752 851.21L775.403 840.522L770.432 831.846L751.78 842.533L756.752 851.21ZM774.429 840.95L806.486 830.784L803.463 821.252L771.406 831.418L774.429 840.95ZM804.974 831.018H878.414V821.018H804.974V831.018ZM902.399 833.614L919.01 841.956L923.498 833.019L906.886 824.678L902.399 833.614ZM918.084 841.354L935.569 855.691L941.91 847.958L924.424 833.621L918.084 841.354ZM935.378 855.526L954.321 872.73L961.044 865.328L942.101 848.123L935.378 855.526ZM953.833 872.22L966.364 887.339L974.063 880.957L961.532 865.838L953.833 872.22ZM966.459 887.45L980.448 903.352L987.956 896.746L973.968 880.845L966.459 887.45ZM980.38 903.273L992.911 918.131L1000.56 911.684L988.024 896.825L980.38 903.273ZM992.527 917.611L999.23 928.038L1007.64 922.631L1000.94 912.204L992.527 917.611ZM1002.04 930.135L1014.57 933.784L1017.37 924.183L1004.83 920.534L1002.04 930.135ZM1017.31 933.801L1030.42 930.151L1027.74 920.517L1014.63 924.167L1017.31 933.801ZM1033.13 928.274L1040.7 917.847L1032.61 911.968L1025.04 922.395L1033.13 928.274ZM1040.39 918.241L1048.55 909.117L1041.09 902.451L1032.93 911.574L1040.39 918.241ZM1048.89 908.693L1058.21 895.66L1050.08 889.841L1040.75 902.874L1048.89 908.693ZM800.091 827.092L803.588 842.993L813.355 840.845L809.858 824.944L800.091 827.092ZM803.472 841.919V850.782H813.472V841.919H803.472ZM805.095 847.094L798.975 852.699L805.728 860.074L811.848 854.469L805.095 847.094ZM799.524 852.263L795.152 855.26L800.808 863.508L805.179 860.51L799.524 852.263ZM795.048 855.334L788.928 859.766L794.793 867.865L800.913 863.434L795.048 855.334ZM789.653 859.329L783.825 862.196L788.239 871.169L794.067 868.302L789.653 859.329ZM784.165 862.044L778.336 864.391L782.07 873.667L787.899 871.321L784.165 862.044ZM775.592 867.096L773.843 871.266L783.066 875.133L784.814 870.962L775.592 867.096ZM773.455 873.2V874.503H783.455V873.2H773.455ZM773.769 876.249L775.518 880.941L784.888 877.449L783.14 872.757L773.769 876.249ZM778.89 884.02L785.593 885.844L788.219 876.195L781.517 874.371L778.89 884.02ZM786.906 886.02H791.86V876.02H786.906V886.02ZM791.86 886.02H799.729V876.02H791.86V886.02ZM797.168 885.314L802.414 888.442L807.535 879.853L802.29 876.725L797.168 885.314ZM799.974 884.148V892.75H809.974V884.148H799.974ZM800.269 891.059L797.646 898.358L807.057 901.74L809.68 894.441L800.269 891.059ZM798.375 897.018L794.004 902.753L801.957 908.815L806.328 903.08L798.375 897.018ZM795.288 901.57L789.168 905.48L794.552 913.907L800.672 909.997L795.288 901.57ZM791.86 904.694H786.032V914.694H791.86V904.694ZM786.032 904.694H780.203V914.694H786.032V904.694ZM778.988 904.844L771.703 906.668L774.132 916.369L781.418 914.544L778.988 904.844ZM767.918 911.519V916.732H777.918V911.519H767.918ZM767.918 916.732V919.339H777.918V916.732H767.918ZM770.191 923.53L773.397 925.615L778.85 917.233L775.644 915.148L770.191 923.53ZM773.848 925.876L777.928 927.962L782.479 919.057L778.399 916.972L773.848 925.876ZM780.203 928.51H786.032V918.51H780.203V928.51ZM786.032 928.51H791.86V918.51H786.032V928.51ZM789.147 927.709L794.393 931.098L799.819 922.698L794.573 919.31L789.147 927.709ZM792.191 927.814L793.065 932.506L802.896 930.675L802.021 925.982L792.191 927.814ZM792.98 931.59V936.283H802.98V931.59H792.98ZM792.98 936.283V940.714H802.98V936.283H792.98ZM792.98 940.714V946.188H802.98V940.714H792.98ZM794.738 942.382L788.618 947.595L795.103 955.208L801.223 949.994L794.738 942.382ZM791.86 946.402H786.032V956.402H791.86V946.402ZM786.032 946.402H776.123V956.402H786.032V946.402ZM773.397 947.21L770.191 949.296L775.644 957.678L778.85 955.593L773.397 947.21ZM769.584 949.76L766.378 952.628L773.045 960.081L776.251 957.214L769.584 949.76ZM764.712 956.354V959.482H774.712V956.354H764.712ZM764.712 959.482V964.435H774.712V959.482H764.712ZM764.712 964.435V967.303H774.712V964.435H764.712ZM766.557 971.182L769.763 973.789L776.072 966.03L772.866 963.423L766.557 971.182ZM771.155 974.589L776.692 976.674L780.217 967.316L774.68 965.23L771.155 974.589ZM778.455 976.995H780.203V966.995H778.455V976.995ZM780.203 976.995H786.032V966.995H780.203V976.995ZM784.538 976.766L790.366 978.591L793.354 969.048L787.526 967.223L784.538 976.766ZM791.86 978.819H795.066V968.819H791.86V978.819ZM792.626 978.184L797.289 980.79L802.169 972.062L797.506 969.455L792.626 978.184ZM794.729 976.426V983.204H804.729V976.426H794.729ZM794.729 983.204V987.635H804.729V983.204H794.729ZM794.729 987.635V992.588H804.729V987.635H794.729ZM795.078 990.753L793.329 995.184L802.631 998.855L804.38 994.423L795.078 990.753ZM795.705 992.567L789.585 995.695L794.136 1004.6L800.256 1001.47L795.705 992.567ZM791.86 995.147H786.906V1005.15H791.86V995.147ZM786.906 995.147H778.455V1005.15H786.906V995.147ZM778.455 995.147H772.918V1005.15H778.455V995.147ZM770.444 995.802L767.238 997.627L772.185 1006.32L775.391 1004.49L770.444 995.802ZM766.67 998.004L762.59 1001.13L768.674 1009.07L772.754 1005.94L766.67 998.004ZM760.632 1005.1V1010.05H770.632V1005.1H760.632ZM760.632 1010.05V1015.01H770.632V1010.05H760.632ZM762.757 1019.1L766.837 1021.96L772.587 1013.78L768.507 1010.92L762.757 1019.1ZM769.712 1022.87H776.123V1012.87H769.712V1022.87ZM774.082 1022.44L778.162 1024.26L782.245 1015.13L778.165 1013.31L774.082 1022.44ZM780.203 1024.7H786.906V1014.7H780.203V1024.7ZM786.906 1024.7H791.86V1014.7H786.906V1024.7ZM791.86 1024.7H797.106V1014.7H791.86V1024.7ZM792.106 1019.7V1027.26H802.106V1019.7H792.106ZM792.144 1027.87L793.018 1034.91L802.942 1033.68L802.068 1026.64L792.144 1027.87ZM793.056 1033.43L792.182 1038.38L802.03 1040.12L802.904 1035.16L793.056 1033.43ZM792.421 1037.5L790.381 1042.98L799.751 1046.47L801.791 1040.99L792.421 1037.5ZM792.113 1040.69L788.907 1043.03L794.813 1051.1L798.019 1048.76L792.113 1040.69ZM791.86 1042.07H786.906V1052.07H791.86V1042.07ZM786.906 1042.07H780.203V1052.07H786.906V1042.07ZM780.203 1042.07H772.918V1052.07H780.203V1042.07ZM771.542 1042.26L764.256 1044.35L767.008 1053.96L774.293 1051.88L771.542 1042.26ZM762.679 1045.12L759.473 1047.47L765.379 1055.53L768.585 1053.19L762.679 1045.12ZM757.426 1051.5V1056.19H767.426V1051.5H757.426ZM757.426 1056.19V1061.93H767.426V1056.19H757.426ZM759.828 1066.2L767.114 1070.63L772.31 1062.09L765.024 1057.66L759.828 1066.2ZM769.712 1071.36H772.918V1061.36H769.712V1071.36ZM772.918 1071.36H780.203V1061.36H772.918V1071.36ZM779.228 1071.26L787.097 1072.83L789.047 1063.02L781.178 1061.45L779.228 1071.26ZM788.072 1072.92H791.86V1062.92H788.072V1072.92ZM786.86 1067.92V1074.44H796.86V1067.92H786.86ZM787.678 1071.7L782.724 1079.26L791.088 1084.74L796.042 1077.18L787.678 1071.7ZM783.836 1078.05L777.133 1083.27L783.273 1091.16L789.976 1085.95L783.836 1078.05ZM779.228 1082.31L768.737 1084.39L770.687 1094.2L781.178 1092.12L779.228 1082.31ZM769.712 1084.3H762.426V1094.3H769.712V1084.3ZM887.439 832.13L904.05 834.111L905.235 824.181L888.623 822.2L887.439 832.13ZM877.822 830.983L883.942 831.713L885.126 821.783L879.006 821.053L877.822 830.983ZM883.942 831.713L887.439 832.13L888.623 822.2L885.126 821.783L883.942 831.713ZM879.534 826.748V837.487H889.534V826.748H879.534ZM879.534 837.487V846.872H889.534V837.487H879.534ZM879.534 846.872V851.824H889.534V846.872H879.534ZM882.221 856.257L890.964 860.819L895.59 851.953L886.847 847.392L882.221 856.257ZM892.002 861.221L903.367 864.219L905.918 854.549L894.552 851.552L892.002 861.221ZM900.591 862.315L903.797 866.746L911.899 860.885L908.694 856.453L900.591 862.315ZM903.589 866.434L906.795 871.648L915.313 866.41L912.107 861.196L903.589 866.434ZM906.054 869.029V874.503H916.054V869.029H906.054ZM906.567 872.296L903.362 878.813L912.335 883.227L915.54 876.71L906.567 872.296ZM906.489 876.208L895.415 879.336L898.133 888.96L909.207 885.832L906.489 876.208ZM895.478 879.319L886.735 881.665L889.327 891.323L898.07 888.977L895.478 879.319ZM883.031 886.494V896.4H893.031V886.494H883.031ZM883.031 896.4V900.049H893.031V896.4H883.031ZM883.667 902.489L885.998 906.659L894.727 901.78L892.396 897.609L883.667 902.489ZM889.178 909.077L895.589 910.641L897.959 900.926L891.548 899.362L889.178 909.077ZM895.012 910.463L900.549 912.548L904.073 903.19L898.536 901.105L895.012 910.463ZM902.311 912.869H907.848V902.869H902.311V912.869ZM907.848 912.869H911.054V902.869H907.848V912.869ZM907.72 911.596L911.8 915.245L918.467 907.792L914.387 904.142L907.72 911.596ZM910.134 911.519V916.732H920.134V911.519H910.134ZM910.134 916.732V923.51H920.134V916.732H910.134ZM913.919 918.659L906.633 920.484L909.063 930.184L916.349 928.36L913.919 918.659ZM906.489 920.523L900.952 922.087L903.67 931.71L909.207 930.146L906.489 920.523ZM901.186 922.026L892.152 924.112L894.401 933.856L903.436 931.77L901.186 922.026ZM888.633 927.13L885.719 934.428L895.006 938.137L897.92 930.838L888.633 927.13ZM885.363 936.283V943.842H895.363V936.283H885.363ZM885.363 943.842V951.402H895.363V943.842H885.363ZM889.503 956.327L901.451 958.412L903.171 948.561L891.222 946.476L889.503 956.327ZM902.311 958.487H907.848V948.487H902.311V958.487ZM907.848 958.487H915.134V948.487H907.848V958.487ZM913.012 958.015L919.132 960.882L923.375 951.827L917.255 948.959L913.012 958.015ZM916.254 956.354V959.482H926.254V956.354H916.254ZM916.254 959.482V964.435H926.254V959.482H916.254ZM916.254 964.435V967.303H926.254V964.435H916.254ZM918.212 963.335L912.092 968.027L918.176 975.963L924.296 971.271L918.212 963.335ZM913.919 967.145L906.633 968.969L909.063 978.67L916.349 976.845L913.919 967.145ZM907.848 968.819H902.311V978.819H907.848V968.819ZM900.181 969.296L894.644 971.902L898.904 980.95L904.441 978.343L900.181 969.296ZM896.774 971.426H890.363V981.426H896.774V971.426ZM885.363 976.426V983.204H895.363V976.426H885.363ZM885.363 983.204V987.635H895.363V983.204H885.363ZM885.401 988.251L886.275 995.29L896.199 994.057L895.324 987.019L885.401 988.251ZM886.552 996.419L888.592 1001.89L897.962 998.401L895.922 992.927L886.552 996.419ZM893.277 1005.15H896.774V995.147H893.277V1005.15ZM896.774 1005.15H904.642V995.147H896.774V1005.15ZM904.642 1005.15H911.054V995.147H904.642V1005.15ZM911.054 1005.15H918.048V995.147H911.054V1005.15ZM918.048 1005.15H921.254V995.147H918.048V1005.15ZM919.084 1004.65L922.873 1006.48L927.212 997.467L923.423 995.643L919.084 1004.65ZM920.042 1001.97V1007.45H930.042V1001.97H920.042ZM920.042 1007.45V1015.01H930.042V1007.45H920.042ZM922.025 1011.02L918.236 1013.89L924.271 1021.86L928.06 1018.99L922.025 1011.02ZM919.825 1013.08L913.705 1014.91L916.562 1024.49L922.682 1022.66L919.825 1013.08ZM915.134 1014.7H907.848V1024.7H915.134V1014.7ZM906.724 1014.83L897.689 1016.91L899.939 1026.66L908.973 1024.57L906.724 1014.83ZM898.814 1016.78H893.277V1026.78H898.814V1016.78ZM888.439 1020.52L886.399 1028.34L896.075 1030.87L898.115 1023.05L888.439 1020.52ZM886.237 1029.6V1034.3H896.237V1029.6H886.237ZM886.237 1034.3V1039.25H896.237V1034.3H886.237ZM886.237 1039.25V1044.72H896.237V1039.25H886.237ZM888.713 1049.04L896.29 1053.47L901.338 1044.84L893.761 1040.41L888.713 1049.04ZM898.814 1054.15H904.642V1044.15H898.814V1054.15ZM904.642 1054.15H911.054V1044.15H904.642V1054.15ZM911.054 1054.15H921.254V1044.15H911.054V1054.15ZM921.254 1054.15H927.957V1044.15H921.254V1054.15ZM925.464 1053.49L929.544 1055.83L934.529 1047.17L930.449 1044.82L925.464 1053.49ZM927.037 1051.5V1056.19H937.037V1051.5H927.037ZM927.037 1056.19V1061.93H937.037V1056.19H927.037ZM927.903 1059.11L923.823 1065.11L932.09 1070.74L936.17 1064.74L927.903 1059.11ZM927.957 1062.92H918.048V1072.92H927.957V1062.92ZM918.048 1062.92H911.054V1072.92H918.048V1062.92ZM911.054 1062.92H902.311V1072.92H911.054V1062.92ZM901.03 1063.09L893.162 1065.17L895.723 1074.84L903.592 1072.76L901.03 1063.09ZM889.607 1068.74L888.441 1073.17L898.112 1075.71L899.278 1071.28L889.607 1068.74ZM889.243 1077.39L894.78 1084.95L902.848 1079.04L897.311 1071.48L889.243 1077.39ZM896.661 1086.51L901.033 1088.6L905.338 1079.57L900.967 1077.49L896.661 1086.51ZM899.458 1087.42L904.121 1092.63L911.575 1085.96L906.912 1080.75L899.458 1087.42ZM904.515 1093.02L907.72 1095.89L914.387 1088.44L911.182 1085.57L904.515 1093.02ZM911.054 1097.17H921.254V1087.17H911.054V1097.17ZM921.254 1097.17H927.957V1087.17H921.254V1097.17ZM931.816 1095.34L935.896 1090.39L928.177 1084.03L924.097 1088.99L931.816 1095.34ZM936.464 1089.54L943.167 1076.76L934.312 1072.12L927.609 1084.89L936.464 1089.54ZM943.07 1076.94L947.733 1068.86L939.072 1063.86L934.409 1071.94L943.07 1076.94ZM946.5 1070.28L956.408 1062.46L950.213 1054.61L940.305 1062.43L946.5 1070.28ZM956.044 1062.73L966.827 1055.69L961.361 1047.31L950.578 1054.35L956.044 1062.73ZM965.727 1056.23L978.55 1051.79L975.283 1042.34L962.46 1046.77L965.727 1056.23ZM977.743 1052L991.732 1049.65L990.078 1039.79L976.089 1042.14L977.743 1052ZM990.905 1049.72H1000.23V1039.72H990.905V1049.72ZM1000.9 1049.68L1014.31 1047.85L1012.96 1037.94L999.556 1039.77L1000.9 1049.68ZM1012.7 1047.81L1022.32 1049.63L1024.19 1039.81L1014.57 1037.99L1012.7 1047.81ZM1022.39 1049.65L1035.8 1051.99L1037.52 1042.14L1024.12 1039.8L1022.39 1049.65ZM1034.27 1051.46L1042.43 1055.89L1047.2 1047.11L1039.05 1042.67L1034.27 1051.46ZM1042.57 1055.97L1051.9 1060.66L1056.39 1051.73L1047.07 1047.03L1042.57 1055.97ZM1050.46 1059.57L1055.7 1065.3L1063.08 1058.55L1057.83 1052.82L1050.46 1059.57ZM1055.33 1064.85L1061.16 1072.93L1069.27 1067.08L1063.45 1059L1055.33 1064.85ZM1060.99 1072.68L1068.57 1084.67L1077.02 1079.33L1069.45 1067.34L1060.99 1072.68ZM1068.54 1084.62L1071.74 1089.83L1080.26 1084.59L1077.06 1079.38L1068.54 1084.62ZM1071.97 1090.17L1077.5 1097.73L1085.57 1091.82L1080.04 1084.26L1071.97 1090.17ZM1076.54 1094.77V1104.94H1086.54V1094.77H1076.54ZM1076.54 1104.94V1114.32H1086.54V1104.94H1076.54ZM1076.54 1114.32V1122.4H1086.54V1114.32H1076.54ZM1077.65 1119.26L1066.28 1133.34L1074.06 1139.62L1085.43 1125.54L1077.65 1119.26ZM1066.25 1133.38L1061.3 1139.63L1069.14 1145.84L1074.09 1139.58L1066.25 1133.38ZM1061.98 1138.93L1056.15 1143.88L1062.63 1151.5L1068.46 1146.55L1061.98 1138.93ZM1055.06 1145.2L1049.81 1154.32L1058.48 1159.3L1063.72 1150.18L1055.06 1145.2ZM1050.04 1153.96L1044.79 1161.52L1053.01 1167.22L1058.25 1159.66L1050.04 1153.96ZM1044.57 1161.86L1040.49 1168.9L1049.14 1173.92L1053.22 1166.88L1044.57 1161.86ZM1041.3 1167.86L1033.14 1175.94L1040.18 1183.04L1048.34 1174.96L1041.3 1167.86ZM1031.93 1177.88L1027.85 1189.87L1037.31 1193.09L1041.39 1181.1L1031.93 1177.88ZM1027.78 1190.08L1024.28 1202.07L1033.88 1204.87L1037.38 1192.88L1027.78 1190.08ZM1024.08 1203.47V1211.81H1034.08V1203.47H1024.08ZM1024.08 1211.81V1220.16H1034.08V1211.81H1024.08ZM1024.08 1220.16V1234.75H1034.08V1220.16H1024.08ZM1024.54 1236.85L1028.04 1244.41L1037.12 1240.21L1033.62 1232.65L1024.54 1236.85ZM1029.57 1246.3L1038.89 1253.34L1044.92 1245.36L1035.59 1238.32L1029.57 1246.3ZM1038.65 1253.15L1045.64 1259.14L1052.15 1251.55L1045.16 1245.55L1038.65 1253.15ZM1047.69 1260.2L1058.18 1262.81L1060.6 1253.1L1050.1 1250.49L1047.69 1260.2ZM1060.57 1262.81L1071.35 1260.21L1069 1250.49L1058.22 1253.09L1060.57 1262.81ZM1074.75 1257.35L1077.38 1251.35L1068.21 1247.35L1065.59 1253.34L1074.75 1257.35ZM1076.43 1252.79L1079.63 1249.4L1072.37 1242.53L1069.16 1245.91L1076.43 1252.79ZM1076 1250.96H1081.54V1240.96H1076V1250.96ZM1079.56 1250.55L1087.43 1253.94L1091.38 1244.76L1083.52 1241.37L1079.56 1250.55ZM1086.15 1253.15L1093.15 1259.14L1099.66 1251.55L1092.66 1245.55L1086.15 1253.15ZM1092.35 1258.28L1098.76 1267.14L1106.86 1261.28L1100.45 1252.42L1092.35 1258.28ZM1098.07 1265.8L1101.57 1276.23L1111.05 1273.05L1107.55 1262.62L1098.07 1265.8ZM1101.31 1274.64V1287.15H1111.31V1274.64H1101.31ZM1101.31 1287.15V1299.14H1111.31V1287.15H1101.31ZM1101.31 1299.14V1310.61H1111.31V1299.14H1101.31ZM1101.9 1308.24L1098.41 1314.76L1107.22 1319.49L1110.72 1312.97L1101.9 1308.24ZM1098.76 1314.2L1092.35 1323.06L1100.45 1328.92L1106.86 1320.06L1098.76 1314.2ZM766.579 1086.51L763.081 1081.3L754.777 1086.87L758.274 1092.08L766.579 1086.51ZM762.503 1080.59L756.383 1074.33L749.235 1081.32L755.355 1087.58L762.503 1080.59ZM757.104 1075.27L752.441 1067.45L743.852 1072.57L748.515 1080.39L757.104 1075.27ZM751.836 1066.63L741.344 1055.16L733.966 1061.91L744.457 1073.38L751.836 1066.63ZM740.495 1054.42L730.295 1047.38L724.615 1055.62L734.815 1062.65L740.495 1054.42ZM728.837 1046.69L720.677 1044.35L717.913 1053.96L726.073 1056.31L728.837 1046.69ZM720.175 1044.23L708.518 1042.15L706.757 1051.99L718.415 1054.08L720.175 1044.23ZM709.505 1042.43L703.676 1040.08L699.942 1049.36L705.771 1051.71L709.505 1042.43ZM702.583 1039.78L690.926 1037.96L689.379 1047.84L701.036 1049.66L702.583 1039.78ZM690.152 1037.9H671.501V1047.9H690.152V1037.9ZM670.486 1038L650.377 1042.17L652.408 1051.96L672.516 1047.79L670.486 1038ZM649.535 1042.43L638.461 1046.86L642.176 1056.14L653.25 1051.71L649.535 1042.43ZM636.744 1048L626.544 1058.43L633.693 1065.42L643.893 1055L636.744 1048ZM626.02 1059.06L617.277 1071.58L625.474 1077.3L634.217 1064.79L626.02 1059.06ZM616.788 1072.45L611.251 1085.22L620.426 1089.2L625.963 1076.43L616.788 1072.45ZM610.981 1086.03L607.484 1100.36L617.199 1102.73L620.696 1088.4L610.981 1086.03ZM607.341 1101.55V1114.32H617.341V1101.55H607.341ZM607.341 1114.32V1127.1H617.341V1114.32H607.341ZM608.739 1130.56L617.774 1139.95L624.978 1133.01L615.943 1123.63L608.739 1130.56ZM617.433 1139.55L626.176 1150.76L634.061 1144.61L625.318 1133.4L617.433 1139.55ZM625.853 1150.3L636.052 1166.98L644.584 1161.76L634.384 1145.08L625.853 1150.3ZM636.854 1167.98L652.591 1183.1L659.519 1175.88L643.782 1160.77L636.854 1167.98ZM651.584 1181.73L660.327 1199.19L669.269 1194.72L660.526 1177.25L651.584 1181.73ZM659.798 1196.96V1211.81H669.798V1196.96H659.798ZM659.798 1211.81V1234.75H669.798V1211.81H659.798ZM660.509 1232.18L651.766 1246.78L660.345 1251.92L669.088 1237.32L660.509 1232.18ZM653.657 1244.96L637.92 1253.57L642.717 1262.34L658.454 1253.74L653.657 1244.96ZM640.318 1252.95H628.953V1262.95H640.318V1252.95ZM629.927 1253.05L616.813 1250.44L614.864 1260.25L627.978 1262.86L629.927 1253.05ZM620.524 1253.6L617.027 1244.22L607.656 1247.71L611.153 1257.09L620.524 1253.6ZM612.341 1240.96H601.267V1250.96H612.341V1240.96ZM597.318 1242.9L590.032 1252.28L597.931 1258.41L605.217 1249.03L597.318 1242.9ZM590.119 1252.17L582.833 1261.03L590.558 1267.38L597.844 1258.52L590.119 1252.17ZM581.868 1262.91L578.079 1276.99L587.735 1279.59L591.524 1265.51L581.868 1262.91ZM577.907 1278.29V1291.32H587.907V1278.29H577.907ZM577.907 1291.32V1299.14H587.907V1291.32H577.907ZM578.16 1300.71L581.948 1312.18L591.443 1309.04L587.655 1297.57L578.16 1300.71ZM582.177 1312.75L589.463 1328.13L598.5 1323.85L591.214 1308.47L582.177 1312.75ZM589.508 1328.22L596.793 1342.82L605.741 1338.35L598.455 1323.76L589.508 1328.22ZM596.267 1340.59V1352.84H606.267V1340.59H596.267ZM809.678 827.714L815.507 811.552L806.1 808.16L800.271 824.322L809.678 827.714ZM815.632 811.152L819.129 798.118L809.471 795.527L805.974 808.56L815.632 811.152ZM819.3 796.822V790.306H809.3V796.822H819.3ZM812.528 785.63L795.334 792.147L798.878 801.498L816.072 794.981L812.528 785.63ZM795.398 792.123L776.747 798.901L780.162 808.299L798.814 801.522L795.398 792.123ZM777.899 798.631L763.911 800.195L765.022 810.133L779.01 808.569L777.899 798.631ZM764.466 800.164H754.266V810.164H764.466V800.164ZM754.266 800.164H750.769V810.164H754.266V800.164ZM889.534 826.748V815.33H879.534V826.748H889.534ZM888.818 812.752L882.698 802.585L874.13 807.743L880.25 817.909L888.818 812.752ZM883.414 805.164V796.822H873.414V805.164H883.414ZM880.653 801.293L887.939 797.644L883.46 788.703L876.175 792.352L880.653 801.293ZM885.7 798.173H896.774V788.173H885.7V798.173ZM896.774 798.173H904.642V788.173H896.774V798.173ZM902.169 797.518L908.58 801.168L913.527 792.477L907.116 788.828L902.169 797.518ZM909.284 801.499L916.861 804.366L920.401 795.014L912.824 792.146L909.284 801.499ZM916.748 804.322L926.365 808.232L930.131 798.968L920.514 795.058L916.748 804.322ZM927.112 808.469L933.815 810.033L936.087 800.295L929.384 798.731L927.112 808.469ZM933.361 809.904L947.349 814.597L950.529 805.116L936.541 800.424L933.361 809.904ZM1091.65 1324.44L1087.57 1336.95L1097.08 1340.05L1101.16 1327.54L1091.65 1324.44ZM1087.44 1337.43L1084.52 1350.72L1094.29 1352.87L1097.21 1339.57L1087.44 1337.43ZM1084.53 1350.7L1081.9 1362.43L1091.66 1364.62L1094.29 1352.89L1084.53 1350.7ZM596.267 1352.84V1359.35H606.267V1352.84H596.267ZM601.267 1364.35H671.21V1354.35H601.267V1364.35ZM675.895 1361.1L682.889 1342.33L673.519 1338.84L666.524 1357.61L675.895 1361.1ZM683.087 1341.66L686.293 1327.06L676.526 1324.92L673.32 1339.51L683.087 1341.66ZM686.41 1325.99V1316.6H676.41V1325.99H686.41ZM685.819 1314.25L682.613 1308.25L673.795 1312.97L677 1318.96L685.819 1314.25ZM680.989 1306.46L673.995 1301.76L668.424 1310.07L675.418 1314.76L680.989 1306.46ZM671.21 1300.92H668.004V1310.92H671.21V1300.92ZM673.004 1305.92V1299.14H663.004V1305.92H673.004ZM671.046 1303.11L681.246 1295.29L675.162 1287.35L664.962 1295.17L671.046 1303.11ZM679.906 1296.02L692.146 1291.59L688.742 1282.19L676.502 1286.62L679.906 1296.02ZM690.444 1291.89H702.975V1281.89H690.444V1291.89ZM702.975 1291.89H713.758V1281.89H702.975V1291.89ZM708.758 1286.89V1296.27H718.758V1286.89H708.758ZM709.153 1298.22L713.233 1307.86L722.443 1303.97L718.363 1294.32L709.153 1298.22ZM713.371 1308.16L721.24 1323.8L730.173 1319.31L722.304 1303.67L713.371 1308.16ZM721.865 1324.76L733.814 1339.1L741.496 1332.69L729.547 1318.36L721.865 1324.76ZM735.704 1340.5L746.778 1345.19L750.68 1335.98L739.606 1331.29L735.704 1340.5ZM747.68 1345.48L762.251 1348.6L764.35 1338.83L749.779 1335.7L747.68 1345.48ZM763.3 1348.71H781.952V1338.71H763.3V1348.71ZM781.952 1348.71H795.94V1338.71H781.952V1348.71ZM797.236 1348.54L808.893 1345.42L806.301 1335.76L794.644 1338.89L797.236 1348.54ZM811.358 1343.88L819.809 1334.24L812.288 1327.65L803.837 1337.29L811.358 1343.88ZM820.058 1333.93L827.052 1324.55L819.034 1318.57L812.04 1327.95L820.058 1333.93ZM826.281 1325.37L832.109 1320.41L825.634 1312.79L819.805 1317.75L826.281 1325.37ZM828.872 1321.6H861.803V1311.6H828.872V1321.6ZM858.087 1319.95L866.539 1329.33L873.969 1322.64L865.518 1313.26L858.087 1319.95ZM866.395 1329.17L874.555 1339.07L882.273 1332.72L874.113 1322.81L866.395 1329.17ZM876.167 1340.36L885.492 1345.05L889.987 1336.12L880.661 1331.43L876.167 1340.36ZM886.413 1345.41L897.779 1348.54L900.432 1338.89L889.067 1335.77L886.413 1345.41ZM899.105 1348.71H917.465V1338.71H899.105V1348.71ZM917.465 1348.71H929.414V1338.71H917.465V1348.71ZM929.414 1348.71H938.739V1338.71H929.414V1348.71ZM939.9 1348.58L953.014 1345.45L950.694 1335.72L937.579 1338.85L939.9 1348.58ZM955.728 1343.75L963.596 1334.1L955.848 1327.78L947.979 1337.43L955.728 1343.75ZM963.554 1334.15L971.422 1324.77L963.759 1318.34L955.891 1327.73L963.554 1334.15ZM972.194 1323.51L975.4 1315.95L966.193 1312.05L962.987 1319.61L972.194 1323.51ZM975.599 1315.39L977.639 1308.35L968.034 1305.57L965.994 1312.61L975.599 1315.39ZM977.276 1309.26L982.813 1298.57L973.934 1293.97L968.397 1304.66L977.276 1309.26ZM983.105 1297.89L986.311 1288.5L976.848 1285.27L973.642 1294.66L983.105 1297.89ZM981.579 1291.89H1000.81V1281.89H981.579V1291.89ZM997.211 1290.36L1006.25 1299.74L1013.45 1292.8L1004.42 1283.42L997.211 1290.36ZM1005.51 1298.76L1011.63 1309.44L1020.31 1304.48L1014.19 1293.79L1005.51 1298.76ZM1011.08 1305.89L1007.88 1320.48L1017.65 1322.63L1020.85 1308.03L1011.08 1305.89ZM1007.99 1320.07L1005.07 1329.46L1014.62 1332.42L1017.54 1323.04L1007.99 1320.07ZM1005.18 1332.74L1008.1 1340.3L1017.43 1336.7L1014.51 1329.14L1005.18 1332.74ZM1007.99 1340L1011.2 1350.17L1020.74 1347.16L1017.53 1337L1007.99 1340ZM1011.34 1350.57L1017.46 1365.43L1026.71 1361.62L1020.59 1346.76L1011.34 1350.57ZM1022.09 1368.53H1086.78V1358.53H1022.09V1368.53Z" fill="url(#paint6_linear_140_922)"/>
<path d="M624.581 681.605L620.21 698.289V712.365L628.37 725.138L640.027 736.347L656.638 744.428H686.947L708.221 738.432L732.701 728.527L754.849 717.057L773.792 706.891L790.403 695.421L808.18 681.605" stroke="url(#paint7_linear_140_922)" stroke-width="20" stroke-linecap="round"/>
<path d="M698.021 480.367L693.649 482.974L682.575 494.704M682.575 494.704L685.781 505.131L701.809 518.164L718.421 522.596L736.781 530.416L765.049 533.023H790.403H804.974M682.575 494.704L666.838 510.866L654.89 526.245L647.895 544.753L651.393 553.355M682.575 494.704L654.89 491.315H639.153H614.964H590.776L587.279 481.931L596.021 475.414H608.261H618.461H633.033H654.89H669.752H678.787H693.649M808.763 564.304L778.163 571.863L752.518 580.465H732.118H708.512L688.695 576.816L669.752 571.863L654.89 561.958L651.393 553.355M651.393 553.355L640.61 564.304L633.033 573.948L630.41 588.285M630.41 588.285V604.708L639.153 618.263M630.41 588.285L608.261 571.863L596.021 561.958L582.616 553.355H572.124H560.467L544.147 561.958L540.65 573.948L536.862 588.285L533.656 607.054L530.159 622.173L526.37 640.681V672.744L520.833 696.725V725.921L515.879 755.898L511.508 783.79L505.679 811.422V834.622L511.508 873.722L520.833 890.927L526.37 930.028V945.668L520.833 969.65L511.508 988.158L505.679 999.367L500.725 1021.26L489.942 1072.09L485.571 1100.51L478.868 1145.6L473.914 1186.79L468.085 1251.18L460.508 1299.14L455.554 1357.27M639.153 618.263L654.89 625.822L678.787 633.643L695.398 636.51H724.832L744.649 633.643L765.049 625.822L786.615 618.263L808.763 607.054M639.153 618.263L624.581 625.822L618.461 644.33V659.971L624.581 672.744L633.033 683.952L647.313 690.73L667.13 696.725H685.198L708.512 690.73L732.118 683.952L755.432 672.744L773.792 662.317L796.232 651.368L808.763 640.681" stroke="url(#paint8_linear_140_922)" stroke-width="10" stroke-linecap="round"/>
<path d="M699.478 476.716L745.378 481.742L769.129 490.545L787.78 496.674L795.212 498.044M879.288 555.231V537.494M879.288 555.231L901.437 571.663L922.128 575.315L948.939 577.662L969.048 580.271H992.071L1009.26 577.662L1022.96 571.663L1036.37 559.926L1038.84 553.796M879.288 555.231V600.615M879.288 537.494V519.758L885.408 504.891L909.888 499.413L934.368 493.936H979.539L1009.26 496.674M879.288 537.494H909.888H928.831L960.888 533.06L986.533 523.931L999.648 512.194L1009.26 496.674M1009.26 496.674L1025.58 512.194L1036.37 519.758L1041.32 533.06V547.667L1038.84 553.796M1009.26 496.674L1029.66 490.545H1041.61H1058.81H1075.13H1089.99H1100.77H1113.6L1121.46 480.372V473.591L1109.22 469.157H1093.78H1078.48H1059.97H1041.61H1029.66H1018.59L1009.26 473.591V483.763M1009.26 496.674V483.763M879.288 600.615V612.614V634.915M879.288 600.615L901.437 612.614L922.128 620.699L940.488 625.655L960.888 633.48L986.533 638.436H1009.26L1029.66 633.48L1044.82 625.655L1056.18 615.744L1065.8 604.006V588.878M1065.8 588.878L1059.97 575.315L1044.82 559.926L1038.84 553.796M1065.8 588.878L1078.92 571.663L1093.78 559.926L1109.22 553.796H1130.21L1143.03 567.952L1148.28 577.662L1153.52 593.573L1157.6 607.313L1163.43 643.026L1166.34 667.79L1172.46 693.471L1175.38 717.859L1178 746.681L1180.92 777.012L1184.7 804.063L1188.2 826.756V847.622L1178 867.445L1172.46 880.487L1165.76 895.354L1161.97 912.562V930.027V941.236L1165.76 956.615L1172.46 969.91L1178 981.119L1180.92 992.849L1187.62 1005.62L1192.28 1028.04L1196.36 1048.89L1201.02 1079.13L1207.14 1115.89L1214.14 1151.34L1216.76 1177.93L1221.42 1217.03L1224.34 1247.79L1230.17 1294.45L1239.49 1361.18M879.288 634.915V657.216V675.343M879.288 634.915L906.391 652.782L929.997 665.041L954.768 679.647L981.871 690.863L1000.52 696.862H1018.59H1041.61L1056.18 687.733L1065.8 679.647L1070.46 671.17M1059.97 615.744L1070.76 628.263L1075.13 646.782V662.693L1070.46 671.17M879.288 675.343V693.471V703.252M879.288 675.343L893.568 687.733L934.368 713.033L960.888 729.987L992.362 740.942L1009.26 746.681H1038.12L1058.81 740.942L1075.13 726.336L1078.48 717.859M1070.46 671.17L1075.13 681.995L1081.83 693.471V709.382L1078.48 717.859M879.288 703.252V713.033L862.386 718.511H825.666L813.426 713.033V700.514V670.518V628.263V593.573V559.926V519.758L802.643 499.413L795.212 498.044M879.288 703.252L898.523 726.336L917.174 746.681M917.174 746.681L934.368 753.462L950.979 764.156L969.339 770.677L992.362 780.849L1018.59 788.935H1041.61L1065.8 785.023L1070.76 774.329L1077.02 764.156M917.174 746.681L943.111 780.849M1078.48 717.859C1079.6 721.902 1081.83 732.178 1081.83 740.942C1081.83 749.706 1081.83 754.853 1081.83 756.331L1077.02 764.156M1077.02 764.156L1078.92 785.023L1076 804.063L1068.74 813.714M943.111 780.849L976.625 813.714L1004.6 828.06L1026.17 832.233L1043.94 828.842L1065.8 817.627L1068.74 813.714M943.111 780.849L956.517 807.454L965.842 828.06M965.842 828.06L979.248 838.754L996.151 852.839L1014.8 867.445H1047.15L1055.31 860.69M965.842 828.06L979.248 857.795L990.322 869.271L999.648 880.487L1008.68 890.398L1021.21 897.441L1039.57 900.31L1050.36 895.354L1055.31 885.443V874.749V869.271V860.69M1068.74 813.714L1068.42 826.756L1065.8 847.622L1058.81 857.795L1055.31 860.69M1009.26 483.763L981.871 481.742H969.048H950.979H928.831H909.888H893.568L885.408 476.716L879.288 469.157L876.083 459.642M872.877 431.229V438.397V450.128L876.083 459.642M872.877 431.229V424.06L885.408 420.411H893.568L898.523 415.719L893.568 411.548L885.408 407.377H872.877V397.993L885.408 394.865L893.568 390.694L889.488 387.305L885.408 381.831H879.288H872.877V374.011L879.288 369.84H885.408L889.488 366.452L885.408 360.456H879.288L872.877 354.982V349.769L879.288 343.773L885.408 340.124L879.288 334.91L869.671 336.735H845.483H836.449H825.666L813.426 334.91L802.643 336.735L799.146 343.773L802.643 349.769L807.015 354.982V360.456L799.729 363.324L792.443 366.452V374.011L799.146 381.831H807.015V387.305V397.993L792.443 402.164L787.78 407.377V415.719L792.443 420.411H802.643L807.015 424.06L799.146 427.71L783.7 431.881L771.752 434.748L760.386 438.397L749.312 446.739L744.941 451.822M872.877 431.229L893.568 431.881L913.968 434.748L929.997 438.397L943.111 446.739L946.025 450.128M876.083 459.642L893.568 461.597H901.437H913.968H928.831H934.368L940.488 458.208L946.025 450.128M946.025 450.128L948.939 453.516L950.979 456.905H965.259H979.539H986.533H1000.52H1012.76H1022.96H1029.66H1038.84L1047.73 458.208H1058.81H1065.8H1075.13H1081.83H1093.78L1113.6 461.597L1127 465.768L1143.03 469.157L1148.28 473.591L1157.6 476.716L1163.43 480.372L1170.13 490.545L1178.58 496.674L1183.25 504.891L1186.74 512.194L1192.86 523.931V537.494L1194.61 551.529V559.926V571.663L1196.36 586.46V596.887V607.313L1198.11 618.262V628.263V638.436V646.782L1202.48 675.343L1205.98 703.252L1209.77 734.783L1214.43 770.677L1217.63 794.216L1221.13 813.714L1225.5 832.233L1231.04 852.839L1234.54 867.445L1241.24 885.443L1245.32 900.31L1253.48 918.557V930.027V944.624V956.615V975.905V992.849L1256.98 1009.01L1261.35 1028.04L1265.43 1046.03L1270.97 1061.67L1276.5 1079.13L1283.21 1094.25L1287.29 1115.89L1291.66 1138.3L1295.15 1160.98V1189.66L1299.53 1220.68L1303.61 1247.79V1267.34L1307.98 1297.58L1314.68 1317.65L1317.3 1330.94L1324.59 1351.8M744.941 451.822L740.569 456.905H726.581H714.632H699.478H668.004H646.147L625.456 461.597H606.221H586.404H566.879L542.982 469.157L528.993 473.591L517.045 483.763L507.136 493.936L502.473 504.891L497.811 519.758L491.982 547.667V564.563V580.271V593.573V604.967L486.445 620.699V634.915V677.434L482.074 713.033L475.371 756.679L471.291 796.823L467.502 832.274L462.257 857.038L455.554 878.935L443.022 897.182L434.28 912.04V923.249V941.496L438.36 959.222V982.943L434.28 1007.71L425.828 1036.64L419.708 1056.19L413.297 1080.43L405.428 1109.89L401.348 1136.48L395.52 1163.85L390.857 1193.83V1225.11L386.777 1251.7V1284.28L380.948 1308L374.537 1354.4M744.941 451.822L756.306 456.905L769.129 458.208L780.786 461.597H792.443H802.643H813.426M813.426 461.597V451.822L811.677 444.653V431.881V427.71M813.426 461.597L807.015 476.716L802.643 481.742L799.146 490.545L795.212 498.044" stroke="url(#paint9_linear_140_922)" stroke-width="10" stroke-linecap="round"/>
<path d="M369 1365.09V1303.29V1268.64L373.663 1217.56L378.909 1187.02V1164.94V1140.04V1100.77V1071L384.154 1037.89V1009.65L394.063 982.188L409.217 947.024L417.085 933.677V873.871V830.749V800.205L423.497 765.553L431.365 728.849L446.52 699.844V671.61L439.525 640.039V586.65L452.931 550.715L473.331 516.064L504.513 492.706L527.536 478.02L549.102 468.375L619.336 451.895L685.49 426.74L720.169 413.393L751.352 388.239V363.085V331H939.322V363.085V388.239L975.751 418.013L1009.56 431.361L1045.4 443.938L1076.58 456.515L1109.52 460.294L1141.28 470.981L1161.1 478.541L1192.28 497.326L1219.09 522.481L1240.37 557.645L1251.15 589.217V630.798L1246.78 661.343L1240.37 699.074L1259.89 739.886L1268.05 775.05L1276.21 832.289V884.908L1268.05 935.987L1292.24 972.691L1303.61 1009.65L1309.14 1088.97V1183.94L1318.76 1261.71L1331 1356.49L1233.66 1367.72L1226.96 1315.61L1219.97 1280.45L1211.81 1241.95L1189.66 1183.94L1170.13 1117.97L1153.23 1055.08L1144.2 957.804L1135.16 891.325L1124.96 711.651L1115.64 842.556L1103.98 884.908L1092.61 932.136L1083.58 966.531L1078.33 988.092L1087.95 1042.76L1092.61 1142.35L1106.89 1247.34L1128.17 1336.15V1369" stroke="url(#paint10_linear_140_922)" stroke-width="20"/>
<path d="M370.749 1360.4L460.508 1362.74L462.548 1315.82L474.497 1262.12L483.531 1214.68L502.474 1163.07L514.422 1120.06L523.457 1091.64L537.445 1044.2L542.399 1006.66L547.645 954.791L556.388 894.054L572.708 691.771L593.399 894.054L610.302 962.089V998.584L602.433 1030.91L597.479 1087.99V1137L587.571 1197.74L578.536 1255.09L562.508 1322.08L560.468 1360.4L1130.79 1364.83" stroke="url(#paint11_linear_140_922)" stroke-width="20"/>
<circle cx="850" cy="850" r="849.5" stroke="white" stroke-opacity="0.31"/>
<defs>
<linearGradient id="paint0_linear_140_922" x1="913.239" y1="1275.94" x2="913.239" y2="1306.7" gradientUnits="userSpaceOnUse">
<stop stop-color="#057189"/>
<stop offset="0.520833" stop-color="#15CEF9"/>
<stop offset="1" stop-color="#07949F"/>
</linearGradient>
<linearGradient id="paint1_linear_140_922" x1="776.997" y1="1272.55" x2="776.997" y2="1308.52" gradientUnits="userSpaceOnUse">
<stop stop-color="#057189"/>
<stop offset="0.520833" stop-color="#15CEF9"/>
<stop offset="1" stop-color="#07949F"/>
</linearGradient>
<linearGradient id="paint2_linear_140_922" x1="846.065" y1="1176.88" x2="846.065" y2="1256.65" gradientUnits="userSpaceOnUse">
<stop stop-color="#057189"/>
<stop offset="0.520833" stop-color="#15CEF9"/>
<stop offset="1" stop-color="#07949F"/>
</linearGradient>
<linearGradient id="paint3_linear_140_922" x1="846.065" y1="1176.88" x2="846.065" y2="1256.65" gradientUnits="userSpaceOnUse">
<stop stop-color="#057189"/>
<stop offset="0.520833" stop-color="#15CEF9"/>
<stop offset="1" stop-color="#07949F"/>
</linearGradient>
<linearGradient id="paint4_linear_140_922" x1="438.797" y1="999.367" x2="438.797" y2="1327.03" gradientUnits="userSpaceOnUse">
<stop stop-color="#057189"/>
<stop offset="0.520833" stop-color="#15CEF9"/>
<stop offset="1" stop-color="#07949F"/>
</linearGradient>
<linearGradient id="paint5_linear_140_922" x1="1246.78" y1="999.887" x2="1246.78" y2="1339.54" gradientUnits="userSpaceOnUse">
<stop stop-color="#057189"/>
<stop offset="0.520833" stop-color="#15CEF9"/>
<stop offset="1" stop-color="#07949F"/>
</linearGradient>
<linearGradient id="paint6_linear_140_922" x1="624.995" y1="710.272" x2="624.995" y2="900.049" gradientUnits="userSpaceOnUse">
<stop stop-color="#057189"/>
<stop offset="0.520833" stop-color="#15CEF9"/>
<stop offset="1" stop-color="#07949F"/>
</linearGradient>
<linearGradient id="paint7_linear_140_922" x1="630.103" y1="679.461" x2="630.103" y2="744.428" gradientUnits="userSpaceOnUse">
<stop stop-color="#057189"/>
<stop offset="0.520833" stop-color="#15CEF9"/>
<stop offset="1" stop-color="#07949F"/>
</linearGradient>
<linearGradient id="paint8_linear_140_922" x1="689.017" y1="477.222" x2="689.017" y2="533.023" gradientUnits="userSpaceOnUse">
<stop stop-color="#057189"/>
<stop offset="0.520833" stop-color="#15CEF9"/>
<stop offset="1" stop-color="#07949F"/>
</linearGradient>
<linearGradient id="paint9_linear_140_922" x1="754.098" y1="421.805" x2="754.098" y2="718.511" gradientUnits="userSpaceOnUse">
<stop stop-color="#057189"/>
<stop offset="0.520833" stop-color="#15CEF9"/>
<stop offset="1" stop-color="#07949F"/>
</linearGradient>
<linearGradient id="paint10_linear_140_922" x1="850" y1="331" x2="850" y2="1369" gradientUnits="userSpaceOnUse">
<stop stop-color="#057189"/>
<stop offset="0.520833" stop-color="#15CEF9"/>
<stop offset="1" stop-color="#07949F"/>
</linearGradient>
<linearGradient id="paint11_linear_140_922" x1="750.77" y1="691.771" x2="750.77" y2="1364.83" gradientUnits="userSpaceOnUse">
<stop stop-color="#057189"/>
<stop offset="0.520833" stop-color="#15CEF9"/>
<stop offset="1" stop-color="#07949F"/>
</linearGradient>
</defs>
</svg>
