<svg width="1700" height="1700" viewBox="0 0 1700 1700" fill="none" xmlns="http://www.w3.org/2000/svg">
<path d="M892.236 352.432L890.636 364.935L887.651 385.81L885.092 405.923L883.173 421.253L879.442 415.491L872.298 401.792L864.941 372.763V359.39V348.083L868.441 342.32L874.43 344.277L876.669 351.562V359.39V369.175L874.43 375.263L872.298 383.091L868.441 386.571" stroke="url(#paint0_linear_140_921)" stroke-width="10"/>
<path d="M1140.44 392.551L1125.94 398.966L1114.75 403.75L1102.91 413.752L1086.28 423.864L1071.14 433.105L1057.71 437.019C1056.64 437.853 1050.5 440.411 1034.46 443.977C1018.43 447.543 1007.52 449.16 1004.08 449.522L996.507 450.975M996.507 315.793L992.349 321.664L985.845 334.493L977.103 355.151L969.426 376.352L953.327 418.645L940.746 447.783L938.507 456.154L940.746 462.134L963.455 460.395L995.014 451.262L996.507 450.975M996.507 450.975L992.349 443.977L988.831 429.408V414.296V389.507L992.349 369.067L995.014 361.022L1000.56 377.874L1006.1 389.507L1013.25 400.923L1025.4 414.296L1032.76 421.363L1042.67 429.408L1050.46 437.019L1047.9 426.256L1042.67 411.469L1036.49 398.096L1030.73 384.071L1022.31 367.328L1013.25 352.759L1008.34 342.974M925.393 352.759L926.992 369.067L929.231 384.071V395.922V408.425L930.51 419.297L931.896 431.583L936.268 421.363L941.812 408.425L946.183 393.965L950.555 377.874L953.327 364.61V352.759L950.555 346.018L948.422 343.409C948.031 342.539 942.345 341.256 940.639 344.822C938.933 348.388 938.649 353.194 938.72 355.151V361.022V370.807L940.639 377.874L943.944 395.922" stroke="url(#paint1_linear_140_921)" stroke-width="10"/>
<path d="M1162.62 912.791L1172.75 908.768L1180.64 903.441C1182.1 903.73 1185.54 902.875 1187.68 897.135C1189.81 891.394 1190.91 882.783 1191.19 879.195L1187.68 871.041L1185.12 859.408L1177.55 845.056L1172.75 830.161L1160.38 808.199" stroke="url(#paint2_linear_140_921)" stroke-width="10"/>
<path d="M1175.41 1072.29L1189.7 1099.68L1201.54 1125.67L1216.89 1160.57L1231.07 1197.32L1246.1 1232.65L1263.37 1268.97L1277.66 1300.82" stroke="url(#paint3_linear_140_921)" stroke-width="10"/>
<path d="M1015.49 1311.37L1024.87 1303.21L1030.73 1295.82L1040.12 1281.68L1047.69 1272.55L1057.39 1261.9L1064.74 1255.05L1073.91 1247.98L1079.67 1244.72L1085.11 1239.94L1091.08 1235.8L1095.56 1229.06L1103.23 1221.45L1107.07 1213.3L1114.85 1202.53L1122 1194.27L1125.2 1190.03" stroke="url(#paint4_linear_140_921)" stroke-width="10"/>
<path d="M1203.56 939.861L1221.58 960.084L1232.78 975.414L1242.37 990.091L1253.46 1016.08" stroke="url(#paint5_linear_140_921)" stroke-width="10"/>
<path d="M1199.51 577.053L1212.62 616.954L1223.18 641.525L1228.51 662.4L1231.82 682.514L1237.68 723.937V770.036V824.832L1235.44 862.45L1231.28 885.717L1225.63 906.266L1217.03 924.096M1178.29 960.736L1202.39 941.492L1215.72 926.814L1217.03 924.096M1178.29 960.736L1163.9 966.933M1178.29 960.736L1185.65 979.11L1193.11 1005.86L1204.31 1049.78L1210.7 1078.16L1218.59 1106.53M1218.59 1106.53L1236.51 1135.02L1262.31 1182.42L1279.37 1219.82L1291.2 1261.03L1305.49 1300.5M1218.59 1106.53V1121.32L1220.83 1135.02L1227.12 1150.57L1240.24 1184.38L1253.14 1216.34L1262.31 1240.15L1272.54 1267.55L1282.67 1300.5M1217.03 924.096L1227.12 929.533L1233.52 936.273L1241.52 944.428L1248.45 950.407L1253.78 956.061" stroke="url(#paint6_linear_140_921)" stroke-width="10"/>
<path d="M964.309 475.504L986.592 460.174L1017.19 456.478C1016.37 457.456 1021.35 455.13 1038.41 452.781C1043.74 452.047 1048.45 451.429 1052.59 450.86M1201.11 408.314L1185.12 404.834C1178.33 404.363 1161.38 404.4 1147.91 408.314C1134.43 412.228 1130.28 414.583 1129.89 415.272C1126.69 416.758 1116.03 422.578 1098.97 433.972C1081.91 445.366 1072.1 448.722 1072.42 447.128C1068.1 448.598 1061.7 449.609 1052.59 450.86M1052.59 450.86L1092.46 462.784L1123.7 473.112L1152.38 479.962L1172.96 491.269L1188.1 511.057L1195.88 533.345L1201.11 561.83V578.9L1217.21 595.861L1242.48 632.065L1256.49 676.098M1257.51 1051.41L1253.67 1025.64V996.179V959.104L1257.51 948.341L1263.85 936.327M1257.51 1051.41L1266.68 1092.51L1271.58 1119.47L1275.21 1149.15L1282.03 1178.4L1293.65 1225.26L1307.09 1267.66L1313.7 1299.19M1257.51 1051.41L1278.09 1102.07L1290.45 1140.89L1305.49 1176.55L1317.43 1209.06L1326.28 1231.56L1330.76 1239.28L1334.7 1231.56V1213.95L1326.28 1173.4V1158.94L1322.76 1108.38V1059.24V1008.25L1326.07 954.429M1263.85 936.327L1270.2 924.313L1277.98 900.937L1280.75 859.514L1282.67 827.984V791.671L1277.34 751.769L1273.77 733.015M1263.85 936.327L1272.76 925.944L1277.98 916.811L1283.95 906.917L1292.91 888.869L1298.66 874.626L1305.49 862.993M1256.49 676.098L1258.26 681.643L1270.2 714.26L1273.77 733.015M1256.49 676.098L1262.95 662.29L1270.2 632.065L1276.49 614.67L1280.97 587.163L1285.55 559.112V533.345V514.427M1273.77 733.015L1280.97 711.651L1285.55 695.886L1288.54 681.643" stroke="url(#paint7_linear_140_921)" stroke-width="10"/>
<path d="M964.842 474.527L954.5 485.617L950.982 504.861L947.463 533.129L941.706 562.81L935.202 588.143L932.43 617.607L929.765 653.159V682.514V703.063L938.721 721.981L949.382 737.311L963.456 747.313L994.269 758.077L1023.91 772.537L1041.93 775.038H1060.16L1078.39 768.406L1100.78 758.077L1121.46 742.856L1141.62 708.934L1155.26 676.752L1166.14 640.873L1174.24 602.603L1183.3 575.857L1195.88 533.129" stroke="url(#paint8_linear_140_921)" stroke-width="10"/>
<path d="M532.185 694.037C532.753 693.53 537.281 687.231 550.843 666.095C564.405 644.959 577.249 630.035 581.975 625.215L593.064 609.016L608.204 580.095L625.902 539.977" stroke="url(#paint9_linear_140_921)" stroke-width="10"/>
<path d="M492.096 652.398L493.802 678.166L497.32 695.779L502.864 720.785L510.754 744.704" stroke="url(#paint10_linear_140_921)" stroke-width="10"/>
<path d="M587.84 417.882L604.152 422.666H614.814M614.814 422.666L633.259 414.838L689.341 430.168L739.025 446.259L782.632 455.5M614.814 422.666L595.943 430.168L581.229 438.431L564.277 448.107L547.325 466.155L529.626 489.531L519.604 511.819L515.552 536.934L511.821 578.031L513.42 603.581L515.872 624.021L521.523 648.81L525.361 675.882L531.865 695.343L525.361 712.521L512.78 741.224L504.677 771.232L501.052 803.088L498.387 845.924V889.957L501.799 914.746L507.982 939.535L515.872 961.714L518.431 965.846H522.269L528.986 961.714L547.111 949.755L560.012 939.535M782.632 455.5L817.283 458.11L862.276 468.982L866.541 477.245V498.663V518.777V524.866L872.511 543.24L884.986 573.356L897.353 596.84L901.618 638.807V672.403L897.353 702.519L888.824 721.328L867.82 746.66L810.886 768.514L793.08 774.167H769.304L746.701 768.514L725.591 762.099L702.028 746.552L682.517 723.285L670.469 707.955L657.462 681.318L650.425 659.791L641.362 630.436L633.579 595.101L627.608 554.003L625.476 541.065L637.631 523.343L654.156 506.926L676.866 495.293L698.616 489.531L730.175 477.354L759.602 467.786L782.632 455.5Z" stroke="url(#paint11_linear_140_921)" stroke-width="10"/>
<path d="M943.092 1076.42H954.713H972.519L989.151 1077.94H1003.44H1018.26L1035.1 1078.92L1033.4 1099.68L1031.69 1133.71L1029.24 1167.31L1025.4 1191.12L1019.96 1212.76L1011.75 1234.28L1004.93 1252.11L997.147 1272.77L990.111 1292.12L984.78 1306.48L981.261 1312.56" stroke="url(#paint12_linear_140_921)" stroke-width="10"/>
<path d="M944.586 1076.31H939.468V1084.14L938.508 1089.03L936.589 1092.18L932.538 1098.6L927.633 1101.86L924.435 1104.9L921.876 1110.45V1135.24L920.063 1157.74V1186.55L918.677 1206.45L917.291 1224.17L914.519 1245.7L910.254 1280.16L906.949 1312.02" stroke="url(#paint13_linear_140_921)" stroke-width="10"/>
<path d="M901.831 1311.48L906.842 1248.74V1222L911.426 1193.4L914.092 1167.53V1128.71V1106.75L909.081 1103.16L899.165 1099.25L893.301 1091.86L891.062 1082.83V1074.57H883.705H848.308H820.694H787.322V1090.77L789.241 1109.8L791.161 1140.89L794.999 1173.73L799.37 1205.8L806.087 1237.55L808.753 1265.05L813.657 1286.36L818.455 1298.97L820.374 1311.48" stroke="url(#paint14_linear_140_921)" stroke-width="10"/>
<path d="M629.526 1311.7L639.762 1279.51L651.49 1241.9L662.685 1206.78L670.575 1181.23L674.413 1170.36L689.02 1185.03L705.226 1204.28L718.233 1220.48L733.693 1234.83L747.233 1250.38L764.612 1274.51L776.02 1293.76L780.925 1302.13L786.256 1311.48" stroke="url(#paint15_linear_140_921)" stroke-width="10"/>
<path d="M408.507 1205.25L416.61 1193.29L421.408 1180.25L424.5 1157.52L428.551 1132.52L431.75 1109.9L433.882 1080.66V1051.19L436.228 1010.42V956.496" stroke="url(#paint16_linear_140_921)" stroke-width="10"/>
<path d="M395.713 1301.15L403.389 1281.58C403.923 1281.25 405.33 1277.47 406.695 1264.94C408.059 1252.42 408.187 1244.79 408.081 1242.55L409.467 1222.98L408.081 1205.25L403.389 1187.64" stroke="url(#paint17_linear_140_921)" stroke-width="10"/>
<path d="M407.867 1250.37L431.537 1221.13L451.474 1186.66L472.905 1147.09L483.673 1120.56L497.853 1081.31L504.464 1055.87L507.342 1025.53V999.768V954.974L495.828 931.924L486.872 912.137L475.783 889.414L463.096 852.883" stroke="url(#paint18_linear_140_921)" stroke-width="10"/>
<path d="M431.644 1305.93L455.206 1260.92L469.813 1230.59L491.243 1193.51L514.166 1156.11L532.398 1126L537.729 1105.01L553.295 1062.18L573.553 1011.4L580.057 994.658L584.215 977.045" stroke="url(#paint19_linear_140_921)" stroke-width="10"/>
<path d="M424.819 1305.82L446.57 1252.01L474.077 1189.71L488.044 1139.59L497.853 1108.49L505.636 1075.22L517.471 1039.34L531.971 1005.1L549.67 982.047L568.541 963.347M568.541 963.347L582.508 976.285L590.398 980.09H595.196M568.541 963.347L563.104 949.865L557.559 924.642L553.295 878.543V825.269L555.64 765.58L563.104 710.24L581.549 656.966L595.302 629.785L616.946 601.734L634.964 656.966L644.454 710.24L650.318 773.952L652.663 848.101L668.763 860.93M668.763 860.93L691.152 842.882L693.125 839.294M668.763 860.93L671.108 868.867L679.318 878.76L686.461 884.732M749.473 845.926L759.388 841.577L763.12 838.859L766.212 827.661L768.558 818.093L766.212 798.414L763.12 790.477L740.73 786.02L725.377 790.477L712.37 800.48L689.66 806.025L671.108 807.656L695.097 835.706L693.125 839.294M749.473 845.926L754.91 855.276L760.881 866.91L763.12 881.37V892.568L760.881 904.854L752.351 913.334H747.98M749.473 845.926L735.506 844.187L720.259 841.577L703.947 840.49L693.125 839.294M686.461 884.732L691.152 888.654L702.987 897.896L718.234 904.854L729.535 911.921L743.609 913.334H747.98M686.461 884.732L681.13 890.068L676.439 894.743L673.774 899.853L671.108 904.854L666.31 916.813M747.98 913.334L752.351 921.706L757.256 930.839L758.855 942.146V953.236V964.543L759.708 976.394L757.256 985.2L754.697 991.941L747.98 994.659L742.329 996.834M742.329 996.834L728.256 989.44L716.954 982.482L703.414 971.719L689.34 958.781L683.263 949.43L673.774 942.146M742.329 996.834L750.219 1005.75L755.763 1017.06L759.175 1032.71L759.921 1046.41L755.763 1055.76L747.874 1069.79L741.476 1075.66L739.131 1077.4L737.889 1076.64M681.77 1027.71L683.156 1028.91L686.035 1032.71L694.671 1044.02L705.546 1054.35L718.02 1064.46L737.889 1076.64M737.889 1076.64L748.833 1084.36L757.896 1092.29L764.08 1100.77L765.252 1107.4V1115.99V1131.22V1145.89V1160.57V1177.42L764.399 1196.34L756.936 1216.02L744.782 1224.72L728.469 1217.54L701.708 1189.38L683.796 1171.01L663.218 1148.5" stroke="url(#paint20_linear_140_921)" stroke-width="10"/>
<path d="M671.428 807.762L660.019 798.086L651.063 788.953" stroke="url(#paint21_linear_140_921)" stroke-width="10"/>
<path d="M924.327 970.521L933.923 958.344H957.912L984.034 961.497L1010.69 967.585L1029.99 973.782L1047.15 985.959L1045.34 1024.56L1042.99 1055.43L1039.9 1066.31L1029.99 1074.79H1022.1L980.622 1071.63H948.316L939.68 1064.46L924.327 1043.15V1035.75V970.521Z" stroke="url(#paint22_linear_140_921)" stroke-width="10"/>
<path d="M779.219 1020.75L780.711 973.673L794.252 969.433L808.006 967.693L824.638 964.649L842.124 960.626L858.543 957.582H875.815H889.249H902.257L907.161 962.692L914.838 976.717L917.29 1012.49L914.838 1042.82L904.282 1057.82L893.94 1063.8H865.686H822.719H788.388L786.362 1052.82L779.219 1033.47V1020.75Z" stroke="url(#paint23_linear_140_921)" stroke-width="10"/>
<path d="M782.738 952.909V911.594L790.841 898.547L808.007 890.067L825.386 878.542L852.147 865.495L878.269 853.971L894.901 849.404H904.71L912.813 853.971L917.291 867.017V935.078L908.975 948.125H891.489L857.158 949.864L829.331 955.627L805.981 960.628H787.11L782.738 952.909Z" stroke="url(#paint24_linear_140_921)" stroke-width="10"/>
<path d="M803.955 281.979V322.641L768.664 345.69L715.781 372.871L674.946 392.876L605.431 407.119L572.806 421.361L540.607 448.542L512.14 485.617L494.334 537.477L486.018 596.405L491.562 647.831L473.864 705.346L465.867 765.796L460.75 853.318L457.978 877.672L454.246 892.893L430.896 964.215L419.701 1010.86L413.198 1054.13L407.654 1105.99L403.922 1152.09L401.043 1188.73L395.499 1227.32L378.653 1300.6L469.279 1313.87L498.706 1248.42L542.526 1159.81L569.181 1098.38L586.773 1040.97L591.357 1019.66L596.795 987.591L599.78 933.555L605.857 881.368L619.185 809.394L643.707 872.67L665.777 920.835L671.215 942.471L678.465 972.696L680.917 985.416V1031.41L675.479 1059.46L668.549 1078.59L663.325 1135.45L660.659 1155.24L645.52 1195.03L636.457 1233.63L632.832 1268.2L626.755 1313.87H1137.14L1131.17 1269.73L1128.71 1230.48L1125.73 1174.92L1128.71 1110.23L1124.02 1056.41L1120.08 1033.04V989.548L1127.01 950.951L1133.19 902.678L1142.47 872.888L1158.89 809.829V878.107L1161.23 969.216L1164.86 1026.62L1172.22 1067.07L1186.82 1110.23L1207.4 1167.96L1228.3 1219.93L1242.26 1257.22L1245.89 1283.75L1252.71 1303.1L1354 1300.39L1347.18 1253.64L1340.35 1194.38L1338.86 1101.75L1336.41 1008.14L1329.58 961.28L1321.8 915.725L1311.14 884.739L1307.19 862.885L1304.85 820.918V781.126L1298.34 717.088L1289.39 675.664L1287.9 647.723L1297.71 613.149L1296.21 565.093L1292.05 531.063L1283.42 497.033L1271.16 468.765L1251.22 441.475L1223.18 418.1L1183.3 397.66L1141.3 389.179L1103.77 387.114L1070.93 378.307L1036.06 361.238L1013.14 346.343L999.706 331.121V312.965L1002.69 283.718L802.782 281" stroke="url(#paint25_linear_140_921)" stroke-width="20"/>
<path d="M780.819 890.503L777.087 884.958V846.47L780.819 820.376L785.936 797.653L794.253 783.084L809.925 772.538L826.131 766.015L840.205 758.839L861.316 749.815L879.654 743.727H891.489L899.805 746.988L904.496 766.015L911.106 794.826V820.376L907.162 825.378L886.371 838.207L863.768 849.405L833.808 864.192L808.22 880.283L783.164 892.025L780.819 890.503Z" stroke="url(#paint26_linear_140_921)" stroke-width="10"/>
<path d="M1010.9 874.519L1040.43 891.154L1046.94 884.522L1049.6 867.017V848.317L1048.32 829.29L1045.77 814.069L1038.83 795.26L1035.64 784.496L1028.71 775.255L982.22 755.359L956.952 745.791H929.231L924.433 758.946L922.301 773.733V819.831L929.231 831.465L943.944 840.706L961.75 850.817L987.125 864.082L1010.9 874.519Z" stroke="url(#paint27_linear_140_921)" stroke-width="10"/>
<path d="M925.606 859.515L932.643 852.883L951.408 855.601L961.75 859.515L974.224 865.169L994.268 874.519L1013.25 884.522L1029.03 894.633L1041.93 904.744L1046.94 917.465V938.992V954.539L1044.38 964.759H1038.3L1023.8 960.954L994.268 954.539L978.062 951.821L929.018 949.212L923.474 938.992V931.707V910.506L922.514 879.846L923.474 866.039L925.606 859.515Z" stroke="url(#paint28_linear_140_921)" stroke-width="10"/>
<path d="M1074.77 921.594L1068.79 930.184L1066.13 935.076L1063.68 943.991V952.798V961.931V968.345V976.608V983.349L1065.06 991.177L1068.79 998.788L1071.78 1002.81M1071.78 1002.81L1077.22 1004.55L1083.72 1000.31L1091.93 995.526L1098.97 991.177L1110.38 981.066L1118.27 973.673L1121.14 971.063M1071.78 1002.81V1009.44L1068.79 1016.73L1065.06 1021.4L1063.68 1026.4L1062.08 1031.4L1060.16 1039.12V1046.3C1060.16 1046.01 1060.16 1046.71 1060.16 1051.84C1060.16 1056.98 1060.16 1060.65 1060.16 1061.85V1066.3V1071.52L1063.68 1077.39L1066.13 1080.66L1068.79 1085.66L1071.78 1089.57M1071.78 1089.57L1075.62 1091.75L1081.06 1089.57L1087.56 1085.66L1091.93 1080.66L1098.97 1075.44L1104.94 1071.52C1105.01 1071.81 1106.2 1071.5 1110.38 1067.94C1114.56 1064.37 1118.09 1061.81 1119.33 1060.98L1121.14 1058.48M1071.78 1089.57L1067.62 1093.27L1065.28 1095.99L1062.08 1100.23L1059.31 1105.12C1058.95 1105.63 1057.66 1107.47 1055.36 1110.77C1053.06 1114.08 1051.98 1118.31 1051.74 1120.01L1051.2 1127.84L1049.6 1137.63V1144.37L1047.47 1154.37L1046.94 1159.59L1045.34 1167.85V1172.96V1181.44V1188.07V1196.88V1200.58C1045.34 1201.66 1045.34 1205.3 1045.34 1211.12C1045.34 1216.95 1045.34 1221.52 1045.34 1223.08L1043.1 1228.19L1040.33 1233.19L1038.73 1239.28V1246.24L1040.33 1252.76H1047.47L1054.4 1248.09L1060.37 1244.61L1065.6 1239.28L1071.03 1234.5L1077 1230.26L1083.51 1223.08L1091.82 1216.99L1097.26 1211.12L1103.23 1205.36L1109.2 1200.58L1115.49 1192.42L1123.49 1183.94M1064.53 786.887L1078.39 790.148L1088.63 793.954L1097.9 799.172L1107.71 806.783L1116.99 811.458L1123.06 816.242V823.418L1120.19 830.485L1111.87 838.965L1100.67 842.77L1088.63 845.162H1078.39L1069.11 842.77L1059.84 830.485L1055.15 816.242V804.391L1056.53 792.105L1064.53 786.887ZM1071.14 849.511L1067.62 858.535L1064.85 866.363L1062.18 877.888V887.129V897.132V906.699L1066.13 912.353L1071.14 920.833L1078.39 922.356L1085.85 919.42L1091.93 914.093L1100.67 908.765L1107.28 902.024L1115.6 894.414L1121.14 887.782L1129.03 879.519L1131.38 873.213V866.363L1129.03 858.535L1123.06 851.142L1118.27 845.162L1110.38 842.77L1098.97 846.467L1091.93 849.511C1090.44 849.511 1086.07 849.511 1080.52 849.511C1074.98 849.511 1071.96 849.511 1071.14 849.511Z" stroke="url(#paint29_linear_140_921)" stroke-width="10"/>
<path d="M666.203 396.466L680.064 409.947L702.56 422.886L723.671 430.605L756.829 440.172L789.348 446.37H819.734M805.767 290.135L814.616 310.792L825.065 332.645L834.554 361.022L846.495 399.619L856.944 426.691L869.631 448.544L875.602 452.132C875.815 453.545 874.92 456.307 869.631 456.046C864.343 455.785 841.697 449.486 831.035 446.37H819.734M819.734 446.37C819.222 435.758 818.454 416.145 818.135 407.664L814.616 387.116L812.91 366.458L810.884 353.955C810.884 353.194 811.823 358.217 805.767 370.046C799.711 381.875 792.297 393.023 789.348 397.118L784.017 405.49C784.23 405.454 782.759 407.903 775.167 417.993C767.576 428.082 763.333 432.272 762.16 433.105L754.697 437.889L752.777 426.691V413.209L756.829 401.25L769.516 373.199L789.348 337.864L792.546 332.645" stroke="url(#paint30_linear_140_921)" stroke-width="10"/>
<circle cx="850" cy="850" r="849.5" stroke="white"/>
<defs>
<linearGradient id="paint0_linear_140_921" x1="878.589" y1="342.32" x2="878.589" y2="421.253" gradientUnits="userSpaceOnUse">
<stop stop-color="#057189"/>
<stop offset="0.505208" stop-color="#15CEF9"/>
<stop offset="1" stop-color="#0797B7"/>
<stop offset="1" stop-color="#07949F"/>
</linearGradient>
<linearGradient id="paint1_linear_140_921" x1="1032.92" y1="315.793" x2="1032.92" y2="462.134" gradientUnits="userSpaceOnUse">
<stop stop-color="#057189"/>
<stop offset="0.505208" stop-color="#15CEF9"/>
<stop offset="1" stop-color="#0797B7"/>
<stop offset="1" stop-color="#07949F"/>
</linearGradient>
<linearGradient id="paint2_linear_140_921" x1="1175.79" y1="808.199" x2="1175.79" y2="912.791" gradientUnits="userSpaceOnUse">
<stop stop-color="#057189"/>
<stop offset="0.505208" stop-color="#15CEF9"/>
<stop offset="1" stop-color="#0797B7"/>
<stop offset="1" stop-color="#07949F"/>
</linearGradient>
<linearGradient id="paint3_linear_140_921" x1="1226.54" y1="1072.29" x2="1226.54" y2="1300.82" gradientUnits="userSpaceOnUse">
<stop stop-color="#057189"/>
<stop offset="0.505208" stop-color="#15CEF9"/>
<stop offset="1" stop-color="#0797B7"/>
<stop offset="1" stop-color="#07949F"/>
</linearGradient>
<linearGradient id="paint4_linear_140_921" x1="1070.34" y1="1190.03" x2="1070.34" y2="1311.37" gradientUnits="userSpaceOnUse">
<stop stop-color="#057189"/>
<stop offset="0.505208" stop-color="#15CEF9"/>
<stop offset="1" stop-color="#0797B7"/>
<stop offset="1" stop-color="#07949F"/>
</linearGradient>
<linearGradient id="paint5_linear_140_921" x1="1228.51" y1="939.861" x2="1228.51" y2="1016.08" gradientUnits="userSpaceOnUse">
<stop stop-color="#057189"/>
<stop offset="0.505208" stop-color="#15CEF9"/>
<stop offset="1" stop-color="#0797B7"/>
<stop offset="1" stop-color="#07949F"/>
</linearGradient>
<linearGradient id="paint6_linear_140_921" x1="1234.69" y1="577.053" x2="1234.69" y2="1300.5" gradientUnits="userSpaceOnUse">
<stop stop-color="#057189"/>
<stop offset="0.505208" stop-color="#15CEF9"/>
<stop offset="1" stop-color="#0797B7"/>
<stop offset="1" stop-color="#07949F"/>
</linearGradient>
<linearGradient id="paint7_linear_140_921" x1="1149.51" y1="404.629" x2="1149.51" y2="1299.19" gradientUnits="userSpaceOnUse">
<stop stop-color="#057189"/>
<stop offset="0.505208" stop-color="#15CEF9"/>
<stop offset="1" stop-color="#0797B7"/>
<stop offset="1" stop-color="#07949F"/>
</linearGradient>
<linearGradient id="paint8_linear_140_921" x1="1062.82" y1="474.527" x2="1062.82" y2="775.038" gradientUnits="userSpaceOnUse">
<stop stop-color="#057189"/>
<stop offset="0.505208" stop-color="#15CEF9"/>
<stop offset="1" stop-color="#0797B7"/>
<stop offset="1" stop-color="#07949F"/>
</linearGradient>
<linearGradient id="paint9_linear_140_921" x1="579.043" y1="539.977" x2="579.043" y2="694.037" gradientUnits="userSpaceOnUse">
<stop stop-color="#057189"/>
<stop offset="0.505208" stop-color="#15CEF9"/>
<stop offset="1" stop-color="#0797B7"/>
<stop offset="1" stop-color="#07949F"/>
</linearGradient>
<linearGradient id="paint10_linear_140_921" x1="501.425" y1="652.398" x2="501.425" y2="744.704" gradientUnits="userSpaceOnUse">
<stop stop-color="#057189"/>
<stop offset="0.505208" stop-color="#15CEF9"/>
<stop offset="1" stop-color="#0797B7"/>
<stop offset="1" stop-color="#07949F"/>
</linearGradient>
<linearGradient id="paint11_linear_140_921" x1="700.002" y1="414.838" x2="700.002" y2="965.846" gradientUnits="userSpaceOnUse">
<stop stop-color="#057189"/>
<stop offset="0.505208" stop-color="#15CEF9"/>
<stop offset="1" stop-color="#0797B7"/>
<stop offset="1" stop-color="#07949F"/>
</linearGradient>
<linearGradient id="paint12_linear_140_921" x1="989.098" y1="1076.42" x2="989.098" y2="1312.56" gradientUnits="userSpaceOnUse">
<stop stop-color="#057189"/>
<stop offset="0.505208" stop-color="#15CEF9"/>
<stop offset="1" stop-color="#0797B7"/>
<stop offset="1" stop-color="#07949F"/>
</linearGradient>
<linearGradient id="paint13_linear_140_921" x1="925.767" y1="1076.31" x2="925.767" y2="1312.02" gradientUnits="userSpaceOnUse">
<stop stop-color="#057189"/>
<stop offset="0.505208" stop-color="#15CEF9"/>
<stop offset="1" stop-color="#0797B7"/>
<stop offset="1" stop-color="#07949F"/>
</linearGradient>
<linearGradient id="paint14_linear_140_921" x1="850.707" y1="1074.57" x2="850.707" y2="1311.48" gradientUnits="userSpaceOnUse">
<stop stop-color="#057189"/>
<stop offset="0.505208" stop-color="#15CEF9"/>
<stop offset="1" stop-color="#0797B7"/>
<stop offset="1" stop-color="#07949F"/>
</linearGradient>
<linearGradient id="paint15_linear_140_921" x1="707.891" y1="1170.36" x2="707.891" y2="1311.7" gradientUnits="userSpaceOnUse">
<stop stop-color="#057189"/>
<stop offset="0.505208" stop-color="#15CEF9"/>
<stop offset="1" stop-color="#0797B7"/>
<stop offset="1" stop-color="#07949F"/>
</linearGradient>
<linearGradient id="paint16_linear_140_921" x1="422.367" y1="956.496" x2="422.367" y2="1205.25" gradientUnits="userSpaceOnUse">
<stop stop-color="#057189"/>
<stop offset="0.505208" stop-color="#15CEF9"/>
<stop offset="1" stop-color="#0797B7"/>
<stop offset="1" stop-color="#07949F"/>
</linearGradient>
<linearGradient id="paint17_linear_140_921" x1="402.59" y1="1187.64" x2="402.59" y2="1301.15" gradientUnits="userSpaceOnUse">
<stop stop-color="#057189"/>
<stop offset="0.505208" stop-color="#15CEF9"/>
<stop offset="1" stop-color="#0797B7"/>
<stop offset="1" stop-color="#07949F"/>
</linearGradient>
<linearGradient id="paint18_linear_140_921" x1="457.605" y1="852.883" x2="457.605" y2="1250.37" gradientUnits="userSpaceOnUse">
<stop stop-color="#057189"/>
<stop offset="0.505208" stop-color="#15CEF9"/>
<stop offset="1" stop-color="#0797B7"/>
<stop offset="1" stop-color="#07949F"/>
</linearGradient>
<linearGradient id="paint19_linear_140_921" x1="507.929" y1="977.045" x2="507.929" y2="1305.93" gradientUnits="userSpaceOnUse">
<stop stop-color="#057189"/>
<stop offset="0.505208" stop-color="#15CEF9"/>
<stop offset="1" stop-color="#0797B7"/>
<stop offset="1" stop-color="#07949F"/>
</linearGradient>
<linearGradient id="paint20_linear_140_921" x1="596.688" y1="601.734" x2="596.688" y2="1305.82" gradientUnits="userSpaceOnUse">
<stop stop-color="#057189"/>
<stop offset="0.505208" stop-color="#15CEF9"/>
<stop offset="1" stop-color="#0797B7"/>
<stop offset="1" stop-color="#07949F"/>
</linearGradient>
<linearGradient id="paint21_linear_140_921" x1="661.246" y1="788.953" x2="661.246" y2="807.762" gradientUnits="userSpaceOnUse">
<stop stop-color="#057189"/>
<stop offset="0.505208" stop-color="#15CEF9"/>
<stop offset="1" stop-color="#0797B7"/>
<stop offset="1" stop-color="#07949F"/>
</linearGradient>
<linearGradient id="paint22_linear_140_921" x1="985.739" y1="958.344" x2="985.739" y2="1074.79" gradientUnits="userSpaceOnUse">
<stop stop-color="#057189"/>
<stop offset="0.505208" stop-color="#15CEF9"/>
<stop offset="1" stop-color="#0797B7"/>
<stop offset="1" stop-color="#07949F"/>
</linearGradient>
<linearGradient id="paint23_linear_140_921" x1="848.254" y1="957.582" x2="848.254" y2="1063.8" gradientUnits="userSpaceOnUse">
<stop stop-color="#057189"/>
<stop offset="0.505208" stop-color="#15CEF9"/>
<stop offset="1" stop-color="#0797B7"/>
<stop offset="1" stop-color="#07949F"/>
</linearGradient>
<linearGradient id="paint24_linear_140_921" x1="850.015" y1="849.404" x2="850.015" y2="960.628" gradientUnits="userSpaceOnUse">
<stop stop-color="#057189"/>
<stop offset="0.505208" stop-color="#15CEF9"/>
<stop offset="1" stop-color="#0797B7"/>
<stop offset="1" stop-color="#07949F"/>
</linearGradient>
<linearGradient id="paint25_linear_140_921" x1="866.327" y1="281" x2="866.327" y2="1313.87" gradientUnits="userSpaceOnUse">
<stop stop-color="#057189"/>
<stop offset="0.5625" stop-color="#15CEF9"/>
<stop offset="1" stop-color="#07949F"/>
</linearGradient>
<linearGradient id="paint26_linear_140_921" x1="844.097" y1="743.727" x2="844.097" y2="892.025" gradientUnits="userSpaceOnUse">
<stop stop-color="#057189"/>
<stop offset="0.505208" stop-color="#15CEF9"/>
<stop offset="1" stop-color="#0797B7"/>
<stop offset="1" stop-color="#07949F"/>
</linearGradient>
<linearGradient id="paint27_linear_140_921" x1="985.952" y1="745.791" x2="985.952" y2="964.759" gradientUnits="userSpaceOnUse">
<stop stop-color="#057189"/>
<stop offset="0.505208" stop-color="#15CEF9"/>
<stop offset="1" stop-color="#0797B7"/>
<stop offset="1" stop-color="#07949F"/>
</linearGradient>
<linearGradient id="paint28_linear_140_921" x1="985.952" y1="745.791" x2="985.952" y2="964.759" gradientUnits="userSpaceOnUse">
<stop stop-color="#057189"/>
<stop offset="0.505208" stop-color="#15CEF9"/>
<stop offset="1" stop-color="#0797B7"/>
<stop offset="1" stop-color="#07949F"/>
</linearGradient>
<linearGradient id="paint29_linear_140_921" x1="1085.05" y1="786.887" x2="1085.05" y2="1252.76" gradientUnits="userSpaceOnUse">
<stop stop-color="#057189"/>
<stop offset="0.505208" stop-color="#15CEF9"/>
<stop offset="1" stop-color="#0797B7"/>
<stop offset="1" stop-color="#07949F"/>
</linearGradient>
<linearGradient id="paint30_linear_140_921" x1="770.917" y1="290.135" x2="770.917" y2="456.063" gradientUnits="userSpaceOnUse">
<stop stop-color="#057189"/>
<stop offset="0.505208" stop-color="#15CEF9"/>
<stop offset="1" stop-color="#0797B7"/>
<stop offset="1" stop-color="#07949F"/>
</linearGradient>
</defs>
</svg>
