<svg width="929" height="1140" viewBox="0 0 929 1140" fill="none" xmlns="http://www.w3.org/2000/svg">
<path d="M327.056 106.667L357.175 85.6379L384.858 65.9896M384.858 65.9896L419.847 51.9702L468.708 43.5533M384.858 65.9896L425.55 130.511M468.708 43.5533V5M468.708 43.5533L529.747 166.966M468.708 43.5533L551.344 94.3187M468.708 43.5533L447.129 87.0319L425.55 130.511M468.708 5H548.459V22.5242L541.153 47.0581M468.708 5L541.153 47.0581M541.153 47.0581L563.934 51.9702M563.934 51.9702L582.678 61.7944L590.816 65.9896L607.894 47.0581M563.934 51.9702L551.344 94.3187M607.894 47.0581L620.102 32.3484V5H691.745V28.8435M607.894 47.0581L691.745 28.8435M607.894 47.0581L639.647 90.55M691.745 28.8435L678.736 47.0581L665.696 65.9896L639.647 90.55M639.647 90.55L541.153 171.161M776.815 66.3496L776.397 65.9896L753.616 51.9702L730.834 43.5533H696.647L683.607 56.1919L745.949 111.579M776.815 66.3496L793.507 80.7258L800.844 100.348V119.279L793.507 143.123L781.299 162.054L753.616 185.181L745.949 137.52V111.579M776.815 66.3496L745.949 111.579M683.607 51.9702L639.647 202.731M639.647 202.731L745.949 111.579M639.647 202.731L541.153 171.161M745.949 111.579H665.696L541.153 171.161M568.004 199.917L553.361 180.986L541.153 171.161M541.153 171.161L529.747 166.966M529.747 166.966H511.836H499.628L482.55 180.986L470.005 193.066M529.747 166.966L540.546 130.642L551.344 94.3187M529.747 166.966L425.55 130.511M346.601 307.186L314.016 266.536L453.233 229.363V221.663L459.738 202.731L468.708 194.315L470.005 193.066M320.552 206.927L384.858 200.963M470.005 193.066L384.858 200.963M470.005 193.066L425.55 130.511M384.858 200.963L334.362 130.511H425.55" stroke="url(#paint0_linear_138_649)" stroke-width="10" stroke-linecap="round" stroke-linejoin="bevel"/>
<path d="M213.086 336.847L203.314 294.736M203.314 294.736L187.654 257.696L156.394 229.073M203.314 294.736L301.931 355.965M203.314 294.736L257.077 269.472M156.394 229.073L101.645 195.379M156.394 229.073L257.077 269.472M156.394 229.073L240.461 154.967M101.645 195.379L60.5827 178.545L39.0651 154.967M101.645 195.379L181.211 204.487L244.689 211.753M101.645 195.379L82.774 106.975M101.645 195.379L187.654 92.3259M39.0651 154.967L25.3777 116.228M39.0651 154.967L82.774 106.975M25.3777 116.228L50.8104 72.4442L101.645 58.9824L126.483 58.9824M25.3777 116.228L187.654 89.2781M126.483 58.9824L187.654 89.2781M126.483 58.9824L82.774 106.975M187.654 89.2781L213.086 116.228M213.086 116.228L240.461 154.967M213.086 116.228L244.689 211.753M240.461 154.967V116.228M240.461 154.967L248.769 212.22M240.461 154.967L310.84 89.2781M240.461 154.967H318.023H322.585M240.461 116.228L270.853 79.2529L310.84 89.2781M240.461 116.228L336.273 129.716M310.84 89.2781L336.273 129.716M336.273 129.716C333.673 122.415 327.296 117.242 322.585 154.967M322.585 154.967C317.875 192.692 312.793 230.18 310.84 244.208M322.585 154.967L257.077 269.472M310.84 244.208V267.786M310.84 244.208L257.077 269.472M310.84 267.786L342.13 303.153M310.84 267.786L297.122 360.107M257.077 269.472L248.769 212.22M248.769 212.22L244.689 211.753" stroke="url(#paint1_linear_138_649)" stroke-width="10" stroke-linecap="round" stroke-linejoin="bevel"/>
<g filter="url(#filter0_d_138_649)">
<path d="M253.747 974.858L194.404 905.557L145.912 839.895L143.963 834.473M253.747 974.858L336.118 1043.41M253.747 974.858L246.78 798.076M336.118 1043.41L433.872 1092.72L435.259 1093.15M336.118 1043.41L246.78 798.076M336.118 1043.41L465.994 974.858M595.839 1124L647.506 1105.97M595.839 1124H541.398M595.839 1124L612.609 974.858M647.506 1105.97L697.786 1063.86M647.506 1105.97L465.994 974.858M697.786 1063.86L745.26 1014.55M697.786 1063.86L612.609 974.858M745.26 1014.55L787.155 948.412M745.26 1014.55L612.609 974.858M787.155 948.412L824.857 883.466M787.155 948.412L626.574 805.298M824.857 883.466L847.207 839.895M824.857 883.466L612.609 974.858M847.207 839.895L868.138 787.242M847.207 839.895L626.574 805.298M868.138 787.242L890.127 719.285M868.138 787.242L735.488 748.767M891.876 713.88L908.646 647.739L917 597.238V561.154M891.876 713.88L707.558 544.58M891.876 713.88L890.127 719.285M697.786 343.455L795.54 374.733L840.209 408.401L868.138 445.68L871.474 450.907M697.786 343.455H626.574H548.365M697.786 343.455L707.558 544.58M548.365 343.455L509.276 363.9L465.994 408.401M548.365 343.455L707.558 544.58M548.365 343.455L527.036 433.678M465.994 408.401L435.259 445.68L422.712 475.763M465.994 408.401L527.036 433.678M422.712 475.763H362.66M422.712 475.763L527.036 433.678M422.712 475.763L246.78 798.076M362.66 475.763L301.221 460.124L271.904 420.429V408.401L283.885 385L252.398 408.401M362.66 475.763L260.745 587.599M252.398 408.401L228.783 426.5L209.078 450.907L194.485 475.763L179.73 505.82M252.398 408.401L260.745 587.599M179.73 505.82L160.186 538.292L145.912 570.765L126.676 605.654L112.711 647.739M179.73 505.82L260.745 587.599M112.711 647.739L104.326 694.656M112.711 647.739L260.745 587.599M104.326 694.656L112.711 747.574M104.326 694.656L246.78 798.076M112.711 747.574L143.963 834.473M112.711 747.574L246.78 798.076M143.963 834.473L246.78 798.076M246.78 798.076L465.994 670.6M246.78 798.076L260.745 587.599M465.994 974.858L435.259 1093.15M465.994 974.858L541.398 1124M465.994 974.858L626.574 805.298M465.994 974.858V682.628M435.259 1093.15L534.4 1124H541.398M626.574 805.298L470.195 674.124M465.994 670.6L470.195 674.124M465.994 670.6V682.628M465.994 670.6L735.488 748.767M470.195 674.124L527.036 433.678M871.474 450.907L898.843 493.792L917 555.126V561.154M871.474 450.907L707.558 544.58M465.994 682.628L707.558 544.58M917 561.154L707.558 544.58M707.558 544.58L735.488 748.767M890.127 719.285L735.488 748.767" stroke="url(#paint2_linear_138_649)" stroke-width="15" stroke-linecap="round" stroke-linejoin="bevel" shape-rendering="crispEdges"/>
</g>
<path d="M68.6896 747.895L140.568 835.361L69.7376 638.236M68.6896 747.895L69.7376 749.335L32.4673 685.498L12.7069 630.669M68.6896 747.895L69.7376 638.236M69.7376 638.236L118.266 593.783L72.5309 494.511M69.7376 638.236L12.7069 630.669M69.7376 638.236L5 533.276M12.7069 630.669L5 533.276M5 533.276L12.7069 481.288L41.2223 441.566L69.7376 404.712M5 533.276L12.7069 532.409L172.948 494.511V417.935M72.5309 494.511L69.7376 404.712M72.5309 494.511L172.948 417.935M69.7376 404.712L172.948 417.935M172.948 417.935L214.658 339.475M172.948 417.935L148.81 350.812M72.5309 404.712L103.802 370.673L148.81 350.812M214.658 339.475H172.948L148.81 350.812M214.658 339.475H254.179L301.406 360.265L287.821 386.5L214.658 339.475Z" stroke="url(#paint3_linear_138_649)" stroke-width="10" stroke-linecap="round" stroke-linejoin="bevel"/>
<path d="M876.951 245.161C876.951 263.122 872.499 279.142 865.565 290.508C858.578 301.961 849.599 307.974 840.58 307.974C831.561 307.974 822.583 301.961 815.595 290.508C808.661 279.142 804.21 263.122 804.21 245.161C804.21 227.2 808.661 211.18 815.595 199.814C822.583 188.361 831.561 182.348 840.58 182.348C849.599 182.348 858.578 188.361 865.565 199.814C872.499 211.18 876.951 227.2 876.951 245.161Z" stroke="url(#paint4_linear_138_649)" stroke-width="10"/>
<path d="M284.351 412.337L324.369 422.5M324.369 422.5L420.984 471.129L324.369 413.911L304.127 356.5L344.842 316.641M324.369 422.5L515.195 351.158M324.369 422.5L344.842 316.641M344.842 316.641L385.103 277.371L421.294 254.244L464.237 228.834M344.842 316.641L464.237 367.916M464.237 228.834L507.149 214.233M464.237 228.834V397.518M515.195 211.496L572.904 203.424H634.589L701.67 195.326L753.984 188.396L835.8 176.846M515.195 211.496L507.149 214.233M515.195 211.496L610.451 316.641M515.195 211.496L688.26 238.074M835.8 176.846L803.616 228.834M835.8 176.846L878.743 228.834M803.616 228.834L870.697 277.371L823.747 295.851V302.781M803.616 228.834L688.26 238.074M823.747 302.781H753.984H713.723M823.747 302.781L688.26 238.074M713.723 302.781L661.409 309.711L610.451 316.641M713.723 302.781L700.992 270.428L688.26 238.074M610.451 316.641L566.183 328.191L515.195 351.158M610.451 316.641L688.26 238.074M515.195 351.158L507.149 214.233M688.26 238.074L753.984 195.326" stroke="url(#paint5_linear_138_649)" stroke-width="10" stroke-linecap="round" stroke-linejoin="bevel"/>
<ellipse cx="75.9975" cy="491.138" rx="12.331" ry="10.6207" fill="url(#paint6_diamond_138_649)"/>
<ellipse cx="70.1496" cy="638.916" rx="12.331" ry="10.6207" fill="url(#paint7_diamond_138_649)"/>
<ellipse cx="171.438" cy="412.97" rx="12.331" ry="10.6207" fill="url(#paint8_diamond_138_649)"/>
<ellipse cx="470.71" cy="674.079" rx="15.4137" ry="13.2759" fill="url(#paint9_diamond_138_649)"/>
<ellipse cx="470.71" cy="674.079" rx="15.4137" ry="13.2759" fill="url(#paint10_diamond_138_649)"/>
<ellipse cx="468.986" cy="977.885" rx="15.4137" ry="13.2759" fill="url(#paint11_diamond_138_649)"/>
<ellipse cx="243.391" cy="797.92" rx="15.4137" ry="13.2759" fill="url(#paint12_diamond_138_649)"/>
<ellipse cx="258.801" cy="590.493" rx="15.4137" ry="13.2759" fill="url(#paint13_diamond_138_649)"/>
<ellipse cx="711.782" cy="546.153" rx="15.4137" ry="13.2759" fill="url(#paint14_diamond_138_649)"/>
<ellipse cx="621.211" cy="977.885" rx="15.4137" ry="13.2759" fill="url(#paint15_diamond_138_649)"/>
<ellipse cx="464.544" cy="394.382" rx="9.24824" ry="7.96555" fill="url(#paint16_diamond_138_649)"/>
<ellipse cx="351.347" cy="307.186" rx="9.24824" ry="7.96555" fill="url(#paint17_diamond_138_649)"/>
<ellipse cx="637.427" cy="90.4187" rx="9.24824" ry="7.96555" fill="url(#paint18_diamond_138_649)"/>
<ellipse cx="428.789" cy="125.518" rx="9.24824" ry="7.96555" fill="url(#paint19_diamond_138_649)"/>
<ellipse cx="323.234" cy="415.624" rx="9.24824" ry="7.96555" fill="url(#paint20_diamond_138_649)"/>
<ellipse cx="760.734" cy="189.882" rx="9.24824" ry="7.96555" fill="url(#paint21_diamond_138_649)"/>
<ellipse cx="694.949" cy="237.196" rx="9.24824" ry="7.96555" fill="url(#paint22_diamond_138_649)"/>
<ellipse cx="332.849" cy="125.518" rx="9.24824" ry="7.96555" fill="url(#paint23_diamond_138_649)"/>
<ellipse cx="510.665" cy="218.61" rx="9.24824" ry="7.96555" fill="url(#paint24_diamond_138_649)"/>
<ellipse cx="113.547" cy="98.3816" rx="9.24824" ry="7.96555" fill="url(#paint25_diamond_138_649)"/>
<ellipse cx="259.297" cy="267.466" rx="9.24824" ry="7.96555" fill="url(#paint26_diamond_138_649)"/>
<defs>
<filter id="filter0_d_138_649" x="92.9187" y="335.955" width="835.581" height="803.545" filterUnits="userSpaceOnUse" color-interpolation-filters="sRGB">
<feFlood flood-opacity="0" result="BackgroundImageFix"/>
<feColorMatrix in="SourceAlpha" type="matrix" values="0 0 0 0 0 0 0 0 0 0 0 0 0 0 0 0 0 0 127 0" result="hardAlpha"/>
<feOffset dy="4"/>
<feGaussianBlur stdDeviation="2"/>
<feComposite in2="hardAlpha" operator="out"/>
<feColorMatrix type="matrix" values="0 0 0 0 0 0 0 0 0 0 0 0 0 0 0 0 0 0 0.25 0"/>
<feBlend mode="normal" in2="BackgroundImageFix" result="effect1_dropShadow_138_649"/>
<feBlend mode="normal" in="SourceGraphic" in2="effect1_dropShadow_138_649" result="shape"/>
</filter>
<linearGradient id="paint0_linear_138_649" x1="557.43" y1="5" x2="557.43" y2="307.186" gradientUnits="userSpaceOnUse">
<stop stop-color="#07949F"/>
<stop offset="0.479167" stop-color="#15CEF9"/>
<stop offset="1" stop-color="#07949F"/>
</linearGradient>
<linearGradient id="paint1_linear_138_649" x1="183.754" y1="48.8656" x2="183.754" y2="360.106" gradientUnits="userSpaceOnUse">
<stop stop-color="#057189"/>
<stop offset="0.520833" stop-color="#15CEF9"/>
<stop offset="1" stop-color="#07949F"/>
</linearGradient>
<linearGradient id="paint2_linear_138_649" x1="510.663" y1="343.455" x2="510.663" y2="1124" gradientUnits="userSpaceOnUse">
<stop stop-color="#057189"/>
<stop offset="0.520833" stop-color="#15CEF9"/>
<stop offset="1" stop-color="#07949F"/>
</linearGradient>
<linearGradient id="paint3_linear_138_649" x1="153.203" y1="339.475" x2="153.203" y2="841.49" gradientUnits="userSpaceOnUse">
<stop stop-color="#0797B7"/>
<stop offset="0.479167" stop-color="#15CEF9"/>
<stop offset="1" stop-color="#057189"/>
</linearGradient>
<linearGradient id="paint4_linear_138_649" x1="840.58" y1="177.348" x2="840.58" y2="312.974" gradientUnits="userSpaceOnUse">
<stop stop-color="#057189"/>
<stop offset="0.546875" stop-color="#15CEF9"/>
<stop offset="1" stop-color="#07949F"/>
</linearGradient>
<linearGradient id="paint5_linear_138_649" x1="581.612" y1="176.846" x2="581.612" y2="471.465" gradientUnits="userSpaceOnUse">
<stop stop-color="#0797B7"/>
<stop offset="0.552083" stop-color="#15CEF9"/>
<stop offset="1" stop-color="#07949F"/>
</linearGradient>
<radialGradient id="paint6_diamond_138_649" cx="0" cy="0" r="1" gradientUnits="userSpaceOnUse" gradientTransform="translate(75.9975 491.138) rotate(90) scale(10.6207 12.331)">
<stop stop-color="#0288C9"/>
<stop offset="1" stop-color="#59DDFA"/>
</radialGradient>
<radialGradient id="paint7_diamond_138_649" cx="0" cy="0" r="1" gradientUnits="userSpaceOnUse" gradientTransform="translate(70.1496 638.916) rotate(90) scale(10.6207 12.331)">
<stop stop-color="#0288C9"/>
<stop offset="1" stop-color="#59DDFA"/>
</radialGradient>
<radialGradient id="paint8_diamond_138_649" cx="0" cy="0" r="1" gradientUnits="userSpaceOnUse" gradientTransform="translate(171.438 412.97) rotate(90) scale(10.6207 12.331)">
<stop stop-color="#0288C9"/>
<stop offset="1" stop-color="#59DDFA"/>
</radialGradient>
<radialGradient id="paint9_diamond_138_649" cx="0" cy="0" r="1" gradientUnits="userSpaceOnUse" gradientTransform="translate(470.71 674.079) rotate(90) scale(13.2759 15.4137)">
<stop stop-color="white"/>
<stop offset="0.5" stop-color="#93E5F7"/>
<stop offset="1" stop-color="#25A7C4"/>
</radialGradient>
<radialGradient id="paint10_diamond_138_649" cx="0" cy="0" r="1" gradientUnits="userSpaceOnUse" gradientTransform="translate(470.71 674.079) rotate(90) scale(13.2759 15.4137)">
<stop stop-color="white"/>
<stop offset="0.5" stop-color="#93E5F7"/>
<stop offset="1" stop-color="#25A7C4"/>
</radialGradient>
<radialGradient id="paint11_diamond_138_649" cx="0" cy="0" r="1" gradientUnits="userSpaceOnUse" gradientTransform="translate(468.986 977.885) rotate(90) scale(13.2759 15.4137)">
<stop stop-color="white"/>
<stop offset="0.5" stop-color="#93E5F7"/>
<stop offset="1" stop-color="#25A7C4"/>
</radialGradient>
<radialGradient id="paint12_diamond_138_649" cx="0" cy="0" r="1" gradientUnits="userSpaceOnUse" gradientTransform="translate(243.391 797.92) rotate(90) scale(13.2759 15.4137)">
<stop stop-color="white"/>
<stop offset="0.5" stop-color="#93E5F7"/>
<stop offset="1" stop-color="#25A7C4"/>
</radialGradient>
<radialGradient id="paint13_diamond_138_649" cx="0" cy="0" r="1" gradientUnits="userSpaceOnUse" gradientTransform="translate(258.801 590.493) rotate(90) scale(13.2759 15.4137)">
<stop stop-color="white"/>
<stop offset="0.5" stop-color="#93E5F7"/>
<stop offset="1" stop-color="#25A7C4"/>
</radialGradient>
<radialGradient id="paint14_diamond_138_649" cx="0" cy="0" r="1" gradientUnits="userSpaceOnUse" gradientTransform="translate(711.782 546.153) rotate(90) scale(13.2759 15.4137)">
<stop stop-color="white"/>
<stop offset="0.5" stop-color="#93E5F7"/>
<stop offset="1" stop-color="#25A7C4"/>
</radialGradient>
<radialGradient id="paint15_diamond_138_649" cx="0" cy="0" r="1" gradientUnits="userSpaceOnUse" gradientTransform="translate(621.211 977.885) rotate(90) scale(13.2759 15.4137)">
<stop stop-color="white"/>
<stop offset="0.5" stop-color="#93E5F7"/>
<stop offset="1" stop-color="#25A7C4"/>
</radialGradient>
<radialGradient id="paint16_diamond_138_649" cx="0" cy="0" r="1" gradientUnits="userSpaceOnUse" gradientTransform="translate(464.544 394.382) rotate(90) scale(7.96555 9.24824)">
<stop stop-color="#0288C9"/>
<stop offset="1" stop-color="#59DDFA"/>
</radialGradient>
<radialGradient id="paint17_diamond_138_649" cx="0" cy="0" r="1" gradientUnits="userSpaceOnUse" gradientTransform="translate(351.347 307.186) rotate(90) scale(7.96555 9.24824)">
<stop stop-color="#0288C9"/>
<stop offset="1" stop-color="#59DDFA"/>
</radialGradient>
<radialGradient id="paint18_diamond_138_649" cx="0" cy="0" r="1" gradientUnits="userSpaceOnUse" gradientTransform="translate(637.427 90.4187) rotate(90) scale(7.96555 9.24824)">
<stop stop-color="#0288C9"/>
<stop offset="1" stop-color="#59DDFA"/>
</radialGradient>
<radialGradient id="paint19_diamond_138_649" cx="0" cy="0" r="1" gradientUnits="userSpaceOnUse" gradientTransform="translate(428.789 125.518) rotate(90) scale(7.96555 9.24824)">
<stop stop-color="#0288C9"/>
<stop offset="1" stop-color="#59DDFA"/>
</radialGradient>
<radialGradient id="paint20_diamond_138_649" cx="0" cy="0" r="1" gradientUnits="userSpaceOnUse" gradientTransform="translate(323.234 415.624) rotate(90) scale(7.96555 9.24824)">
<stop stop-color="#0288C9"/>
<stop offset="1" stop-color="#59DDFA"/>
</radialGradient>
<radialGradient id="paint21_diamond_138_649" cx="0" cy="0" r="1" gradientUnits="userSpaceOnUse" gradientTransform="translate(760.734 189.882) rotate(90) scale(7.96555 9.24824)">
<stop stop-color="#0288C9"/>
<stop offset="1" stop-color="#59DDFA"/>
</radialGradient>
<radialGradient id="paint22_diamond_138_649" cx="0" cy="0" r="1" gradientUnits="userSpaceOnUse" gradientTransform="translate(694.949 237.196) rotate(90) scale(7.96555 9.24824)">
<stop stop-color="#0288C9"/>
<stop offset="1" stop-color="#59DDFA"/>
</radialGradient>
<radialGradient id="paint23_diamond_138_649" cx="0" cy="0" r="1" gradientUnits="userSpaceOnUse" gradientTransform="translate(332.849 125.518) rotate(90) scale(7.96555 9.24824)">
<stop stop-color="#0288C9"/>
<stop offset="1" stop-color="#59DDFA"/>
</radialGradient>
<radialGradient id="paint24_diamond_138_649" cx="0" cy="0" r="1" gradientUnits="userSpaceOnUse" gradientTransform="translate(510.665 218.61) rotate(90) scale(7.96555 9.24824)">
<stop stop-color="#0288C9"/>
<stop offset="1" stop-color="#59DDFA"/>
</radialGradient>
<radialGradient id="paint25_diamond_138_649" cx="0" cy="0" r="1" gradientUnits="userSpaceOnUse" gradientTransform="translate(113.547 98.3816) rotate(90) scale(7.96555 9.24824)">
<stop stop-color="#0288C9"/>
<stop offset="1" stop-color="#59DDFA"/>
</radialGradient>
<radialGradient id="paint26_diamond_138_649" cx="0" cy="0" r="1" gradientUnits="userSpaceOnUse" gradientTransform="translate(259.297 267.466) rotate(90) scale(7.96555 9.24824)">
<stop stop-color="#0288C9"/>
<stop offset="1" stop-color="#59DDFA"/>
</radialGradient>
</defs>
</svg>
