<svg width="1700" height="1700" viewBox="0 0 1700 1700" fill="none" xmlns="http://www.w3.org/2000/svg">
<path d="M516.989 1231.38L518.904 1223.57L521.093 1209.84V1194.22L519.914 1189.23L517.263 1177.98L510.697 1164.25L504.678 1161.12L494.282 1158H483.339L474.037 1164.25L465.283 1177.98L462 1191.1V1204.21V1221.7L465.283 1234.82L469.66 1243.56L479.509 1249.18L488.263 1252.3H498.659L507.961 1249.18L515.074 1239.19L516.989 1231.38ZM516.989 1231.38L515.074 1230" stroke="url(#paint0_linear_142_971)" stroke-width="10"/>
<path d="M611.298 1231.38L613.213 1223.57L615.401 1209.84V1194.22L614.223 1189.23L611.571 1177.98L605.005 1164.25L598.987 1161.12L588.591 1158H577.648L568.346 1164.25L559.592 1177.98L556.309 1191.1V1204.21V1221.7L559.592 1234.82L563.969 1243.56L573.818 1249.18L582.572 1252.3H592.968L602.27 1249.18L609.383 1239.19L611.298 1231.38ZM611.298 1231.38L609.383 1230" stroke="url(#paint1_linear_142_971)" stroke-width="10"/>
<path d="M516.914 1201.52L501.86 1185.65M501.86 1185.65L484.577 1167.43L466.178 1213.69L484.019 1199.67M501.86 1185.65L484.019 1199.67M484.019 1199.67L497.4 1219.77M510.781 1239.87L497.4 1219.77M497.4 1219.77L480.674 1244.13" stroke="url(#paint2_linear_142_971)" stroke-width="3"/>
<path d="M611.223 1201.52L596.169 1185.65M596.169 1185.65L578.885 1167.43L560.486 1213.69L578.328 1199.67M596.169 1185.65L578.328 1199.67M578.328 1199.67L591.709 1219.77M605.09 1239.87L591.709 1219.77M591.709 1219.77L574.982 1244.13" stroke="url(#paint3_linear_142_971)" stroke-width="3"/>
<path d="M857.834 1200.07L851.119 1192.89L846.373 1187.12L838.668 1181.38L833.217 1177.95L826.78 1175.71L819.732 1174.52H812.59H806.012L799.434 1173.47L794.548 1172.84L790.836 1170.92L788.816 1168.05L786.372 1163.12L783.083 1156.19L781.204 1150.87L780.076 1145.87L781.204 1140.51L783.083 1137.43L788.816 1136.46H796.098L804.274 1138.69L808.597 1141.04L816.302 1144.89L821.33 1148.95L824.901 1152.02L829.505 1155.56L834.486 1158.95L839.936 1163.12L843.93 1166.86L848.817 1170.92L854.549 1173.47L858.261 1175.71L866.013 1177.43L872.591 1177.95H880.485L886.781 1178.68H888.943L890.962 1180.9" stroke="url(#paint4_linear_142_971)" stroke-width="5"/>
<path d="M1075.7 1205.41L1082.48 1197.37L1087.74 1192.4L1092.44 1188.62L1097.89 1184.84L1102.59 1182.67L1106.58 1181.45L1111.09 1180.26H1114.76H1118.37H1121.62H1124.72H1130.87H1134.11L1137.03 1179.56L1140.08 1178.09L1143.37 1175.92L1144.97 1174.17L1146.99 1170.25L1149.34 1165.81L1151.17 1162.03V1157.17L1152.25 1152.34V1147.48L1150.23 1145.31L1144.97 1143.98L1141.54 1142.61L1135.57 1143.98L1130.87 1145.31L1124.72 1146.67L1121.62 1149.65L1116.92 1152.34L1110.01 1156.12L1104.42 1160.14L1100.24 1163.68L1095.35 1167.42L1091.17 1170.25L1085.91 1174.17L1079.75 1177.15L1073.41 1179.56L1067.44 1181.45H1063.31H1057.67H1051.14L1039.59 1185.3" stroke="url(#paint5_linear_142_971)" stroke-width="5"/>
<path d="M943.586 1361.39L940.297 1376.26V1377.2L942.13 1378.88L944.714 1380.7L948.097 1382.14L954.017 1384.1L957.494 1386.16H962.052H970.086L976.711 1385.39L985.075 1382.14L989.116 1378.22V1372.66L987.189 1368.21L983.853 1361.39V1355.09L985.075 1349.11L987.189 1343.48L989.116 1335.32L991.183 1325.07L993.485 1318.81L994.848 1311.64V1301.91L993.485 1295.54V1286.97L996.258 1280.74V1277.11L994.848 1270.7L993.485 1263.84L991.371 1256.29V1248.87V1241.35L994.848 1232.74L997.667 1226.55L1001.52 1217.94L1004.1 1213.78L1006.41 1208.6L1009.88 1199.47L1012 1194.29L1014.77 1189.74L1017.73 1185.3H1021.4H1027.36H1031.45L1036.24 1186.21L1044.93 1187.96L1050.57 1190.51L1058.18 1194.29L1062.79 1195.72L1066.69 1199.47L1070.64 1203.49L1074.58 1208.6L1075.62 1215.11V1221.37L1080.32 1226.55L1084.54 1231.48L1089.43 1234.11L1098.31 1235.92L1113.16 1234.11L1123.26 1230.19L1128.71 1226.55L1133.74 1221.37L1137.4 1216.3L1140.93 1206.92L1143.18 1201.46L1144.59 1193.21L1147.69 1187.96L1150.28 1184.07L1153.24 1179.77L1156.06 1174.84L1159.16 1168.85L1161.37 1164.1L1162.26 1158.25V1149.75L1161.37 1145.2L1160 1141.63L1157.33 1138.27L1152.81 1135.2L1148.87 1132.22H1143.84H1136.13L1130.26 1134.71L1125.05 1137.33L1118.09 1140.44L1111.65 1144.19L1106.77 1147.69L1101.08 1150.59L1095.02 1154.19L1089.43 1158.25L1084.54 1160.25L1079.09 1162.8L1073.31 1165.5L1066.69 1167.1L1058.18 1166.58H1050.57L1044.93 1165.5L1041.13 1164.55L1031.45 1161.96L1023.13 1157.8L1019.09 1156.71L1012.8 1153.11L1008.99 1150.59L1003.4 1148.46L997.197 1144.89L992.546 1142.3L988.646 1140.02L984.135 1137.75L980.564 1136.25L976.758 1134.29L971.496 1133.27L967.69 1132.47H964.307L959.89 1133.73L953.876 1135.13L949.272 1137.44L941.66 1140.41L936.21 1143.59L928.598 1148L919.436 1151.47L910.931 1155.38L903.131 1158.74L897.446 1160L892.701 1161.44L887.626 1162.73L881.001 1163.85H876.068L870.899 1163.4L865.214 1161.44L858.777 1158.74L853.749 1157.03L849.004 1154.19L844.869 1151.47L840.687 1149.12L835.942 1145.87L830.538 1142.05L825.605 1139.22L820.436 1135.62L815.691 1133.59L810.522 1130.51L806.669 1128.34L799.715 1125.75L793.701 1124H788.204L783.787 1124.94L777.585 1128.34L772.511 1133.27L769.034 1138.76L768 1146.85L769.034 1156.57L773.168 1166.75L778.384 1174.66L785.385 1183.86L786.184 1192.26L787.076 1200.41L791.493 1208.81L796.333 1213.99L804.226 1220.57L811.18 1226.06L821.188 1230.05L831.807 1231.87L843.506 1229.52L850.46 1224.8L852.904 1221.13L855.911 1216.58L857.743 1207.48V1203.77L872.356 1190.97L891.62 1182.95L915.677 1181.03L922.161 1197.86L925.45 1205.98L936.773 1231.48L941.754 1244.15V1253.24L939.734 1261.22L934.706 1274.45L935.834 1285.89V1295.54V1311.64L936.961 1320.73L938.418 1329.83L943.586 1343.48L944.714 1351.07L943.586 1361.39Z" stroke="url(#paint6_linear_142_971)" stroke-width="10" stroke-linecap="round" stroke-linejoin="bevel"/>
<path d="M915.328 1161.05L920.397 1163.32L923.87 1164.09H927.718H932.317H934.101L936.353 1166.67L939.873 1168.83L941.656 1172.17L943.487 1175.1L945.599 1179.22L948.086 1183.64L950.667 1191.17V1195.36L951.934 1199.89L953.154 1203.65L954.187 1208.33L955.501 1213.28L958.223 1219.2L960.006 1223.91L961.508 1228.65L962.259 1233.18L963.62 1238.45L964.746 1242.63L965.544 1246.64V1254.1L964.746 1260.37L963.949 1264.73L963.198 1268.57L962.4 1272.33V1288.65L958.223 1289.17H953.389H949.212L952.122 1291.92H947.429V1294.26V1297.68V1302.63V1306.22L948.086 1308.55L950.01 1309.91L951.23 1312.18L952.122 1313.92L952.685 1316.08L953.389 1319.29L952.122 1321.28L950.01 1322.53L949.212 1324.87V1326.47L950.01 1327.97L952.122 1329.57L952.685 1330.9L954.609 1332.92L956.534 1334.25V1336.16L955.407 1336.93L954.609 1338.53L953.389 1341.36V1343.8L952.685 1346.13V1348.05L952.122 1350.56V1353.07V1355.09L952.685 1356.84L954.609 1359.17L955.407 1361.02V1363.46L956.534 1364.78V1367.64V1371.23V1373.57L954.609 1374.58V1376.32L953.389 1377.09V1378.35L952.685 1379.11L952.122 1380.51V1383.54" stroke="url(#paint7_linear_142_971)" stroke-width="5" stroke-linecap="round" stroke-linejoin="bevel"/>
<path d="M915.301 1160.88L922.302 1158.29L928.692 1156.26L936.069 1155.38H943.68H951.621L957.447 1157.13L963.837 1158.29L969.476 1160.88L971.026 1162.03L975.913 1160L982.867 1158.29L988.317 1157.13H994.942H999.969H1005.8L1013.36 1160L1018.2 1162.03L1022.48 1164.06V1165.81L1013.36 1167.1H1005.8L1002.51 1168.68L998.419 1170.71L994.942 1175.92L993.156 1178.09L990.666 1181.41L989.679 1187.92L988.317 1192.68L986.766 1199.64L983.853 1205.55L981.316 1211.47L979.578 1217.42L977.228 1223.33L973.187 1229.56L971.825 1235.92L970.274 1243.17L969.288 1252.4V1260.35L970.274 1268.15V1272.66L971.825 1279.59V1290.71H976.664H981.316V1293.18L984.041 1294.04V1299.39V1306.77V1309.82L981.316 1314.16L978.826 1316.75V1319.93V1322.38V1324.83L981.316 1326.72V1330.04L978.826 1332.35L975.49 1333.82L973.939 1336.83V1339.59L975.49 1341.38L976.899 1344.18L977.839 1347.11V1349.63V1352.64V1355.23L976.899 1357.96L974.55 1360.09L972.154 1363.28V1366.01L971.308 1368.21V1372.45V1374.47V1376.12L973.14 1378.39L973.798 1380.14L974.55 1380.98V1385.15" stroke="url(#paint8_linear_142_971)" stroke-width="5" stroke-linecap="round" stroke-linejoin="bevel"/>
<path d="M841.272 1200.36C849.645 1211.16 847.463 1222.97 837.757 1227.14C828.052 1231.32 813.222 1226.82 804.849 1216.02C796.477 1205.22 798.659 1193.41 808.364 1189.23C818.07 1185.06 832.9 1189.56 841.272 1200.36Z" stroke="url(#paint9_linear_142_971)" stroke-width="5"/>
<path d="M1127.42 1220.92C1119.04 1231.72 1104.21 1236.21 1094.51 1232.04C1084.8 1227.87 1082.62 1216.06 1090.99 1205.26C1099.37 1194.46 1114.2 1189.96 1123.9 1194.13C1133.61 1198.31 1135.79 1210.12 1127.42 1220.92Z" stroke="url(#paint10_linear_142_971)" stroke-width="5"/>
<path d="M1286.47 913.803L1277.77 954.295L1301.56 942.011M1325.35 929.727L1301.56 942.011M1301.56 942.011L1315.49 958.617M1329.42 975.223L1315.49 958.617M1315.49 958.617L1314.27 959.294M1314.27 959.294L1272.55 982.503V984.323L1290.54 997.517M1314.27 959.294L1309.69 986.598M1290.54 997.517L1306.78 1007.98L1309.69 986.598M1290.54 997.517L1272.55 1013.44L1296.34 1052.11L1266.74 1045.29M1309.69 986.598L1325.35 1004.8" stroke="url(#paint11_linear_142_971)" stroke-width="5"/>
<path d="M1265.92 1046.34L1253.08 1060.47L1245.5 1065.94H1231.5L1215.17 1055.46L1207.58 1041.32L1200.87 1027.42L1194.17 1013.51L1186.58 994.134L1179 974.757V948.313L1186.58 923.237L1194.17 911.383L1204.67 908.192L1215.17 905L1223.92 908.647L1230.62 915.942L1237.33 923.237L1241.78 928.252L1253.08 941.018L1259.5 951.277M1265.92 1046.34L1269.42 1057.28L1277.58 1064.12L1296.25 1063.21L1305.58 1055.46L1314.92 1044.06L1326 1016.7L1330.67 998.921L1333 983.42V961.535L1330.67 933.268L1326 923.237L1321.92 917.31L1314.92 911.383L1304.42 908.647L1289.25 911.383L1279.33 917.31L1269.42 929.62L1259.5 951.277M1265.92 1046.34L1267.94 1041.32L1272.92 1029.01V1003.94V992.538V981.14L1265.92 961.535L1259.5 951.277M1259.5 951.277L1256.58 950.505" stroke="url(#paint12_linear_142_971)" stroke-width="10"/>
<path d="M1107.95 707.714L1125.47 727.804H1147.03L1158.48 719.768L1171.29 706.709L1180.72 697.669L1191.5 690.135H1200.26H1223.84L1238.66 697.669L1250.79 710.225L1261.57 722.279L1279.76 727.804H1305.37L1320.19 715.247L1326.59 706.458L1332.99 697.669L1341.75 675.068L1347.81 659.498V637.4V626.601V615.803V593.202L1345.79 578.637L1342.09 567.336L1338.38 556.036L1328.95 548H1319.51H1309.41L1302.67 551.013L1292.56 560.556L1282.46 571.103L1276.39 577.13L1265.61 587.175L1254.16 598.727L1242.03 607.767L1228.56 610.278H1206.99H1184.09L1173.31 604.754L1164.55 596.215L1154.44 587.175L1150.4 577.13L1148.56 572.61L1143.66 560.556L1136.25 548H1128.84H1118.73H1111.99L1107.95 552.822L1105.26 556.036L1097.84 563.57L1092.45 572.61L1089.76 580.646L1085.72 592.198L1081 607.767V618.314V634.888V641.92V655.983L1085.72 663.014L1092.45 673.059L1097.84 684.611L1101.21 697.669L1107.95 707.714Z" stroke="url(#paint13_linear_142_971)" stroke-width="10"/>
<path d="M1107.95 707.714L1125.47 727.804H1147.03L1158.48 719.768L1171.29 706.709L1180.72 697.669L1191.5 690.135H1200.26H1223.84L1238.66 697.669L1250.79 710.225L1261.57 722.279L1279.76 727.804H1305.37L1320.19 715.247L1326.59 706.458L1332.99 697.669L1341.75 675.068L1347.81 659.498V637.4V626.601V615.803V593.202L1345.79 578.637L1342.09 567.336L1338.38 556.036L1328.95 548H1319.51H1309.41L1302.67 551.013L1292.56 560.556L1282.46 571.103L1276.39 577.13L1265.61 587.175L1254.16 598.727L1242.03 607.767L1228.56 610.278H1206.99H1184.09L1173.31 604.754L1164.55 596.215L1154.44 587.175L1150.4 577.13L1148.56 572.61L1143.66 560.556L1136.25 548H1128.84H1118.73H1111.99L1107.95 552.822L1105.26 556.036L1097.84 563.57L1092.45 572.61L1089.76 580.646L1085.72 592.198L1081 607.767V618.314V634.888V641.92V655.983L1085.72 663.014L1092.45 673.059L1097.84 684.611L1101.21 697.669L1107.95 707.714Z" stroke="url(#paint14_linear_142_971)" stroke-width="10"/>
<path d="M1194.84 921.975L1228.12 935.628L1243.88 941.544L1213.23 950.419M1182.58 959.293L1213.23 950.419M1213.23 950.419L1192.51 987.055L1227.53 982.276M1262.56 977.498L1227.53 982.276M1227.53 982.276L1243.88 1009.81M1262.56 1035.75L1243.88 1009.81M1243.88 1009.81L1233.08 1033.48M1222.28 1057.14L1233.08 1033.48M1233.08 1033.48L1222.28 982.276" stroke="url(#paint15_linear_142_971)" stroke-width="5"/>
<ellipse cx="1225.64" cy="991.116" rx="11.6395" ry="9.11591" fill="url(#paint16_diamond_142_971)"/>
<ellipse cx="1303.92" cy="948.23" rx="14.9224" ry="7.22986" fill="url(#paint17_diamond_142_971)"/>
<path d="M1105.67 563.717L1134.04 587.777L1164.43 606.323M1164.43 606.323L1188.07 694.041L1110.4 712.086L1146.19 660.834M1164.43 606.323L1163.11 606.079M1091.49 593.792L1121.21 598.303M1121.21 598.303L1102.3 629.13M1121.21 598.303L1163.11 606.079M1083.39 659.956L1102.3 629.13M1102.3 629.13L1146.19 660.834M1146.19 660.834L1190.09 692.537L1224.29 642.413M1146.19 660.834L1163.11 606.079M1224.29 642.413L1244.12 613.34L1294.77 628.879M1224.29 642.413L1279.91 643.333M1279.91 643.333L1345.42 644.418L1294.77 628.879M1279.91 643.333L1265.86 669.981M1246.82 706.071L1265.86 669.981M1265.86 669.981L1333.27 701.059M1294.77 628.879L1318.07 602.814M1341.37 576.749L1318.07 602.814M1318.07 602.814L1285.32 576.749" stroke="url(#paint18_linear_142_971)" stroke-width="3"/>
<ellipse cx="1222.67" cy="699.391" rx="8.95344" ry="9.43025" fill="url(#paint19_diamond_142_971)"/>
<ellipse cx="1297.97" cy="725.323" rx="8.95344" ry="9.43025" fill="url(#paint20_diamond_142_971)"/>
<path d="M654.224 367.903L656.136 366.428M671.748 354.378L689.161 347.083L703.93 337.739L723.437 332.001C725.752 332.001 730.954 332.001 733.246 332.001C735.539 332.001 744.929 324.678 749.337 321.017L761.24 316.345M671.748 354.378L656.136 366.428M671.748 354.378L724.429 356.059M761.24 316.345H782.952L796.287 309.049H829.131M761.24 316.345L777.111 357.739M829.131 309.049L852.936 311.672L870.46 309.049L877.624 307L896.801 309.049L907.712 311.672M829.131 309.049L868.421 383.425M907.712 311.672L917.521 309.049H929.093L942.869 314.295L957.087 316.345L968.328 323.722L993.346 332.411L1002.71 342.083L1010.43 345.853L1016.93 356.182L1023.1 357.739L1028.17 366.92M907.712 311.672L819.652 407.576L891.356 426.839M907.712 311.672L938.461 357.739M1028.17 366.92L1040.52 375.28L1043.71 382.822L1050.66 388.232V400.117V406.347L1045.92 412.249L1048.12 420.61L1043.71 426.839M1028.17 366.92L983.317 362.329M1043.71 426.839L1040.52 439.544L1028.17 446.512M1043.71 426.839L983.317 362.329M1028.17 446.512L1012.96 457.332L998.857 463.07L990.812 465.939H975.051H964.14M1028.17 446.512L964.14 429.749M656.136 366.428L651.819 368.928M659.404 541.514H651.359L643.313 536.678L633.725 525.284L629.537 522.661L621.161 514.956L615.981 502.825L609.258 496.103L600 482.005V470.078M659.404 541.514L660.617 548.646L663.151 554.302L667.56 559.957L672.299 564.63L680.345 568.482L690.043 573.319L700.734 576.269H714.62L723.107 575.122L729.83 576.269L736.553 575.122L743.937 578.81L751.541 580.942L753.635 582.745M659.404 541.514L663.151 532.416L676.928 522.989L692.925 516.104M796.398 501.759L797.61 505.694L794.634 516.104L793.202 523.153L790.116 531.596L791.107 534.137V543.728L784.715 550.121L782.842 563.236L778.213 571.843C777.551 572.936 774.84 575.86 769.286 578.81C763.731 581.761 759.771 581.461 758.485 580.942L753.635 582.745M796.398 501.759L811.166 503.89M796.398 501.759L764.767 502.825M811.166 503.89H822.408L838.829 511.104L850.953 515.202L855.912 516.104L867.815 520.12H879.057L893.605 517.497L909.585 512.743M811.166 503.89L850.842 495.448M811.166 503.89L814.544 474.545M909.585 512.743L924.795 499.054L933.171 487.005L934.824 471.595M909.585 512.743L908.987 511.104M934.824 471.595L945.294 470.201L964.14 465.939M934.824 471.595L894.293 470.836M964.14 465.939V429.749M964.14 465.939L907.712 457.801M753.635 582.745V607.336V617.008L756.281 629.959L758.485 645.37V659.714V678.075V690.699L746.692 716.273M777.111 357.739L724.429 356.059M777.111 357.739L754.234 381.018M777.111 357.739L913.443 375.28M724.429 356.059V411.347M724.429 411.347L754.234 381.018M724.429 411.347L651.819 368.928M724.429 411.347L607.99 423.519M754.234 381.018L817.007 406.347M817.007 406.347V429.749M817.007 406.347L868.421 383.425M817.007 453.151L853.763 470.078M817.007 453.151V429.749M817.007 453.151L814.544 474.545M853.763 470.078L890.519 487.005L850.842 495.448M853.763 470.078L894.293 470.836M894.293 470.836L908.987 511.104M894.293 470.836L855.65 450.293M850.842 495.448L908.987 511.104M817.007 429.749L855.65 450.293M855.65 450.293L907.712 457.801M964.14 429.749L913.443 375.28M913.443 375.28L907.712 457.801M907.712 457.801L891.356 426.839M868.421 383.425L891.356 426.839M938.461 357.739L990.812 334.624M938.461 357.739L983.317 362.329M651.819 368.928L647.501 371.428L635.268 381.018L627.884 390.609L617.965 401.101L613.776 411.347L609.258 417.823L607.99 423.519M607.99 423.519L606.723 429.216V441.43L603.196 455.529L600 466.266V470.078M629.537 392.904L700.734 512.743M700.734 512.743L650.367 491.411M700.734 512.743L692.925 516.104M600 470.078L650.367 491.411M650.367 491.411L736.553 430.742M784.715 396.838L760.634 413.79M736.553 430.742L743.937 465.939M736.553 430.742L760.634 413.79M743.937 465.939L784.116 470.836M743.937 465.939L733.246 503.89M814.544 474.545L799.33 472.691M760.634 413.79L784.116 470.836M784.116 470.836L799.33 472.691M733.246 503.89L764.767 502.825M733.246 503.89H718.478M764.767 502.825L799.33 472.691M764.767 502.825L718.478 503.89M718.478 503.89C704.283 510.973 695.528 514.984 692.925 516.104" stroke="url(#paint21_linear_142_971)" stroke-width="10" stroke-linecap="round" stroke-linejoin="round"/>
<ellipse cx="857.517" cy="364.864" rx="9.06754" ry="7.92686" fill="url(#paint22_diamond_142_971)"/>
<ellipse cx="723.318" cy="406.878" rx="9.06754" ry="7.92686" fill="url(#paint23_diamond_142_971)"/>
<ellipse cx="893.788" cy="471.085" rx="9.06754" ry="7.92686" fill="url(#paint24_diamond_142_971)"/>
<ellipse cx="675.261" cy="475.048" rx="9.06754" ry="7.92686" fill="url(#paint25_diamond_142_971)"/>
<ellipse cx="963.609" cy="426.694" rx="9.06754" ry="7.92686" fill="url(#paint26_diamond_142_971)"/>
<path d="M1484 850C1484 1176.08 1200.48 1441 850 1441C499.518 1441 216 1176.08 216 850C216 523.922 499.518 259 850 259C1200.48 259 1484 523.922 1484 850Z" stroke="url(#paint27_linear_142_971)" stroke-width="10"/>
<path d="M639.248 866.895L637.298 859.861L636.38 854.25L636.037 852.156M639.248 866.895L636.037 862.373L630.532 859.861L623.88 857.097M639.248 866.895L638.566 867.984M636.037 852.156V844.955V840.935M636.037 852.156L633.743 850.398M636.037 840.935L629.385 836.58L623.88 831.975L618.261 827.62L615.853 820.921L614.247 813.719L615.853 806.517L618.261 799.65L623.88 795.128L629.385 791.276L636.151 787.256L644.065 786H657.712H662.987L671.703 788.094L681.336 791.276L689.708 795.128L693.837 798.059L700.947 802.665L706.223 807.94L711.269 813.719L715.397 818.66L719.067 824.605L722.622 831.975L724.801 836.58L727.21 843.698L728.815 854.25V870.412L727.21 878.703L724.801 885.653L720.902 892.018L716.429 898.298L710.122 904.663L705.993 908.515L699.8 913.958L692.346 917.978L685.58 920.909L675.488 923.254H661.382L652.436 919.904L646.014 917.057L641.197 912.367L636.037 907.259L632.252 902.486L629.385 897.294L627.894 892.855V884.23L632.252 877.865M636.037 840.935L619.981 842.694M638.566 867.984L633.743 875.688L632.252 877.865M638.566 867.984L632.252 863.88M632.252 863.88L626.059 862.373H623.88L626.059 866.895L630.532 870.412L633.743 872.338L632.252 877.865M632.252 863.88L629.041 866.895M632.252 877.865L627.894 873.762L622.709 869.407M615.853 863.88L621.013 867.984L622.709 869.407M622.709 869.407L620.555 871.836L617.229 874.683L615.279 878.87L613.903 881.718L612.412 886.323V895.116V901.062L613.903 905.919L615.853 911.948L617.573 917.057L620.325 924.342L623.192 929.367L626.174 936.82L629.5 944.692L630.761 950.637L632.596 956.332L635.119 964.957L635.922 971.741L637.872 982.208" stroke="url(#paint28_linear_142_971)" stroke-width="10" stroke-linecap="round"/>
<path d="M353.757 857.412L357.513 854.583L364.437 849.735L367.489 845.189L369.836 840.643L371.127 835.29V828.724L369.836 818.42L367.489 812.158L363.498 807.814L359.626 802.662L355.166 800.44L350.354 797.915L343.547 795.894L335.214 794.783H325.591L317.845 795.894L311.507 797.915L303.057 801.753L297.424 804.885L292.612 807.814L287.918 811.248L281.815 817.107L277.472 822.259L273.247 826.299L268.083 833.976L264.563 841.35L260.807 849.735L258.577 857.412L255.643 864.382L254 873.877V885.19V894.282L255.643 904.686L258.812 914.787L263.624 925.697L267.262 932.869L272.778 938.526L280.524 946.91L288.387 952.364L298.363 957.011L307.047 959.839L315.615 961.052H323.243L327.821 959.839L333.454 957.011L339.791 953.072L345.073 947.819L349.415 942.97L352.584 937.01L356.222 929.232L357.278 921.353L356.222 911.959L354.462 905.999L353.523 903.676L349.415 897.918M349.415 897.918L347.889 894.585V888.524L350.706 880.645L349.415 871.958L350.706 870.038V866.705L349.415 861.755L350.354 859.533L353.523 857.412M349.415 897.918L356.222 894.585L363.498 914.787V938.526L364.437 964.837L359.626 999.566L357.513 1018.33M349.415 892.261L353.523 890.14L356.222 892.261" stroke="url(#paint29_linear_142_971)" stroke-width="10" stroke-linecap="round"/>
<path d="M325.701 829.47L328.17 801.969L351.306 825.973L338.503 827.721M325.701 829.47L297.262 810.474L295.067 839.582M325.701 829.47L338.503 827.721M295.067 839.582L268.731 853.002L271.885 871.979M295.067 839.582L315.505 866.421M295.067 839.582L324.421 830.887L319.963 848.654M295.067 839.582L283.476 855.781M335.943 893.261L315.505 866.421M335.943 893.261L325.701 916.415M335.943 893.261L293.249 884.751M315.505 866.421L319.963 848.654M315.505 866.421L293.249 884.751M319.963 848.654L339.052 858.766L338.503 827.721M325.701 916.415L335.943 937.489L313.539 924.306M325.701 916.415L304.669 895.245L303.023 913.721M325.701 916.415L313.539 924.306M301.377 932.197L313.539 924.306M301.377 932.197L303.023 913.721M301.377 932.197L290.403 947.223L284.368 912.256M313.539 924.306V955.256M303.023 913.721L284.368 910.201M303.023 913.721L293.249 884.751M265.713 906.681L284.368 910.201M284.368 910.201L275.04 890.957M265.713 871.714L275.04 890.957M275.04 890.957L271.885 871.979M271.885 871.979L283.476 855.781M283.476 855.781L293.249 884.751" stroke="url(#paint30_linear_142_971)" stroke-width="5" stroke-linecap="round"/>
<path d="M665.439 889.345L662.548 911.344L635.457 892.142L650.448 890.743M665.439 889.345L698.739 904.54L701.309 881.256M665.439 889.345L650.448 890.743M701.309 881.256L713.194 887.304L722.51 865.91M701.309 881.256L677.377 859.786M701.309 881.256L666.938 888.211L672.158 873.999M701.309 881.256L714.881 868.298M637.492 839.072L677.377 859.786M637.492 839.072L665.439 819.795M637.492 839.072L703.437 845.124M677.377 859.786L672.158 873.999M677.377 859.786L703.437 845.124M672.158 873.999L649.806 865.91L650.448 890.743M665.439 819.795L622.501 804.675L679.68 813.483M665.439 819.795L690.066 836.729L691.993 821.95M665.439 819.795L679.68 813.483M693.921 807.17L679.68 813.483M693.921 807.17L691.993 821.95M693.921 807.17L700.345 813.483L711.909 825.767M679.68 813.483L652.59 793.185M691.993 821.95L711.909 825.767M691.993 821.95L703.437 845.124M711.909 825.767L703.437 845.124M703.437 845.124L722.51 865.91M703.437 845.124L714.881 868.298M722.51 865.91L714.881 868.298" stroke="url(#paint31_linear_142_971)" stroke-width="5" stroke-linecap="round"/>
<ellipse cx="412.572" cy="876.216" rx="9.00977" ry="7.98373" fill="url(#paint32_diamond_142_971)"/>
<ellipse cx="538.709" cy="900.966" rx="9.00977" ry="7.98373" fill="url(#paint33_diamond_142_971)"/>
<path d="M365.722 842.285L383.882 856.179M415.811 876.113L391.569 860.815L383.882 856.179M415.811 876.113L385.36 900.914M415.811 876.113L481.948 879.01M354.91 925.715L383.882 856.179M354.91 925.715L385.36 900.914M354.91 925.715L403.947 931.104M385.36 900.914L423.384 921.723M469.785 944.876L452.985 936.493M423.384 921.723L452.985 936.493M423.384 921.723L481.948 879.01M452.985 936.493L403.947 931.104M403.947 931.104L385.914 956.851M366.623 984.395L385.914 956.851M385.914 956.851L434.647 989.185M481.948 879.01L511.23 889.962M481.948 879.01L479.695 936.493L511.23 889.962M540.511 900.914L590.516 860.647L633.763 891.784M540.511 900.914L511.23 889.962M540.511 900.914L633.763 891.784M633.763 891.784L667.549 824.721" stroke="url(#paint34_linear_142_971)" stroke-width="3"/>
<ellipse cx="305.39" cy="842.17" rx="12.6476" ry="9.86564" fill="url(#paint35_diamond_142_971)"/>
<ellipse cx="702.72" cy="874.106" rx="12.6476" ry="9.86564" fill="url(#paint36_diamond_142_971)"/>
<ellipse cx="299.083" cy="901.25" rx="12.6476" ry="9.86564" fill="url(#paint37_diamond_142_971)"/>
<path d="M481.104 933.091L450.441 962.676L440.07 972.671L435.535 985.465L435.11 986.664L423.837 989.063H393.625L376.039 985.465L366.119 981.867L361.61 967.074V947.484L359.355 935.89L354.846 923.496L347.631 912.301L340.868 896.309L338.162 877.918V862.726L347.631 849.533L365.668 836.739L397.684 834.74L410.535 838.538L423.386 842.336L440.07 849.533L450.441 862.726L460.812 870.322L478.799 873.157L481.104 873.521H504.101L539.273 870.322L570.386 862.726L592.03 855.929L618.184 840.337L642.984 829.942L659.668 822.746L669.589 821.147L676.803 819.947H678.156L684.92 824.345L690.331 833.94V843.136L686.723 855.929L676.803 865.924L659.668 877.119L637.122 887.114L618.184 892.711L580.757 909.103L546.938 919.098L513.57 926.694L496.886 933.091H481.104ZM481.104 933.091L478.799 935.315" stroke="url(#paint38_linear_142_971)" stroke-width="10"/>
<circle cx="850" cy="850" r="849.5" stroke="white" stroke-opacity="0.36"/>
<defs>
<linearGradient id="paint0_linear_142_971" x1="491.546" y1="1158" x2="491.546" y2="1252.3" gradientUnits="userSpaceOnUse">
<stop stop-color="#057189"/>
<stop offset="0.494792" stop-color="#15CEF9"/>
<stop offset="1" stop-color="#0797B7"/>
</linearGradient>
<linearGradient id="paint1_linear_142_971" x1="585.855" y1="1158" x2="585.855" y2="1252.3" gradientUnits="userSpaceOnUse">
<stop stop-color="#057189"/>
<stop offset="0.494792" stop-color="#15CEF9"/>
<stop offset="1" stop-color="#0797B7"/>
</linearGradient>
<linearGradient id="paint2_linear_142_971" x1="491.546" y1="1167.43" x2="491.546" y2="1244.13" gradientUnits="userSpaceOnUse">
<stop stop-color="#057189"/>
<stop offset="0.494792" stop-color="#15CEF9"/>
<stop offset="1" stop-color="#0797B7"/>
</linearGradient>
<linearGradient id="paint3_linear_142_971" x1="585.854" y1="1167.43" x2="585.854" y2="1244.13" gradientUnits="userSpaceOnUse">
<stop stop-color="#057189"/>
<stop offset="0.494792" stop-color="#15CEF9"/>
<stop offset="1" stop-color="#0797B7"/>
</linearGradient>
<linearGradient id="paint4_linear_142_971" x1="823.986" y1="1183.26" x2="823.986" y2="1198.21" gradientUnits="userSpaceOnUse">
<stop stop-color="#057189"/>
<stop offset="0.536458" stop-color="#15CEF9"/>
<stop offset="1" stop-color="#0797B7"/>
</linearGradient>
<linearGradient id="paint5_linear_142_971" x1="1085.11" y1="1188.62" x2="1085.11" y2="1203.32" gradientUnits="userSpaceOnUse">
<stop stop-color="#057189"/>
<stop offset="0.541667" stop-color="#15CEF9"/>
<stop offset="1" stop-color="#0797B7"/>
</linearGradient>
<linearGradient id="paint6_linear_142_971" x1="965.129" y1="1180.4" x2="965.129" y2="1375.59" gradientUnits="userSpaceOnUse">
<stop stop-color="#057189"/>
<stop offset="0.479167" stop-color="#15CEF9"/>
<stop offset="1" stop-color="#0797B7"/>
</linearGradient>
<linearGradient id="paint7_linear_142_971" x1="940.436" y1="1210.8" x2="940.436" y2="1382.95" gradientUnits="userSpaceOnUse">
<stop stop-color="#0091B1"/>
<stop offset="0.0001" stop-color="#057189"/>
<stop offset="0.458333" stop-color="#15CEF9"/>
<stop offset="1" stop-color="#0797B7"/>
</linearGradient>
<linearGradient id="paint8_linear_142_971" x1="968.888" y1="1206.76" x2="968.888" y2="1384.53" gradientUnits="userSpaceOnUse">
<stop stop-color="#0091B1"/>
<stop offset="0.0001" stop-color="#057189"/>
<stop offset="0.458333" stop-color="#15CEF9"/>
<stop offset="1" stop-color="#0797B7"/>
</linearGradient>
<linearGradient id="paint9_linear_142_971" x1="806.832" y1="1187.26" x2="827.085" y2="1234.37" gradientUnits="userSpaceOnUse">
<stop stop-color="#057189"/>
<stop offset="0.463542" stop-color="#15CEF9"/>
<stop offset="1" stop-color="#0797B7"/>
</linearGradient>
<linearGradient id="paint10_linear_142_971" x1="1125.43" y1="1192.16" x2="1105.18" y2="1239.26" gradientUnits="userSpaceOnUse">
<stop stop-color="#057189"/>
<stop offset="0.463542" stop-color="#15CEF9"/>
<stop offset="1" stop-color="#0797B7"/>
</linearGradient>
<linearGradient id="paint11_linear_142_971" x1="1298.08" y1="913.803" x2="1298.08" y2="1052.11" gradientUnits="userSpaceOnUse">
<stop stop-color="#057189"/>
<stop offset="0.494792" stop-color="#15CEF9"/>
<stop offset="1" stop-color="#0797B7"/>
</linearGradient>
<linearGradient id="paint12_linear_142_971" x1="1256" y1="905" x2="1256" y2="1065.94" gradientUnits="userSpaceOnUse">
<stop stop-color="#057189"/>
<stop offset="0.494792" stop-color="#15CEF9"/>
<stop offset="1" stop-color="#0797B7"/>
</linearGradient>
<linearGradient id="paint13_linear_142_971" x1="1214.41" y1="548" x2="1214.41" y2="727.804" gradientUnits="userSpaceOnUse">
<stop stop-color="#057189"/>
<stop offset="0.494792" stop-color="#15CEF9"/>
<stop offset="1" stop-color="#0797B7"/>
</linearGradient>
<linearGradient id="paint14_linear_142_971" x1="1214.41" y1="548" x2="1214.41" y2="727.804" gradientUnits="userSpaceOnUse">
<stop stop-color="#057189"/>
<stop offset="0.494792" stop-color="#15CEF9"/>
<stop offset="1" stop-color="#0797B7"/>
</linearGradient>
<linearGradient id="paint15_linear_142_971" x1="1222.57" y1="921.975" x2="1222.57" y2="1057.14" gradientUnits="userSpaceOnUse">
<stop stop-color="#057189"/>
<stop offset="0.494792" stop-color="#15CEF9"/>
<stop offset="1" stop-color="#0797B7"/>
</linearGradient>
<radialGradient id="paint16_diamond_142_971" cx="0" cy="0" r="1" gradientUnits="userSpaceOnUse" gradientTransform="translate(1225.64 991.116) rotate(90) scale(9.11591 11.6395)">
<stop stop-color="white"/>
<stop offset="0.5" stop-color="#93E5F7"/>
<stop offset="1" stop-color="#25A7C4"/>
</radialGradient>
<radialGradient id="paint17_diamond_142_971" cx="0" cy="0" r="1" gradientUnits="userSpaceOnUse" gradientTransform="translate(1303.92 948.23) rotate(90) scale(7.22986 14.9224)">
<stop stop-color="white"/>
<stop offset="0.5" stop-color="#93E5F7"/>
<stop offset="1" stop-color="#25A7C4"/>
</radialGradient>
<linearGradient id="paint18_linear_142_971" x1="1214.41" y1="563.717" x2="1214.41" y2="712.086" gradientUnits="userSpaceOnUse">
<stop stop-color="#057189"/>
<stop offset="0.494792" stop-color="#15CEF9"/>
<stop offset="1" stop-color="#0797B7"/>
</linearGradient>
<radialGradient id="paint19_diamond_142_971" cx="0" cy="0" r="1" gradientUnits="userSpaceOnUse" gradientTransform="translate(1222.67 699.391) rotate(90) scale(9.43025 8.95344)">
<stop stop-color="white"/>
<stop offset="0.5" stop-color="#93E5F7"/>
<stop offset="1" stop-color="#25A7C4"/>
</radialGradient>
<radialGradient id="paint20_diamond_142_971" cx="0" cy="0" r="1" gradientUnits="userSpaceOnUse" gradientTransform="translate(1297.97 725.323) rotate(90) scale(9.43025 8.95344)">
<stop stop-color="white"/>
<stop offset="0.5" stop-color="#93E5F7"/>
<stop offset="1" stop-color="#25A7C4"/>
</radialGradient>
<linearGradient id="paint21_linear_142_971" x1="825.328" y1="307" x2="825.328" y2="716.273" gradientUnits="userSpaceOnUse">
<stop stop-color="#057189"/>
<stop offset="0.46875" stop-color="#15CEF9"/>
<stop offset="1" stop-color="#0797B7"/>
</linearGradient>
<radialGradient id="paint22_diamond_142_971" cx="0" cy="0" r="1" gradientUnits="userSpaceOnUse" gradientTransform="translate(857.517 364.864) rotate(90) scale(7.92686 9.06754)">
<stop stop-color="white"/>
<stop offset="0.5" stop-color="#93E5F7"/>
<stop offset="1" stop-color="#25A7C4"/>
</radialGradient>
<radialGradient id="paint23_diamond_142_971" cx="0" cy="0" r="1" gradientUnits="userSpaceOnUse" gradientTransform="translate(723.318 406.878) rotate(90) scale(7.92686 9.06754)">
<stop stop-color="white"/>
<stop offset="0.5" stop-color="#93E5F7"/>
<stop offset="1" stop-color="#25A7C4"/>
</radialGradient>
<radialGradient id="paint24_diamond_142_971" cx="0" cy="0" r="1" gradientUnits="userSpaceOnUse" gradientTransform="translate(893.788 471.085) rotate(90) scale(7.92686 9.06754)">
<stop stop-color="white"/>
<stop offset="0.5" stop-color="#93E5F7"/>
<stop offset="1" stop-color="#25A7C4"/>
</radialGradient>
<radialGradient id="paint25_diamond_142_971" cx="0" cy="0" r="1" gradientUnits="userSpaceOnUse" gradientTransform="translate(675.261 475.048) rotate(90) scale(7.92686 9.06754)">
<stop stop-color="white"/>
<stop offset="0.5" stop-color="#93E5F7"/>
<stop offset="1" stop-color="#25A7C4"/>
</radialGradient>
<radialGradient id="paint26_diamond_142_971" cx="0" cy="0" r="1" gradientUnits="userSpaceOnUse" gradientTransform="translate(963.609 426.694) rotate(90) scale(7.92686 9.06754)">
<stop stop-color="white"/>
<stop offset="0.5" stop-color="#93E5F7"/>
<stop offset="1" stop-color="#25A7C4"/>
</radialGradient>
<linearGradient id="paint27_linear_142_971" x1="850" y1="254" x2="850" y2="1446" gradientUnits="userSpaceOnUse">
<stop stop-color="#057189"/>
<stop offset="0.5" stop-color="#15CEF9"/>
<stop offset="1" stop-color="#0797B7"/>
</linearGradient>
<linearGradient id="paint28_linear_142_971" x1="670.614" y1="786" x2="670.614" y2="982.208" gradientUnits="userSpaceOnUse">
<stop stop-color="#057189"/>
<stop offset="0.489583" stop-color="#15CEF9"/>
<stop offset="1" stop-color="#0797B7"/>
</linearGradient>
<linearGradient id="paint29_linear_142_971" x1="400.344" y1="759.271" x2="400.344" y2="849.735" gradientUnits="userSpaceOnUse">
<stop stop-color="#057189"/>
<stop offset="0.494792" stop-color="#15CEF9"/>
<stop offset="1" stop-color="#0797B7"/>
</linearGradient>
<linearGradient id="paint30_linear_142_971" x1="270.218" y1="796.737" x2="270.218" y2="955.256" gradientUnits="userSpaceOnUse">
<stop stop-color="#057189"/>
<stop offset="0.520833" stop-color="#15CEF9"/>
<stop offset="1" stop-color="#0797B7"/>
</linearGradient>
<linearGradient id="paint31_linear_142_971" x1="730.405" y1="915.529" x2="730.405" y2="788.724" gradientUnits="userSpaceOnUse">
<stop stop-color="#057189"/>
<stop offset="0.505208" stop-color="#15CEF9"/>
<stop offset="1" stop-color="#0797B7"/>
</linearGradient>
<radialGradient id="paint32_diamond_142_971" cx="0" cy="0" r="1" gradientUnits="userSpaceOnUse" gradientTransform="translate(412.572 876.216) rotate(90) scale(7.98373 9.00977)">
<stop stop-color="white"/>
<stop offset="0.5" stop-color="#93E5F7"/>
<stop offset="1" stop-color="#25A7C4"/>
</radialGradient>
<radialGradient id="paint33_diamond_142_971" cx="0" cy="0" r="1" gradientUnits="userSpaceOnUse" gradientTransform="translate(538.709 900.966) rotate(90) scale(7.98373 9.00977)">
<stop stop-color="white"/>
<stop offset="0.5" stop-color="#93E5F7"/>
<stop offset="1" stop-color="#25A7C4"/>
</radialGradient>
<linearGradient id="paint34_linear_142_971" x1="511.23" y1="824.721" x2="511.23" y2="989.185" gradientUnits="userSpaceOnUse">
<stop stop-color="#057189"/>
<stop offset="0.489583" stop-color="#15CEF9"/>
<stop offset="1" stop-color="#0797B7"/>
</linearGradient>
<radialGradient id="paint35_diamond_142_971" cx="0" cy="0" r="1" gradientUnits="userSpaceOnUse" gradientTransform="translate(305.39 842.17) rotate(90) scale(9.86564 12.6476)">
<stop stop-color="white"/>
<stop offset="0.5" stop-color="#93E5F7"/>
<stop offset="1" stop-color="#25A7C4"/>
</radialGradient>
<radialGradient id="paint36_diamond_142_971" cx="0" cy="0" r="1" gradientUnits="userSpaceOnUse" gradientTransform="translate(702.72 874.106) rotate(90) scale(9.86564 12.6476)">
<stop stop-color="white"/>
<stop offset="0.5" stop-color="#93E5F7"/>
<stop offset="1" stop-color="#25A7C4"/>
</radialGradient>
<radialGradient id="paint37_diamond_142_971" cx="0" cy="0" r="1" gradientUnits="userSpaceOnUse" gradientTransform="translate(299.083 901.25) rotate(90) scale(9.86564 12.6476)">
<stop stop-color="white"/>
<stop offset="0.5" stop-color="#93E5F7"/>
<stop offset="1" stop-color="#25A7C4"/>
</radialGradient>
<linearGradient id="paint38_linear_142_971" x1="514.246" y1="819.947" x2="514.246" y2="989.063" gradientUnits="userSpaceOnUse">
<stop stop-color="#057189"/>
<stop offset="0.489583" stop-color="#15CEF9"/>
<stop offset="1" stop-color="#0797B7"/>
</linearGradient>
</defs>
</svg>
