<svg width="1700" height="1700" viewBox="0 0 1700 1700" fill="none" xmlns="http://www.w3.org/2000/svg">
<path d="M196.849 1050.45L199.665 1038.31L202.883 1016.94V992.658L201.15 984.888L197.251 967.405L187.598 946.036L178.749 941.18L163.464 936.323H147.374L133.698 946.036L120.827 967.405L116 987.802V1008.2V1035.39L120.827 1055.79L127.263 1069.39L141.743 1078.13L154.614 1082.99H169.899L183.575 1078.13L194.033 1062.59L196.849 1050.45ZM196.849 1050.45L194.033 1048.31" stroke="url(#paint0_linear_143_1018)" stroke-width="15"/>
<path d="M335.51 1050.45L338.326 1038.31L341.544 1016.94V992.658L339.811 984.888L335.912 967.405L326.259 946.036L317.41 941.18L302.125 936.323H286.035L272.359 946.036L259.488 967.405L254.661 987.802V1008.2V1035.39L259.488 1055.79L265.924 1069.39L280.404 1078.13L293.276 1082.99H308.56L322.236 1078.13L332.695 1062.59L335.51 1050.45ZM335.51 1050.45L332.695 1048.31" stroke="url(#paint1_linear_143_1018)" stroke-width="15"/>
<path d="M196.739 1004.01L174.606 979.326M174.606 979.326L149.194 950.989L122.143 1022.94L148.375 1001.13M174.606 979.326L148.375 1001.13M148.375 1001.13L168.048 1032.39M187.722 1063.65L168.048 1032.39M168.048 1032.39L143.456 1070.28" stroke="url(#paint2_linear_143_1018)" stroke-width="3"/>
<path d="M335.399 1004.01L313.266 979.326M313.266 979.326L287.854 950.989L260.803 1022.94L287.034 1001.13M313.266 979.326L287.034 1001.13M287.034 1001.13L306.708 1032.39M326.382 1063.65L306.708 1032.39M306.708 1032.39L282.116 1070.28" stroke="url(#paint3_linear_143_1018)" stroke-width="3"/>
<path d="M740.622 1320.58L730.748 1309.41L723.771 1300.43L712.441 1291.51L704.428 1286.18L694.964 1282.7L684.601 1280.85H674.101H664.429L654.758 1279.21L647.573 1278.23L642.116 1275.24L639.145 1270.78L635.553 1263.11L630.717 1252.33L627.954 1244.06L626.296 1236.28L627.954 1227.95L630.717 1223.17L639.145 1221.64H649.853L661.873 1225.13L668.229 1228.77L679.558 1234.76L686.95 1241.07L692.2 1245.86L698.97 1251.35L706.293 1256.63L714.307 1263.11L720.179 1268.93L727.363 1275.24L735.791 1279.21L741.249 1282.7L752.647 1285.36L762.319 1286.18H773.925L783.182 1287.32H786.359L789.328 1290.76" stroke="url(#paint4_linear_143_1018)" stroke-width="5"/>
<path d="M1060.94 1328.89L1070.91 1316.38L1078.65 1308.65L1085.55 1302.77L1093.57 1296.9L1100.48 1293.52L1106.35 1291.62L1112.98 1289.77H1118.37H1123.69H1128.45H1133.01H1142.06H1146.83L1151.11 1288.68L1155.6 1286.4L1160.44 1283.02L1162.79 1280.3L1165.76 1274.21L1169.21 1267.3L1171.91 1261.42V1253.86L1173.5 1246.35V1238.78L1170.53 1235.41L1162.79 1233.34L1157.74 1231.22L1148.97 1233.34L1142.06 1235.41L1133.01 1237.53L1128.45 1242.16L1121.55 1246.35L1111.39 1252.22L1103.17 1258.48L1097.02 1263.98L1089.84 1269.8L1083.69 1274.21L1075.95 1280.3L1066.9 1284.93L1057.58 1288.68L1048.8 1291.62H1042.72H1034.43H1024.83L1007.85 1297.6" stroke="url(#paint5_linear_143_1018)" stroke-width="5"/>
<path d="M866.701 1571.47L861.866 1594.6V1596.07L864.56 1598.68L868.359 1601.51L873.333 1603.74L882.038 1606.79L887.15 1610H893.851H905.664L915.404 1608.8L927.701 1603.74L933.642 1597.65V1589L930.81 1582.08L925.905 1571.47V1561.68L927.701 1552.37L930.81 1543.61L933.642 1530.94L936.682 1514.99L940.067 1505.25L942.07 1494.1V1478.97L940.067 1469.07V1455.73L944.143 1446.05V1440.39L942.07 1430.43L940.067 1419.77L936.958 1408.01V1396.48V1384.78L942.07 1371.39L946.215 1361.76L951.88 1348.37L955.679 1341.9L959.064 1333.85L964.176 1319.64L967.285 1311.59L971.361 1304.52L975.713 1297.61H981.101H989.875H995.885L1002.93 1299.02L1015.71 1301.74L1024 1305.71L1035.19 1311.59L1041.96 1313.82L1047.7 1319.64L1053.5 1325.9L1059.3 1333.85L1060.82 1343.97V1353.71L1067.73 1361.76L1073.95 1369.43L1081.13 1373.51L1094.19 1376.34L1116.02 1373.51L1130.87 1367.42L1138.89 1361.76L1146.28 1353.71L1151.67 1345.82L1156.85 1331.23L1160.16 1322.75L1162.24 1309.9L1166.79 1301.74L1170.59 1295.7L1174.95 1289.01L1179.09 1281.34L1183.65 1272.03L1186.9 1264.63L1188.21 1255.54V1242.32L1186.9 1235.25L1184.89 1229.7L1180.96 1224.47L1174.32 1219.68L1168.52 1215.06H1161.13H1149.8L1141.17 1218.92L1133.5 1223L1123.27 1227.85L1113.81 1233.67L1106.62 1239.11L1098.26 1243.63L1089.35 1249.23L1081.13 1255.54L1073.95 1258.64L1065.93 1262.62L1057.44 1266.81L1047.7 1269.31L1035.19 1268.49H1024L1015.71 1266.81L1010.12 1265.34L995.885 1261.31L983.658 1254.84L977.716 1253.15L968.459 1247.54L962.864 1243.63L954.643 1240.31L945.524 1234.76L938.685 1230.73L932.951 1227.19L926.319 1223.66L921.069 1221.32L915.473 1218.27L907.736 1216.69L902.14 1215.44H897.167L890.673 1217.4L881.83 1219.58L875.06 1223.17L863.869 1227.79L855.855 1232.74L844.664 1239.6L831.193 1244.99L818.689 1251.08L807.222 1256.31L798.863 1258.26L791.885 1260.5L784.424 1262.51L774.684 1264.25H767.43L759.831 1263.54L751.472 1260.5L742.008 1256.31L734.616 1253.64L727.639 1249.23L721.56 1244.99L715.411 1241.34L708.434 1236.28L700.489 1230.35L693.236 1225.94L685.637 1220.34L678.659 1217.18L671.06 1212.39L665.396 1209.02L655.172 1204.99L646.329 1202.27H638.246L631.753 1203.74L622.634 1209.02L615.173 1216.69L610.061 1225.23L608.541 1237.8L610.061 1252.93L616.14 1268.77L623.808 1281.06L634.101 1295.37L635.276 1308.43L636.588 1321.11L643.082 1334.17L650.198 1342.23L661.803 1352.46L672.028 1361L686.742 1367.2L702.355 1370.03L719.556 1366.39L729.78 1359.04L733.373 1353.33L737.794 1346.25L740.488 1332.1V1326.34L761.973 1306.42L790.296 1293.96L825.666 1290.97L835.2 1317.14L840.036 1329.76L856.684 1369.43L864.007 1389.13V1403.28L861.037 1415.69L853.645 1436.25L855.303 1454.05V1469.07V1494.1L856.961 1508.24L859.102 1522.39L866.701 1543.61L868.359 1555.42L866.701 1571.47Z" stroke="url(#paint6_linear_143_1018)" stroke-width="15" stroke-linecap="round" stroke-linejoin="bevel"/>
<path d="M825.153 1259.9L832.605 1263.42L837.712 1264.61H843.37H850.132H852.754L856.066 1268.63L861.241 1271.99L863.863 1277.19L866.554 1281.75L869.659 1288.15L873.316 1295.03L877.111 1306.74V1313.25L878.974 1320.3L880.768 1326.15L882.286 1333.42L884.219 1341.12L888.221 1350.33L890.843 1357.65L893.051 1365.03L894.155 1372.08L896.156 1380.26L897.812 1386.77L898.985 1393V1404.61L897.812 1414.37L896.639 1421.14L895.535 1427.11L894.362 1432.96V1458.34L888.221 1459.15H881.113H874.972L879.25 1463.44H872.35V1467.07V1472.38V1480.08V1485.67L873.316 1489.3L876.145 1491.41L877.939 1494.94L879.25 1497.65L880.078 1501.01L881.113 1506L879.25 1509.09L876.145 1511.04L874.972 1514.67V1517.17L876.145 1519.5L879.25 1521.99L880.078 1524.05L882.908 1527.2L885.737 1529.26V1532.24L884.081 1533.43L882.908 1535.93L881.113 1540.32V1544.11L880.078 1547.75V1550.73L879.25 1554.63V1558.54V1561.68L880.078 1564.39L882.908 1568.02L884.081 1570.9V1574.69L885.737 1576.75V1581.2V1586.78V1590.42L882.908 1591.99V1594.7L881.113 1595.89V1597.84L880.078 1599.04L879.25 1601.21V1605.92" stroke="url(#paint7_linear_143_1018)" stroke-width="5" stroke-linecap="round" stroke-linejoin="bevel"/>
<path d="M825.113 1259.62L835.407 1255.6L844.802 1252.44L855.648 1251.08H866.839H878.514L887.08 1253.8L896.475 1255.6L904.765 1259.62L907.045 1261.42L914.229 1258.26L924.454 1255.6L932.467 1253.8H942.208H949.599H958.166L969.288 1258.26L976.403 1261.42L982.69 1264.58V1267.3L969.288 1269.31H958.166L953.33 1271.76L947.32 1274.91L942.208 1283.02L939.583 1286.4L935.921 1291.57L934.47 1301.69L932.467 1309.09L930.187 1319.92L925.904 1329.11L922.174 1338.31L919.618 1347.56L916.164 1356.75L910.223 1366.44L908.219 1376.34L905.939 1387.61L904.489 1401.97V1414.32L905.939 1426.46V1433.48L908.219 1444.25V1461.56H915.335H922.174V1465.39L926.181 1466.73V1475.05V1486.53V1491.27L922.174 1498.01L918.512 1502.04V1506.99V1510.8V1514.61L922.174 1517.55V1522.72L918.512 1526.31L913.608 1528.6L911.328 1533.27V1537.57L913.608 1540.35L915.68 1544.7L917.062 1549.27V1553.19V1557.87V1561.9L915.68 1566.14L912.226 1569.46L908.703 1574.41V1578.66L907.459 1582.08V1588.67V1591.82V1594.38L910.154 1597.92L911.121 1600.64L912.226 1601.95V1608.42" stroke="url(#paint8_linear_143_1018)" stroke-width="5" stroke-linecap="round" stroke-linejoin="bevel"/>
<path d="M717.372 1320.53C730.02 1337.79 726.874 1356.92 711.878 1363.74C696.881 1370.56 674.266 1363.14 661.618 1345.88C648.97 1328.63 652.117 1309.49 667.113 1302.67C682.109 1295.85 704.725 1303.27 717.372 1320.53Z" stroke="url(#paint9_linear_143_1018)" stroke-width="5"/>
<path d="M1138.08 1353.5C1125.44 1370.76 1102.82 1378.18 1087.83 1371.36C1072.83 1364.54 1069.68 1345.4 1082.33 1328.14C1094.98 1310.89 1117.59 1303.47 1132.59 1310.29C1147.59 1317.11 1150.73 1336.24 1138.08 1353.5Z" stroke="url(#paint10_linear_143_1018)" stroke-width="5"/>
<path d="M1432.59 915.799L1419.79 978.775L1454.78 959.67M1489.76 940.565L1454.78 959.67M1454.78 959.67L1475.25 985.497M1495.73 1011.32L1475.25 985.497M1475.25 985.497L1473.46 986.55M1473.46 986.55L1412.11 1022.65V1025.48L1438.56 1046M1473.46 986.55L1466.72 1029.01M1438.56 1046L1462.45 1062.27L1466.72 1029.01M1438.56 1046L1412.11 1070.76L1447.1 1130.91L1403.58 1120.29M1466.72 1029.01L1489.76 1057.32" stroke="url(#paint11_linear_143_1018)" stroke-width="5"/>
<path d="M1402.37 1121.93L1383.5 1143.91L1372.35 1152.42H1351.77L1327.75 1136.11L1316.6 1114.13L1306.74 1092.5L1296.88 1070.87L1285.73 1040.73L1274.58 1010.6V969.472L1285.73 930.472L1296.88 912.036L1312.32 907.072L1327.75 902.108L1340.62 907.781L1350.48 919.126L1360.34 930.472L1366.88 938.272L1383.5 958.126L1392.94 974.081M1402.37 1121.93L1407.52 1138.94L1419.52 1149.58L1446.97 1148.16L1460.69 1136.11L1474.41 1118.38L1490.71 1075.83L1497.57 1048.18L1501 1024.07V990.035L1497.57 946.072L1490.71 930.472L1484.7 921.254L1474.41 912.036L1458.98 907.781L1436.68 912.036L1422.1 921.254L1407.52 940.399L1392.94 974.081M1402.37 1121.93L1405.35 1114.13L1412.66 1094.98V1055.98V1038.25V1020.53L1402.37 990.035L1392.94 974.081M1392.94 974.081L1388.65 972.881" stroke="url(#paint12_linear_143_1018)" stroke-width="15"/>
<path d="M1118.66 548.617L1144.41 579.862H1176.11L1192.95 567.364L1211.78 547.055L1225.64 532.995L1241.49 521.278H1254.37H1289.04L1310.84 532.995L1328.67 552.523L1344.52 571.27L1371.27 579.862H1408.91L1430.7 560.334L1440.11 546.664L1449.53 532.995L1462.4 497.844L1471.32 473.63V439.26V422.466V405.672L1468.65 373.319L1459.1 339.881L1440.11 312.72L1421.61 307.999L1403.96 312.72L1387.79 320.441L1375.23 336.153L1366.31 345.526L1350.46 361.149L1333.62 379.114L1315.79 393.174L1295.98 397.08H1264.28H1230.6L1214.75 388.488L1201.87 375.209L1192.95 361.149L1185.63 345.526L1180.48 324.436L1165.78 307.999L1144.41 301H1129.02L1108.75 307.999L1095.87 324.436L1085.97 339.881L1081.97 351.546L1079.03 370.522V393.174V409.578V435.355V446.291V468.162L1085.97 479.098L1095.87 494.72L1103.8 512.686L1108.75 532.995L1118.66 548.617Z" stroke="url(#paint13_linear_143_1018)" stroke-width="15"/>
<path d="M1297.87 928.507L1346.8 949.741L1369.97 958.943L1324.91 972.745M1279.84 986.547L1324.91 972.745M1324.91 972.745L1294.43 1029.72L1345.94 1022.29M1397.44 1014.86L1345.94 1022.29M1345.94 1022.29L1369.97 1065.11M1397.44 1105.46L1369.97 1065.11M1369.97 1065.11L1354.09 1101.92M1338.21 1138.73L1354.09 1101.92M1354.09 1101.92L1338.21 1022.29" stroke="url(#paint14_linear_143_1018)" stroke-width="5"/>
<ellipse cx="1343.15" cy="1036.04" rx="17.1132" ry="14.1776" fill="url(#paint15_diamond_143_1018)"/>
<ellipse cx="1458.25" cy="969.342" rx="21.94" ry="11.2443" fill="url(#paint16_diamond_143_1018)"/>
<path d="M1120.2 308.776L1157.01 362.085L1201.69 390.93M1201.69 390.93L1236.45 527.354L1122.26 555.419L1174.89 475.708M1201.69 390.93V388.094M1088.59 366.321L1138.15 378.456M1138.15 378.456L1110.34 426.4M1138.15 378.456L1201.69 388.094M1082.54 474.343L1110.34 426.4M1110.34 426.4L1174.89 475.708M1174.89 475.708L1239.43 525.015L1289.7 447.058M1174.89 475.708L1201.69 388.094M1289.7 447.058L1318.86 401.843L1393.34 426.01M1289.7 447.058L1371.49 448.49M1371.49 448.49L1467.81 450.177L1393.34 426.01M1371.49 448.49L1350.82 489.935M1322.84 546.064L1350.82 489.935M1350.82 489.935L1449.93 538.268M1393.34 426.01L1427.59 385.473M1461.85 344.935L1427.59 385.473M1427.59 385.473L1379.43 344.935" stroke="url(#paint17_linear_143_1018)" stroke-width="10"/>
<ellipse cx="1174.53" cy="470.415" rx="13.164" ry="14.6665" fill="url(#paint18_diamond_143_1018)"/>
<ellipse cx="1400.95" cy="422.202" rx="13.164" ry="14.6665" fill="url(#paint19_diamond_143_1018)"/>
<path d="M606.389 743.256L609.009 740.962M630.401 722.235L654.262 710.896L674.499 696.373L701.229 687.455C704.4 687.455 711.528 687.455 714.67 687.455C717.811 687.455 730.678 676.074 736.718 670.384L753.028 663.122M630.401 722.235L609.009 740.962M630.401 722.235L702.588 724.847M753.028 663.122H782.779L801.052 651.784H846.056M753.028 663.122L774.775 727.458M846.056 651.784L878.676 655.86L902.688 651.784L912.504 648.599L938.781 651.784L953.732 655.86M846.056 651.784L899.894 767.38L931.32 834.855M953.732 655.86L967.173 651.784H983.03L1001.91 659.937L1021.39 663.122L1036.79 674.588L1071.07 688.092L1083.91 703.125L1094.48 708.985L1103.39 725.038L1111.85 727.458L1118.8 741.727M953.732 655.86L833.068 804.917L931.32 834.855M953.732 655.86L995.866 727.458M1118.8 741.727L1135.71 754.722L1140.09 766.442L1149.6 774.85V793.323V803.006L1143.11 812.178L1146.13 825.173L1140.09 834.855M1118.8 741.727L1057.33 734.593M1140.09 834.855L1135.71 854.602L1118.8 865.431M1140.09 834.855L1057.33 734.593M1118.8 865.431L1097.96 882.247L1078.62 891.165L1067.6 895.624H1046H1031.05M1118.8 865.431L1031.05 839.378M609.009 740.962L603.093 744.848M613.487 1013.09H602.463L591.438 1005.57L578.3 987.861L572.561 983.784L561.084 971.808L553.986 952.953L544.773 942.507L532.088 920.594V902.058M613.487 1013.09L615.148 1024.17L618.622 1032.96L624.662 1041.75L631.156 1049.01L642.181 1055L655.47 1062.52L670.119 1067.1H689.147L700.776 1065.32L709.988 1067.1L719.2 1065.32L729.318 1071.05L739.739 1074.36L742.608 1077.17L749.253 1074.36C751.015 1075.17 756.441 1075.64 764.053 1071.05L776.048 1058.79L782.628 1046.85L785.195 1026.46L793.954 1016.53V1001.62L792.595 997.67L796.824 984.548L798.787 973.592L802.865 957.412L801.203 951.297M613.487 1013.09L618.622 998.944L637.499 984.293L659.42 973.592M801.203 951.297L821.44 954.61M801.203 951.297L757.861 952.953M821.44 954.61H836.844L859.346 965.821L875.958 972.191L882.754 973.592L899.064 979.835H914.467L934.402 975.758L956.3 968.369M821.44 954.61L826.069 909.001M956.3 968.369L977.14 947.093L988.618 928.366L990.883 904.415L1005.23 902.249L1031.05 895.624M956.3 968.369L955.48 965.821L879.809 902.058L829.444 875.75M1031.05 895.624V839.378M1031.05 895.624L953.732 882.976M774.775 727.458L702.588 724.847M774.775 727.458L743.428 763.639M774.775 727.458L886.586 738.806L961.585 754.722M702.588 724.847V810.777M702.588 810.777L743.428 763.639M702.588 810.777L603.093 744.848M702.588 810.777L543.037 829.695M743.428 763.639L829.444 803.006V839.378V875.75M829.444 875.75L953.732 882.976M829.444 875.75L826.069 909.001M1031.05 839.378L961.585 754.722M961.585 754.722L953.732 882.976M953.732 882.976L931.32 834.855M995.866 727.458L1067.6 691.532M995.866 727.458L1057.33 734.593M603.093 744.848L597.177 748.734L580.414 763.639L570.296 778.545L556.704 794.852L550.965 810.777L544.773 820.841L543.037 829.695M543.037 829.695L541.3 838.55V857.532L536.467 879.445L532.088 896.134V902.058M572.561 782.112L670.119 968.369M670.119 968.369L601.103 935.213M670.119 968.369L659.42 973.592M532.088 902.058L601.103 935.213M601.103 935.213L719.2 840.92M785.195 788.227L752.198 814.574L719.2 840.92M719.2 840.92L729.318 895.624M729.318 895.624L784.374 903.236L826.069 909.001M729.318 895.624L714.67 954.61M826.069 909.001L785.195 935.213L757.861 952.953M714.67 954.61L757.861 952.953M714.67 954.61H694.433M757.861 952.953L694.433 954.61M694.433 954.61C674.982 965.617 662.986 971.851 659.42 973.592" stroke="url(#paint20_radial_143_1018)" stroke-width="15" stroke-linecap="round" stroke-linejoin="round"/>
<ellipse cx="885.052" cy="740.246" rx="13.3318" ry="12.3283" fill="url(#paint21_diamond_143_1018)"/>
<ellipse cx="698.329" cy="810.232" rx="13.3318" ry="12.3283" fill="url(#paint22_diamond_143_1018)"/>
<ellipse cx="952.687" cy="875.551" rx="13.3318" ry="12.3283" fill="url(#paint23_diamond_143_1018)"/>
<ellipse cx="640.987" cy="908.213" rx="13.3318" ry="12.3283" fill="url(#paint24_diamond_143_1018)"/>
<ellipse cx="1033.55" cy="835.116" rx="13.3318" ry="12.3283" fill="url(#paint25_diamond_143_1018)"/>
<path d="M221.452 378.429L248.153 400.038M295.096 431.04L259.454 407.248L248.153 400.038M295.096 431.04L250.326 469.612M295.096 431.04L392.336 435.546M205.556 508.184L248.153 400.038M205.556 508.184L250.326 469.612M205.556 508.184L277.654 516.565M250.326 469.612L306.232 501.976M374.453 537.984L349.752 524.947M306.232 501.976L349.752 524.947M306.232 501.976L392.336 435.546M349.752 524.947L277.654 516.565M277.654 516.565L251.14 556.609M222.777 599.447L251.14 556.609M251.14 556.609L322.79 606.897M392.336 435.546L435.388 452.579M392.336 435.546L389.024 524.947L435.388 452.579M504.154 486.076L551.961 406.988L615.545 455.413L665.221 351.112M504.154 486.076L435.388 452.579M504.154 486.076L488.716 426.199" stroke="url(#paint26_linear_143_1018)" stroke-width="10"/>
<path d="M391.096 519.656L346.013 565.669L330.765 581.214L324.097 601.111L323.472 602.976L306.898 606.707H262.478L236.622 601.111L222.037 595.515L215.407 572.509V542.041L212.092 524.009L205.462 504.733L194.855 487.323L184.91 462.451L180.932 433.849V410.22L194.855 389.701L221.374 369.804L268.445 366.695L287.34 372.602L306.235 378.509L330.765 389.701L346.013 410.22L361.262 422.034L387.707 426.444L391.096 427.009H424.908L476.62 422.034L522.365 410.22L554.188 399.65L592.641 375.4L629.104 359.233L653.635 348.041L668.22 345.554L678.828 343.688H680.817L690.761 350.528L698.717 365.451V379.753L693.413 399.65L678.828 415.195L653.635 432.605L620.486 448.15L592.641 456.855L537.614 482.348L487.89 497.893L438.83 509.707L414.3 519.656H391.096ZM391.096 519.656L387.707 523.115" stroke="url(#paint27_linear_143_1018)" stroke-width="15"/>
<circle cx="850" cy="850" r="849.5" stroke="white" stroke-opacity="0.36"/>
<defs>
<linearGradient id="paint0_linear_143_1018" x1="159.441" y1="936.323" x2="159.441" y2="1082.99" gradientUnits="userSpaceOnUse">
<stop stop-color="#057189"/>
<stop offset="0.536458" stop-color="#15CEF9"/>
<stop offset="1" stop-color="#07849F"/>
</linearGradient>
<linearGradient id="paint1_linear_143_1018" x1="298.102" y1="936.323" x2="298.102" y2="1082.99" gradientUnits="userSpaceOnUse">
<stop stop-color="#057189"/>
<stop offset="0.536458" stop-color="#15CEF9"/>
<stop offset="1" stop-color="#07849F"/>
</linearGradient>
<linearGradient id="paint2_linear_143_1018" x1="159.441" y1="950.989" x2="159.441" y2="1070.28" gradientUnits="userSpaceOnUse">
<stop stop-color="#057189"/>
<stop offset="0.536458" stop-color="#15CEF9"/>
<stop offset="1" stop-color="#07849F"/>
</linearGradient>
<linearGradient id="paint3_linear_143_1018" x1="298.101" y1="950.989" x2="298.101" y2="1070.28" gradientUnits="userSpaceOnUse">
<stop stop-color="#057189"/>
<stop offset="0.536458" stop-color="#15CEF9"/>
<stop offset="1" stop-color="#07849F"/>
</linearGradient>
<linearGradient id="paint4_linear_143_1018" x1="690.856" y1="1294.43" x2="690.856" y2="1317.68" gradientUnits="userSpaceOnUse">
<stop stop-color="#057189"/>
<stop offset="0.494792" stop-color="#15CEF9"/>
<stop offset="1" stop-color="#07949F"/>
</linearGradient>
<linearGradient id="paint5_linear_143_1018" x1="1074.78" y1="1302.77" x2="1074.78" y2="1325.63" gradientUnits="userSpaceOnUse">
<stop stop-color="#057189"/>
<stop offset="0.484375" stop-color="#15CEF9"/>
<stop offset="1" stop-color="#07949F"/>
</linearGradient>
<linearGradient id="paint6_linear_143_1018" x1="898.376" y1="1289.99" x2="898.376" y2="1593.56" gradientUnits="userSpaceOnUse">
<stop stop-color="#057189"/>
<stop offset="0.520833" stop-color="#15CEF9"/>
<stop offset="1" stop-color="#07849F"/>
</linearGradient>
<linearGradient id="paint7_linear_143_1018" x1="862.069" y1="1337.27" x2="862.069" y2="1605" gradientUnits="userSpaceOnUse">
<stop stop-color="#057189"/>
<stop offset="0.520833" stop-color="#15CEF9"/>
<stop offset="1" stop-color="#07949F"/>
</linearGradient>
<linearGradient id="paint8_linear_143_1018" x1="903.902" y1="1330.98" x2="903.902" y2="1607.47" gradientUnits="userSpaceOnUse">
<stop stop-color="#057189"/>
<stop offset="0.520833" stop-color="#15CEF9"/>
<stop offset="1" stop-color="#07949F"/>
</linearGradient>
<linearGradient id="paint9_linear_143_1018" x1="665.635" y1="1300.65" x2="698.347" y2="1372.59" gradientUnits="userSpaceOnUse">
<stop stop-color="#057189"/>
<stop offset="0.53125" stop-color="#15CEF9"/>
<stop offset="1" stop-color="#07949F"/>
</linearGradient>
<linearGradient id="paint10_linear_143_1018" x1="1134.07" y1="1308.27" x2="1101.36" y2="1380.2" gradientUnits="userSpaceOnUse">
<stop stop-color="#057189"/>
<stop offset="0.53125" stop-color="#15CEF9"/>
<stop offset="1" stop-color="#07949F"/>
</linearGradient>
<linearGradient id="paint11_linear_143_1018" x1="1449.66" y1="915.799" x2="1449.66" y2="1130.91" gradientUnits="userSpaceOnUse">
<stop stop-color="#057189"/>
<stop offset="0.541667" stop-color="#15CEF9"/>
<stop offset="1" stop-color="#07949F"/>
</linearGradient>
<linearGradient id="paint12_linear_143_1018" x1="1387.79" y1="902.108" x2="1387.79" y2="1152.42" gradientUnits="userSpaceOnUse">
<stop stop-color="#057189"/>
<stop offset="0.541667" stop-color="#15CEF9"/>
<stop offset="1" stop-color="#07949F"/>
</linearGradient>
<linearGradient id="paint13_linear_143_1018" x1="1275.18" y1="301" x2="1275.18" y2="579.862" gradientUnits="userSpaceOnUse">
<stop stop-color="#057189"/>
<stop offset="0.541667" stop-color="#15CEF9"/>
<stop offset="1" stop-color="#07949F"/>
</linearGradient>
<linearGradient id="paint14_linear_143_1018" x1="1338.64" y1="928.507" x2="1338.64" y2="1138.73" gradientUnits="userSpaceOnUse">
<stop stop-color="#057189"/>
<stop offset="0.541667" stop-color="#15CEF9"/>
<stop offset="1" stop-color="#07949F"/>
</linearGradient>
<radialGradient id="paint15_diamond_143_1018" cx="0" cy="0" r="1" gradientUnits="userSpaceOnUse" gradientTransform="translate(1343.15 1036.04) rotate(90) scale(14.1776 17.1132)">
<stop stop-color="white"/>
<stop offset="0.5" stop-color="#93E5F7"/>
<stop offset="1" stop-color="#25A7C4"/>
</radialGradient>
<radialGradient id="paint16_diamond_143_1018" cx="0" cy="0" r="1" gradientUnits="userSpaceOnUse" gradientTransform="translate(1458.25 969.342) rotate(90) scale(11.2443 21.94)">
<stop stop-color="white"/>
<stop offset="0.5" stop-color="#93E5F7"/>
<stop offset="1" stop-color="#25A7C4"/>
</radialGradient>
<linearGradient id="paint17_linear_143_1018" x1="1275.17" y1="308.776" x2="1275.17" y2="555.419" gradientUnits="userSpaceOnUse">
<stop stop-color="#057189"/>
<stop offset="0.541667" stop-color="#15CEF9"/>
<stop offset="1" stop-color="#07949F"/>
</linearGradient>
<radialGradient id="paint18_diamond_143_1018" cx="0" cy="0" r="1" gradientUnits="userSpaceOnUse" gradientTransform="translate(1174.53 470.415) rotate(90) scale(14.6665 13.164)">
<stop stop-color="white"/>
<stop offset="0.5" stop-color="#93E5F7"/>
<stop offset="1" stop-color="#25A7C4"/>
</radialGradient>
<radialGradient id="paint19_diamond_143_1018" cx="0" cy="0" r="1" gradientUnits="userSpaceOnUse" gradientTransform="translate(1400.95 422.202) rotate(90) scale(14.6665 13.164)">
<stop stop-color="white"/>
<stop offset="0.5" stop-color="#93E5F7"/>
<stop offset="1" stop-color="#25A7C4"/>
</radialGradient>
<radialGradient id="paint20_radial_143_1018" cx="0" cy="0" r="1" gradientUnits="userSpaceOnUse" gradientTransform="translate(807.029 910.271) rotate(90) scale(389.203 459.461)">
<stop stop-color="#057189"/>
<stop offset="0.53125" stop-color="#15CEF9"/>
<stop offset="1" stop-color="#07849F"/>
</radialGradient>
<radialGradient id="paint21_diamond_143_1018" cx="0" cy="0" r="1" gradientUnits="userSpaceOnUse" gradientTransform="translate(885.052 740.246) rotate(90) scale(12.3283 13.3318)">
<stop stop-color="white"/>
<stop offset="0.5" stop-color="#93E5F7"/>
<stop offset="1" stop-color="#25A7C4"/>
</radialGradient>
<radialGradient id="paint22_diamond_143_1018" cx="0" cy="0" r="1" gradientUnits="userSpaceOnUse" gradientTransform="translate(698.329 810.232) rotate(90) scale(12.3283 13.3318)">
<stop stop-color="white"/>
<stop offset="0.5" stop-color="#93E5F7"/>
<stop offset="1" stop-color="#25A7C4"/>
</radialGradient>
<radialGradient id="paint23_diamond_143_1018" cx="0" cy="0" r="1" gradientUnits="userSpaceOnUse" gradientTransform="translate(952.687 875.551) rotate(90) scale(12.3283 13.3318)">
<stop stop-color="white"/>
<stop offset="0.5" stop-color="#93E5F7"/>
<stop offset="1" stop-color="#25A7C4"/>
</radialGradient>
<radialGradient id="paint24_diamond_143_1018" cx="0" cy="0" r="1" gradientUnits="userSpaceOnUse" gradientTransform="translate(640.987 908.213) rotate(90) scale(12.3283 13.3318)">
<stop stop-color="white"/>
<stop offset="0.5" stop-color="#93E5F7"/>
<stop offset="1" stop-color="#25A7C4"/>
</radialGradient>
<radialGradient id="paint25_diamond_143_1018" cx="0" cy="0" r="1" gradientUnits="userSpaceOnUse" gradientTransform="translate(1033.55 835.116) rotate(90) scale(12.3283 13.3318)">
<stop stop-color="white"/>
<stop offset="0.5" stop-color="#93E5F7"/>
<stop offset="1" stop-color="#25A7C4"/>
</radialGradient>
<linearGradient id="paint26_linear_143_1018" x1="435.388" y1="351.112" x2="435.388" y2="606.897" gradientUnits="userSpaceOnUse">
<stop offset="0.0625" stop-color="#057189"/>
<stop offset="0.541667" stop-color="#15CEF9"/>
<stop offset="1" stop-color="#07949F"/>
<stop offset="1" stop-color="#07949F"/>
</linearGradient>
<linearGradient id="paint27_linear_143_1018" x1="439.825" y1="343.688" x2="439.825" y2="606.707" gradientUnits="userSpaceOnUse">
<stop stop-color="#057189"/>
<stop offset="0.567708" stop-color="#15CEF9"/>
<stop offset="1" stop-color="#07949F"/>
</linearGradient>
</defs>
</svg>
