<svg width="1700" height="1700" viewBox="0 0 1700 1700" fill="none" xmlns="http://www.w3.org/2000/svg">
<path d="M698.787 729.525L711.496 707.753L690.498 692.114L706.247 655.622L690.498 625.877" stroke="url(#paint0_linear_140_916)" stroke-width="10" stroke-linecap="round" stroke-linejoin="bevel"/>
<path d="M916.225 790.243L937.223 738.725L927 697.327L957.115 653.476V596.745L992.757 555.96V516.402" stroke="url(#paint1_linear_140_916)" stroke-width="10" stroke-linecap="round" stroke-linejoin="bevel"/>
<path d="M1091.12 723.086L1106.04 689.048L1083.38 658.383L1106.04 622.505L1099.13 579.88L1128.14 537.562V499.844" stroke="url(#paint2_linear_140_916)" stroke-width="10" stroke-linecap="round" stroke-linejoin="bevel"/>
<path d="M1219.31 907.691L1236.17 897.878L1247.22 878.866L1257.72 846.974H1267.94H1280.37L1294.74 850.96L1309.11 846.974L1319.33 839.001L1322.09 832.561L1331.21 820.602L1342.82 814.469" stroke="url(#paint3_linear_140_916)" stroke-width="20" stroke-linecap="round" stroke-linejoin="bevel"/>
<path d="M948.553 884.69L972.037 874.878L987.51 863.225L998.837 857.705H1015.14L1040.28 869.358L1069.57 884.69L1101.06 891.13H1122.34L1140.02 874.878H1157.15L1167.65 884.69L1187.27 891.13L1209.65 908.916" stroke="url(#paint4_linear_140_916)" stroke-width="20" stroke-linecap="round" stroke-linejoin="bevel"/>
<path d="M357.018 845.748H382.16L407.579 856.481L418.63 870.587L433.826 881.013H451.232L466.981 875.8L488.255 870.587L505.109 881.013L510.634 889.906" stroke="url(#paint5_linear_140_916)" stroke-width="20" stroke-linecap="round" stroke-linejoin="bevel"/>
<path d="M563.682 899.412L586.614 888.065H604.849L622.255 899.412L642.7 909.224L665.08 915.357H688.841L708.457 909.224L723.653 899.412L744.099 881.932H755.979L775.043 888.065L794.936 893.279H816.21L830.577 881.932L847.154 867.826L859.864 860.773H870.915L897.715 873.959" stroke="url(#paint6_linear_140_916)" stroke-width="20" stroke-linecap="round" stroke-linejoin="bevel"/>
<path d="M923.409 975.154L950.761 937.435H927.691M917.883 858.013L932.803 875.798L904.621 937.435H927.691M917.883 858.013L927.691 937.435M917.883 858.013L927.691 818.148L912.081 782.576" stroke="url(#paint7_linear_140_916)" stroke-width="10" stroke-linecap="round" stroke-linejoin="bevel"/>
<path d="M1139.19 319.84L1147.07 348.358M1147.07 348.358L1154.94 376.877V440.354L1147.48 488.192L1134.22 526.83L1123.72 557.188L1108.52 584.787L1101.34 640.598V676.783L1118.19 721.554H1090.29L1083.93 685.369V648.264L1093.88 588.774L1108.52 539.403L1127.86 496.165L1139.19 455.993L1143.89 411.835L1147.07 348.358Z" stroke="url(#paint8_linear_140_916)" stroke-width="20" stroke-linecap="round" stroke-linejoin="bevel"/>
<path d="M912.08 854.64L904.068 893.891L898.266 926.09L904.068 956.755L917.606 973.927L934.736 979.141L949.932 973.927L957.392 956.755V933.449L949.932 908.304L940.262 884.998L934.736 854.64L930.592 823.975V790.856L934.736 750.378L940.262 722.779L949.932 683.221L959.602 646.423L972.588 614.531L983.087 588.159L1001.05 542.468L1015.41 501.07L1025.08 467.338L1032.54 427.474L1037.24 388.222L1032.54 341.611M1032.54 341.611L1019.56 295M1032.54 341.611L1025.08 367.37V382.702V413.368L1019.56 439.126L1015.41 467.338L1004.08 490.337L987.231 534.189L972.588 567.614L953.247 611.465L934.736 657.156L924.237 700.087L912.08 750.378L909.594 794.536V854.64M739.952 329.958L749.622 405.395L739.952 467.338L727.795 516.403L711.218 556.267L699.061 588.159L694.641 614.531L688.01 637.837V668.195V705.914L694.641 722.779V730.752H718.402L711.218 705.914L704.035 668.195V637.837V608.398L718.402 576.2L727.795 547.375L735.808 516.403L745.202 494.63L750.175 471.325L760.95 405.395L739.952 329.958Z" stroke="url(#paint9_linear_140_916)" stroke-width="20" stroke-linecap="round" stroke-linejoin="bevel"/>
<path d="M535.498 975.768L563.956 952.769M563.956 952.769L518.645 938.663L535.498 918.424M563.956 952.769L535.498 918.424M535.498 918.424L534.413 909.838M552.352 886.839L534.413 909.838M534.413 909.838L531.354 863.84L545.445 841.147L534.413 815.389L545.445 764.791L535.498 726.46L561.469 694.568L554.562 654.703" stroke="url(#paint10_linear_140_916)" stroke-width="10" stroke-linecap="round" stroke-linejoin="bevel"/>
<path d="M634.134 304.506L634.656 309.719M634.656 309.719L642.423 387.302V427.78L621.425 480.524L609.545 529.895L586.06 587.546L573.074 617.904L557.602 652.249L544.064 698.554L530.25 744.245V773.377V808.948V859.239L520.303 886.531L514.777 913.823V941.115L520.303 968.407L537.709 979.753L557.602 987.726L573.074 968.407V941.115L563.128 919.036L554.01 890.824L547.656 862.306L544.064 803.735L547.656 757.431L554.01 718.793L563.128 684.448L573.074 647.036L586.06 611.771L601.532 579.573L621.425 537.868L631.371 498.617L649.606 436.98V387.302V351.117L634.656 309.719Z" stroke="url(#paint11_linear_140_916)" stroke-width="20" stroke-linecap="round" stroke-linejoin="bevel"/>
<path d="M1268.49 1293.76L1296.95 1260.34L1314.36 1252.74M1268.49 1293.76L1211.86 1328.72L1131.46 1315.23L1015.69 1302.66L991.653 1297.27M1268.49 1293.76L1220.42 1302.66H1202.46H1182.29M843.009 1268.62H788.58H735.533L687.458 1276.9L649.331 1286.4H609.821H552.906H508.699H474.163L439.351 1276.9L406.196 1268.62H370.278L350.109 1276.9M843.009 1268.62L854.061 1270.2M843.009 1268.62L777 1254.51L758 1252.06H730.5L706 1246.23H682L667.5 1240.1H639.937H620.873L600.151 1246.23L586.337 1252.06L569.207 1254.51L552.906 1261.26H528.868L506.489 1257.89L487.149 1254.51H474.163L459.244 1249.3L439.351 1246.23L424.155 1240.1H406.196H382.159L364.753 1246.23H350.109M350.109 1276.9V1337.92L1211.86 1404.77L1350 1293.76V1249.61H1344.75M350.109 1276.9V1246.23M1321.54 1177.24L1296.95 1186.44L1281.2 1177.24H1268.49L1252.19 1182.45L1246.67 1172.64L1230.37 1164.36H1211.86L1169.58 1154.85H1139.19L1099.13 1160.06L1064.04 1164.36H1043.73M1321.54 1177.24C1319.98 1177.03 1309.39 1180.92 1321.54 1177.24ZM1321.54 1177.24C1333.7 1173.56 1342.08 1172.64 1344.75 1172.64V1199.93M1344.75 1249.61H1321.54L1314.36 1252.74M1344.75 1249.61V1224.77M1344.75 1199.93H1330.38L1304.14 1194.72L1281.2 1211.27H1268.49L1240.87 1194.72H1220.42L1189.2 1199.93L1139.19 1194.72H1104.66L1071.78 1182.45L1043.73 1164.36M1344.75 1199.93V1224.77M1043.73 1164.36H1023.43L987.509 1154.85H963.748H931.422L892.189 1164.36L867.599 1169.7M1344.75 1224.77L1321.54 1218.63L1304.14 1224.77L1281.2 1237.34M1281.2 1237.34H1252.19L1244.18 1233.62M1281.2 1237.34L1304.14 1241.94L1314.36 1252.74M1281.2 1237.34C1271.04 1247.15 1264.07 1259.83 1261.86 1264.94L1252.19 1276.9H1230.37L1211.86 1273.22L1185.88 1268.62H1146.93H1099.13M867.599 1169.7L854.061 1172.64L840.523 1170.18M867.599 1169.7L937.224 1182.45L1002.15 1199.93L1071.78 1224.77H1090.84M1099.13 1268.62L1071.78 1260.34H1040.56H1015.69H987.509H957.393L937.224 1264.94L908.49 1268.62L854.061 1270.2M1099.13 1268.62L1141.4 1287.12L1178.15 1301.03M854.061 1270.2L900.754 1276.9L991.653 1297.27M1182.29 1302.66L1178.15 1301.03M1182.29 1302.66H1159.64L1113 1292.5L1087.5 1288.86L1058.79 1286.1C1024.31 1286.1 1006.66 1287.94 1002.15 1288.86L991.653 1297.27M1159.64 1293.76L1178.15 1301.03M1244.18 1233.62L1211.86 1218.63L1169.58 1224.77H1114.05H1099.13M1244.18 1233.62L1233.68 1241.94L1222.63 1252.74L1211.86 1255.43L1191.96 1249.61L1172.35 1241.94H1151.62L1099.13 1224.77M1099.13 1224.77H1090.84M1090.84 1224.77L1048.57 1232.74L1010.72 1237.95L978.667 1244.7H915.397L880.032 1237.95L817.867 1222.93L775.042 1216.79L754.873 1214.95L718.127 1213.42L692.708 1218.33L669.223 1222.93L644.634 1227.53H586.337L556.221 1222.93L528.868 1218.33L506.489 1212.5L469.19 1210.35L439.351 1207.29H410.064H391.276L372.765 1212.5L362.266 1215.57H350.109M350.109 1215.57V1174.78M350.109 1215.57V1246.23M350.109 1174.78V1119.28C349.096 1119.18 354.696 1120.38 385.198 1126.03C415.7 1131.67 447.271 1137.58 459.244 1139.82L485.215 1154.85C489.727 1158.02 502.952 1164.36 519.751 1164.36C520.902 1164.36 522.102 1164.36 523.343 1164.36M350.109 1174.78L372.765 1179.08L391.276 1181.53H410.064H431.891L451.784 1174.78H469.19L487.149 1169.57H499.858L523.343 1164.36M523.343 1164.36C529.581 1164.36 536.845 1164.36 544.064 1164.36M544.064 1164.36C556.361 1164.36 568.529 1164.36 575.285 1164.36L620.873 1154.85H660.382C662.408 1147.59 674.362 1134.43 705.97 1139.82C737.577 1145.22 765.188 1152.09 775.042 1154.85L808.473 1164.36L840.523 1170.18M544.064 1164.36L556.221 1169.57L566.72 1172.33L582.469 1174.78L597.388 1182.45H617.557L635.792 1188.89L657.619 1191.34L674.473 1194.41H692.708H711.496L733.875 1192.88L751.834 1188.89L767.859 1186.74L785.541 1182.45L802.671 1176.93L817.867 1174.78L840.523 1170.18" stroke="url(#paint12_linear_140_916)" stroke-width="10" stroke-linecap="round" stroke-linejoin="bevel"/>
<path d="M352.871 745.165V1337L1212.96 1406M352.871 745.165H371.382H390.723L415.036 733.819L437.416 717.873L450.954 704.074L470.294 675.862L488.805 659.916L542.129 668.502L565.338 675.862H591.585L646.843 682.608H707.074H748.517H802.117L847.429 675.862L907.66 668.502H953.248H1007.68H1062.93L1108.25 675.862H1152.18L1212.96 682.608L1267.66 689.355L1344.2 682.608M352.871 745.165L415.036 765.404L461.729 777.057L495.436 783.803L529.42 792.39H585.783H630.265L683.589 798.829H727.243L776.699 792.39H821.458L855.441 783.803H893.017L944.406 777.057H988.06H1027.85H1062.93L1108.25 783.803H1143.33L1178.15 792.39H1212.96M1212.96 1406L1350 1291.01L1344.2 682.608M1212.96 1406V792.39M1344.2 682.608L1322.37 712.047L1307.45 723.393L1287.83 733.819L1259.1 751.605L1212.96 792.39" stroke="url(#paint13_linear_140_916)" stroke-width="20" stroke-linecap="round" stroke-linejoin="bevel"/>
<path d="M366 1003.67H382.711L408.682 1011.34L434.653 1021.77L456.756 1030.35L483.556 1036.79H509.527H535.499L559.536 1030.35L587.441 1021.77L609.544 1003.67H636.344H657.618L677.788 1011.34L698.786 1021.77L724.757 1036.79L744.926 1051.82L764.266 1061.32H787.198L815.103 1051.82L841.074 1044.15L860.138 1030.35L887.215 1021.77L908.213 1011.34H933.355H956.287L974.522 1021.77L998.559 1036.79L1017.9 1051.82L1045.8 1061.32H1062.93H1086.14H1112.94L1136.98 1051.82L1157.15 1044.15H1176.21L1204.12 1051.82" stroke="url(#paint14_linear_140_916)" stroke-width="10" stroke-linecap="round" stroke-linejoin="bevel"/>
<path d="M1226 1064L1241.69 1044.15H1257.17L1273.47 1050.59L1286.73 1044.15L1299.44 1028.2L1308.83 1007.05L1320.44 990.793L1332 987.5" stroke="url(#paint15_linear_140_916)" stroke-width="10" stroke-linecap="round" stroke-linejoin="bevel"/>
<path d="M366.5 1005L422.5 1125.03L476.04 1085.35M476.04 1085.35L509.5 1155.66L519.016 1104.32M476.04 1085.35L487.5 1043.5L519.016 1104.32M519.016 1104.32L616.5 1009M519.016 1104.32L604.5 1150L616.5 1009M616.5 1009L694.05 1085.35M745.393 1108.98L714.5 1133.5L694.05 1085.35M745.393 1108.98L694.05 1085.35M745.393 1108.98L776 1069.5L825.049 1125.03M825.049 1125.03L810 1155.66M825.049 1125.03L915.654 1155.66M915.654 1155.66L825.049 1130.28L871.5 1034L940.29 1085.35M915.654 1155.66L940.29 1085.35M940.29 1085.35L993 1040L1004.07 1104.32M940.29 1085.35L1004.07 1104.32M1004.07 1104.32L985.5 1150M1004.07 1104.32L1051 1155.66L1109.18 1104.32M1004.07 1104.32L1060.5 1069.5L1109.18 1104.32M1109.18 1104.32L1195.5 1150M1109.18 1104.32L1200 1057.5V1155.66" stroke="url(#paint16_linear_140_916)" stroke-width="10" stroke-linecap="round" stroke-linejoin="bevel"/>
<path d="M1228.5 1066.5L1237.5 1160L1274.02 1125.41V1055.5L1337.5 1121.5L1278.72 1125.41L1312 1177L1331.5 992" stroke="url(#paint17_linear_140_916)" stroke-width="10" stroke-linecap="round" stroke-linejoin="bevel"/>
<circle cx="850" cy="850" r="849.5" stroke="white"/>
<defs>
<linearGradient id="paint0_linear_140_916" x1="700.997" y1="649.052" x2="700.997" y2="729.25" gradientUnits="userSpaceOnUse">
<stop stop-color="#057189"/>
<stop offset="0.5" stop-color="#15CEF9"/>
<stop offset="1" stop-color="#07949F"/>
</linearGradient>
<linearGradient id="paint1_linear_140_916" x1="954.491" y1="577.632" x2="954.491" y2="789.515" gradientUnits="userSpaceOnUse">
<stop stop-color="#057189"/>
<stop offset="0.5" stop-color="#15CEF9"/>
<stop offset="1" stop-color="#07949F"/>
</linearGradient>
<linearGradient id="paint2_linear_140_916" x1="1105.76" y1="549.76" x2="1105.76" y2="722.493" gradientUnits="userSpaceOnUse">
<stop stop-color="#057189"/>
<stop offset="0.5" stop-color="#15CEF9"/>
<stop offset="1" stop-color="#07949F"/>
</linearGradient>
<linearGradient id="paint3_linear_140_916" x1="1281.07" y1="835.313" x2="1281.07" y2="907.443" gradientUnits="userSpaceOnUse">
<stop stop-color="#057189"/>
<stop offset="0.5" stop-color="#15CEF9"/>
<stop offset="1" stop-color="#07949F"/>
</linearGradient>
<linearGradient id="paint4_linear_140_916" x1="1076.06" y1="869.018" x2="1076.06" y2="908.168" gradientUnits="userSpaceOnUse">
<stop stop-color="#0797B7"/>
<stop offset="0.447917" stop-color="#15CEF9"/>
<stop offset="1" stop-color="#07949F"/>
</linearGradient>
<linearGradient id="paint5_linear_140_916" x1="433.826" y1="855.622" x2="433.826" y2="889.789" gradientUnits="userSpaceOnUse">
<stop stop-color="#057189"/>
<stop offset="0.5" stop-color="#15CEF9"/>
<stop offset="1" stop-color="#07949F"/>
</linearGradient>
<linearGradient id="paint6_linear_140_916" x1="730.698" y1="872.978" x2="730.698" y2="915.212" gradientUnits="userSpaceOnUse">
<stop stop-color="#057189"/>
<stop offset="0.5" stop-color="#15CEF9"/>
<stop offset="1" stop-color="#07949F"/>
</linearGradient>
<linearGradient id="paint7_linear_140_916" x1="927.691" y1="825.635" x2="927.691" y2="974.642" gradientUnits="userSpaceOnUse">
<stop stop-color="#057189"/>
<stop offset="0.5" stop-color="#15CEF9"/>
<stop offset="1" stop-color="#07949F"/>
</linearGradient>
<linearGradient id="paint8_linear_140_916" x1="1119.44" y1="409.661" x2="1119.44" y2="720.486" gradientUnits="userSpaceOnUse">
<stop stop-color="#057189"/>
<stop offset="0.5" stop-color="#15CEF9"/>
<stop offset="1" stop-color="#07949F"/>
</linearGradient>
<linearGradient id="paint9_linear_140_916" x1="862.625" y1="447.97" x2="862.625" y2="977.322" gradientUnits="userSpaceOnUse">
<stop stop-color="#057189"/>
<stop offset="0.5" stop-color="#15CEF9"/>
<stop offset="1" stop-color="#07949F"/>
</linearGradient>
<linearGradient id="paint10_linear_140_916" x1="541.3" y1="892.199" x2="541.3" y2="975.482" gradientUnits="userSpaceOnUse">
<stop stop-color="#057189"/>
<stop offset="0.463542" stop-color="#15CEF9"/>
<stop offset="1" stop-color="#07949F"/>
</linearGradient>
<linearGradient id="paint11_linear_140_916" x1="582.192" y1="457.27" x2="582.192" y2="985.91" gradientUnits="userSpaceOnUse">
<stop stop-color="#057189"/>
<stop offset="0.5" stop-color="#15CEF9"/>
<stop offset="1" stop-color="#07949F"/>
</linearGradient>
<linearGradient id="paint12_linear_140_916" x1="850" y1="1176.16" x2="850" y2="1403.99" gradientUnits="userSpaceOnUse">
<stop stop-color="#057189"/>
<stop offset="0.515625" stop-color="#15CEF9"/>
<stop offset="1" stop-color="#07949F"/>
</linearGradient>
<linearGradient id="paint13_linear_140_916" x1="851.435" y1="826.737" x2="851.435" y2="1404.02" gradientUnits="userSpaceOnUse">
<stop stop-color="#057189"/>
<stop offset="0.5" stop-color="#15CEF9"/>
<stop offset="1" stop-color="#07949F"/>
</linearGradient>
<linearGradient id="paint14_linear_140_916" x1="779.048" y1="1016.56" x2="779.048" y2="1061.17" gradientUnits="userSpaceOnUse">
<stop stop-color="#057189"/>
<stop offset="0.5" stop-color="#15CEF9"/>
<stop offset="1" stop-color="#07949F"/>
</linearGradient>
<linearGradient id="paint15_linear_140_916" x1="1279.13" y1="1000.64" x2="1279.13" y2="1060.2" gradientUnits="userSpaceOnUse">
<stop stop-color="#057189"/>
<stop offset="0.5" stop-color="#15CEF9"/>
<stop offset="1" stop-color="#07949F"/>
</linearGradient>
<linearGradient id="paint16_linear_140_916" x1="787" y1="1046.99" x2="787" y2="1164.6" gradientUnits="userSpaceOnUse">
<stop stop-color="#057189"/>
<stop offset="0.5" stop-color="#15CEF9"/>
<stop offset="1" stop-color="#07949F"/>
</linearGradient>
<linearGradient id="paint17_linear_140_916" x1="1279.82" y1="1027.53" x2="1279.82" y2="1184.37" gradientUnits="userSpaceOnUse">
<stop stop-color="#057189"/>
<stop offset="0.5" stop-color="#15CEF9"/>
<stop offset="1" stop-color="#07949F"/>
</linearGradient>
</defs>
</svg>
