<svg width="1700" height="1700" viewBox="0 0 1700 1700" fill="none" xmlns="http://www.w3.org/2000/svg">
<path d="M699.056 392.667L729.175 371.638L756.858 351.99M756.858 351.99L791.847 337.97L840.708 329.553M756.858 351.99L797.55 416.511M840.708 329.553V291M840.708 329.553L901.747 452.966M840.708 329.553L923.344 380.319M840.708 329.553L819.129 373.032L797.55 416.511M840.708 291H920.459V308.524L913.153 333.058M840.708 291L913.153 333.058M913.153 333.058L935.934 337.97M935.934 337.97L954.678 347.794L962.816 351.99L979.894 333.058M935.934 337.97L923.344 380.319M979.894 333.058L992.102 318.348V291H1063.75V314.844M979.894 333.058L1063.75 314.844M979.894 333.058L1011.65 376.55M1063.75 314.844L1050.74 333.058L1037.7 351.99L1011.65 376.55M1011.65 376.55L913.153 457.161M1148.82 352.35L1148.4 351.99L1125.62 337.97L1102.83 329.553H1068.65L1055.61 342.192L1117.95 397.579M1148.82 352.35L1165.51 366.726L1172.84 386.348V405.279L1165.51 429.123L1153.3 448.054L1125.62 471.181L1117.95 423.52V397.579M1148.82 352.35L1117.95 397.579M1055.61 337.97L1011.65 488.731M1011.65 488.731L1117.95 397.579M1011.65 488.731L913.153 457.161M1117.95 397.579H1037.7L913.153 457.161M940.004 485.917L925.361 466.986L913.153 457.161M913.153 457.161L901.747 452.966M901.747 452.966H883.836H871.628L854.55 466.986L842.005 479.066M901.747 452.966L912.546 416.642L923.344 380.319M901.747 452.966L797.55 416.511M718.601 593.186L686.016 552.536L825.233 515.363V507.663L831.738 488.731L840.708 480.315L842.005 479.066M692.552 492.927L756.858 486.963M842.005 479.066L756.858 486.963M842.005 479.066L797.55 416.511M756.858 486.963L706.362 416.511H797.55" stroke="url(#paint0_linear_140_918)" stroke-width="10" stroke-linecap="round" stroke-linejoin="bevel"/>
<path d="M585.086 622.847L575.314 580.736M575.314 580.736L559.654 543.696L528.394 515.073M575.314 580.736L673.931 641.965M575.314 580.736L629.077 555.472M528.394 515.073L473.645 481.379M528.394 515.073L629.077 555.472M528.394 515.073L612.461 440.967M473.645 481.379L432.583 464.545L411.065 440.967M473.645 481.379L553.211 490.487L616.689 497.753M473.645 481.379L454.774 392.975M473.645 481.379L559.654 378.326M411.065 440.967L397.378 402.228M411.065 440.967L454.774 392.975M397.378 402.228L422.81 358.444L473.645 344.982L498.483 344.982M397.378 402.228L559.654 375.278M498.483 344.982L559.654 375.278M498.483 344.982L454.774 392.975M559.654 375.278L585.086 402.228M585.086 402.228L612.461 440.967M585.086 402.228L616.689 497.753M612.461 440.967V402.228M612.461 440.967L620.769 498.22M612.461 440.967L682.84 375.278M612.461 440.967H690.023H694.585M612.461 402.228L642.853 365.253L682.84 375.278M612.461 402.228L708.273 415.716M682.84 375.278L708.273 415.716M708.273 415.716C705.673 408.415 699.296 403.242 694.585 440.967M694.585 440.967C689.875 478.692 684.793 516.18 682.84 530.208M694.585 440.967L629.077 555.472M682.84 530.208V553.786M682.84 530.208L629.077 555.472M682.84 553.786L714.13 589.153M682.84 553.786L669.122 646.107M629.077 555.472L620.769 498.22M620.769 498.22L616.689 497.753" stroke="url(#paint1_linear_140_918)" stroke-width="10" stroke-linecap="round" stroke-linejoin="bevel"/>
<g filter="url(#filter0_d_140_918)">
<path d="M625.747 1260.86L566.404 1191.56L517.912 1125.89L515.963 1120.47M625.747 1260.86L708.118 1329.41M625.747 1260.86L618.78 1084.08M708.118 1329.41L805.872 1378.72L807.259 1379.15M708.118 1329.41L618.78 1084.08M708.118 1329.41L837.994 1260.86M967.839 1410L1019.51 1391.97M967.839 1410H913.398M967.839 1410L984.609 1260.86M1019.51 1391.97L1069.79 1349.86M1019.51 1391.97L837.994 1260.86M1069.79 1349.86L1117.26 1300.55M1069.79 1349.86L984.609 1260.86M1117.26 1300.55L1159.15 1234.41M1117.26 1300.55L984.609 1260.86M1159.15 1234.41L1196.86 1169.47M1159.15 1234.41L998.574 1091.3M1196.86 1169.47L1219.21 1125.89M1196.86 1169.47L984.609 1260.86M1219.21 1125.89L1240.14 1073.24M1219.21 1125.89L998.574 1091.3M1240.14 1073.24L1262.13 1005.28M1240.14 1073.24L1107.49 1034.77M1263.88 999.88L1280.65 933.739L1289 883.238V847.154M1263.88 999.88L1079.56 830.58M1263.88 999.88L1262.13 1005.28M1069.79 629.455L1167.54 660.733L1212.21 694.401L1240.14 731.68L1243.47 736.907M1069.79 629.455H998.574H920.365M1069.79 629.455L1079.56 830.58M920.365 629.455L881.276 649.9L837.994 694.401M920.365 629.455L1079.56 830.58M920.365 629.455L899.036 719.678M837.994 694.401L807.259 731.68L794.712 761.763M837.994 694.401L899.036 719.678M794.712 761.763H734.66M794.712 761.763L899.036 719.678M794.712 761.763L618.78 1084.08M734.66 761.763L673.221 746.124L643.904 706.429V694.401L655.885 671L624.398 694.401M734.66 761.763L632.745 873.599M624.398 694.401L600.783 712.5L581.078 736.907L566.485 761.763L551.73 791.82M624.398 694.401L632.745 873.599M551.73 791.82L532.186 824.292L517.912 856.765L498.676 891.654L484.711 933.739M551.73 791.82L632.745 873.599M484.711 933.739L476.326 980.656M484.711 933.739L632.745 873.599M476.326 980.656L484.711 1033.57M476.326 980.656L618.78 1084.08M484.711 1033.57L515.963 1120.47M484.711 1033.57L618.78 1084.08M515.963 1120.47L618.78 1084.08M618.78 1084.08L837.994 956.6M618.78 1084.08L632.745 873.599M837.994 1260.86L807.259 1379.15M837.994 1260.86L913.398 1410M837.994 1260.86L998.574 1091.3M837.994 1260.86V968.628M807.259 1379.15L906.4 1410H913.398M998.574 1091.3L842.195 960.124M837.994 956.6L842.195 960.124M837.994 956.6V968.628M837.994 956.6L1107.49 1034.77M842.195 960.124L899.036 719.678M1243.47 736.907L1270.84 779.792L1289 841.126V847.154M1243.47 736.907L1079.56 830.58M837.994 968.628L1079.56 830.58M1289 847.154L1079.56 830.58M1079.56 830.58L1107.49 1034.77M1262.13 1005.28L1107.49 1034.77" stroke="url(#paint2_linear_140_918)" stroke-width="20" stroke-linecap="round" stroke-linejoin="bevel" shape-rendering="crispEdges"/>
</g>
<path d="M440.69 1033.89L512.568 1121.36L441.738 924.236M440.69 1033.89L441.738 1035.34L404.467 971.498L384.707 916.669M440.69 1033.89L441.738 924.236M441.738 924.236L490.266 879.783L444.531 780.511M441.738 924.236L384.707 916.669M441.738 924.236L377 819.276M384.707 916.669L377 819.276M377 819.276L384.707 767.288L413.222 727.566L441.738 690.712M377 819.276L384.707 818.409L544.948 780.511V703.935M444.531 780.511L441.738 690.712M444.531 780.511L544.948 703.935M441.738 690.712L544.948 703.935M544.948 703.935L586.658 625.475M544.948 703.935L520.81 636.812M444.531 690.712L475.802 656.673L520.81 636.812M586.658 625.475H544.948L520.81 636.812M586.658 625.475H626.179L673.406 646.265L659.821 672.5L586.658 625.475Z" stroke="url(#paint3_linear_140_918)" stroke-width="10" stroke-linecap="round" stroke-linejoin="bevel"/>
<path d="M1248.95 531.161C1248.95 549.122 1244.5 565.142 1237.57 576.508C1230.58 587.961 1221.6 593.974 1212.58 593.974C1203.56 593.974 1194.58 587.961 1187.6 576.508C1180.66 565.142 1176.21 549.122 1176.21 531.161C1176.21 513.2 1180.66 497.18 1187.6 485.814C1194.58 474.361 1203.56 468.348 1212.58 468.348C1221.6 468.348 1230.58 474.361 1237.57 485.814C1244.5 497.18 1248.95 513.2 1248.95 531.161Z" stroke="url(#paint4_linear_140_918)" stroke-width="10"/>
<path d="M656.351 698.337L696.369 708.5M696.369 708.5L792.984 757.129L696.369 699.911L676.127 642.5L716.842 602.641M696.369 708.5L887.195 637.158M696.369 708.5L716.842 602.641M716.842 602.641L757.103 563.371L793.294 540.244L836.237 514.834M716.842 602.641L836.237 653.916M836.237 514.834L879.149 500.233M836.237 514.834V683.518M887.195 497.496L944.904 489.424H1006.59L1073.67 481.326L1125.98 474.396L1207.8 462.846M887.195 497.496L879.149 500.233M887.195 497.496L982.451 602.641M887.195 497.496L1060.26 524.074M1207.8 462.846L1175.62 514.834M1207.8 462.846L1250.74 514.834M1175.62 514.834L1242.7 563.371L1195.75 581.851V588.781M1175.62 514.834L1060.26 524.074M1195.75 588.781H1125.98H1085.72M1195.75 588.781L1060.26 524.074M1085.72 588.781L1033.41 595.711L982.451 602.641M1085.72 588.781L1072.99 556.428L1060.26 524.074M982.451 602.641L938.183 614.191L887.195 637.158M982.451 602.641L1060.26 524.074M887.195 637.158L879.149 500.233M1060.26 524.074L1125.98 481.326" stroke="url(#paint5_linear_140_918)" stroke-width="10" stroke-linecap="round" stroke-linejoin="bevel"/>
<ellipse cx="447.997" cy="777.138" rx="12.331" ry="10.6207" fill="url(#paint6_diamond_140_918)"/>
<ellipse cx="442.15" cy="924.916" rx="12.331" ry="10.6207" fill="url(#paint7_diamond_140_918)"/>
<ellipse cx="543.438" cy="698.97" rx="12.331" ry="10.6207" fill="url(#paint8_diamond_140_918)"/>
<ellipse cx="842.71" cy="960.079" rx="15.4137" ry="13.2759" fill="url(#paint9_diamond_140_918)"/>
<ellipse cx="842.71" cy="960.079" rx="15.4137" ry="13.2759" fill="url(#paint10_diamond_140_918)"/>
<ellipse cx="840.986" cy="1263.89" rx="15.4137" ry="13.2759" fill="url(#paint11_diamond_140_918)"/>
<ellipse cx="615.391" cy="1083.92" rx="15.4137" ry="13.2759" fill="url(#paint12_diamond_140_918)"/>
<ellipse cx="630.801" cy="876.493" rx="15.4137" ry="13.2759" fill="url(#paint13_diamond_140_918)"/>
<ellipse cx="1083.78" cy="832.153" rx="15.4137" ry="13.2759" fill="url(#paint14_diamond_140_918)"/>
<ellipse cx="993.211" cy="1263.89" rx="15.4137" ry="13.2759" fill="url(#paint15_diamond_140_918)"/>
<ellipse cx="836.544" cy="680.382" rx="9.24824" ry="7.96555" fill="url(#paint16_diamond_140_918)"/>
<ellipse cx="723.347" cy="593.186" rx="9.24824" ry="7.96555" fill="url(#paint17_diamond_140_918)"/>
<ellipse cx="1009.43" cy="376.419" rx="9.24824" ry="7.96555" fill="url(#paint18_diamond_140_918)"/>
<ellipse cx="800.789" cy="411.518" rx="9.24824" ry="7.96555" fill="url(#paint19_diamond_140_918)"/>
<ellipse cx="695.234" cy="701.624" rx="9.24824" ry="7.96555" fill="url(#paint20_diamond_140_918)"/>
<ellipse cx="1132.73" cy="475.882" rx="9.24824" ry="7.96555" fill="url(#paint21_diamond_140_918)"/>
<ellipse cx="1066.95" cy="523.196" rx="9.24824" ry="7.96555" fill="url(#paint22_diamond_140_918)"/>
<ellipse cx="704.849" cy="411.518" rx="9.24824" ry="7.96555" fill="url(#paint23_diamond_140_918)"/>
<ellipse cx="882.665" cy="504.61" rx="9.24824" ry="7.96555" fill="url(#paint24_diamond_140_918)"/>
<ellipse cx="485.547" cy="384.382" rx="9.24824" ry="7.96555" fill="url(#paint25_diamond_140_918)"/>
<ellipse cx="631.297" cy="553.466" rx="9.24824" ry="7.96555" fill="url(#paint26_diamond_140_918)"/>
<circle cx="850" cy="850" r="849.5" stroke="white"/>
<ellipse cx="1088.88" cy="415.617" rx="7.87926" ry="7.61674" fill="url(#paint27_diamond_140_918)"/>
<defs>
<filter id="filter0_d_140_918" x="462.449" y="619.455" width="840.551" height="808.545" filterUnits="userSpaceOnUse" color-interpolation-filters="sRGB">
<feFlood flood-opacity="0" result="BackgroundImageFix"/>
<feColorMatrix in="SourceAlpha" type="matrix" values="0 0 0 0 0 0 0 0 0 0 0 0 0 0 0 0 0 0 127 0" result="hardAlpha"/>
<feOffset dy="4"/>
<feGaussianBlur stdDeviation="2"/>
<feComposite in2="hardAlpha" operator="out"/>
<feColorMatrix type="matrix" values="0 0 0 0 0 0 0 0 0 0 0 0 0 0 0 0 0 0 0.25 0"/>
<feBlend mode="normal" in2="BackgroundImageFix" result="effect1_dropShadow_140_918"/>
<feBlend mode="normal" in="SourceGraphic" in2="effect1_dropShadow_140_918" result="shape"/>
</filter>
<linearGradient id="paint0_linear_140_918" x1="929.43" y1="291" x2="929.43" y2="593.186" gradientUnits="userSpaceOnUse">
<stop stop-color="#07949F"/>
<stop offset="0.479167" stop-color="#15CEF9"/>
<stop offset="1" stop-color="#07849F"/>
</linearGradient>
<linearGradient id="paint1_linear_140_918" x1="555.754" y1="334.866" x2="555.754" y2="646.106" gradientUnits="userSpaceOnUse">
<stop stop-color="#057189"/>
<stop offset="0.520833" stop-color="#15CEF9"/>
<stop offset="1" stop-color="#07849F"/>
</linearGradient>
<linearGradient id="paint2_linear_140_918" x1="882.663" y1="629.455" x2="882.663" y2="1410" gradientUnits="userSpaceOnUse">
<stop stop-color="#057189"/>
<stop offset="0.520833" stop-color="#15CEF9"/>
<stop offset="1" stop-color="#07949F"/>
</linearGradient>
<linearGradient id="paint3_linear_140_918" x1="525.203" y1="625.475" x2="525.203" y2="1127.49" gradientUnits="userSpaceOnUse">
<stop stop-color="#0797B7"/>
<stop offset="0.479167" stop-color="#15CEF9"/>
<stop offset="1" stop-color="#07849F"/>
</linearGradient>
<linearGradient id="paint4_linear_140_918" x1="1212.58" y1="463.348" x2="1212.58" y2="598.974" gradientUnits="userSpaceOnUse">
<stop stop-color="#057189"/>
<stop offset="0.546875" stop-color="#15CEF9"/>
<stop offset="1" stop-color="#07849F"/>
</linearGradient>
<linearGradient id="paint5_linear_140_918" x1="953.612" y1="462.846" x2="953.612" y2="757.465" gradientUnits="userSpaceOnUse">
<stop stop-color="#0797B7"/>
<stop offset="0.552083" stop-color="#15CEF9"/>
<stop offset="1" stop-color="#07849F"/>
</linearGradient>
<radialGradient id="paint6_diamond_140_918" cx="0" cy="0" r="1" gradientUnits="userSpaceOnUse" gradientTransform="translate(447.997 777.138) rotate(90) scale(10.6207 12.331)">
<stop stop-color="#0288C9"/>
<stop offset="1" stop-color="#59DDFA"/>
</radialGradient>
<radialGradient id="paint7_diamond_140_918" cx="0" cy="0" r="1" gradientUnits="userSpaceOnUse" gradientTransform="translate(442.15 924.916) rotate(90) scale(10.6207 12.331)">
<stop stop-color="#0288C9"/>
<stop offset="1" stop-color="#59DDFA"/>
</radialGradient>
<radialGradient id="paint8_diamond_140_918" cx="0" cy="0" r="1" gradientUnits="userSpaceOnUse" gradientTransform="translate(543.438 698.97) rotate(90) scale(10.6207 12.331)">
<stop stop-color="#0288C9"/>
<stop offset="1" stop-color="#59DDFA"/>
</radialGradient>
<radialGradient id="paint9_diamond_140_918" cx="0" cy="0" r="1" gradientUnits="userSpaceOnUse" gradientTransform="translate(842.71 960.079) rotate(90) scale(13.2759 15.4137)">
<stop stop-color="white"/>
<stop offset="0.5" stop-color="#93E5F7"/>
<stop offset="1" stop-color="#25A7C4"/>
</radialGradient>
<radialGradient id="paint10_diamond_140_918" cx="0" cy="0" r="1" gradientUnits="userSpaceOnUse" gradientTransform="translate(842.71 960.079) rotate(90) scale(13.2759 15.4137)">
<stop stop-color="white"/>
<stop offset="0.5" stop-color="#93E5F7"/>
<stop offset="1" stop-color="#25A7C4"/>
</radialGradient>
<radialGradient id="paint11_diamond_140_918" cx="0" cy="0" r="1" gradientUnits="userSpaceOnUse" gradientTransform="translate(840.986 1263.89) rotate(90) scale(13.2759 15.4137)">
<stop stop-color="white"/>
<stop offset="0.5" stop-color="#93E5F7"/>
<stop offset="1" stop-color="#25A7C4"/>
</radialGradient>
<radialGradient id="paint12_diamond_140_918" cx="0" cy="0" r="1" gradientUnits="userSpaceOnUse" gradientTransform="translate(615.391 1083.92) rotate(90) scale(13.2759 15.4137)">
<stop stop-color="white"/>
<stop offset="0.5" stop-color="#93E5F7"/>
<stop offset="1" stop-color="#25A7C4"/>
</radialGradient>
<radialGradient id="paint13_diamond_140_918" cx="0" cy="0" r="1" gradientUnits="userSpaceOnUse" gradientTransform="translate(630.801 876.493) rotate(90) scale(13.2759 15.4137)">
<stop stop-color="white"/>
<stop offset="0.5" stop-color="#93E5F7"/>
<stop offset="1" stop-color="#25A7C4"/>
</radialGradient>
<radialGradient id="paint14_diamond_140_918" cx="0" cy="0" r="1" gradientUnits="userSpaceOnUse" gradientTransform="translate(1083.78 832.153) rotate(90) scale(13.2759 15.4137)">
<stop stop-color="white"/>
<stop offset="0.5" stop-color="#93E5F7"/>
<stop offset="1" stop-color="#25A7C4"/>
</radialGradient>
<radialGradient id="paint15_diamond_140_918" cx="0" cy="0" r="1" gradientUnits="userSpaceOnUse" gradientTransform="translate(993.211 1263.89) rotate(90) scale(13.2759 15.4137)">
<stop stop-color="white"/>
<stop offset="0.5" stop-color="#93E5F7"/>
<stop offset="1" stop-color="#25A7C4"/>
</radialGradient>
<radialGradient id="paint16_diamond_140_918" cx="0" cy="0" r="1" gradientUnits="userSpaceOnUse" gradientTransform="translate(836.544 680.382) rotate(90) scale(7.96555 9.24824)">
<stop stop-color="#0288C9"/>
<stop offset="1" stop-color="#59DDFA"/>
</radialGradient>
<radialGradient id="paint17_diamond_140_918" cx="0" cy="0" r="1" gradientUnits="userSpaceOnUse" gradientTransform="translate(723.347 593.186) rotate(90) scale(7.96555 9.24824)">
<stop stop-color="#0288C9"/>
<stop offset="1" stop-color="#59DDFA"/>
</radialGradient>
<radialGradient id="paint18_diamond_140_918" cx="0" cy="0" r="1" gradientUnits="userSpaceOnUse" gradientTransform="translate(1009.43 376.419) rotate(90) scale(7.96555 9.24824)">
<stop stop-color="#0288C9"/>
<stop offset="1" stop-color="#59DDFA"/>
</radialGradient>
<radialGradient id="paint19_diamond_140_918" cx="0" cy="0" r="1" gradientUnits="userSpaceOnUse" gradientTransform="translate(800.789 411.518) rotate(90) scale(7.96555 9.24824)">
<stop stop-color="#0288C9"/>
<stop offset="1" stop-color="#59DDFA"/>
</radialGradient>
<radialGradient id="paint20_diamond_140_918" cx="0" cy="0" r="1" gradientUnits="userSpaceOnUse" gradientTransform="translate(695.234 701.624) rotate(90) scale(7.96555 9.24824)">
<stop stop-color="#0288C9"/>
<stop offset="1" stop-color="#59DDFA"/>
</radialGradient>
<radialGradient id="paint21_diamond_140_918" cx="0" cy="0" r="1" gradientUnits="userSpaceOnUse" gradientTransform="translate(1132.73 475.882) rotate(90) scale(7.96555 9.24824)">
<stop stop-color="#0288C9"/>
<stop offset="1" stop-color="#59DDFA"/>
</radialGradient>
<radialGradient id="paint22_diamond_140_918" cx="0" cy="0" r="1" gradientUnits="userSpaceOnUse" gradientTransform="translate(1066.95 523.196) rotate(90) scale(7.96555 9.24824)">
<stop stop-color="#0288C9"/>
<stop offset="1" stop-color="#59DDFA"/>
</radialGradient>
<radialGradient id="paint23_diamond_140_918" cx="0" cy="0" r="1" gradientUnits="userSpaceOnUse" gradientTransform="translate(704.849 411.518) rotate(90) scale(7.96555 9.24824)">
<stop stop-color="#0288C9"/>
<stop offset="1" stop-color="#59DDFA"/>
</radialGradient>
<radialGradient id="paint24_diamond_140_918" cx="0" cy="0" r="1" gradientUnits="userSpaceOnUse" gradientTransform="translate(882.665 504.61) rotate(90) scale(7.96555 9.24824)">
<stop stop-color="#0288C9"/>
<stop offset="1" stop-color="#59DDFA"/>
</radialGradient>
<radialGradient id="paint25_diamond_140_918" cx="0" cy="0" r="1" gradientUnits="userSpaceOnUse" gradientTransform="translate(485.547 384.382) rotate(90) scale(7.96555 9.24824)">
<stop stop-color="#0288C9"/>
<stop offset="1" stop-color="#59DDFA"/>
</radialGradient>
<radialGradient id="paint26_diamond_140_918" cx="0" cy="0" r="1" gradientUnits="userSpaceOnUse" gradientTransform="translate(631.297 553.466) rotate(90) scale(7.96555 9.24824)">
<stop stop-color="#0288C9"/>
<stop offset="1" stop-color="#59DDFA"/>
</radialGradient>
<radialGradient id="paint27_diamond_140_918" cx="0" cy="0" r="1" gradientUnits="userSpaceOnUse" gradientTransform="translate(1088.88 415.617) rotate(90) scale(7.61674 7.87926)">
<stop stop-color="#0288C9"/>
<stop offset="1" stop-color="#59DDFA"/>
</radialGradient>
</defs>
</svg>
