<svg width="1700" height="1700" viewBox="0 0 1700 1700" fill="none" xmlns="http://www.w3.org/2000/svg">
<path d="M1121.72 749.021L1126.69 756.109L1132.77 762.146L1134.71 766.345L1138.85 769.233M1216.76 901.787L1209.58 899.95L1205.43 898.375L1202.67 895.488L1200.19 889.713L1195.76 885.251L1191.62 877.376L1188.03 871.077L1184.16 867.139L1177.53 853.228L1176.15 834.066L1174.77 827.898M1138.85 769.233L1143 772.12L1147.14 777.37L1152.67 784.982L1158.74 789.707L1164.55 795.219L1169.24 801.518L1171.73 806.243L1173.39 821.73L1174.77 827.898M1138.85 769.233L1136.36 775.532V781.832V789.707L1138.85 796.794L1143 806.243L1148.52 814.643L1154.6 828.292L1157.36 837.479V842.991V855.853V863.465V887.613L1161.23 903.625L1164.82 917.011L1171.15 924.099M1172 1077.65V1075.03V1065.58L1174.21 1054.03L1177.53 1044.32L1181.12 1039.85V1030.67V1023.84L1187.75 1013.34L1188.72 1010.72M1188.72 1010.72L1191.9 1002.06L1195.76 992.607V972.133V961.109L1189.13 946.672L1180.85 933.81L1172.56 925.673L1171.15 924.099M1188.72 1010.72L1190.24 1017.28V1022.53V1029.09V1035.13L1191.9 1041.17L1195.76 1048.25L1198.8 1056.13L1200.74 1061.9L1201.93 1064.27M1247.15 1139.86L1244.11 1130.15L1241.63 1121.75L1239.97 1116.24L1237.76 1110.46L1230.02 1103.11L1225.88 1099.18L1222.84 1097.08L1217.04 1094.71L1215.38 1090.51L1213.72 1085.53L1211.24 1079.75L1207.37 1075.03L1201.93 1064.27M1171.15 924.099C1171.15 922.699 1171.15 922.104 1171.15 930.923L1172.56 937.223L1171.87 942.341M1156.81 989.195L1157.91 984.47V978.17L1160.4 973.183L1162.33 968.983L1164.82 965.046L1167.86 962.421L1169.24 958.484L1171.15 952.184L1171.18 947.46L1171.87 942.341M1171.87 942.341L1173.94 947.46V952.184V956.647L1176.15 962.421V967.671V972.133V976.07L1177.81 982.108V985.782L1179.46 990.245V994.182L1177.81 997.857L1174.77 1002.58L1171.87 1005.99L1167.86 1010.72M1157.91 885.251L1155.98 887.613L1152.11 892.338L1148.8 895.488L1144.65 899.95L1141.89 903.625L1139.96 907.824L1141.89 912.024L1143.27 917.011L1144.65 920.686L1146.31 926.723L1147.42 930.923V935.648L1148.8 941.422L1149.9 945.36L1148.8 948.772L1144.65 952.184L1142.44 957.172L1139.96 963.996M1174.77 827.898L1173.39 837.479V840.629V853.228L1172.56 859.002L1171.15 866.089L1171.45 871.864L1171.87 877.376V883.676L1173.94 886.301L1178.91 895.488L1188.03 901.787L1191.62 906.25L1195.76 909.924L1198.25 913.599L1200.19 915.59M1225.88 937.223L1222.84 935.648L1219.52 932.498L1216.76 929.348L1210.96 925.673L1205.43 919.636L1201.57 917.011L1200.19 915.59M1200.19 915.59L1205.43 925.673L1206.54 929.348L1210.96 941.422L1214.55 950.084L1216.76 955.334L1218.14 965.046L1219.52 970.033V974.233L1214.55 979.745L1212.07 991.557V994.182L1213.45 998.907L1214.55 1005.99M1214.55 1005.99V1010.72L1220.63 1014.39L1222.84 1017.28L1227.54 1021.22L1230.58 1025.15L1242.18 1041.17L1246.6 1046.94L1250.19 1052.98L1255.16 1058.75L1260.97 1067.15L1265.11 1072.66M1214.55 1005.99L1212.07 1014.39V1017.28V1022.53V1026.99L1213.45 1032.5V1036.18L1215.38 1039.85L1217.31 1043.27L1218.97 1046.94L1220.63 1050.88L1224.22 1056.13L1227.54 1060.07L1228.64 1061.9M1201.93 1064.27L1200.74 1067.15V1072.66V1081.85V1087.89V1092.09V1099.18L1201.57 1106.53L1203.22 1112.3L1205.99 1117.29L1209.03 1121.75V1130.15L1210.17 1133.04M1256.27 1234.09L1250.74 1228.58L1247.15 1225.69L1244.11 1221.49L1238.59 1215.46V1207.06L1236.93 1202.33L1233.62 1195.24L1231.68 1189.47L1228.64 1181.33L1225.6 1173.2L1222.01 1169.26L1220.63 1166.77M1210.17 1133.04L1212.34 1138.55L1213.45 1143.01L1215.1 1150.88L1217.04 1155.08L1219.25 1164.27L1220.63 1166.77M1210.17 1133.04L1209.03 1136.97L1208.47 1140.65L1207.09 1147.47L1204.88 1152.46L1203.22 1157.18V1160.86V1165.85L1201.57 1173.2V1181.33V1185.53L1203.22 1197.08V1201.28V1204.96L1204.88 1210.73V1224.12L1205.99 1227.27L1209.03 1230.16L1210.96 1232.78L1212.34 1234.09L1215.66 1239.08L1218.42 1243.54L1219.8 1245.64L1222.84 1248.27L1227.54 1250.89L1230.58 1254.3L1233.62 1256.93L1236.93 1259.82L1240.8 1263.23L1245.5 1268.74L1249.09 1273.99L1256.27 1279.24L1259.03 1282.13L1263.73 1285.54L1268.15 1288.95L1272.57 1291.58L1275.33 1293.41M1220.63 1166.77L1219.25 1171.62V1176.87V1182.91V1189.47V1195.24V1199.44L1219.8 1203.12L1219.25 1207.06L1216.76 1210.73V1214.14L1215.66 1219.39V1224.12V1227.27" stroke="url(#paint0_linear_140_923)" stroke-width="5"/>
<path d="M1247.15 1139.07L1249.36 1145.64L1251.57 1153.25L1253.51 1184.75L1251.57 1193.93" stroke="url(#paint1_linear_140_923)" stroke-width="5"/>
<path d="M569.162 781.306L564.741 784.98L557.005 791.018L548.441 802.042L543.744 812.016L543.175 813.854M510.866 866.613L512.8 859.526L518.602 853.226L526.614 846.139L531.864 841.021M510.866 866.613V878.95L515.287 891.287L516.945 901.786V911.498V917.01L515.287 921.735L514.024 923.31M510.866 866.613L501.473 871.075L495.671 878.162L489.04 883.675L483.238 889.449L479.094 896.274L476.884 911.498L474.95 941.946M514.024 923.31L490.974 954.808L496.5 946.933L499.815 942.734L503.407 939.321L507.551 932.497L510.866 927.247L512.971 924.622M514.024 923.31L512.971 924.622M512.971 924.622L514.734 930.397V938.009V945.621L515.287 952.97V962.42L513.906 970.032L508.932 977.119L505.341 982.631L502.578 988.406M502.578 988.406L506.999 997.593L509.485 1005.47L511.695 1013.08L514.734 1023.84L515.563 1030.14L516.945 1039.85V1050.61L517.497 1056.13L515.563 1062.16L508.38 1072.4L503.959 1078.96L500.92 1083.16M502.578 988.406L496.5 1002.58L491.507 1014.13M487.106 1106L490.145 1101.54L493.737 1095.5L497.881 1087.36L500.92 1083.16M500.92 1083.16L503.959 1088.67V1093.4V1100.22V1104.69L501.473 1110.46L498.71 1119.12L496.5 1123.59L495.118 1129.1L490.974 1138.02L487.383 1146.68L485.725 1160.6L484.896 1179.23L484.067 1187.89L483.515 1194.72L480.752 1204.69C480.015 1208.19 478.984 1215.66 480.752 1217.55C482.52 1219.44 483.699 1220.62 484.067 1220.97M543.175 813.854L540.981 820.941V826.715L537.113 835.902L531.864 841.021M543.175 813.854L534.074 815.954L524.68 817.528L516.392 819.103L506.998 821.728L501.473 827.503L497.052 833.54L494.566 838.527L492.079 842.989V844.827M531.864 841.021L535.179 848.239L538.494 859.526L540.152 866.613L543.191 883.675L540.152 894.436L535.455 907.561L532.692 915.698L538.218 925.935L540.981 930.397L544.296 936.959L550.374 943.783L551.756 945.621L555.624 949.033M533.798 919.372L531.587 924.622V933.284V941.946V946.933L534.626 951.133L536.008 963.732L538.218 970.032L539.876 977.119L539.047 986.306L536.008 989.193L533.798 997.593L531.587 1004.68L528.824 1014.13M474.95 941.946L462.241 957.958L449.808 974.232L435.442 986.306L426.601 999.693L419.694 1010.72L412.787 1021.48L406.156 1046.94M474.95 941.946V957.958L468.595 989.193L462.241 1014.13L456.163 1021.48L437.928 1056.13L432.127 1066.1L419.694 1069.78L412.787 1078.96L406.156 1090.77M468.595 1062.16V1050.61L474.95 1039.85L482.133 1027.25L490.145 1017.28L491.507 1014.13M468.595 1062.16L462.241 1076.86L456.163 1100.22L449.808 1116.5V1123.59V1138.02M468.595 1062.16V1076.86L472.74 1090.77L468.595 1106L465.833 1129.1L462.241 1160.6L456.163 1179.23L445.941 1194.72L441.796 1210.47L435.442 1227.79L424.943 1244.07L420.523 1255.61L416.931 1264.01L413.892 1274.25L409.472 1283.96L404.775 1295.51L399.802 1302.07M491.507 1014.13L493.737 1027.25L496.5 1034.6L502.578 1043.79V1050.61" stroke="url(#paint2_linear_140_923)" stroke-width="5"/>
<path d="M574.134 708.073H571.371L567.503 709.386H561.149L556.452 710.436L549.822 711.486L548.578 715.029M534.902 782.356V777.107V770.02V766.082V759.258V750.071V746.921M534.902 746.921V745.871L539.599 739.309L544.848 728.81L547.335 718.573L548.578 715.029M534.902 746.921L528.824 750.071L524.127 751.646L521.088 753.483L515.563 758.208L513.353 760.833L508.38 765.032L507.274 770.02V773.169V774.219M548.578 715.029H543.191L536.836 717.26L528.824 720.148L521.088 724.872L517.497 727.76L516.115 729.597" stroke="url(#paint3_linear_140_923)" stroke-width="5"/>
<path d="M576.621 678.675L574.411 681.825L571.648 684.187L570.97 686.549M562.807 699.674L565.846 698.099L568.333 695.474L570.267 693.636L570.819 689.437V687.074L570.97 686.549M570.97 686.549H566.399L559.768 687.074L553.69 688.649L549.546 691.012L546.507 693.636L544.849 694.686" stroke="url(#paint4_linear_140_923)" stroke-width="5"/>
<path d="M578.556 662.401H572.754L561.979 663.451L554.796 665.026H546.507L541.949 663.189L540.706 662.688M507.828 640.353H511.973L516.117 641.402L520.537 645.34L521.919 648.49L527.997 654.002L531.312 657.414L537.39 661.351L540.706 662.688M540.706 662.688L539.877 665.026L537.39 668.701L534.075 670.013L528.826 673.163L524.681 675.525L518.88 677.625H511.973L505.066 675.525L500.092 673.163L497.606 671.851" stroke="url(#paint5_linear_140_923)" stroke-width="5"/>
<path d="M583.528 633.528V626.704L575.24 619.354L571.648 610.692V607.017M537.39 549.796L543.191 556.358L554.243 563.707L565.294 575.519L571.648 596.255V607.017M537.39 549.796L532.693 536.409V527.747M537.39 549.796L535.456 554.258L533.522 559.245L530.206 561.608L525.233 563.707L521.089 566.595L517.497 568.432L513.906 573.944V578.144V582.606M571.648 607.017L566.399 605.18L559.492 602.555L548.717 599.668L547.059 593.631L544.02 587.856L543.191 584.181" stroke="url(#paint6_linear_140_923)" stroke-width="5"/>
<path d="M394 1311V1244.05V1209.15L398.42 1157.72L403.394 1126.96V1104.74V1079.67V1040.12V1010.14L408.367 976.799V948.368L417.76 920.713L432.127 885.304L439.586 871.864V811.643V768.222V737.465L445.664 702.573L453.124 665.613L467.49 636.407V607.977L460.86 576.186V522.426L473.569 486.242L492.908 451.35L522.47 427.83L544.296 413.041L564.741 403.329L631.324 386.735L694.04 361.406L726.917 347.966L756.479 322.637V297.308V265H934.68V297.308V322.637L969.215 352.618L1001.26 366.058L1035.25 378.722L1064.81 391.387L1096.03 395.192L1126.14 405.954L1144.93 413.566L1174.49 432.482L1199.91 457.811L1220.08 493.22L1230.3 525.011V566.881L1226.16 597.638L1220.08 635.632L1238.59 676.727L1246.32 712.136L1254.06 769.773V822.757L1246.32 874.19L1269.25 911.15L1280.03 948.368L1285.28 1028.23V1123.86L1294.4 1202.18L1306 1297.61L1213.72 1308.92L1207.37 1256.45L1200.74 1221.04L1193 1182.27L1172 1123.86L1153.49 1057.44L1137.47 994.116L1128.9 896.159L1120.34 829.218L1110.67 648.296L1101.83 780.111L1090.78 822.757L1080 870.313L1071.44 904.947L1066.47 926.658L1075.58 981.71L1080 1081.99L1093.54 1187.7L1113.71 1277.13V1310.21" stroke="url(#paint7_linear_140_923)" stroke-width="20"/>
<path d="M394 1305.75L479.094 1308.11L481.028 1260.86L492.356 1206.79L500.92 1159.02L518.879 1107.05L530.206 1063.74L538.771 1035.13L552.032 987.356L556.729 949.559L561.702 897.324L569.99 836.165L585.462 632.478L605.078 836.165L621.102 904.674V941.422L613.643 973.97L608.946 1031.45V1080.8L599.552 1141.96L590.988 1199.71L575.792 1267.16L573.858 1305.75L1114.54 1310.21" stroke="url(#paint8_linear_140_923)" stroke-width="20"/>
<path d="M786.042 270.513L799.579 294.136L805.105 315.135L791.291 334.296L779.411 347.421L791.291 369.994L786.042 384.693L799.579 399.655L786.042 405.692L771.123 399.655L758.414 390.993L749.02 387.318H732.443L714.485 393.88L705.644 402.542M705.644 402.542L697.908 409.629H687.133M705.644 402.542C703.066 404.905 695.753 409.629 687.133 409.629M687.133 409.629H674.425H666.136L648.731 418.816M697.908 411.204L687.133 422.491L681.884 428.791L676.635 435.878L671.662 440.865L663.097 445.852L648.731 453.464L639.89 455.302H632.706L626.352 461.339L620.55 465.539L617.235 461.339L612.814 456.877L618.616 467.638L626.352 476.3L631.049 483.387L634.64 488.112V505.174L629.667 509.898L624.418 516.198L622.208 520.398V530.897V543.496V575.782L619.997 590.744V597.306L616.682 601.505M616.682 601.505L610.604 599.406L605.631 594.943L600.934 590.744L597.342 586.281L595.685 579.982L597.342 575.782M616.682 601.505L619.169 614.892L619.997 621.192L622.208 632.216L625.523 635.103V647.703L626.628 652.69L628.838 660.302M628.838 660.302L637.956 657.677L642.376 651.64L643.481 645.865V633.266L646.797 626.966L652.046 621.192L658.953 613.842M628.838 660.302L622.208 669.751L619.997 676.576L619.169 682.088M658.953 613.842L662.268 609.38M658.953 613.842L658.124 605.18V594.943V588.644L661.163 582.607L663.097 577.882L666.412 573.42L668.07 568.17V566.07M662.268 609.38L668.07 601.505L671.247 596.124M662.268 609.38L671.247 596.124M674.425 590.744L671.247 596.124M619.169 682.088H628.838L633.397 681.301M619.169 682.088L617.787 692.325V698.362M656.743 666.077L652.046 670.801L643.481 673.689L637.956 680.513L633.397 681.301M656.743 666.077L661.163 657.677L664.479 651.64L671.247 645.865L676.911 640.616L684.094 638.778M656.743 666.077L661.992 668.964H671.247L676.911 676.576L681.332 682.088L684.094 685.5L689.896 688.65L693.488 692.325M684.094 638.778L689.896 640.616H698.737H705.644H710.894L715.038 636.941L720.563 635.103M684.094 638.778L691.554 632.216L696.527 628.804L698.737 625.654L703.158 621.192L705.644 618.042M693.488 692.325H698.737L707.026 691.013L713.104 688.65M693.488 692.325L700.395 698.362L703.158 703.349L705.644 709.124L710.894 711.749L713.104 715.949H717.801H721.945M633.397 681.301L636.022 685.5L642.376 686.55L649.007 688.65H655.361L659.505 692.325L664.479 696.262L667.241 700.462L671.247 704.662L675.253 708.074L681.055 712.536M617.787 698.362H628.838L637.956 709.124V715.949L643.481 723.561L652.046 729.598L661.163 733.01M617.787 698.362L619.997 711.749V718.573L619.169 727.235M661.163 733.01L676.911 748.759M661.163 733.01L661.992 744.559L675.253 758.471M619.169 727.235L611.156 730.648L607.012 735.635L609.223 748.759M619.169 727.235L624.142 736.947L626.352 743.247V748.759L622.208 767.395L619.997 774.483L628.838 783.932M628.838 783.932L635.745 792.594L643.481 798.369M628.838 783.932L626.352 801.256L627.457 810.705L629.944 819.367L635.745 830.129L640.995 842.991L643.205 850.734M643.481 798.369L649.007 799.681H661.163H668.623L673.872 803.618L684.371 812.018M643.481 798.369L643.205 810.705L646.797 827.242M645.415 858.478L643.205 850.734M643.205 850.734L655.085 848.503L668.623 858.478M799.579 402.542L809.525 415.929L823.063 428.791L829.694 443.752L827.207 459.239H825.135M724.984 434.828L743.495 428.791L753.164 426.166L758.414 427.478M758.414 427.478L763.663 428.791L773.057 431.153L787.699 434.828L799.579 440.865L809.525 448.215L816.985 454.777L823.063 459.239H825.135M758.414 427.478C758.782 426.428 758.69 423.489 755.375 420.129C752.059 416.769 747.915 414.704 746.257 414.092H734.654M825.135 459.239L827.207 476.038L831.628 483.387L836.325 489.162L844.889 500.449L849.033 511.998V513.573M849.033 558.72V548.484V527.747V513.573M849.033 558.72L841.298 551.633L829.694 542.709L820.3 535.884L809.525 527.747L799.579 521.71L795.781 518.823M849.033 558.72L850.139 583.394V604.655V634.578L847.376 644.028L844.337 654.79V663.714L850.139 671.064L851.52 686.025V699.412M784.66 498.612L790.462 510.423L794.054 517.51L795.781 518.823M795.781 518.823L790.462 523.285L785.489 526.96L779.411 530.372L772.78 531.422L765.321 529.322L762.558 524.335M851.52 699.412V709.386L856.769 723.298L860.637 739.047V748.234L858.98 767.133L852.901 774.483L851.52 779.995L850.277 788.919M851.52 699.412L842.403 712.536L838.535 731.698V744.034V767.133L844.613 776.845L850.277 788.919M847.1 847.191L844.613 832.754L841.298 825.405L842.403 804.668L849.033 797.844L850.277 788.919M847.1 847.191L850.967 859.265V869.239L849.586 882.364M847.1 847.191L838.535 855.59L831.075 862.94M849.586 882.364L859.532 890.501L868.373 896.8L872.794 904.412M849.586 882.364V896.8L851.52 924.099V937.223L848.205 950.347L843.784 982.108L848.205 999.957L851.52 1020.17L854.283 1031.45L855.388 1043.53L856.769 1052.72L854.283 1061.38L847.1 1067.68L841.021 1076.34V1091.83V1106.26M872.794 904.412L879.701 895.75L881.082 887.613V872.127L878.319 862.94V852.44L875.004 847.191L866.992 835.379L863.953 825.405L862.019 816.743V810.705L863.953 803.618L870.031 792.332L876.109 786.557L878.319 779.995V755.584L876.938 747.447L876.109 736.947L872.517 725.923L876.109 697.312L881.635 692.063L887.989 685.763M872.794 904.412V919.899V923.705M925.839 644.028V652.427L923.629 661.352L911.473 669.489L894.343 679.463L887.989 685.763M925.839 644.028H934.404L942.692 641.141L949.323 639.303L954.849 636.416L960.374 633.528M925.839 644.028L927.497 634.578L932.746 630.116L939.101 624.079L945.455 618.304L950.428 614.105M887.989 685.763L886.055 679.463V671.064L884.95 663.714L881.635 658.465L875.28 646.39L876.385 630.116V619.879L878.872 612.005H884.95L889.923 608.855M889.923 608.855H894.896L900.698 610.43H905.671L909.539 608.855L915.893 604.655M889.923 608.855L895.725 602.03L900.698 596.781L904.013 593.106L906.5 589.694M849.033 513.573L855.388 502.811L859.532 493.887L863.4 485.487L871.136 476.038L880.253 459.239L888.818 450.052L897.935 443.752L910.091 431.153L908.157 418.291L906.223 405.692L908.157 402.542L917.275 393.618L920.314 380.494M920.314 380.494V361.332V345.321M920.314 380.494L923.076 393.618L929.983 402.542L939.653 410.154M920.314 345.321L934.128 329.309M920.314 345.321V337.315M904.566 270.513V281.8V291.511L917.275 308.835V320.647L920.314 329.309V337.315M920.314 337.315L910.091 334.296H902.908L898.764 345.321L896.001 350.833L891.028 355.558L883.845 361.332H875.004L868.373 355.558L860.637 350.833L856.493 349.127M842.126 369.994V361.332L844.613 350.833L852.349 347.421L856.493 349.127M856.493 349.127L860.637 345.321L870.307 337.315L873.07 334.296L875.004 323.797M939.653 410.154H952.362H960.374L969.492 405.692H978.332M939.653 410.154L942.969 425.903L954.572 433.778L957.611 440.865V450.052V456.877L965.624 461.601L969.492 468.688L972.807 473.676L992.146 479.975L1004.86 485.487L1010.66 493.887L1015.35 502.811L1021.71 509.111L1025.85 517.248L1033.31 525.647L1041.32 538.247L1049.34 553.208L1063.15 564.495L1071.44 572.107M978.332 405.692L983.306 412.517L989.936 415.929L997.396 418.291H1004.86H1010.66M978.332 405.692H987.45L992.146 404.117L995.186 402.542M1071.44 572.107H1084.42L1093.82 576.044L1105.14 568.957L1111.5 564.495M1071.44 572.107L1077.24 585.231L1080 596.781V604.655L1086.08 619.879L1093.82 631.954L1105.14 668.964L1098.24 671.064V692.325V697.837L1100.72 703.874V711.749L1093.82 707.549L1089.67 700.462L1086.08 693.9L1081.94 685.763L1074.48 676.313L1071.58 673.689M1111.5 564.495L1113.71 557.671V546.384L1116.2 533.784M1111.5 564.495L1119.24 557.671L1127.25 555.046H1137.75H1140.79M831.075 862.94L823.616 875.014L815.604 882.364L808.973 895.75M831.075 862.94L827.207 857.165L824.445 846.403L821.682 838.266V826.979L824.445 816.743V809.131L825.55 793.644V786.557L821.682 775.795L817.538 768.183L812.288 757.159L808.42 747.447M808.973 895.75L819.748 908.35L823.616 915.962L826.379 930.136L819.748 944.047L815.604 955.334L819.748 970.296L823.616 984.47L826.379 995.232V1008.62L833.286 1020.17V1038.8L828.589 1047.47M808.973 895.75L804.276 887.613M828.589 1047.47L814.222 1040.64L804.829 1028.04L797.922 1017.54L790.186 1006.78L781.621 999.957H772.504L762.005 995.232L748.468 991.032L742.942 982.108M828.589 1047.47L824.445 1055.87L814.222 1065.84M771.399 999.957L768.083 1006.78L762.005 1008.62H755.927H748.468H741.561H735.206L728.023 1006.78L722.497 1005.73H716.695H707.854M814.222 1065.84H804.829H791.567L783.279 1069.78L771.399 1073.45L767.255 1076.34M814.222 1065.84L808.42 1078.18V1083.43L811.736 1088.41L814.222 1091.83L818.71 1101.54M767.255 1076.34V1087.1L775.543 1095.24L781.345 1106.26L786.594 1116.5L788.528 1125.16L792.396 1136.71V1144.06L794.33 1157.45M767.255 1076.34L762.005 1074.76L756.203 1072.66L753.164 1068.73L748.191 1065.84H742.666L739.903 1068.73M794.33 1157.45L802.618 1148.79L811.736 1146.16L819.195 1144.06L827.484 1146.16L836.325 1151.41M794.33 1157.45V1165.06L788.528 1169.52L779.411 1177.4L777.585 1178.45M836.325 1151.41L844.613 1146.16L848.55 1139.07M836.325 1151.41L833.009 1155.08L828.589 1160.07L822.234 1163.43M841.021 1106.26L844.613 1113.09L852.349 1121.22V1125.95M841.021 1106.26H835.496L832.733 1103.38H829.141L824.445 1101.54H818.71M884.397 1095.24L881.911 1089.99L875.556 1076.34L866.163 1065.84L871.136 1057.44L877.49 1052.72V1038.8V1017.54L875.556 1006.78L871.136 999.957L867.821 982.108L869.478 971.871L872.794 963.471L873.899 950.347V937.223L872.794 927.511V923.705M884.397 1095.24L890.199 1106.26M884.397 1095.24L877.49 1100.49L873.899 1106.26L873.346 1109.15M890.199 1106.26L897.382 1108.89L907.881 1113.09L919.209 1121.22L922.248 1123.46M890.199 1106.26V1116.5L892.133 1125.16L897.382 1130.67L901.25 1134.35L907.881 1142.22M1017.01 1104.69L1010.93 1102.59L1002.92 1100.49L993.804 1098.13L983.029 1093.4H976.122H969.768L968.663 1098.13L966.176 1104.69L958.717 1113.09L949.323 1118.34L941.587 1125.69L934.404 1129.19M1017.01 1104.69L1023.92 1100.49L1028.62 1095.24L1030 1087.1M1017.01 1104.69L1005.96 1116.5L1000.71 1121.22L997.258 1123.98M1030 1087.1V1076.34L1023.92 1065.84L1018.95 1060.07L1015.08 1049.83L1008.17 1040.38V1037.49M1030 1087.1L1031.38 1091.56L1032.21 1096.03V1102.59V1107.84V1113.09V1121.22L1034.14 1130.67V1133.82M998.501 926.461L1005.13 931.448L1010.52 934.336M998.501 926.461H990.489L983.858 934.336L979.714 940.898L971.702 949.297M998.501 926.461L1000.43 917.799L1005.13 914.649L1010.93 909.924L1014.8 903.1L1015.91 896.8L1017.29 890.501M971.702 949.297L962.308 954.284L958.164 961.109L954.296 967.146L952.362 975.546V985.782L949.323 993.919L944.35 1001.27L936.338 1004.42L928.05 1001.27L921.143 997.594L914.788 992.607L909.815 985.782L904.289 980.533L900.145 973.183L897.382 959.009V949.297V938.535V931.448M971.702 949.297L962.308 945.36L955.678 943.522L949.047 940.898L941.587 934.336L934.68 929.348L930.26 924.099L929.597 923.705M897.382 931.448L891.028 926.461L884.95 924.099L872.794 923.705M897.382 931.448L901.803 924.099L908.71 921.474H914.788H925.839L929.597 923.705M929.597 923.705L934.68 917.799L939.101 911.237L946.008 908.35L954.02 905.462L962.308 903.1L973.636 896.8L978.885 893.125L982.2 886.301V875.277V869.239L974.741 872.127L965.071 874.227L958.164 872.127L954.02 866.352L947.389 857.953L941.311 850.603L936.614 847.191L928.602 841.416L920.866 838.266L912.854 835.379M808.42 747.447V725.923V718.573M808.42 747.447H801.513L797.093 750.334L792.672 757.159L787.147 762.671M808.42 718.573L812.288 705.712L819.472 699.412L823.892 693.375L826.931 678.151L829.694 669.489L831.075 652.427M808.42 718.573L805.658 711.749L801.513 705.712L797.093 702.299H790.462H783.279L771.399 703.087H764.768L761.729 698.625M831.075 652.427L823.892 648.753L810.631 646.39L803.171 641.141L795.711 633.004L792.672 626.704L793.778 612.005L792.672 602.03L787.423 595.206L782.174 589.694L771.123 587.856L764.216 583.394L762.558 578.932M831.075 652.427L829.694 642.453L826.931 634.578L823.892 628.541L817.814 618.304L811.736 608.855L806.763 600.718L800.961 591.006L795.711 586.544H787.423H778.582L770.017 584.969L766.702 583.394M761.729 698.625V693.375V687.338L758.414 682.351L752.336 677.363L749.02 673.164L747.362 666.864V661.089V654.79M761.729 698.625L756.203 695.737L752.336 689.963L749.02 686.025L746.257 682.351L744.876 679.201M787.147 762.671L782.45 766.346L775.543 770.02H769.189L763.387 768.183L757.032 765.558H752.336H746.257L741.284 768.183L734.377 773.17M787.147 762.671L788.528 770.02L789.633 775.27L791.567 781.832M804.276 887.613L799.856 878.426L795.988 870.289L791.291 866.877L785.489 862.94H778.582L772.78 860.315L766.702 855.59M804.276 887.613L793.501 889.188L785.489 890.501L778.582 896.8L770.017 901L760.071 903.1L749.573 904.412H739.627L732.996 905.2L729.681 909.924M766.702 855.59L761.729 849.553L755.927 843.253L748.468 838.266L743.218 832.754M766.702 855.59L760.071 857.165H751.783H743.218H735.759L729.681 855.59L726.641 852.44L721.116 848.241M767.255 1147.21L776.924 1139.07L781.345 1134.35L794.33 1126.74L802.618 1122.54L813.393 1113.87L819.748 1107.05L819.195 1102.59L818.71 1101.54M759.519 1194.46L768.912 1183.43L777.585 1178.45M759.519 1194.46V1198.92L764.492 1206.01L767.807 1214.67L768.912 1220.71L773.463 1228.06M759.519 1194.46L754.269 1204.43L749.02 1208.46M797.645 1250.37L793.225 1245.38L780.516 1235.67L774.438 1229.63L773.463 1228.06M797.645 1250.37V1252.99L792.12 1261.13L784.66 1269.27L780.516 1277.93M797.645 1250.37L802.618 1248L806.21 1243.28L808.144 1237.5L811.736 1231.47V1224.38V1215.72L810.631 1208.46L807.868 1199.97L804.829 1194.46L800.408 1189.73L799.579 1186.58M780.516 1277.93L776.372 1287.9L767.807 1302.34M780.516 1277.93L774.438 1274.78L765.597 1272.42L759.519 1266.12L750.954 1257.19L747.639 1254.44M780.516 1277.93L784.66 1282.13L788.528 1286.06L789.91 1288.95L792.12 1291.84L795.159 1294.99L797.645 1298.93L801.513 1301.81M745.981 1234.62L744.323 1251.68L747.639 1254.44M745.981 1234.62L747.086 1209.94L749.02 1208.46M745.981 1234.62L734.101 1235.67H724.708L717.524 1234.62L711.999 1231.47M749.02 1208.46L744.323 1200.76L739.35 1196.29L738.628 1195.54M715.038 1165.06L721.668 1176.35L726.089 1183.43L731.615 1188.16L738.628 1195.54M738.628 1195.54V1186.58V1176.35V1165.06V1157.45V1148.79L735.759 1141.44L733.272 1134.35V1123.59M777.585 1178.45L772.78 1176.35L768.912 1169.52L763.11 1162.17L759.519 1155.08L757.032 1148.79L754.269 1141.44M822.234 1163.43L821.129 1164.01L815.604 1167.95L809.249 1171.88L802.618 1178.45L798.751 1183.43L799.579 1186.58M822.234 1163.43L827.484 1169.52L830.246 1174.77L833.009 1185.53M833.009 1185.53L834.667 1193.15V1198.92L836.325 1206.01L841.021 1216.51M833.009 1185.53L827.484 1189.73L822.234 1191.31H815.604H813.393M799.579 1186.58L796.54 1189.73L794.33 1195.54L793.225 1201.81L792.396 1207.06V1212.83V1219.66L794.33 1225.43M894.62 1153.51H890.199L885.779 1148.79L881.911 1144.06L877.49 1139.07L875.556 1130.67L873.899 1118.34L872.794 1112.04L873.346 1109.15M922.248 1123.46L925.287 1125.69L931.365 1130.67L934.404 1129.19M922.248 1123.46V1130.67L921.143 1138.29L919.209 1144.06L915.617 1153.51L911.196 1165.06L905.947 1173.2L899.869 1174.77L892.133 1176.08L890.199 1173.2L885.779 1169.52L881.911 1167.95L877.49 1165.06L870.86 1167.95L863.953 1169.52M934.404 1129.19L938.824 1139.07L941.587 1146.16L942.692 1151.8M977.504 1167.95L973.359 1174.77L970.32 1181.33L964.795 1186.58L960.651 1191.31L954.849 1194.46L953.882 1192.1M977.504 1167.95L978.609 1154.3V1146.16L980.819 1138.29L986.345 1132.25L993.804 1126.74L997.258 1123.98M977.504 1167.95L980.819 1174.77L984.687 1177.92L986.345 1183.7L989.107 1187.9L991.041 1192.1L993.804 1202.07M942.692 1151.8L943.797 1157.45V1164.01L947.113 1173.2L950.704 1181.33L952.915 1189.73L953.882 1192.1M942.692 1151.8L937.167 1161.38L932.746 1165.06L928.878 1171.1L923.905 1177.66L921.143 1189.73V1193.01M921.143 1216.51V1212.31V1202.07V1196.29V1193.01M921.143 1216.51L928.878 1212.31L934.404 1209.42L937.996 1207.71M921.143 1216.51L918.38 1224.38V1226.61M953.882 1192.1L947.113 1202.07L941.587 1206.01L937.996 1207.71M937.996 1207.71L940.482 1215.46L943.797 1225.96V1238.29L950.704 1254.04L954.849 1261.39L957.75 1264.93M997.258 1123.98L997.948 1132.25L1000.71 1147.47L1002.37 1157.45V1167.95V1179.23L997.948 1191.31L993.804 1198.92L986.621 1212.31L983.582 1217.82L980.543 1221.1M921.143 1193.01L911.196 1194.46L903.461 1193.15L897.382 1194.46L891.304 1197.08L883.016 1201.54L875.556 1206.01V1207.06M888.818 1234.09L883.016 1228.84L880.253 1224.38L875.556 1217.82V1212.31V1207.06M875.556 1207.06L868.097 1206.01L863.953 1202.07L855.388 1198.92L849.862 1197.08M925.563 1266.9V1258.77L926.668 1249.84L925.563 1243.28L921.143 1235.93L918.38 1228.84V1226.61M925.563 1266.9L926.668 1270.84L932.746 1274.78L937.996 1279.76L943.797 1283.96L947.113 1286.85L948.494 1291.31L950.704 1296.04L957.335 1303.13M925.563 1266.9L921.143 1274.78L916.722 1279.76V1288.43M916.722 1288.43L914.512 1296.04L912.854 1303.13M916.722 1288.43L923.629 1294.46L928.878 1296.04L931.089 1298.14L934.404 1304.44M980.543 1221.1L977.504 1224.38L969.215 1237.24L966.729 1250.63L962.585 1261.39L960.651 1268.48L957.75 1264.93M980.543 1221.1L983.582 1228.84L986.621 1232.78L989.384 1238.29L995.462 1243.28L997.948 1247.48L1001.54 1250.63M1001.54 1250.63V1254.04L1004.3 1261.39L1005.96 1266.9L1009.28 1274.78M1001.54 1250.63L1005.96 1254.04L1009.28 1256.67L1015.91 1258.77H1017.56M1009.28 1274.78L1015.91 1279.76L1020.6 1281.6L1026.96 1279.76L1032.21 1274.78L1037.18 1270.84L1041.6 1266.9L1044.09 1261.39L1047.4 1258.77L1052.38 1254.04L1054.31 1250.63M1009.28 1274.78L1017.56 1283.96L1020.6 1288.43L1026.96 1296.04L1030.27 1299.71V1304.44M957.75 1264.93L964.242 1270.84L972.254 1276.35V1281.6L976.399 1285.8L977.504 1292.63L983.582 1298.14L985.239 1304.44M918.38 1226.61L912.854 1230.16V1234.09V1240.39L909.815 1245.9L908.157 1249.84M1008.17 1037.49V1029.62L1011.21 1017.54L1018.95 1009.93L1028.06 996.544L1031.1 979.483V974.758M1008.17 1037.49L1005.96 1046.68V1054.82V1061.9L1004.58 1069.78L999.33 1073.98L995.738 1076.34M711.999 1231.47L706.749 1224.38L702.053 1217.82L696.527 1207.06L692.106 1201.81L686.028 1195.54L675.53 1186.58V1178.45V1171.88L670.833 1165.06L665.86 1157.45L662.545 1152.98V1147.21M711.999 1231.47L702.053 1235.67L692.106 1237.5M675.253 1186.06L669.728 1184.22L664.202 1182.65L660.334 1181.6L656.19 1179.23L649.836 1174.25M692.106 1237.5L686.028 1240.65L681.884 1245.38L677.74 1254.83L677.187 1258.37M692.106 1237.5L694.317 1241.7L697.908 1243.28L702.053 1246.17L706.749 1248.79L710.617 1251.68L713.38 1254.83L717.524 1256.4L720.287 1261.13M657.848 1281.08L664.202 1274.78L670.833 1266.12L676.635 1261.92L677.187 1258.37M657.848 1281.08L652.322 1285.8L649.836 1290.79L644.31 1296.83V1300.24M657.848 1281.08L655.085 1287.9V1290.79V1293.94L653.98 1298.66V1300.24L652.875 1301.81M677.187 1258.37L670.833 1251.68L667.241 1245.38L666.136 1239.87L664.202 1235.67L661.163 1230.68L658.815 1228.19M632.43 1209.94L635.745 1213.36L639.337 1217.82L645.139 1219.66L652.322 1223.07L656.466 1225.69L658.815 1228.19M658.815 1228.19L657.848 1231.47L655.085 1233.83L649.836 1235.67L646.52 1239.87L641.824 1241.7L637.679 1243.28L633.259 1244.33L629.391 1246.17L628.562 1251.68V1257.19L626.628 1261.92L625.799 1266.9L624.142 1271.89L621.931 1276.09L619.169 1281.08L615.024 1286.59L613.367 1288.69M720.287 1261.13L718.629 1266.12L714.209 1271.37L711.999 1276.35L708.407 1281.08L703.71 1285.8L697.908 1291.84L693.488 1296.83L687.686 1301.81M720.287 1261.13L724.708 1266.12L725.536 1269.27V1273.47L726.641 1278.71V1282.13L724.708 1285.01L722.497 1288.95L720.287 1291.84L716.695 1293.94M747.639 1254.44L747.086 1259.55L745.981 1262.97L747.086 1267.17L749.02 1271.37L750.954 1274.78V1278.71L752.612 1283.18V1287.9V1293.94L749.02 1296.83L743.495 1299.71H734.101L728.299 1301.81M773.463 1228.06L770.57 1231.47L767.807 1235.67L764.492 1239.08L762.005 1243.28L760.624 1245.38L759.519 1248.79M848.55 1139.07L849.862 1136.71L852.349 1130.67V1125.95M848.55 1139.07V1146.16V1149.84L849.862 1154.3L852.349 1157.45L853.454 1161.38L854.559 1164.27M852.349 1125.95L856.493 1132.25L858.703 1135.66L861.466 1139.07M873.346 1109.15L870.86 1111.25L866.992 1114.66L863.953 1117.55L861.466 1120.44L859.808 1122.27M1020.05 939.06L1024.19 940.898L1026.96 950.347L1031.1 967.146V974.758M1020.05 939.06L1015.91 937.223L1010.52 934.336M1020.05 939.06L1022.81 934.336V928.561L1024.19 922.261L1030.27 917.799L1032.48 911.762L1035.52 905.462V896.8L1037.46 890.501M1010.52 934.336L1009 939.848V943.785L1012.04 948.772L1012.87 959.272L1017.84 960.584L1021.16 964.784L1025.3 968.721L1031.1 974.758M1045.74 645.34L1049.34 650.59L1055.69 657.94L1062.05 665.814L1068.68 671.064L1071.58 673.689M1071.58 673.689L1073.93 668.176L1075.58 660.564L1073.93 652.165L1071.58 646.653V642.978L1073.93 637.466" stroke="url(#paint9_linear_140_923)" stroke-width="5"/>
<path d="M1096.58 782.619H1087.19L1081.94 779.732L1079.45 773.694M1079.45 773.694L1072.82 769.232M1079.45 773.694L1076.41 781.044L1072.82 786.294L1070.33 792.068L1068.75 793.643M1072.82 769.232L1061.77 763.983L1059.34 761.883M1072.82 769.232L1080 768.445L1085.25 766.345L1090.78 763.983L1094.65 759.52L1096.58 754.796L1093.26 750.596L1089.95 748.758L1085.25 738.784M1012.04 723.822L1021.15 726.185L1027.79 729.86L1035.25 735.897L1041.32 742.459L1043.26 744.536M1043.26 744.536L1047.68 749.283L1052.65 756.108L1059.34 761.883M1043.26 744.536L1036.63 746.396H1029.44L1021.15 750.596L1017.56 756.108L1013.7 761.883L1010.93 766.345L1005.96 771.595L1002.37 775.007M1017.56 757.683L1012.04 756.108H1005.96L998.223 754.796H990.488L988.001 754.008M1059.34 761.883L1057.9 767.395L1052.65 773.694L1043.26 779.732L1034.14 783.931L1026.13 786.294L1017.56 788.131H1007.06L994.908 787.344L988.001 786.294L980.818 783.931L977.779 785.113M951.808 802.305L959.268 796.793L968.109 791.018L974.74 786.294L977.779 785.113M977.779 785.113L972.806 782.619L964.794 781.044H957.887H951.808L949.875 779.732M1041.32 822.517L1043.26 814.38L1044.64 807.292L1046.3 802.568L1057.9 800.205L1064.25 798.106L1068.75 793.643M1044.64 805.718H1041.32H1035.25M1068.75 793.643L1070.33 800.205L1066.19 810.442L1064.25 816.479L1062.04 820.942V826.191V832.491V836.953L1060.39 840.628L1057.9 844.303L1056.24 849.815L1052.65 856.902V859.527M1085.25 738.784L1081.94 732.747L1078.07 723.822L1076.41 714.373L1074.61 712.536M1085.25 738.784L1074.48 735.897L1070.33 732.747L1067.57 729.86L1063.98 726.185L1057.9 720.148L1052.65 710.698L1047.68 703.874L1043.95 700.724M1043.26 677.888L1047.68 684.45L1052.65 691.274L1056.24 697.574L1059.34 699.936L1063.98 703.874L1067.57 706.236L1072.82 710.698L1074.61 712.536M1008.72 689.962L1013.7 687.075L1020.05 688.387L1031.93 691.274L1040.22 697.574L1043.95 700.724M1043.95 700.724L1038.01 702.299L1034.14 705.186L1027.79 707.548L1024.19 708.861M1074.61 712.536V708.076L1075.58 702.824V697.574L1074.48 693.899" stroke="url(#paint10_linear_140_923)" stroke-width="5"/>
<path d="M936.338 848.24L932.47 854.277H924.182H916.446H907.881L901.527 850.34L893.238 848.24L885.226 845.353L873.623 841.94" stroke="url(#paint11_linear_140_923)" stroke-width="5"/>
<path d="M1114.54 700.199L1119.26 692.587M1167.03 589.168L1163.16 598.092V608.067L1159.57 616.991L1148.8 625.916L1141.06 632.74L1137.33 642.584M1137.33 642.584L1133.6 652.427V661.351L1126.95 669.183M1137.33 642.584L1139.4 646.915L1141.89 651.639L1146.03 653.739L1153.49 658.726L1157.91 661.351L1162.06 665.026L1167.86 667.126L1174.6 669.183M1203.5 704.136L1201.84 702.824L1197.97 699.411L1194.66 693.637L1192.17 689.962L1189.96 684.712L1183.88 676.838L1180.29 671.588L1175.6 669.488L1174.6 669.183M1174.6 669.183L1179.19 667.126H1183.88H1189.96L1194.66 669.488L1199.08 671.588L1203.5 675L1206.54 678.413L1209.85 679.988M1126.95 669.183L1126.69 669.488L1120.89 689.962L1119.26 692.587M1126.95 669.183L1129.18 675L1130.29 677.625L1133.6 682.875L1135.81 684.712L1140.23 688.125L1146.03 691.799L1154.87 695.212L1157.31 697.312M1191.07 728.022L1186.09 726.71L1178.36 722.248L1173.39 719.623L1169.24 716.998L1163.99 713.061L1160.95 710.698L1158.74 706.498L1157.91 697.836L1157.31 697.312M1157.31 697.312L1160.95 695.212L1162.89 696.524L1163.99 697.312L1167.31 698.886L1170.35 701.249L1171.73 702.824M1119.26 692.587L1120.89 700.199L1121.72 705.186L1124.21 710.698L1126.42 718.048L1129.18 725.135L1138.85 735.634H1143.82L1149.07 736.815M1201.29 772.12L1199.91 770.545L1197.7 767.395L1194.66 763.72L1191.07 758.47L1187.2 753.746L1180.29 749.021L1175.6 745.084L1173.39 743.771M1173.39 743.771L1171.18 742.459L1164.82 740.884L1160.4 739.047L1154.32 737.997L1149.07 736.815M1173.39 743.771L1178.36 745.084H1183.61H1186.09L1192.73 746.134L1196.87 747.184H1204.33L1208.75 745.084H1211.24L1215.38 743.771L1218.14 742.459L1222.56 740.884L1226.16 737.997M1149.07 736.815L1150.18 740.884L1152.66 743.771L1157.36 749.021L1162.89 754.533L1170.07 758.47L1171.18 760.833L1178.36 765.82L1183.61 772.12M1183.61 772.12L1185.27 776.582V785.769V794.431L1187.2 801.78L1188.86 804.93L1194.66 815.692L1196.18 816.873M1183.61 772.12L1189.96 777.632L1192.73 779.207L1201.29 782.356L1203.22 784.719L1208.75 787.081L1213.17 789.443L1215.38 791.018L1218.14 792.331L1221.46 794.431H1223.67M1231.68 838.791L1227.26 836.428L1220.63 833.803L1216.21 831.179L1204.88 823.566L1197.7 818.054L1196.18 816.873M1196.18 816.873L1201.29 825.404L1204.88 831.966L1205.99 839.84L1208.2 844.828L1210.41 850.34L1213.45 853.227L1216.21 854.277" stroke="url(#paint12_linear_140_923)" stroke-width="5"/>
<ellipse cx="943.819" cy="411.129" rx="7.75663" ry="6.48714" fill="url(#paint13_diamond_140_923)"/>
<ellipse cx="1156" cy="887.8" rx="7.75663" ry="6.48714" fill="url(#paint14_diamond_140_923)"/>
<ellipse cx="505.086" cy="874.676" rx="7.75663" ry="6.48714" fill="url(#paint15_diamond_140_923)"/>
<ellipse cx="1023.39" cy="934.522" rx="7.75663" ry="6.48714" fill="url(#paint16_diamond_140_923)"/>
<ellipse cx="827.227" cy="459.951" rx="7.75663" ry="6.48714" fill="url(#paint17_diamond_140_923)"/>
<ellipse cx="959.289" cy="1260" rx="7.75663" ry="6.48714" fill="url(#paint18_diamond_140_923)"/>
<ellipse cx="677.485" cy="1187.03" rx="7.75663" ry="6.48714" fill="url(#paint19_diamond_140_923)"/>
<ellipse cx="1206.28" cy="1072.06" rx="7.75663" ry="6.48714" fill="url(#paint20_diamond_140_923)"/>
<ellipse cx="466.958" cy="1072.06" rx="7.75663" ry="6.48714" fill="url(#paint21_diamond_140_923)"/>
<ellipse cx="928.346" cy="1125.09" rx="7.75663" ry="6.48714" fill="url(#paint22_diamond_140_923)"/>
<ellipse cx="827.228" cy="1047.92" rx="7.75663" ry="6.48714" fill="url(#paint23_diamond_140_923)"/>
<ellipse cx="804.019" cy="887.8" rx="7.75663" ry="6.48714" fill="url(#paint24_diamond_140_923)"/>
<ellipse cx="928.346" cy="921.398" rx="7.75663" ry="6.48714" fill="url(#paint25_diamond_140_923)"/>
<ellipse cx="811.757" cy="714.56" rx="7.75663" ry="6.48714" fill="url(#paint26_diamond_140_923)"/>
<ellipse cx="875.852" cy="847.377" rx="7.75663" ry="6.48714" fill="url(#paint27_diamond_140_923)"/>
<ellipse cx="1148.27" cy="738.709" rx="7.75663" ry="6.48714" fill="url(#paint28_diamond_140_923)"/>
<ellipse cx="626.096" cy="658.915" rx="7.75663" ry="6.48714" fill="url(#paint29_diamond_140_923)"/>
<ellipse cx="662.013" cy="738.709" rx="7.75663" ry="6.48714" fill="url(#paint30_diamond_140_923)"/>
<ellipse cx="540.45" cy="665.738" rx="7.75663" ry="6.48714" fill="url(#paint31_diamond_140_923)"/>
<ellipse cx="1075.33" cy="573.869" rx="7.75663" ry="6.48714" fill="url(#paint32_diamond_140_923)"/>
<ellipse cx="1083.06" cy="738.709" rx="7.75663" ry="6.48714" fill="url(#paint33_diamond_140_923)"/>
<ellipse cx="888.562" cy="678.863" rx="7.75663" ry="6.48714" fill="url(#paint34_diamond_140_923)"/>
<circle cx="850" cy="850" r="849.5" stroke="white"/>
<defs>
<linearGradient id="paint0_linear_140_923" x1="1198.53" y1="749.021" x2="1198.53" y2="1293.41" gradientUnits="userSpaceOnUse">
<stop stop-color="#057189"/>
<stop offset="0.520833" stop-color="#15CEF9"/>
<stop offset="1" stop-color="#07949F"/>
</linearGradient>
<linearGradient id="paint1_linear_140_923" x1="1250.33" y1="1139.07" x2="1250.33" y2="1193.93" gradientUnits="userSpaceOnUse">
<stop stop-color="#057189"/>
<stop offset="0.520833" stop-color="#15CEF9"/>
<stop offset="1" stop-color="#07949F"/>
</linearGradient>
<linearGradient id="paint2_linear_140_923" x1="484.482" y1="781.306" x2="484.482" y2="1302.07" gradientUnits="userSpaceOnUse">
<stop stop-color="#057189"/>
<stop offset="0.520833" stop-color="#15CEF9"/>
<stop offset="1" stop-color="#07949F"/>
</linearGradient>
<linearGradient id="paint3_linear_140_923" x1="540.704" y1="708.073" x2="540.704" y2="782.356" gradientUnits="userSpaceOnUse">
<stop stop-color="#057189"/>
<stop offset="0.520833" stop-color="#15CEF9"/>
<stop offset="1" stop-color="#07949F"/>
</linearGradient>
<linearGradient id="paint4_linear_140_923" x1="560.735" y1="678.675" x2="560.735" y2="699.674" gradientUnits="userSpaceOnUse">
<stop stop-color="#057189"/>
<stop offset="0.520833" stop-color="#15CEF9"/>
<stop offset="1" stop-color="#07949F"/>
</linearGradient>
<linearGradient id="paint5_linear_140_923" x1="538.081" y1="640.353" x2="538.081" y2="677.625" gradientUnits="userSpaceOnUse">
<stop stop-color="#057189"/>
<stop offset="0.520833" stop-color="#15CEF9"/>
<stop offset="1" stop-color="#07949F"/>
</linearGradient>
<linearGradient id="paint6_linear_140_923" x1="548.717" y1="527.747" x2="548.717" y2="633.528" gradientUnits="userSpaceOnUse">
<stop stop-color="#057189"/>
<stop offset="0.520833" stop-color="#15CEF9"/>
<stop offset="1" stop-color="#07949F"/>
</linearGradient>
<linearGradient id="paint7_linear_140_923" x1="850" y1="265" x2="850" y2="1311" gradientUnits="userSpaceOnUse">
<stop stop-color="#057189"/>
<stop offset="0.520833" stop-color="#15CEF9"/>
<stop offset="1" stop-color="#07949F"/>
</linearGradient>
<linearGradient id="paint8_linear_140_923" x1="754.269" y1="632.478" x2="754.269" y2="1310.21" gradientUnits="userSpaceOnUse">
<stop stop-color="#057189"/>
<stop offset="0.520833" stop-color="#15CEF9"/>
<stop offset="1" stop-color="#07949F"/>
</linearGradient>
<linearGradient id="paint9_linear_140_923" x1="868.235" y1="270.513" x2="868.235" y2="1304.44" gradientUnits="userSpaceOnUse">
<stop stop-color="#057189"/>
<stop offset="0.520833" stop-color="#15CEF9"/>
<stop offset="1" stop-color="#07949F"/>
</linearGradient>
<linearGradient id="paint10_linear_140_923" x1="1023.23" y1="677.888" x2="1023.23" y2="859.527" gradientUnits="userSpaceOnUse">
<stop stop-color="#057189"/>
<stop offset="0.520833" stop-color="#15CEF9"/>
<stop offset="1" stop-color="#07949F"/>
</linearGradient>
<linearGradient id="paint11_linear_140_923" x1="904.98" y1="841.94" x2="904.98" y2="854.277" gradientUnits="userSpaceOnUse">
<stop stop-color="#057189"/>
<stop offset="0.520833" stop-color="#15CEF9"/>
<stop offset="1" stop-color="#07949F"/>
</linearGradient>
<linearGradient id="paint12_linear_140_923" x1="1173.11" y1="589.168" x2="1173.11" y2="854.277" gradientUnits="userSpaceOnUse">
<stop stop-color="#057189"/>
<stop offset="0.520833" stop-color="#15CEF9"/>
<stop offset="1" stop-color="#07949F"/>
</linearGradient>
<radialGradient id="paint13_diamond_140_923" cx="0" cy="0" r="1" gradientUnits="userSpaceOnUse" gradientTransform="translate(943.819 411.129) rotate(90) scale(6.48714 7.75663)">
<stop stop-color="white"/>
<stop offset="0.5" stop-color="#93E5F7"/>
<stop offset="1" stop-color="#25A7C4"/>
</radialGradient>
<radialGradient id="paint14_diamond_140_923" cx="0" cy="0" r="1" gradientUnits="userSpaceOnUse" gradientTransform="translate(1156 887.8) rotate(90) scale(6.48714 7.75663)">
<stop stop-color="white"/>
<stop offset="0.5" stop-color="#93E5F7"/>
<stop offset="1" stop-color="#25A7C4"/>
</radialGradient>
<radialGradient id="paint15_diamond_140_923" cx="0" cy="0" r="1" gradientUnits="userSpaceOnUse" gradientTransform="translate(505.086 874.676) rotate(90) scale(6.48714 7.75663)">
<stop stop-color="white"/>
<stop offset="0.5" stop-color="#93E5F7"/>
<stop offset="1" stop-color="#25A7C4"/>
</radialGradient>
<radialGradient id="paint16_diamond_140_923" cx="0" cy="0" r="1" gradientUnits="userSpaceOnUse" gradientTransform="translate(1023.39 934.522) rotate(90) scale(6.48714 7.75663)">
<stop stop-color="white"/>
<stop offset="0.5" stop-color="#93E5F7"/>
<stop offset="1" stop-color="#25A7C4"/>
</radialGradient>
<radialGradient id="paint17_diamond_140_923" cx="0" cy="0" r="1" gradientUnits="userSpaceOnUse" gradientTransform="translate(827.227 459.951) rotate(90) scale(6.48714 7.75663)">
<stop stop-color="white"/>
<stop offset="0.5" stop-color="#93E5F7"/>
<stop offset="1" stop-color="#25A7C4"/>
</radialGradient>
<radialGradient id="paint18_diamond_140_923" cx="0" cy="0" r="1" gradientUnits="userSpaceOnUse" gradientTransform="translate(959.289 1260) rotate(90) scale(6.48714 7.75663)">
<stop stop-color="white"/>
<stop offset="0.5" stop-color="#93E5F7"/>
<stop offset="1" stop-color="#25A7C4"/>
</radialGradient>
<radialGradient id="paint19_diamond_140_923" cx="0" cy="0" r="1" gradientUnits="userSpaceOnUse" gradientTransform="translate(677.485 1187.03) rotate(90) scale(6.48714 7.75663)">
<stop stop-color="white"/>
<stop offset="0.5" stop-color="#93E5F7"/>
<stop offset="1" stop-color="#25A7C4"/>
</radialGradient>
<radialGradient id="paint20_diamond_140_923" cx="0" cy="0" r="1" gradientUnits="userSpaceOnUse" gradientTransform="translate(1206.28 1072.06) rotate(90) scale(6.48714 7.75663)">
<stop stop-color="white"/>
<stop offset="0.5" stop-color="#93E5F7"/>
<stop offset="1" stop-color="#25A7C4"/>
</radialGradient>
<radialGradient id="paint21_diamond_140_923" cx="0" cy="0" r="1" gradientUnits="userSpaceOnUse" gradientTransform="translate(466.958 1072.06) rotate(90) scale(6.48714 7.75663)">
<stop stop-color="white"/>
<stop offset="0.5" stop-color="#93E5F7"/>
<stop offset="1" stop-color="#25A7C4"/>
</radialGradient>
<radialGradient id="paint22_diamond_140_923" cx="0" cy="0" r="1" gradientUnits="userSpaceOnUse" gradientTransform="translate(928.346 1125.09) rotate(90) scale(6.48714 7.75663)">
<stop stop-color="white"/>
<stop offset="0.5" stop-color="#93E5F7"/>
<stop offset="1" stop-color="#25A7C4"/>
</radialGradient>
<radialGradient id="paint23_diamond_140_923" cx="0" cy="0" r="1" gradientUnits="userSpaceOnUse" gradientTransform="translate(827.228 1047.92) rotate(90) scale(6.48714 7.75663)">
<stop stop-color="white"/>
<stop offset="0.5" stop-color="#93E5F7"/>
<stop offset="1" stop-color="#25A7C4"/>
</radialGradient>
<radialGradient id="paint24_diamond_140_923" cx="0" cy="0" r="1" gradientUnits="userSpaceOnUse" gradientTransform="translate(804.019 887.8) rotate(90) scale(6.48714 7.75663)">
<stop stop-color="white"/>
<stop offset="0.5" stop-color="#93E5F7"/>
<stop offset="1" stop-color="#25A7C4"/>
</radialGradient>
<radialGradient id="paint25_diamond_140_923" cx="0" cy="0" r="1" gradientUnits="userSpaceOnUse" gradientTransform="translate(928.346 921.398) rotate(90) scale(6.48714 7.75663)">
<stop stop-color="white"/>
<stop offset="0.5" stop-color="#93E5F7"/>
<stop offset="1" stop-color="#25A7C4"/>
</radialGradient>
<radialGradient id="paint26_diamond_140_923" cx="0" cy="0" r="1" gradientUnits="userSpaceOnUse" gradientTransform="translate(811.757 714.56) rotate(90) scale(6.48714 7.75663)">
<stop stop-color="white"/>
<stop offset="0.5" stop-color="#93E5F7"/>
<stop offset="1" stop-color="#25A7C4"/>
</radialGradient>
<radialGradient id="paint27_diamond_140_923" cx="0" cy="0" r="1" gradientUnits="userSpaceOnUse" gradientTransform="translate(875.852 847.377) rotate(90) scale(6.48714 7.75663)">
<stop stop-color="white"/>
<stop offset="0.5" stop-color="#93E5F7"/>
<stop offset="1" stop-color="#25A7C4"/>
</radialGradient>
<radialGradient id="paint28_diamond_140_923" cx="0" cy="0" r="1" gradientUnits="userSpaceOnUse" gradientTransform="translate(1148.27 738.709) rotate(90) scale(6.48714 7.75663)">
<stop stop-color="white"/>
<stop offset="0.5" stop-color="#93E5F7"/>
<stop offset="1" stop-color="#25A7C4"/>
</radialGradient>
<radialGradient id="paint29_diamond_140_923" cx="0" cy="0" r="1" gradientUnits="userSpaceOnUse" gradientTransform="translate(626.095 658.915) rotate(90) scale(6.48714 7.75663)">
<stop stop-color="white"/>
<stop offset="0.5" stop-color="#93E5F7"/>
<stop offset="1" stop-color="#25A7C4"/>
</radialGradient>
<radialGradient id="paint30_diamond_140_923" cx="0" cy="0" r="1" gradientUnits="userSpaceOnUse" gradientTransform="translate(662.012 738.709) rotate(90) scale(6.48714 7.75663)">
<stop stop-color="white"/>
<stop offset="0.5" stop-color="#93E5F7"/>
<stop offset="1" stop-color="#25A7C4"/>
</radialGradient>
<radialGradient id="paint31_diamond_140_923" cx="0" cy="0" r="1" gradientUnits="userSpaceOnUse" gradientTransform="translate(540.45 665.738) rotate(90) scale(6.48714 7.75663)">
<stop stop-color="white"/>
<stop offset="0.5" stop-color="#93E5F7"/>
<stop offset="1" stop-color="#25A7C4"/>
</radialGradient>
<radialGradient id="paint32_diamond_140_923" cx="0" cy="0" r="1" gradientUnits="userSpaceOnUse" gradientTransform="translate(1075.33 573.869) rotate(90) scale(6.48714 7.75663)">
<stop stop-color="white"/>
<stop offset="0.5" stop-color="#93E5F7"/>
<stop offset="1" stop-color="#25A7C4"/>
</radialGradient>
<radialGradient id="paint33_diamond_140_923" cx="0" cy="0" r="1" gradientUnits="userSpaceOnUse" gradientTransform="translate(1083.06 738.709) rotate(90) scale(6.48714 7.75663)">
<stop stop-color="white"/>
<stop offset="0.5" stop-color="#93E5F7"/>
<stop offset="1" stop-color="#25A7C4"/>
</radialGradient>
<radialGradient id="paint34_diamond_140_923" cx="0" cy="0" r="1" gradientUnits="userSpaceOnUse" gradientTransform="translate(888.562 678.863) rotate(90) scale(6.48714 7.75663)">
<stop stop-color="white"/>
<stop offset="0.5" stop-color="#93E5F7"/>
<stop offset="1" stop-color="#25A7C4"/>
</radialGradient>
</defs>
</svg>
