<svg width="889" height="1362" viewBox="0 0 889 1362" fill="none" xmlns="http://www.w3.org/2000/svg">
<path d="M230.527 455.864L284.502 430.198L251.732 366.937L310.719 388.626L303.008 323.196L352.357 349.947L399.778 310.544L435.247 435.982L468.018 293.554M468.018 293.554L501.174 370.552M468.018 293.554L533.174 340.548M501.174 370.552L533.174 340.548M501.174 370.552L569.414 374.89L533.174 340.548M501.174 370.552L525.849 445.019L569.414 380.312M569.414 380.312L556.306 236.439L637.269 420.437L569.414 380.312ZM556.306 232.101L637.269 310.544M637.269 310.544V374.89H671.967L637.269 310.544ZM637.269 310.544L728.255 370.552M728.255 370.552L673.507 282.651M728.255 370.552L783.002 143.897L641.124 121.484M671.967 280.179L605.655 274.757L594.86 189.083L671.967 214.749M671.967 280.179L673.507 282.651M671.967 280.179L792.64 300.061L735.966 185.468M671.967 214.749L673.507 282.651M671.967 214.749L735.966 185.468M671.967 214.749L589.848 149.319L641.124 121.484M671.967 214.749L652.69 100.518L641.124 121.484M735.966 185.468L710.521 93.2881" stroke="url(#paint0_linear_60_85)" stroke-width="15" stroke-linecap="round" stroke-linejoin="bevel"/>
<path d="M783.772 1105.46L732.882 1129.32L693.942 1170.89L631.1 1187.88L594.474 1217.53L540.499 1226.92L520.836 1257.29L475.728 1264.16L468.789 1308.98L454.909 1322.36L446.428 1331.76L439.874 1342.6L436.789 1352H428.307L425.609 1350.19V1348.75L409.802 1336.46L403.248 1324.17L396.693 1308.98L393.609 1289.46L389.754 1269.58L375.103 1250.42L367.007 1231.26L363.923 1214.63V1198.01L367.007 1181.02L369.706 1161.49L375.103 1144.5L394.38 1129.68L407.103 1117.39L425.994 1105.46L458.765 1100.4L486.523 1105.46L505.8 1110.89L525.463 1117.39L539.342 1110.89H562.089H582.908L595.63 1090.28L614.136 1073.29L630.329 1062.08H655.389L676.593 1051.6L690.858 1028.83L710.52 1016.9V997.378V980.026L716.303 959.783L729.797 947.131L735.195 933.032L729.797 919.296V898.691L732.496 882.424L740.978 867.603L755.243 852.058L765.267 838.683L755.243 830.007L750.616 820.609V806.511V786.267L752.544 771.446L765.267 757.709L772.592 744.696L765.267 736.02L755.243 722.645L750.616 710.354L747.532 698.425L750.616 681.796V670.228V652.515L759.098 643.84L761.411 630.826L759.098 617.089V608.413V595.4V584.194L750.616 571.541L744.062 558.166V545.514L747.917 527.801L741.749 524.186L732.882 535.031L710.52 549.129H694.713L680.834 552.744L659.63 545.514L639.196 537.923L618.377 549.129L603.727 556.359L587.149 558.166L566.715 556.359L562.089 552.744L552.836 549.129L541.27 552.744L533.559 565.035L520.451 571.541L505.8 577.325H487.68H473.801H460.307L446.042 571.541L441.03 565.396L432.163 565.035L420.211 569.011L413.657 577.325L396.693 586.724H380.115L358.911 582.748L341.176 577.325L327.682 571.541L319.972 558.889H307.249L294.141 569.011L272.551 577.325H249.033L229.756 565.396L208.937 552.744L185.419 565.396H163.444L157.661 582.748L148.793 596.123L143.01 619.62L133.757 664.083L138.384 679.627L157.661 723.006L148.793 756.263L163.444 775.784L181.949 801.45V833.984L190.817 860.011L222.431 879.532L239.009 914.958V953.276L260.599 967.736L276.406 1024.85L253.274 1077.63L276.406 1148.84H253.274L190.817 1105.46H142.239L102.914 1070.76V1000.99L44.6983 944.6L56.2644 879.532L10 833.984L37.7587 770.723L10 723.006L37.7587 679.627L10 660.107V614.559L37.7587 575.156V557.805L56.2644 525.271L79.3966 460.202L142.239 449.357L174.624 436.344L227.828 468.878H276.406L327.682 481.892L385.513 468.878L429.464 481.892L475.728 460.202L547.438 468.878L587.149 460.202H631.1L665.798 436.344H709.749L732.882 418.992L769.893 401.641H818.856L862.807 436.344V510.088L879 540.453L862.807 575.156L879 614.559L862.807 660.107L879 703.486L862.807 744.696L879 801.45L862.807 860.011L841.988 953.276V1000.99L800.35 1033.89L783.772 1105.46Z" stroke="url(#paint1_linear_60_85)" stroke-width="20" stroke-linecap="round" stroke-linejoin="bevel"/>
<path d="M219.732 465.624L228.214 418.992L235.539 385.373L255.587 341.271L291.442 321.751L332.309 311.267L379.345 305.484H421.368L454.91 290.301L494.62 278.733L520.451 257.767L550.137 237.885L571.342 212.58L589.848 185.83L579.824 148.596M579.824 148.596L589.848 125.461L619.534 105.579L644.208 92.9268L678.907 84.974H713.605L750.617 92.9268L777.99 118.593L797.652 148.596L807.676 177.516L817.7 212.58V247.283L807.676 290.301L789.17 321.751L763.339 350.67L743.291 369.106L713.605 391.157L678.907 407.424L644.208 428.39L609.51 437.789L565.173 447.188H520.451H471.102H442.573L412.886 437.789L379.345 418.992L356.984 391.157H332.309H311.105L295.298 413.208L291.442 428.39L284.117 447.188V465.624M579.824 148.596L563.246 114.255L555.921 80.6361L550.137 50.9938L555.921 26.4124L563.246 4L553.029 38.7031" stroke="url(#paint2_linear_60_85)" stroke-width="20" stroke-linecap="round" stroke-linejoin="bevel"/>
<path d="M152.648 602.99L240.165 660.106M240.165 660.106L152.648 706.015M240.165 660.106L256.358 581.3M240.165 660.106L246.719 737.465M240.165 660.106L284.502 683.06M246.719 737.465L189.274 806.509L287.779 830.999M246.719 737.465L287.779 721.74M328.839 706.015L284.502 683.06M328.839 706.015L405.561 660.106M328.839 706.015L287.779 721.74M284.502 683.06L356.983 590.338L405.561 660.106M405.561 660.106L434.572 697.972M291.056 831.814L246.719 917.849L356.983 904.835M291.056 831.814L356.983 904.835M291.056 831.814L287.779 830.999M356.983 904.835L385.705 831.814M356.983 904.835L320.742 965.565M405.561 1019.43L284.502 1026.3L320.742 965.565M405.561 1019.43L437.175 1095.34L522.378 1009.31M405.561 1019.43L522.378 1009.31M405.561 1019.43L470.716 922.909M522.378 1009.31L616.449 1063.89V952.552M522.378 1009.31L470.716 922.909M616.449 952.552L727.869 940.261L649.991 902.368M616.449 952.552L554.763 856.034M554.763 856.034L649.991 902.368M554.763 856.034L470.716 922.909M554.763 856.034L385.705 831.814M554.763 856.034L512.74 712.883L463.584 735.838M649.991 902.368L745.218 785.904L602.57 758.793M602.57 758.793L673.894 718.125M602.57 758.793L538.113 699.214M656.545 622.872L692.4 553.827L745.218 677.457L673.894 718.125M656.545 622.872L736.737 677.457M656.545 622.872L561.317 561.057L538.113 699.214M656.545 622.872L673.894 718.125M287.779 721.74L414.428 758.793M414.428 758.793L287.779 830.999M414.428 758.793L385.705 831.814M414.428 758.793L463.584 735.838M385.705 831.814L470.716 922.909M470.716 922.909L320.742 965.565M463.584 735.838L434.572 697.972M434.572 697.972L473.656 639.636M512.74 581.3L473.656 639.636M473.656 639.636L538.113 699.214" stroke="url(#paint3_linear_60_85)" stroke-width="10"/>
<ellipse cx="570.185" cy="375.974" rx="7.71074" ry="7.22982" fill="url(#paint4_diamond_60_85)"/>
<ellipse cx="411.655" cy="757.717" rx="13.0319" ry="12.6604" fill="url(#paint5_diamond_60_85)"/>
<ellipse cx="293.68" cy="837.245" rx="13.0319" ry="12.6604" fill="url(#paint6_diamond_60_85)"/>
<ellipse cx="404.714" cy="665.175" rx="13.0319" ry="12.6604" fill="url(#paint7_diamond_60_85)"/>
<ellipse cx="598.253" cy="757.717" rx="13.0319" ry="12.6604" fill="url(#paint8_diamond_60_85)"/>
<ellipse cx="237.391" cy="665.175" rx="13.0319" ry="12.6604" fill="url(#paint9_diamond_60_85)"/>
<ellipse cx="471.798" cy="928.341" rx="13.0319" ry="12.6604" fill="url(#paint10_diamond_60_85)"/>
<ellipse cx="411.655" cy="1016.54" rx="13.0319" ry="12.6604" fill="url(#paint11_diamond_60_85)"/>
<ellipse cx="659.169" cy="624.689" rx="13.0319" ry="12.6604" fill="url(#paint12_diamond_60_85)"/>
<ellipse cx="548.905" cy="862.549" rx="13.0319" ry="12.6604" fill="url(#paint13_diamond_60_85)"/>
<ellipse cx="604.111" cy="274.757" rx="7.71074" ry="7.22982" fill="url(#paint14_diamond_60_85)"/>
<ellipse cx="672.738" cy="375.974" rx="7.71074" ry="7.22982" fill="url(#paint15_diamond_60_85)"/>
<ellipse cx="436.017" cy="441.766" rx="7.71074" ry="7.22982" fill="url(#paint16_diamond_60_85)"/>
<ellipse cx="723.631" cy="133.776" rx="7.71074" ry="7.22982" fill="url(#paint17_diamond_60_85)"/>
<ellipse cx="749.844" cy="289.94" rx="7.71074" ry="7.22982" fill="url(#paint18_diamond_60_85)"/>
<ellipse cx="672.738" cy="213.303" rx="7.71074" ry="7.22982" fill="url(#paint19_diamond_60_85)"/>
<ellipse cx="353.512" cy="348.501" rx="7.71074" ry="7.22982" fill="url(#paint20_diamond_60_85)"/>
<defs>
<linearGradient id="paint0_linear_60_85" x1="511.584" y1="165.527" x2="511.584" y2="454.87" gradientUnits="userSpaceOnUse">
<stop stop-color="#0091B1"/>
<stop offset="1" stop-color="#0AEBDD"/>
</linearGradient>
<linearGradient id="paint1_linear_60_85" x1="444.5" y1="401.641" x2="444.5" y2="1348.75" gradientUnits="userSpaceOnUse">
<stop stop-color="#0091B1"/>
<stop offset="1" stop-color="#0AEBDD"/>
</linearGradient>
<linearGradient id="paint2_linear_60_85" x1="518.716" y1="84.974" x2="518.716" y2="464.321" gradientUnits="userSpaceOnUse">
<stop stop-color="#0091B1"/>
<stop offset="1" stop-color="#0AEBDD"/>
</linearGradient>
<linearGradient id="paint3_linear_60_85" x1="448.933" y1="553.827" x2="448.933" y2="1095.34" gradientUnits="userSpaceOnUse">
<stop stop-color="#028BCB"/>
<stop offset="0.0001" stop-color="#0288C9"/>
<stop offset="0.588542" stop-color="#25A7C4"/>
<stop offset="1" stop-color="#1CFBC5"/>
</linearGradient>
<radialGradient id="paint4_diamond_60_85" cx="0" cy="0" r="1" gradientUnits="userSpaceOnUse" gradientTransform="translate(570.185 375.974) rotate(90) scale(7.22982 7.71074)">
<stop stop-color="white"/>
<stop offset="0.5" stop-color="#93E5F7"/>
<stop offset="1" stop-color="#25A7C4"/>
</radialGradient>
<radialGradient id="paint5_diamond_60_85" cx="0" cy="0" r="1" gradientUnits="userSpaceOnUse" gradientTransform="translate(411.655 757.717) rotate(90) scale(12.6604 13.0319)">
<stop stop-color="white"/>
<stop offset="0.5" stop-color="#93E5F7"/>
<stop offset="1" stop-color="#25A7C4"/>
</radialGradient>
<radialGradient id="paint6_diamond_60_85" cx="0" cy="0" r="1" gradientUnits="userSpaceOnUse" gradientTransform="translate(293.68 837.245) rotate(90) scale(12.6604 13.0319)">
<stop stop-color="white"/>
<stop offset="0.5" stop-color="#93E5F7"/>
<stop offset="1" stop-color="#25A7C4"/>
</radialGradient>
<radialGradient id="paint7_diamond_60_85" cx="0" cy="0" r="1" gradientUnits="userSpaceOnUse" gradientTransform="translate(404.714 665.175) rotate(90) scale(12.6604 13.0319)">
<stop stop-color="white"/>
<stop offset="0.5" stop-color="#93E5F7"/>
<stop offset="1" stop-color="#25A7C4"/>
</radialGradient>
<radialGradient id="paint8_diamond_60_85" cx="0" cy="0" r="1" gradientUnits="userSpaceOnUse" gradientTransform="translate(598.253 757.717) rotate(90) scale(12.6604 13.0319)">
<stop stop-color="white"/>
<stop offset="0.5" stop-color="#93E5F7"/>
<stop offset="1" stop-color="#25A7C4"/>
</radialGradient>
<radialGradient id="paint9_diamond_60_85" cx="0" cy="0" r="1" gradientUnits="userSpaceOnUse" gradientTransform="translate(237.391 665.175) rotate(90) scale(12.6604 13.0319)">
<stop stop-color="white"/>
<stop offset="0.5" stop-color="#93E5F7"/>
<stop offset="1" stop-color="#25A7C4"/>
</radialGradient>
<radialGradient id="paint10_diamond_60_85" cx="0" cy="0" r="1" gradientUnits="userSpaceOnUse" gradientTransform="translate(471.798 928.341) rotate(90) scale(12.6604 13.0319)">
<stop stop-color="white"/>
<stop offset="0.5" stop-color="#93E5F7"/>
<stop offset="1" stop-color="#25A7C4"/>
</radialGradient>
<radialGradient id="paint11_diamond_60_85" cx="0" cy="0" r="1" gradientUnits="userSpaceOnUse" gradientTransform="translate(411.655 1016.54) rotate(90) scale(12.6604 13.0319)">
<stop stop-color="white"/>
<stop offset="0.5" stop-color="#93E5F7"/>
<stop offset="1" stop-color="#25A7C4"/>
</radialGradient>
<radialGradient id="paint12_diamond_60_85" cx="0" cy="0" r="1" gradientUnits="userSpaceOnUse" gradientTransform="translate(659.169 624.689) rotate(90) scale(12.6604 13.0319)">
<stop stop-color="white"/>
<stop offset="0.5" stop-color="#93E5F7"/>
<stop offset="1" stop-color="#25A7C4"/>
</radialGradient>
<radialGradient id="paint13_diamond_60_85" cx="0" cy="0" r="1" gradientUnits="userSpaceOnUse" gradientTransform="translate(548.905 862.549) rotate(90) scale(12.6604 13.0319)">
<stop stop-color="white"/>
<stop offset="0.5" stop-color="#93E5F7"/>
<stop offset="1" stop-color="#25A7C4"/>
</radialGradient>
<radialGradient id="paint14_diamond_60_85" cx="0" cy="0" r="1" gradientUnits="userSpaceOnUse" gradientTransform="translate(604.111 274.757) rotate(90) scale(7.22982 7.71074)">
<stop stop-color="white"/>
<stop offset="0.5" stop-color="#93E5F7"/>
<stop offset="1" stop-color="#25A7C4"/>
</radialGradient>
<radialGradient id="paint15_diamond_60_85" cx="0" cy="0" r="1" gradientUnits="userSpaceOnUse" gradientTransform="translate(672.738 375.974) rotate(90) scale(7.22982 7.71074)">
<stop stop-color="white"/>
<stop offset="0.5" stop-color="#93E5F7"/>
<stop offset="1" stop-color="#25A7C4"/>
</radialGradient>
<radialGradient id="paint16_diamond_60_85" cx="0" cy="0" r="1" gradientUnits="userSpaceOnUse" gradientTransform="translate(436.017 441.766) rotate(90) scale(7.22982 7.71074)">
<stop stop-color="white"/>
<stop offset="0.5" stop-color="#93E5F7"/>
<stop offset="1" stop-color="#25A7C4"/>
</radialGradient>
<radialGradient id="paint17_diamond_60_85" cx="0" cy="0" r="1" gradientUnits="userSpaceOnUse" gradientTransform="translate(723.631 133.776) rotate(90) scale(7.22982 7.71074)">
<stop stop-color="white"/>
<stop offset="0.5" stop-color="#93E5F7"/>
<stop offset="1" stop-color="#25A7C4"/>
</radialGradient>
<radialGradient id="paint18_diamond_60_85" cx="0" cy="0" r="1" gradientUnits="userSpaceOnUse" gradientTransform="translate(749.844 289.94) rotate(90) scale(7.22982 7.71074)">
<stop stop-color="white"/>
<stop offset="0.5" stop-color="#93E5F7"/>
<stop offset="1" stop-color="#25A7C4"/>
</radialGradient>
<radialGradient id="paint19_diamond_60_85" cx="0" cy="0" r="1" gradientUnits="userSpaceOnUse" gradientTransform="translate(672.738 213.303) rotate(90) scale(7.22982 7.71074)">
<stop stop-color="white"/>
<stop offset="0.5" stop-color="#93E5F7"/>
<stop offset="1" stop-color="#25A7C4"/>
</radialGradient>
<radialGradient id="paint20_diamond_60_85" cx="0" cy="0" r="1" gradientUnits="userSpaceOnUse" gradientTransform="translate(353.512 348.501) rotate(90) scale(7.22982 7.71074)">
<stop stop-color="white"/>
<stop offset="0.5" stop-color="#93E5F7"/>
<stop offset="1" stop-color="#25A7C4"/>
</radialGradient>
</defs>
</svg>
