<svg width="1276" height="2144" viewBox="0 0 1276 2144" fill="none" xmlns="http://www.w3.org/2000/svg">
<path d="M833.219 1475.93L831.567 1469.91L830.789 1465.1L830.498 1463.31M833.219 1475.93L830.498 1472.06L825.835 1469.91L820.2 1467.54M833.219 1475.93L832.641 1476.86M830.498 1463.31V1457.14V1453.7M830.498 1463.31L828.555 1461.8M830.498 1453.7L824.864 1449.97L820.2 1446.02L815.44 1442.29L813.4 1436.55L812.04 1430.39L813.4 1424.22L815.44 1418.34L820.2 1414.46L824.864 1411.16L830.595 1407.72L837.299 1406.65H848.86H853.329L860.712 1408.44L868.873 1411.16L875.965 1414.46L879.462 1416.97L885.485 1420.92L889.954 1425.44L894.229 1430.39L897.726 1434.62L900.835 1439.71L903.847 1446.02L905.693 1449.97L907.733 1456.06L909.093 1465.1V1478.94L907.733 1486.05L905.693 1492L902.39 1497.45L898.601 1502.83L893.258 1508.28L889.76 1511.58L884.514 1516.24L878.199 1519.68L872.467 1522.19L863.918 1524.2H851.969L844.391 1521.33L838.95 1518.9L834.87 1514.88L830.498 1510.5L827.292 1506.41L824.864 1501.97L823.601 1498.17V1490.78L827.292 1485.33M830.498 1453.7L816.897 1455.2M832.641 1476.86L828.555 1483.46L827.292 1485.33M832.641 1476.86L827.292 1473.35M827.292 1473.35L822.046 1472.06H820.2L822.046 1475.93L825.835 1478.94L828.555 1480.59L827.292 1485.33M827.292 1473.35L824.572 1475.93M827.292 1485.33L823.601 1481.81L819.208 1478.08M813.4 1473.35L817.772 1476.86L819.208 1478.08M819.208 1478.08L817.383 1480.16L814.566 1482.6L812.914 1486.19L811.748 1488.63L810.485 1492.57V1500.1V1505.2L811.748 1509.36L813.4 1514.52L814.857 1518.9L817.189 1525.14L819.617 1529.44L822.143 1535.82L824.961 1542.56L826.029 1547.66L827.584 1552.53L829.721 1559.92L830.401 1565.73L832.053 1574.7" stroke="#04C0FD" stroke-width="10" stroke-linecap="round"/>
<path d="M591.373 1467.81L594.554 1465.39L600.42 1461.23L603.005 1457.34L604.994 1453.45L606.087 1448.86V1443.24L604.994 1434.41L603.005 1429.05L599.625 1425.33L596.344 1420.92L592.566 1419.01L588.49 1416.85L582.724 1415.12L575.665 1414.17H567.512L560.951 1415.12L555.582 1416.85L548.424 1420.14L543.652 1422.82L539.575 1425.33L535.599 1428.27L530.429 1433.29L526.75 1437.7L523.171 1441.16L518.797 1447.74L515.814 1454.05L512.633 1461.23L510.744 1467.81L508.258 1473.78L506.866 1481.91V1491.6V1499.39L508.258 1508.3L510.942 1516.95L515.019 1526.29L518.101 1532.44L522.773 1537.28L529.335 1544.46L535.996 1549.14L544.447 1553.12L551.804 1555.54L559.062 1556.58H565.524L569.401 1555.54L574.173 1553.12L579.542 1549.74L584.016 1545.24L587.694 1541.09L590.379 1535.98L593.461 1529.32L594.356 1522.57L593.461 1514.53L591.97 1509.42L591.174 1507.43L587.694 1502.5M587.694 1502.5L586.402 1499.65V1494.46L588.788 1487.71L587.694 1480.27L588.788 1478.62V1475.77L587.694 1471.53L588.49 1469.63L591.174 1467.81M587.694 1502.5L593.461 1499.65L599.625 1516.95V1537.28L600.42 1559.82L596.344 1589.56L594.554 1605.63M587.694 1497.66L591.174 1495.84L593.461 1497.66" stroke="url(#paint0_linear_105_217)" stroke-width="10" stroke-linecap="round"/>
<path d="M567.606 1443.88L569.698 1420.32L589.297 1440.88L578.452 1442.38M567.606 1443.88L543.515 1427.61L541.655 1452.54M567.606 1443.88L578.452 1442.38M541.655 1452.54L519.345 1464.03L522.018 1480.29M541.655 1452.54L558.969 1475.52M541.655 1452.54L566.522 1445.09L562.745 1460.31M541.655 1452.54L531.837 1466.41M576.282 1498.51L558.969 1475.52M576.282 1498.51L567.606 1518.34M576.282 1498.51L540.116 1491.22M558.969 1475.52L562.745 1460.31M558.969 1475.52L540.116 1491.22M562.745 1460.31L578.916 1468.97L578.452 1442.38M567.606 1518.34L576.282 1536.39L557.303 1525.1M567.606 1518.34L549.789 1500.21L548.395 1516.04M567.606 1518.34L557.303 1525.1M547.001 1531.86L557.303 1525.1M547.001 1531.86L548.395 1516.04M547.001 1531.86L537.705 1544.73L532.592 1514.78M557.303 1525.1V1551.61M548.395 1516.04L532.592 1513.02M548.395 1516.04L540.116 1491.22M516.789 1510.01L532.592 1513.02M532.592 1513.02L524.691 1496.54M516.789 1480.06L524.691 1496.54M524.691 1496.54L522.018 1480.29M522.018 1480.29L531.837 1466.41M531.837 1466.41L540.116 1491.22" stroke="url(#paint1_linear_105_217)" stroke-width="5" stroke-linecap="round"/>
<path d="M855.405 1495.16L852.956 1514L830.007 1497.56L842.706 1496.36M855.405 1495.16L883.614 1508.18L885.791 1488.23M855.405 1495.16L842.706 1496.36M885.791 1488.23L895.86 1493.41L903.751 1475.09M885.791 1488.23L865.518 1469.84M885.791 1488.23L856.675 1494.19L861.096 1482.02M885.791 1488.23L897.288 1477.13M831.73 1452.1L865.518 1469.84M831.73 1452.1L855.405 1435.59M831.73 1452.1L887.594 1457.29M865.518 1469.84L861.096 1482.02M865.518 1469.84L887.594 1457.29M861.096 1482.02L842.162 1475.09L842.706 1496.36M855.405 1435.59L819.032 1422.64L867.469 1430.18M855.405 1435.59L876.267 1450.1L877.9 1437.44M855.405 1435.59L867.469 1430.18M879.532 1424.78L867.469 1430.18M879.532 1424.78L877.9 1437.44M879.532 1424.78L884.975 1430.18L894.771 1440.71M867.469 1430.18L844.52 1412.8M877.9 1437.44L894.771 1440.71M877.9 1437.44L887.594 1457.29M894.771 1440.71L887.594 1457.29M887.594 1457.29L903.751 1475.09M887.594 1457.29L897.288 1477.13M903.751 1475.09L897.288 1477.13" stroke="url(#paint2_linear_105_217)" stroke-width="5" stroke-linecap="round"/>
<ellipse cx="810.664" cy="1839.74" rx="10.7141" ry="8.44991" fill="url(#paint3_diamond_105_217)"/>
<ellipse cx="641.197" cy="1483.92" rx="7.63238" ry="6.83805" fill="url(#paint4_diamond_105_217)"/>
<ellipse cx="748.05" cy="1505.11" rx="7.63238" ry="6.83805" fill="url(#paint5_diamond_105_217)"/>
<path d="M601.508 1454.85L616.892 1466.75M643.94 1483.83L623.404 1470.72L616.892 1466.75M643.94 1483.83L618.145 1505.07M643.94 1483.83L699.966 1486.31M592.35 1526.31L616.892 1466.75M592.35 1526.31L618.145 1505.07M592.35 1526.31L633.89 1530.93M618.145 1505.07L650.356 1522.89M689.662 1542.72L675.431 1535.54M650.356 1522.89L675.431 1535.54M650.356 1522.89L699.966 1486.31M675.431 1535.54L633.89 1530.93M633.89 1530.93L618.614 1552.98M602.272 1576.57L618.614 1552.98M618.614 1552.98L659.896 1580.67M699.966 1486.31L724.771 1495.69M699.966 1486.31L698.058 1535.54L724.771 1495.69M749.577 1505.07L791.936 1470.58L828.572 1497.25M749.577 1505.07L724.771 1495.69M749.577 1505.07L828.572 1497.25M828.572 1497.25L857.193 1439.81" stroke="#77D2E6" stroke-width="3"/>
<ellipse cx="550.4" cy="1454.76" rx="10.7141" ry="8.44991" fill="url(#paint6_diamond_105_217)"/>
<ellipse cx="886.987" cy="1482.11" rx="10.7141" ry="8.44991" fill="url(#paint7_diamond_105_217)"/>
<ellipse cx="506.896" cy="1839.74" rx="10.7141" ry="8.44991" fill="url(#paint8_diamond_105_217)"/>
<ellipse cx="545.057" cy="1505.36" rx="10.7141" ry="8.44991" fill="url(#paint9_diamond_105_217)"/>
<path d="M1141.12 2132.26L1142.65 2110.61V2094.63L1130.41 2040.68L1121.23 1977.15L1110.14 1914.68L1099.82 1852.57L1090.26 1784.78L1081.46 1738.99L1069.22 1679L1055.46 1609.08L1047.04 1533.13L1043.22 1460.01L1040.16 1403.93L1034.43 1350.34L1026.39 1316.97L1017.6 1276.15L985.478 1068.16L972.094 1240.66L962.151 1276.15L956.415 1345.01V1430.2L961.386 1490.18L969.799 1559.39L977.447 1606.24L987.39 1649.9L993.126 1697.46L999.627 1748.22L1004.22 1791.52L1011.1 1840.85L1021.81 1887.35L1030.98 1931.72L1037.48 1961.18L1044.37 2000.22L1053.55 2038.91L1057.75 2075.47L1062.34 2109.54V2139" stroke="#03BEFC" stroke-width="20"/>
<path d="M653.028 766.262L647.303 796.692L662.95 787.46M678.596 778.229L662.95 787.46M662.95 787.46L672.109 799.94M681.268 812.419L672.109 799.94M672.109 799.94L671.308 800.448M671.308 800.448L643.869 817.889V819.257L655.699 829.172M671.308 800.448L668.293 820.967M655.699 829.172L666.384 837.036L668.293 820.967M655.699 829.172L643.869 841.139L659.515 870.201L640.053 865.072M668.293 820.967L678.596 834.643" stroke="#0AEBDD" stroke-width="5"/>
<path d="M638.144 865.756L629.749 876.355L624.788 880.458H615.629L604.944 872.594L599.983 861.995L595.594 851.567L591.205 841.139L586.244 826.608L581.283 812.077V792.247L586.244 773.442L591.205 764.553L598.074 762.159L604.944 759.766L610.668 762.501L615.056 767.972L619.445 773.442L622.351 777.203L629.749 786.776L633.947 794.469M638.144 865.756L640.434 873.961L645.777 879.09L657.989 878.406L664.095 872.594L670.2 864.046L677.451 843.532L680.504 830.198L682.031 818.573V802.162L680.504 780.964L677.451 773.442L674.78 768.997L670.2 764.553L663.331 762.501L653.409 764.553L646.922 768.997L640.434 778.229L633.947 794.469M638.144 865.756L639.47 861.995L642.724 852.764V833.959V825.411V816.864L638.144 802.162L633.947 794.469M633.947 794.469L632.039 793.891" stroke="#0AEBDD" stroke-width="10"/>
<path d="M573.651 677.026L583.574 690.702H595.785L602.273 685.231L609.524 676.342L614.866 670.188L620.972 665.059H625.933H639.29L647.686 670.188L654.555 678.735L660.661 686.941L670.964 690.702H685.466L693.861 682.154L697.487 676.171L701.112 670.188L706.073 654.802L709.508 644.203V629.159V621.808V614.458V599.072L708.363 589.157L706.264 581.464L704.165 573.771L698.823 568.301H693.48H687.756L683.939 570.352L678.215 576.848L672.491 584.028L669.056 588.131L662.95 594.969L656.463 602.833L649.594 608.987L641.961 610.697H629.749H616.774L610.669 606.936L605.707 601.123L599.983 594.969L597.693 588.131L596.653 585.054L593.877 576.848L589.679 568.301H585.482H579.757H575.941L573.651 571.583L572.125 573.771L567.927 578.9L564.874 585.054L563.348 590.524L561.058 598.388L558.387 608.987V616.167V627.45V632.237V641.81L561.058 646.596L564.874 653.434L567.927 661.298L569.835 670.188L573.651 677.026Z" stroke="#0AEBDD" stroke-width="10"/>
<path d="M10 2128.74V2130.79M10 2130.79L21.067 2073.51L26.4096 2040.24L31.7523 2015.95V2000.65L27.9361 1889.85V1765.42L26.028 1756.43L10 1685.23V1641.98V1510.55L15.7243 1427.38L22.2118 1358.5L34.4236 1290.3L50.07 1222.09L69.1509 1134.25L79.073 1023.79L84.0341 945.601L90.5216 897.69L107.313 846.784L133.263 806.858L177.531 762.274L225.233 736.322L285.911 706.378L356.128 673.106L414.516 647.82L466.416 616.212L485.116 600.574L498.472 581.609L503.052 555.657V519.391L498.472 491.776V458.837L503.052 432.552V405.602L483.589 380.316L452.296 337.062L430.544 284.16L419.096 225.602L422.912 179.687L434.742 137.432L452.296 115.473L479.01 79.2069L509.539 57.9131L559.15 26.9704L649.593 11L741.564 17.6543L807.584 45.2698L838.876 79.2069L870.169 137.432L885.052 186.342L880.091 225.602L911.384 277.173L922.451 292.811L931.228 309.78L934.663 326.083L931.228 334.401L923.596 343.384L904.897 350.704V361.351L911.766 367.672V375.325L910.239 380.316L901.844 388.634L906.041 394.622V400.944L901.844 408.929L895.738 414.253L894.211 418.911V426.231L895.738 432.552L898.409 439.872V450.852V462.164L891.54 472.811L883.144 482.127L870.932 491.776L856.049 496.766L841.929 498.097H825.138H809.873H794.99H780.107L772.475 500.426L767.514 519.391L759.881 539.354L767.514 555.657L780.107 585.269L789.266 603.236L825.138 630.851L859.865 652.145L964.811 697.062L1048 736.322L1082.35 756.618L1119.37 788.226L1144.55 820.833L1161.34 845.121L1175.85 885.712L1187.68 933.624L1192.26 997.838L1194.55 1057.73L1199.51 1126.6L1206.76 1183.49L1210.19 1208.11L1220.5 1240.06L1228.51 1275.66L1238.81 1322.24L1243.39 1342.2L1250.26 1376.14L1252.55 1413.07L1255.22 1447.67L1258.66 1488.26V1534.51L1263.24 1585.42V1643.31L1258.66 1694.88L1251.41 1724.16L1247.21 1771.74L1243.01 1834.29V1890.85L1240.72 1958.72V2024.93L1244.16 2046.56L1250.64 2071.51L1259.8 2100.46L1264 2123.75L1139.21 2126.01M10 2130.79L78.2523 2127.41H146.238" stroke="#03BEFC" stroke-width="20"/>
<path d="M511.294 112.772L512.903 111.499M526.044 101.105L540.702 94.8117L553.133 86.7507L569.553 81.801C571.501 81.801 575.88 81.801 577.809 81.801C579.739 81.801 587.643 75.4842 591.353 72.3258L601.372 68.2953M526.044 101.105L512.903 111.499M526.044 101.105L570.388 102.554M601.372 68.2953H619.648L630.873 62.0021H658.517M601.372 68.2953L614.731 104.004M658.517 62.0021L678.555 64.2649L693.306 62.0021L699.336 60.2344L715.477 62.0021L724.661 64.2649M658.517 62.0021L691.589 126.162M724.661 64.2649L732.918 62.0021H742.658L754.254 66.5276L766.221 68.2953L775.684 74.6593L796.742 82.1546L804.627 90.4984L811.121 93.7511L816.595 102.661L821.79 104.004L826.057 111.924M724.661 64.2649L650.539 146.996L710.894 163.613M724.661 64.2649L750.544 104.004M826.057 111.924L836.447 119.136L839.137 125.641L844.982 130.308V140.561V145.935L840.993 151.026L842.848 158.239L839.137 163.613M826.057 111.924L788.3 107.964M839.137 163.613L836.447 174.573L826.057 180.583M839.137 163.613L788.3 107.964M826.057 180.583L813.255 189.917L801.381 194.867L794.608 197.342H781.343H772.159M826.057 180.583L772.159 166.123M512.903 111.499L509.269 113.656M515.654 262.537H508.882L502.11 258.365L494.039 248.536L490.514 246.273L483.464 239.626L479.104 229.161L473.445 223.363L465.652 211.201V200.912M515.654 262.537L516.675 268.688L518.809 273.567L522.519 278.446L526.508 282.477L533.28 285.8L541.444 289.972L550.443 292.518H562.131L569.274 291.528L574.933 292.518L580.592 291.528L586.808 294.71L593.209 296.548L594.971 298.104M515.654 262.537L518.809 254.688L530.405 246.556L543.87 240.616M630.965 228.242L631.986 231.636L629.481 240.616L628.275 246.697L625.678 253.981L626.512 256.173V264.446L621.132 269.961L619.555 281.275L615.659 288.699C615.102 289.642 612.82 292.164 608.144 294.71C603.469 297.255 600.135 296.996 599.053 296.548L594.971 298.104M630.965 228.242L643.396 230.08M630.965 228.242L604.341 229.161M643.396 230.08H652.859L666.681 236.303L676.886 239.839L681.06 240.616L691.079 244.081H700.541L712.787 241.818L726.238 237.717M643.396 230.08L676.793 222.797M643.396 230.08L646.24 204.766M726.238 237.717L739.04 225.909L746.091 215.514L747.482 202.221M726.238 237.717L725.735 236.303M747.482 202.221L756.295 201.019L772.159 197.342M747.482 202.221L713.367 201.567M772.159 197.342V166.123M772.159 197.342L724.661 190.322M594.971 298.104V319.317V327.661L597.198 338.833L599.053 352.126V364.501V380.34V391.229L589.127 413.291M614.731 104.004L570.388 102.554M614.731 104.004L595.475 124.086M614.731 104.004L729.485 119.136M570.388 102.554V150.249M570.388 150.249L595.475 124.086M570.388 150.249L509.269 113.656M570.388 150.249L472.378 160.749M595.475 124.086L648.313 145.935M648.313 145.935V166.123M648.313 145.935L691.589 126.162M648.313 186.311L679.251 200.912M648.313 186.311V166.123M648.313 186.311L646.24 204.766M679.251 200.912L710.189 215.514L676.793 222.797M679.251 200.912L713.367 201.567M713.367 201.567L725.735 236.303M713.367 201.567L680.84 183.845M676.793 222.797L725.735 236.303M648.313 166.123L680.84 183.845M680.84 183.845L724.661 190.322M772.159 166.123L729.485 119.136M729.485 119.136L724.661 190.322M724.661 190.322L710.894 163.613M691.589 126.162L710.894 163.613M750.544 104.004L794.608 84.0637M750.544 104.004L788.3 107.964M509.269 113.656L505.635 115.813L495.338 124.086L489.123 132.359L480.774 141.41L477.248 150.249L473.445 155.835L472.378 160.749M472.378 160.749L471.311 165.663V176.199L468.343 188.361L465.652 197.624V200.912M490.514 134.339L550.443 237.717M550.443 237.717L508.047 219.315M550.443 237.717L543.87 240.616M465.652 200.912L508.047 219.315M508.047 219.315L580.592 166.979M621.132 137.733L600.862 152.356M580.592 166.979L586.808 197.342M580.592 166.979L600.862 152.356M586.808 197.342L620.627 201.567M586.808 197.342L577.809 230.08M646.24 204.766L633.434 203.166M600.862 152.356L620.627 201.567M620.627 201.567L633.434 203.166M577.809 230.08L604.341 229.161M577.809 230.08H565.378M604.341 229.161L633.434 203.166M604.341 229.161L565.378 230.08M565.378 230.08C553.43 236.19 546.061 239.65 543.87 240.616" stroke="#25A7C4" stroke-width="10" stroke-linecap="round" stroke-linejoin="round"/>
<ellipse cx="682.412" cy="110.152" rx="7.63238" ry="6.83805" fill="url(#paint10_diamond_105_217)"/>
<ellipse cx="569.453" cy="146.394" rx="7.63238" ry="6.83805" fill="url(#paint11_diamond_105_217)"/>
<ellipse cx="712.941" cy="201.781" rx="7.63238" ry="6.83805" fill="url(#paint12_diamond_105_217)"/>
<ellipse cx="529.002" cy="205.201" rx="7.63238" ry="6.83805" fill="url(#paint13_diamond_105_217)"/>
<ellipse cx="771.711" cy="163.489" rx="7.63238" ry="6.83805" fill="url(#paint14_diamond_105_217)"/>
<path d="M698.822 1535.88L672.872 1561.19L664.095 1569.73L660.257 1580.67L659.897 1581.7L650.356 1583.75H624.788L609.905 1580.67L601.509 1577.6L597.693 1564.95V1548.19L595.785 1538.28L591.969 1527.68L585.863 1518.11L580.138 1504.43L577.849 1488.7V1475.71L585.863 1464.43L601.127 1453.49L628.222 1451.78L639.098 1455.02L649.975 1458.27L664.095 1464.43L672.872 1475.71L681.649 1482.21L696.871 1484.63L698.822 1484.94H718.284L748.051 1482.21L774.382 1475.71L792.7 1469.9L814.834 1456.56L835.823 1447.67L849.943 1441.52L858.339 1440.15L864.445 1439.13H865.589L871.314 1442.89L875.893 1451.09V1458.96L872.84 1469.9L864.445 1478.44L849.943 1488.02L830.862 1496.57L814.834 1501.35L783.16 1515.37L754.538 1523.92L726.298 1530.41L712.179 1535.88H698.822ZM698.822 1535.88L696.871 1537.79" stroke="#04C0FD" stroke-width="10"/>
<path d="M545.628 1828.28L541.053 1822.47L536.138 1816.16L528.158 1809.89L522.513 1806.14L515.846 1803.7L508.546 1802.4H501.149H494.337L487.524 1801.25L482.463 1800.56L478.618 1798.46L476.526 1795.32L473.995 1789.93L470.589 1782.36L468.643 1776.55L467.475 1771.08L468.643 1765.23L470.589 1761.86L476.526 1760.79H484.069L492.536 1763.24L497.013 1765.8L504.994 1770.01L510.201 1774.44L513.899 1777.81L518.668 1781.67L523.827 1785.38L529.471 1789.93L533.608 1794.02L538.669 1798.46L544.606 1801.25L548.45 1803.7L556.479 1805.57L563.292 1806.14H571.468L577.989 1806.95H580.227V1808.02" stroke="url(#paint15_linear_105_217)" stroke-width="5"/>
<path d="M775.805 1833.86L780.671 1827.36L786.121 1821.93L790.988 1817.8L796.633 1813.68L801.499 1811.3L805.635 1809.97L810.307 1808.67H814.103H817.85H821.208H824.419H830.794H834.152L837.169 1807.9L840.332 1806.3L843.739 1803.92L845.393 1802.01L847.486 1797.73L849.919 1792.87L851.817 1788.74V1783.43L852.936 1778.15V1772.84L850.843 1770.47L845.393 1769.01L841.841 1767.52L835.66 1769.01L830.794 1770.47L824.419 1771.96L821.208 1775.21L816.341 1778.15L809.188 1782.28L803.397 1786.68L799.066 1790.54L794.005 1794.63L789.674 1797.73L784.224 1802.01L777.849 1805.26L771.279 1807.9L765.099 1809.97H760.817H754.977H748.213L736.388 1808.67" stroke="url(#paint16_linear_105_217)" stroke-width="5"/>
<path d="M636.823 2006.62L633.416 2022.87V2023.91L635.314 2025.74L637.991 2027.73L641.495 2029.3L647.626 2031.44L651.227 2033.69H655.947H664.269L671.13 2032.85L679.792 2029.3L683.977 2025.01V2018.93L681.982 2014.08L678.527 2006.62V1999.74L679.792 1993.2L681.982 1987.04L683.977 1978.13L686.119 1966.93L688.503 1960.09L689.914 1952.25V1941.62L688.503 1934.66V1925.29L691.374 1918.48V1914.51L689.914 1907.51L688.503 1900.02L686.313 1891.76V1883.65V1875.43L689.914 1866.02L692.834 1859.25L696.825 1849.85L699.501 1845.3L701.885 1839.64L705.487 1829.66L707.676 1824L710.548 1819.03L713.613 1814.17H717.409H723.589H727.823L732.787 1815.17L741.789 1817.08L747.629 1819.87L755.512 1824L760.281 1825.57L764.32 1829.66L768.408 1834.06L772.496 1839.64L773.566 1846.75V1853.6L778.433 1859.25L782.812 1864.65L787.873 1867.51L797.071 1869.5L812.448 1867.51L822.911 1863.23L828.556 1859.25L833.763 1853.6L837.558 1848.05L841.208 1837.8L843.544 1831.84L845.004 1822.81L848.216 1817.08L850.892 1812.83L853.958 1808.13L856.878 1802.74L860.089 1796.2L862.376 1791L863.301 1784.61V1775.32L862.376 1770.35L860.965 1766.45L858.191 1762.78L853.52 1759.42L849.432 1756.17H844.225H836.244L830.161 1758.88L824.76 1761.75L817.558 1765.15L810.891 1769.24L805.83 1773.07L799.942 1776.24L793.664 1780.18L787.873 1784.61L782.812 1786.79L777.167 1789.59L771.182 1792.53L764.32 1794.29L755.512 1793.72H747.629L741.789 1792.53L737.848 1791.5L727.823 1788.67L719.21 1784.12L715.025 1782.93L708.504 1778.99L704.562 1776.24L698.771 1773.91L692.347 1770.01L687.53 1767.18L683.491 1764.69L678.819 1762.21L675.121 1760.56L671.179 1758.42L665.729 1757.31L661.787 1756.43H658.283L653.709 1757.81L647.48 1759.34L642.711 1761.86L634.828 1765.11L629.183 1768.59L621.299 1773.41L611.81 1777.2L603.002 1781.48L594.924 1785.15L589.036 1786.53L584.121 1788.09L578.865 1789.51L572.004 1790.73H566.894L561.541 1790.24L555.653 1788.09L548.986 1785.15L543.779 1783.28L538.864 1780.18L534.582 1777.2L530.251 1774.63L525.336 1771.08L519.739 1766.91L514.63 1763.81L509.277 1759.87L504.362 1757.66L499.009 1754.29L495.019 1751.92L487.816 1749.09L481.587 1747.18H475.894L471.32 1748.21L464.896 1751.92L459.64 1757.31L456.039 1763.32L454.969 1772.15L456.039 1782.78L460.322 1793.91L465.723 1802.55L472.974 1812.6L473.801 1821.78L474.726 1830.69L479.3 1839.87L484.313 1845.53L492.488 1852.72L499.69 1858.72L510.055 1863.08L521.053 1865.07L533.17 1862.5L540.373 1857.34L542.903 1853.33L546.017 1848.36L547.915 1838.41V1834.36L563.05 1820.37L583.001 1811.61L607.917 1809.51L614.632 1827.9L618.039 1836.77L629.767 1864.65L634.925 1878.49V1888.43L632.832 1897.15L627.626 1911.6L628.793 1924.11V1934.66V1952.25L629.961 1962.19L631.47 1972.13L636.823 1987.04L637.991 1995.34L636.823 2006.62Z" stroke="url(#paint17_linear_105_217)" stroke-width="10" stroke-linecap="round" stroke-linejoin="bevel"/>
<path d="M737.362 1809.83L745.345 1813.72L751.852 1816.5L757.496 1818.7L761.919 1821.79L768.732 1826.66L773.003 1830.21L777.121 1834.85" stroke="url(#paint18_linear_105_217)" stroke-width="5" stroke-linecap="round" stroke-linejoin="bevel"/>
<path d="M607.556 1787.67L612.805 1790.15L616.402 1790.99H620.388H625.151H626.998L629.331 1793.81L632.977 1796.17L634.824 1799.83L636.719 1803.03L638.907 1807.52L641.483 1812.36L644.156 1820.59V1825.16L645.469 1830.12L646.732 1834.23L647.802 1839.34L649.163 1844.75L651.982 1851.22L653.829 1856.37L655.384 1861.55L656.162 1866.5L657.571 1872.26L658.738 1876.83L659.564 1881.21V1889.36L658.738 1896.22L657.912 1900.98L657.134 1905.17L656.308 1909.29V1927.12L651.982 1927.69H646.975H642.649L645.663 1930.7H640.802V1933.25V1936.99V1942.4V1946.32L641.483 1948.88L643.476 1950.36L644.739 1952.84L645.663 1954.74L646.246 1957.11L646.975 1960.61L645.663 1962.78L643.476 1964.15L642.649 1966.71V1968.46L643.476 1970.1L645.663 1971.85L646.246 1973.3L648.239 1975.51L650.232 1976.96V1979.05L649.065 1979.89L648.239 1981.64L646.975 1984.73V1987.39L646.246 1989.95V1992.04L645.663 1994.79V1997.53V1999.74L646.246 2001.64L648.239 2004.2L649.065 2006.22V2008.88L650.232 2010.33V2013.46V2017.38V2019.93L648.239 2021.04V2022.94L646.975 2023.78V2025.15L646.246 2025.99L645.663 2027.51V2030.83" stroke="url(#paint19_linear_105_217)" stroke-width="5" stroke-linecap="round" stroke-linejoin="bevel"/>
<path d="M607.527 1787.48L614.778 1784.65L621.396 1782.44L629.036 1781.48H636.92H645.144L651.178 1783.39L657.796 1784.65L663.636 1787.48L665.242 1788.74L670.303 1786.53L677.505 1784.65L683.15 1783.39H690.011H695.218H701.253L709.087 1786.53L714.1 1788.74L718.528 1790.96V1792.87L709.087 1794.29H701.253L697.846 1796.01L693.612 1798.23L690.011 1803.92L688.162 1806.3L685.583 1809.93L684.561 1817.04L683.15 1822.24L681.544 1829.85L678.527 1836.31L675.899 1842.77L674.099 1849.27L671.665 1855.74L667.48 1862.54L666.069 1869.5L664.463 1877.42L663.441 1887.51V1896.19L664.463 1904.72V1909.65L666.069 1917.22V1929.38H671.081H675.899V1932.08L678.722 1933.01V1938.87V1946.93V1950.26L675.899 1955L673.32 1957.83V1961.31V1963.99V1966.66L675.899 1968.73V1972.36L673.32 1974.88L669.865 1976.49L668.259 1979.78V1982.8L669.865 1984.75L671.325 1987.81L672.298 1991.02V1993.77V1997.06V1999.89L671.325 2002.87L668.892 2005.21L666.41 2008.69V2011.67L665.534 2014.08V2018.71V2020.92V2022.72L667.432 2025.21L668.113 2027.12L668.892 2028.04V2032.59" stroke="url(#paint20_linear_105_217)" stroke-width="5" stroke-linecap="round" stroke-linejoin="bevel"/>
<path d="M544.802 1829.12L551.672 1822.65L558.281 1818.24L572.333 1810.94L581.337 1807.92" stroke="url(#paint21_linear_105_217)" stroke-width="5" stroke-linecap="round" stroke-linejoin="bevel"/>
<path d="M530.959 1830.59C539.709 1842.49 537.398 1855.48 527.323 1860.05C517.247 1864.62 501.782 1859.7 493.032 1847.79C484.281 1835.88 486.592 1822.9 496.668 1818.33C506.743 1813.76 522.209 1818.68 530.959 1830.59Z" stroke="#0288C9" stroke-width="5"/>
<path d="M827.317 1853.14C818.567 1865.05 803.102 1869.97 793.026 1865.4C782.951 1860.83 780.64 1847.85 789.39 1835.94C798.14 1824.03 813.605 1819.11 823.681 1823.68C833.756 1828.25 836.068 1841.24 827.317 1853.14Z" stroke="#0288C9" stroke-width="5"/>
<path d="M649.784 2104.68L651.12 2100.04L652.646 2091.87V2082.58L651.825 2079.61L649.975 2072.93L645.396 2064.76L641.198 2062.9L633.947 2061.05H626.315L619.827 2064.76L613.721 2072.93L611.432 2080.73V2088.53V2098.92L613.721 2106.72L616.774 2111.92L623.643 2115.26L629.749 2117.12H637L643.488 2115.26L648.449 2109.32L649.784 2104.68ZM649.784 2104.68L648.449 2103.86" stroke="#0AEBDD" stroke-width="10"/>
<path d="M715.422 2104.68L716.758 2100.04L718.284 2091.87V2082.58L717.462 2079.61L715.613 2072.93L711.033 2064.76L706.836 2062.9L699.585 2061.05H691.952L685.465 2064.76L679.359 2072.93L677.069 2080.73V2088.53V2098.92L679.359 2106.72L682.412 2111.92L689.281 2115.26L695.387 2117.12H702.638L709.125 2115.26L714.086 2109.32L715.422 2104.68ZM715.422 2104.68L714.086 2103.86" stroke="#0AEBDD" stroke-width="10"/>
<path d="M805.568 1852.8L809.11 1863.43L789.266 1861.85L805.568 1852.8ZM805.568 1852.8L789.266 1843.37L802.355 1839.77M805.568 1852.8H825.138M805.568 1852.8L815.734 1845.82M815.734 1845.82L827.046 1837.78L815.443 1827.53V1836.16M815.734 1845.82L815.443 1836.16M815.443 1836.16L802.355 1839.77M802.355 1839.77L802.886 1833.79V1825.82" stroke="url(#paint22_linear_105_217)" stroke-width="4"/>
<path d="M504.231 1838.3L491.604 1839.84L493.213 1823.08L504.231 1838.3ZM504.231 1838.3L515.646 1822.4L520.099 1835.3M504.231 1838.3L496.946 1850.78M504.231 1838.3L512.725 1847.78M512.725 1847.78L521.218 1857.27L530.91 1847.51H524.489M512.725 1847.78L524.489 1847.51M524.489 1847.51L520.099 1835.3M520.099 1835.3H532.437" stroke="url(#paint23_linear_105_217)" stroke-width="4"/>
<path d="M146.619 2133.53V2120.06L143.948 2103.89L136.316 2084.35L131.354 2057.41V2045.62L147.001 1989.71L153.107 1952.99L160.357 1900.45L169.898 1843.53L177.912 1790.65L184.781 1746.52L193.177 1705.09L199.664 1671.41L210.731 1626.95L221.798 1576.76L230.575 1496.94V1401.62L243.169 1365.58L262.25 1308.32L274.461 1259.48L284.383 1224.11L294.687 1068.16L306.136 1215.02L310.715 1257.46L317.584 1302.93L320.256 1347.39V1391.85L318.729 1436.98L316.439 1476.05L312.242 1513.44L305.372 1547.12L301.556 1586.53L292.397 1638.06L284.002 1689.94L275.988 1732.71L265.303 1776.84L257.289 1822.31L246.222 1868.79L235.918 1911.9L224.088 1961.75L216.074 2013.28L209.968 2057.41L205.007 2100.52V2133.53L1067.85 2131.4" stroke="#04C0FD" stroke-width="20"/>
<path d="M593.115 772.417L614.867 782.674L625.171 787.118L605.136 793.785M585.101 800.452L605.136 793.785M605.136 793.785L591.588 821.309L614.485 817.719M637.382 814.129L614.485 817.719M614.485 817.719L625.171 838.404M637.382 857.892L625.171 838.404M625.171 838.404L618.111 856.183M611.051 873.961L618.111 856.183M618.111 856.183L611.051 817.719" stroke="#0AEBDD" stroke-width="5"/>
<ellipse cx="612.958" cy="816.522" rx="7.63238" ry="6.83805" fill="url(#paint24_diamond_105_217)"/>
<ellipse cx="662.568" cy="787.802" rx="7.63238" ry="6.83805" fill="url(#paint25_diamond_105_217)"/>
<path d="M649.593 2086.88L639.176 2077.4M639.176 2077.4L627.216 2066.52L614.484 2094.15L626.83 2085.78M639.176 2077.4L626.83 2085.78M626.83 2085.78L636.09 2097.78M645.349 2109.79L636.09 2097.78M636.09 2097.78L624.516 2112.33" stroke="#0AEBDD" stroke-width="3"/>
<path d="M715.232 2086.88L704.815 2077.4M704.815 2077.4L692.855 2066.52L680.123 2094.15L692.469 2085.78M704.815 2077.4L692.469 2085.78M692.469 2085.78L701.729 2097.78M710.988 2109.79L701.729 2097.78M701.729 2097.78L690.154 2112.33" stroke="#0AEBDD" stroke-width="3"/>
<path d="M572.125 575.139L588.153 591.55L605.326 604.2M605.326 604.2L618.682 664.033L574.796 676.342L595.022 641.382M605.326 604.2L604.582 604.034M564.111 595.653L580.902 598.73M580.902 598.73L570.217 619.757M580.902 598.73L604.582 604.034M559.531 640.784L570.217 619.757M570.217 619.757L595.022 641.382M595.022 641.382L619.827 663.008L639.15 628.817M595.022 641.382L604.582 604.034M639.15 628.817L650.357 608.987L678.978 619.586M639.15 628.817L670.582 629.445M670.582 629.445L707.599 630.185L678.978 619.586M670.582 629.445L662.64 647.622M651.883 672.239L662.64 647.622M662.64 647.622L700.73 668.82M678.978 619.586L692.144 601.807M705.31 584.028L692.144 601.807M692.144 601.807L673.635 584.028" stroke="#0AEBDD" stroke-width="3"/>
<ellipse cx="596.168" cy="640.784" rx="7.63238" ry="6.83805" fill="url(#paint26_diamond_105_217)"/>
<ellipse cx="680.124" cy="618.903" rx="7.63238" ry="6.83805" fill="url(#paint27_diamond_105_217)"/>
<defs>
<linearGradient id="paint0_linear_105_217" x1="630.837" y1="1383.75" x2="630.837" y2="1461.23" gradientUnits="userSpaceOnUse">
<stop stop-color="#0091B1"/>
<stop offset="1" stop-color="#0AEBDD"/>
</linearGradient>
<linearGradient id="paint1_linear_105_217" x1="520.605" y1="1415.84" x2="520.605" y2="1551.61" gradientUnits="userSpaceOnUse">
<stop stop-color="#03B4F2"/>
<stop offset="0.520833" stop-color="#59DDFA"/>
<stop offset="1" stop-color="#0AEBDD"/>
</linearGradient>
<linearGradient id="paint2_linear_105_217" x1="910.439" y1="1517.59" x2="910.439" y2="1408.98" gradientUnits="userSpaceOnUse">
<stop stop-color="#0091B1"/>
<stop offset="1" stop-color="#0AEBDD"/>
</linearGradient>
<radialGradient id="paint3_diamond_105_217" cx="0" cy="0" r="1" gradientUnits="userSpaceOnUse" gradientTransform="translate(810.664 1839.74) rotate(90) scale(8.44991 10.7141)">
<stop stop-color="white"/>
<stop offset="0.5" stop-color="#93E5F7"/>
<stop offset="1" stop-color="#25A7C4"/>
</radialGradient>
<radialGradient id="paint4_diamond_105_217" cx="0" cy="0" r="1" gradientUnits="userSpaceOnUse" gradientTransform="translate(641.197 1483.92) rotate(90) scale(6.83805 7.63238)">
<stop stop-color="white"/>
<stop offset="0.5" stop-color="#93E5F7"/>
<stop offset="1" stop-color="#25A7C4"/>
</radialGradient>
<radialGradient id="paint5_diamond_105_217" cx="0" cy="0" r="1" gradientUnits="userSpaceOnUse" gradientTransform="translate(748.05 1505.11) rotate(90) scale(6.83805 7.63238)">
<stop stop-color="white"/>
<stop offset="0.5" stop-color="#93E5F7"/>
<stop offset="1" stop-color="#25A7C4"/>
</radialGradient>
<radialGradient id="paint6_diamond_105_217" cx="0" cy="0" r="1" gradientUnits="userSpaceOnUse" gradientTransform="translate(550.4 1454.76) rotate(90) scale(8.44991 10.7141)">
<stop stop-color="white"/>
<stop offset="0.5" stop-color="#93E5F7"/>
<stop offset="1" stop-color="#25A7C4"/>
</radialGradient>
<radialGradient id="paint7_diamond_105_217" cx="0" cy="0" r="1" gradientUnits="userSpaceOnUse" gradientTransform="translate(886.987 1482.11) rotate(90) scale(8.44991 10.7141)">
<stop stop-color="white"/>
<stop offset="0.5" stop-color="#93E5F7"/>
<stop offset="1" stop-color="#25A7C4"/>
</radialGradient>
<radialGradient id="paint8_diamond_105_217" cx="0" cy="0" r="1" gradientUnits="userSpaceOnUse" gradientTransform="translate(506.896 1839.74) rotate(90) scale(8.44991 10.7141)">
<stop stop-color="white"/>
<stop offset="0.5" stop-color="#93E5F7"/>
<stop offset="1" stop-color="#25A7C4"/>
</radialGradient>
<radialGradient id="paint9_diamond_105_217" cx="0" cy="0" r="1" gradientUnits="userSpaceOnUse" gradientTransform="translate(545.057 1505.36) rotate(90) scale(8.44991 10.7141)">
<stop stop-color="white"/>
<stop offset="0.5" stop-color="#93E5F7"/>
<stop offset="1" stop-color="#25A7C4"/>
</radialGradient>
<radialGradient id="paint10_diamond_105_217" cx="0" cy="0" r="1" gradientUnits="userSpaceOnUse" gradientTransform="translate(682.412 110.152) rotate(90) scale(6.83805 7.63238)">
<stop stop-color="white"/>
<stop offset="0.5" stop-color="#93E5F7"/>
<stop offset="1" stop-color="#25A7C4"/>
</radialGradient>
<radialGradient id="paint11_diamond_105_217" cx="0" cy="0" r="1" gradientUnits="userSpaceOnUse" gradientTransform="translate(569.453 146.394) rotate(90) scale(6.83805 7.63238)">
<stop stop-color="white"/>
<stop offset="0.5" stop-color="#93E5F7"/>
<stop offset="1" stop-color="#25A7C4"/>
</radialGradient>
<radialGradient id="paint12_diamond_105_217" cx="0" cy="0" r="1" gradientUnits="userSpaceOnUse" gradientTransform="translate(712.941 201.781) rotate(90) scale(6.83805 7.63238)">
<stop stop-color="white"/>
<stop offset="0.5" stop-color="#93E5F7"/>
<stop offset="1" stop-color="#25A7C4"/>
</radialGradient>
<radialGradient id="paint13_diamond_105_217" cx="0" cy="0" r="1" gradientUnits="userSpaceOnUse" gradientTransform="translate(529.002 205.201) rotate(90) scale(6.83805 7.63238)">
<stop stop-color="white"/>
<stop offset="0.5" stop-color="#93E5F7"/>
<stop offset="1" stop-color="#25A7C4"/>
</radialGradient>
<radialGradient id="paint14_diamond_105_217" cx="0" cy="0" r="1" gradientUnits="userSpaceOnUse" gradientTransform="translate(771.711 163.489) rotate(90) scale(6.83805 7.63238)">
<stop stop-color="white"/>
<stop offset="0.5" stop-color="#93E5F7"/>
<stop offset="1" stop-color="#25A7C4"/>
</radialGradient>
<linearGradient id="paint15_linear_105_217" x1="512.952" y1="1811.94" x2="512.952" y2="1828.28" gradientUnits="userSpaceOnUse">
<stop stop-color="#0288C9"/>
<stop offset="1" stop-color="#1CFBC5"/>
</linearGradient>
<linearGradient id="paint16_linear_105_217" x1="783.396" y1="1817.8" x2="783.396" y2="1833.86" gradientUnits="userSpaceOnUse">
<stop stop-color="#0288C9"/>
<stop offset="1" stop-color="#1CFBC5"/>
</linearGradient>
<linearGradient id="paint17_linear_105_217" x1="659.135" y1="1808.82" x2="659.135" y2="2022.14" gradientUnits="userSpaceOnUse">
<stop stop-color="#0091B1"/>
<stop offset="1" stop-color="#0AEBDD"/>
</linearGradient>
<linearGradient id="paint18_linear_105_217" x1="757.242" y1="1815.43" x2="757.242" y2="1834.79" gradientUnits="userSpaceOnUse">
<stop stop-color="#0091B1"/>
<stop offset="1" stop-color="#0AEBDD"/>
</linearGradient>
<linearGradient id="paint19_linear_105_217" x1="633.56" y1="1842.04" x2="633.56" y2="2030.18" gradientUnits="userSpaceOnUse">
<stop stop-color="#0091B1"/>
<stop offset="1" stop-color="#0AEBDD"/>
</linearGradient>
<linearGradient id="paint20_linear_105_217" x1="663.028" y1="1837.63" x2="663.028" y2="2031.92" gradientUnits="userSpaceOnUse">
<stop stop-color="#0091B1"/>
<stop offset="1" stop-color="#0AEBDD"/>
</linearGradient>
<linearGradient id="paint21_linear_105_217" x1="563.069" y1="1812.66" x2="563.069" y2="1829.07" gradientUnits="userSpaceOnUse">
<stop stop-color="#0091B1"/>
<stop offset="1" stop-color="#0AEBDD"/>
</linearGradient>
<linearGradient id="paint22_linear_105_217" x1="789.266" y1="1845.31" x2="825.901" y2="1845.31" gradientUnits="userSpaceOnUse">
<stop stop-color="#028BCB"/>
<stop offset="0.0001" stop-color="#0288C9"/>
<stop offset="0.588542" stop-color="#25A7C4"/>
<stop offset="1" stop-color="#1CFBC5"/>
</linearGradient>
<linearGradient id="paint23_linear_105_217" x1="513.356" y1="1823.08" x2="513.356" y2="1857.27" gradientUnits="userSpaceOnUse">
<stop stop-color="#028BCB"/>
<stop offset="0.0001" stop-color="#0288C9"/>
<stop offset="0.588542" stop-color="#25A7C4"/>
<stop offset="1" stop-color="#1CFBC5"/>
</linearGradient>
<radialGradient id="paint24_diamond_105_217" cx="0" cy="0" r="1" gradientUnits="userSpaceOnUse" gradientTransform="translate(612.958 816.522) rotate(90) scale(6.83805 7.63238)">
<stop stop-color="white"/>
<stop offset="0.5" stop-color="#93E5F7"/>
<stop offset="1" stop-color="#25A7C4"/>
</radialGradient>
<radialGradient id="paint25_diamond_105_217" cx="0" cy="0" r="1" gradientUnits="userSpaceOnUse" gradientTransform="translate(662.568 787.802) rotate(90) scale(6.83805 7.63238)">
<stop stop-color="white"/>
<stop offset="0.5" stop-color="#93E5F7"/>
<stop offset="1" stop-color="#25A7C4"/>
</radialGradient>
<radialGradient id="paint26_diamond_105_217" cx="0" cy="0" r="1" gradientUnits="userSpaceOnUse" gradientTransform="translate(596.168 640.784) rotate(90) scale(6.83805 7.63238)">
<stop stop-color="white"/>
<stop offset="0.5" stop-color="#93E5F7"/>
<stop offset="1" stop-color="#25A7C4"/>
</radialGradient>
<radialGradient id="paint27_diamond_105_217" cx="0" cy="0" r="1" gradientUnits="userSpaceOnUse" gradientTransform="translate(680.124 618.902) rotate(90) scale(6.83805 7.63238)">
<stop stop-color="white"/>
<stop offset="0.5" stop-color="#93E5F7"/>
<stop offset="1" stop-color="#25A7C4"/>
</radialGradient>
</defs>
</svg>
