<svg width="1018" height="1132" viewBox="0 0 1018 1132" fill="none" xmlns="http://www.w3.org/2000/svg">
<path d="M356.787 445.525L369.496 423.753L348.498 408.114L364.247 371.622L348.498 341.877" stroke="url(#paint0_linear_60_107)" stroke-width="10" stroke-linecap="round" stroke-linejoin="bevel"/>
<path d="M574.225 506.243L595.223 454.725L585 413.327L615.115 369.476V312.745L650.757 271.96V232.402" stroke="url(#paint1_linear_60_107)" stroke-width="10" stroke-linecap="round" stroke-linejoin="bevel"/>
<path d="M749.117 439.086L764.037 405.048L741.381 374.383L764.037 338.505L757.129 295.88L786.14 253.562V215.844" stroke="url(#paint2_linear_60_107)" stroke-width="10" stroke-linecap="round" stroke-linejoin="bevel"/>
<path d="M877.314 623.691L894.168 613.878L905.22 594.866L915.719 562.974H925.941H938.374L952.741 566.96L967.108 562.974L977.331 555.001L980.094 548.561L989.212 536.602L1000.82 530.469" stroke="url(#paint3_linear_60_107)" stroke-width="20" stroke-linecap="round" stroke-linejoin="bevel"/>
<path d="M606.553 600.691L630.037 590.879L645.51 579.226L656.837 573.706H673.138L698.281 585.359L727.567 600.691L759.064 607.131H780.339L798.021 590.879H815.151L825.65 600.691L845.267 607.131L867.646 624.917" stroke="url(#paint4_linear_60_107)" stroke-width="20" stroke-linecap="round" stroke-linejoin="bevel"/>
<path d="M15.0176 561.747H40.1599L65.5785 572.48L76.6301 586.586L91.826 597.012H109.232L124.981 591.799L146.255 586.586L163.109 597.012L168.634 605.905" stroke="url(#paint5_linear_60_107)" stroke-width="20" stroke-linecap="round" stroke-linejoin="bevel"/>
<path d="M221.682 615.411L244.614 604.064H262.849L280.255 615.411L300.7 625.223L323.08 631.357H346.841L366.457 625.223L381.653 615.411L402.099 597.931H413.979L433.043 604.064L452.936 609.278H474.21L488.577 597.931L505.154 583.825L517.864 576.772H528.915L555.715 589.958" stroke="url(#paint6_linear_60_107)" stroke-width="20" stroke-linecap="round" stroke-linejoin="bevel"/>
<path d="M581.409 691.154L608.761 653.435H585.691M575.883 574.013L590.803 591.798L562.621 653.435H585.691M575.883 574.013L585.691 653.435M575.883 574.013L585.691 534.148L570.081 498.576" stroke="url(#paint7_linear_60_107)" stroke-width="10" stroke-linecap="round" stroke-linejoin="bevel"/>
<path d="M797.191 35.8389L805.066 64.3575M805.066 64.3575L812.94 92.8761V156.353L805.48 204.191L792.218 242.829L781.719 273.187L766.523 300.786L759.34 356.597V392.782L776.193 437.553H748.288L741.934 401.368V364.263L751.88 304.773L766.523 255.402L785.864 212.164L797.191 171.992L801.888 127.834L805.066 64.3575Z" stroke="url(#paint8_linear_60_107)" stroke-width="20" stroke-linecap="round" stroke-linejoin="bevel"/>
<path d="M570.08 570.64L562.068 609.891L556.266 642.09L562.068 672.755L575.606 689.927L592.736 695.141L607.932 689.927L615.392 672.755V649.449L607.932 624.304L598.262 600.998L592.736 570.64L588.592 539.975V506.856L592.736 466.378L598.262 438.779L607.932 399.221L617.602 362.423L630.588 330.531L641.087 304.159L659.045 258.468L673.412 217.07L683.083 183.338L690.542 143.474L695.239 104.222L690.542 57.6111M690.542 57.6111L677.557 11M690.542 57.6111L683.083 83.3699V98.7025V129.368L677.557 155.126L673.412 183.338L662.085 206.337L645.231 250.189L630.588 283.614L611.247 327.465L592.736 373.156L582.237 416.087L570.08 466.378L567.594 510.536V570.64M397.952 45.9583L407.622 121.395L397.952 183.338L385.795 232.403L369.218 272.267L357.061 304.159L352.641 330.531L346.01 353.837V384.195V421.914L352.641 438.779V446.752H376.402L369.218 421.914L362.035 384.195V353.837V324.398L376.402 292.2L385.795 263.375L393.808 232.403L403.202 210.63L408.175 187.325L418.95 121.395L397.952 45.9583Z" stroke="url(#paint9_linear_60_107)" stroke-width="20" stroke-linecap="round" stroke-linejoin="bevel"/>
<path d="M193.498 691.768L221.956 668.769M221.956 668.769L176.645 654.663L193.498 634.424M221.956 668.769L193.498 634.424M193.498 634.424L192.413 625.838M210.352 602.839L192.413 625.838M192.413 625.838L189.354 579.84L203.445 557.147L192.413 531.389L203.445 480.791L193.498 442.46L219.469 410.568L212.562 370.703" stroke="url(#paint10_linear_60_107)" stroke-width="10" stroke-linecap="round" stroke-linejoin="bevel"/>
<path d="M292.134 20.5068L292.656 25.7199M292.656 25.7199L300.423 103.303V143.781L279.425 196.525L267.545 245.896L244.06 303.547L231.074 333.905L215.602 368.25L202.064 414.555L188.25 460.246V489.378V524.949V575.24L178.303 602.532L172.777 629.824V657.116L178.303 684.408L195.709 695.754L215.602 703.727L231.074 684.408V657.116L221.128 635.037L212.01 606.825L205.656 578.307L202.064 519.736L205.656 473.432L212.01 434.794L221.128 400.449L231.074 363.037L244.06 327.772L259.532 295.574L279.425 253.869L289.371 214.618L307.606 152.98V103.303V67.1179L292.656 25.7199Z" stroke="url(#paint11_linear_60_107)" stroke-width="20" stroke-linecap="round" stroke-linejoin="bevel"/>
<path d="M8.10927 992.899L28.2784 984.62H64.196L97.3507 992.899L132.163 1002.41H166.699H210.906H267.821H307.331L345.458 992.899L393.533 984.62H446.58H501.009L512.061 986.204M8.10927 992.899V1053.92L869.855 1120.77L1008 1009.77V965.607H1002.75M8.10927 992.899V962.234M1002.75 965.607H979.542L972.359 968.743M1002.75 965.607V940.769M1002.75 915.93V888.638C1000.08 888.638 991.699 889.558 979.542 893.237C967.385 896.917 967.478 898.246 969.043 898.451L954.952 902.437L939.204 893.237H926.495L910.194 898.451L904.668 888.638L888.367 880.358H869.855L827.583 870.852H797.191L757.129 876.065L722.041 880.358H701.733M1002.75 915.93H988.383L962.136 910.717L939.204 927.276H926.495L898.866 910.717H878.42L847.2 915.93L797.191 910.717H762.655L729.777 898.451L701.733 880.358M1002.75 915.93V940.769M701.733 880.358H681.426L645.509 870.852H621.748H589.422L550.189 880.358L525.599 885.698M1002.75 940.769L979.542 934.635L962.136 940.769M962.136 940.769L939.204 953.341M962.136 940.769L945.835 934.635H933.126L919.864 931.569L910.194 934.635L902.181 940.769V949.626M939.204 953.341H910.194L902.181 949.626M939.204 953.341L962.136 957.941L972.359 968.743M939.204 953.341C929.037 963.154 922.074 975.829 919.864 980.94L910.194 992.899H888.367L869.855 989.22L843.884 984.62H804.927H757.129L729.777 976.34H698.556H673.69H645.509H615.393L595.224 980.94L566.49 984.62L512.061 986.204M525.599 885.698L512.061 888.638L498.523 886.179M525.599 885.698L595.224 898.451L660.152 915.93L729.777 940.769H748.841M972.359 968.743L954.952 976.34L926.495 1009.77L869.855 1044.72L789.455 1031.23L673.69 1018.66L649.653 1013.27M512.061 986.204L558.754 992.899L649.653 1013.27M910.194 1014.36L878.42 1018.66H860.462H840.292M840.292 1018.66L836.148 1017.03M840.292 1018.66H817.637L797.191 1014.36C798.941 1015.9 797.91 1018.04 779.785 1014.36C761.661 1010.69 740.368 1004.65 731.987 1002.1C733 1002.1 731.379 1002.1 716.791 1002.1C682.31 1002.1 664.665 1003.94 660.152 1004.86L649.653 1013.27M836.148 1017.03L817.637 1009.77L797.191 1004.86L779.785 998.726L762.655 989.22L836.148 1017.03ZM902.181 949.626L869.855 934.635L827.583 940.769H772.049H757.129M902.181 949.626L891.682 957.941L880.631 968.743L869.855 971.434L849.963 965.607L830.346 957.941H809.624L757.129 940.769M757.129 940.769H748.841M748.841 940.769L706.568 948.741L668.717 953.955L636.667 960.701H573.397L538.032 953.955L475.867 938.929L433.042 932.796L412.873 930.956L376.127 929.422L350.708 934.329L327.223 938.929L302.634 943.528H244.337L214.221 938.929L186.868 934.329L164.489 928.502L127.19 926.356L97.3507 923.289H68.064H49.2764L30.765 928.502L20.266 931.569H8.10927M8.10927 931.569V890.784M8.10927 931.569V962.234M8.10927 890.784V835.28C7.09621 835.178 12.6957 836.384 43.198 842.027C73.7003 847.669 105.271 853.577 117.244 855.826L143.215 870.852C147.727 874.021 160.952 880.358 177.751 880.358C178.902 880.358 180.102 880.358 181.343 880.358M8.10927 890.784L30.765 895.077L49.2764 897.531H68.064H89.8909L109.784 890.784H127.19L145.149 885.571H157.858L181.343 880.358M181.343 880.358C187.581 880.358 194.845 880.358 202.064 880.358M202.064 880.358C214.361 880.358 226.529 880.358 233.285 880.358L278.873 870.852H318.382C320.408 863.594 332.362 850.429 363.97 855.826C395.577 861.223 423.188 868.092 433.042 870.852L466.473 880.358L498.523 886.179M202.064 880.358L214.221 885.571L224.72 888.331L240.469 890.784L255.388 898.451H275.557L293.792 904.89L315.619 907.343L332.473 910.41H350.708H369.496L391.875 908.877L409.834 904.89L425.859 902.744L443.541 898.451L460.671 892.931L475.867 890.784L498.523 886.179M8.10927 962.234H22.7526L40.1588 956.101H64.196H82.1548L97.3507 962.234L117.244 965.301L132.163 970.514H145.149L164.489 973.887L186.868 977.26H210.906L227.207 970.514L244.337 968.061L258.151 962.234L278.873 956.101H297.937" stroke="url(#paint12_linear_60_107)" stroke-width="10" stroke-linecap="round" stroke-linejoin="bevel"/>
<path d="M298.488 957.021L315.895 954.567L339.379 957.021L360.377 961.007L380.546 963.767L395.742 967.14L410.385 971.433L426.134 974.806H439.948L460.946 979.713H485.536L497.14 983.699" stroke="url(#paint13_linear_60_107)" stroke-width="5" stroke-linecap="round" stroke-linejoin="bevel"/>
<path d="M10.8711 461.165V1053L870.959 1122M10.8711 461.165H29.3825H48.7227L73.0362 449.819L95.4156 433.873L108.954 420.074L128.294 391.862L146.805 375.916L200.129 384.502L223.338 391.862H249.585L304.843 398.608H365.074H406.517H460.117L505.429 391.862L565.66 384.502H611.248H665.677H720.934L766.246 391.862H810.176L870.959 398.608L925.665 405.355L1002.2 398.608M10.8711 461.165L73.0362 481.404L119.729 493.057L153.436 499.803L187.42 508.39H243.783H288.265L341.589 514.829H385.243L434.699 508.39H479.458L513.441 499.803H551.017L602.406 493.057H646.06H685.846H720.934L766.246 499.803H801.335L836.147 508.39H870.959M870.959 1122L1008 1007.01L1002.2 398.608M870.959 1122V508.39M1002.2 398.608L980.37 428.047L965.45 439.393L945.834 449.819L917.1 467.605L870.959 508.39" stroke="url(#paint14_linear_60_107)" stroke-width="20" stroke-linecap="round" stroke-linejoin="bevel"/>
<path d="M11.9766 719.673H40.7106L66.6818 727.339L92.653 737.765L114.756 746.352L141.556 752.791H167.527H193.499L217.536 746.352L245.441 737.765L267.544 719.673H294.344H315.618L335.788 727.339L356.786 737.765L382.757 752.791L402.926 767.817L422.266 777.323H445.198L473.103 767.817L499.074 760.151L518.138 746.352L545.215 737.765L566.213 727.339H591.355H614.287L632.522 737.765L656.559 752.791L675.9 767.817L703.805 777.323H720.935H744.143H770.943L794.98 767.817L815.149 760.151H834.213L862.119 767.817" stroke="url(#paint15_linear_60_107)" stroke-width="10" stroke-linecap="round" stroke-linejoin="bevel"/>
<path d="M878.42 776.403L899.694 760.151H915.166L931.467 766.59L944.729 760.151L957.439 744.205L966.832 723.046L978.437 706.793L995.843 699.434" stroke="url(#paint16_linear_60_107)" stroke-width="10" stroke-linecap="round" stroke-linejoin="bevel"/>
<path d="M16.1211 721.513L71.6552 844.787L127.189 797.562M127.189 797.562L170.567 881.278V817.495M127.189 797.562L170.567 753.711V817.495M170.567 817.495L241.297 739.299M170.567 817.495L260.637 871.465L324.184 721.513L347.235 797.562M399.058 822.401L364.246 853.68L347.235 797.562M399.058 822.401L347.235 797.562M399.058 822.401L447.132 778.55L479.458 839.267M479.458 839.267L431.936 871.465M479.458 839.267L534.716 881.278L479.458 844.787L528.361 746.658L595.776 797.562M595.776 797.562L570.91 871.465M595.776 797.562L647.442 746.658L660.151 817.495M595.776 797.562L660.151 817.495M660.151 817.495L633.628 871.465M660.151 817.495L708.502 881.278L766.246 817.495M660.151 817.495L727.842 778.55L766.246 817.495M766.246 817.495L780.89 871.465M766.246 817.495L822.609 764.444V871.465L865.987 772.417" stroke="url(#paint17_linear_60_107)" stroke-width="10" stroke-linecap="round" stroke-linejoin="bevel"/>
<path d="M876.486 781.923L903.01 889.251L932.02 841.413V769.657L982.858 810.135L936.717 841.413L961.583 900.904L999.159 698.207" stroke="url(#paint18_linear_60_107)" stroke-width="10" stroke-linecap="round" stroke-linejoin="bevel"/>
<defs>
<linearGradient id="paint0_linear_60_107" x1="358.997" y1="365.052" x2="358.997" y2="445.25" gradientUnits="userSpaceOnUse">
<stop stop-color="#0091B1"/>
<stop offset="1" stop-color="#0AEBDD"/>
</linearGradient>
<linearGradient id="paint1_linear_60_107" x1="612.491" y1="293.632" x2="612.491" y2="505.515" gradientUnits="userSpaceOnUse">
<stop stop-color="#0091B1"/>
<stop offset="1" stop-color="#0AEBDD"/>
</linearGradient>
<linearGradient id="paint2_linear_60_107" x1="763.76" y1="265.76" x2="763.76" y2="438.493" gradientUnits="userSpaceOnUse">
<stop stop-color="#0091B1"/>
<stop offset="1" stop-color="#0AEBDD"/>
</linearGradient>
<linearGradient id="paint3_linear_60_107" x1="939.065" y1="551.313" x2="939.065" y2="623.443" gradientUnits="userSpaceOnUse">
<stop stop-color="#0091B1"/>
<stop offset="1" stop-color="#0AEBDD"/>
</linearGradient>
<linearGradient id="paint4_linear_60_107" x1="734.06" y1="585.019" x2="734.06" y2="624.169" gradientUnits="userSpaceOnUse">
<stop stop-color="#0091B1"/>
<stop offset="1" stop-color="#0AEBDD"/>
</linearGradient>
<linearGradient id="paint5_linear_60_107" x1="91.826" y1="571.621" x2="91.826" y2="605.788" gradientUnits="userSpaceOnUse">
<stop stop-color="#0091B1"/>
<stop offset="1" stop-color="#0AEBDD"/>
</linearGradient>
<linearGradient id="paint6_linear_60_107" x1="388.698" y1="588.977" x2="388.698" y2="631.211" gradientUnits="userSpaceOnUse">
<stop stop-color="#0091B1"/>
<stop offset="1" stop-color="#0AEBDD"/>
</linearGradient>
<linearGradient id="paint7_linear_60_107" x1="585.691" y1="541.635" x2="585.691" y2="690.642" gradientUnits="userSpaceOnUse">
<stop stop-color="#0091B1"/>
<stop offset="1" stop-color="#0AEBDD"/>
</linearGradient>
<linearGradient id="paint8_linear_60_107" x1="777.437" y1="125.66" x2="777.437" y2="436.485" gradientUnits="userSpaceOnUse">
<stop stop-color="#0091B1"/>
<stop offset="1" stop-color="#0AEBDD"/>
</linearGradient>
<linearGradient id="paint9_linear_60_107" x1="520.625" y1="163.97" x2="520.625" y2="693.322" gradientUnits="userSpaceOnUse">
<stop stop-color="#0091B1"/>
<stop offset="1" stop-color="#0AEBDD"/>
</linearGradient>
<linearGradient id="paint10_linear_60_107" x1="199.3" y1="608.199" x2="199.3" y2="691.482" gradientUnits="userSpaceOnUse">
<stop stop-color="#0091B1"/>
<stop offset="1" stop-color="#0AEBDD"/>
</linearGradient>
<linearGradient id="paint11_linear_60_107" x1="240.192" y1="173.271" x2="240.192" y2="701.911" gradientUnits="userSpaceOnUse">
<stop stop-color="#0091B1"/>
<stop offset="1" stop-color="#0AEBDD"/>
</linearGradient>
<linearGradient id="paint12_linear_60_107" x1="508" y1="892.157" x2="508" y2="1119.99" gradientUnits="userSpaceOnUse">
<stop stop-color="#0091B1"/>
<stop offset="1" stop-color="#0AEBDD"/>
</linearGradient>
<linearGradient id="paint13_linear_60_107" x1="397.814" y1="960.372" x2="397.814" y2="983.619" gradientUnits="userSpaceOnUse">
<stop stop-color="#0091B1"/>
<stop offset="1" stop-color="#0AEBDD"/>
</linearGradient>
<linearGradient id="paint14_linear_60_107" x1="509.435" y1="542.737" x2="509.435" y2="1120.02" gradientUnits="userSpaceOnUse">
<stop stop-color="#0091B1"/>
<stop offset="1" stop-color="#0AEBDD"/>
</linearGradient>
<linearGradient id="paint15_linear_60_107" x1="437.048" y1="732.563" x2="437.048" y2="777.17" gradientUnits="userSpaceOnUse">
<stop stop-color="#0091B1"/>
<stop offset="1" stop-color="#0AEBDD"/>
</linearGradient>
<linearGradient id="paint16_linear_60_107" x1="937.131" y1="716.644" x2="937.131" y2="776.199" gradientUnits="userSpaceOnUse">
<stop stop-color="#0091B1"/>
<stop offset="1" stop-color="#0AEBDD"/>
</linearGradient>
<linearGradient id="paint17_linear_60_107" x1="441.054" y1="757.235" x2="441.054" y2="880.854" gradientUnits="userSpaceOnUse">
<stop stop-color="#0091B1"/>
<stop offset="1" stop-color="#0AEBDD"/>
</linearGradient>
<linearGradient id="paint18_linear_60_107" x1="937.823" y1="743.529" x2="937.823" y2="900.365" gradientUnits="userSpaceOnUse">
<stop stop-color="#0091B1"/>
<stop offset="1" stop-color="#0AEBDD"/>
</linearGradient>
</defs>
</svg>
