<svg width="1672" height="2011" viewBox="0 0 1672 2011" fill="none" xmlns="http://www.w3.org/2000/svg">
<path d="M1327 932L1336 945.5L1347 957L1350.5 965L1358 970.5M1499 1223L1486 1219.5L1478.5 1216.5L1473.5 1211L1469 1200L1461 1191.5L1453.5 1176.5L1447 1164.5L1440 1157L1428 1130.5L1425.5 1094L1423 1082.25M1358 970.5L1365.5 976L1373 986L1383 1000.5L1394 1009.5L1404.5 1020L1413 1032L1417.5 1041L1420.5 1070.5L1423 1082.25M1358 970.5L1353.5 982.5V994.5V1009.5L1358 1023L1365.5 1041L1375.5 1057L1386.5 1083L1391.5 1100.5V1111V1135.5V1150V1196L1398.5 1226.5L1405 1252L1416.45 1265.5M1418 1558V1553V1535L1422 1513L1428 1494.5L1434.5 1486V1468.5V1455.5L1446.5 1435.5L1448.24 1430.5M1448.24 1430.5L1454 1414L1461 1396V1357V1336L1449 1308.5L1434 1284L1419 1268.5L1416.45 1265.5M1448.24 1430.5L1451 1443V1453V1465.5V1477L1454 1488.5L1461 1502L1466.5 1517L1470 1528L1472.16 1532.5M1554 1676.5L1548.5 1658L1544 1642L1541 1631.5L1537 1620.5L1523 1606.5L1515.5 1599L1510 1595L1499.5 1590.5L1496.5 1582.5L1493.5 1573L1489 1562L1482 1553L1472.16 1532.5M1416.45 1265.5C1416.45 1262.83 1416.45 1261.7 1416.45 1278.5L1419 1290.5L1417.75 1300.25M1390.5 1389.5L1392.5 1380.5V1368.5L1397 1359L1400.5 1351L1405 1343.5L1410.5 1338.5L1413 1331L1416.45 1319L1416.5 1310L1417.75 1300.25M1417.75 1300.25L1421.5 1310V1319V1327.5L1425.5 1338.5V1348.5V1357V1364.5L1428.5 1376V1383L1431.5 1391.5V1399L1428.5 1406L1423 1415L1417.75 1421.5L1410.5 1430.5M1392.5 1191.5L1389 1196L1382 1205L1376 1211L1368.5 1219.5L1363.5 1226.5L1360 1234.5L1363.5 1242.5L1366 1252L1368.5 1259L1371.5 1270.5L1373.5 1278.5V1287.5L1376 1298.5L1378 1306L1376 1312.5L1368.5 1319L1364.5 1328.5L1360 1341.5M1423 1082.25L1420.5 1100.5V1106.5V1130.5L1419 1141.5L1416.45 1155L1417 1166L1417.75 1176.5V1188.5L1421.5 1193.5L1430.5 1211L1447 1223L1453.5 1231.5L1461 1238.5L1465.5 1245.5L1469 1249.29M1515.5 1290.5L1510 1287.5L1504 1281.5L1499 1275.5L1488.5 1268.5L1478.5 1257L1471.5 1252L1469 1249.29M1469 1249.29L1478.5 1268.5L1480.5 1275.5L1488.5 1298.5L1495 1315L1499 1325L1501.5 1343.5L1504 1353V1361L1495 1371.5L1490.5 1394V1399L1493 1408L1495 1421.5M1495 1421.5V1430.5L1506 1437.5L1510 1443L1518.5 1450.5L1524 1458L1545 1488.5L1553 1499.5L1559.5 1511L1568.5 1522L1579 1538L1586.5 1548.5M1495 1421.5L1490.5 1437.5V1443V1453V1461.5L1493 1472V1479L1496.5 1486L1500 1492.5L1503 1499.5L1506 1507L1512.5 1517L1518.5 1524.5L1520.5 1528M1472.16 1532.5L1470 1538V1548.5V1566V1577.5V1585.5V1599L1471.5 1613L1474.5 1624L1479.5 1633.5L1485 1642V1658L1487.06 1663.5M1570.5 1856L1560.5 1845.5L1554 1840L1548.5 1832L1538.5 1820.5V1804.5L1535.5 1795.5L1529.5 1782L1526 1771L1520.5 1755.5L1515 1740L1508.5 1732.5L1506 1727.75M1487.06 1663.5L1491 1674L1493 1682.5L1496 1697.5L1499.5 1705.5L1503.5 1723L1506 1727.75M1487.06 1663.5L1485 1671L1484 1678L1481.5 1691L1477.5 1700.5L1474.5 1709.5V1716.5V1726L1471.5 1740V1755.5V1763.5L1474.5 1785.5V1793.5V1800.5L1477.5 1811.5V1837L1479.5 1843L1485 1848.5L1488.5 1853.5L1491 1856L1497 1865.5L1502 1874L1504.5 1878L1510 1883L1518.5 1888L1524 1894.5L1529.5 1899.5L1535.5 1905L1542.5 1911.5L1551 1922L1557.5 1932L1570.5 1942L1575.5 1947.5L1584 1954L1592 1960.5L1600 1965.5L1605 1969M1506 1727.75L1503.5 1737V1747V1758.5V1771V1782V1790L1504.5 1797L1503.5 1804.5L1499 1811.5V1818L1497 1828V1837V1843" stroke="#04B4F2" stroke-width="5"/>
<path d="M1554 1675L1558 1687.5L1562 1702L1565.5 1762L1562 1779.5" stroke="#04B4F2" stroke-width="5"/>
<path d="M327 993.5L319 1000.5L305 1012L289.5 1033L281 1052L279.971 1055.5M221.5 1156L225 1142.5L235.5 1130.5L250 1117L259.5 1107.25M221.5 1156V1179.5L229.5 1203L232.5 1223V1241.5V1252L229.5 1261L227.215 1264M221.5 1156L204.5 1164.5L194 1178L182 1188.5L171.5 1199.5L164 1212.5L160 1241.5L156.5 1299.5M227.215 1264L185.5 1324L195.5 1309L201.5 1301L208 1294.5L215.5 1281.5L221.5 1271.5L225.31 1266.5M227.215 1264L225.31 1266.5M225.31 1266.5L228.5 1277.5V1292V1306.5L229.5 1320.5V1338.5L227 1353L218 1366.5L211.5 1377L206.5 1388M206.5 1388L214.5 1405.5L219 1420.5L223 1435L228.5 1455.5L230 1467.5L232.5 1486V1506.5L233.5 1517L230 1528.5L217 1548L209 1560.5L203.5 1568.5M206.5 1388L195.5 1415L186.465 1437M178.5 1612L184 1603.5L190.5 1592L198 1576.5L203.5 1568.5M203.5 1568.5L209 1579V1588V1601V1609.5L204.5 1620.5L199.5 1637L195.5 1645.5L193 1656L185.5 1673L179 1689.5L176 1716L174.5 1751.5L173 1768L172 1781L167 1800C165.667 1806.67 163.8 1820.9 167 1824.5C170.2 1828.1 172.334 1830.33 173 1831M279.971 1055.5L276 1069V1080L269 1097.5L259.5 1107.25M279.971 1055.5L263.5 1059.5L246.5 1062.5L231.5 1065.5L214.5 1070.5L204.5 1081.5L196.5 1093L192 1102.5L187.5 1111V1114.5M259.5 1107.25L265.5 1121L271.5 1142.5L274.5 1156L280 1188.5L274.5 1209L266 1234L261 1249.5L271 1269L276 1277.5L282 1290L293 1303L295.5 1306.5L302.5 1313M263 1256.5L259 1266.5V1283V1299.5V1309L264.5 1317L267 1341L271 1353L274 1366.5L272.5 1384L267 1389.5L263 1405.5L259 1419L254 1437M156.5 1299.5L133.5 1330L111 1361L85 1384L69 1409.5L56.5 1430.5L44 1451L32 1499.5M156.5 1299.5V1330L145 1389.5L133.5 1437L122.5 1451L89.5 1517L79 1536L56.5 1543L44 1560.5L32 1583M145 1528.5V1506.5L156.5 1486L169.5 1462L184 1443L186.465 1437M145 1528.5L133.5 1556.5L122.5 1601L111 1632V1645.5V1673M145 1528.5V1556.5L152.5 1583L145 1612L140 1656L133.5 1716L122.5 1751.5L104 1781L96.5 1811L85 1844L66 1875L58 1897L51.5 1913L46 1932.5L38 1951L29.5 1973L20.5 1985.5M186.465 1437L190.5 1462L195.5 1476L206.5 1493.5V1506.5" stroke="#04B4F2" stroke-width="5"/>
<path d="M336 854H331L324 856.5H312.5L304 858.5L292 860.5L289.75 867.25M265 995.5V985.5V972V964.5V951.5V934V928M265 928V926L273.5 913.5L283 893.5L287.5 874L289.75 867.25M265 928L254 934L245.5 937L240 940.5L230 949.5L226 954.5L217 962.5L215 972V978V980M289.75 867.25H280L268.5 871.5L254 877L240 886L233.5 891.5L231 895" stroke="#04B4F2" stroke-width="5"/>
<path d="M340.5 798L336.5 804L331.5 808.5L330.273 813M315.5 838L321 835L325.5 830L329 826.5L330 818.5V814L330.273 813M330.273 813H322L310 814L299 817L291.5 821.5L286 826.5L283 828.5" stroke="#04B4F2" stroke-width="5"/>
<path d="M344 767H333.5L314 769L301 772H286L277.75 768.5L275.5 767.545M216 725H223.5L231 727L239 734.5L241.5 740.5L252.5 751L258.5 757.5L269.5 765L275.5 767.545M275.5 767.545L274 772L269.5 779L263.5 781.5L254 787.5L246.5 792L236 796H223.5L211 792L202 787.5L197.5 785" stroke="#04B4F2" stroke-width="5"/>
<path d="M353 712V699L338 685L331.5 668.5V661.5M269.5 552.5L280 565L300 579L320 601.5L331.5 641V661.5M269.5 552.5L261 527V510.5M269.5 552.5L266 561L262.5 570.5L256.5 575L247.5 579L240 584.5L233.5 588L227 598.5V606.5V615M331.5 661.5L322 658L309.5 653L290 647.5L287 636L281.5 625L280 618" stroke="#04B4F2" stroke-width="5"/>
<path d="M10 2002.5V1874.96V1808.5L18 1710.52L27 1651.94V1609.59V1561.84V1486.51V1429.4L36 1365.89V1311.73L53 1259.05L79 1191.6L92.5 1166V1051.29V968.575V909.987L103.5 843.522L117 773.118L143 717.484V663.328L131 602.771V500.365L154 431.438L189 364.973L242.5 320.171L282 292L319 273.5L439.5 241.889L553 193.641L612.5 168.039L666 119.791V71.5418V10H988.5V71.5418V119.791L1051 176.901L1109 202.503L1170.5 226.627L1224 250.751L1280.5 258L1335 278.5L1369 293L1422.5 329.033L1468.5 377.281L1505 444.731L1523.5 505.288V585.047L1516 643.634L1505 716.007L1538.5 794.289L1552.5 861.738L1566.5 971.529V1072.46L1552.5 1170.43L1594 1240.84L1613.5 1311.73L1623 1463.86V1646.03L1639.5 1795.2L1660.5 1977L1493.5 1998.54L1482 1898.59L1470 1831.14L1456 1757.29L1418 1646.03L1384.5 1519.5L1355.5 1398.88L1340 1212.28L1324.5 1084.77L1307 740.132L1291 991.222L1271 1072.46L1251.5 1163.05L1236 1229.02L1227 1270.38L1243.5 1375.24L1251.5 1566.27L1276 1767.63L1312.5 1937.98V2001" stroke="#04B4F2" stroke-width="20"/>
<path d="M10 1992.5L164 1997L167.5 1907L188 1804L203.5 1713L236 1614L256.5 1531.5L272 1477L296 1386L304.5 1314L313.5 1214.5L328.5 1098L356.5 710L392 1098L421 1228.5V1298.5L407.5 1360.5L399 1470V1564L382 1680.5L366.5 1790.5L339 1919L335.5 1992.5L1314 2001" stroke="#04B4F2" stroke-width="20"/>
<path d="M719.5 20.5L744 65.5L754 105.5L729 142L707.5 167L729 210L719.5 238L744 266.5L719.5 278L692.5 266.5L669.5 250L652.5 243H622.5L590 255.5L574 272M574 272L560 285.5H540.5M574 272C569.333 276.5 556.1 285.5 540.5 285.5M540.5 285.5H517.5H502.5L471 303M560 288.5L540.5 310L531 322L521.5 335.5L512.5 345L497 354.5L471 369L455 372.5H442L430.5 384L420 392L414 384L406 375.5L416.5 396L430.5 412.5L439 426L445.5 435V467.5L436.5 476.5L427 488.5L423 496.5V516.5V540.5V602L419 630.5V643L413 651M413 651L402 647L393 638.5L384.5 630.5L378 622L375 610L378 602M413 651L417.5 676.5L419 688.5L423 709.5L429 715V739L431 748.5L435 763M435 763L451.5 758L459.5 746.5L461.5 735.5V711.5L467.5 699.5L477 688.5L489.5 674.5M435 763L423 781L419 794L417.5 804.5M489.5 674.5L495.5 666M489.5 674.5L488 658V638.5V626.5L493.5 615L497 606L503 597.5L506 587.5V583.5M495.5 666L506 651L511.75 640.75M495.5 666L511.75 640.75M517.5 630.5L511.75 640.75M417.5 804.5H435L443.25 803M417.5 804.5L415 824V835.5M485.5 774L477 783L461.5 788.5L451.5 801.5L443.25 803M485.5 774L493.5 758L499.5 746.5L511.75 735.5L522 725.5L535 722M485.5 774L495 779.5H511.75L522 794L530 804.5L535 811L545.5 817L552 824M535 722L545.5 725.5H561.5H574H583.5L591 718.5L601 715M535 722L548.5 709.5L557.5 703L561.5 697L569.5 688.5L574 682.5M552 824H561.5L576.5 821.5L587.5 817M552 824L564.5 835.5L569.5 845L574 856L583.5 861L587.5 869H596H603.5M443.25 803L448 811L459.5 813L471.5 817H483L490.5 824L499.5 831.5L504.5 839.5L511.75 847.5L519 854L529.5 862.5M415 835.5H435L451.5 856V869L461.5 883.5L477 895L493.5 901.5M415 835.5L419 861V874L417.5 890.5M493.5 901.5L522 931.5M493.5 901.5L495 923.5L519 950M417.5 890.5L403 897L395.5 906.5L399.5 931.5M417.5 890.5L426.5 909L430.5 921V931.5L423 967L419 980.5L435 998.5M435 998.5L447.5 1015L461.5 1026M435 998.5L430.5 1031.5L432.5 1049.5L437 1066L447.5 1086.5L457 1111L461 1125.75M461.5 1026L471.5 1028.5H493.5H507L516.5 1036L535.5 1052M461.5 1026L461 1049.5L467.5 1081M465 1140.5L461 1125.75M461 1125.75L482.5 1121.5L507 1140.5M744 272L762 297.5L786.5 322L798.5 350.5L794 380H790.25M609 333.5L642.5 322L660 317L669.5 319.5M669.5 319.5L679 322L696 326.5L722.5 333.5L744 345L762 359L775.5 371.5L786.5 380H790.25M669.5 319.5C670.167 317.5 670 311.9 664 305.5C658 299.1 650.5 295.167 647.5 294H626.5M790.25 380L794 412L802 426L810.5 437L826 458.5L833.5 480.5V483.5M833.5 569.5V550V510.5V483.5M833.5 569.5L819.5 556L798.5 539L781.5 526L762 510.5L744 499L737.125 493.5M833.5 569.5L835.5 616.5V657V714L830.5 732L825 752.5V769.5L835.5 783.5L838 812V837.5M717 455L727.5 477.5L734 491L737.125 493.5M737.125 493.5L727.5 502L718.5 509L707.5 515.5L695.5 517.5L682 513.5L677 504M838 837.5V856.5L847.5 883L854.5 913V930.5L851.5 966.5L840.5 980.5L838 991L835.75 1008M838 837.5L821.5 862.5L814.5 899V922.5V966.5L825.5 985L835.75 1008M830 1119L825.5 1091.5L819.5 1077.5L821.5 1038L833.5 1025L835.75 1008M830 1119L837 1142V1161L834.5 1186M830 1119L814.5 1135L801 1149M834.5 1186L852.5 1201.5L868.5 1213.5L876.5 1228M834.5 1186V1213.5L838 1265.5V1290.5L832 1315.5L824 1376L832 1410L838 1448.5L843 1470L845 1493L847.5 1510.5L843 1527L830 1539L819 1555.5V1585V1612.5M876.5 1228L889 1211.5L891.5 1196V1166.5L886.5 1149V1129L880.5 1119L866 1096.5L860.5 1077.5L857 1061V1049.5L860.5 1036L871.5 1014.5L882.5 1003.5L886.5 991V944.5L884 929L882.5 909L876 888L882.5 833.5L892.5 823.5L904 811.5M876.5 1228V1257.5V1264.75M972.5 732V748L968.5 765L946.5 780.5L915.5 799.5L904 811.5M972.5 732H988L1003 726.5L1015 723L1025 717.5L1035 712M972.5 732L975.5 714L985 705.5L996.5 694L1008 683L1017 675M904 811.5L900.5 799.5V783.5L898.5 769.5L892.5 759.5L881 736.5L883 705.5V686L887.5 671H898.5L907.5 665M907.5 665H916.5L927 668H936L943 665L954.5 657M907.5 665L918 652L927 642L933 635L937.5 628.5M833.5 483.5L845 463L852.5 446L859.5 430L873.5 412L890 380L905.5 362.5L922 350.5L944 326.5L940.5 302L937 278L940.5 272L957 255L962.5 230M962.5 230V193.5V163M962.5 230L967.5 255L980 272L997.5 286.5M962.5 163L987.5 132.5M962.5 163V147.75M934 20.5V42V60.5L957 93.5V116L962.5 132.5V147.75M962.5 147.75L944 142H931L923.5 163L918.5 173.5L909.5 182.5L896.5 193.5H880.5L868.5 182.5L854.5 173.5L847 170.25M821 210V193.5L825.5 173.5L839.5 167L847 170.25M847 170.25L854.5 163L872 147.75L877 142L880.5 122M997.5 286.5H1020.5H1035L1051.5 278H1067.5M997.5 286.5L1003.5 316.5L1024.5 331.5L1030 345V362.5V375.5L1044.5 384.5L1051.5 398L1057.5 407.5L1092.5 419.5L1115.5 430L1126 446L1134.5 463L1146 475L1153.5 490.5L1167 506.5L1181.5 530.5L1196 559L1221 580.5L1236 595M1067.5 278L1076.5 291L1088.5 297.5L1102 302H1115.5H1126M1067.5 278H1084L1092.5 275L1098 272M1236 595H1259.5L1276.5 602.5L1297 589L1308.5 580.5M1236 595L1246.5 620L1251.5 642V657L1262.5 686L1276.5 709L1297 779.5L1284.5 783.5V824V834.5L1289 846V861L1276.5 853L1269 839.5L1262.5 827L1255 811.5L1241.5 793.5L1236.25 788.5M1308.5 580.5L1312.5 567.5V546L1317 522M1308.5 580.5L1322.5 567.5L1337 562.5H1356H1361.5M801 1149L787.5 1172L773 1186L761 1211.5M801 1149L794 1138L789 1117.5L784 1102V1080.5L789 1061V1046.5L791 1017V1003.5L784 983L776.5 968.5L767 947.5L760 929M761 1211.5L780.5 1235.5L787.5 1250L792.5 1277L780.5 1303.5L773 1325L780.5 1353.5L787.5 1380.5L792.5 1401V1426.5L805 1448.5V1484L796.5 1500.5M761 1211.5L752.5 1196M796.5 1500.5L770.5 1487.5L753.5 1463.5L741 1443.5L727 1423L711.5 1410H695L676 1401L651.5 1393L641.5 1376M796.5 1500.5L789 1516.5L770.5 1535.5M693 1410L687 1423L676 1426.5H665H651.5H639H627.5L614.5 1423L604.5 1421H594H578M770.5 1535.5H753.5H729.5L714.5 1543L693 1550L685.5 1555.5M770.5 1535.5L760 1559V1569L766 1578.5L770.5 1585L778.622 1603.5M685.5 1555.5V1576L700.5 1591.5L711 1612.5L720.5 1632L724 1648.5L731 1670.5V1684.5L734.5 1710M685.5 1555.5L676 1552.5L665.5 1548.5L660 1541L651 1535.5H641L636 1541M734.5 1710L749.5 1693.5L766 1688.5L779.5 1684.5L794.5 1688.5L810.5 1698.5M734.5 1710V1724.5L724 1733L707.5 1748L704.196 1750M810.5 1698.5L825.5 1688.5L832.625 1675M810.5 1698.5L804.5 1705.5L796.5 1715L785 1721.39M819 1612.5L825.5 1625.5L839.5 1641V1650M819 1612.5H809L804 1607H797.5L789 1603.5H778.622M897.5 1591.5L893 1581.5L881.5 1555.5L864.5 1535.5L873.5 1519.5L885 1510.5V1484V1443.5L881.5 1423L873.5 1410L867.5 1376L870.5 1356.5L876.5 1340.5L878.5 1315.5V1290.5L876.5 1272V1264.75M897.5 1591.5L908 1612.5M897.5 1591.5L885 1601.5L878.5 1612.5L877.5 1618M908 1612.5L921 1617.5L940 1625.5L960.5 1641L966 1645.25M908 1612.5V1632L911.5 1648.5L921 1659L928 1666L940 1681M1137.5 1609.5L1126.5 1605.5L1112 1601.5L1095.5 1597L1076 1588H1063.5H1052L1050 1597L1045.5 1609.5L1032 1625.5L1015 1635.5L1001 1649.5L988 1656.18M1137.5 1609.5L1150 1601.5L1158.5 1591.5L1161 1576M1137.5 1609.5L1117.5 1632L1108 1641L1101.75 1646.25M1161 1576V1555.5L1150 1535.5L1141 1524.5L1134 1505L1121.5 1487V1481.5M1161 1576L1163.5 1584.5L1165 1593V1605.5V1615.5V1625.5V1641L1168.5 1659V1665M1104 1270L1116 1279.5L1125.75 1285M1104 1270H1089.5L1077.5 1285L1070 1297.5L1055.5 1313.5M1104 1270L1107.5 1253.5L1116 1247.5L1126.5 1238.5L1133.5 1225.5L1135.5 1213.5L1138 1201.5M1055.5 1313.5L1038.5 1323L1031 1336L1024 1347.5L1020.5 1363.5V1383L1015 1398.5L1006 1412.5L991.5 1418.5L976.5 1412.5L964 1405.5L952.5 1396L943.5 1383L933.5 1373L926 1359L921 1332V1313.5V1293V1279.5M1055.5 1313.5L1038.5 1306L1026.5 1302.5L1014.5 1297.5L1001 1285L988.5 1275.5L980.5 1265.5L979.3 1264.75M921 1279.5L909.5 1270L898.5 1265.5L876.5 1264.75M921 1279.5L929 1265.5L941.5 1260.5H952.5H972.5L979.3 1264.75M979.3 1264.75L988.5 1253.5L996.5 1241L1009 1235.5L1023.5 1230L1038.5 1225.5L1059 1213.5L1068.5 1206.5L1074.5 1193.5V1172.5V1161L1061 1166.5L1043.5 1170.5L1031 1166.5L1023.5 1155.5L1011.5 1139.5L1000.5 1125.5L992 1119L977.5 1108L963.5 1102L949 1096.5M760 929V888V874M760 929H747.5L739.5 934.5L731.5 947.5L721.5 958M760 874L767 849.5L780 837.5L788 826L793.5 797L798.5 780.5L801 748M760 874L755 861L747.5 849.5L739.5 843H727.5H714.5L693 844.5H681L675.5 836M801 748L788 741L764 736.5L750.5 726.5L737 711L731.5 699L733.5 671L731.5 652L722 639L712.5 628.5L692.5 625L680 616.5L677 608M801 748L798.5 729L793.5 714L788 702.5L777 683L766 665L757 649.5L746.5 631L737 622.5H722H706L690.5 619.5L684.5 616.5M675.5 836V826V814.5L669.5 805L658.5 795.5L652.5 787.5L649.5 775.5V764.5V752.5M675.5 836L665.5 830.5L658.5 819.5L652.5 812L647.5 805L645 799M721.5 958L713 965L700.5 972H689L678.5 968.5L667 963.5H658.5H647.5L638.5 968.5L626 978M721.5 958L724 972L726 982L729.5 994.5M752.5 1196L744.5 1178.5L737.5 1163L729 1156.5L718.5 1149H706L695.5 1144L684.5 1135M752.5 1196L733 1199L718.5 1201.5L706 1213.5L690.5 1221.5L672.5 1225.5L653.5 1228H635.5L623.5 1229.5L617.5 1238.5M684.5 1135L675.5 1123.5L665 1111.5L651.5 1102L642 1091.5M684.5 1135L672.5 1138H657.5H642H628.5L617.5 1135L612 1129L602 1121M685.5 1690.5L703 1675L711 1666L734.5 1651.5L749.5 1643.5L769 1627L780.5 1614L779.5 1605.5L778.622 1603.5M671.5 1780.5L688.5 1759.5L704.196 1750M671.5 1780.5V1789L680.5 1802.5L686.5 1819L688.5 1830.5L696.735 1844.5M671.5 1780.5L662 1799.5L652.5 1807.17M740.5 1887L732.5 1877.5L709.5 1859L698.5 1847.5L696.735 1844.5M740.5 1887V1892L730.5 1907.5L717 1923L709.5 1939.5M740.5 1887L749.5 1882.5L756 1873.5L759.5 1862.5L766 1851V1837.5V1821L764 1807.17L759 1791L753.5 1780.5L745.5 1771.5L744 1765.5M709.5 1939.5L702 1958.5L686.5 1986M709.5 1939.5L698.5 1933.5L682.5 1929L671.5 1917L656 1900L650 1894.75M709.5 1939.5L717 1947.5L724 1955L726.5 1960.5L730.5 1966L736 1972L740.5 1979.5L747.5 1985M647 1857L644 1889.5L650 1894.75M647 1857L649 1810L652.5 1807.17M647 1857L625.5 1859H608.5L595.5 1857L585.5 1851M652.5 1807.17L644 1792.5L635 1784L633.693 1782.55M591 1724.5L603 1746L611 1759.5L621 1768.5L633.693 1782.55M633.693 1782.55V1765.5V1746V1724.5V1710V1693.5L628.5 1679.5L624 1666V1645.5M704.196 1750L695.5 1746L688.5 1733L678 1719L671.5 1705.5L667 1693.5L662 1679.5M785 1721.39L783 1722.5L773 1730L761.5 1737.5L749.5 1750L742.5 1759.5L744 1765.5M785 1721.39L794.5 1733L799.5 1743L804.5 1763.5M804.5 1763.5L807.5 1778V1789L810.5 1802.5L819 1822.5M804.5 1763.5L794.5 1771.5L785 1774.5H773H769M744 1765.5L738.5 1771.5L734.5 1782.55L732.5 1794.5L731 1804.5V1815.5V1828.5L734.5 1839.5M916 1702.5H908L900 1693.5L893 1684.5L885 1675L881.5 1659L878.5 1635.5L876.5 1623.5L877.5 1618M966 1645.25L971.5 1649.5L982.5 1659L988 1656.18M966 1645.25V1659L964 1673.5L960.5 1684.5L954 1702.5L946 1724.5L936.5 1740L925.5 1743L911.5 1745.5L908 1740L900 1733L893 1730L885 1724.5L873 1730L860.5 1733M988 1656.18L996 1675L1001 1688.5L1003 1699.25M1066 1730L1058.5 1743L1053 1755.5L1043 1765.5L1035.5 1774.5L1025 1780.5L1023.25 1776M1066 1730L1068 1704V1688.5L1072 1673.5L1082 1662L1095.5 1651.5L1101.75 1646.25M1066 1730L1072 1743L1079 1749L1082 1760L1087 1768L1090.5 1776L1095.5 1795M1003 1699.25L1005 1710V1722.5L1011 1740L1017.5 1755.5L1021.5 1771.5L1023.25 1776M1003 1699.25L993 1717.5L985 1724.5L978 1736L969 1748.5L964 1771.5V1777.75M964 1822.5V1814.5V1795V1784V1777.75M964 1822.5L978 1814.5L988 1809L994.5 1805.75M964 1822.5L959 1837.5V1841.75M1023.25 1776L1011 1795L1001 1802.5L994.5 1805.75M994.5 1805.75L999 1820.5L1005 1840.5V1864L1017.5 1894L1025 1908L1030.25 1914.75M1101.75 1646.25L1103 1662L1108 1691L1111 1710V1730V1751.5L1103 1774.5L1095.5 1789L1082.5 1814.5L1077 1825L1071.5 1831.25M964 1777.75L946 1780.5L932 1778L921 1780.5L910 1785.5L895 1794L881.5 1802.5V1804.5M905.5 1856L895 1846L890 1837.5L881.5 1825V1814.5V1804.5M881.5 1804.5L868 1802.5L860.5 1795L845 1789L835 1785.5M972 1918.5V1903L974 1886L972 1873.5L964 1859.5L959 1846V1841.75M972 1918.5L974 1926L985 1933.5L994.5 1943L1005 1951L1011 1956.5L1013.5 1965L1017.5 1974L1029.5 1987.5M972 1918.5L964 1933.5L956 1943V1959.5M956 1959.5L952 1974L949 1987.5M956 1959.5L968.5 1971L978 1974L982 1978L988 1990M1071.5 1831.25L1066 1837.5L1051 1862L1046.5 1887.5L1039 1908L1035.5 1921.5L1030.25 1914.75M1071.5 1831.25L1077 1846L1082.5 1853.5L1087.5 1864L1098.5 1873.5L1103 1881.5L1109.5 1887.5M1109.5 1887.5V1894L1114.5 1908L1117.5 1918.5L1123.5 1933.5M1109.5 1887.5L1117.5 1894L1123.5 1899L1135.5 1903H1138.5M1123.5 1933.5L1135.5 1943L1144 1946.5L1155.5 1943L1165 1933.5L1174 1926L1182 1918.5L1186.5 1908L1192.5 1903L1201.5 1894L1205 1887.5M1123.5 1933.5L1138.5 1951L1144 1959.5L1155.5 1974L1161.5 1981V1990M1030.25 1914.75L1042 1926L1056.5 1936.5V1946.5L1064 1954.5L1066 1967.5L1077 1978L1080 1990M959 1841.75L949 1848.5V1856V1868L943.5 1878.5L940.5 1886M1121.5 1481.5V1466.5L1127 1443.5L1141 1429L1157.5 1403.5L1163 1371V1362M1121.5 1481.5L1117.5 1499V1514.5V1528L1115 1543L1105.5 1551L1099 1555.5M585.5 1851L576 1837.5L567.5 1825L557.5 1804.5L549.5 1794.5L538.5 1782.55L519.5 1765.5V1750V1737.5L511 1724.5L502 1710L496 1701.5V1690.5M585.5 1851L567.5 1859L549.5 1862.5M519 1764.5L509 1761L499 1758L492 1756L484.5 1751.5L473 1742M549.5 1862.5L538.5 1868.5L531 1877.5L523.5 1895.5L522.5 1902.25M549.5 1862.5L553.5 1870.5L560 1873.5L567.5 1879L576 1884L583 1889.5L588 1895.5L595.5 1898.5L600.5 1907.5M487.5 1945.5L499 1933.5L511 1917L521.5 1909L522.5 1902.25M487.5 1945.5L477.5 1954.5L473 1964L463 1975.5V1982M487.5 1945.5L482.5 1958.5V1964V1970L480.5 1979V1982L478.5 1985M522.5 1902.25L511 1889.5L504.5 1877.5L502.5 1867L499 1859L493.5 1849.5L489.25 1844.75M441.5 1810L447.5 1816.5L454 1825L464.5 1828.5L477.5 1835L485 1840L489.25 1844.75M489.25 1844.75L487.5 1851L482.5 1855.5L473 1859L467 1867L458.5 1870.5L451 1873.5L443 1875.5L436 1879L434.5 1889.5V1900L431 1909L429.5 1918.5L426.5 1928L422.5 1936L417.5 1945.5L410 1956L407 1960M600.5 1907.5L597.5 1917L589.5 1927L585.5 1936.5L579 1945.5L570.5 1954.5L560 1966L552 1975.5L541.5 1985M600.5 1907.5L608.5 1917L610 1923V1931L612 1941V1947.5L608.5 1953L604.5 1960.5L600.5 1966L594 1970M650 1894.75L649 1904.5L647 1911L649 1919L652.5 1927L656 1933.5V1941L659 1949.5V1958.5V1970L652.5 1975.5L642.5 1981H625.5L615 1985M696.735 1844.5L691.5 1851L686.5 1859L680.5 1865.5L676 1873.5L673.5 1877.5L671.5 1884M832.625 1675L835 1670.5L839.5 1659V1650M832.625 1675V1688.5V1695.5L835 1704L839.5 1710L841.5 1717.5L843.5 1723M839.5 1650L847 1662L851 1668.5L856 1675M877.5 1618L873 1622L866 1628.5L860.5 1634L856 1639.5L853 1643M1143 1294L1150.5 1297.5L1155.5 1315.5L1163 1347.5V1362M1143 1294L1135.5 1290.5L1125.75 1285M1143 1294L1148 1285V1274L1150.5 1262L1161.5 1253.5L1165.5 1242L1171 1230V1213.5L1174.5 1201.5M1125.75 1285L1123 1295.5V1303L1128.5 1312.5L1130 1332.5L1139 1335L1145 1343L1152.5 1350.5L1163 1362M1189.5 734.5L1196 744.5L1207.5 758.5L1219 773.5L1231 783.5L1236.25 788.5M1236.25 788.5L1240.5 778L1243.5 763.5L1240.5 747.5L1236.25 737V730L1240.5 719.5" stroke="#04B4F2" stroke-width="5"/>
<path d="M1281.5 996H1264.5L1255 990.5L1250.5 979M1250.5 979L1238.5 970.5M1250.5 979L1245 993L1238.5 1003L1234 1014L1231.13 1017M1238.5 970.5L1218.5 960.5L1214.1 956.5M1238.5 970.5L1251.5 969L1261 965L1271 960.5L1278 952L1281.5 943L1275.5 935L1269.5 931.5L1261 912.5M1128.5 884L1145 888.5L1157 895.5L1170.5 907L1181.5 919.5L1185 923.457M1185 923.457L1193 932.5L1202 945.5L1214.1 956.5M1185 923.457L1173 927H1160L1145 935L1138.5 945.5L1131.5 956.5L1126.5 965L1117.5 975L1111 981.5M1138.5 948.5L1128.5 945.5H1117.5L1103.5 943H1089.5L1085 941.5M1214.1 956.5L1211.5 967L1202 979L1185 990.5L1168.5 998.5L1154 1003L1138.5 1006.5H1119.5L1097.5 1005L1085 1003L1072 998.5L1066.5 1000.75M1019.5 1033.5L1033 1023L1049 1012L1061 1003L1066.5 1000.75M1066.5 1000.75L1057.5 996L1043 993H1030.5H1019.5L1016 990.5M1181.5 1072L1185 1056.5L1187.5 1043L1190.5 1034L1211.5 1029.5L1223 1025.5L1231.13 1017M1187.5 1040H1181.5H1170.5M1231.13 1017L1234 1029.5L1226.5 1049L1223 1060.5L1219 1069V1079V1091V1099.5L1216 1106.5L1211.5 1113.5L1208.5 1124L1202 1137.5V1142.5M1261 912.5L1255 901L1248 884L1245 866L1241.75 862.5M1261 912.5L1241.5 907L1234 901L1229 895.5L1222.5 888.5L1211.5 877L1202 859L1193 846L1186.25 840M1185 796.5L1193 809L1202 822L1208.5 834L1214.1 838.5L1222.5 846L1229 850.5L1238.5 859L1241.75 862.5M1122.5 819.5L1131.5 814L1143 816.5L1164.5 822L1179.5 834L1186.25 840M1186.25 840L1175.5 843L1168.5 848.5L1157 853L1150.5 855.5M1241.75 862.5V854.006L1243.5 844V834L1241.5 827" stroke="#04B4F2" stroke-width="5"/>
<path d="M991.5 1121L984.5 1132.5H969.5H955.5H940L928.5 1125L913.5 1121L899 1115.5L878 1109" stroke="#04B4F2" stroke-width="5"/>
<path d="M1314 839L1322.55 824.5M1409 627.5L1402 644.5V663.5L1395.5 680.5L1376 697.5L1362 710.5L1355.25 729.25M1355.25 729.25L1348.5 748V765L1336.47 779.919M1355.25 729.25L1359 737.5L1363.5 746.5L1371 750.5L1384.5 760L1392.5 765L1400 772L1410.5 776L1422.69 779.919M1475 846.5L1472 844L1465 837.5L1459 826.5L1454.5 819.5L1450.5 809.5L1439.5 794.5L1433 784.5L1424.5 780.5L1422.69 779.919M1422.69 779.919L1431 776H1439.5H1450.5L1459 780.5L1467 784.5L1475 791L1480.5 797.5L1486.5 800.5M1336.47 779.919L1336 780.5L1325.5 819.5L1322.55 824.5M1336.47 779.919L1340.5 791L1342.5 796L1348.5 806L1352.5 809.5L1360.5 816L1371 823L1387 829.5L1391.4 833.5M1452.5 892L1443.5 889.5L1429.5 881L1420.5 876L1413 871L1403.5 863.5L1398 859L1394 851L1392.5 834.5L1391.4 833.5M1391.4 833.5L1398 829.5L1401.5 832L1403.5 833.5L1409.5 836.5L1415 841L1417.5 844M1322.55 824.5L1325.5 839L1327 848.5L1331.5 859L1335.5 873L1340.5 886.5L1358 906.5H1367L1376.5 908.75M1471 976L1468.5 973L1464.5 967L1459 960L1452.5 950L1445.5 941L1433 932L1424.5 924.5L1420.5 922M1420.5 922L1416.5 919.5L1405 916.5L1397 913L1386 911L1376.5 908.75M1420.5 922L1429.5 924.5H1439H1443.5L1455.5 926.5L1463 928.5H1476.5L1484.5 924.5H1489L1496.5 922L1501.5 919.5L1509.5 916.5L1516 911M1376.5 908.75L1378.5 916.5L1383 922L1391.5 932L1401.5 942.5L1414.5 950L1416.5 954.5L1429.5 964L1439 976M1439 976L1442 984.5V1002V1018.5L1445.5 1032.5L1448.5 1038.5L1459 1059L1461.75 1061.25M1439 976L1450.5 986.5L1455.5 989.5L1471 995.5L1474.5 1000L1484.5 1004.5L1492.5 1009L1496.5 1012L1501.5 1014.5L1507.5 1018.5H1511.5M1526 1103L1518 1098.5L1506 1093.5L1498 1088.5L1477.5 1074L1464.5 1063.5L1461.75 1061.25M1461.75 1061.25L1471 1077.5L1477.5 1090L1479.5 1105L1483.5 1114.5L1487.5 1125L1493 1130.5L1498 1132.5" stroke="#04B4F2" stroke-width="5"/>
<ellipse cx="1005.04" cy="288.357" rx="14.0376" ry="12.3572" fill="url(#paint0_diamond_77_238)"/>
<ellipse cx="1389.04" cy="1196.36" rx="14.0376" ry="12.3572" fill="url(#paint1_diamond_77_238)"/>
<ellipse cx="211.038" cy="1171.36" rx="14.0376" ry="12.3572" fill="url(#paint2_diamond_77_238)"/>
<ellipse cx="1149.04" cy="1285.36" rx="14.0376" ry="12.3572" fill="url(#paint3_diamond_77_238)"/>
<ellipse cx="794.038" cy="381.357" rx="14.0376" ry="12.3572" fill="url(#paint4_diamond_77_238)"/>
<ellipse cx="1033.04" cy="1905.36" rx="14.0376" ry="12.3572" fill="url(#paint5_diamond_77_238)"/>
<ellipse cx="523.038" cy="1766.36" rx="14.0376" ry="12.3572" fill="url(#paint6_diamond_77_238)"/>
<ellipse cx="1480.04" cy="1547.36" rx="14.0376" ry="12.3572" fill="url(#paint7_diamond_77_238)"/>
<ellipse cx="142.038" cy="1547.36" rx="14.0376" ry="12.3572" fill="url(#paint8_diamond_77_238)"/>
<ellipse cx="977.038" cy="1648.36" rx="14.0376" ry="12.3572" fill="url(#paint9_diamond_77_238)"/>
<ellipse cx="794.038" cy="1501.36" rx="14.0376" ry="12.3572" fill="url(#paint10_diamond_77_238)"/>
<ellipse cx="752.038" cy="1196.36" rx="14.0376" ry="12.3572" fill="url(#paint11_diamond_77_238)"/>
<ellipse cx="977.038" cy="1260.36" rx="14.0376" ry="12.3572" fill="url(#paint12_diamond_77_238)"/>
<ellipse cx="766.038" cy="866.357" rx="14.0376" ry="12.3572" fill="url(#paint13_diamond_77_238)"/>
<ellipse cx="882.038" cy="1119.36" rx="14.0376" ry="12.3572" fill="url(#paint14_diamond_77_238)"/>
<ellipse cx="1375.04" cy="912.357" rx="14.0376" ry="12.3572" fill="url(#paint15_diamond_77_238)"/>
<ellipse cx="430.038" cy="760.357" rx="14.0376" ry="12.3572" fill="url(#paint16_diamond_77_238)"/>
<ellipse cx="495.038" cy="912.357" rx="14.0376" ry="12.3572" fill="url(#paint17_diamond_77_238)"/>
<ellipse cx="275.038" cy="773.357" rx="14.0376" ry="12.3572" fill="url(#paint18_diamond_77_238)"/>
<ellipse cx="1243.04" cy="598.357" rx="14.0376" ry="12.3572" fill="url(#paint19_diamond_77_238)"/>
<ellipse cx="1257.04" cy="912.357" rx="14.0376" ry="12.3572" fill="url(#paint20_diamond_77_238)"/>
<ellipse cx="905.038" cy="798.357" rx="14.0376" ry="12.3572" fill="url(#paint21_diamond_77_238)"/>
<defs>
<radialGradient id="paint0_diamond_77_238" cx="0" cy="0" r="1" gradientUnits="userSpaceOnUse" gradientTransform="translate(1005.04 288.357) rotate(90) scale(12.3572 14.0376)">
<stop stop-color="white"/>
<stop offset="0.5" stop-color="#93E5F7"/>
<stop offset="1" stop-color="#25A7C4"/>
</radialGradient>
<radialGradient id="paint1_diamond_77_238" cx="0" cy="0" r="1" gradientUnits="userSpaceOnUse" gradientTransform="translate(1389.04 1196.36) rotate(90) scale(12.3572 14.0376)">
<stop stop-color="white"/>
<stop offset="0.5" stop-color="#93E5F7"/>
<stop offset="1" stop-color="#25A7C4"/>
</radialGradient>
<radialGradient id="paint2_diamond_77_238" cx="0" cy="0" r="1" gradientUnits="userSpaceOnUse" gradientTransform="translate(211.038 1171.36) rotate(90) scale(12.3572 14.0376)">
<stop stop-color="white"/>
<stop offset="0.5" stop-color="#93E5F7"/>
<stop offset="1" stop-color="#25A7C4"/>
</radialGradient>
<radialGradient id="paint3_diamond_77_238" cx="0" cy="0" r="1" gradientUnits="userSpaceOnUse" gradientTransform="translate(1149.04 1285.36) rotate(90) scale(12.3572 14.0376)">
<stop stop-color="white"/>
<stop offset="0.5" stop-color="#93E5F7"/>
<stop offset="1" stop-color="#25A7C4"/>
</radialGradient>
<radialGradient id="paint4_diamond_77_238" cx="0" cy="0" r="1" gradientUnits="userSpaceOnUse" gradientTransform="translate(794.038 381.357) rotate(90) scale(12.3572 14.0376)">
<stop stop-color="white"/>
<stop offset="0.5" stop-color="#93E5F7"/>
<stop offset="1" stop-color="#25A7C4"/>
</radialGradient>
<radialGradient id="paint5_diamond_77_238" cx="0" cy="0" r="1" gradientUnits="userSpaceOnUse" gradientTransform="translate(1033.04 1905.36) rotate(90) scale(12.3572 14.0376)">
<stop stop-color="white"/>
<stop offset="0.5" stop-color="#93E5F7"/>
<stop offset="1" stop-color="#25A7C4"/>
</radialGradient>
<radialGradient id="paint6_diamond_77_238" cx="0" cy="0" r="1" gradientUnits="userSpaceOnUse" gradientTransform="translate(523.038 1766.36) rotate(90) scale(12.3572 14.0376)">
<stop stop-color="white"/>
<stop offset="0.5" stop-color="#93E5F7"/>
<stop offset="1" stop-color="#25A7C4"/>
</radialGradient>
<radialGradient id="paint7_diamond_77_238" cx="0" cy="0" r="1" gradientUnits="userSpaceOnUse" gradientTransform="translate(1480.04 1547.36) rotate(90) scale(12.3572 14.0376)">
<stop stop-color="white"/>
<stop offset="0.5" stop-color="#93E5F7"/>
<stop offset="1" stop-color="#25A7C4"/>
</radialGradient>
<radialGradient id="paint8_diamond_77_238" cx="0" cy="0" r="1" gradientUnits="userSpaceOnUse" gradientTransform="translate(142.038 1547.36) rotate(90) scale(12.3572 14.0376)">
<stop stop-color="white"/>
<stop offset="0.5" stop-color="#93E5F7"/>
<stop offset="1" stop-color="#25A7C4"/>
</radialGradient>
<radialGradient id="paint9_diamond_77_238" cx="0" cy="0" r="1" gradientUnits="userSpaceOnUse" gradientTransform="translate(977.038 1648.36) rotate(90) scale(12.3572 14.0376)">
<stop stop-color="white"/>
<stop offset="0.5" stop-color="#93E5F7"/>
<stop offset="1" stop-color="#25A7C4"/>
</radialGradient>
<radialGradient id="paint10_diamond_77_238" cx="0" cy="0" r="1" gradientUnits="userSpaceOnUse" gradientTransform="translate(794.038 1501.36) rotate(90) scale(12.3572 14.0376)">
<stop stop-color="white"/>
<stop offset="0.5" stop-color="#93E5F7"/>
<stop offset="1" stop-color="#25A7C4"/>
</radialGradient>
<radialGradient id="paint11_diamond_77_238" cx="0" cy="0" r="1" gradientUnits="userSpaceOnUse" gradientTransform="translate(752.038 1196.36) rotate(90) scale(12.3572 14.0376)">
<stop stop-color="white"/>
<stop offset="0.5" stop-color="#93E5F7"/>
<stop offset="1" stop-color="#25A7C4"/>
</radialGradient>
<radialGradient id="paint12_diamond_77_238" cx="0" cy="0" r="1" gradientUnits="userSpaceOnUse" gradientTransform="translate(977.038 1260.36) rotate(90) scale(12.3572 14.0376)">
<stop stop-color="white"/>
<stop offset="0.5" stop-color="#93E5F7"/>
<stop offset="1" stop-color="#25A7C4"/>
</radialGradient>
<radialGradient id="paint13_diamond_77_238" cx="0" cy="0" r="1" gradientUnits="userSpaceOnUse" gradientTransform="translate(766.038 866.357) rotate(90) scale(12.3572 14.0376)">
<stop stop-color="white"/>
<stop offset="0.5" stop-color="#93E5F7"/>
<stop offset="1" stop-color="#25A7C4"/>
</radialGradient>
<radialGradient id="paint14_diamond_77_238" cx="0" cy="0" r="1" gradientUnits="userSpaceOnUse" gradientTransform="translate(882.038 1119.36) rotate(90) scale(12.3572 14.0376)">
<stop stop-color="white"/>
<stop offset="0.5" stop-color="#93E5F7"/>
<stop offset="1" stop-color="#25A7C4"/>
</radialGradient>
<radialGradient id="paint15_diamond_77_238" cx="0" cy="0" r="1" gradientUnits="userSpaceOnUse" gradientTransform="translate(1375.04 912.357) rotate(90) scale(12.3572 14.0376)">
<stop stop-color="white"/>
<stop offset="0.5" stop-color="#93E5F7"/>
<stop offset="1" stop-color="#25A7C4"/>
</radialGradient>
<radialGradient id="paint16_diamond_77_238" cx="0" cy="0" r="1" gradientUnits="userSpaceOnUse" gradientTransform="translate(430.038 760.357) rotate(90) scale(12.3572 14.0376)">
<stop stop-color="white"/>
<stop offset="0.5" stop-color="#93E5F7"/>
<stop offset="1" stop-color="#25A7C4"/>
</radialGradient>
<radialGradient id="paint17_diamond_77_238" cx="0" cy="0" r="1" gradientUnits="userSpaceOnUse" gradientTransform="translate(495.038 912.357) rotate(90) scale(12.3572 14.0376)">
<stop stop-color="white"/>
<stop offset="0.5" stop-color="#93E5F7"/>
<stop offset="1" stop-color="#25A7C4"/>
</radialGradient>
<radialGradient id="paint18_diamond_77_238" cx="0" cy="0" r="1" gradientUnits="userSpaceOnUse" gradientTransform="translate(275.038 773.357) rotate(90) scale(12.3572 14.0376)">
<stop stop-color="white"/>
<stop offset="0.5" stop-color="#93E5F7"/>
<stop offset="1" stop-color="#25A7C4"/>
</radialGradient>
<radialGradient id="paint19_diamond_77_238" cx="0" cy="0" r="1" gradientUnits="userSpaceOnUse" gradientTransform="translate(1243.04 598.357) rotate(90) scale(12.3572 14.0376)">
<stop stop-color="white"/>
<stop offset="0.5" stop-color="#93E5F7"/>
<stop offset="1" stop-color="#25A7C4"/>
</radialGradient>
<radialGradient id="paint20_diamond_77_238" cx="0" cy="0" r="1" gradientUnits="userSpaceOnUse" gradientTransform="translate(1257.04 912.357) rotate(90) scale(12.3572 14.0376)">
<stop stop-color="white"/>
<stop offset="0.5" stop-color="#93E5F7"/>
<stop offset="1" stop-color="#25A7C4"/>
</radialGradient>
<radialGradient id="paint21_diamond_77_238" cx="0" cy="0" r="1" gradientUnits="userSpaceOnUse" gradientTransform="translate(905.038 798.357) rotate(90) scale(12.3572 14.0376)">
<stop stop-color="white"/>
<stop offset="0.5" stop-color="#93E5F7"/>
<stop offset="1" stop-color="#25A7C4"/>
</radialGradient>
</defs>
</svg>
