<svg width="1700" height="1700" viewBox="0 0 1700 1700" fill="none" xmlns="http://www.w3.org/2000/svg">
<path d="M585.086 622.847L575.314 580.736L559.654 543.696L528.395 515.073L473.645 481.379L432.583 464.545L411.065 440.967L397.378 402.228L422.811 358.444L473.645 344.982L498.483 344.982L559.654 375.278L585.086 402.228L612.461 440.967M612.461 440.967L616.5 394.5M612.461 440.967L620.769 498.22M694.586 394.5C691.986 387.198 699.296 403.242 694.586 440.967C689.875 478.692 684.793 516.18 682.84 530.208V553.786L669.122 646.107" stroke="url(#paint0_linear_162_207)" stroke-width="15" stroke-linecap="round" stroke-linejoin="bevel"/>
<path d="M512.568 1121.36L440.69 1033.89L441.738 1035.34L404.467 971.498L384.707 916.669L377 819.276L384.707 767.288L413.222 727.566L441.738 690.712L475.802 656.673L520.81 636.812L544.948 625.475H586.658H626.179L672 650" stroke="url(#paint1_linear_162_207)" stroke-width="15" stroke-linecap="round" stroke-linejoin="bevel"/>
<path d="M792.983 757.129L830 694.5L879.148 644L938.183 614.191L982.451 602.641L1033.41 595.711L1085.72 588.781H1125.98L1212.5 593.5M656 671L716.842 602.641L757.103 563.371L793.294 540.244L836.237 514.834L879.148 500.233L887.194 497.496L944.904 489.424H1006.59L1073.67 481.326L1125.98 474.396L1206.5 469.5" stroke="url(#paint2_linear_162_207)" stroke-width="15" stroke-linecap="round" stroke-linejoin="bevel"/>
<path d="M698.5 394.744L738 392.667L764.5 367L791.847 337.97L805.5 308L812 275.5L826 238.5L851.5 230.5L872.5 233.5L888 248.5V298L883.836 315V345.5L926 341L976.5 332.5H1012.5H1043L1071 343L1088 367L1083.5 393L1060.5 419.077L997 429.5L941 437L908 442.5L893.5 446L881.5 449L871.628 452.966L854.55 466.986L842.005 479.066L840.708 480.315L831.738 488.732L825.233 507.663V518.5" stroke="url(#paint3_linear_162_207)" stroke-width="15" stroke-linecap="round" stroke-linejoin="bevel"/>
<g filter="url(#filter0_d_162_207)">
<path d="M625.747 1260.86L566.404 1191.56L517.912 1125.89L515.963 1120.47M625.747 1260.86L708.118 1329.41M625.747 1260.86L618.78 1084.08M708.118 1329.41L805.872 1378.72L807.259 1379.15M708.118 1329.41L618.78 1084.08M708.118 1329.41L837.994 1260.86M967.839 1410L1019.51 1391.97M967.839 1410H913.398M967.839 1410L984.609 1260.86M1019.51 1391.97L1069.79 1349.86M1019.51 1391.97L837.994 1260.86M1069.79 1349.86L1117.26 1300.55M1069.79 1349.86L984.609 1260.86M1117.26 1300.55L1159.15 1234.41M1117.26 1300.55L984.609 1260.86M1159.15 1234.41L1196.86 1169.47M1159.15 1234.41L998.574 1091.3M1196.86 1169.47L1219.21 1125.89M1196.86 1169.47L984.609 1260.86M1219.21 1125.89L1240.14 1073.24M1219.21 1125.89L998.574 1091.3M1240.14 1073.24L1262.13 1005.28M1240.14 1073.24L1107.49 1034.77M1263.88 999.88L1280.65 933.739L1289 883.238V847.154M1263.88 999.88L1079.56 830.58M1263.88 999.88L1262.13 1005.28M1069.79 629.455L1167.54 660.733L1212.21 694.401L1240.14 731.68L1243.47 736.907M1069.79 629.455H998.574H920.365M1069.79 629.455L1079.56 830.58M920.365 629.455L881.276 649.9L837.994 694.401M920.365 629.455L1079.56 830.58M920.365 629.455L899.036 719.678M837.994 694.401L807.259 731.68L794.712 761.763M837.994 694.401L899.036 719.678M794.712 761.763H734.66M794.712 761.763L899.036 719.678M794.712 761.763L618.78 1084.08M734.66 761.763L673.221 746.124L643.904 706.429V694.401L655.885 671L624.398 694.401M734.66 761.763L632.745 873.599M624.398 694.401L600.783 712.5L581.078 736.907L566.485 761.763L551.73 791.82M624.398 694.401L632.745 873.599M551.73 791.82L532.186 824.292L517.912 856.765L498.676 891.654L484.711 933.739M551.73 791.82L632.745 873.599M484.711 933.739L476.326 980.656M484.711 933.739L632.745 873.599M476.326 980.656L484.711 1033.57M476.326 980.656L618.78 1084.08M484.711 1033.57L515.963 1120.47M484.711 1033.57L618.78 1084.08M515.963 1120.47L618.78 1084.08M618.78 1084.08L837.994 956.6M618.78 1084.08L632.745 873.599M837.994 1260.86L807.259 1379.15M837.994 1260.86L913.398 1410M837.994 1260.86L998.574 1091.3M837.994 1260.86V968.628M807.259 1379.15L906.4 1410H913.398M998.574 1091.3L842.195 960.124M837.994 956.6L842.195 960.124M837.994 956.6V968.628M837.994 956.6L1107.49 1034.77M842.195 960.124L899.036 719.678M1243.47 736.907L1270.84 779.792L1289 841.126V847.154M1243.47 736.907L1079.56 830.58M837.994 968.628L1079.56 830.58M1289 847.154L1079.56 830.58M1079.56 830.58L1107.49 1034.77M1262.13 1005.28L1107.49 1034.77" stroke="url(#paint4_linear_162_207)" stroke-width="17" stroke-linecap="round" stroke-linejoin="bevel" shape-rendering="crispEdges"/>
</g>
<path d="M693 389C693 393.654 689.98 398.762 683.215 403.011C676.531 407.208 666.924 410 656 410C645.076 410 635.469 407.208 628.785 403.011C622.02 398.762 619 393.654 619 389C619 384.346 622.02 379.238 628.785 374.989C635.469 370.792 645.076 368 656 368C666.924 368 676.531 370.792 683.215 374.989C689.98 379.238 693 384.346 693 389Z" stroke="url(#paint5_linear_162_207)" stroke-width="12"/>
<ellipse cx="842.71" cy="960.079" rx="15.4137" ry="13.2759" fill="url(#paint6_diamond_162_207)"/>
<ellipse cx="842.71" cy="960.079" rx="15.4137" ry="13.2759" fill="url(#paint7_diamond_162_207)"/>
<ellipse cx="840.986" cy="1263.89" rx="15.4137" ry="13.2759" fill="url(#paint8_diamond_162_207)"/>
<ellipse cx="615.39" cy="1083.92" rx="15.4137" ry="13.2759" fill="url(#paint9_diamond_162_207)"/>
<ellipse cx="630.8" cy="876.493" rx="15.4137" ry="13.2759" fill="url(#paint10_diamond_162_207)"/>
<ellipse cx="1083.78" cy="832.153" rx="15.4137" ry="13.2759" fill="url(#paint11_diamond_162_207)"/>
<ellipse cx="993.211" cy="1263.89" rx="15.4137" ry="13.2759" fill="url(#paint12_diamond_162_207)"/>
<path d="M1247.95 531.161C1247.95 548.969 1243.54 564.803 1236.71 575.988C1229.82 587.277 1221.12 592.974 1212.58 592.974C1204.04 592.974 1195.34 587.277 1188.45 575.988C1181.63 564.803 1177.21 548.969 1177.21 531.161C1177.21 513.353 1181.63 497.519 1188.45 486.335C1195.34 475.045 1204.04 469.348 1212.58 469.348C1221.12 469.348 1229.82 475.045 1236.71 486.335C1243.54 497.519 1247.95 513.353 1247.95 531.161Z" stroke="url(#paint13_linear_162_207)" stroke-width="12"/>
<circle cx="850" cy="850" r="849.5" stroke="white"/>
<defs>
<filter id="filter0_d_162_207" x="463.931" y="620.955" width="837.569" height="805.545" filterUnits="userSpaceOnUse" color-interpolation-filters="sRGB">
<feFlood flood-opacity="0" result="BackgroundImageFix"/>
<feColorMatrix in="SourceAlpha" type="matrix" values="0 0 0 0 0 0 0 0 0 0 0 0 0 0 0 0 0 0 127 0" result="hardAlpha"/>
<feOffset dy="4"/>
<feGaussianBlur stdDeviation="2"/>
<feComposite in2="hardAlpha" operator="out"/>
<feColorMatrix type="matrix" values="0 0 0 0 0 0 0 0 0 0 0 0 0 0 0 0 0 0 0.25 0"/>
<feBlend mode="normal" in2="BackgroundImageFix" result="effect1_dropShadow_162_207"/>
<feBlend mode="normal" in="SourceGraphic" in2="effect1_dropShadow_162_207" result="shape"/>
</filter>
<linearGradient id="paint0_linear_162_207" x1="555.754" y1="334.866" x2="555.754" y2="646.106" gradientUnits="userSpaceOnUse">
<stop stop-color="#057189"/>
<stop offset="0.520833" stop-color="#15CEF9"/>
<stop offset="1" stop-color="#07849F"/>
</linearGradient>
<linearGradient id="paint1_linear_162_207" x1="525.203" y1="625.475" x2="525.203" y2="1127.49" gradientUnits="userSpaceOnUse">
<stop stop-color="#0797B7"/>
<stop offset="0.479167" stop-color="#15CEF9"/>
<stop offset="1" stop-color="#07849F"/>
</linearGradient>
<linearGradient id="paint2_linear_162_207" x1="953.612" y1="462.846" x2="953.612" y2="757.465" gradientUnits="userSpaceOnUse">
<stop stop-color="#0797B7"/>
<stop offset="0.552083" stop-color="#15CEF9"/>
<stop offset="1" stop-color="#07849F"/>
</linearGradient>
<linearGradient id="paint3_linear_162_207" x1="929.43" y1="291" x2="929.43" y2="593.186" gradientUnits="userSpaceOnUse">
<stop stop-color="#07949F"/>
<stop offset="0.479167" stop-color="#15CEF9"/>
<stop offset="1" stop-color="#07849F"/>
</linearGradient>
<linearGradient id="paint4_linear_162_207" x1="882.663" y1="629.455" x2="882.663" y2="1410" gradientUnits="userSpaceOnUse">
<stop stop-color="#057189"/>
<stop offset="0.520833" stop-color="#15CEF9"/>
<stop offset="1" stop-color="#07949F"/>
</linearGradient>
<linearGradient id="paint5_linear_162_207" x1="656" y1="362" x2="656" y2="416" gradientUnits="userSpaceOnUse">
<stop stop-color="#057189"/>
<stop offset="0.546875" stop-color="#15CEF9"/>
<stop offset="1" stop-color="#07849F"/>
</linearGradient>
<radialGradient id="paint6_diamond_162_207" cx="0" cy="0" r="1" gradientUnits="userSpaceOnUse" gradientTransform="translate(842.71 960.079) rotate(90) scale(13.2759 15.4137)">
<stop stop-color="white"/>
<stop offset="0.5" stop-color="#93E5F7"/>
<stop offset="1" stop-color="#25A7C4"/>
</radialGradient>
<radialGradient id="paint7_diamond_162_207" cx="0" cy="0" r="1" gradientUnits="userSpaceOnUse" gradientTransform="translate(842.71 960.079) rotate(90) scale(13.2759 15.4137)">
<stop stop-color="white"/>
<stop offset="0.5" stop-color="#93E5F7"/>
<stop offset="1" stop-color="#25A7C4"/>
</radialGradient>
<radialGradient id="paint8_diamond_162_207" cx="0" cy="0" r="1" gradientUnits="userSpaceOnUse" gradientTransform="translate(840.986 1263.89) rotate(90) scale(13.2759 15.4137)">
<stop stop-color="white"/>
<stop offset="0.5" stop-color="#93E5F7"/>
<stop offset="1" stop-color="#25A7C4"/>
</radialGradient>
<radialGradient id="paint9_diamond_162_207" cx="0" cy="0" r="1" gradientUnits="userSpaceOnUse" gradientTransform="translate(615.39 1083.92) rotate(90) scale(13.2759 15.4137)">
<stop stop-color="white"/>
<stop offset="0.5" stop-color="#93E5F7"/>
<stop offset="1" stop-color="#25A7C4"/>
</radialGradient>
<radialGradient id="paint10_diamond_162_207" cx="0" cy="0" r="1" gradientUnits="userSpaceOnUse" gradientTransform="translate(630.8 876.493) rotate(90) scale(13.2759 15.4137)">
<stop stop-color="white"/>
<stop offset="0.5" stop-color="#93E5F7"/>
<stop offset="1" stop-color="#25A7C4"/>
</radialGradient>
<radialGradient id="paint11_diamond_162_207" cx="0" cy="0" r="1" gradientUnits="userSpaceOnUse" gradientTransform="translate(1083.78 832.153) rotate(90) scale(13.2759 15.4137)">
<stop stop-color="white"/>
<stop offset="0.5" stop-color="#93E5F7"/>
<stop offset="1" stop-color="#25A7C4"/>
</radialGradient>
<radialGradient id="paint12_diamond_162_207" cx="0" cy="0" r="1" gradientUnits="userSpaceOnUse" gradientTransform="translate(993.211 1263.89) rotate(90) scale(13.2759 15.4137)">
<stop stop-color="white"/>
<stop offset="0.5" stop-color="#93E5F7"/>
<stop offset="1" stop-color="#25A7C4"/>
</radialGradient>
<linearGradient id="paint13_linear_162_207" x1="1212.58" y1="463.348" x2="1212.58" y2="598.974" gradientUnits="userSpaceOnUse">
<stop stop-color="#057189"/>
<stop offset="0.546875" stop-color="#15CEF9"/>
<stop offset="1" stop-color="#07849F"/>
</linearGradient>
</defs>
</svg>
