<svg width="1700" height="1700" viewBox="0 0 1700 1700" fill="none" xmlns="http://www.w3.org/2000/svg">
<path d="M635.527 627.865L689.502 602.199L656.732 538.938L715.719 560.627L708.008 495.197L762.5 552.313L804.778 482.545L840.247 607.983L873.018 465.555M873.018 465.555L906.174 542.553L930.849 617.02L974.414 552.313M873.018 465.555L938.174 512.549L974.414 546.891M974.414 552.313L961.306 408.44L1042.27 592.438L974.414 552.313ZM1133.26 542.553L1051 495.197L981.64 454.652L999.86 361.084L1076.97 386.75M1133.26 542.553L1078.51 454.652M1133.26 542.553L1188 315.898L999.86 321.32M1076.97 452.18H986M1076.97 452.18L1078.51 454.652M1076.97 452.18L1197.64 472.062L1140.97 357.469M1076.97 386.75L1078.51 454.652M1076.97 386.75L1140.97 357.469M1076.97 386.75L1057.69 272.519M1140.97 357.469L1115.52 265.289" stroke="url(#paint0_linear_140_917)" stroke-width="10" stroke-linecap="round" stroke-linejoin="bevel"/>
<path d="M1188.77 1277.46L1137.88 1301.32L1098.94 1342.89L1036.1 1359.88L999.474 1389.53L945.499 1398.92L925.836 1429.29L880.728 1436.16L873.789 1480.98L859.909 1494.36L851.428 1503.76L844.874 1514.6L841.789 1524H833.307L830.609 1522.19V1520.75L814.802 1508.46L808.248 1496.17L801.693 1480.98L798.609 1461.46L794.754 1441.58L780.103 1422.42L772.007 1403.26L768.923 1386.63V1370.01L772.007 1353.02L774.706 1333.49L780.103 1316.5L799.38 1301.68L812.103 1289.39L830.994 1277.46L863.765 1272.4L891.523 1277.46L910.8 1282.89L930.463 1289.39L944.342 1282.89H967.089H987.908L1000.63 1262.28L1019.14 1245.29L1035.33 1234.08H1060.39L1081.59 1223.6L1095.86 1200.83L1115.52 1188.9V1169.38V1152.03L1121.3 1131.78L1134.8 1119.13L1140.19 1105.03L1134.8 1091.3V1070.69L1137.5 1054.42L1145.98 1039.6L1160.24 1024.06L1170.27 1010.68L1160.24 1002.01L1155.62 992.609V978.511V958.267L1157.54 943.446L1170.27 929.709L1177.59 916.696L1170.27 908.02L1160.24 894.645L1155.62 882.354L1152.53 870.425L1155.62 853.796V842.228V824.515L1164.1 815.84L1166.41 802.826L1164.1 789.089V780.413V767.4V756.194L1155.62 743.541L1149.06 730.166V717.514L1152.92 699.801L1146.75 696.186L1137.88 707.031L1115.52 721.129H1099.71L1085.83 724.744L1064.63 717.514L1044.2 709.923L1023.38 721.129L1008.73 728.359L992.149 730.166L971.715 728.359L967.089 724.744L957.836 721.129L946.27 724.744L938.559 737.035L925.451 743.541L910.8 749.325H892.68H878.801H865.307L851.042 743.541L846.03 737.396L837.163 737.035L825.211 741.011L818.657 749.325L801.693 758.724H785.115L763.911 754.748L746.176 749.325L732.682 743.541L724.972 730.889H712.249L699.141 741.011L677.551 749.325H654.033L634.756 737.396L613.937 724.744L590.419 737.396H568.444L562.661 754.748L553.793 768.123L548.01 791.62L538.757 836.083L543.384 851.627L562.661 895.006L553.793 928.263L568.444 947.784L586.949 973.45V1005.98L595.817 1032.01L627.431 1051.53L644.009 1086.96V1125.28L665.599 1139.74L681.406 1196.85L658.274 1249.63L681.406 1320.84H658.274L595.817 1277.46H547.239L507.914 1242.76V1172.99L449.698 1116.6L461.264 1051.53L415 1005.98L442.759 942.723L415 895.006L442.759 851.627L415 832.107V786.559L442.759 747.156V729.805L461.264 697.271L484.397 632.202L547.239 621.357L579.624 608.344L632.828 640.878H681.406L732.682 653.892L790.513 640.878L834.464 653.892L880.728 632.202L952.438 640.878L992.149 632.202H1036.1L1070.8 608.344H1114.75L1137.88 590.992L1174.89 573.641H1223.86L1267.81 608.344V682.088L1284 712.453L1267.81 747.156L1284 786.559L1267.81 832.107L1284 875.486L1267.81 916.696L1284 973.45L1267.81 1032.01L1246.99 1125.28V1172.99L1205.35 1205.89L1188.77 1277.46Z" stroke="url(#paint1_linear_140_917)" stroke-width="20" stroke-linecap="round" stroke-linejoin="bevel"/>
<path d="M624.732 637.624L633.214 590.992L640.539 557.373L660.587 513.271L696.442 493.751L737.309 483.267L784.345 477.484H826.368L859.91 462.301L899.62 450.733L925.451 429.767L955.137 409.885L976.342 384.58L994.848 357.83L984.824 320.596M984.824 320.596L994.848 297.461L1024.53 277.579L1049.21 264.927L1083.91 256.974H1118.61L1155.62 264.927L1182.99 290.593L1202.65 320.596L1212.68 349.516L1222.7 384.58V419.283L1212.68 462.301L1194.17 493.751L1168.34 522.67L1148.29 541.106L1118.61 563.157L1083.91 579.424L1049.21 600.39L1014.51 609.789L970.173 619.188H925.451H876.102H847.573L817.886 609.789L784.345 590.992L761.984 563.157H737.309H716.105L700.298 585.208L696.442 600.39L689.117 619.188V637.624M984.824 320.596L968.246 286.255L960.921 252.636L955.137 222.994L960.921 198.412L968.246 176L958.029 210.703" stroke="url(#paint2_linear_140_917)" stroke-width="20" stroke-linecap="round" stroke-linejoin="bevel"/>
<path d="M553.5 811.636L645.165 832.105M645.165 832.105L565.5 878.015M645.165 832.105L651.719 757.499M645.165 832.105L651.719 909.464M645.165 832.105L689.502 855.06M651.719 909.464L604 971.499L692.779 1003M651.719 909.464L692.779 893.739M733.839 878.015L689.502 855.06M733.839 878.015L810.561 832.105M733.839 878.015L692.779 893.739M689.502 855.06L760.5 770.999L810.561 832.105M810.561 832.105L839.572 869.971M761.983 1076.83L661 1080.5L696.056 1003.81L692.779 1003M761.983 1076.83L790.705 1003.81M761.983 1076.83L725.742 1137.57L698.5 1191.43H810.561M810.561 1191.43L844 1257.5L927.378 1181.31M810.561 1191.43L875.716 1094.91M927.378 1181.31L1016 1226L1021.45 1124.55M927.378 1181.31L875.716 1094.91M1021.45 1124.55L1115 1109L1054.99 1074.37M1021.45 1124.55L959.763 1028.03M959.763 1028.03L1054.99 1074.37M959.763 1028.03L875.716 1094.91M959.763 1028.03L790.705 1003.81M959.763 1028.03L917.74 884.883L868.584 907.838M1054.99 1074.37L1138 962.499L1007.57 930.792M1007.57 930.792L1078.89 890.124M1007.57 930.792L943.113 871.214M1098 732L1141.74 846.999L1078.89 890.124M1061.55 794.872L1141.74 849.457M1061.55 794.872L991 746.5L943.113 871.214M1061.55 794.872L1078.89 890.124M692.779 893.739L819.428 930.792M819.428 930.792L692.779 1003M819.428 930.792L790.705 1003.81M819.428 930.792L868.584 907.838M790.705 1003.81L875.716 1094.91M868.584 907.838L839.572 869.971M839.572 869.971L878.656 811.636M878.656 759V811.636M878.656 811.636L943.113 871.214" stroke="url(#paint3_linear_140_917)" stroke-width="10"/>
<ellipse cx="975.185" cy="547.974" rx="7.71074" ry="7.22982" fill="url(#paint4_diamond_140_917)"/>
<ellipse cx="816.655" cy="929.717" rx="13.0319" ry="12.6604" fill="url(#paint5_diamond_140_917)"/>
<ellipse cx="698.68" cy="1009.25" rx="13.0319" ry="12.6604" fill="url(#paint6_diamond_140_917)"/>
<ellipse cx="809.714" cy="837.176" rx="13.0319" ry="12.6604" fill="url(#paint7_diamond_140_917)"/>
<ellipse cx="1003.25" cy="929.717" rx="13.0319" ry="12.6604" fill="url(#paint8_diamond_140_917)"/>
<ellipse cx="642.391" cy="837.176" rx="13.0319" ry="12.6604" fill="url(#paint9_diamond_140_917)"/>
<ellipse cx="816.655" cy="1188.54" rx="13.0319" ry="12.6604" fill="url(#paint10_diamond_140_917)"/>
<ellipse cx="1064.17" cy="796.688" rx="13.0319" ry="12.6604" fill="url(#paint11_diamond_140_917)"/>
<ellipse cx="953.905" cy="1034.55" rx="13.0319" ry="12.6604" fill="url(#paint12_diamond_140_917)"/>
<ellipse cx="982.711" cy="454.23" rx="7.71074" ry="7.22982" fill="url(#paint13_diamond_140_917)"/>
<ellipse cx="1077.71" cy="454.23" rx="7.71074" ry="7.22982" fill="url(#paint14_diamond_140_917)"/>
<ellipse cx="841.017" cy="613.765" rx="7.71074" ry="7.22982" fill="url(#paint15_diamond_140_917)"/>
<ellipse cx="1128.63" cy="305.775" rx="7.71074" ry="7.22982" fill="url(#paint16_diamond_140_917)"/>
<ellipse cx="1154.84" cy="461.941" rx="7.71074" ry="7.22982" fill="url(#paint17_diamond_140_917)"/>
<ellipse cx="1077.74" cy="385.304" rx="7.71074" ry="7.22982" fill="url(#paint18_diamond_140_917)"/>
<circle cx="850" cy="850" r="849.5" stroke="white"/>
<defs>
<linearGradient id="paint0_linear_140_917" x1="916.584" y1="337.528" x2="916.584" y2="626.871" gradientUnits="userSpaceOnUse">
<stop stop-color="#057189"/>
<stop offset="0.541667" stop-color="#15CEF9"/>
<stop offset="1" stop-color="#07949F"/>
</linearGradient>
<linearGradient id="paint1_linear_140_917" x1="849.5" y1="573.641" x2="849.5" y2="1520.75" gradientUnits="userSpaceOnUse">
<stop stop-color="#057189"/>
<stop offset="0.494792" stop-color="#15CEF9"/>
<stop offset="1" stop-color="#07949F"/>
</linearGradient>
<linearGradient id="paint2_linear_140_917" x1="923.716" y1="256.974" x2="923.716" y2="636.321" gradientUnits="userSpaceOnUse">
<stop stop-color="#0797B7"/>
<stop offset="0.5" stop-color="#15CEF9"/>
<stop offset="0.9999" stop-color="#057189"/>
<stop offset="1" stop-color="#07949F"/>
</linearGradient>
<linearGradient id="paint3_linear_140_917" x1="853.933" y1="725.828" x2="853.933" y2="1267.34" gradientUnits="userSpaceOnUse">
<stop stop-color="#028BCB"/>
<stop offset="0.0001" stop-color="#057189"/>
<stop offset="0.588542" stop-color="#15CEF9"/>
<stop offset="1" stop-color="#07949F"/>
</linearGradient>
<radialGradient id="paint4_diamond_140_917" cx="0" cy="0" r="1" gradientUnits="userSpaceOnUse" gradientTransform="translate(975.185 547.974) rotate(90) scale(7.22982 7.71074)">
<stop stop-color="white"/>
<stop offset="0.5" stop-color="#93E5F7"/>
<stop offset="1" stop-color="#25A7C4"/>
</radialGradient>
<radialGradient id="paint5_diamond_140_917" cx="0" cy="0" r="1" gradientUnits="userSpaceOnUse" gradientTransform="translate(816.655 929.717) rotate(90) scale(12.6604 13.0319)">
<stop stop-color="white"/>
<stop offset="0.5" stop-color="#93E5F7"/>
<stop offset="1" stop-color="#25A7C4"/>
</radialGradient>
<radialGradient id="paint6_diamond_140_917" cx="0" cy="0" r="1" gradientUnits="userSpaceOnUse" gradientTransform="translate(698.68 1009.25) rotate(90) scale(12.6604 13.0319)">
<stop stop-color="white"/>
<stop offset="0.5" stop-color="#93E5F7"/>
<stop offset="1" stop-color="#25A7C4"/>
</radialGradient>
<radialGradient id="paint7_diamond_140_917" cx="0" cy="0" r="1" gradientUnits="userSpaceOnUse" gradientTransform="translate(809.714 837.176) rotate(90) scale(12.6604 13.0319)">
<stop stop-color="white"/>
<stop offset="0.5" stop-color="#93E5F7"/>
<stop offset="1" stop-color="#25A7C4"/>
</radialGradient>
<radialGradient id="paint8_diamond_140_917" cx="0" cy="0" r="1" gradientUnits="userSpaceOnUse" gradientTransform="translate(1003.25 929.717) rotate(90) scale(12.6604 13.0319)">
<stop stop-color="white"/>
<stop offset="0.5" stop-color="#93E5F7"/>
<stop offset="1" stop-color="#25A7C4"/>
</radialGradient>
<radialGradient id="paint9_diamond_140_917" cx="0" cy="0" r="1" gradientUnits="userSpaceOnUse" gradientTransform="translate(642.391 837.176) rotate(90) scale(12.6604 13.0319)">
<stop stop-color="white"/>
<stop offset="0.5" stop-color="#93E5F7"/>
<stop offset="1" stop-color="#25A7C4"/>
</radialGradient>
<radialGradient id="paint10_diamond_140_917" cx="0" cy="0" r="1" gradientUnits="userSpaceOnUse" gradientTransform="translate(816.655 1188.54) rotate(90) scale(12.6604 13.0319)">
<stop stop-color="white"/>
<stop offset="0.5" stop-color="#93E5F7"/>
<stop offset="1" stop-color="#25A7C4"/>
</radialGradient>
<radialGradient id="paint11_diamond_140_917" cx="0" cy="0" r="1" gradientUnits="userSpaceOnUse" gradientTransform="translate(1064.17 796.688) rotate(90) scale(12.6604 13.0319)">
<stop stop-color="white"/>
<stop offset="0.5" stop-color="#93E5F7"/>
<stop offset="1" stop-color="#25A7C4"/>
</radialGradient>
<radialGradient id="paint12_diamond_140_917" cx="0" cy="0" r="1" gradientUnits="userSpaceOnUse" gradientTransform="translate(953.905 1034.55) rotate(90) scale(12.6604 13.0319)">
<stop stop-color="white"/>
<stop offset="0.5" stop-color="#93E5F7"/>
<stop offset="1" stop-color="#25A7C4"/>
</radialGradient>
<radialGradient id="paint13_diamond_140_917" cx="0" cy="0" r="1" gradientUnits="userSpaceOnUse" gradientTransform="translate(982.711 454.23) rotate(90) scale(7.22982 7.71074)">
<stop stop-color="white"/>
<stop offset="0.5" stop-color="#93E5F7"/>
<stop offset="1" stop-color="#25A7C4"/>
</radialGradient>
<radialGradient id="paint14_diamond_140_917" cx="0" cy="0" r="1" gradientUnits="userSpaceOnUse" gradientTransform="translate(1077.71 454.23) rotate(90) scale(7.22982 7.71074)">
<stop stop-color="white"/>
<stop offset="0.5" stop-color="#93E5F7"/>
<stop offset="1" stop-color="#25A7C4"/>
</radialGradient>
<radialGradient id="paint15_diamond_140_917" cx="0" cy="0" r="1" gradientUnits="userSpaceOnUse" gradientTransform="translate(841.017 613.765) rotate(90) scale(7.22982 7.71074)">
<stop stop-color="white"/>
<stop offset="0.5" stop-color="#93E5F7"/>
<stop offset="1" stop-color="#25A7C4"/>
</radialGradient>
<radialGradient id="paint16_diamond_140_917" cx="0" cy="0" r="1" gradientUnits="userSpaceOnUse" gradientTransform="translate(1128.63 305.775) rotate(90) scale(7.22982 7.71074)">
<stop stop-color="white"/>
<stop offset="0.5" stop-color="#93E5F7"/>
<stop offset="1" stop-color="#25A7C4"/>
</radialGradient>
<radialGradient id="paint17_diamond_140_917" cx="0" cy="0" r="1" gradientUnits="userSpaceOnUse" gradientTransform="translate(1154.84 461.941) rotate(90) scale(7.22982 7.71074)">
<stop stop-color="white"/>
<stop offset="0.5" stop-color="#93E5F7"/>
<stop offset="1" stop-color="#25A7C4"/>
</radialGradient>
<radialGradient id="paint18_diamond_140_917" cx="0" cy="0" r="1" gradientUnits="userSpaceOnUse" gradientTransform="translate(1077.74 385.304) rotate(90) scale(7.22982 7.71074)">
<stop stop-color="white"/>
<stop offset="0.5" stop-color="#93E5F7"/>
<stop offset="1" stop-color="#25A7C4"/>
</radialGradient>
</defs>
</svg>
