<svg width="1700" height="1700" viewBox="0 0 1700 1700" fill="none" xmlns="http://www.w3.org/2000/svg">
<circle cx="850" cy="850" r="849.5" stroke="white" stroke-opacity="0.36"/>
<path d="M1579.2 846.145C1579.2 853.508 1585.17 859.478 1592.53 859.478C1599.89 859.478 1605.86 853.508 1605.86 846.145C1605.86 838.781 1599.89 832.811 1592.53 832.811C1585.17 832.811 1579.2 838.781 1579.2 846.145ZM1595.03 1056.01V948.055H1590.03V1056.01H1595.03ZM1595.03 948.055V846.145H1590.03V948.055H1595.03Z" fill="#15CEF9"/>
<path d="M1532.34 822.796C1532.34 833.105 1540.69 841.462 1551 841.462C1561.31 841.462 1569.67 833.105 1569.67 822.796C1569.67 812.486 1561.31 804.129 1551 804.129C1540.69 804.129 1532.34 812.486 1532.34 822.796ZM1552.46 718.901L1555.96 718.95L1555.96 718.925V718.901H1552.46ZM1548.96 635.072V718.901H1555.96V635.072H1548.96ZM1548.96 718.852L1547.5 822.746L1554.5 822.845L1555.96 718.95L1548.96 718.852Z" fill="url(#paint0_linear_157_111)"/>
<path d="M110.002 930.17C110.002 941.952 119.553 951.503 131.335 951.503C143.117 951.503 152.668 941.952 152.668 930.17C152.668 918.388 143.117 908.837 131.335 908.837C119.553 908.837 110.002 918.388 110.002 930.17ZM135.335 1101.87V930.17H127.335V1101.87H135.335Z" fill="url(#paint1_linear_157_111)"/>
<path d="M641.334 873.108C641.393 883.417 649.799 891.726 660.108 891.666C670.417 891.607 678.726 883.201 678.666 872.892C678.607 862.583 670.201 854.274 659.892 854.334C649.583 854.393 641.274 862.799 641.334 873.108ZM664.329 1015.8L663.5 872.98L656.5 873.02L657.329 1015.84L664.329 1015.8Z" fill="#15CEF9"/>
<path d="M702.106 879.227C702.106 891.009 711.657 900.56 723.439 900.56C735.222 900.56 744.773 891.009 744.773 879.227C744.773 867.444 735.222 857.893 723.439 857.893C711.657 857.893 702.106 867.444 702.106 879.227ZM727.439 1082.8V879.227H719.439V1082.8H727.439Z" fill="url(#paint2_linear_157_111)"/>
<path d="M1240.8 879.227C1240.8 888.063 1247.96 895.227 1256.8 895.227C1265.63 895.227 1272.8 888.063 1272.8 879.227C1272.8 870.39 1265.63 863.227 1256.8 863.227C1247.96 863.227 1240.8 870.39 1240.8 879.227ZM1256.9 950.871L1253.9 950.876L1253.9 950.882L1256.9 950.871ZM1260.15 1021.69L1259.9 950.861L1253.9 950.882L1254.15 1021.71L1260.15 1021.69ZM1259.9 950.867L1259.8 879.222L1253.8 879.231L1253.9 950.876L1259.9 950.867Z" fill="#15CEF9"/>
<path d="M986.835 872.934C986.835 880.297 992.804 886.267 1000.17 886.267C1007.53 886.267 1013.5 880.297 1013.5 872.934C1013.5 865.57 1007.53 859.6 1000.17 859.6C992.804 859.6 986.835 865.57 986.835 872.934ZM1002.67 1050.73V872.934H997.668V1050.73H1002.67Z" fill="#15CEF9"/>
<path d="M1304 909.061C1304 920.843 1313.55 930.394 1325.33 930.394C1337.12 930.394 1346.67 920.843 1346.67 909.061C1346.67 897.278 1337.12 887.727 1325.33 887.727C1313.55 887.727 1304 897.278 1304 909.061ZM1329.33 1085.25V909.061H1321.33V1085.25H1329.33Z" fill="url(#paint3_linear_157_111)"/>
<path d="M1504.33 919.984C1504.32 930.293 1512.67 938.658 1522.98 938.667C1533.29 938.676 1541.66 930.325 1541.67 920.016C1541.68 909.707 1533.33 901.342 1523.02 901.333C1512.71 901.324 1504.34 909.675 1504.33 919.984ZM1526.33 1115.46L1526.5 920.003L1519.5 919.997L1519.33 1115.46L1526.33 1115.46Z" fill="url(#paint4_linear_157_111)"/>
<path d="M1440.55 920.225C1440.55 927.588 1446.52 933.558 1453.89 933.558C1461.25 933.558 1467.22 927.588 1467.22 920.225C1467.22 912.861 1461.25 906.891 1453.89 906.891C1446.52 906.891 1440.55 912.861 1440.55 920.225ZM1456.39 1130.32L1456.39 920.225L1451.39 920.225L1451.39 1130.32L1456.39 1130.32Z" fill="#15CEF9"/>
<path d="M1382.33 910.23C1382.39 920.539 1390.78 928.793 1401.09 928.667C1411.4 928.54 1419.72 920.08 1419.66 909.77C1419.61 899.461 1411.22 891.207 1400.91 891.334C1390.6 891.461 1382.28 899.921 1382.33 910.23ZM1413.01 671.804L1416.51 671.8L1416.51 671.776L1416.51 671.751L1413.01 671.804ZM1393.7 775.949C1393.75 786.258 1402.15 794.513 1412.45 794.386C1422.76 794.259 1431.08 785.799 1431.03 775.49C1430.98 765.18 1422.58 756.926 1412.27 757.053C1401.96 757.18 1393.65 765.64 1393.7 775.949ZM1404.5 1121.74L1404.5 909.974L1397.5 910.026L1397.5 1121.79L1404.5 1121.74ZM1408.86 588.035L1409.51 671.857L1416.51 671.751L1415.86 587.929L1408.86 588.035ZM1409.51 671.808L1408.86 775.723L1415.86 775.716L1416.51 671.8L1409.51 671.808Z" fill="url(#paint5_linear_157_111)"/>
<path d="M909.667 876.873C909.597 888.655 919.092 898.263 930.873 898.333C942.655 898.403 952.263 888.908 952.333 877.127C952.403 865.345 942.908 855.737 931.127 855.667C919.345 855.597 909.737 865.092 909.667 876.873ZM933.567 1118.54L935 877.024L927 876.976L925.567 1118.49L933.567 1118.54Z" fill="url(#paint6_linear_157_111)"/>
<path d="M840.667 903.127C840.737 914.908 850.345 924.403 862.127 924.333C873.908 924.263 883.403 914.655 883.333 902.873C883.263 891.092 873.655 881.597 861.873 881.667C850.092 881.737 840.597 891.345 840.667 903.127ZM867.349 1130.26L866 902.976L858 903.024L859.349 1130.31L867.349 1130.26Z" fill="url(#paint7_linear_157_111)"/>
<path d="M779.667 843.863C779.592 851.226 785.499 857.257 792.863 857.333C800.226 857.408 806.257 851.501 806.333 844.137C806.408 836.774 800.501 830.743 793.137 830.667C785.774 830.592 779.743 836.499 779.667 843.863ZM792.673 1118.54L795.5 844.026L790.5 843.974L787.673 1118.49L792.673 1118.54Z" fill="#15CEF9"/>
<path d="M381.336 878.356C381.808 890.128 391.735 899.289 403.508 898.816C415.28 898.344 424.441 888.417 423.968 876.645C423.496 864.872 413.569 855.711 401.796 856.184C390.024 856.657 380.863 866.583 381.336 878.356ZM406.652 1021.91L406.652 877.5L398.652 877.5L398.652 1021.91L406.652 1021.91Z" fill="url(#paint8_radial_157_111)"/>
<path d="M444.203 852.607C444.151 859.971 450.077 866.045 457.44 866.175C464.802 866.304 470.813 860.44 470.865 853.076C470.918 845.713 464.991 839.638 457.629 839.509C450.266 839.379 444.255 845.244 444.203 852.607ZM460.034 958.813L460.034 852.868L455.035 852.816L455.035 958.761L460.034 958.813Z" fill="#15CEF9"/>
<path d="M301.134 939.5C301.134 954.228 313.073 966.167 327.801 966.167C342.528 966.167 354.467 954.228 354.467 939.5C354.467 924.772 342.528 912.833 327.801 912.833C313.073 912.833 301.134 924.772 301.134 939.5ZM332.801 1095.79V939.5H322.801V1095.79H332.801Z" fill="url(#paint9_linear_157_111)"/>
<path d="M231.502 903.373C231.502 910.737 237.471 916.706 244.835 916.706C252.199 916.706 258.168 910.737 258.168 903.373C258.168 896.009 252.199 890.04 244.835 890.04C237.471 890.04 231.502 896.009 231.502 903.373ZM247.335 1124.2V903.373H242.335V1124.2H247.335Z" fill="#15CEF9"/>
<path d="M168.826 863.193C168.826 877.921 180.765 889.86 195.492 889.86C210.22 889.86 222.159 877.921 222.159 863.193C222.159 848.466 210.22 836.527 195.492 836.527C180.765 836.527 168.826 848.466 168.826 863.193ZM200.492 1124.2V863.193H190.492V1124.2H200.492Z" fill="url(#paint10_linear_157_111)"/>
<path d="M64.7318 840.868C64.7318 855.595 76.6708 867.534 91.3984 867.534C106.126 867.534 118.065 855.595 118.065 840.868C118.065 826.14 106.126 814.201 91.3984 814.201C76.6708 814.201 64.7318 826.14 64.7318 840.868ZM86.3984 699.607V840.868H96.3984V699.607H86.3984Z" fill="url(#paint11_linear_157_111)"/>
<path d="M239.683 813.5C239.683 828.228 251.622 840.167 266.35 840.167C281.077 840.167 293.016 828.228 293.016 813.5C293.016 798.772 281.077 786.833 266.35 786.833C251.622 786.833 239.683 798.772 239.683 813.5ZM261.35 604.215V813.5H271.35V604.215H261.35Z" fill="url(#paint12_linear_157_111)"/>
<path d="M722.536 819.766C722.536 830.075 730.894 838.433 741.203 838.433C751.512 838.433 759.87 830.075 759.87 819.766C759.87 809.457 751.512 801.099 741.203 801.099C730.894 801.099 722.536 809.457 722.536 819.766ZM737.703 588.379V819.766H744.703V588.379H737.703Z" fill="url(#paint13_linear_157_111)"/>
<path d="M666.883 800.892C666.883 808.256 672.853 814.226 680.217 814.226C687.581 814.226 693.55 808.256 693.55 800.892C693.55 793.528 687.581 787.559 680.217 787.559C672.853 787.559 666.883 793.528 666.883 800.892ZM677.717 652.512V800.892H682.717V652.512H677.717Z" fill="#15CEF9"/>
<path d="M610.572 872.934C610.572 877.352 614.154 880.934 618.572 880.934C622.991 880.934 626.572 877.352 626.572 872.934C626.572 868.516 622.991 864.934 618.572 864.934C614.154 864.934 610.572 868.516 610.572 872.934ZM617.072 731.674V872.934H620.072V731.674H617.072Z" fill="#15CEF9"/>
<path d="M870.488 819.759C870.488 831.542 880.039 841.093 891.821 841.093C903.603 841.093 913.155 831.542 913.155 819.759C913.155 807.977 903.603 798.426 891.821 798.426C880.039 798.426 870.488 807.977 870.488 819.759ZM887.821 562V819.759H895.821V562H887.821Z" fill="url(#paint14_linear_157_111)"/>
<path d="M1034.33 878.605C1034.33 884.496 1039.11 889.271 1045 889.271C1050.89 889.271 1055.67 884.496 1055.67 878.605C1055.67 872.714 1050.89 867.938 1045 867.938C1039.11 867.938 1034.33 872.714 1034.33 878.605ZM1043 700V878.605H1047V700H1043Z" fill="#15CEF9"/>
<path d="M962.698 831.522C962.731 838.886 968.727 844.789 976.09 844.708C983.453 844.627 989.396 838.591 989.363 831.227C989.33 823.864 983.335 817.96 975.971 818.042C968.608 818.123 962.665 824.158 962.698 831.522ZM972.5 600.028L973.531 831.402L978.53 831.347L977.5 599.972L972.5 600.028Z" fill="#15CEF9"/>
<path d="M1274.45 849.186C1274.45 856.55 1280.42 862.519 1287.78 862.519C1295.15 862.519 1301.11 856.55 1301.11 849.186C1301.11 841.822 1295.15 835.853 1287.78 835.853C1280.42 835.853 1274.45 841.822 1274.45 849.186ZM1288.68 762.936L1291.18 762.962L1291.18 762.949V762.936H1288.68ZM1286.18 647.246V762.936H1291.18V647.246H1286.18ZM1286.18 762.91L1285.28 849.16L1290.28 849.212L1291.18 762.962L1286.18 762.91Z" fill="#15CEF9"/>
<path d="M1220.11 830.515C1220.11 836.406 1224.88 841.181 1230.77 841.181C1236.66 841.181 1241.44 836.406 1241.44 830.515C1241.44 824.624 1236.66 819.848 1230.77 819.848C1224.88 819.848 1220.11 824.624 1220.11 830.515ZM1228.77 714.219V772.367H1232.77V714.219H1228.77ZM1228.77 772.367V830.515H1232.77V772.367H1228.77Z" fill="#15CEF9"/>
<path d="M1461.75 854.837C1461.7 865.146 1470.01 873.609 1480.32 873.74C1490.63 873.871 1499.03 865.62 1499.08 855.311C1499.13 845.002 1490.82 836.538 1480.51 836.407C1470.2 836.276 1461.8 844.527 1461.75 854.837ZM1478.24 597.27L1477.58 726.15L1484.58 726.239L1485.24 597.359L1478.24 597.27ZM1477.58 726.15L1476.92 855.029L1483.92 855.118L1484.58 726.239L1477.58 726.15Z" fill="#15CEF9"/>
<path d="M1331.31 830.722C1331.31 842.504 1340.87 852.055 1352.65 852.055C1364.43 852.055 1373.98 842.504 1373.98 830.722C1373.98 818.94 1364.43 809.388 1352.65 809.388C1340.87 809.388 1331.31 818.94 1331.31 830.722ZM1348.65 597.314V714.018H1356.65V597.314H1348.65ZM1348.65 714.018V830.722H1356.65V714.018H1348.65Z" fill="url(#paint15_linear_157_111)"/>
<path d="M400.397 806.5C400.397 813.864 406.367 819.833 413.73 819.833C421.094 819.833 427.064 813.864 427.064 806.5C427.064 799.136 421.094 793.167 413.73 793.167C406.367 793.167 400.397 799.136 400.397 806.5ZM411.23 673.627V806.5H416.23V673.627H411.23Z" fill="#15CEF9"/>
<path d="M789.968 768.207C789.968 779.989 799.52 789.541 811.302 789.541C823.084 789.541 832.635 779.989 832.635 768.207C832.635 756.425 823.084 746.874 811.302 746.874C799.52 746.874 789.968 756.425 789.968 768.207ZM807.302 562V768.207H815.302V562H807.302Z" fill="url(#paint16_linear_157_111)"/>
<path d="M324.634 862.957C324.61 870.321 330.56 876.31 337.924 876.334C345.288 876.358 351.277 870.408 351.301 863.044C351.325 855.681 345.375 849.692 338.011 849.668C330.647 849.644 324.658 855.594 324.634 862.957ZM336.253 622.07L335.467 862.993L340.467 863.009L341.253 622.086L336.253 622.07Z" fill="#15CEF9"/>
<path d="M190.483 787.285C190.483 797.595 198.84 805.952 209.149 805.952C219.459 805.952 227.816 797.595 227.816 787.285C227.816 776.976 219.459 768.619 209.149 768.619C198.84 768.619 190.483 776.976 190.483 787.285ZM205.649 612.334V787.285H212.649V612.334H205.649Z" fill="#15CEF9"/>
<path d="M131.658 872.938C131.658 880.302 137.627 886.271 144.991 886.271C152.355 886.271 158.325 880.302 158.325 872.938C158.325 865.574 152.355 859.605 144.991 859.605C137.627 859.605 131.658 865.574 131.658 872.938ZM142.491 652.518V872.938H147.491V652.518H142.491Z" fill="#15CEF9"/>
<path d="M57 726.803L111.753 673.424L166.377 627.149L217.136 606.651L264.932 600.562L314.918 606.651L361.813 627.149L406.517 658.608L441.945 698.794L479.564 743.649L555.445 858.321L603.112 932.198L664.177 1019.88L715.967 1088.48L774.327 1120.34L858.196 1138L932.66 1120.34L1001.84 1059.86L1055.69 994.913L1107.35 909.061L1145.87 831.733L1188.77 760.494L1253.71 676.469L1298.92 633.644L1350.33 595.691L1411.65 575.598L1487.15 587.775L1559.55 633.644L1599.74 676.469L1638.01 725.585" stroke="url(#paint17_linear_157_111)" stroke-width="40"/>
<path d="M61.251 1034.69L93.3942 1067.98L125.537 1101.26L185.572 1130.49H249.73L315.691 1101.26L359.493 1071.02L399.56 1034.69L436.534 990.855L463.459 956.96L486.52 929.155L525.04 870.905L595.253 750.144L645.626 685.4L695.998 628.977L743.794 589.4L802.154 562.203H887.182L952.113 589.4L1003.9 628.977L1055.69 685.4L1110.06 760.698L1145.87 831.734L1199.85 935.041L1284.11 1053.57L1352.65 1109.38L1413.71 1130.49H1478L1539.45 1109.38L1575.65 1080.56L1618.94 1036.32L1642 1004.66" stroke="url(#paint18_linear_157_111)" stroke-width="35"/>
<defs>
<linearGradient id="paint0_linear_157_111" x1="1551.73" y1="635.072" x2="1551.73" y2="822.796" gradientUnits="userSpaceOnUse">
<stop stop-color="#15CEF9"/>
<stop offset="0.5" stop-color="#057189"/>
<stop offset="1" stop-color="#15CEF9"/>
</linearGradient>
<linearGradient id="paint1_linear_157_111" x1="131.835" y1="930.17" x2="131.835" y2="1101.87" gradientUnits="userSpaceOnUse">
<stop stop-color="#15CEF9"/>
<stop offset="0.520833" stop-color="#057189"/>
<stop offset="1" stop-color="#15CEF9"/>
</linearGradient>
<linearGradient id="paint2_linear_157_111" x1="723.939" y1="879.227" x2="723.939" y2="1082.8" gradientUnits="userSpaceOnUse">
<stop stop-color="#15CEF9"/>
<stop offset="0.515625" stop-color="#057189"/>
<stop offset="1" stop-color="#15CEF9"/>
</linearGradient>
<linearGradient id="paint3_linear_157_111" x1="1325.83" y1="909.061" x2="1325.83" y2="1085.25" gradientUnits="userSpaceOnUse">
<stop stop-color="#15CEF9"/>
<stop offset="0.541667" stop-color="#057189"/>
<stop offset="1" stop-color="#15CEF9"/>
</linearGradient>
<linearGradient id="paint4_linear_157_111" x1="1523.5" y1="920" x2="1523.33" y2="1115.46" gradientUnits="userSpaceOnUse">
<stop stop-color="#15CEF9"/>
<stop offset="0.484375" stop-color="#057189"/>
<stop offset="1" stop-color="#15CEF9"/>
</linearGradient>
<linearGradient id="paint5_linear_157_111" x1="1405.48" y1="588.067" x2="1412.04" y2="1121.63" gradientUnits="userSpaceOnUse">
<stop stop-color="#15CEF9"/>
<stop offset="0.46875" stop-color="#057189"/>
<stop offset="1" stop-color="#15CEF9"/>
</linearGradient>
<linearGradient id="paint6_linear_157_111" x1="931.5" y1="877.003" x2="930.067" y2="1118.52" gradientUnits="userSpaceOnUse">
<stop stop-color="#15CEF9"/>
<stop offset="0.484375" stop-color="#057189"/>
<stop offset="1" stop-color="#15CEF9"/>
</linearGradient>
<linearGradient id="paint7_linear_157_111" x1="862.5" y1="902.997" x2="863.849" y2="1130.28" gradientUnits="userSpaceOnUse">
<stop stop-color="#15CEF9"/>
<stop offset="0.515625" stop-color="#057189"/>
<stop offset="1" stop-color="#15CEF9"/>
</linearGradient>
<radialGradient id="paint8_radial_157_111" cx="0" cy="0" r="1" gradientUnits="userSpaceOnUse" gradientTransform="translate(402.652 949.704) rotate(87.7015) scale(72.1456 2.8957)">
<stop stop-color="#15CEF9"/>
<stop offset="0.479167" stop-color="#07849F"/>
<stop offset="1" stop-color="#15CEF9"/>
</radialGradient>
<linearGradient id="paint9_linear_157_111" x1="328.301" y1="939.5" x2="328.301" y2="1095.79" gradientUnits="userSpaceOnUse">
<stop offset="0.0001" stop-color="#07849F"/>
<stop offset="1" stop-color="#15CEF9"/>
</linearGradient>
<linearGradient id="paint10_linear_157_111" x1="195.992" y1="863.193" x2="195.992" y2="1124.2" gradientUnits="userSpaceOnUse">
<stop offset="0.00520833" stop-color="#07849F"/>
<stop offset="1" stop-color="#15CEF9"/>
</linearGradient>
<linearGradient id="paint11_linear_157_111" x1="91.8984" y1="699.607" x2="91.8984" y2="840.868" gradientUnits="userSpaceOnUse">
<stop stop-color="#15CEF9"/>
<stop offset="0.5" stop-color="#2A879C"/>
<stop offset="1" stop-color="#15CEF9"/>
</linearGradient>
<linearGradient id="paint12_linear_157_111" x1="266.85" y1="604.215" x2="266.85" y2="813.5" gradientUnits="userSpaceOnUse">
<stop stop-color="#15CEF9"/>
<stop offset="0.53125" stop-color="#07849F"/>
<stop offset="1" stop-color="#15CEF9"/>
</linearGradient>
<linearGradient id="paint13_linear_157_111" x1="741.703" y1="588.379" x2="741.703" y2="819.766" gradientUnits="userSpaceOnUse">
<stop stop-color="#15CEF9"/>
<stop offset="0.515625" stop-color="#057189"/>
<stop offset="1" stop-color="#15CEF9"/>
</linearGradient>
<linearGradient id="paint14_linear_157_111" x1="892.321" y1="562" x2="892.321" y2="819.759" gradientUnits="userSpaceOnUse">
<stop stop-color="#15CEF9"/>
<stop offset="0.510417" stop-color="#057189"/>
<stop offset="1" stop-color="#15CEF9"/>
</linearGradient>
<linearGradient id="paint15_linear_157_111" x1="1353.15" y1="597.314" x2="1353.15" y2="830.722" gradientUnits="userSpaceOnUse">
<stop stop-color="#15CEF9"/>
<stop offset="0.479167" stop-color="#057189"/>
<stop offset="1" stop-color="#15CEF9"/>
</linearGradient>
<linearGradient id="paint16_linear_157_111" x1="811.802" y1="562" x2="811.802" y2="768.207" gradientUnits="userSpaceOnUse">
<stop stop-color="#15CEF9"/>
<stop offset="0.0001" stop-color="#057189"/>
<stop offset="1" stop-color="#15CEF9"/>
</linearGradient>
<linearGradient id="paint17_linear_157_111" x1="847.503" y1="575.598" x2="847.503" y2="1138" gradientUnits="userSpaceOnUse">
<stop stop-color="#07849F"/>
<stop offset="1" stop-color="#15CEF9"/>
</linearGradient>
<linearGradient id="paint18_linear_157_111" x1="851.625" y1="562.203" x2="851.625" y2="1130.49" gradientUnits="userSpaceOnUse">
<stop stop-color="#057189"/>
<stop offset="1" stop-color="#15CEF9"/>
</linearGradient>
</defs>
</svg>
