<svg width="610" height="610" viewBox="0 0 1022 1502" fill="none" xmlns="http://www.w3.org/2000/svg">
<path d="M361.13 142.102L394.155 114.364L424.509 88.4473L462.874 69.9553L516.451 58.8531M516.451 58.8531V8M516.451 58.8531L583.379 221.639M516.451 58.8531L607.06 125.814M516.451 58.8531L492.789 116.203M516.451 8H603.897V31.115L595.886 63.4761M516.451 8L595.886 63.4761M595.886 63.4761L620.865 69.9553M620.865 69.9553L641.417 82.9137L650.341 88.4473L669.067 63.4761M620.865 69.9553L607.06 125.814M669.067 63.4761L682.453 44.0735V8M669.067 63.4761L761.009 39.4505M669.067 63.4761L703.883 120.843M682.453 8H761.009V39.4505M682.453 8L732.446 88.4473M761.009 39.4505L746.744 63.4761L732.446 88.4473M732.446 88.4473L703.883 120.843M703.883 120.843L732.446 148.581M703.883 120.843L595.886 227.173M703.883 120.843L595.22 173.727M732.446 148.581L738.699 107.885L752.085 75.5239M732.446 148.581L810.741 110.244M732.446 148.581L595.886 227.173M752.085 75.5239L766.383 58.8531H803.87M752.085 75.5239L810.741 110.244M803.87 58.8531L828.849 69.9553L853.829 88.4473L854.287 88.9222M803.87 58.8531L810.741 110.244M880.634 133.767L872.589 107.885L854.287 88.9222M880.634 133.767V158.738L872.589 190.189M880.634 133.767L820.443 182.799M872.589 190.189L859.203 215.16L828.849 245.665L820.443 182.799M872.589 190.189L820.443 182.799M854.287 88.9222L810.741 110.244M752.085 69.9553L703.883 268.815M703.883 268.815L810.741 110.244M703.883 268.815L595.886 227.173M810.741 110.244L820.443 182.799M625.327 265.102L609.271 240.131L595.886 227.173M595.886 227.173L583.379 221.639M583.379 221.639H563.74H550.354L531.628 240.131L517.873 256.065M583.379 221.639L595.22 173.727M583.379 221.639L471.709 167.296M517.873 256.065L516.451 257.712L506.614 268.815L499.482 293.786V303.942L346.832 352.974L382.561 406.594L353.998 274.348L424.509 266.482M517.873 256.065L424.509 266.482M517.873 256.065L469.128 173.553M424.509 266.482L369.141 173.553H469.128M469.128 173.553L424.509 82.9137L492.789 116.203M469.128 173.553L471.709 167.296M607.06 125.814L595.22 173.727M492.789 116.203L471.709 167.296" stroke="url(#paint0_linear_34_98)" stroke-width="15" stroke-linecap="round" stroke-linejoin="bevel"/>
<path d="M236.164 445.715L225.449 390.168M225.449 390.168L208.278 341.312L174.002 303.557M225.449 390.168L377.66 401.271L343.351 354.62M225.449 390.168L333.582 470.931M225.449 390.168L284.4 356.844M174.002 303.557L113.97 259.113M174.002 303.557L284.4 356.844M174.002 303.557L266.181 205.808M113.97 259.113L68.9457 236.909M113.97 259.113L58.2304 96.9577M113.97 259.113L201.213 271.126M68.9457 236.909L45.3519 205.808M68.9457 236.909L236.164 154.71M45.3519 205.808L30.3438 154.71M45.3519 205.808L165.417 85.8554M30.3438 154.71L58.2304 96.9577M30.3438 154.71L208.278 119.162M58.2304 96.9577L113.97 79.2011M113.97 79.2011L165.417 85.8554M113.97 79.2011L201.213 271.126M165.417 85.8554L208.278 119.162M208.278 119.162L236.164 154.71M236.164 154.71L266.181 205.808M236.164 154.71L270.816 280.71M266.181 205.808V154.71M266.181 205.808L275.29 281.326M266.181 205.808L343.351 119.162M266.181 205.808H351.227M266.181 154.71L296.197 65.8574M266.181 154.71L371.237 172.502M296.197 65.8574L343.351 119.162M296.197 65.8574L351.227 205.808M343.351 119.162L371.237 172.502M371.237 172.502C368.387 162.871 361.394 156.048 356.229 205.808M356.229 205.808C351.064 255.569 345.491 305.016 343.351 323.52M356.229 205.808L284.4 356.844M356.229 205.808H351.227M343.351 323.52V354.62M343.351 323.52L284.4 356.844M343.351 354.62L328.309 476.394M284.4 356.844L275.29 281.326M275.29 281.326L270.816 280.71M270.816 280.71L201.213 271.126" stroke="url(#paint1_linear_34_98)" stroke-width="15" stroke-linecap="round" stroke-linejoin="bevel"/>
<g filter="url(#filter0_d_34_98)">
<path d="M280.749 1287.28L215.68 1195.87L162.509 1109.26L160.371 1102.11M280.749 1287.28L371.068 1377.71M280.749 1287.28L273.109 1054.1M371.068 1377.71L478.254 1442.74L479.775 1443.31M371.068 1377.71L273.109 1054.1M371.068 1377.71L513.476 1287.28M655.85 1484L712.502 1460.22M655.85 1484H596.156M655.85 1484L674.238 1287.28M712.502 1460.22L767.633 1404.67M712.502 1460.22L513.476 1287.28M767.633 1404.67L819.688 1339.64M767.633 1404.67L674.238 1287.28M819.688 1339.64L865.625 1252.39M819.688 1339.64L674.238 1287.28M865.625 1252.39L906.965 1166.73M865.625 1252.39L689.551 1063.62M906.965 1166.73L931.472 1109.26M906.965 1166.73L674.238 1287.28M931.472 1109.26L954.423 1039.81M931.472 1109.26L689.551 1063.62M954.423 1039.81L978.533 950.168M954.423 1039.81L808.973 989.056M980.451 943.038L998.839 855.797L1008 789.183V741.587M980.451 943.038L778.349 719.727M980.451 943.038L978.533 950.168M767.633 454.436L874.82 495.692L923.799 540.101L954.423 589.273L958.081 596.168M767.633 454.436L692.593 468.725L603.795 454.436M767.633 454.436L778.349 719.727M603.795 454.436L560.934 481.403L513.476 540.101M603.795 454.436L778.349 719.727M603.795 454.436L580.408 573.443M513.476 540.101L479.775 589.273L466.018 628.954M513.476 540.101L580.408 573.443M466.018 628.954H400.171M466.018 628.954L580.408 573.443M466.018 628.954L273.109 1054.1M400.171 628.954L332.804 608.326L300.658 555.967V540.101L314.449 511.558L273.109 517.897M400.171 628.954L288.422 776.47M273.109 517.897L245.527 530.61L231.77 563.917V621.004L199.59 668.6M273.109 517.897L288.422 776.47M199.59 668.6L178.159 711.433L162.509 754.266L141.417 800.286L126.104 855.797M199.59 668.6L288.422 776.47M126.104 855.797L116.91 917.682M126.104 855.797L288.422 776.47M116.91 917.682L126.104 987.482M116.91 917.682L273.109 1054.1M126.104 987.482L160.371 1102.11M126.104 987.482L273.109 1054.1M160.371 1102.11L273.109 1054.1M273.109 1054.1L513.476 885.951M273.109 1054.1L288.422 776.47M513.476 1287.28L479.775 1443.31M513.476 1287.28L596.156 1484M513.476 1287.28L689.551 1063.62M513.476 1287.28V901.817M479.775 1443.31L588.482 1484H596.156M689.551 1063.62L518.082 890.599M513.476 885.951L518.082 890.599M513.476 885.951V901.817M513.476 885.951L808.973 989.056M518.082 890.599L580.408 573.443M958.081 596.168L988.09 652.735L1008 733.637V741.587M958.081 596.168L778.349 719.727M513.476 901.817L778.349 719.727M1008 741.587L778.349 719.727M778.349 719.727L808.973 989.056M978.533 950.168L808.973 989.056" stroke="url(#paint2_linear_34_98)" stroke-width="20" stroke-linecap="round" stroke-linejoin="bevel" shape-rendering="crispEdges"/>
</g>
<path d="M160.887 1111.36L128.369 1071.47M128.369 1071.47V1010.35L77.835 987.903M128.369 1071.47L78.9842 989.803M77.835 987.903L78.9842 989.803M77.835 987.903L78.9842 843.259M38.1176 905.599L78.9842 989.803M38.1176 905.599L78.9842 843.259M38.1176 905.599L16.4505 833.277M78.9842 989.803L116.336 928.049L78.9842 843.259M78.9842 843.259L146.419 784.631L82.047 653.681M78.9842 843.259L16.4505 833.277M78.9842 843.259L8 704.814M16.4505 833.277L192.154 679.878M16.4505 833.277L8 704.814M192.154 679.878L16.4505 703.67M192.154 679.878V552.675M8 704.814L16.4505 636.239L47.7174 583.845M8 704.814L16.4505 703.67M47.7174 583.845L82.047 653.681M47.7174 583.845L78.9842 535.234M82.047 653.681L16.4505 703.67M82.047 653.681L78.9842 535.234M82.047 653.681L192.154 552.675M78.9842 535.234L192.154 552.675M192.154 552.675L116.336 490.334M192.154 552.675L243.938 535.234L237.888 449.183M192.154 552.675L237.888 449.183M192.154 552.675L165.687 464.137M82.047 535.234L116.336 490.334M116.336 490.334L165.687 464.137M237.888 449.183H192.154L165.687 464.137M237.888 449.183H281.222L333.007 476.605L313.74 514.01L237.888 449.183Z" stroke="url(#paint3_linear_34_98)" stroke-width="15" stroke-linecap="round" stroke-linejoin="bevel"/>
<path d="M964.566 324.78C964.566 348.863 959.605 370.418 951.821 385.768C943.895 401.398 933.854 409.228 924.204 409.228C914.555 409.228 904.514 401.398 896.587 385.768C888.803 370.418 883.842 348.863 883.842 324.78C883.842 300.698 888.803 279.142 896.587 263.792C904.514 248.163 914.555 240.332 924.204 240.332C933.854 240.332 943.895 248.163 951.821 263.792C959.605 279.142 964.566 300.698 964.566 324.78Z" stroke="#03B4F2" stroke-width="10"/>
<path d="M314.449 515.06L351.226 550.118M351.226 550.118L393.884 623.281L482.141 580.623L351.226 550.118ZM351.226 550.118L605.688 449.533M351.226 550.118L380.634 419.063M380.634 419.063L329.153 472.403L511.549 533.377M380.634 419.063L424.779 367.264M380.634 419.063L464.463 430.412M424.779 367.264L464.463 336.759M424.779 367.264L464.463 430.412M464.463 336.759L511.549 303.243M464.463 336.759L511.549 525.742V303.243M511.549 303.243L558.601 283.984M567.424 280.373L630.701 269.726H698.339M567.424 280.373L558.601 283.984M567.424 280.373L671.872 419.063M567.424 280.373L757.188 315.43M698.339 269.726L771.892 259.044L829.254 249.903L918.965 234.668M698.339 269.726L757.188 315.43M918.965 234.668L883.676 303.243M918.965 234.668L829.254 315.43M918.965 234.668L966.051 303.243L905.748 391.64M883.676 303.243L957.229 367.264L905.748 391.64M883.676 303.243L829.254 315.43M905.748 391.64V409.922M905.748 409.922H870.425M905.748 409.922L829.254 315.43M870.425 409.922H829.254L785.109 400.781M870.425 409.922L757.188 315.43M785.109 400.781L727.747 409.922L671.872 419.063M785.109 400.781L757.188 315.43M671.872 419.063L623.332 434.298L605.688 449.533M671.872 419.063L757.188 315.43M605.688 449.533L464.463 430.412M605.688 449.533L558.601 283.984M464.463 430.412L558.601 283.984M757.188 315.43L829.254 259.044M757.188 315.43H829.254" stroke="url(#paint4_linear_34_98)" stroke-width="15" stroke-linecap="round" stroke-linejoin="bevel"/>
<ellipse cx="85.847" cy="649.232" rx="13.5208" ry="14.0091" fill="url(#paint5_diamond_34_98)"/>
<ellipse cx="85.847" cy="847.81" rx="13.5208" ry="14.0091" fill="url(#paint6_diamond_34_98)"/>
<ellipse cx="190.497" cy="546.124" rx="13.5208" ry="14.0091" fill="url(#paint7_diamond_34_98)"/>
<ellipse cx="518.647" cy="890.539" rx="16.901" ry="17.5114" fill="url(#paint8_diamond_34_98)"/>
<ellipse cx="518.647" cy="890.539" rx="16.901" ry="17.5114" fill="url(#paint9_diamond_34_98)"/>
<ellipse cx="516.755" cy="1291.27" rx="16.901" ry="17.5114" fill="url(#paint10_diamond_34_98)"/>
<ellipse cx="269.391" cy="1053.89" rx="16.901" ry="17.5114" fill="url(#paint11_diamond_34_98)"/>
<ellipse cx="286.292" cy="780.287" rx="16.901" ry="17.5114" fill="url(#paint12_diamond_34_98)"/>
<ellipse cx="782.979" cy="721.799" rx="16.901" ry="17.5114" fill="url(#paint13_diamond_34_98)"/>
<ellipse cx="683.669" cy="1291.27" rx="16.901" ry="17.5114" fill="url(#paint14_diamond_34_98)"/>
<ellipse cx="511.887" cy="521.608" rx="10.1406" ry="10.5068" fill="url(#paint15_diamond_34_98)"/>
<ellipse cx="387.766" cy="406.594" rx="10.1406" ry="10.5068" fill="url(#paint16_diamond_34_98)"/>
<ellipse cx="808.467" cy="110.161" rx="10.1406" ry="10.5068" fill="url(#paint17_diamond_34_98)"/>
<ellipse cx="701.449" cy="120.669" rx="10.1406" ry="10.5068" fill="url(#paint18_diamond_34_98)"/>
<ellipse cx="472.678" cy="166.968" rx="10.1406" ry="10.5068" fill="url(#paint19_diamond_34_98)"/>
<ellipse cx="356.939" cy="549.628" rx="10.1406" ry="10.5068" fill="url(#paint20_diamond_34_98)"/>
<ellipse cx="836.656" cy="251.864" rx="10.1406" ry="10.5068" fill="url(#paint21_diamond_34_98)"/>
<ellipse cx="764.523" cy="314.274" rx="10.1406" ry="10.5068" fill="url(#paint22_diamond_34_98)"/>
<ellipse cx="367.484" cy="166.968" rx="10.1406" ry="10.5068" fill="url(#paint23_diamond_34_98)"/>
<ellipse cx="562.455" cy="289.759" rx="10.1406" ry="10.5068" fill="url(#paint24_diamond_34_98)"/>
<ellipse cx="127.018" cy="131.176" rx="10.1406" ry="10.5068" fill="url(#paint25_diamond_34_98)"/>
<ellipse cx="286.834" cy="354.2" rx="10.1406" ry="10.5068" fill="url(#paint26_diamond_34_98)"/>
<defs>
<filter id="filter0_d_34_98" x="102.996" y="444.562" width="919.004" height="1057.44" filterUnits="userSpaceOnUse" color-interpolation-filters="sRGB">
<feFlood flood-opacity="0" result="BackgroundImageFix"/>
<feColorMatrix in="SourceAlpha" type="matrix" values="0 0 0 0 0 0 0 0 0 0 0 0 0 0 0 0 0 0 127 0" result="hardAlpha"/>
<feOffset dy="4"/>
<feGaussianBlur stdDeviation="2"/>
<feComposite in2="hardAlpha" operator="out"/>
<feColorMatrix type="matrix" values="0 0 0 0 0 0 0 0 0 0 0 0 0 0 0 0 0 0 0.25 0"/>
<feBlend mode="normal" in2="BackgroundImageFix" result="effect1_dropShadow_34_98"/>
<feBlend mode="normal" in="SourceGraphic" in2="effect1_dropShadow_34_98" result="shape"/>
</filter>
<linearGradient id="paint0_linear_34_98" x1="613.733" y1="8" x2="613.733" y2="406.594" gradientUnits="userSpaceOnUse">
<stop stop-color="#0091B1"/>
<stop offset="1" stop-color="#0AEBDD"/>
</linearGradient>
<linearGradient id="paint1_linear_34_98" x1="204.002" y1="65.8574" x2="204.002" y2="476.394" gradientUnits="userSpaceOnUse">
<stop stop-color="#0091B1"/>
<stop offset="1" stop-color="#0AEBDD"/>
</linearGradient>
<linearGradient id="paint2_linear_34_98" x1="562.455" y1="454.436" x2="562.455" y2="1484" gradientUnits="userSpaceOnUse">
<stop stop-color="#0091B1"/>
<stop offset="1" stop-color="#0AEBDD"/>
</linearGradient>
<linearGradient id="paint3_linear_34_98" x1="170.503" y1="449.183" x2="170.503" y2="1111.36" gradientUnits="userSpaceOnUse">
<stop stop-color="#0091B1"/>
<stop offset="1" stop-color="#0AEBDD"/>
</linearGradient>
<linearGradient id="paint4_linear_34_98" x1="640.25" y1="234.668" x2="640.25" y2="623.281" gradientUnits="userSpaceOnUse">
<stop stop-color="#0091B1"/>
<stop offset="1" stop-color="#0AEBDD"/>
</linearGradient>
<radialGradient id="paint5_diamond_34_98" cx="0" cy="0" r="1" gradientUnits="userSpaceOnUse" gradientTransform="translate(85.847 649.232) rotate(90) scale(14.0091 13.5208)">
<stop stop-color="#0288C9"/>
<stop offset="1" stop-color="#59DDFA"/>
</radialGradient>
<radialGradient id="paint6_diamond_34_98" cx="0" cy="0" r="1" gradientUnits="userSpaceOnUse" gradientTransform="translate(85.847 847.81) rotate(90) scale(14.0091 13.5208)">
<stop stop-color="#0288C9"/>
<stop offset="1" stop-color="#59DDFA"/>
</radialGradient>
<radialGradient id="paint7_diamond_34_98" cx="0" cy="0" r="1" gradientUnits="userSpaceOnUse" gradientTransform="translate(190.497 546.124) rotate(90) scale(14.0091 13.5208)">
<stop stop-color="#0288C9"/>
<stop offset="1" stop-color="#59DDFA"/>
</radialGradient>
<radialGradient id="paint8_diamond_34_98" cx="0" cy="0" r="1" gradientUnits="userSpaceOnUse" gradientTransform="translate(518.647 890.539) rotate(90) scale(17.5114 16.901)">
<stop stop-color="white"/>
<stop offset="0.5" stop-color="#93E5F7"/>
<stop offset="1" stop-color="#25A7C4"/>
</radialGradient>
<radialGradient id="paint9_diamond_34_98" cx="0" cy="0" r="1" gradientUnits="userSpaceOnUse" gradientTransform="translate(518.647 890.539) rotate(90) scale(17.5114 16.901)">
<stop stop-color="white"/>
<stop offset="0.5" stop-color="#93E5F7"/>
<stop offset="1" stop-color="#25A7C4"/>
</radialGradient>
<radialGradient id="paint10_diamond_34_98" cx="0" cy="0" r="1" gradientUnits="userSpaceOnUse" gradientTransform="translate(516.755 1291.27) rotate(90) scale(17.5114 16.901)">
<stop stop-color="white"/>
<stop offset="0.5" stop-color="#93E5F7"/>
<stop offset="1" stop-color="#25A7C4"/>
</radialGradient>
<radialGradient id="paint11_diamond_34_98" cx="0" cy="0" r="1" gradientUnits="userSpaceOnUse" gradientTransform="translate(269.391 1053.89) rotate(90) scale(17.5114 16.901)">
<stop stop-color="white"/>
<stop offset="0.5" stop-color="#93E5F7"/>
<stop offset="1" stop-color="#25A7C4"/>
</radialGradient>
<radialGradient id="paint12_diamond_34_98" cx="0" cy="0" r="1" gradientUnits="userSpaceOnUse" gradientTransform="translate(286.292 780.287) rotate(90) scale(17.5114 16.901)">
<stop stop-color="white"/>
<stop offset="0.5" stop-color="#93E5F7"/>
<stop offset="1" stop-color="#25A7C4"/>
</radialGradient>
<radialGradient id="paint13_diamond_34_98" cx="0" cy="0" r="1" gradientUnits="userSpaceOnUse" gradientTransform="translate(782.979 721.799) rotate(90) scale(17.5114 16.901)">
<stop stop-color="white"/>
<stop offset="0.5" stop-color="#93E5F7"/>
<stop offset="1" stop-color="#25A7C4"/>
</radialGradient>
<radialGradient id="paint14_diamond_34_98" cx="0" cy="0" r="1" gradientUnits="userSpaceOnUse" gradientTransform="translate(683.669 1291.27) rotate(90) scale(17.5114 16.901)">
<stop stop-color="white"/>
<stop offset="0.5" stop-color="#93E5F7"/>
<stop offset="1" stop-color="#25A7C4"/>
</radialGradient>
<radialGradient id="paint15_diamond_34_98" cx="0" cy="0" r="1" gradientUnits="userSpaceOnUse" gradientTransform="translate(511.887 521.608) rotate(90) scale(10.5068 10.1406)">
<stop stop-color="#0288C9"/>
<stop offset="1" stop-color="#59DDFA"/>
</radialGradient>
<radialGradient id="paint16_diamond_34_98" cx="0" cy="0" r="1" gradientUnits="userSpaceOnUse" gradientTransform="translate(387.766 406.594) rotate(90) scale(10.5068 10.1406)">
<stop stop-color="#0288C9"/>
<stop offset="1" stop-color="#59DDFA"/>
</radialGradient>
<radialGradient id="paint17_diamond_34_98" cx="0" cy="0" r="1" gradientUnits="userSpaceOnUse" gradientTransform="translate(808.467 110.161) rotate(90) scale(10.5068 10.1406)">
<stop stop-color="#0288C9"/>
<stop offset="1" stop-color="#59DDFA"/>
</radialGradient>
<radialGradient id="paint18_diamond_34_98" cx="0" cy="0" r="1" gradientUnits="userSpaceOnUse" gradientTransform="translate(701.449 120.669) rotate(90) scale(10.5068 10.1406)">
<stop stop-color="#0288C9"/>
<stop offset="1" stop-color="#59DDFA"/>
</radialGradient>
<radialGradient id="paint19_diamond_34_98" cx="0" cy="0" r="1" gradientUnits="userSpaceOnUse" gradientTransform="translate(472.678 166.968) rotate(90) scale(10.5068 10.1406)">
<stop stop-color="#0288C9"/>
<stop offset="1" stop-color="#59DDFA"/>
</radialGradient>
<radialGradient id="paint20_diamond_34_98" cx="0" cy="0" r="1" gradientUnits="userSpaceOnUse" gradientTransform="translate(356.939 549.628) rotate(90) scale(10.5068 10.1406)">
<stop stop-color="#0288C9"/>
<stop offset="1" stop-color="#59DDFA"/>
</radialGradient>
<radialGradient id="paint21_diamond_34_98" cx="0" cy="0" r="1" gradientUnits="userSpaceOnUse" gradientTransform="translate(836.656 251.864) rotate(90) scale(10.5068 10.1406)">
<stop stop-color="#0288C9"/>
<stop offset="1" stop-color="#59DDFA"/>
</radialGradient>
<radialGradient id="paint22_diamond_34_98" cx="0" cy="0" r="1" gradientUnits="userSpaceOnUse" gradientTransform="translate(764.523 314.274) rotate(90) scale(10.5068 10.1406)">
<stop stop-color="#0288C9"/>
<stop offset="1" stop-color="#59DDFA"/>
</radialGradient>
<radialGradient id="paint23_diamond_34_98" cx="0" cy="0" r="1" gradientUnits="userSpaceOnUse" gradientTransform="translate(367.484 166.968) rotate(90) scale(10.5068 10.1406)">
<stop stop-color="#0288C9"/>
<stop offset="1" stop-color="#59DDFA"/>
</radialGradient>
<radialGradient id="paint24_diamond_34_98" cx="0" cy="0" r="1" gradientUnits="userSpaceOnUse" gradientTransform="translate(562.455 289.759) rotate(90) scale(10.5068 10.1406)">
<stop stop-color="#0288C9"/>
<stop offset="1" stop-color="#59DDFA"/>
</radialGradient>
<radialGradient id="paint25_diamond_34_98" cx="0" cy="0" r="1" gradientUnits="userSpaceOnUse" gradientTransform="translate(127.018 131.176) rotate(90) scale(10.5068 10.1406)">
<stop stop-color="#0288C9"/>
<stop offset="1" stop-color="#59DDFA"/>
</radialGradient>
<radialGradient id="paint26_diamond_34_98" cx="0" cy="0" r="1" gradientUnits="userSpaceOnUse" gradientTransform="translate(286.834 354.2) rotate(90) scale(10.5068 10.1406)">
<stop stop-color="#0288C9"/>
<stop offset="1" stop-color="#59DDFA"/>
</radialGradient>
</defs>
</svg>
