<svg width="799" height="1096" viewBox="0 0 799 1096" fill="none" xmlns="http://www.w3.org/2000/svg">
<path d="M282.383 105.215L308.043 85.1068L331.629 66.3188L361.438 52.9134L403.067 44.865M403.067 44.865V8M403.067 44.865L455.07 162.874M403.067 44.865L473.471 93.4075M403.067 44.865L384.682 86.4397M403.067 8H471.013V24.7568L464.788 48.2164M403.067 8L464.788 48.2164M464.788 48.2164L484.197 52.9134M484.197 52.9134L500.166 62.3074L507.1 66.3188L521.65 48.2164M484.197 52.9134L473.471 93.4075M521.65 48.2164L532.051 34.1508V8M521.65 48.2164L593.089 30.7994M521.65 48.2164L548.702 89.8038M532.051 8H593.089V30.7994M532.051 8L570.895 66.3188M593.089 30.7994L582.005 48.2164L570.895 66.3188M570.895 66.3188L548.702 89.8038M548.702 89.8038L570.895 109.912M548.702 89.8038L464.788 166.885M548.702 89.8038L464.271 128.141M570.895 109.912L575.754 80.4098L586.155 56.9503M570.895 109.912L631.731 82.1202M570.895 109.912L464.788 166.885M586.155 56.9503L597.265 44.865H626.392M586.155 56.9503L631.731 82.1202M626.392 44.865L645.801 52.9134L665.21 66.3188L665.566 66.6631M626.392 44.865L631.731 82.1202M686.038 99.1724L679.787 80.4098L665.566 66.6631M686.038 99.1724V117.275L679.787 140.074M686.038 99.1724L639.269 134.717M679.787 140.074L669.386 158.177L645.801 180.291L639.269 134.717M679.787 140.074L639.269 134.717M665.566 66.6631L631.731 82.1202M586.155 52.9134L548.702 197.073M548.702 197.073L631.731 82.1202M548.702 197.073L464.788 166.885M631.731 82.1202L639.269 134.717M487.664 194.382L475.189 176.279L464.788 166.885M464.788 166.885L455.07 162.874M455.07 162.874H439.811H429.41L414.86 176.279L404.172 187.83M455.07 162.874L464.271 128.141M455.07 162.874L368.303 123.479M404.172 187.83L403.067 189.025L395.424 197.073L389.883 215.175V222.538L271.273 258.083L299.035 296.954L276.841 201.084L331.629 195.382M404.172 187.83L331.629 195.382M404.172 187.83L366.297 128.014M331.629 195.382L288.608 128.014H366.297M366.297 128.014L331.629 62.3074L384.682 86.4397M366.297 128.014L368.303 123.479M473.471 93.4075L464.271 128.141M384.682 86.4397L368.303 123.479" stroke="url(#paint0_linear_60_56)" stroke-width="15" stroke-linecap="round" stroke-linejoin="bevel"/>
<path d="M185.284 325.313L176.958 285.046M176.958 285.046L163.616 249.628L136.984 222.258M176.958 285.046L295.226 293.094L268.568 259.276M176.958 285.046L260.977 343.593M176.958 285.046L222.763 260.888M136.984 222.258L90.3389 190.04M136.984 222.258L222.763 260.888M136.984 222.258L208.607 151.397M90.3389 190.04L55.355 173.943M90.3389 190.04L47.0293 72.4879M90.3389 190.04L158.127 198.748M55.355 173.943L37.0226 151.397M55.355 173.943L185.284 114.355M37.0226 151.397L25.3613 114.355M37.0226 151.397L130.313 64.4396M25.3613 114.355L47.0293 72.4879M25.3613 114.355L163.616 88.5846M47.0293 72.4879L90.3389 59.6156M90.3389 59.6156L130.313 64.4396M90.3389 59.6156L158.127 198.748M130.313 64.4396L163.616 88.5846M163.616 88.5846L185.284 114.355M185.284 114.355L208.607 151.397M185.284 114.355L212.208 205.696M208.607 151.397V114.355M208.607 151.397L215.685 206.143M208.607 151.397L268.568 88.5846M208.607 151.397H274.687M208.607 114.355L231.929 49.9424M208.607 114.355L290.236 127.252M231.929 49.9424L268.568 88.5846M231.929 49.9424L274.687 151.397M268.568 88.5846L290.236 127.252M290.236 127.252C288.021 120.27 282.588 115.324 278.574 151.397M278.574 151.397C274.561 187.47 270.231 223.316 268.568 236.73M278.574 151.397L222.763 260.888M278.574 151.397H274.687M268.568 236.73V259.276M268.568 236.73L222.763 260.888M268.568 259.276L256.88 347.554M222.763 260.888L215.685 206.143M215.685 206.143L212.208 205.696M212.208 205.696L158.127 198.748" stroke="url(#paint1_linear_60_56)" stroke-width="15" stroke-linecap="round" stroke-linejoin="bevel"/>
<g filter="url(#filter0_d_60_56)">
<path d="M219.926 935.389L169.367 869.124L128.053 806.336L126.392 801.152M219.926 935.389L290.104 1000.94M219.926 935.389L213.99 766.349M290.104 1000.94L373.387 1048.09L374.569 1048.5M290.104 1000.94L213.99 766.349M290.104 1000.94L400.755 935.389M511.379 1078L555.398 1060.76M511.379 1078H464.997M511.379 1078L525.667 935.389M555.398 1060.76L598.235 1020.49M555.398 1060.76L400.755 935.389M598.235 1020.49L638.682 973.346M598.235 1020.49L525.667 935.389M638.682 973.346L674.375 910.102M638.682 973.346L525.667 935.389M674.375 910.102L706.496 848M674.375 910.102L537.565 773.254M706.496 848L725.538 806.336M706.496 848L525.667 935.389M725.538 806.336L743.371 755.99M725.538 806.336L537.565 773.254M743.371 755.99L762.104 691.008M743.371 755.99L630.356 719.199M763.594 685.84L777.882 622.595L785 574.305V539.801M763.594 685.84L606.561 523.954M763.594 685.84L762.104 691.008M598.235 331.636L681.519 361.544L719.576 393.738L743.371 429.384L746.213 434.382M598.235 331.636L539.929 341.995L470.933 331.636M598.235 331.636L606.561 523.954M470.933 331.636L437.63 351.185L400.755 393.738M470.933 331.636L606.561 523.954M470.933 331.636L452.761 417.908M400.755 393.738L374.569 429.384L363.88 458.15M400.755 393.738L452.761 417.908M363.88 458.15H312.717M363.88 458.15L452.761 417.908M363.88 458.15L213.99 766.349M312.717 458.15L260.372 443.196L235.395 405.239V393.738L246.111 373.045L213.99 377.641M312.717 458.15L225.888 565.089M213.99 377.641L192.558 386.857L181.869 411.002V452.386L156.865 486.89M213.99 377.641L225.888 565.089M156.865 486.89L140.214 517.941L128.053 548.992L111.665 582.353L99.7669 622.595M156.865 486.89L225.888 565.089M99.7669 622.595L92.623 667.458M99.7669 622.595L225.888 565.089M92.623 667.458L99.7669 718.058M92.623 667.458L213.99 766.349M99.7669 718.058L126.392 801.152M99.7669 718.058L213.99 766.349M126.392 801.152L213.99 766.349M213.99 766.349L400.755 644.455M213.99 766.349L225.888 565.089M400.755 935.389L374.569 1048.5M400.755 935.389L464.997 1078M400.755 935.389L537.565 773.254M400.755 935.389V655.957M374.569 1048.5L459.035 1078H464.997M537.565 773.254L404.333 647.824M400.755 644.455L404.333 647.824M400.755 644.455V655.957M400.755 644.455L630.356 719.199M404.333 647.824L452.761 417.908M746.213 434.382L769.53 475.389L785 534.038V539.801M746.213 434.382L606.561 523.954M400.755 655.957L606.561 523.954M785 539.801L606.561 523.954M606.561 523.954L630.356 719.199M762.104 691.008L630.356 719.199" stroke="url(#paint2_linear_60_56)" stroke-width="20" stroke-linecap="round" stroke-linejoin="bevel" shape-rendering="crispEdges"/>
</g>
<path d="M126.793 807.86L101.527 778.941M101.527 778.941V734.637L62.2618 718.363M101.527 778.941L63.1547 719.74M62.2618 718.363L63.1547 719.74M62.2618 718.363L63.1547 613.506M31.4014 658.698L63.1547 719.74M31.4014 658.698L63.1547 613.506M31.4014 658.698L14.566 606.27M63.1547 719.74L92.1768 674.973L63.1547 613.506M63.1547 613.506L115.552 571.004L65.5346 476.074M63.1547 613.506L14.566 606.27M63.1547 613.506L8 513.142M14.566 606.27L151.087 495.065M14.566 606.27L8 513.142M151.087 495.065L14.566 512.313M151.087 495.065V402.852M8 513.142L14.566 463.431L38.8604 425.448M8 513.142L14.566 512.313M38.8604 425.448L65.5346 476.074M38.8604 425.448L63.1547 390.208M65.5346 476.074L14.566 512.313M65.5346 476.074L63.1547 390.208M65.5346 476.074L151.087 402.852M63.1547 390.208L151.087 402.852M151.087 402.852L92.1768 357.659M151.087 402.852L191.324 390.208L186.623 327.827M151.087 402.852L186.623 327.827M151.087 402.852L130.522 338.668M65.5346 390.208L92.1768 357.659M92.1768 357.659L130.522 338.668M186.623 327.827H151.087L130.522 338.668M186.623 327.827H220.294L260.53 347.707L245.56 374.822L186.623 327.827Z" stroke="url(#paint3_linear_60_56)" stroke-width="15" stroke-linecap="round" stroke-linejoin="bevel"/>
<path d="M750.14 237.644C750.14 254.881 746.331 270.238 740.423 281.107C734.41 292.169 726.93 297.488 719.893 297.488C712.856 297.488 705.376 292.169 699.363 281.107C693.455 270.238 689.646 254.881 689.646 237.644C689.646 220.407 693.455 205.049 699.363 194.18C705.376 183.118 712.856 177.8 719.893 177.8C726.93 177.8 734.41 183.118 740.423 194.18C746.331 205.049 750.14 220.407 750.14 237.644Z" stroke="#03B4F2" stroke-width="10"/>
<path d="M246.111 375.585L274.687 400.999M274.687 400.999L307.832 454.037L376.408 423.113L274.687 400.999ZM274.687 400.999L472.404 328.082M274.687 400.999L297.537 305.993M297.537 305.993L257.536 344.661L399.258 388.863M297.537 305.993L331.838 268.443M297.537 305.993L362.672 314.221M331.838 268.443L362.672 246.329M331.838 268.443L362.672 314.221M362.672 246.329L399.258 222.031M362.672 246.329L399.258 383.328V222.031M399.258 222.031L435.818 208.07M442.673 205.452L491.839 197.734H544.394M442.673 205.452L435.818 208.07M442.673 205.452L523.829 305.993M442.673 205.452L590.12 230.867M544.394 197.734L601.545 189.99L646.115 183.364L715.82 172.319M544.394 197.734L590.12 230.867M715.82 172.319L688.4 222.031M715.82 172.319L646.115 230.867M715.82 172.319L752.406 222.031L705.551 286.113M688.4 222.031L745.551 268.443L705.551 286.113M688.4 222.031L646.115 230.867M705.551 286.113V299.367M705.551 299.367H678.105M705.551 299.367L646.115 230.867M678.105 299.367H646.115L611.814 292.74M678.105 299.367L590.12 230.867M611.814 292.74L567.244 299.367L523.829 305.993M611.814 292.74L590.12 230.867M523.829 305.993L486.114 317.037L472.404 328.082M523.829 305.993L590.12 230.867M472.404 328.082L362.672 314.221M472.404 328.082L435.818 208.07M362.672 314.221L435.818 208.07M590.12 230.867L646.115 189.99M590.12 230.867H646.115" stroke="url(#paint4_linear_60_56)" stroke-width="15" stroke-linecap="round" stroke-linejoin="bevel"/>
<ellipse cx="68.4881" cy="472.85" rx="10.5057" ry="10.1557" fill="url(#paint5_diamond_60_56)"/>
<ellipse cx="68.4881" cy="616.805" rx="10.5057" ry="10.1557" fill="url(#paint6_diamond_60_56)"/>
<ellipse cx="149.801" cy="398.104" rx="10.5057" ry="10.1557" fill="url(#paint7_diamond_60_56)"/>
<ellipse cx="404.773" cy="647.781" rx="13.1321" ry="12.6946" fill="url(#paint8_diamond_60_56)"/>
<ellipse cx="404.773" cy="647.781" rx="13.1321" ry="12.6946" fill="url(#paint9_diamond_60_56)"/>
<ellipse cx="403.304" cy="938.282" rx="13.1321" ry="12.6946" fill="url(#paint10_diamond_60_56)"/>
<ellipse cx="211.103" cy="766.198" rx="13.1321" ry="12.6946" fill="url(#paint11_diamond_60_56)"/>
<ellipse cx="224.232" cy="567.856" rx="13.1321" ry="12.6946" fill="url(#paint12_diamond_60_56)"/>
<ellipse cx="610.159" cy="525.455" rx="13.1321" ry="12.6946" fill="url(#paint13_diamond_60_56)"/>
<ellipse cx="532.995" cy="938.282" rx="13.1321" ry="12.6946" fill="url(#paint14_diamond_60_56)"/>
<ellipse cx="399.52" cy="380.331" rx="7.87926" ry="7.61674" fill="url(#paint15_diamond_60_56)"/>
<ellipse cx="303.078" cy="296.954" rx="7.87926" ry="7.61674" fill="url(#paint16_diamond_60_56)"/>
<ellipse cx="629.965" cy="82.0601" rx="7.87926" ry="7.61674" fill="url(#paint17_diamond_60_56)"/>
<ellipse cx="546.811" cy="89.6773" rx="7.87926" ry="7.61674" fill="url(#paint18_diamond_60_56)"/>
<ellipse cx="369.057" cy="123.241" rx="7.87926" ry="7.61674" fill="url(#paint19_diamond_60_56)"/>
<ellipse cx="279.127" cy="400.644" rx="7.87926" ry="7.61674" fill="url(#paint20_diamond_60_56)"/>
<ellipse cx="651.866" cy="184.785" rx="7.87926" ry="7.61674" fill="url(#paint21_diamond_60_56)"/>
<ellipse cx="595.819" cy="230.028" rx="7.87926" ry="7.61674" fill="url(#paint22_diamond_60_56)"/>
<ellipse cx="287.319" cy="123.241" rx="7.87926" ry="7.61674" fill="url(#paint23_diamond_60_56)"/>
<ellipse cx="438.813" cy="212.255" rx="7.87926" ry="7.61674" fill="url(#paint24_diamond_60_56)"/>
<ellipse cx="100.479" cy="97.2945" rx="7.87926" ry="7.61674" fill="url(#paint25_diamond_60_56)"/>
<ellipse cx="224.655" cy="258.971" rx="7.87926" ry="7.61674" fill="url(#paint26_diamond_60_56)"/>
<defs>
<filter id="filter0_d_60_56" x="78.7207" y="321.746" width="720.279" height="774.254" filterUnits="userSpaceOnUse" color-interpolation-filters="sRGB">
<feFlood flood-opacity="0" result="BackgroundImageFix"/>
<feColorMatrix in="SourceAlpha" type="matrix" values="0 0 0 0 0 0 0 0 0 0 0 0 0 0 0 0 0 0 127 0" result="hardAlpha"/>
<feOffset dy="4"/>
<feGaussianBlur stdDeviation="2"/>
<feComposite in2="hardAlpha" operator="out"/>
<feColorMatrix type="matrix" values="0 0 0 0 0 0 0 0 0 0 0 0 0 0 0 0 0 0 0.25 0"/>
<feBlend mode="normal" in2="BackgroundImageFix" result="effect1_dropShadow_60_56"/>
<feBlend mode="normal" in="SourceGraphic" in2="effect1_dropShadow_60_56" result="shape"/>
</filter>
<linearGradient id="paint0_linear_60_56" x1="478.656" y1="8" x2="478.656" y2="296.954" gradientUnits="userSpaceOnUse">
<stop stop-color="#0091B1"/>
<stop offset="1" stop-color="#0AEBDD"/>
</linearGradient>
<linearGradient id="paint1_linear_60_56" x1="160.294" y1="49.9424" x2="160.294" y2="347.554" gradientUnits="userSpaceOnUse">
<stop stop-color="#0091B1"/>
<stop offset="1" stop-color="#0AEBDD"/>
</linearGradient>
<linearGradient id="paint2_linear_60_56" x1="438.811" y1="331.636" x2="438.811" y2="1078" gradientUnits="userSpaceOnUse">
<stop stop-color="#0091B1"/>
<stop offset="1" stop-color="#0AEBDD"/>
</linearGradient>
<linearGradient id="paint3_linear_60_56" x1="134.265" y1="327.827" x2="134.265" y2="807.86" gradientUnits="userSpaceOnUse">
<stop stop-color="#0091B1"/>
<stop offset="1" stop-color="#0AEBDD"/>
</linearGradient>
<linearGradient id="paint4_linear_60_56" x1="499.259" y1="172.319" x2="499.259" y2="454.037" gradientUnits="userSpaceOnUse">
<stop stop-color="#0091B1"/>
<stop offset="1" stop-color="#0AEBDD"/>
</linearGradient>
<radialGradient id="paint5_diamond_60_56" cx="0" cy="0" r="1" gradientUnits="userSpaceOnUse" gradientTransform="translate(68.4881 472.85) rotate(90) scale(10.1557 10.5057)">
<stop stop-color="#0288C9"/>
<stop offset="1" stop-color="#59DDFA"/>
</radialGradient>
<radialGradient id="paint6_diamond_60_56" cx="0" cy="0" r="1" gradientUnits="userSpaceOnUse" gradientTransform="translate(68.4881 616.805) rotate(90) scale(10.1557 10.5057)">
<stop stop-color="#0288C9"/>
<stop offset="1" stop-color="#59DDFA"/>
</radialGradient>
<radialGradient id="paint7_diamond_60_56" cx="0" cy="0" r="1" gradientUnits="userSpaceOnUse" gradientTransform="translate(149.801 398.104) rotate(90) scale(10.1557 10.5057)">
<stop stop-color="#0288C9"/>
<stop offset="1" stop-color="#59DDFA"/>
</radialGradient>
<radialGradient id="paint8_diamond_60_56" cx="0" cy="0" r="1" gradientUnits="userSpaceOnUse" gradientTransform="translate(404.773 647.781) rotate(90) scale(12.6946 13.1321)">
<stop stop-color="white"/>
<stop offset="0.5" stop-color="#93E5F7"/>
<stop offset="1" stop-color="#25A7C4"/>
</radialGradient>
<radialGradient id="paint9_diamond_60_56" cx="0" cy="0" r="1" gradientUnits="userSpaceOnUse" gradientTransform="translate(404.773 647.781) rotate(90) scale(12.6946 13.1321)">
<stop stop-color="white"/>
<stop offset="0.5" stop-color="#93E5F7"/>
<stop offset="1" stop-color="#25A7C4"/>
</radialGradient>
<radialGradient id="paint10_diamond_60_56" cx="0" cy="0" r="1" gradientUnits="userSpaceOnUse" gradientTransform="translate(403.304 938.282) rotate(90) scale(12.6946 13.1321)">
<stop stop-color="white"/>
<stop offset="0.5" stop-color="#93E5F7"/>
<stop offset="1" stop-color="#25A7C4"/>
</radialGradient>
<radialGradient id="paint11_diamond_60_56" cx="0" cy="0" r="1" gradientUnits="userSpaceOnUse" gradientTransform="translate(211.103 766.197) rotate(90) scale(12.6946 13.1321)">
<stop stop-color="white"/>
<stop offset="0.5" stop-color="#93E5F7"/>
<stop offset="1" stop-color="#25A7C4"/>
</radialGradient>
<radialGradient id="paint12_diamond_60_56" cx="0" cy="0" r="1" gradientUnits="userSpaceOnUse" gradientTransform="translate(224.232 567.856) rotate(90) scale(12.6946 13.1321)">
<stop stop-color="white"/>
<stop offset="0.5" stop-color="#93E5F7"/>
<stop offset="1" stop-color="#25A7C4"/>
</radialGradient>
<radialGradient id="paint13_diamond_60_56" cx="0" cy="0" r="1" gradientUnits="userSpaceOnUse" gradientTransform="translate(610.159 525.455) rotate(90) scale(12.6946 13.1321)">
<stop stop-color="white"/>
<stop offset="0.5" stop-color="#93E5F7"/>
<stop offset="1" stop-color="#25A7C4"/>
</radialGradient>
<radialGradient id="paint14_diamond_60_56" cx="0" cy="0" r="1" gradientUnits="userSpaceOnUse" gradientTransform="translate(532.995 938.282) rotate(90) scale(12.6946 13.1321)">
<stop stop-color="white"/>
<stop offset="0.5" stop-color="#93E5F7"/>
<stop offset="1" stop-color="#25A7C4"/>
</radialGradient>
<radialGradient id="paint15_diamond_60_56" cx="0" cy="0" r="1" gradientUnits="userSpaceOnUse" gradientTransform="translate(399.52 380.331) rotate(90) scale(7.61674 7.87926)">
<stop stop-color="#0288C9"/>
<stop offset="1" stop-color="#59DDFA"/>
</radialGradient>
<radialGradient id="paint16_diamond_60_56" cx="0" cy="0" r="1" gradientUnits="userSpaceOnUse" gradientTransform="translate(303.078 296.954) rotate(90) scale(7.61674 7.87926)">
<stop stop-color="#0288C9"/>
<stop offset="1" stop-color="#59DDFA"/>
</radialGradient>
<radialGradient id="paint17_diamond_60_56" cx="0" cy="0" r="1" gradientUnits="userSpaceOnUse" gradientTransform="translate(629.965 82.0601) rotate(90) scale(7.61674 7.87926)">
<stop stop-color="#0288C9"/>
<stop offset="1" stop-color="#59DDFA"/>
</radialGradient>
<radialGradient id="paint18_diamond_60_56" cx="0" cy="0" r="1" gradientUnits="userSpaceOnUse" gradientTransform="translate(546.811 89.6773) rotate(90) scale(7.61674 7.87926)">
<stop stop-color="#0288C9"/>
<stop offset="1" stop-color="#59DDFA"/>
</radialGradient>
<radialGradient id="paint19_diamond_60_56" cx="0" cy="0" r="1" gradientUnits="userSpaceOnUse" gradientTransform="translate(369.057 123.241) rotate(90) scale(7.61674 7.87926)">
<stop stop-color="#0288C9"/>
<stop offset="1" stop-color="#59DDFA"/>
</radialGradient>
<radialGradient id="paint20_diamond_60_56" cx="0" cy="0" r="1" gradientUnits="userSpaceOnUse" gradientTransform="translate(279.127 400.644) rotate(90) scale(7.61674 7.87926)">
<stop stop-color="#0288C9"/>
<stop offset="1" stop-color="#59DDFA"/>
</radialGradient>
<radialGradient id="paint21_diamond_60_56" cx="0" cy="0" r="1" gradientUnits="userSpaceOnUse" gradientTransform="translate(651.866 184.785) rotate(90) scale(7.61674 7.87926)">
<stop stop-color="#0288C9"/>
<stop offset="1" stop-color="#59DDFA"/>
</radialGradient>
<radialGradient id="paint22_diamond_60_56" cx="0" cy="0" r="1" gradientUnits="userSpaceOnUse" gradientTransform="translate(595.819 230.028) rotate(90) scale(7.61674 7.87926)">
<stop stop-color="#0288C9"/>
<stop offset="1" stop-color="#59DDFA"/>
</radialGradient>
<radialGradient id="paint23_diamond_60_56" cx="0" cy="0" r="1" gradientUnits="userSpaceOnUse" gradientTransform="translate(287.319 123.241) rotate(90) scale(7.61674 7.87926)">
<stop stop-color="#0288C9"/>
<stop offset="1" stop-color="#59DDFA"/>
</radialGradient>
<radialGradient id="paint24_diamond_60_56" cx="0" cy="0" r="1" gradientUnits="userSpaceOnUse" gradientTransform="translate(438.813 212.255) rotate(90) scale(7.61674 7.87926)">
<stop stop-color="#0288C9"/>
<stop offset="1" stop-color="#59DDFA"/>
</radialGradient>
<radialGradient id="paint25_diamond_60_56" cx="0" cy="0" r="1" gradientUnits="userSpaceOnUse" gradientTransform="translate(100.479 97.2945) rotate(90) scale(7.61674 7.87926)">
<stop stop-color="#0288C9"/>
<stop offset="1" stop-color="#59DDFA"/>
</radialGradient>
<radialGradient id="paint26_diamond_60_56" cx="0" cy="0" r="1" gradientUnits="userSpaceOnUse" gradientTransform="translate(224.655 258.971) rotate(90) scale(7.61674 7.87926)">
<stop stop-color="#0288C9"/>
<stop offset="1" stop-color="#59DDFA"/>
</radialGradient>
</defs>
</svg>
