<svg width="1700" height="1700" viewBox="0 0 1700 1700" fill="none" xmlns="http://www.w3.org/2000/svg">
<path d="M1015.18 574.834V556.997V547.042M1015.18 574.834L1010.04 570.478L979.214 551.397L1015.18 547.042M1015.18 574.834L1015.95 580.019M1015.18 547.042L1000.28 536.257L987.948 524.849L975.361 514.064L969.966 497.472L966.37 479.635L969.966 461.798L975.361 444.791L987.948 433.591L1000.28 424.051L1015.44 414.095L1033.16 410.984H1063.73H1075.55L1095.07 416.169L1116.65 424.051L1135.4 433.591L1144.65 440.851L1160.58 452.258L1172.39 465.324L1183.7 479.635L1192.94 491.872L1201.16 506.598L1209.13 524.849L1214.01 536.257L1219.4 553.886L1223 580.019V620.048L1219.4 640.581L1214.01 657.796L1205.27 673.558L1195.26 689.114L1181.13 704.876L1171.88 714.417L1158.01 727.898L1141.31 737.854L1126.15 745.113L1103.55 750.92H1071.95L1051.91 742.624L1037.53 735.572L1026.74 723.958L1015.18 711.306L1006.7 699.484L1000.28 686.625L996.939 675.632V654.27L1006.7 638.507M1015.95 580.019L1018 593.915L1022.37 611.337L1020.84 614.033M1015.95 580.019L947.617 544.345L929.728 538.743L917.818 531.694L895.692 514.064M1020.84 614.033L1010.04 633.115L1006.7 638.507M1020.84 614.033L1006.7 603.87M1006.7 603.87L992.829 600.137L935.03 576.908M1006.7 603.87L999.508 611.337M935.03 576.908L992.829 611.337L1002.85 620.048L1010.04 624.818L1006.7 638.507M935.03 576.908L947.617 583.13L956.608 591.841M935.03 576.908L925.525 570.478L912.424 565.708L901.121 558.864M985.324 617.559L980.499 623.574L973.049 630.626L968.682 640.996L965.599 648.048L962.26 659.455V681.232V695.958L965.599 707.987L969.966 722.921L973.82 735.572L979.985 753.616L986.407 766.061L993.086 784.52L1000.54 804.016L1003.36 818.741L1007.47 832.845L1013.12 854.208L1014.92 871.007L1019.29 896.933L1020.32 918.503V937.169V958.117V976.576V999.391L1016.98 1015.57L1014.66 1031.33L1010.3 1050.2L1003.36 1073.85L997.71 1097.91L992.572 1115.54L981.269 1137.73L973.563 1152.46L962.003 1174.23L948.645 1183.77L962.003 1188.75L973.563 1197.46L981.269 1204.31L988.976 1212.81L994.114 1222.97L997.967 1235.62V1250.35L994.114 1263.62L988.976 1276.28L978.957 1291.83L962.003 1308.42L943.25 1320.25L927.837 1330.2L906.258 1337.25L885.451 1345.76L871.322 1354.47L862.845 1363.59L856.422 1374.17" stroke="url(#paint0_linear_140_919)" stroke-width="20" stroke-linecap="round"/>
<path d="M684.05 636.641L733.116 608.849L761.887 599.93L795.448 582.615" stroke="url(#paint1_linear_140_919)" stroke-width="15" stroke-linecap="round"/>
<path d="M790.934 769.586C790.934 775.109 795.411 779.586 800.934 779.586C806.456 779.586 810.934 775.109 810.934 769.586H790.934ZM836.945 599.801L846.943 599.973L847.162 587.284L834.774 590.039L836.945 599.801ZM823.817 781.444C823.721 786.966 828.121 791.519 833.643 791.614C839.165 791.709 843.718 787.31 843.814 781.788L823.817 781.444ZM774.731 613.618L772.567 603.855L770.789 604.249L769.263 605.245L774.731 613.618ZM757.263 625.026L762.026 633.818L762.387 633.623L762.73 633.398L757.263 625.026ZM736.969 636.018L732.206 627.225L731.562 627.574L730.976 628.013L736.969 636.018ZM688.589 659.746C684.168 663.056 683.267 669.323 686.577 673.744C689.887 678.165 696.154 679.066 700.576 675.756L688.589 659.746ZM754.951 636.018L763.884 631.523L762.753 629.276L760.694 627.831L754.951 636.018ZM761.63 649.292L771.378 647.063L771.108 645.88L770.563 644.797L761.63 649.292ZM764.712 662.773L774.592 661.226L774.538 660.883L774.461 660.544L764.712 662.773ZM767.538 680.817H777.538V680.039L777.418 679.27L767.538 680.817ZM767.538 698.654L777.368 700.489L777.538 699.579V698.654H767.538ZM764.712 713.795L774.482 715.93L774.515 715.78L774.543 715.629L764.712 713.795ZM761.63 727.898L771.12 731.049L771.287 730.549L771.399 730.033L761.63 727.898ZM754.951 748.016L764.156 751.924L764.314 751.551L764.441 751.167L754.951 748.016ZM747.116 766.475L756.12 770.826L756.226 770.607L756.321 770.383L747.116 766.475ZM737.996 785.349L746.811 790.071L746.91 789.887L747 789.7L737.996 785.349ZM729.776 800.697L720.961 795.976L720.815 796.247L720.687 796.528L729.776 800.697ZM722.069 817.497L712.98 813.327L712.766 813.794L712.6 814.281L722.069 817.497ZM713.335 843.215L722.789 846.476L722.796 846.453L722.804 846.431L713.335 843.215ZM707.684 859.6L716.999 863.235L717.072 863.049L717.137 862.861L707.684 859.6ZM701.775 874.74L692.459 871.105L692.184 871.812L692.018 872.553L701.775 874.74ZM696.381 898.799L686.623 896.611L686.581 896.799L686.546 896.989L696.381 898.799ZM690.729 929.495L680.894 927.685L680.803 928.179L680.762 928.68L690.729 929.495ZM688.931 951.48L678.964 950.665L678.931 951.072V951.48H688.931ZM688.931 1015.57H678.931V1016.1L678.988 1016.63L688.931 1015.57ZM694.326 1050L704.189 1048.35L704.159 1048.17L704.124 1048L694.326 1050ZM699.977 1083.8L690.114 1085.45L690.228 1086.14L690.435 1086.8L699.977 1083.8ZM709.996 1115.74L700.454 1118.74L700.669 1119.42L700.98 1120.07L709.996 1115.74ZM717.959 1132.34L708.944 1136.66L709.003 1136.79L709.066 1136.91L717.959 1132.34ZM729.262 1154.32L738.302 1150.05L738.231 1149.9L738.156 1149.75L729.262 1154.32ZM743.391 1184.19L734.351 1188.46L738.267 1196.74L746.855 1193.57L743.391 1184.19ZM767.538 1175.27L765.876 1165.41L764.952 1165.56L764.074 1165.89L767.538 1175.27ZM790.915 1171.33L789.61 1161.41L789.431 1161.44L789.253 1161.47L790.915 1171.33ZM814.549 1168.22V1158.22H813.893L813.243 1158.3L814.549 1168.22ZM885.449 1168.22L886.86 1158.32L886.158 1158.22H885.449V1168.22ZM907.285 1171.33L909.516 1161.58L909.109 1161.49L908.695 1161.43L907.285 1171.33ZM924.496 1175.27L927.736 1165.81L927.24 1165.64L926.728 1165.52L924.496 1175.27ZM941.451 1181.08L938.21 1190.54L942.98 1192.17L947.13 1189.31L941.451 1181.08ZM955.579 1171.33L961.258 1179.56L963.335 1178.13L964.484 1175.88L955.579 1171.33ZM962.258 1158.26L953.703 1153.08L953.517 1153.39L953.354 1153.71L962.258 1158.26ZM973.305 1140.01L981.86 1145.19L982.133 1144.74L982.358 1144.26L973.305 1140.01ZM979.727 1126.32L988.78 1130.57L988.807 1130.51L988.834 1130.45L979.727 1126.32ZM986.406 1111.6L995.513 1115.73L995.746 1115.21L995.92 1114.68L986.406 1111.6ZM992.314 1093.34L1001.83 1096.42L1001.95 1096.04L1002.05 1095.65L992.314 1093.34ZM997.709 1070.53L988.126 1067.67L988.044 1067.95L987.977 1068.23L997.709 1070.53ZM1002.85 1053.32L1012.43 1056.18L1012.58 1055.66L1012.68 1055.13L1002.85 1053.32ZM1007.47 1028.22L1017.3 1030.03L1017.39 1029.57L1017.43 1029.11L1007.47 1028.22ZM1009.53 1005.2L1019.49 1006.09L1019.53 1005.64V1005.2H1009.53ZM1009.53 922.029H1019.53V921.514L1019.47 921.002L1009.53 922.029ZM1007.47 902.118L1017.42 901.091L1017.39 900.871L1017.36 900.653L1007.47 902.118ZM1004.64 883.037L1014.54 881.572L1014.47 881.142L1014.37 880.72L1004.64 883.037ZM1000.79 866.859L990.998 868.881L991.029 869.029L991.064 869.176L1000.79 866.859ZM995.911 843.215L1005.7 841.193L1005.6 840.671L1005.43 840.162L995.911 843.215ZM990.259 825.586L999.782 822.533L999.69 822.248L999.582 821.968L990.259 825.586ZM983.58 808.371L992.903 804.754L992.872 804.673L992.839 804.593L983.58 808.371ZM976.387 790.742L966.908 793.926L967.009 794.226L967.128 794.519L976.387 790.742ZM972.277 778.505L981.757 775.321L981.524 774.627L981.192 773.975L972.277 778.505ZM964.057 762.327L972.972 757.797L972.949 757.753L972.927 757.71L964.057 762.327ZM956.607 748.016L947.474 752.089L947.597 752.365L947.737 752.634L956.607 748.016ZM942.735 716.906L933.182 719.864L933.359 720.433L933.602 720.978L942.735 716.906ZM938.625 703.632L948.177 700.674L948.121 700.493L948.058 700.314L938.625 703.632ZM932.716 686.832L922.744 687.575L922.843 688.898L923.283 690.15L932.716 686.832ZM930.661 659.247H920.661V659.619L920.689 659.99L930.661 659.247ZM930.661 636.018L921.051 633.253L920.661 634.608V636.018H930.661ZM936.57 615.485L928.558 609.501L927.465 610.964L926.96 612.72L936.57 615.485ZM953.593 609.404L959.577 601.392L943.553 589.424L937.569 597.436L953.593 609.404ZM723.611 665.884L732.422 661.155L732.38 661.077L732.337 661L723.611 665.884ZM730.29 678.328L740.076 676.274L739.781 674.867L739.101 673.599L730.29 678.328ZM732.859 690.565H742.859V689.527L742.645 688.511L732.859 690.565ZM732.859 732.668L742.343 735.836L742.859 734.294V732.668H732.859ZM726.693 751.127L717.208 747.959L717.11 748.253L717.031 748.552L726.693 751.127ZM722.326 767.512L731.6 771.252L731.83 770.682L731.989 770.088L722.326 767.512ZM715.133 785.349L724.303 789.339L724.357 789.215L724.408 789.089L715.133 785.349ZM708.454 800.697L699.285 796.707L699.158 796.999L699.049 797.299L708.454 800.697ZM701.261 820.608L691.856 817.21L691.744 817.521L691.653 817.838L701.261 820.608ZM694.326 844.667L684.717 841.897L684.657 842.104L684.606 842.315L694.326 844.667ZM689.958 862.711L680.239 860.359L680.236 860.372L680.232 860.386L689.958 862.711ZM684.307 886.355L674.581 884.03L674.47 884.494L674.404 884.967L684.307 886.355ZM681.224 908.34L671.321 906.951L671.276 907.276L671.252 907.603L681.224 908.34ZM679.169 936.132L669.196 935.395L669.169 935.763V936.132H679.169ZM679.169 995.657H669.169V996.183L669.224 996.706L679.169 995.657ZM682.252 1024.9L672.307 1025.95L672.343 1026.29L672.403 1026.63L682.252 1024.9ZM687.39 1054.15L697.254 1052.5L697.247 1052.46L697.239 1052.41L687.39 1054.15ZM692.014 1081.94L682.149 1083.58L682.256 1084.22L682.446 1084.85L692.014 1081.94ZM702.289 1115.74L692.721 1118.65L692.941 1119.38L693.268 1120.06L702.289 1115.74ZM712.308 1136.69L703.286 1141.01L703.321 1141.08L703.356 1141.15L712.308 1136.69ZM722.326 1156.81L713.375 1161.27L713.433 1161.38L713.493 1161.5L722.326 1156.81ZM738.51 1187.3L744.092 1195.6L751.566 1190.57L747.343 1182.61L738.51 1187.3ZM729.262 1193.52L734.799 1201.85L734.822 1201.83L734.844 1201.82L729.262 1193.52ZM720.528 1199.33L714.991 1191L714.189 1191.53L713.504 1192.21L720.528 1199.33ZM713.592 1206.17L706.568 1199.05L706.31 1199.31L706.07 1199.58L713.592 1206.17ZM706.142 1214.68L698.621 1208.09L697.845 1208.97L697.296 1210.01L706.142 1214.68ZM701.005 1224.42L692.158 1219.76L691.907 1220.24L691.708 1220.74L701.005 1224.42ZM696.894 1234.79L687.598 1231.11L686.894 1232.89V1234.79H696.894ZM696.894 1252.22H686.894V1253.68L687.311 1255.07L696.894 1252.22ZM700.234 1263.42L690.651 1266.27L690.954 1267.29L691.464 1268.22L700.234 1263.42ZM706.142 1274.2L697.372 1279.01L697.61 1279.44L697.89 1279.85L706.142 1274.2ZM716.932 1289.96L708.68 1295.61L709.303 1296.52L710.11 1297.28L716.932 1289.96ZM728.491 1300.75L735.424 1293.54L735.369 1293.49L735.313 1293.44L728.491 1300.75ZM740.565 1312.36L733.632 1319.57L734.298 1320.21L735.069 1320.72L740.565 1312.36ZM754.437 1321.49L748.941 1329.84L749.42 1330.16L749.932 1330.42L754.437 1321.49ZM770.878 1329.79L766.373 1338.71L766.563 1338.81L766.758 1338.9L770.878 1329.79ZM783.722 1335.59L779.602 1344.71L779.946 1344.86L780.301 1344.99L783.722 1335.59ZM796.823 1340.36L802.155 1331.9L801.25 1331.33L800.245 1330.97L796.823 1340.36ZM807.356 1347L802.024 1355.46L802.063 1355.49L802.102 1355.51L807.356 1347ZM816.09 1352.39L822.485 1344.71L821.943 1344.25L821.343 1343.88L816.09 1352.39ZM824.567 1359.44L832.541 1353.41L831.846 1352.49L830.962 1351.76L824.567 1359.44ZM830.219 1366.91L839.462 1363.1L838.97 1361.9L838.192 1360.88L830.219 1366.91ZM824.315 1378.82C826.423 1383.92 832.269 1386.35 837.374 1384.24C842.479 1382.14 844.909 1376.29 842.801 1371.18L824.315 1378.82ZM690.729 1032.37L680.786 1033.43L680.836 1033.9L680.931 1034.37L690.729 1032.37ZM790.934 607.811V769.586H810.934V607.811H790.934ZM803.105 617.572L839.116 609.562L834.774 590.039L798.762 598.05L803.105 617.572ZM826.946 599.629L823.817 781.444L843.814 781.788L846.943 599.973L826.946 599.629ZM798.77 598.048L772.567 603.855L776.895 623.381L803.097 617.574L798.77 598.048ZM769.263 605.245L751.795 616.653L762.73 633.398L780.199 621.991L769.263 605.245ZM752.5 616.233L742.353 621.729L751.879 639.315L762.026 633.818L752.5 616.233ZM742.353 621.729L732.206 627.225L741.731 644.811L751.879 639.315L742.353 621.729ZM741.373 638.708L749.208 644.205L760.694 627.831L752.859 622.335L741.373 638.708ZM746.018 640.513L752.697 653.787L770.563 644.797L763.884 631.523L746.018 640.513ZM751.881 651.521L754.964 665.002L774.461 660.544L771.378 647.063L751.881 651.521ZM754.833 664.32L757.659 682.364L777.418 679.27L774.592 661.226L754.833 664.32ZM757.538 680.817V698.654H777.538V680.817H757.538ZM757.708 696.819L754.882 711.96L774.543 715.629L777.368 700.489L757.708 696.819ZM754.943 711.659L751.86 725.763L771.399 730.033L774.482 715.93L754.943 711.659ZM752.139 724.747L745.46 744.866L764.441 751.167L771.12 731.049L752.139 724.747ZM745.746 744.109L737.911 762.568L756.321 770.383L764.156 751.924L745.746 744.109ZM738.112 762.125L728.992 780.999L747 789.7L756.12 770.826L738.112 762.125ZM729.181 780.628L720.961 795.976L738.591 805.419L746.811 790.071L729.181 780.628ZM720.687 796.528L712.98 813.327L731.159 821.666L738.865 804.867L720.687 796.528ZM712.6 814.281L703.866 839.999L722.804 846.431L731.538 820.713L712.6 814.281ZM703.882 839.954L698.23 856.339L717.137 862.861L722.789 846.476L703.882 839.954ZM698.368 855.965L692.459 871.105L711.091 878.376L716.999 863.235L698.368 855.965ZM692.018 872.553L686.623 896.611L706.138 900.987L711.533 876.928L692.018 872.553ZM686.546 896.989L680.894 927.685L700.564 931.306L706.215 900.61L686.546 896.989ZM680.762 928.68L678.964 950.665L698.898 952.295L700.696 930.31L680.762 928.68ZM678.931 951.48V984.665H698.931V951.48H678.931ZM678.931 984.665V1015.57H698.931V984.665H678.931ZM684.462 1051.65L690.114 1085.45L709.84 1082.16L704.189 1048.35L684.462 1051.65ZM690.435 1086.8L700.454 1118.74L719.537 1112.75L709.519 1080.81L690.435 1086.8ZM700.98 1120.07L708.944 1136.66L726.974 1128.01L719.011 1111.42L700.98 1120.07ZM709.066 1136.91L720.369 1158.89L738.156 1149.75L726.853 1127.76L709.066 1136.91ZM720.223 1158.6L734.351 1188.46L752.43 1179.91L738.302 1150.05L720.223 1158.6ZM746.855 1193.57L771.003 1184.65L764.074 1165.89L739.926 1174.81L746.855 1193.57ZM769.201 1185.13L792.577 1181.19L789.253 1161.47L765.876 1165.41L769.201 1185.13ZM792.22 1181.24L815.854 1178.13L813.243 1158.3L789.61 1161.41L792.22 1181.24ZM814.549 1178.22H870.55V1158.22H814.549V1178.22ZM870.55 1178.22H885.449V1158.22H870.55V1178.22ZM884.039 1178.12L905.874 1181.23L908.695 1161.43L886.86 1158.32L884.039 1178.12ZM905.053 1181.08L922.264 1185.02L926.728 1165.52L909.516 1161.58L905.053 1181.08ZM921.256 1184.73L938.21 1190.54L944.691 1171.62L927.736 1165.81L921.256 1184.73ZM947.13 1189.31L961.258 1179.56L949.9 1163.1L935.772 1172.85L947.13 1189.31ZM964.484 1175.88L971.163 1162.81L953.354 1153.71L946.675 1166.78L964.484 1175.88ZM970.814 1163.44L981.86 1145.19L964.749 1134.83L953.703 1153.08L970.814 1163.44ZM982.358 1144.26L988.78 1130.57L970.674 1122.07L964.251 1135.76L982.358 1144.26ZM988.834 1130.45L995.513 1115.73L977.299 1107.47L970.62 1122.19L988.834 1130.45ZM995.92 1114.68L1001.83 1096.42L982.8 1090.26L976.892 1108.52L995.92 1114.68ZM1002.05 1095.65L1007.44 1072.83L987.977 1068.23L982.583 1091.04L1002.05 1095.65ZM1007.29 1073.39L1012.43 1056.18L993.264 1050.46L988.126 1067.67L1007.29 1073.39ZM1012.68 1055.13L1017.3 1030.03L997.636 1026.41L993.012 1051.5L1012.68 1055.13ZM1017.43 1029.11L1019.49 1006.09L999.565 1004.31L997.51 1027.33L1017.43 1029.11ZM1019.53 1005.2V984.665H999.526V1005.2H1019.53ZM1019.53 984.665V960.813H999.526V984.665H1019.53ZM1019.53 960.813V943.391H999.526V960.813H1019.53ZM1019.53 943.391V922.029H999.526V943.391H1019.53ZM1019.47 921.002L1017.42 901.091L997.523 903.145L999.578 923.055L1019.47 921.002ZM1017.36 900.653L1014.54 881.572L994.753 884.502L997.578 903.583L1017.36 900.653ZM1014.37 880.72L1010.52 864.542L991.064 869.176L994.917 885.354L1014.37 880.72ZM1010.58 864.837L1005.7 841.193L986.117 845.237L990.998 868.881L1010.58 864.837ZM1005.43 840.162L999.782 822.533L980.736 828.638L986.388 846.268L1005.43 840.162ZM999.582 821.968L992.903 804.754L974.257 811.988L980.936 829.203L999.582 821.968ZM992.839 804.593L985.646 786.964L967.128 794.519L974.321 812.149L992.839 804.593ZM985.867 787.558L981.757 775.321L962.797 781.689L966.908 793.926L985.867 787.558ZM981.192 773.975L972.972 757.797L955.142 766.857L963.362 783.035L981.192 773.975ZM972.927 757.71L965.477 743.399L947.737 752.634L955.186 766.945L972.927 757.71ZM965.74 743.944L958.804 728.389L940.538 736.533L947.474 752.089L965.74 743.944ZM958.804 728.389L951.868 712.833L933.602 720.978L940.538 736.533L958.804 728.389ZM952.288 713.948L948.177 700.674L929.072 706.59L933.182 719.864L952.288 713.948ZM948.058 700.314L942.15 683.514L923.283 690.15L929.191 706.95L948.058 700.314ZM942.689 686.089L940.634 658.504L920.689 659.99L922.744 687.575L942.689 686.089ZM940.661 659.247V636.018H920.661V659.247H940.661ZM940.271 638.783L946.18 618.25L926.96 612.72L921.051 633.253L940.271 638.783ZM944.582 621.469L953.593 609.404L937.569 597.436L928.558 609.501L944.582 621.469ZM730.976 628.013L709.782 643.879L721.769 659.89L742.962 644.023L730.976 628.013ZM709.782 643.879L688.589 659.746L700.576 675.756L721.769 659.89L709.782 643.879ZM707.049 656.768L714.884 670.768L732.337 661L724.502 647.001L707.049 656.768ZM714.799 670.613L721.479 683.058L739.101 673.599L732.422 661.155L714.799 670.613ZM720.503 680.383L723.072 692.62L742.645 688.511L740.076 676.274L720.503 680.383ZM722.859 690.565V715.246H742.859V690.565H722.859ZM722.859 715.246V732.668H742.859V715.246H722.859ZM723.374 729.5L717.208 747.959L736.178 754.295L742.343 735.836L723.374 729.5ZM717.031 748.552L712.663 764.937L731.989 770.088L736.356 753.703L717.031 748.552ZM713.052 763.772L705.859 781.609L724.408 789.089L731.6 771.252L713.052 763.772ZM705.964 781.359L699.285 796.707L717.624 804.687L724.303 789.339L705.964 781.359ZM699.049 797.299L691.856 817.21L710.667 824.006L717.859 804.095L699.049 797.299ZM691.653 817.838L684.717 841.897L703.934 847.437L710.87 823.378L691.653 817.838ZM684.606 842.315L680.239 860.359L699.678 865.063L704.045 847.019L684.606 842.315ZM680.232 860.386L674.581 884.03L694.033 888.68L699.684 865.036L680.232 860.386ZM674.404 884.967L671.321 906.951L691.127 909.729L694.21 887.744L674.404 884.967ZM671.252 907.603L669.196 935.395L689.142 936.87L691.197 909.077L671.252 907.603ZM669.169 936.132V965.791H689.169V936.132H669.169ZM669.169 965.791V995.657H689.169V965.791H669.169ZM669.224 996.706L672.307 1025.95L692.197 1023.85L689.114 994.609L669.224 996.706ZM672.403 1026.63L677.54 1055.88L697.239 1052.41L692.101 1023.17L672.403 1026.63ZM677.525 1055.79L682.149 1083.58L701.878 1080.3L697.254 1052.5L677.525 1055.79ZM682.446 1084.85L692.721 1118.65L711.857 1112.84L701.581 1079.03L682.446 1084.85ZM693.268 1120.06L703.286 1141.01L721.329 1132.38L711.31 1111.43L693.268 1120.06ZM703.356 1141.15L713.375 1161.27L731.278 1152.35L721.259 1132.23L703.356 1141.15ZM713.493 1161.5L729.677 1191.99L747.343 1182.61L731.159 1152.12L713.493 1161.5ZM732.928 1179L723.68 1185.22L734.844 1201.82L744.092 1195.6L732.928 1179ZM723.725 1185.19L714.991 1191L726.065 1207.66L734.799 1201.85L723.725 1185.19ZM713.504 1192.21L706.568 1199.05L720.616 1213.29L727.552 1206.45L713.504 1192.21ZM706.07 1199.58L698.621 1208.09L713.664 1221.27L721.114 1212.76L706.07 1199.58ZM697.296 1210.01L692.158 1219.76L709.851 1229.09L714.989 1219.34L697.296 1210.01ZM691.708 1220.74L687.598 1231.11L706.191 1238.48L710.301 1228.11L691.708 1220.74ZM686.894 1234.79V1252.22H706.894V1234.79H686.894ZM687.311 1255.07L690.651 1266.27L709.817 1260.56L706.477 1249.36L687.311 1255.07ZM691.464 1268.22L697.372 1279.01L714.912 1269.4L709.004 1258.61L691.464 1268.22ZM697.89 1279.85L708.68 1295.61L725.184 1284.32L714.394 1268.55L697.89 1279.85ZM710.11 1297.28L721.67 1308.06L735.313 1293.44L723.753 1282.65L710.11 1297.28ZM721.559 1307.96L733.632 1319.57L747.498 1305.16L735.424 1293.54L721.559 1307.96ZM735.069 1320.72L748.941 1329.84L759.933 1313.14L746.061 1304.01L735.069 1320.72ZM749.932 1330.42L766.373 1338.71L775.383 1320.86L758.942 1312.56L749.932 1330.42ZM766.758 1338.9L779.602 1344.71L787.842 1326.48L774.998 1320.67L766.758 1338.9ZM780.301 1344.99L793.402 1349.76L800.245 1330.97L787.143 1326.2L780.301 1344.99ZM791.492 1348.82L802.024 1355.46L812.687 1338.54L802.155 1331.9L791.492 1348.82ZM802.102 1355.51L810.836 1360.9L821.343 1343.88L812.609 1338.49L802.102 1355.51ZM809.695 1360.08L818.172 1367.13L830.962 1351.76L822.485 1344.71L809.695 1360.08ZM816.594 1365.48L822.245 1372.95L838.192 1360.88L832.541 1353.41L816.594 1365.48ZM820.975 1370.73L824.315 1378.82L842.801 1371.18L839.462 1363.1L820.975 1370.73ZM678.988 1016.63L680.786 1033.43L700.672 1031.3L698.874 1014.5L678.988 1016.63ZM680.931 1034.37L684.527 1052L704.124 1048L700.527 1030.37L680.931 1034.37Z" fill="url(#paint2_linear_140_919)"/>
<path d="M801.705 378.422L798.108 560.73M798.108 560.73L775.502 567.99L749.557 571.723M798.108 560.73C790.573 563.15 770.313 568.736 749.557 571.723M749.557 571.723L695.354 573.797L703.574 567.99L718.73 558.034L725.409 548.701L730.547 539.368L733.373 528.375V514.894L730.547 493.739L725.409 480.88L716.675 471.961L708.198 461.384L698.436 456.821L687.904 451.636L673.005 447.488L654.766 445.206H633.701L616.746 447.488L602.875 451.636L584.379 459.517L572.048 465.947L561.516 471.961L551.24 479.013L537.882 491.042L528.377 501.62L519.129 509.916L507.826 525.679L500.12 540.82L491.899 558.034L487.019 573.797L480.596 588.108L477 607.604V630.833V649.499L480.596 670.862L487.532 691.603L498.065 714.002L506.028 728.728L518.102 740.343L535.056 757.557L552.268 768.757L574.103 778.298L593.113 784.105L611.866 786.594H628.563L638.582 784.105L650.912 778.298L664.784 770.209L676.344 759.424L685.849 749.468L692.785 737.232L700.748 721.261L703.06 705.084L700.748 685.795L696.895 673.558L694.84 668.788L685.849 656.966L682.509 650.122V637.677L688.675 621.5L685.849 603.663L688.675 599.722V592.878L680.285 585.329L694.84 577.53L694.84 573.797M836.012 571.723L807.356 577.53L789.631 582.715L768.053 588.108L742.364 591.219H723.098L715.905 593.819L688.675 603.663" stroke="url(#paint3_linear_140_919)" stroke-width="20" stroke-linecap="round"/>
<path d="M857.859 372.902C857.859 372.902 857.858 372.91 857.852 372.927C857.855 372.91 857.858 372.902 857.859 372.902ZM856.989 372.129C857.498 372.569 857.715 372.872 857.803 373.029C857.715 373.187 857.498 373.49 856.989 373.93C855.948 374.831 854.15 375.869 851.495 376.84C846.225 378.768 838.613 380.059 829.962 380.059C821.311 380.059 813.699 378.768 808.429 376.84C805.774 375.869 803.977 374.831 802.936 373.93C802.426 373.49 802.209 373.187 802.121 373.029C802.209 372.872 802.426 372.569 802.936 372.129C803.977 371.228 805.774 370.19 808.429 369.219C813.699 367.291 821.311 366 829.962 366C838.613 366 846.225 367.291 851.495 369.219C854.15 370.19 855.948 371.228 856.989 372.129ZM802.066 372.902C802.066 372.902 802.069 372.91 802.073 372.927C802.066 372.91 802.065 372.902 802.066 372.902ZM802.066 373.157C802.065 373.157 802.066 373.149 802.073 373.132C802.069 373.149 802.066 373.157 802.066 373.157ZM857.852 373.132C857.858 373.149 857.859 373.157 857.859 373.157C857.858 373.157 857.855 373.149 857.852 373.132Z" stroke="url(#paint4_linear_140_919)" stroke-width="10"/>
<path d="M841.905 779.806C841.905 780.259 841.682 780.952 840.719 781.852C839.752 782.755 838.217 783.684 836.112 784.516C831.915 786.175 825.946 787.256 819.227 787.256C812.508 787.256 806.54 786.175 802.343 784.516C800.237 783.684 798.702 782.755 797.735 781.852C796.772 780.952 796.55 780.259 796.55 779.806C796.55 779.352 796.772 778.659 797.735 777.759C798.702 776.856 800.237 775.927 802.343 775.095C806.54 773.436 812.508 772.355 819.227 772.355C825.946 772.355 831.915 773.436 836.112 775.095C838.217 775.927 839.752 776.856 840.719 777.759C841.682 778.659 841.905 779.352 841.905 779.806Z" stroke="url(#paint5_linear_140_919)" stroke-width="5"/>
<path d="M836.012 389.041L839.742 612.465" stroke="url(#paint6_linear_140_919)" stroke-width="15" stroke-linecap="round"/>
<path d="M894.184 401.236L888.698 774.379" stroke="url(#paint7_linear_140_919)" stroke-width="15" stroke-linecap="round"/>
<path d="M892.255 401.214C892.255 401.214 892.255 401.218 892.253 401.226C892.254 401.218 892.255 401.214 892.255 401.214ZM891.225 399.958C892.083 400.7 892.23 401.135 892.251 401.236C892.23 401.338 892.083 401.773 891.225 402.515C890.122 403.47 888.263 404.533 885.576 405.517C880.239 407.469 872.566 408.766 863.872 408.766C855.178 408.766 847.505 407.469 842.167 405.517C839.48 404.533 837.621 403.47 836.518 402.515C835.66 401.773 835.514 401.338 835.492 401.236C835.514 401.135 835.66 400.7 836.518 399.958C837.621 399.003 839.48 397.939 842.167 396.956C847.505 395.004 855.178 393.707 863.872 393.707C872.566 393.707 880.239 395.004 885.576 396.956C888.263 397.939 890.122 399.003 891.225 399.958ZM835.489 401.214C835.489 401.214 835.49 401.218 835.49 401.226C835.489 401.218 835.488 401.214 835.489 401.214ZM835.489 401.259C835.488 401.259 835.489 401.255 835.49 401.247C835.49 401.255 835.489 401.259 835.489 401.259ZM892.253 401.247C892.255 401.255 892.255 401.259 892.255 401.259C892.255 401.259 892.254 401.255 892.253 401.247Z" stroke="url(#paint8_linear_140_919)" stroke-width="9"/>
<path d="M890.883 781.885C890.883 782.549 890.523 783.501 889.163 784.677C887.811 785.846 885.708 787.013 882.893 788.043C877.283 790.096 869.367 791.414 860.501 791.414C851.636 791.414 843.719 790.096 838.109 788.043C835.294 787.013 833.192 785.846 831.839 784.677C830.48 783.501 830.12 782.549 830.12 781.885C830.12 781.221 830.48 780.269 831.839 779.093C833.192 777.924 835.294 776.757 838.109 775.727C843.719 773.674 851.636 772.355 860.501 772.355C869.367 772.355 877.283 773.674 882.893 775.727C885.708 776.757 887.811 777.924 889.163 779.093C890.523 780.269 890.883 781.221 890.883 781.885Z" stroke="url(#paint9_linear_140_919)" stroke-width="5"/>
<path d="M652.967 508.256V460.049L712.922 492.16L688.931 504.419M652.967 508.256L566.91 484.924V530.449M652.967 508.256L688.931 504.419M566.91 530.449L520.361 527.438M566.91 530.449L624.324 589.351M566.91 530.449L649.371 511.367L636.847 550.359L624.324 589.351M566.91 530.449L534.35 565.999M670.133 648.647L624.324 589.351M670.133 648.647L641.361 689.942M670.133 648.647L561.804 629.578M624.324 589.351L561.804 629.578M695.671 560.454L688.931 504.419M641.361 689.942L670.133 736.194L618.801 716.387L621.538 776.189L584.635 733.705M641.361 689.942L593.883 652.61L589.259 693.157M584.635 733.705L589.259 693.157M584.635 733.705V766.239L506.374 700.659M589.259 693.157L506.374 697.945M589.259 693.157L561.804 629.578M491.454 597.54L506.374 697.945M506.374 697.945L556.263 629.578L494.251 594.374L534.35 565.999M534.35 565.999L561.804 629.578" stroke="url(#paint10_linear_140_919)" stroke-width="10" stroke-linecap="square"/>
<path d="M1081.2 678.953L1071 732.318L1017.85 678.953H1044.43M1081.2 678.953L1149.53 713.775L1167.25 656.76M1081.2 678.953H1044.43M1167.25 656.76L1191.76 672.618M1167.25 656.76L1109.84 597.858M1167.25 656.76L1084.79 675.842L1097.32 636.85M1167.25 656.76L1211.81 611.561L1172.36 557.631M1029.51 541.458L1109.84 597.858M1029.51 541.458L1081.2 488.141M1029.51 541.458L1172.36 557.631M1109.84 597.858L1097.32 636.85M1109.84 597.858L1172.36 557.631M1097.32 636.85L1036.5 614.727L1044.43 678.953M1081.2 488.141L981.482 455.526L1115.36 470.822M1081.2 488.141L1168.89 549.599M1081.2 488.141L1115.36 470.822M1115.36 470.822L1140.47 455.526L1154.46 488.141L1172.36 557.631M1115.36 470.822L1073.8 423.415M1203.42 545.529L1172.36 557.631" stroke="url(#paint11_linear_140_919)" stroke-width="10" stroke-linecap="square"/>
<path d="M765.609 1189.12L782.696 1220.69M782.696 1220.69L717.585 1238.41L793.742 1278.14M782.696 1220.69L803.375 1184.14M782.696 1220.69L793.742 1276.07M793.742 1278.14L784.725 1318.47L862.074 1302.2M793.742 1278.14L862.074 1302.2M862.074 1302.2L853.73 1369.57M862.074 1302.2L921.802 1318.47M921.802 1318.47L890.588 1244.34M921.802 1318.47L982.297 1211.15M890.588 1244.34L861.055 1301.84M890.588 1244.34L862.074 1199.33M890.588 1244.34L982.297 1211.15M861.055 1301.84L862.074 1199.33M861.055 1301.84L803.375 1184.14M862.074 1199.33L803.375 1184.14M862.074 1199.33L982.297 1211.15" stroke="url(#paint12_linear_140_919)" stroke-width="10" stroke-linecap="square"/>
<ellipse cx="645.98" cy="508.053" rx="8.6833" ry="7.26388" fill="url(#paint13_diamond_140_919)"/>
<ellipse cx="585.87" cy="689.738" rx="8.6833" ry="7.26388" fill="url(#paint14_diamond_140_919)"/>
<ellipse cx="534.492" cy="570.69" rx="8.6833" ry="7.26388" fill="url(#paint15_diamond_140_919)"/>
<ellipse cx="654.714" cy="700.94" rx="8.6833" ry="7.26388" fill="url(#paint16_diamond_140_919)"/>
<ellipse cx="624.402" cy="589.772" rx="8.6833" ry="7.26388" fill="url(#paint17_diamond_140_919)"/>
<ellipse cx="504.333" cy="701.139" rx="8.6833" ry="7.26388" fill="url(#paint18_diamond_140_919)"/>
<ellipse cx="1080.63" cy="491.045" rx="8.6833" ry="7.26388" fill="url(#paint19_diamond_140_919)"/>
<ellipse cx="1110.95" cy="597.238" rx="8.6833" ry="7.26388" fill="url(#paint20_diamond_140_919)"/>
<ellipse cx="1080.63" cy="676.467" rx="8.6833" ry="7.26388" fill="url(#paint21_diamond_140_919)"/>
<ellipse cx="1165.92" cy="656.555" rx="8.6833" ry="7.26388" fill="url(#paint22_diamond_140_919)"/>
<ellipse cx="1174.65" cy="558.66" rx="8.6833" ry="7.26388" fill="url(#paint23_diamond_140_919)"/>
<ellipse cx="1110.95" cy="468.649" rx="8.6833" ry="7.26388" fill="url(#paint24_diamond_140_919)"/>
<ellipse cx="793.947" cy="1277.94" rx="8.6833" ry="7.26388" fill="url(#paint25_diamond_140_919)"/>
<ellipse cx="890.536" cy="1243.1" rx="8.6833" ry="7.26388" fill="url(#paint26_diamond_140_919)"/>
<ellipse cx="776.479" cy="1220.7" rx="8.6833" ry="7.26388" fill="url(#paint27_diamond_140_919)"/>
<ellipse cx="860.225" cy="1198.71" rx="8.6833" ry="7.26388" fill="url(#paint28_diamond_140_919)"/>
<ellipse cx="860.225" cy="1303.24" rx="8.6833" ry="7.26388" fill="url(#paint29_diamond_140_919)"/>
<circle cx="850" cy="850" r="849.5" stroke="white"/>
<defs>
<linearGradient id="paint0_linear_140_919" x1="913.924" y1="399.382" x2="913.924" y2="750.92" gradientUnits="userSpaceOnUse">
<stop stop-color="#057189"/>
<stop offset="0.5" stop-color="#15CEF9"/>
<stop offset="1" stop-color="#07949F"/>
</linearGradient>
<linearGradient id="paint1_linear_140_919" x1="693.014" y1="568.865" x2="693.014" y2="636.641" gradientUnits="userSpaceOnUse">
<stop stop-color="#057189"/>
<stop offset="0.520833" stop-color="#15CEF9"/>
<stop offset="1" stop-color="#07949F"/>
</linearGradient>
<linearGradient id="paint2_linear_140_919" x1="804.205" y1="576.14" x2="804.205" y2="781.615" gradientUnits="userSpaceOnUse">
<stop stop-color="#057189"/>
<stop offset="0.510417" stop-color="#15CEF9"/>
<stop offset="1" stop-color="#07949F"/>
</linearGradient>
<linearGradient id="paint3_linear_140_919" x1="797.324" y1="372.292" x2="797.324" y2="558.034" gradientUnits="userSpaceOnUse">
<stop stop-color="#0797B7"/>
<stop offset="0.541667" stop-color="#15CEF9"/>
<stop offset="1" stop-color="#07949F"/>
</linearGradient>
<linearGradient id="paint4_linear_140_919" x1="829.962" y1="361" x2="829.962" y2="385.059" gradientUnits="userSpaceOnUse">
<stop stop-color="#057189"/>
<stop offset="0.515625" stop-color="#15CEF9"/>
<stop offset="1" stop-color="#07949F"/>
</linearGradient>
<linearGradient id="paint5_linear_140_919" x1="819.227" y1="769.855" x2="819.227" y2="789.756" gradientUnits="userSpaceOnUse">
<stop stop-color="#057189"/>
<stop offset="0.515625" stop-color="#15CEF9"/>
<stop offset="1" stop-color="#07949F"/>
</linearGradient>
<linearGradient id="paint6_linear_140_919" x1="836.209" y1="381.416" x2="836.209" y2="612.465" gradientUnits="userSpaceOnUse">
<stop stop-color="#057189"/>
<stop offset="0.520833" stop-color="#15CEF9"/>
<stop offset="1" stop-color="#07949F"/>
</linearGradient>
<linearGradient id="paint7_linear_140_919" x1="894.319" y1="396.862" x2="894.319" y2="529.412" gradientUnits="userSpaceOnUse">
<stop stop-color="#057189"/>
<stop offset="0.520833" stop-color="#15CEF9"/>
<stop offset="1" stop-color="#07949F"/>
</linearGradient>
<linearGradient id="paint8_linear_140_919" x1="863.872" y1="389.207" x2="863.872" y2="413.266" gradientUnits="userSpaceOnUse">
<stop stop-color="#057189"/>
<stop offset="0.510417" stop-color="#15CEF9"/>
<stop offset="1" stop-color="#07949F"/>
</linearGradient>
<linearGradient id="paint9_linear_140_919" x1="860.501" y1="769.855" x2="860.501" y2="793.914" gradientUnits="userSpaceOnUse">
<stop stop-color="#057189"/>
<stop offset="0.510417" stop-color="#15CEF9"/>
<stop offset="1" stop-color="#07949F"/>
</linearGradient>
<linearGradient id="paint10_linear_140_919" x1="497.104" y1="436.421" x2="497.104" y2="784.313" gradientUnits="userSpaceOnUse">
<stop stop-color="#057189"/>
<stop offset="0.520833" stop-color="#15CEF9"/>
<stop offset="1" stop-color="#07949F"/>
</linearGradient>
<linearGradient id="paint11_linear_140_919" x1="1237.06" y1="750.789" x2="1237.06" y2="402.897" gradientUnits="userSpaceOnUse">
<stop stop-color="#057189"/>
<stop offset="0.46875" stop-color="#15CEF9"/>
<stop offset="1" stop-color="#07949F"/>
</linearGradient>
<linearGradient id="paint12_linear_140_919" x1="716.297" y1="1168.7" x2="716.297" y2="1373.96" gradientUnits="userSpaceOnUse">
<stop stop-color="#057189"/>
<stop offset="0.479167" stop-color="#15CEF9"/>
<stop offset="1" stop-color="#07949F"/>
</linearGradient>
<radialGradient id="paint13_diamond_140_919" cx="0" cy="0" r="1" gradientUnits="userSpaceOnUse" gradientTransform="translate(645.98 508.053) rotate(90) scale(7.26388 8.6833)">
<stop stop-color="white"/>
<stop offset="0.5" stop-color="#93E5F7"/>
<stop offset="1" stop-color="#25A7C4"/>
</radialGradient>
<radialGradient id="paint14_diamond_140_919" cx="0" cy="0" r="1" gradientUnits="userSpaceOnUse" gradientTransform="translate(585.87 689.738) rotate(90) scale(7.26388 8.6833)">
<stop stop-color="white"/>
<stop offset="0.5" stop-color="#93E5F7"/>
<stop offset="1" stop-color="#25A7C4"/>
</radialGradient>
<radialGradient id="paint15_diamond_140_919" cx="0" cy="0" r="1" gradientUnits="userSpaceOnUse" gradientTransform="translate(534.492 570.69) rotate(90) scale(7.26388 8.6833)">
<stop stop-color="white"/>
<stop offset="0.5" stop-color="#93E5F7"/>
<stop offset="1" stop-color="#25A7C4"/>
</radialGradient>
<radialGradient id="paint16_diamond_140_919" cx="0" cy="0" r="1" gradientUnits="userSpaceOnUse" gradientTransform="translate(654.714 700.94) rotate(90) scale(7.26388 8.6833)">
<stop stop-color="white"/>
<stop offset="0.5" stop-color="#93E5F7"/>
<stop offset="1" stop-color="#25A7C4"/>
</radialGradient>
<radialGradient id="paint17_diamond_140_919" cx="0" cy="0" r="1" gradientUnits="userSpaceOnUse" gradientTransform="translate(624.402 589.772) rotate(90) scale(7.26388 8.6833)">
<stop stop-color="white"/>
<stop offset="0.5" stop-color="#93E5F7"/>
<stop offset="1" stop-color="#25A7C4"/>
</radialGradient>
<radialGradient id="paint18_diamond_140_919" cx="0" cy="0" r="1" gradientUnits="userSpaceOnUse" gradientTransform="translate(504.333 701.139) rotate(90) scale(7.26388 8.6833)">
<stop stop-color="white"/>
<stop offset="0.5" stop-color="#93E5F7"/>
<stop offset="1" stop-color="#25A7C4"/>
</radialGradient>
<radialGradient id="paint19_diamond_140_919" cx="0" cy="0" r="1" gradientUnits="userSpaceOnUse" gradientTransform="translate(1080.63 491.045) rotate(90) scale(7.26388 8.6833)">
<stop stop-color="white"/>
<stop offset="0.5" stop-color="#93E5F7"/>
<stop offset="1" stop-color="#25A7C4"/>
</radialGradient>
<radialGradient id="paint20_diamond_140_919" cx="0" cy="0" r="1" gradientUnits="userSpaceOnUse" gradientTransform="translate(1110.95 597.238) rotate(90) scale(7.26388 8.6833)">
<stop stop-color="white"/>
<stop offset="0.5" stop-color="#93E5F7"/>
<stop offset="1" stop-color="#25A7C4"/>
</radialGradient>
<radialGradient id="paint21_diamond_140_919" cx="0" cy="0" r="1" gradientUnits="userSpaceOnUse" gradientTransform="translate(1080.63 676.467) rotate(90) scale(7.26388 8.6833)">
<stop stop-color="white"/>
<stop offset="0.5" stop-color="#93E5F7"/>
<stop offset="1" stop-color="#25A7C4"/>
</radialGradient>
<radialGradient id="paint22_diamond_140_919" cx="0" cy="0" r="1" gradientUnits="userSpaceOnUse" gradientTransform="translate(1165.92 656.555) rotate(90) scale(7.26388 8.6833)">
<stop stop-color="white"/>
<stop offset="0.5" stop-color="#93E5F7"/>
<stop offset="1" stop-color="#25A7C4"/>
</radialGradient>
<radialGradient id="paint23_diamond_140_919" cx="0" cy="0" r="1" gradientUnits="userSpaceOnUse" gradientTransform="translate(1174.65 558.66) rotate(90) scale(7.26388 8.6833)">
<stop stop-color="white"/>
<stop offset="0.5" stop-color="#93E5F7"/>
<stop offset="1" stop-color="#25A7C4"/>
</radialGradient>
<radialGradient id="paint24_diamond_140_919" cx="0" cy="0" r="1" gradientUnits="userSpaceOnUse" gradientTransform="translate(1110.95 468.649) rotate(90) scale(7.26388 8.6833)">
<stop stop-color="white"/>
<stop offset="0.5" stop-color="#93E5F7"/>
<stop offset="1" stop-color="#25A7C4"/>
</radialGradient>
<radialGradient id="paint25_diamond_140_919" cx="0" cy="0" r="1" gradientUnits="userSpaceOnUse" gradientTransform="translate(793.947 1277.94) rotate(90) scale(7.26388 8.6833)">
<stop stop-color="white"/>
<stop offset="0.5" stop-color="#93E5F7"/>
<stop offset="1" stop-color="#25A7C4"/>
</radialGradient>
<radialGradient id="paint26_diamond_140_919" cx="0" cy="0" r="1" gradientUnits="userSpaceOnUse" gradientTransform="translate(890.536 1243.1) rotate(90) scale(7.26388 8.6833)">
<stop stop-color="white"/>
<stop offset="0.5" stop-color="#93E5F7"/>
<stop offset="1" stop-color="#25A7C4"/>
</radialGradient>
<radialGradient id="paint27_diamond_140_919" cx="0" cy="0" r="1" gradientUnits="userSpaceOnUse" gradientTransform="translate(776.479 1220.7) rotate(90) scale(7.26388 8.6833)">
<stop stop-color="white"/>
<stop offset="0.5" stop-color="#93E5F7"/>
<stop offset="1" stop-color="#25A7C4"/>
</radialGradient>
<radialGradient id="paint28_diamond_140_919" cx="0" cy="0" r="1" gradientUnits="userSpaceOnUse" gradientTransform="translate(860.225 1198.71) rotate(90) scale(7.26388 8.6833)">
<stop stop-color="white"/>
<stop offset="0.5" stop-color="#93E5F7"/>
<stop offset="1" stop-color="#25A7C4"/>
</radialGradient>
<radialGradient id="paint29_diamond_140_919" cx="0" cy="0" r="1" gradientUnits="userSpaceOnUse" gradientTransform="translate(860.225 1303.24) rotate(90) scale(7.26388 8.6833)">
<stop stop-color="white"/>
<stop offset="0.5" stop-color="#93E5F7"/>
<stop offset="1" stop-color="#25A7C4"/>
</radialGradient>
</defs>
</svg>
