<svg width="1147" height="1878" viewBox="0 0 1147 1878" fill="none" xmlns="http://www.w3.org/2000/svg">
<path d="M296 628L366 592.5L323.5 505L400 535L390 444.5L454 481.5L515.5 427L561.5 600.5L604 403.5M604 403.5L647 510M604 403.5L688.5 468.5M647 510L688.5 468.5M647 510L735.5 516L688.5 468.5M647 510L679 613L735.5 523.5M735.5 523.5L718.5 324.5L823.5 579L735.5 523.5ZM718.5 318.5L823.5 427M823.5 427V516H868.5L823.5 427ZM823.5 427L941.5 510M941.5 510L870.497 388.42M941.5 510L1012.5 196.5L828.5 165.5M868.5 385L782.5 377.5L768.5 259L868.5 294.5M868.5 385L870.497 388.42M868.5 385L1025 412.5L951.5 254M868.5 294.5L870.497 388.42M868.5 294.5L951.5 254M868.5 294.5L762 204L828.5 165.5M868.5 294.5L843.5 136.5L828.5 165.5M951.5 254L918.5 126.5" stroke="url(#paint0_linear_44_66)" stroke-width="15" stroke-linecap="round" stroke-linejoin="bevel"/>
<path d="M1013.5 1526.5L947.5 1559.5L897 1617L815.5 1640.5L768 1681.5L698 1694.5L672.5 1736.5L614 1746L605 1808L587 1826.5L576 1839.5L567.5 1854.5L563.5 1867.5H552.5L549 1865V1863L528.5 1846L520 1829L511.5 1808L507.5 1781L502.5 1753.5L483.5 1727L473 1700.5L469 1677.5V1654.5L473 1631L476.5 1604L483.5 1580.5L508.5 1560L525 1543L549.5 1526.5L592 1519.5L628 1526.5L653 1534L678.5 1543L696.5 1534H726H753L769.5 1505.5L793.5 1482L814.5 1466.5H847L874.5 1452L893 1420.5L918.5 1404V1377V1353L926 1325L943.5 1307.5L950.5 1288L943.5 1269V1240.5L947 1218L958 1197.5L976.5 1176L989.5 1157.5L976.5 1145.5L970.5 1132.5V1113V1085L973 1064.5L989.5 1045.5L999 1027.5L989.5 1015.5L976.5 997L970.5 980L966.5 963.5L970.5 940.5V924.5V900L981.5 888L984.5 870L981.5 851V839V821V805.5L970.5 788L962 769.5V752L967 727.5L959 722.5L947.5 737.5L918.5 757H898L880 762L852.5 752L826 741.5L799 757L780 767L758.5 769.5L732 767L726 762L714 757L699 762L689 779L672 788L653 796H629.5H611.5H594L575.5 788L569 779.5L557.5 779L542 784.5L533.5 796L511.5 809H490L462.5 803.5L439.5 796L422 788L412 770.5H395.5L378.5 784.5L350.5 796H320L295 779.5L268 762L237.5 779.5H209L201.5 803.5L190 822L182.5 854.5L170.5 916L176.5 937.5L201.5 997.5L190 1043.5L209 1070.5L233 1106V1151L244.5 1187L285.5 1214L307 1263V1316L335 1336L355.5 1415L325.5 1488L355.5 1586.5H325.5L244.5 1526.5H181.5L130.5 1478.5V1382L55 1304L70 1214L10 1151L46 1063.5L10 997.5L46 937.5L10 910.5V847.5L46 793V769L70 724L100 634L181.5 619L223.5 601L292.5 646H355.5L422 664L497 646L554 664L614 634L707 646L758.5 634H815.5L860.5 601H917.5L947.5 577L995.5 553H1059L1116 601V703L1137 745L1116 793L1137 847.5L1116 910.5L1137 970.5L1116 1027.5L1137 1106L1116 1187L1089 1316V1382L1035 1427.5L1013.5 1526.5Z" stroke="url(#paint1_linear_44_66)" stroke-width="20" stroke-linecap="round" stroke-linejoin="bevel"/>
<path d="M282 641.5L293 577L302.5 530.5L328.5 469.5L375 442.5L428 428L489 420H543.5L587 399L638.5 383L672 354L710.5 326.5L738 291.5L762 254.5L749 203M749 203L762 171L800.5 143.5L832.5 126L877.5 115H922.5L970.5 126L1006 161.5L1031.5 203L1044.5 243L1057.5 291.5V339.5L1044.5 399L1020.5 442.5L987 482.5L961 508L922.5 538.5L877.5 561L832.5 590L787.5 603L730 616H672H608H571L532.5 603L489 577L460 538.5H428H400.5L380 569L375 590L365.5 616V641.5M749 203L727.5 155.5L718 109L710.5 68L718 34L727.5 3L714.25 51" stroke="url(#paint2_linear_44_66)" stroke-width="20" stroke-linecap="round" stroke-linejoin="bevel"/>
<path d="M195 831.5L308.5 910.5M308.5 910.5L195 974M308.5 910.5L329.5 801.5M308.5 910.5L317 1017.5M308.5 910.5L366 942.25M317 1017.5L242.5 1113L370.25 1146.87M317 1017.5L370.25 995.75M423.5 974L366 942.25M423.5 974L523 910.5M423.5 974L370.25 995.75M366 942.25L460 814L523 910.5M523 910.5L560.625 962.875M374.5 1148L317 1267L460 1249M374.5 1148L460 1249M374.5 1148L370.25 1146.87M460 1249L497.25 1148M460 1249L413 1333M523 1407.5L366 1417L413 1333M523 1407.5L564 1512.5L674.5 1393.5M523 1407.5L674.5 1393.5M523 1407.5L607.5 1274M674.5 1393.5L796.5 1469V1315M674.5 1393.5L607.5 1274M796.5 1315L941 1298L840 1245.59M796.5 1315L716.5 1181.5M716.5 1181.5L840 1245.59M716.5 1181.5L607.5 1274M716.5 1181.5L497.25 1148M716.5 1181.5L662 983.5L598.25 1015.25M840 1245.59L963.5 1084.5L778.5 1047M778.5 1047L871 990.75M778.5 1047L694.906 964.594M848.5 859L895 763.5L963.5 934.5L871 990.75M848.5 859L952.5 934.5M848.5 859L725 773.5L694.906 964.594M848.5 859L871 990.75M370.25 995.75L534.5 1047M534.5 1047L370.25 1146.87M534.5 1047L497.25 1148M534.5 1047L598.25 1015.25M497.25 1148L607.5 1274M607.5 1274L413 1333M598.25 1015.25L560.625 962.875M560.625 962.875L611.312 882.188M662 801.5L611.312 882.188M611.312 882.188L694.906 964.594" stroke="url(#paint3_linear_44_66)" stroke-width="10"/>
<circle cx="736.5" cy="517.5" r="10" fill="url(#paint4_diamond_44_66)"/>
<ellipse cx="530.901" cy="1045.51" rx="16.901" ry="17.5114" fill="url(#paint5_diamond_44_66)"/>
<ellipse cx="377.901" cy="1155.51" rx="16.901" ry="17.5114" fill="url(#paint6_diamond_44_66)"/>
<ellipse cx="521.901" cy="917.511" rx="16.901" ry="17.5114" fill="url(#paint7_diamond_44_66)"/>
<ellipse cx="772.901" cy="1045.51" rx="16.901" ry="17.5114" fill="url(#paint8_diamond_44_66)"/>
<ellipse cx="304.901" cy="917.511" rx="16.901" ry="17.5114" fill="url(#paint9_diamond_44_66)"/>
<ellipse cx="608.901" cy="1281.51" rx="16.901" ry="17.5114" fill="url(#paint10_diamond_44_66)"/>
<ellipse cx="530.901" cy="1403.51" rx="16.901" ry="17.5114" fill="url(#paint11_diamond_44_66)"/>
<ellipse cx="851.901" cy="861.511" rx="16.901" ry="17.5114" fill="url(#paint12_diamond_44_66)"/>
<ellipse cx="708.901" cy="1190.51" rx="16.901" ry="17.5114" fill="url(#paint13_diamond_44_66)"/>
<circle cx="780.5" cy="377.5" r="10" fill="url(#paint14_diamond_44_66)"/>
<circle cx="869.5" cy="517.5" r="10" fill="url(#paint15_diamond_44_66)"/>
<circle cx="562.5" cy="608.5" r="10" fill="url(#paint16_diamond_44_66)"/>
<circle cx="935.5" cy="182.5" r="10" fill="url(#paint17_diamond_44_66)"/>
<circle cx="969.5" cy="398.5" r="10" fill="url(#paint18_diamond_44_66)"/>
<circle cx="869.5" cy="292.5" r="10" fill="url(#paint19_diamond_44_66)"/>
<circle cx="455.5" cy="479.5" r="10" fill="url(#paint20_diamond_44_66)"/>
<defs>
<linearGradient id="paint0_linear_44_66" x1="660.5" y1="226.419" x2="660.5" y2="626.625" gradientUnits="userSpaceOnUse">
<stop stop-color="#0091B1"/>
<stop offset="1" stop-color="#0AEBDD"/>
</linearGradient>
<linearGradient id="paint1_linear_44_66" x1="573.5" y1="553" x2="573.5" y2="1863" gradientUnits="userSpaceOnUse">
<stop stop-color="#0091B1"/>
<stop offset="1" stop-color="#0AEBDD"/>
</linearGradient>
<linearGradient id="paint2_linear_44_66" x1="669.75" y1="115" x2="669.75" y2="639.698" gradientUnits="userSpaceOnUse">
<stop stop-color="#0091B1"/>
<stop offset="1" stop-color="#0AEBDD"/>
</linearGradient>
<linearGradient id="paint3_linear_44_66" x1="579.25" y1="763.5" x2="579.25" y2="1512.5" gradientUnits="userSpaceOnUse">
<stop stop-color="#028BCB"/>
<stop offset="0.0001" stop-color="#0288C9"/>
<stop offset="0.588542" stop-color="#25A7C4"/>
<stop offset="1" stop-color="#1CFBC5"/>
</linearGradient>
<radialGradient id="paint4_diamond_44_66" cx="0" cy="0" r="1" gradientUnits="userSpaceOnUse" gradientTransform="translate(736.5 517.5) rotate(90) scale(10)">
<stop stop-color="white"/>
<stop offset="0.5" stop-color="#93E5F7"/>
<stop offset="1" stop-color="#25A7C4"/>
</radialGradient>
<radialGradient id="paint5_diamond_44_66" cx="0" cy="0" r="1" gradientUnits="userSpaceOnUse" gradientTransform="translate(530.901 1045.51) rotate(90) scale(17.5114 16.901)">
<stop stop-color="white"/>
<stop offset="0.5" stop-color="#93E5F7"/>
<stop offset="1" stop-color="#25A7C4"/>
</radialGradient>
<radialGradient id="paint6_diamond_44_66" cx="0" cy="0" r="1" gradientUnits="userSpaceOnUse" gradientTransform="translate(377.901 1155.51) rotate(90) scale(17.5114 16.901)">
<stop stop-color="white"/>
<stop offset="0.5" stop-color="#93E5F7"/>
<stop offset="1" stop-color="#25A7C4"/>
</radialGradient>
<radialGradient id="paint7_diamond_44_66" cx="0" cy="0" r="1" gradientUnits="userSpaceOnUse" gradientTransform="translate(521.901 917.511) rotate(90) scale(17.5114 16.901)">
<stop stop-color="white"/>
<stop offset="0.5" stop-color="#93E5F7"/>
<stop offset="1" stop-color="#25A7C4"/>
</radialGradient>
<radialGradient id="paint8_diamond_44_66" cx="0" cy="0" r="1" gradientUnits="userSpaceOnUse" gradientTransform="translate(772.901 1045.51) rotate(90) scale(17.5114 16.901)">
<stop stop-color="white"/>
<stop offset="0.5" stop-color="#93E5F7"/>
<stop offset="1" stop-color="#25A7C4"/>
</radialGradient>
<radialGradient id="paint9_diamond_44_66" cx="0" cy="0" r="1" gradientUnits="userSpaceOnUse" gradientTransform="translate(304.901 917.511) rotate(90) scale(17.5114 16.901)">
<stop stop-color="white"/>
<stop offset="0.5" stop-color="#93E5F7"/>
<stop offset="1" stop-color="#25A7C4"/>
</radialGradient>
<radialGradient id="paint10_diamond_44_66" cx="0" cy="0" r="1" gradientUnits="userSpaceOnUse" gradientTransform="translate(608.901 1281.51) rotate(90) scale(17.5114 16.901)">
<stop stop-color="white"/>
<stop offset="0.5" stop-color="#93E5F7"/>
<stop offset="1" stop-color="#25A7C4"/>
</radialGradient>
<radialGradient id="paint11_diamond_44_66" cx="0" cy="0" r="1" gradientUnits="userSpaceOnUse" gradientTransform="translate(530.901 1403.51) rotate(90) scale(17.5114 16.901)">
<stop stop-color="white"/>
<stop offset="0.5" stop-color="#93E5F7"/>
<stop offset="1" stop-color="#25A7C4"/>
</radialGradient>
<radialGradient id="paint12_diamond_44_66" cx="0" cy="0" r="1" gradientUnits="userSpaceOnUse" gradientTransform="translate(851.901 861.511) rotate(90) scale(17.5114 16.901)">
<stop stop-color="white"/>
<stop offset="0.5" stop-color="#93E5F7"/>
<stop offset="1" stop-color="#25A7C4"/>
</radialGradient>
<radialGradient id="paint13_diamond_44_66" cx="0" cy="0" r="1" gradientUnits="userSpaceOnUse" gradientTransform="translate(708.901 1190.51) rotate(90) scale(17.5114 16.901)">
<stop stop-color="white"/>
<stop offset="0.5" stop-color="#93E5F7"/>
<stop offset="1" stop-color="#25A7C4"/>
</radialGradient>
<radialGradient id="paint14_diamond_44_66" cx="0" cy="0" r="1" gradientUnits="userSpaceOnUse" gradientTransform="translate(780.5 377.5) rotate(90) scale(10)">
<stop stop-color="white"/>
<stop offset="0.5" stop-color="#93E5F7"/>
<stop offset="1" stop-color="#25A7C4"/>
</radialGradient>
<radialGradient id="paint15_diamond_44_66" cx="0" cy="0" r="1" gradientUnits="userSpaceOnUse" gradientTransform="translate(869.5 517.5) rotate(90) scale(10)">
<stop stop-color="white"/>
<stop offset="0.5" stop-color="#93E5F7"/>
<stop offset="1" stop-color="#25A7C4"/>
</radialGradient>
<radialGradient id="paint16_diamond_44_66" cx="0" cy="0" r="1" gradientUnits="userSpaceOnUse" gradientTransform="translate(562.5 608.5) rotate(90) scale(10)">
<stop stop-color="white"/>
<stop offset="0.5" stop-color="#93E5F7"/>
<stop offset="1" stop-color="#25A7C4"/>
</radialGradient>
<radialGradient id="paint17_diamond_44_66" cx="0" cy="0" r="1" gradientUnits="userSpaceOnUse" gradientTransform="translate(935.5 182.5) rotate(90) scale(10)">
<stop stop-color="white"/>
<stop offset="0.5" stop-color="#93E5F7"/>
<stop offset="1" stop-color="#25A7C4"/>
</radialGradient>
<radialGradient id="paint18_diamond_44_66" cx="0" cy="0" r="1" gradientUnits="userSpaceOnUse" gradientTransform="translate(969.5 398.5) rotate(90) scale(10)">
<stop stop-color="white"/>
<stop offset="0.5" stop-color="#93E5F7"/>
<stop offset="1" stop-color="#25A7C4"/>
</radialGradient>
<radialGradient id="paint19_diamond_44_66" cx="0" cy="0" r="1" gradientUnits="userSpaceOnUse" gradientTransform="translate(869.5 292.5) rotate(90) scale(10)">
<stop stop-color="white"/>
<stop offset="0.5" stop-color="#93E5F7"/>
<stop offset="1" stop-color="#25A7C4"/>
</radialGradient>
<radialGradient id="paint20_diamond_44_66" cx="0" cy="0" r="1" gradientUnits="userSpaceOnUse" gradientTransform="translate(455.5 479.5) rotate(90) scale(10)">
<stop stop-color="white"/>
<stop offset="0.5" stop-color="#93E5F7"/>
<stop offset="1" stop-color="#25A7C4"/>
</radialGradient>
</defs>
</svg>
