<svg width="610" height="610" viewBox="0 0 1616 1732" fill="none" xmlns="http://www.w3.org/2000/svg">
<path d="M564.058 680.193L584.393 646.663L550.796 622.578L575.993 566.379L550.796 520.569" stroke="url(#paint0_linear_38_204)" stroke-width="10" stroke-linecap="round" stroke-linejoin="bevel"/>
<path d="M911.961 773.701L945.558 694.362L929.201 630.606L977.386 563.073V475.705L1034.41 412.894V351.973" stroke="url(#paint1_linear_38_204)" stroke-width="10" stroke-linecap="round" stroke-linejoin="bevel"/>
<path d="M1191.79 670.276L1215.66 617.855L1179.41 570.629L1215.66 515.375L1204.61 449.731L1251.02 384.559V326.471" stroke="url(#paint2_linear_38_204)" stroke-width="10" stroke-linecap="round" stroke-linejoin="bevel"/>
<path d="M1396.9 954.577L1423.87 939.465L1441.55 910.184L1458.35 861.069H1474.71H1494.6L1517.59 867.209L1540.57 861.069L1556.93 848.791L1561.35 838.873L1575.94 820.455L1594.51 811.01" stroke="url(#paint3_linear_38_204)" stroke-width="20" stroke-linecap="round" stroke-linejoin="bevel"/>
<path d="M963.683 919.157L1001.26 904.044L1026.01 886.098L1044.14 877.598H1070.22L1110.45 895.544L1157.31 919.157L1207.7 929.074H1241.74L1270.03 904.044H1297.44L1314.24 919.157L1345.62 929.074L1381.43 956.465" stroke="url(#paint4_linear_38_204)" stroke-width="20" stroke-linecap="round" stroke-linejoin="bevel"/>
<path d="M17.2266 859.18H57.4543L98.1241 875.709L115.807 897.433L140.12 913.49H167.97L193.168 905.461L227.206 897.433L254.172 913.49L263.013 927.185" stroke="url(#paint5_linear_38_204)" stroke-width="20" stroke-linecap="round" stroke-linejoin="bevel"/>
<path d="M347.889 941.825L384.58 924.352H413.756L441.606 941.825L474.319 956.937L510.126 966.383H548.143L579.53 956.937L603.843 941.825L636.556 914.906H655.564L686.067 924.352L717.895 932.38H751.934L774.921 914.906L801.445 893.182L821.78 882.32H839.462L882.343 902.628" stroke="url(#paint6_linear_38_204)" stroke-width="20" stroke-linecap="round" stroke-linejoin="bevel"/>
<path d="M923.455 1058.47L967.219 1000.39H930.307M914.614 878.071L938.485 905.462L893.395 1000.39H930.307M914.614 878.071L930.307 1000.39M914.614 878.071L930.307 816.677L905.33 761.895" stroke="url(#paint7_linear_38_204)" stroke-width="10" stroke-linecap="round" stroke-linejoin="bevel"/>
<path d="M1268.71 49.2529L1281.31 93.1732M1281.31 93.1732L1293.9 137.093V234.851L1281.97 308.524L1260.75 368.029L1243.95 414.783L1219.64 457.286L1208.14 543.237V598.964L1235.11 667.914H1190.46L1180.29 612.187V555.044L1196.21 463.425L1219.64 387.391L1250.58 320.803L1268.71 258.937L1276.22 190.931L1281.31 93.1732Z" stroke="url(#paint8_linear_38_204)" stroke-width="20" stroke-linecap="round" stroke-linejoin="bevel"/>
<path d="M905.33 872.875L892.51 933.325L883.227 982.912L892.51 1030.14L914.172 1056.58L941.579 1064.61L965.893 1056.58L977.829 1030.14V994.246L965.893 955.521L950.421 919.629L941.579 872.875L934.948 825.649V774.645L941.579 712.307L950.421 669.803L965.893 608.882L981.365 552.211L1002.14 503.095L1018.94 462.481L1047.67 392.114L1070.66 328.359L1086.13 276.41L1098.07 215.017L1105.58 154.567L1098.07 82.7836M1098.07 82.7836L1077.29 11M1098.07 82.7836L1086.13 122.453V146.067V193.293L1077.29 232.962L1070.66 276.41L1052.54 311.83L1025.57 379.363L1002.14 430.84L971.198 498.373L941.579 568.74L924.781 634.856L905.33 712.307L901.352 780.312V872.875M629.925 64.8377L645.397 181.014L629.925 276.41L610.474 351.972L583.951 413.366L564.5 462.481L557.427 503.095L546.817 538.987V585.741V643.829L557.427 669.803V682.082H595.444L583.951 643.829L572.457 585.741V538.987V493.65L595.444 444.063L610.474 399.67L623.294 351.972L638.324 318.442L646.282 282.55L663.522 181.014L629.925 64.8377Z" stroke="url(#paint9_linear_38_204)" stroke-width="20" stroke-linecap="round" stroke-linejoin="bevel"/>
<path d="M302.799 1059.42L348.331 1024M348.331 1024L275.833 1002.27L302.799 971.105M348.331 1024L302.799 971.105M302.799 971.105L301.063 957.882M329.765 922.462L301.063 957.882M301.063 957.882L296.168 887.043L318.713 852.095L301.063 812.425L318.713 734.502L302.799 675.47L344.353 626.355L333.301 564.961" stroke="url(#paint10_linear_38_204)" stroke-width="10" stroke-linecap="round" stroke-linejoin="bevel"/>
<path d="M460.615 25.6406L461.45 33.6691M461.45 33.6691L473.877 153.151V215.489L440.28 296.718L421.271 372.752L383.696 461.537L362.919 508.291L338.163 561.184L316.502 632.495L294.399 702.862V747.727V802.509V879.96L278.485 921.991L269.644 964.022V1006.05L278.485 1048.08L306.335 1065.56L338.163 1077.84L362.919 1048.08V1006.05L347.005 972.051L332.416 928.603L322.249 884.683L316.502 794.481L322.249 723.169L332.416 663.665L347.005 610.771L362.919 553.156L383.696 498.846L408.451 449.258L440.28 385.031L456.194 324.582L485.37 229.657V153.151V97.4242L461.45 33.6691Z" stroke="url(#paint11_linear_38_204)" stroke-width="20" stroke-linecap="round" stroke-linejoin="bevel"/>
<path d="M6.17482 1523.18L38.4454 1510.43H95.9136L148.961 1523.18L204.661 1537.82H259.919H330.649H421.714H484.929L545.933 1523.18L622.852 1510.43H707.728H794.815L812.497 1512.87M6.17482 1523.18V1617.16L1384.97 1720.11L1606 1549.15V1481.15H1597.6M6.17482 1523.18V1475.95M1597.6 1481.15H1560.47L1548.97 1485.98M1597.6 1481.15V1442.89M1597.6 1404.64V1362.61C1593.33 1362.61 1579.92 1364.03 1560.47 1369.69C1541.02 1375.36 1541.16 1377.41 1543.67 1377.72L1521.12 1383.86L1495.93 1369.69H1475.59L1449.51 1377.72L1440.67 1362.61L1414.59 1349.86H1384.97L1317.33 1335.22H1268.71L1204.61 1343.25L1148.47 1349.86H1115.97M1597.6 1404.64H1574.61L1532.62 1396.61L1495.93 1422.11H1475.59L1431.39 1396.61H1398.67L1348.72 1404.64L1268.71 1396.61H1213.45L1160.84 1377.72L1115.97 1349.86M1597.6 1404.64V1442.89M1115.97 1349.86H1083.48L1026.01 1335.22H987.996H936.275L873.502 1349.86L834.158 1358.08M1597.6 1442.89L1560.47 1433.45L1532.62 1442.89M1532.62 1442.89L1495.93 1462.26M1532.62 1442.89L1506.54 1433.45H1486.2L1464.98 1428.73L1449.51 1433.45L1436.69 1442.89V1456.53M1495.93 1462.26H1449.51L1436.69 1456.53M1495.93 1462.26L1532.62 1469.34L1548.97 1485.98M1495.93 1462.26C1479.66 1477.37 1468.52 1496.89 1464.98 1504.76L1449.51 1523.18H1414.59L1384.97 1517.51L1343.41 1510.43H1281.08H1204.61L1160.84 1497.68H1110.89H1071.1H1026.01H977.829L945.558 1504.76L899.584 1510.43L812.497 1512.87M834.158 1358.08L812.497 1362.61L790.836 1358.82M834.158 1358.08L945.558 1377.72L1049.44 1404.64L1160.84 1442.89H1191.35M1548.97 1485.98L1521.12 1497.68L1475.59 1549.15L1384.97 1602.99L1256.33 1582.21L1071.1 1562.85L1032.64 1554.55M812.497 1512.87L887.206 1523.18L1032.64 1554.55M1449.51 1556.24L1398.67 1562.85H1369.94H1337.67M1337.67 1562.85L1331.04 1560.34M1337.67 1562.85H1301.42L1268.71 1556.24C1271.51 1558.6 1269.86 1561.9 1240.86 1556.24C1211.86 1550.57 1177.79 1541.28 1164.38 1537.35C1166 1537.35 1163.41 1537.35 1140.07 1537.35C1084.9 1537.35 1056.66 1540.18 1049.44 1541.6L1032.64 1554.55M1331.04 1560.34L1301.42 1549.15L1268.71 1541.6L1240.86 1532.15L1213.45 1517.51L1331.04 1560.34ZM1436.69 1456.53L1384.97 1433.45L1317.33 1442.89H1228.48H1204.61M1436.69 1456.53L1419.89 1469.34L1402.21 1485.98L1384.97 1490.12L1353.14 1481.15L1321.75 1469.34H1288.6L1204.61 1442.89M1204.61 1442.89H1191.35M1191.35 1442.89L1123.71 1455.17L1063.15 1463.2L1011.87 1473.59H910.635L854.051 1463.2L754.587 1440.06L686.067 1430.62L653.797 1427.78L595.002 1425.42L554.333 1432.98L516.757 1440.06L477.414 1447.14H384.139L335.954 1440.06L292.189 1432.98L256.382 1424L196.704 1420.7L148.961 1415.98H102.102H72.0422L42.424 1424L25.6256 1428.73H6.17482M6.17482 1428.73V1365.92M6.17482 1428.73V1475.95M6.17482 1365.92V1280.44C4.55393 1280.28 13.5131 1282.14 62.3168 1290.83C111.121 1299.52 161.634 1308.61 180.79 1312.08L222.344 1335.22C229.564 1340.1 250.724 1349.86 277.601 1349.86C279.443 1349.86 281.363 1349.86 283.348 1349.86M6.17482 1365.92L42.424 1372.53L72.0422 1376.31H102.102H137.025L168.854 1365.92H196.704L225.438 1357.89H245.773L283.348 1349.86M283.348 1349.86C293.33 1349.86 304.952 1349.86 316.503 1349.86M316.503 1349.86C336.177 1349.86 355.646 1349.86 366.456 1349.86L439.396 1335.22H502.611C505.853 1324.04 524.98 1303.77 575.552 1312.08C626.124 1320.39 670.3 1330.97 686.067 1335.22L739.557 1349.86L790.836 1358.82M316.503 1349.86L335.954 1357.89L352.752 1362.14L377.95 1365.92L401.821 1377.72H434.092L463.268 1387.64L498.191 1391.42L525.157 1396.14H554.333H584.393L620.2 1393.78L648.934 1387.64L674.574 1384.33L702.866 1377.72L730.274 1369.22L754.587 1365.92L790.836 1358.82M6.17482 1475.95H29.6042L57.4541 1466.51H95.9136H124.648L148.961 1475.95L180.79 1480.68L204.661 1488.7H225.438L256.382 1493.9L292.189 1499.09H330.649L356.731 1488.7L384.139 1484.93L406.242 1475.95L439.396 1466.51H469.899" stroke="url(#paint12_linear_38_204)" stroke-width="10" stroke-linecap="round" stroke-linejoin="bevel"/>
<path d="M470.782 1467.92L498.632 1464.15L536.208 1467.92L569.804 1474.06L602.075 1478.31L626.388 1483.51L649.818 1490.12L675.015 1495.31H697.118L730.715 1502.87H770.059L788.625 1509.01" stroke="url(#paint13_linear_38_204)" stroke-width="5" stroke-linecap="round" stroke-linejoin="bevel"/>
<path d="M10.5947 704.279V1615.74L1386.74 1722M10.5947 704.279H40.2129H71.1573L110.059 686.805L145.866 662.247L167.527 640.996L198.471 597.548L228.09 572.99L313.408 586.214L350.541 597.548H392.537L480.95 607.938H577.319H643.629H729.389L801.887 597.548L898.257 586.214H971.197H1058.28H1146.7L1219.19 597.548H1289.48L1386.74 607.938L1474.26 618.327L1596.72 607.938M10.5947 704.279L110.059 735.448L184.767 753.394L238.699 763.783L293.073 777.007H383.254H454.426L539.744 786.924H609.59L688.719 777.007H760.333L814.707 763.783H874.827L957.051 753.394H1026.9H1090.55H1146.7L1219.19 763.783H1275.34L1331.04 777.007H1386.74M1386.74 1722L1606 1544.9L1596.72 607.938M1386.74 1722V777.007M1596.72 607.938L1561.79 653.275L1537.92 670.748L1506.54 686.805L1460.56 714.196L1386.74 777.007" stroke="url(#paint14_linear_38_204)" stroke-width="20" stroke-linecap="round" stroke-linejoin="bevel"/>
<path d="M12.3633 1102.39H58.3378L99.8917 1114.2L141.446 1130.26L176.811 1143.48L219.691 1153.4H261.245H302.799L341.258 1143.48L385.906 1130.26L421.271 1102.39H464.151H498.19L530.461 1114.2L564.058 1130.26L605.612 1153.4L637.882 1176.54L668.826 1191.18H705.518L750.166 1176.54L791.72 1164.73L822.222 1143.48L865.544 1130.26L899.141 1114.2H939.369H976.06L1005.24 1130.26L1043.7 1153.4L1074.64 1176.54L1119.29 1191.18H1146.7H1183.83H1226.71L1265.17 1176.54L1297.44 1164.73H1327.94L1372.59 1176.54" stroke="url(#paint15_linear_38_204)" stroke-width="10" stroke-linecap="round" stroke-linejoin="bevel"/>
<path d="M1398.67 1189.76L1432.71 1164.73H1457.47L1483.55 1174.65L1504.77 1164.73L1525.1 1140.17L1540.13 1107.59L1558.7 1082.56L1586.55 1071.22" stroke="url(#paint16_linear_38_204)" stroke-width="10" stroke-linecap="round" stroke-linejoin="bevel"/>
<path d="M18.9941 1105.23L107.849 1295.08L196.703 1222.35M196.703 1222.35L266.107 1351.28V1253.05M196.703 1222.35L266.107 1154.81V1253.05M266.107 1253.05L379.275 1132.62M266.107 1253.05L410.22 1336.16L511.894 1105.23L548.777 1222.35M631.693 1260.6L575.993 1308.77L548.777 1222.35M631.693 1260.6L548.777 1222.35M631.693 1260.6L708.612 1193.07L760.333 1286.58M760.333 1286.58L684.299 1336.16M760.333 1286.58L848.746 1351.28L760.333 1295.08L838.579 1143.95L946.442 1222.35M946.442 1222.35L906.656 1336.16M946.442 1222.35L1029.11 1143.95L1049.44 1253.05M946.442 1222.35L1049.44 1253.05M1049.44 1253.05L1007 1336.16M1049.44 1253.05L1126.8 1351.28L1219.19 1253.05M1049.44 1253.05L1157.75 1193.07L1219.19 1253.05M1219.19 1253.05L1242.62 1336.16M1219.19 1253.05L1309.38 1171.34V1336.16L1378.78 1183.62" stroke="url(#paint17_linear_38_204)" stroke-width="10" stroke-linecap="round" stroke-linejoin="bevel"/>
<path d="M1395.58 1198.26L1438.02 1363.55L1484.43 1289.88V1179.37L1565.77 1241.71L1491.95 1289.88L1531.73 1381.5L1591.85 1069.34" stroke="url(#paint18_linear_38_204)" stroke-width="10" stroke-linecap="round" stroke-linejoin="bevel"/>
<defs>
<linearGradient id="paint0_linear_38_204" x1="567.594" y1="556.26" x2="567.594" y2="679.769" gradientUnits="userSpaceOnUse">
<stop stop-color="#0091B1"/>
<stop offset="1" stop-color="#0AEBDD"/>
</linearGradient>
<linearGradient id="paint1_linear_38_204" x1="973.187" y1="446.269" x2="973.187" y2="772.58" gradientUnits="userSpaceOnUse">
<stop stop-color="#0091B1"/>
<stop offset="1" stop-color="#0AEBDD"/>
</linearGradient>
<linearGradient id="paint2_linear_38_204" x1="1215.22" y1="403.344" x2="1215.22" y2="669.363" gradientUnits="userSpaceOnUse">
<stop stop-color="#0091B1"/>
<stop offset="1" stop-color="#0AEBDD"/>
</linearGradient>
<linearGradient id="paint3_linear_38_204" x1="1495.71" y1="843.111" x2="1495.71" y2="954.195" gradientUnits="userSpaceOnUse">
<stop stop-color="#0091B1"/>
<stop offset="1" stop-color="#0AEBDD"/>
</linearGradient>
<linearGradient id="paint4_linear_38_204" x1="1167.69" y1="895.021" x2="1167.69" y2="955.314" gradientUnits="userSpaceOnUse">
<stop stop-color="#0091B1"/>
<stop offset="1" stop-color="#0AEBDD"/>
</linearGradient>
<linearGradient id="paint5_linear_38_204" x1="140.12" y1="874.385" x2="140.12" y2="927.004" gradientUnits="userSpaceOnUse">
<stop stop-color="#0091B1"/>
<stop offset="1" stop-color="#0AEBDD"/>
</linearGradient>
<linearGradient id="paint6_linear_38_204" x1="615.116" y1="901.116" x2="615.116" y2="966.159" gradientUnits="userSpaceOnUse">
<stop stop-color="#0091B1"/>
<stop offset="1" stop-color="#0AEBDD"/>
</linearGradient>
<linearGradient id="paint7_linear_38_204" x1="930.307" y1="828.208" x2="930.307" y2="1057.69" gradientUnits="userSpaceOnUse">
<stop stop-color="#0091B1"/>
<stop offset="1" stop-color="#0AEBDD"/>
</linearGradient>
<linearGradient id="paint8_linear_38_204" x1="1237.1" y1="187.582" x2="1237.1" y2="666.27" gradientUnits="userSpaceOnUse">
<stop stop-color="#0091B1"/>
<stop offset="1" stop-color="#0AEBDD"/>
</linearGradient>
<linearGradient id="paint9_linear_38_204" x1="826.201" y1="246.582" x2="826.201" y2="1061.81" gradientUnits="userSpaceOnUse">
<stop stop-color="#0091B1"/>
<stop offset="1" stop-color="#0AEBDD"/>
</linearGradient>
<linearGradient id="paint10_linear_38_204" x1="312.082" y1="930.718" x2="312.082" y2="1058.98" gradientUnits="userSpaceOnUse">
<stop stop-color="#0091B1"/>
<stop offset="1" stop-color="#0AEBDD"/>
</linearGradient>
<linearGradient id="paint11_linear_38_204" x1="377.507" y1="260.906" x2="377.507" y2="1075.04" gradientUnits="userSpaceOnUse">
<stop stop-color="#0091B1"/>
<stop offset="1" stop-color="#0AEBDD"/>
</linearGradient>
<linearGradient id="paint12_linear_38_204" x1="806" y1="1368.03" x2="806" y2="1718.91" gradientUnits="userSpaceOnUse">
<stop stop-color="#0091B1"/>
<stop offset="1" stop-color="#0AEBDD"/>
</linearGradient>
<linearGradient id="paint13_linear_38_204" x1="629.704" y1="1473.08" x2="629.704" y2="1508.89" gradientUnits="userSpaceOnUse">
<stop stop-color="#0091B1"/>
<stop offset="1" stop-color="#0AEBDD"/>
</linearGradient>
<linearGradient id="paint14_linear_38_204" x1="808.297" y1="829.903" x2="808.297" y2="1718.95" gradientUnits="userSpaceOnUse">
<stop stop-color="#0091B1"/>
<stop offset="1" stop-color="#0AEBDD"/>
</linearGradient>
<linearGradient id="paint15_linear_38_204" x1="692.477" y1="1122.25" x2="692.477" y2="1190.94" gradientUnits="userSpaceOnUse">
<stop stop-color="#0091B1"/>
<stop offset="1" stop-color="#0AEBDD"/>
</linearGradient>
<linearGradient id="paint16_linear_38_204" x1="1492.61" y1="1097.73" x2="1492.61" y2="1189.45" gradientUnits="userSpaceOnUse">
<stop stop-color="#0091B1"/>
<stop offset="1" stop-color="#0AEBDD"/>
</linearGradient>
<linearGradient id="paint17_linear_38_204" x1="698.887" y1="1160.24" x2="698.887" y2="1350.62" gradientUnits="userSpaceOnUse">
<stop stop-color="#0091B1"/>
<stop offset="1" stop-color="#0AEBDD"/>
</linearGradient>
<linearGradient id="paint18_linear_38_204" x1="1493.72" y1="1139.13" x2="1493.72" y2="1380.67" gradientUnits="userSpaceOnUse">
<stop stop-color="#0091B1"/>
<stop offset="1" stop-color="#0AEBDD"/>
</linearGradient>
</defs>
</svg>
