<svg width="2410" height="2363" viewBox="0 0 2410 2363" fill="none" xmlns="http://www.w3.org/2000/svg">
<path d="M1546.22 139.292L1543.27 161.922L1537.76 199.706L1533.04 236.112L1529.5 263.859L1522.62 253.429L1509.44 228.634L1495.87 176.091V151.886V131.42L1502.33 120.99L1513.38 124.532L1517.51 137.717V151.886V169.597L1513.38 180.617L1509.44 194.786L1502.33 201.083" stroke="#04C0FD" stroke-width="10"/>
<path d="M2004.07 211.905L1977.32 223.516L1956.67 232.175L1934.84 250.279L1904.16 268.58L1876.23 285.307L1851.45 292.392C1849.49 293.901 1838.16 298.532 1808.58 304.986C1779 311.441 1758.89 314.367 1752.53 315.023L1738.56 317.653M1738.56 72.9727L1730.89 83.5992L1718.9 106.82L1702.77 144.21L1688.61 182.584L1658.91 259.135L1635.71 311.874L1631.58 327.027L1635.71 337.85L1677.6 334.701L1735.81 318.171L1738.56 317.653M1738.56 317.653L1730.89 304.986L1724.4 278.617V251.263V206.395L1730.89 169.399L1735.81 154.837L1746.04 185.339L1756.26 206.395L1769.44 227.058L1791.86 251.263L1805.43 264.054L1823.72 278.617L1838.08 292.392L1833.36 272.91L1823.72 246.147L1812.32 221.942L1801.7 196.556L1786.16 166.25L1769.44 139.881L1760.39 122.17M1607.39 139.881L1610.34 169.399L1614.47 196.556V218.006V240.636L1616.83 260.315L1619.38 282.552L1627.45 264.054L1637.67 240.636L1645.74 214.464L1653.8 185.339L1658.91 161.331V139.881L1653.8 127.68L1649.87 122.957C1649.14 121.383 1638.66 119.061 1635.51 125.515C1632.36 131.97 1631.84 140.668 1631.97 144.21V154.837V172.548L1635.51 185.339L1641.61 218.006" stroke="#04C0FD" stroke-width="10"/>
<path d="M2044.98 1153.54L2063.66 1146.26L2078.21 1136.62C2080.9 1137.14 2087.26 1135.59 2091.19 1125.2C2095.13 1114.81 2097.16 1099.23 2097.68 1092.73L2091.19 1077.97L2086.47 1056.92L2072.51 1030.94L2063.66 1003.98L2040.85 964.229" stroke="#04C0FD" stroke-width="10"/>
<path d="M2068.58 1442.23L2094.93 1491.82L2116.76 1538.85L2145.08 1602.02L2171.24 1668.53L2198.97 1732.49L2230.83 1798.22L2257.18 1855.88" stroke="#04C0FD" stroke-width="10"/>
<path d="M1773.57 1874.96L1790.88 1860.2L1801.7 1846.82L1819 1821.24L1832.97 1804.71L1850.86 1785.42L1864.43 1773.03L1881.35 1760.24L1891.97 1754.33L1902 1745.67L1913.01 1738.2L1921.27 1725.99L1935.43 1712.22L1942.51 1697.46L1956.87 1677.98L1970.05 1663.02L1975.95 1655.35" stroke="#04C0FD" stroke-width="10"/>
<path d="M2120.5 1202.54L2153.74 1239.14L2174.39 1266.89L2192.09 1293.46L2212.54 1340.49" stroke="#04C0FD" stroke-width="10"/>
<path d="M2113.03 545.855L2137.22 618.077L2156.69 662.551L2166.52 700.334L2172.62 736.74L2183.43 811.717V895.155V994.336L2179.3 1062.43L2171.63 1104.54L2161.21 1141.73L2145.34 1174M2073.89 1240.32L2118.34 1205.49L2142.92 1178.92L2145.34 1174M2073.89 1240.32L2047.34 1251.54M2073.89 1240.32L2087.46 1273.58L2101.23 1321.99L2121.88 1401.49L2133.68 1452.85L2148.23 1504.22M2148.23 1504.22L2181.27 1555.77L2228.86 1641.57L2260.33 1709.27L2282.16 1783.85L2308.52 1855.29M2148.23 1504.22V1530.98L2152.36 1555.77L2163.96 1583.91L2188.15 1645.12L2211.95 1702.97L2228.86 1746.07L2247.74 1795.66L2266.43 1855.29M2145.34 1174L2163.96 1183.84L2175.76 1196.04L2190.51 1210.8L2203.3 1221.63L2213.13 1231.86" stroke="#04C0FD" stroke-width="10"/>
<path d="M1679.17 362.054L1720.27 334.307L1776.72 327.616C1775.21 329.387 1784.39 325.176 1815.86 320.925C1825.69 319.597 1834.37 318.478 1842.01 317.448M2115.97 240.439L2086.47 234.142C2073.95 233.289 2042.7 233.354 2017.84 240.439C1992.98 247.523 1985.32 251.787 1984.6 253.033C1978.7 255.723 1959.03 266.258 1927.56 286.881C1896.1 307.504 1878 313.579 1878.59 310.692C1870.62 313.353 1858.83 315.183 1842.01 317.448M1842.01 317.448L1915.57 339.03L1973.19 357.725L2026.1 370.122L2064.05 390.588L2091.98 426.404L2106.34 466.746L2115.97 518.304V549.2L2145.67 579.899L2192.28 645.43L2218.13 725.129M2220.01 1404.44L2212.93 1357.8V1304.47V1237.37L2220.01 1217.89L2231.72 1196.14M2220.01 1404.44L2236.93 1478.83L2245.97 1527.63L2252.66 1581.36L2265.25 1634.29L2286.68 1719.11L2311.47 1795.86L2323.66 1852.92M2220.01 1404.44L2257.97 1496.15L2280.78 1566.4L2308.52 1630.95L2330.54 1689.79L2346.87 1730.52L2355.13 1744.49L2362.4 1730.52V1698.64L2346.87 1625.24V1599.07L2340.38 1507.56V1418.61V1326.32L2346.47 1228.91M2231.72 1196.14L2243.42 1174.4L2257.77 1132.09L2262.89 1057.11L2266.43 1000.04V934.315L2256.59 862.094L2250.01 828.148M2231.72 1196.14L2248.14 1177.35L2257.77 1160.82L2268.79 1142.91L2285.31 1110.24L2295.93 1084.46L2308.52 1063.41M2218.13 725.129L2221.39 735.165L2243.42 794.202L2250.01 828.148M2218.13 725.129L2230.04 700.137L2243.42 645.43L2255.02 613.943L2263.28 564.156L2271.74 513.384V466.746V432.504M2250.01 828.148L2263.28 789.479L2271.74 760.944L2277.24 735.165" stroke="#04C0FD" stroke-width="10"/>
<path d="M1680.15 360.283L1661.08 380.356L1654.59 415.187L1648.1 466.352L1637.48 520.075L1625.48 565.927L1620.37 619.257L1615.45 683.607V736.74V773.933L1631.97 808.174L1651.64 835.921L1677.6 854.026L1734.43 873.508L1789.11 899.681L1822.35 904.207H1855.98L1889.61 892.203L1930.91 873.508L1969.06 845.957L2006.23 784.559L2031.41 726.31L2051.47 661.37L2066.41 592.1L2083.13 543.69L2106.34 466.352" stroke="#04C0FD" stroke-width="10"/>
<path d="M882.066 757.599C883.115 756.681 891.467 745.28 916.484 707.025C941.5 668.769 965.192 641.756 973.911 633.032L994.365 603.711L1022.29 551.365L1054.94 478.75" stroke="#04C0FD" stroke-width="10"/>
<path d="M808.118 682.229L811.264 728.868L817.755 760.748L827.981 806.009L842.535 849.303" stroke="#04C0FD" stroke-width="10"/>
<path d="M984.728 257.757L1014.82 266.416H1034.49M1034.49 266.416L1068.51 252.247L1171.96 279.994L1263.61 309.119L1344.04 325.846M1034.49 266.416L999.675 279.994L972.535 294.95L941.264 312.464L909.994 345.131L877.347 387.441L858.86 427.782L851.386 473.241L844.503 547.627L847.453 593.872L851.976 630.868L862.4 675.736L869.48 724.736L881.477 759.961L869.48 791.054L846.273 843.006L831.326 897.32L824.639 954.979L819.722 1032.51V1112.21L826.016 1157.08L837.422 1201.95L851.976 1242.09L856.696 1249.57H863.776L876.167 1242.09L909.6 1220.45L933.398 1201.95M1344.04 325.846L1407.96 330.569L1490.96 350.248L1498.82 365.204V403.971V440.377V451.397L1509.84 484.654L1532.85 539.165L1555.66 581.671L1563.53 657.631V718.439L1555.66 772.949L1539.93 806.994L1501.18 852.846L1396.16 892.4L1363.32 902.633H1319.46L1277.77 892.4L1238.83 880.79L1195.36 852.649L1159.37 810.536L1137.15 782.789L1113.15 734.576L1100.17 695.612L1083.46 642.479L1069.1 578.522L1058.09 504.136L1054.15 480.719L1076.57 448.642L1107.06 418.927L1148.95 397.871L1189.07 387.441L1247.28 365.4L1301.56 348.083L1344.04 325.846Z" stroke="#04C0FD" stroke-width="10"/>
<path d="M1640.03 1449.71H1661.47H1694.31L1724.99 1452.46H1751.35H1778.69L1809.76 1454.23L1806.61 1491.82L1803.47 1553.41L1798.94 1614.22L1791.86 1657.32L1781.83 1696.48L1766.69 1735.44L1754.1 1767.72L1739.75 1805.11L1726.76 1840.13L1716.93 1866.11L1710.44 1877.13" stroke="#04C0FD" stroke-width="10"/>
<path d="M1642.79 1449.51H1633.35V1463.68L1631.58 1472.53L1628.04 1478.24L1620.56 1489.85L1611.52 1495.75L1605.62 1501.26L1600.9 1511.3V1556.17L1597.55 1596.9V1649.05L1595 1685.06L1592.44 1717.14L1587.33 1756.1L1579.46 1818.49L1573.36 1876.15" stroke="#04C0FD" stroke-width="10"/>
<path d="M1563.92 1875.16L1573.17 1761.61V1713.2L1581.62 1661.45L1586.54 1614.61V1544.36V1504.61L1577.3 1498.11L1559.01 1491.03L1548.19 1477.65L1544.06 1461.32V1446.36H1530.49H1465.19H1414.26H1352.7V1475.68L1356.24 1510.12L1359.78 1566.4L1366.86 1625.83L1374.92 1683.88L1387.31 1741.35L1392.23 1791.13L1401.28 1829.7L1410.13 1852.53L1413.67 1875.16" stroke="#04C0FD" stroke-width="10"/>
<path d="M1061.62 1875.56L1080.51 1817.31L1102.14 1749.22L1122.79 1685.65L1137.34 1639.41L1144.42 1619.73L1171.37 1646.3L1201.26 1681.13L1225.25 1710.45L1253.77 1736.43L1278.75 1764.57L1310.81 1808.25L1331.85 1843.09L1340.9 1858.24L1350.73 1875.16" stroke="#04C0FD" stroke-width="10"/>
<path d="M653.928 1682.9L668.875 1661.25L677.725 1637.64L683.429 1596.51L690.902 1551.25L696.802 1510.32L700.736 1457.38V1404.05L705.062 1330.25V1232.65" stroke="#04C0FD" stroke-width="10"/>
<path d="M630.328 1856.47L644.488 1821.04C645.472 1820.45 648.068 1813.61 650.585 1790.94C653.103 1768.27 653.339 1754.46 653.142 1750.4L655.699 1714.98L653.142 1682.9L644.488 1651.02" stroke="#04C0FD" stroke-width="10"/>
<path d="M652.749 1764.57L696.41 1711.63L733.187 1649.25L772.718 1577.62L792.582 1529.6L818.739 1458.56L830.932 1412.51L836.242 1357.61V1310.97V1229.89L815.002 1188.17L798.482 1152.36L778.028 1111.23L754.624 1045.11" stroke="#04C0FD" stroke-width="10"/>
<path d="M696.606 1865.13L740.071 1783.66L767.014 1728.75L806.545 1661.65L848.829 1593.95L882.46 1539.44L892.293 1501.46L921.007 1423.93L958.375 1332.03L970.371 1301.72L978.042 1269.84" stroke="#04C0FD" stroke-width="10"/>
<path d="M684.019 1864.93L724.14 1767.52L774.881 1654.76L800.644 1564.04L818.738 1507.76L833.095 1447.54L854.925 1382.6L881.673 1320.61L914.32 1278.89L949.13 1245.05M949.13 1245.05L974.894 1268.46L989.448 1275.35H998.298M949.13 1245.05L939.1 1220.64L928.873 1174.99L921.007 1091.55V995.124L925.333 887.088L939.1 786.922L973.124 690.496L998.495 641.299L1038.42 590.527L1071.66 690.496L1089.16 786.922L1099.98 902.24L1104.3 1036.45L1134 1059.67M1134 1059.67L1175.3 1027L1178.94 1020.51M1134 1059.67L1138.33 1074.04L1153.47 1091.94L1166.65 1102.75M1282.88 1032.51L1301.17 1024.64L1308.05 1019.72L1313.76 999.454L1318.08 982.136L1313.76 946.518L1308.05 932.152L1266.75 924.084L1238.43 932.152L1214.44 950.257L1172.55 960.293L1138.33 963.245L1182.58 1014.02L1178.94 1020.51M1282.88 1032.51L1292.91 1049.44L1303.92 1070.49L1308.05 1096.67V1116.94L1303.92 1139.17L1288.19 1154.52H1280.13M1282.88 1032.51L1257.12 1029.37L1228.99 1024.64L1198.9 1022.67L1178.94 1020.51M1166.65 1102.75L1175.3 1109.85L1197.13 1126.58L1225.26 1139.17L1246.1 1151.96L1272.06 1154.52H1280.13M1166.65 1102.75L1156.81 1112.41L1148.16 1120.87L1143.24 1130.12L1138.33 1139.17L1129.48 1160.82M1280.13 1154.52L1288.19 1169.68L1297.24 1186.21L1300.19 1206.67V1226.74V1247.21L1301.76 1268.66L1297.24 1284.6L1292.52 1296.8L1280.13 1301.72L1269.7 1305.66M1269.7 1305.66L1243.74 1292.27L1222.9 1279.68L1197.92 1260.2L1171.96 1236.78L1160.75 1219.86L1143.24 1206.67M1269.7 1305.66L1284.26 1321.79L1294.48 1342.26L1300.78 1370.6L1302.15 1395.39L1294.48 1412.32L1279.93 1437.7L1268.13 1448.33L1263.8 1451.48L1261.51 1450.1M1157.99 1361.54L1160.55 1363.71L1165.86 1370.6L1181.79 1391.06L1201.85 1409.76L1224.86 1428.06L1261.51 1450.1M1261.51 1450.1L1281.7 1464.07L1298.42 1478.44L1309.82 1493.79L1311.99 1505.79V1521.34V1548.89V1575.45V1602.02V1632.52L1310.41 1666.76L1296.65 1702.38L1274.23 1718.13L1244.14 1705.14L1194.77 1654.17L1161.73 1620.91L1123.77 1580.18" stroke="#04C0FD" stroke-width="10"/>
<path d="M1138.92 963.441L1117.87 945.927L1101.35 929.396" stroke="#04C0FD" stroke-width="10"/>
<path d="M1605.42 1258.03L1623.12 1235.99H1667.37L1715.55 1241.7L1764.72 1252.72L1800.32 1263.94L1831.98 1285.98L1828.64 1355.84L1824.31 1411.72L1818.61 1431.4L1800.32 1446.75H1785.77L1709.26 1441.05H1649.67L1633.74 1428.06L1605.42 1389.49V1376.11V1258.03Z" stroke="#04C0FD" stroke-width="10"/>
<path d="M1337.75 1348.95L1340.5 1263.74L1365.48 1256.07L1390.85 1252.92L1421.53 1247.41L1453.79 1240.13L1484.07 1234.62H1515.93H1540.71H1564.71L1573.75 1243.86L1587.91 1269.25L1592.44 1333.99L1587.91 1388.9L1568.44 1416.05L1549.37 1426.88H1497.25H1417.99H1354.66L1350.93 1407L1337.75 1371.97V1348.95Z" stroke="#04C0FD" stroke-width="10"/>
<path d="M1344.24 1226.15V1151.37L1359.19 1127.76L1390.85 1112.41L1422.91 1091.55L1472.27 1067.94L1520.46 1047.08L1551.14 1038.81H1569.23L1584.18 1047.08L1592.44 1070.69V1193.88L1577.1 1217.49H1544.84L1481.52 1220.64L1430.19 1231.07L1387.11 1240.13H1352.3L1344.24 1226.15Z" stroke="#04C0FD" stroke-width="10"/>
<path d="M1383.38 11.7711V85.37L1318.28 127.089L1220.73 176.286L1145.41 212.495L1017.18 238.275L956.997 264.054L897.603 313.251L845.092 380.356L812.248 474.224L796.908 580.883L807.135 673.964L774.487 778.065L759.737 887.48L750.297 1045.89L745.183 1089.98L738.3 1117.53L695.229 1246.62L674.579 1331.04L662.582 1409.36L652.355 1503.23L645.472 1586.67L640.162 1652.99L629.935 1722.85L598.861 1855.48L766.031 1879.49L820.312 1761.02L901.143 1600.64L950.311 1489.46L982.761 1385.55L991.218 1346.98L1001.25 1288.93L1006.75 1191.12L1017.97 1096.67L1042.55 966.392L1087.78 1080.92L1128.49 1168.1L1138.52 1207.26L1151.9 1261.97L1156.42 1284.99V1368.23L1146.39 1419.01L1133.61 1453.64L1123.97 1556.56L1119.05 1592.38L1091.13 1664.4L1074.41 1734.26L1067.72 1796.84L1056.51 1879.49H1997.97L1986.96 1799.59L1982.44 1728.55L1976.93 1627.99L1982.44 1510.91L1973.78 1413.5L1966.51 1371.19V1292.47L1979.29 1222.61L1990.7 1135.24L2007.81 1081.32L2038.09 967.179V1090.76L2042.42 1255.67L2049.11 1359.58L2062.68 1432.78L2089.62 1510.91L2127.58 1615.4L2166.13 1709.47L2191.89 1776.96L2198.58 1824.98L2211.16 1860.01L2398 1855.09L2385.41 1770.47L2372.83 1663.22L2370.07 1495.56L2365.55 1326.12L2352.96 1241.31L2338.61 1158.85L2318.94 1102.77L2311.66 1063.21L2307.34 987.252V915.227L2295.34 799.319L2278.82 724.342L2276.06 673.768L2294.16 611.189L2291.4 524.208L2283.73 462.614L2267.8 401.019L2245.19 349.854L2208.41 300.46L2156.69 258.15L2083.13 221.154L2005.64 205.805L1936.42 202.066L1875.84 186.126L1811.53 155.23L1769.25 128.27L1744.46 100.719V67.8558L1749.97 14.9197L1381.21 10" stroke="#0288C9" stroke-width="20"/>
<path d="M1340.7 1113.2L1333.82 1103.16V1033.5L1340.7 986.268L1350.14 945.139L1365.48 918.77L1394.39 899.681L1424.29 887.874L1450.25 874.886L1489.19 858.552L1523.01 847.532H1544.84L1560.18 853.436L1568.84 887.874L1581.03 940.023V986.268L1573.75 995.32L1535.4 1018.54L1493.71 1038.81L1438.45 1065.57L1391.24 1094.7L1345.03 1115.95L1340.7 1113.2Z" stroke="#04C0FD" stroke-width="10"/>
<path d="M1765.12 1084.27L1819.59 1114.38L1831.59 1102.37L1836.51 1070.69V1036.84L1834.15 1002.41L1829.43 974.855L1816.64 940.81L1810.74 921.328L1797.96 904.601L1712.21 868.589L1665.6 851.271H1614.47L1605.62 875.083L1601.68 901.846V985.284L1614.47 1006.34L1641.61 1023.07L1674.45 1041.37L1721.26 1065.38L1765.12 1084.27Z" stroke="#04C0FD" stroke-width="10"/>
<path d="M1607.78 1057.11L1620.76 1045.11L1655.37 1050.03L1674.45 1057.11L1697.46 1067.35L1734.43 1084.27L1769.44 1102.37L1798.55 1120.67L1822.35 1138.98L1831.59 1162V1200.96V1229.11L1826.87 1247.6H1815.66L1788.91 1240.72L1734.43 1229.11L1704.54 1224.19L1614.07 1219.46L1603.85 1200.96V1187.78V1149.41L1602.08 1093.91L1603.85 1068.92L1607.78 1057.11Z" stroke="#04C0FD" stroke-width="10"/>
<path d="M1882.92 1169.48L1871.91 1185.02L1866.99 1193.88L1862.47 1210.02V1225.96V1242.49V1254.1V1269.05V1281.25L1865.02 1295.42L1871.91 1309.2L1877.41 1316.48M1877.41 1316.48L1887.44 1319.63L1899.44 1311.95L1914.58 1303.29L1927.56 1295.42L1948.61 1277.12L1963.16 1263.74L1968.47 1259.02M1877.41 1316.48V1328.48L1871.91 1341.67L1865.02 1350.13L1862.47 1359.18L1859.52 1368.23L1855.98 1382.21V1395.19C1855.98 1394.67 1855.98 1395.94 1855.98 1405.23C1855.98 1414.52 1855.98 1421.17 1855.98 1423.33V1431.4V1440.85L1862.47 1451.48L1866.99 1457.38L1871.91 1466.43L1877.41 1473.52M1877.41 1473.52L1884.49 1477.45L1894.52 1473.52L1906.52 1466.43L1914.58 1457.38L1927.56 1447.93L1938.58 1440.85C1938.71 1441.37 1940.9 1440.81 1948.61 1434.35C1956.32 1427.9 1962.83 1423.27 1965.13 1421.76L1968.47 1417.23M1877.41 1473.52L1869.74 1480.21L1865.42 1485.13L1859.52 1492.8L1854.4 1501.66C1853.75 1502.57 1851.37 1505.91 1847.13 1511.89C1842.88 1517.87 1840.9 1525.53 1840.44 1528.62L1839.46 1542.79L1836.51 1560.5V1572.7L1832.57 1590.8L1831.59 1600.25L1828.64 1615.2V1624.45V1639.8V1651.81V1667.75V1674.44C1828.64 1676.4 1828.64 1682.98 1828.64 1693.52C1828.64 1704.07 1828.64 1712.35 1828.64 1715.17L1824.51 1724.42L1819.4 1733.47L1816.45 1744.49V1757.09L1819.4 1768.89H1832.57L1845.36 1760.43L1856.37 1754.14L1866.01 1744.49L1876.04 1735.83L1887.05 1728.16L1899.05 1715.17L1914.39 1704.15L1924.42 1693.52L1935.43 1683.1L1946.44 1674.44L1958.05 1659.68L1972.8 1644.33M1864.04 925.656L1889.61 931.56L1908.49 938.448L1925.6 947.893L1943.69 961.669L1960.8 970.13L1972.01 978.789V991.777L1966.7 1004.57L1951.36 1019.92L1930.71 1026.81L1908.49 1031.13H1889.61L1872.5 1026.81L1855.39 1004.57L1846.73 978.789V957.339L1849.29 935.102L1864.04 925.656ZM1876.23 1039.01L1869.74 1055.34L1864.63 1069.51L1859.71 1090.37V1107.1V1125.2V1142.52L1866.99 1152.75L1876.23 1168.1L1889.61 1170.85L1903.37 1165.54L1914.58 1155.9L1930.71 1146.26L1942.9 1134.06L1958.25 1120.28L1968.47 1108.28L1983.03 1093.32L1987.35 1081.91V1069.51L1983.03 1055.34L1972.01 1041.96L1963.16 1031.13L1948.61 1026.81L1927.56 1033.5L1914.58 1039.01C1911.83 1039.01 1903.77 1039.01 1893.54 1039.01C1883.31 1039.01 1877.74 1039.01 1876.23 1039.01Z" stroke="#04C0FD" stroke-width="10"/>
<path d="M1129.28 218.991L1154.85 243.393L1196.34 266.811L1235.29 280.783L1296.45 298.1L1356.43 309.317H1412.49M1386.72 26.5322L1403.05 63.922L1422.32 103.477L1439.82 154.838L1461.85 224.698L1481.12 273.699L1504.53 313.253L1515.54 319.747C1515.93 322.305 1514.28 327.304 1504.53 326.831C1494.77 326.359 1453 314.959 1433.33 309.317H1412.49M1412.49 309.317C1411.54 290.111 1410.13 254.61 1409.54 239.261L1403.05 202.068L1399.9 164.678L1396.16 142.047C1396.16 140.67 1397.89 149.761 1386.72 171.172C1375.55 192.582 1361.88 212.76 1356.43 220.172L1346.6 235.325C1346.99 235.259 1344.28 239.694 1330.28 257.956C1316.27 276.217 1308.45 283.8 1306.28 285.309L1292.52 293.968L1288.98 273.699V249.297L1296.45 227.65L1319.85 176.879L1356.43 112.922L1362.33 103.477" stroke="#04C0FD" stroke-width="10"/>
</svg>
