<svg width="920" height="920" viewBox="0 0 1557 1647" fill="none" xmlns="http://www.w3.org/2000/svg">
<path d="M256.42 322.698L261.031 318.088M298.686 280.441L340.686 257.648L376.307 228.453L423.358 210.526C428.94 210.526 441.487 210.526 447.016 210.526C452.545 210.526 475.194 187.648 485.827 176.209L514.536 161.611M298.686 280.441L261.031 318.088M298.686 280.441L425.75 285.691M514.536 161.611H566.903L599.068 138.818H678.284M514.536 161.611L552.815 290.941M678.284 138.818L735.702 147.013L777.968 138.818L795.247 132.416L841.5 138.818L867.817 147.013M678.284 138.818L773.051 371.193M867.817 147.013L891.476 138.818H919.387L952.615 155.209L986.907 161.611L1014.02 184.66L1074.36 211.807L1096.96 242.026L1115.57 253.807L1131.25 286.075L1146.14 290.941L1158.36 319.625M867.817 147.013L655.423 446.65L828.367 506.833M867.817 147.013L941.982 290.941M1158.36 319.625L1188.14 345.747L1195.85 369.308L1212.59 386.21V423.345V442.808L1201.16 461.248L1206.48 487.37L1195.85 506.833M1158.36 319.625L1050.17 305.283M1195.85 506.833L1188.14 546.529L1158.36 568.297M1195.85 506.833L1050.17 305.283M1158.36 568.297L1121.68 602.102L1087.65 620.029L1068.25 628.993H1030.24H1003.92M1158.36 568.297L1003.92 515.925M261.031 318.088L250.617 325.899M268.913 865.116H249.508L230.103 850.007L206.976 814.409L196.875 806.214L176.672 782.14L164.178 744.237L147.963 723.237L125.634 679.188V641.926M268.913 865.116L271.838 887.397L277.951 905.068L288.584 922.739L300.015 937.336L319.42 949.373L342.813 964.483L368.598 973.703H402.092L422.56 970.117L438.776 973.703L454.991 970.117L472.801 981.642L491.143 988.3L496.194 993.934M268.913 865.116L277.951 836.689L311.18 807.238L349.765 785.726M599.334 740.908L602.258 753.201L595.081 785.726L591.625 807.75L584.182 834.128L586.574 842.067V872.031L571.156 892.007L566.637 932.983L555.473 959.873C553.878 963.288 547.339 972.422 533.941 981.642C520.543 990.861 510.991 989.922 507.89 988.3L496.194 993.934M599.334 740.908L634.954 747.567M599.334 740.908L523.042 744.237M634.954 747.567H662.069L701.677 770.104L730.917 782.908M634.954 747.567L730.651 721.189M634.954 747.567L643.103 655.883M730.917 782.908L742.879 785.726L771.588 798.274H798.703L833.792 790.079L872.336 775.225M730.917 782.908L717.36 818.25L701.677 854.104L670.043 899.69L630.17 909.422L634.954 949.373L609.169 973.703L586.574 1003.92L571.156 1036.7L566.637 1070.76M872.336 775.225L909.02 732.457L929.223 694.81L933.21 646.664M872.336 775.225L870.893 770.104M933.21 646.664L958.463 642.31L1003.92 628.993M933.21 646.664L835.453 644.295M1003.92 628.993V515.925M1003.92 628.993L867.817 603.567M496.194 993.934V1070.76V1100.98L502.574 1141.45L507.89 1189.59V1234.41V1291.78V1331.22L479.447 1411.12L438.244 1493.84L359.826 1635.72M552.815 290.941L425.75 285.691M552.815 290.941L497.637 363.674M552.815 290.941L881.64 345.747M425.75 285.691V458.43M425.75 458.43L497.637 363.674M425.75 458.43L250.617 325.899M425.75 458.43L144.906 496.461M497.637 363.674L649.043 442.808M649.043 442.808V515.925M649.043 442.808L773.051 371.193M649.043 589.041L737.696 641.926M649.043 589.041V515.925M649.043 589.041L643.103 655.883M737.696 641.926L826.348 694.81L730.651 721.189M737.696 641.926L835.453 644.295M835.453 644.295L870.893 770.104M835.453 644.295L742.248 580.11M730.651 721.189L870.893 770.104M649.043 515.925L742.248 580.11M742.248 580.11L867.817 603.567M1003.92 515.925L881.64 345.747M881.64 345.747L867.817 603.567M867.817 603.567L828.367 506.833M773.051 371.193L828.367 506.833M941.982 290.941L1068.25 218.721M941.982 290.941L1050.17 305.283M250.617 325.899L240.204 333.71L210.698 363.674L192.888 393.637L168.963 426.418L158.862 458.43L147.963 478.662L144.906 496.461M144.906 496.461L141.849 514.26V552.419L133.343 596.468L125.634 630.017V641.926M196.875 400.808L368.598 775.225M368.598 775.225L247.116 708.576M368.598 775.225L349.765 785.726M125.634 641.926L247.116 708.576M247.116 708.576L454.991 519.026M571.156 413.101L513.074 466.063M454.991 519.026L472.801 628.993M454.991 519.026L513.074 466.063M472.801 628.993L569.711 644.295M472.801 628.993L447.016 747.567M643.103 655.883L606.407 650.089M513.074 466.063L569.711 644.295M569.711 644.295L606.407 650.089M447.016 747.567L523.042 744.237M447.016 747.567H411.396M523.042 744.237L606.407 650.089M523.042 744.237L411.396 747.567M411.396 747.567C377.157 769.694 356.042 782.226 349.765 785.726" stroke="#25A7C4" stroke-width="20" stroke-linecap="round" stroke-linejoin="round"/>
<path d="M571.954 1076.91L579.663 1086.9V1102.52L587.106 1113.79L590.827 1123.26L600.663 1131.46L615.815 1138.89L628.84 1146.57L641.068 1157.58L657.55 1177.05L594.017 1157.58L596.941 1193.95L600.663 1209.83L576.473 1180.37L596.941 1223.14L605.448 1229.29L699.018 1262.07L703.803 1269.5L671.107 1265.66L638.41 1258.74H613.157L650.904 1296.9H641.068L615.815 1279.49L587.106 1273.85V1296.9V1315.34V1322.77L667.651 1377.57L582.321 1349.91L571.422 1339.67L576.473 1356.57L605.448 1406.25L609.701 1418.29L566.637 1383.21L562.916 1411.12V1429.3L576.473 1445.18L605.448 1473.35L609.701 1514.84V1540.45L589.764 1504.08L582.321 1481.55L553.612 1462.85V1497.94L550.422 1536.35L538.194 1593.46L530.219 1519.71L523.84 1493.33L514.536 1512.79V1523.8L523.84 1533.54L531.814 1591.41V1618.56L514.536 1593.46L509.485 1571.95V1556.84L495.928 1546.34V1571.95L485.295 1602.68L473.599 1618.56L487.953 1634.18" stroke="#25A7C4" stroke-width="10" stroke-linecap="round" stroke-linejoin="round"/>
<path d="M966.704 1630.09L980.261 1611.13L989.033 1586.8L999.666 1561.71L1008.17 1534.05L1016.41 1509.21L1024.12 1490.25L1027.31 1475.91L1038.48 1461.83L1052.57 1456.19L1067.19 1453.89H1138.43H1162.62H1188.67L1213.12 1452.1H1238.91L1279.05 1449.79L1317.33 1444.41L1345.77 1437.5L1362.25 1428.79L1379.8 1418.55L1393.62 1406.25L1405.05 1392.94L1414.35 1379.88L1426.32 1362.72L1434.56 1347.35L1438.54 1326.1V1314.57L1434.56 1301.25L1432.16 1291.27L1426.32 1277.69L1419.94 1259.51L1418.07 1244.91V1234.16L1419.94 1215.97L1426.32 1203.68L1434.56 1197.53L1447.58 1185.75L1453.43 1179.61V1166.29V1154.76L1450.51 1143.75L1436.42 1130.18L1443.59 1127.11L1459.01 1117.12L1465.66 1107.39L1471.24 1095.09L1474.16 1080.75L1471.24 1074.86L1459.01 1058.98L1453.43 1047.72L1450.51 1033.37L1453.43 1014.42L1461.67 1003.15L1482.67 998.544L1500.21 991.629L1514.04 981.385L1530.52 967.044L1543.01 955.007L1547 936.824V919.921L1543.01 902.763L1514.04 863.58L1461.67 768.823L1413.56 698.651L1380.33 649.224V629.505L1385.64 575.98V512.979L1364.11 461.503L1344.97 402.857L1308.55 318.344L1264.69 243.051L1216.58 176.977L1180.16 139.842L1119.29 96.5616L1034.76 53.2808L937.198 26.6465L847.349 16.1464L755.373 10H647.448L563.979 16.1464L479.447 26.6465L397.041 48.1588L315.699 82.22L234.356 133.696L159.925 199.258L88.95 297.344L25.4178 447.674L10 560.614L25.4178 712.737L58.1143 831.311L111.811 953.727L192.888 1098.17L208.04 1185.5L192.888 1285.63L148.495 1406L96.6589 1507.93L15.8481 1632.13L96.6589 1636.49H362.218L964.312 1632.13" stroke="#25A7C4" stroke-width="20" stroke-linecap="round" stroke-linejoin="round"/>
<path d="M806.411 803.14L819.437 828.238M1227.48 1301.25H1144.01L1118.76 1296.64L1087.12 1284.35L1041.13 1265.4L1002.86 1249.78L980.792 1241.84L951.286 1216.48L940.653 1198.56L907.159 1121.98L869.943 1060.52L849.741 1007L846.285 963.714L838.842 921.458L831.044 863.323M819.437 828.238L821.032 831.311L827.677 838.226L828.124 841.555M819.437 828.238L811.462 842.067L792.322 858.714L775.31 878.946L755.338 891.238M649.043 835.665H639.739C639.739 834.896 638.622 835.357 634.157 843.348C629.691 851.338 632.296 860.165 634.157 863.58L639.739 873.311L646.119 882.531V891.494L625.384 925.812V947.324L631.498 963.714L638.144 976.776L646.119 988.556L652.233 992.398C653.65 993.934 657.549 996.956 661.802 996.751C666.056 996.546 665.347 994.617 664.461 993.678L666.587 965.763V946.812M829.223 849.75L816.512 859.994L808.804 868.958L801.36 876.897L798.968 881.763L816.512 891.238L821.032 893.726M829.223 849.75L831.044 863.323M829.223 849.75L828.124 841.555M1195.31 990.349L1124.87 985.483L1078.08 976.007L983.451 946.3L925.501 937.336L890.146 935.287L861.969 918.385L838.842 903.531L821.032 893.726M1195.31 990.349L1203.55 1002.13L1220.03 1010.32L1236.52 1013.65H1249.54M1195.31 990.349L1211 983.178L1222.69 980.122M1249.54 1013.65L1270.81 1008.79M1249.54 1013.65L1254.59 1005.71M831.044 863.323L844.69 848.47L862.532 828.238M980.526 675.603L965.64 697.371L933.741 726.31L903.437 745.774L897.589 764.725L891.741 775.225L882.703 792.64L874.728 814.408L862.532 828.238M755.338 891.238L746.601 896.616L722.676 901.738L695.828 897.897L686.79 901.738L679.347 907.296M755.338 891.238L784.614 910.446L828.209 935.287L872.602 955.775L925.501 985.995L974.413 1016.47L985.843 1021.08M1258.05 1077.93L1178.83 1058.73L1117.69 1040.54L1046.72 1029.28L995.413 1026.2L985.843 1021.08M1258.05 1077.93L1263.36 1079.22L1326.9 1095.09L1258.05 1077.93ZM1258.05 1077.93L1260.95 1091M1261.24 1092.28L1260.95 1091M1260.95 1091L1264.43 1095.61L1280.11 1100.73M985.843 1021.08L998.603 1009.56L1012.43 1003.41L1028.91 1000.59L1050.17 1001.87L1065.86 1003.41L1075.43 1010.32L1095.89 1011.61L1132.58 1015.7L1165.81 1024.15L1202.22 1038.75L1234.66 1049.51L1260.95 1056.42L1272.79 1059.5M1334.07 1080.5L1324.24 1077.93L1309.09 1073.33L1284.63 1062.57L1272.79 1059.5M1272.79 1059.5L1276.39 1067.95L1280.11 1074.61L1284.63 1079.22L1292.6 1080.5M1340.45 954.495L1326.63 957.568H1311.48L1289.15 961.153L1272.67 966.532L1249.54 972.422L1226.68 979.08L1222.69 980.122M1222.69 980.122L1224.29 987.019C1223.49 988.044 1224.13 990.861 1233.06 993.934C1241.99 997.007 1251.14 999.483 1254.59 1000.34L1266.02 1002.13L1269.87 1001.72M1283.04 1000.34L1269.87 1001.72M1269.87 1001.72L1274.79 992.654M821.032 893.726L850.804 891.238L867.152 890.214M902.374 888.165L883.5 889.189L867.152 890.214M902.374 888.165L928.956 901.226L953.147 918.897L971.754 931.19H975.742L1019.87 935.287L1064 946.3L1117.69 963.971L1150.39 973.958L1199.3 979.08L1214.98 980.122L1234.66 981.641M902.374 888.165C902.817 886.543 906.999 880.482 920.184 869.214C933.369 857.945 941.096 851.543 943.311 849.75L945.844 847.445M1039.54 728.359L1008.17 764.725L997.539 774.073M962.199 830.543L957.666 836.689L945.844 847.445M962.199 830.543L964.843 826.957L981.59 793.92L986.906 783.42L997.539 774.073M962.199 830.543L982.919 841.555L995.679 844.116L1025.98 847.445L1037.94 844.116L1050.7 852.823L1063.46 856.665L1071.97 861.019H1092.17L1100.68 856.665M962.199 830.543L943.311 823.628L918.855 821.579L893.336 823.628L867.817 830.543L862.532 828.238M945.844 847.445C964.446 847.445 971.931 846.762 973.349 846.421L994.881 840.531H1017.74H1029.97L1037.94 833.616L1047.25 830.543L1054.69 826.957M862.532 828.238L870.762 844.116M862.532 828.238V847.445L844.69 872.287L811.462 897.897L788.867 908.141L779.829 918.897L769.727 952.19L767.867 984.202L755.338 988.556L746.601 984.202L735.968 971.397M862.532 828.238L853.684 816.713M828.124 841.555L798.968 859.994L787.006 867.165V886.116L779.829 896.616V901.226L784.614 903.531L814.652 913.263L853.462 977.288L890.146 1039.26L940.387 1116.35L961.653 1142.98M1270.54 1327.38L1203.29 1291.27L1132.58 1257.72L1049.38 1223.14L985.046 1171.33M867.152 890.214L862.532 901.738L890.146 913.263L960.59 948.348L1021.73 983.434C1029 996.154 1045.76 1018.67 1054.69 1007C1063.62 995.317 1076.67 988.129 1082.07 985.995L1100.68 988.044L1138.16 1001.87M1336.73 1315.34L1316.26 1288.45L1300.05 1278.72L1280.64 1274.88L1260.97 1278.72L1247.41 1286.14L1232.53 1288.45L1216.84 1286.14L1095.36 1238.25L1054.43 1223.14L997.008 1169.62L969.893 1109.69L928.956 1029.53L908.754 965.763L891.506 892.775M870.762 844.116L887.754 876.897L891.506 892.775M870.762 844.116L887.754 848.47L900.779 847.957L918.855 842.067L931.881 836.689C932.188 837.201 934.107 836.228 939.324 828.238C944.54 820.248 953.725 806.469 957.666 800.579L993.02 740.908M721.081 823.628L727.727 842.067L718.955 850.775L717.626 863.58L722.676 878.946L731.449 890.47L729.854 901.738L721.081 931.702L722.676 941.946L725.335 958.592L735.968 971.397M735.968 971.397L767.867 1029.53L801.792 1082.8M1256.19 1359.64L1235.98 1354.01L1155.44 1317.9L1104.4 1301.25L1011.89 1270.01L935.336 1235.69L888.019 1198.56L877.108 1184.73M801.792 1082.8L823.158 1116.35L877.108 1184.73M801.792 1082.8L846.285 1092.28L947.83 1113.02L1025.72 1109.69L1064.53 1120.7L1101.48 1130.95L1116.26 1132.98M1234.66 1148.87L1162.88 1139.4L1116.26 1132.98M961.653 1142.98L982.919 1169.62L985.046 1171.33M961.653 1142.98L1027.05 1154.51L1081.54 1160.91L1089.51 1162.83M1117.69 1169.62L1155.44 1199.07L1204.35 1219.56M1117.69 1169.62L1124.34 1162.45L1135.77 1160.91H1144.81L1158.1 1163.98L1161.55 1167.57M1117.69 1169.62L1089.51 1162.83M1089.51 1162.83V1174.23L1106.26 1189.85L1113.17 1203.68M891.506 892.775L904.501 915.312L934.273 963.714L951.817 992.654L961.121 1034.65L957.4 1080.75L967.767 1134.28L985.046 1171.33M841.234 904.299L846.285 924.019L869.943 963.714L894.665 1008.53L904.235 1049.76L903.659 1056.68M1218.71 1275.39L1183.09 1265.14H1179.63L1147.46 1280.77L1106.53 1270.01L1052.3 1255.46M903.659 1056.68L900.247 1097.65L905.83 1149.9L919.121 1184.73L940.653 1207.27L1001 1235.69L1048.31 1254.39L1052.3 1255.46M903.659 1056.68L985.843 1070.51M985.843 1070.51L1021.73 1080.75H1089.51L1125.93 1096.12L1154.91 1102.58M985.843 1070.51C990.309 1085.26 998.691 1099.19 1002.32 1104.31L1016.41 1116.35M1254.59 1124.8L1154.91 1102.58M1154.91 1102.58L1164.74 1119.42M1116.26 1132.98L1124.34 1146.06M836.184 793.92L853.684 816.713M853.684 816.713L874.728 786.75L877.652 782.14M997.539 774.073L962.199 757.554L939.324 762.932L923.374 764.725L891.741 762.932L882.339 775.225M882.339 775.225L880.576 777.53L877.652 782.14M882.339 775.225L915.134 779.067L939.324 783.42L951.02 788.03L990.096 797.25H1005.51L1041.93 783.42L1084.73 785.725L1181.49 814.408L1200.1 821.579L1236.78 856.665L1282.5 889.189L1304.04 911.47M877.652 782.14L929.754 786.75C934.273 788.03 944.853 790.694 951.02 791.103C957.187 791.513 970.78 789.225 976.805 788.03L1001.26 779.067L1022.53 772.408L1070.64 771.384L1096.16 782.14M679.347 907.296L676.157 909.677L666.587 927.861V946.812M679.347 907.296L699.55 915.056L712.043 931.702V975.495L696.499 996.751M570.093 1075.63L595.878 1047.72L631.498 1029.53L695.562 998.032L696.499 996.751M666.587 946.812L673.233 963.714L664.461 1010.07V1037.21L666.587 1042.2M1075.43 1284.35L1039.81 1296.64L998.868 1306.12L956.602 1310.22L904.501 1307.91L855.855 1300.49L830.867 1289.48M696.499 996.751L684.132 1025.43L657.549 1073.84V1100.73L676.689 1124.03L711.512 1154.42M1015.35 1307.91L944.108 1290.75L879.247 1275.39L804.55 1234.92L750.056 1188.06L711.512 1154.42M823.291 1286.14L790.727 1271.8L738.36 1231.59L711.512 1188.06L700.081 1137.61L682.271 1078.96L666.587 1042.2M823.291 1286.14L841.5 1339.67V1361.18V1395.5L846.019 1433.91L853.728 1453.12M823.291 1286.14L830.867 1289.48M830.867 1289.48L875.26 1290.75L913.804 1271.8L944.108 1251.31L963.248 1209.83C962.362 1194.8 959.473 1162.09 955.007 1151.44C950.541 1140.78 948.362 1135.56 947.83 1134.28M877.108 1184.73L980.792 1200.86L1059.74 1207.27L1067.58 1209.7M1177.77 1251.31L1154.91 1247.98L1075.43 1212.13L1067.58 1209.7M1067.58 1209.7L1083.67 1198.56L1097.76 1193.95L1127 1196M1052.3 1255.46L1064.79 1247.98L1070.38 1238.25C1074.01 1237.7 1082.92 1233.9 1089.51 1223.14C1092.27 1218.65 1094.16 1213.96 1095.43 1209.7M1095.43 1209.7C1097.2 1203.77 1097.76 1198.65 1097.76 1196C1093.37 1202.57 1086.77 1214.51 1095.43 1209.7ZM1095.43 1209.7L1106.26 1203.68M666.587 1042.2L652.233 1065.9L637.346 1148.36L639.473 1153.48L657.549 1149.9H696.36L711.512 1154.42M639.473 1154.42L655.688 1160.65L676.689 1162.45L692.904 1163.98H708.853" stroke="#0AEBDD" stroke-width="5"/>
<path d="M675.892 1498.45L643.461 1635.98M675.892 1498.45L701.411 1602.68M675.892 1498.45L679.196 1474.63M679.196 1474.63L689.714 1398.83L682.36 1392.17M679.196 1474.63C675.521 1483.97 671.921 1492.66 668.413 1500.76M612.094 1594.96C610.983 1595.88 610.006 1596.57 609.169 1597.05L579.131 1635.98L612.094 1594.96ZM612.094 1594.96C613.156 1594.08 614.34 1592.99 615.638 1591.67M615.638 1591.67L631.765 1633.41L605.98 1570.41M615.638 1591.67C626.546 1580.6 645.537 1553.52 668.413 1500.76M615.638 1591.67L638.552 1542.24L665.159 1477.19M605.98 1570.41L563.448 1635.98M605.98 1570.41L606.707 1562.48M609.169 1535.58L606.707 1562.48M606.707 1562.48L609.169 1413.17M609.169 1413.17L626.448 1428.28L609.169 1557.35L573.017 1635.98L603.055 1535.58L600.397 1531.49L585.245 1635.98L605.98 1535.58L590.296 1635.98L586.043 1500.5L548.296 1560.43L547.244 1564.56M609.169 1413.17L630.701 1368.35L648.246 1332.24M547.244 1564.56L538.46 1599.1L543.511 1633.41L531.283 1617.28L538.46 1635.98L534.473 1591.67L541.384 1636.74L543.511 1588.85L545.371 1634.7L546.801 1581.17M547.244 1564.56L546.801 1581.17M546.801 1581.17C579.699 1564.58 577.455 1238.08 572.22 1076.91L557.068 1635.98M668.413 1500.76L670.021 1492.56M670.021 1492.56L649.043 1633.41M670.021 1492.56L673.035 1477.19M722.145 1261.3L726.664 1223.14V1154.76H712.31L708.588 1238.25L707.187 1261.3M722.145 1261.3L718.689 1287.42L698.428 1360.67M722.145 1261.3L754.31 1280L787.538 1295.11L823.424 1309.71L900.514 1326.35L982.654 1337.11M722.145 1261.3L664.727 1209.83L628.886 1176.28M707.187 1261.3L705.132 1295.11L699.917 1306.89M707.187 1261.3L699.875 1246.96M658.879 1176.28L680.942 1209.83L699.875 1246.96M619.802 1167.31L628.886 1176.28M699.875 1246.96L680.942 1244.91H658.879M628.886 1176.28L619.802 1223.14V1229.29M670.021 1381L667.651 1378.85V1372.19L689.714 1329.94L697.423 1312.52M670.021 1381L666.056 1411.63L657.284 1441.08L650.771 1453.63M670.021 1381L682.36 1392.17M649.309 1456.45L645.322 1464.13L638.552 1474.63M649.309 1456.45L618.739 1505.37L638.552 1474.63M649.309 1456.45L650.771 1453.63M650.771 1453.63L661.271 1462.08L675.095 1466.69M675.095 1466.69L689.714 1392.17L698.428 1360.67M675.095 1466.69L673.035 1477.19M638.552 1474.63L657.284 1477.19H665.159M673.035 1477.19H665.159M665.159 1477.19L682.36 1392.17M682.36 1392.17L688.027 1362.21M697.423 1312.52L699.917 1306.89M697.423 1312.52L688.027 1362.21M698.428 1360.67L699.917 1306.89M650.771 1364H679.196L688.027 1362.21" stroke="#0AEBDD" stroke-width="5"/>
<path d="M678.284 1351.71L652.499 1344.79H645.321M624.587 1344.79H645.321M645.321 1344.79L650.904 1316.62V1299.46L639.473 1276.16L629.904 1260.79L611.562 1214.95L602.258 1206.5" stroke="#0AEBDD" stroke-width="5"/>
<path d="M645.854 1345.05L636.55 1406.25L625.385 1453.12L619.271 1503.83L616.081 1536.1L607.575 1573.23L599.6 1594.49L594.815 1613.18" stroke="#0AEBDD" stroke-width="5"/>
<path d="M675.626 899.178L678.151 903.531M675.626 912.239H646.385H642.93H675.626ZM675.626 912.239L678.151 910.062M678.151 910.062L680.677 907.885L678.151 903.531M678.151 910.062L662.069 906.348M678.151 903.531L696.361 876.385L719.753 841.043L742.348 795.457L772.386 757.811L833.526 702.237L885.362 655.883L889.472 651.017M972.818 548.321L957.401 570.602L889.472 651.017M972.818 548.321V505.553L984.515 441.016L1006.31 424.369L1022 397.223V373.405M972.818 548.321L1022.53 537.565L1079.68 522.711L1094.3 518.614L1122.48 522.711L1171.12 531.931H1204.09L1229.87 522.711M982.92 441.016L973.616 407.467V373.405L976.274 346.003V299.905M889.472 651.017C906.812 656.754 914.869 659.725 916.729 660.493C918.856 660.493 923.534 660.493 925.236 660.493C926.937 660.493 936.932 657.42 941.717 655.883L953.679 651.017L979.996 645.127M979.996 645.127L993.553 640.517M979.996 645.127L1012.69 654.09L1037.68 658.7L1070.91 654.09H1089.52L1125.4 665.871L1157.57 677.652M979.996 645.127L936.932 669.2M979.996 645.127L1012.69 647.176H1049.38L1073.03 643.334L1109.19 626.944M993.553 640.517L1012.69 633.859L1058.41 619.517L1089.52 611.066L1138.96 601.078L1168.73 595.956H1224.55H1282.77L1309.35 590.834L1324.77 581.102C1331.5 575.98 1345.4 564.148 1347.1 557.797C1348.8 551.446 1351.35 547.126 1352.42 545.76L1356.94 524.504M993.553 640.517L1022.53 643.334H1042.46L1066.39 640.517L1109.19 626.944M1109.19 626.944L1174.31 614.907L1188.14 611.066H1241.3L1301.38 607.992C1302.09 607.992 1305.63 606.968 1314.14 602.87C1322.64 598.773 1330.8 590.407 1333.81 586.736L1349.23 567.785L1359.33 539.102V534.748M951.818 708.896L985.844 707.103L1031.03 711.457L1058.41 717.603L1074.36 732.201" stroke="#0AEBDD" stroke-width="5"/>
<path d="M688.119 889.19L683.068 855.384L701.41 829.774L705.398 816.969L710.448 754.737L733.841 694.042L746.335 626.175L753.53 608.248M838.842 457.15L808.804 483.272L804.267 492.747M804.267 492.747L777.17 549.345L753.53 608.248M804.267 492.747L801.892 458.686M753.53 608.248L742.082 556.516L733.841 526.553L722.676 486.345" stroke="#0AEBDD" stroke-width="5"/>
<path d="M1095.1 518.101L1100.41 499.15L1111.31 487.882L1132.58 470.979" stroke="#0AEBDD" stroke-width="5"/>
<path d="M666.587 945.788L656.751 951.422H645.587M639.207 949.885L645.587 951.422M645.587 951.422V962.434L633.608 1001.11M571.953 1076.65L596.143 1056.42L630.435 1011.35L633.608 1001.11M633.608 1001.11L581.257 1026.2L501.776 1063.85L482.427 1084.34M593.485 1637L579.662 1473.86L551.485 1377.32L521.978 1291.52L476.788 1199.33L467.966 1170.9M482.427 1084.34L472.269 1095.09L459.244 1124.03L461.37 1149.64L467.172 1168.34M482.427 1084.34L421.496 1103.8L377.369 1134.28L362.483 1168.34L348.395 1228.52L328.192 1283.33L299.217 1334.8L280.343 1382.69L267.052 1461.83L253.229 1586.55L248.444 1637M467.966 1170.9L449.94 1208.8L423.357 1261.56L398.104 1299.72L386.407 1337.36V1386.02L406.079 1450.82L429.471 1500.24M467.966 1170.9L467.172 1168.34M467.172 1168.34L493.801 1115.33" stroke="#0AEBDD" stroke-width="5"/>
<path d="M675.626 911.214L702.208 932.726L723.474 961.922L712.576 1017.75L737.032 1079.98L748.728 1141.45L770.791 1203.68L798.437 1236.2L829.007 1256.69L878.982 1279.74L935.071 1294.85H1014.29L1101.21 1273.34L1145.87 1245.94L1173.52 1220.58L1194.78 1178.84L1196.11 1148.62" stroke="#0AEBDD" stroke-width="5"/>
<path d="M852.134 1268.22L865.159 1313.8V1341.21L859.577 1377.83V1408.05L870.21 1431.1" stroke="#0AEBDD" stroke-width="5"/>
<path d="M1037.68 785.725L1064 799.299L1078.62 801.604H1117.16L1122.21 799.299" stroke="#0AEBDD" stroke-width="5"/>
<path d="M995.413 773.433L1023.86 775.738H1051.24H1070.64L1119.55 788.799L1186.01 812.36L1234.39 859.738L1279.31 884.836L1300.05 890.47C1299.52 891.409 1301.01 892.724 1311.21 890.47C1321.42 888.217 1326.99 887.483 1328.49 887.397" stroke="#0AEBDD" stroke-width="5"/>
<path d="M959.793 702.493L1007.11 704.542L1053.63 712.225L1100.68 737.322L1126.2 758.067" stroke="#0AEBDD" stroke-width="5"/>
</svg>
