<svg width="1420" height="1020" viewBox="0 0 1420 1020" fill="none" xmlns="http://www.w3.org/2000/svg">
<path d="M320.833 293.064L305.149 272.778L288.298 250.758L260.935 228.871L241.581 215.792L218.723 207.25L193.696 202.713H168.336H144.978L121.619 198.709L104.267 196.307L91.0865 188.967L83.9122 178.023L75.2362 159.206L63.557 132.781L56.8832 112.495L52.8789 93.4109L56.8832 72.9919L63.557 61.2476L83.9122 57.5107H109.773L138.804 66.052L154.154 74.9937L181.517 89.6741L199.369 105.155L212.049 116.9L228.4 130.379L246.086 143.324L265.44 159.206L279.622 173.486L296.974 188.967L317.329 198.709L330.51 207.25L358.039 213.79L381.398 215.792H409.428L431.785 218.594H439.46V222.331" stroke="url(#paint0_linear_60_127)" stroke-width="20"/>
<path d="M1110.01 312.549L1126.7 289.862L1145.38 270.911L1162.07 256.497L1181.42 242.084L1198.11 233.809L1212.29 229.138L1228.31 224.601H1241.32H1254.17H1265.68H1276.69H1298.55H1310.06L1320.4 221.932L1331.25 216.326L1342.93 208.052L1348.6 201.379L1355.78 186.432L1364.12 169.483L1370.62 155.069V136.518L1374.46 118.101V99.5506L1367.29 91.2763L1348.6 86.2049L1336.42 81L1315.23 86.2049L1298.55 91.2763L1276.69 96.4811L1265.68 107.825L1248.99 118.101L1224.47 132.515L1204.61 147.862L1189.76 161.342L1172.41 175.622L1157.56 186.432L1138.88 201.379L1117.02 212.723L1094.5 221.932L1073.31 229.138H1058.62H1038.6H1015.41L974.867 224.601" stroke="url(#paint1_linear_60_127)" stroke-width="20"/>
<path d="M633.501 915.512L621.822 972.231V975.835L628.329 982.241L637.506 989.181L649.519 994.652L670.541 1002.13L682.888 1010H699.072H727.602L751.127 1007.06L780.826 994.652L795.175 979.705V958.485L788.334 941.536L776.488 915.512V891.489L780.826 868.668L788.334 847.181L795.175 816.086L802.516 776.983L810.691 753.094L815.53 725.735V688.633L810.691 664.344V631.647L820.535 607.891V594.012L815.53 569.589L810.691 543.431L803.183 514.604V486.311V457.618L815.53 424.787L825.54 401.165L839.222 368.334L848.398 352.453L856.574 332.701L868.92 297.869L876.428 278.117L886.272 260.767L896.783 243.818H909.797H930.987H945.502L962.521 247.288L993.387 253.961L1013.41 263.703L1040.44 278.117L1056.79 283.589L1070.64 297.869L1084.65 313.216L1098.67 332.701L1102.34 357.524V381.413L1119.02 401.165L1134.04 419.983L1151.39 429.992L1182.92 436.932L1235.65 429.992L1271.52 415.045L1290.87 401.165L1308.72 381.413L1321.74 362.062L1334.25 326.295L1342.26 305.476L1347.27 273.98L1358.28 253.961L1367.45 239.147L1377.97 222.732L1387.98 203.914L1398.99 181.093L1406.83 162.943L1410 140.655V108.225L1406.83 90.8755L1401.99 77.2628L1392.48 64.4508L1376.46 52.7065L1362.45 41.3626H1344.6H1317.23L1296.38 50.8381L1277.86 60.8475L1253.17 72.7252L1230.31 87.0052L1212.96 100.351L1192.77 111.428L1171.24 125.174L1151.39 140.655L1134.04 148.262L1114.68 158.005L1094.16 168.281L1070.64 174.42L1040.44 172.418H1013.41L993.387 168.281L979.872 164.678L945.502 154.802L915.971 138.92L901.622 134.783L879.265 121.037L865.75 111.428L845.896 103.287L823.872 89.6744L807.354 79.7985L793.506 71.1237L777.489 62.449L764.809 56.7103L751.294 49.2366L732.608 45.3663L719.093 42.2968H707.08L691.397 47.1013L670.041 52.4396L653.69 61.2478L626.661 72.5918L607.307 84.7364L580.278 101.552L547.743 114.764L517.544 129.712L489.847 142.524L469.659 147.328L452.808 152.8L434.788 157.738L411.263 162.009H393.744L375.391 160.274L355.203 152.8L332.345 142.524L314.493 135.984L297.642 125.174L282.959 114.764L268.11 105.823L251.258 93.4112L232.071 78.8643L214.552 68.0542L196.199 54.308L179.348 46.5675L160.995 34.8232L147.314 26.5488L122.621 16.6729L101.264 10H81.7435L66.0601 13.6034L44.0365 26.5488L26.0172 45.3663L13.6706 66.3192L10 97.148L13.6706 134.249L28.353 173.086L46.8728 203.247L71.7328 238.346L74.5692 270.376L77.7392 301.472L93.4227 333.502L110.608 353.254L138.638 378.344L163.331 399.297L198.869 414.511L236.576 421.451L278.121 412.509L302.814 394.492L311.49 380.479L322.168 363.13L328.675 328.431V314.284L380.564 265.438L448.97 234.877L534.395 227.536L557.42 291.73L569.099 322.692L609.309 419.983L626.994 468.294V502.993L619.82 533.422L601.968 583.869L605.972 627.51V664.344V725.735L609.976 760.434L615.148 795.133L633.501 847.181L637.506 876.142L633.501 915.512Z" stroke="url(#paint2_linear_60_127)" stroke-width="20" stroke-linecap="round" stroke-linejoin="bevel"/>
<path d="M978.211 228.667L1005.58 242.226L1027.89 251.929L1047.24 259.639L1062.41 270.406L1085.76 287.421L1100.41 299.783L1114.53 316" stroke="url(#paint3_linear_60_127)" stroke-width="10" stroke-linecap="round" stroke-linejoin="bevel"/>
<path d="M533.158 151.333L551.156 159.977L563.489 162.902H577.154H593.486H599.818L607.818 172.742L620.316 180.987L626.649 193.753L633.148 204.923L640.648 220.615L649.48 237.503L658.646 266.226V282.184L663.145 299.471L667.478 313.832L671.145 331.651L675.811 350.534L685.477 373.141L691.809 391.093L697.142 409.178L699.808 426.465L704.641 446.545L708.641 462.502L711.474 477.794V506.252L708.641 530.188L705.808 546.81L703.141 561.438L700.308 575.799V638.033L685.477 640.028H668.312H653.48L663.812 650.533H647.147V659.443V672.474V691.357V705.054L649.48 713.964L656.313 719.15L660.646 727.793L663.812 734.442L665.812 742.687L668.312 754.921L663.812 762.501L656.313 767.288L653.48 776.197V782.314L656.313 788.032L663.812 794.149L665.812 799.203L672.644 806.915L679.477 811.969V819.282L675.478 822.208L672.644 828.325L668.312 839.096V848.405L665.812 857.314V864.628L663.812 874.202V883.777V891.489L665.812 898.138L672.644 907.048L675.478 914.096V923.404L679.477 928.457V939.362V953.058V961.968L672.644 965.824V972.473L668.312 975.399V980.186L665.812 983.111L663.812 988.431V1000" stroke="url(#paint4_linear_60_127)" stroke-width="20" stroke-linecap="round" stroke-linejoin="bevel"/>
<path d="M533.061 150.665L557.921 140.789L580.611 133.048L606.806 129.712H633.835H662.032L682.721 136.385L705.412 140.789L725.433 150.665L730.939 155.069L748.291 147.328L772.984 140.789L792.338 136.385H815.864H833.716H854.405L881.267 147.328L898.452 155.069L913.635 162.809V169.482L881.267 174.42H854.405L842.726 180.426L828.21 188.166L815.864 208.052L809.523 216.326L800.681 229.005L797.177 253.828L792.338 271.978L786.832 298.536L776.488 321.091L767.478 343.645L761.305 366.333L752.963 388.887L738.614 412.643L733.776 436.932L728.27 464.558L724.766 499.791V530.086L728.27 559.847V577.063L733.776 603.487V645.927H750.961H767.478V655.334L777.155 658.606V679.025V707.184V718.795L767.478 735.344L758.636 745.22V757.364V766.706V776.048L767.478 783.255V795.934L758.636 804.742L746.79 810.347L741.284 821.825V832.368L746.79 839.174L751.795 849.851L755.132 861.061V870.67V882.147V892.023L751.795 902.433L743.453 910.574L734.943 922.719V933.128L731.94 941.536V957.685V965.425V971.698L738.447 980.373L740.783 987.045L743.453 990.248V1006.13" stroke="url(#paint5_linear_60_127)" stroke-width="20" stroke-linecap="round" stroke-linejoin="bevel"/>
<path d="M318 296L341.554 273.412L364.215 258.03L412.393 232.532L443.263 222" stroke="url(#paint6_linear_60_127)" stroke-width="10" stroke-linecap="round" stroke-linejoin="bevel"/>
<path d="M271.536 300.643C301.822 342.603 293.979 388.622 258.758 404.887C223.537 421.153 169.792 403.576 139.506 361.617C109.22 319.658 117.063 273.639 152.284 257.373C187.505 241.107 241.25 258.684 271.536 300.643Z" stroke="#0288C9" stroke-width="15"/>
<path d="M1287.62 380.302C1257.34 422.261 1203.59 439.838 1168.37 423.572C1133.15 407.306 1125.31 361.287 1155.59 319.328C1185.88 277.368 1239.62 259.792 1274.85 276.057C1310.07 292.323 1317.91 338.342 1287.62 380.302Z" stroke="#0288C9" stroke-width="15"/>
<path d="M181.685 328.667L137.475 346L146.317 268L181.685 328.667ZM181.685 328.667L218.527 268L232.619 316.708M181.685 328.667L164.001 382.333M181.685 328.667L208.948 366.5M208.948 366.5L236.211 404.333L284.475 364.333L246.711 365.417M208.948 366.5L246.711 365.417M246.711 365.417L232.619 316.708M232.619 316.708L279.317 320.667" stroke="url(#paint7_linear_60_127)" stroke-width="10"/>
<path d="M1215.38 374.567L1232.62 414.667L1155.05 406.647L1215.38 374.567ZM1215.38 374.567L1155.05 341.15L1203.49 328.368M1215.38 374.567H1288.42M1215.38 374.567L1253.01 349.838M1253.01 349.838L1299.11 323L1250.85 281.334L1251.93 315.586M1253.01 349.838L1251.93 315.586M1251.93 315.586L1203.49 328.368M1203.49 328.368L1205.46 307.19V281.334" stroke="url(#paint8_linear_60_127)" stroke-width="10"/>
<ellipse cx="181.92" cy="329.34" rx="8.34227" ry="6.67289" fill="url(#paint9_diamond_60_127)"/>
<ellipse cx="1212.76" cy="377.34" rx="8.34227" ry="6.67289" fill="url(#paint10_diamond_60_127)"/>
<ellipse cx="1249.61" cy="316.006" rx="8.34227" ry="6.67289" fill="url(#paint11_diamond_60_127)"/>
<ellipse cx="248.973" cy="365.34" rx="8.34227" ry="6.67289" fill="url(#paint12_diamond_60_127)"/>
<ellipse cx="234.237" cy="316.006" rx="8.34227" ry="6.67289" fill="url(#paint13_diamond_60_127)"/>
<defs>
<linearGradient id="paint0_linear_60_127" x1="208.803" y1="236.042" x2="208.803" y2="293.064" gradientUnits="userSpaceOnUse">
<stop stop-color="#0288C9"/>
<stop offset="1" stop-color="#1CFBC5"/>
</linearGradient>
<linearGradient id="paint1_linear_60_127" x1="1136.04" y1="256.497" x2="1136.04" y2="312.549" gradientUnits="userSpaceOnUse">
<stop stop-color="#0288C9"/>
<stop offset="1" stop-color="#1CFBC5"/>
</linearGradient>
<linearGradient id="paint2_linear_60_127" x1="710" y1="225.15" x2="710" y2="969.674" gradientUnits="userSpaceOnUse">
<stop stop-color="#0091B1"/>
<stop offset="1" stop-color="#0AEBDD"/>
</linearGradient>
<linearGradient id="paint3_linear_60_127" x1="1046.37" y1="248.194" x2="1046.37" y2="315.768" gradientUnits="userSpaceOnUse">
<stop stop-color="#0091B1"/>
<stop offset="1" stop-color="#0AEBDD"/>
</linearGradient>
<linearGradient id="paint4_linear_60_127" x1="622.316" y1="341.09" x2="622.316" y2="997.744" gradientUnits="userSpaceOnUse">
<stop stop-color="#0091B1"/>
<stop offset="1" stop-color="#0AEBDD"/>
</linearGradient>
<linearGradient id="paint5_linear_60_127" x1="723.348" y1="325.674" x2="723.348" y2="1003.8" gradientUnits="userSpaceOnUse">
<stop stop-color="#0091B1"/>
<stop offset="1" stop-color="#0AEBDD"/>
</linearGradient>
<linearGradient id="paint6_linear_60_127" x1="380.632" y1="238.546" x2="380.632" y2="295.803" gradientUnits="userSpaceOnUse">
<stop stop-color="#0091B1"/>
<stop offset="1" stop-color="#0AEBDD"/>
</linearGradient>
<linearGradient id="paint7_linear_60_127" x1="210.975" y1="268" x2="210.975" y2="404.333" gradientUnits="userSpaceOnUse">
<stop stop-color="#028BCB"/>
<stop offset="0.0001" stop-color="#0288C9"/>
<stop offset="0.588542" stop-color="#25A7C4"/>
<stop offset="1" stop-color="#1CFBC5"/>
</linearGradient>
<linearGradient id="paint8_linear_60_127" x1="1155.05" y1="348" x2="1290.63" y2="348" gradientUnits="userSpaceOnUse">
<stop stop-color="#028BCB"/>
<stop offset="0.0001" stop-color="#0288C9"/>
<stop offset="0.588542" stop-color="#25A7C4"/>
<stop offset="1" stop-color="#1CFBC5"/>
</linearGradient>
<radialGradient id="paint9_diamond_60_127" cx="0" cy="0" r="1" gradientUnits="userSpaceOnUse" gradientTransform="translate(181.92 329.34) rotate(90) scale(6.67289 8.34227)">
<stop stop-color="white"/>
<stop offset="0.5" stop-color="#93E5F7"/>
<stop offset="1" stop-color="#25A7C4"/>
</radialGradient>
<radialGradient id="paint10_diamond_60_127" cx="0" cy="0" r="1" gradientUnits="userSpaceOnUse" gradientTransform="translate(1212.76 377.34) rotate(90) scale(6.67289 8.34227)">
<stop stop-color="white"/>
<stop offset="0.5" stop-color="#93E5F7"/>
<stop offset="1" stop-color="#25A7C4"/>
</radialGradient>
<radialGradient id="paint11_diamond_60_127" cx="0" cy="0" r="1" gradientUnits="userSpaceOnUse" gradientTransform="translate(1249.61 316.006) rotate(90) scale(6.67289 8.34227)">
<stop stop-color="white"/>
<stop offset="0.5" stop-color="#93E5F7"/>
<stop offset="1" stop-color="#25A7C4"/>
</radialGradient>
<radialGradient id="paint12_diamond_60_127" cx="0" cy="0" r="1" gradientUnits="userSpaceOnUse" gradientTransform="translate(248.973 365.34) rotate(90) scale(6.67289 8.34227)">
<stop stop-color="white"/>
<stop offset="0.5" stop-color="#93E5F7"/>
<stop offset="1" stop-color="#25A7C4"/>
</radialGradient>
<radialGradient id="paint13_diamond_60_127" cx="0" cy="0" r="1" gradientUnits="userSpaceOnUse" gradientTransform="translate(234.237 316.006) rotate(90) scale(6.67289 8.34227)">
<stop stop-color="white"/>
<stop offset="0.5" stop-color="#93E5F7"/>
<stop offset="1" stop-color="#25A7C4"/>
</radialGradient>
</defs>
</svg>
