<svg width="1120" height="1120" viewBox="0 0 1120 1120" fill="none" xmlns="http://www.w3.org/2000/svg">
<path d="M584.191 57.3684L599.762 47.1345L596.426 24.6199L584.191 10H536.087L521.628 24.6199V40.4094L535.392 64.8246M584.191 57.3684H544.429L535.392 64.8246M584.191 57.3684L593.923 72.2807V93.0409L575.849 110.585M540.536 110.585L526.355 93.0409V72.2807L535.392 64.8246M540.536 110.585H575.849M540.536 110.585L526.355 121.111L524.965 141.287L532.194 160M575.849 110.585L596.426 123.743V143.626L584.191 160M584.191 160H558.193H532.194M584.191 160L593.923 173.45V195.088L575.849 210M532.194 160L526.355 177.836V198.304L540.536 210M540.536 210H575.849M540.536 210L526.355 222.281L524.965 243.333L532.194 261.17M575.849 210L596.426 222.281V240.117L584.191 261.17M584.191 261.17H532.194M584.191 261.17L598.928 272.281V292.456L584.191 312.632M532.194 261.17L518.569 272.281V295.965L526.355 312.632M526.355 312.632H570.566H584.191M526.355 312.632L513.842 324.035V345.965L509.949 367.602L505.779 391.287L498.271 412.339L488.539 428.421L473.246 443.918L466.572 448.597M584.191 312.632L604.489 324.035V345.965V379.298L618.392 412.339L637.578 438.947L651.759 451.813M466.572 448.597L463.514 349.181V295.965L460.455 247.135L445.162 222.281L414.019 210L382.321 205.906L338.665 213.801L303.352 228.713L266.37 250.351L234.115 279.298L204.085 312.632L174.055 353.567L137.629 396.842L105.93 448.597L82.2953 494.795L58.6603 552.105L41.1426 619.064L30.0202 670.234L19.454 751.813L13.6148 821.696L10 890.409V946.257L21.1223 1005.03L32.8008 1042.16L46.9818 1084.56L67.5581 1109.42H95.364L129.287 1104.44L171.83 1089.53L204.641 1070.53L251.633 1042.16L291.117 1019.65L333.938 993.918L371.754 964.678L407.624 933.099L428.2 885.439L424.585 836.023L420.971 791.579L428.2 735.731L438.766 678.421L452.947 622.573V557.076L459.76 502.836M466.572 448.597L425.142 468.187L396.502 484.269L374.813 500.643L354.793 524.328L340.056 537.193L317.255 542.164L286.946 537.193L274.156 514.678V478.421L279.439 451.813L299.459 438.947L332.27 428.421L358.407 420.234M466.572 448.597L459.76 502.836M651.759 451.813L660.379 500.643M651.759 451.813L692.356 471.696L720.162 486.608L738.236 500.351L758.256 518.772L771.325 533.977L789.398 540.994H807.75L827.77 538.07L839.727 524.912L845.566 502.836L842.786 465.556L836.668 452.982L820.263 439.532L803.301 433.099L773.549 424.912L751.582 417.895M660.379 500.643V545.673V607.076L674.282 664.678L686.517 717.895L697.083 780.76L694.024 842.749V888.947L709.039 933.099L758.256 976.374L796.628 1000.64L843.342 1028.13L904.237 1064.39L946.223 1085.73L1007.67 1110H1044.38L1062.73 1099.77L1080.53 1064.39L1093.59 1022.57L1103.33 981.93L1110 936.901V830.76L1103.6 764.094L1094.43 698.597L1080.53 633.977L1066.62 579.883L1046.6 524.912L1020.19 467.602L994.606 420.234L965.131 379.298L938.994 345.965L902.846 300.351L871.982 267.31L831.385 240.117L794.96 222.281L765.763 212.632L732.674 210L704.312 212.632L677.619 229.298L663.16 247.719L661.213 290.409V352.69V409.123V500.643M660.379 500.643L624.232 468.187L610.329 458.538L593.923 448.597L570.566 434.854H550.546L532.194 443.918L513.842 462.924L488.539 478.421L459.76 502.836M660.379 500.643L678.731 502.836L697.639 513.801L720.162 529.298L738.236 545.673L750.748 563.801L763.817 583.392L775.217 607.076L783.281 631.053L780.222 648.012L772.993 664.678L767.154 678.129L759.09 687.778L750.748 701.813M358.407 420.234L396.502 405.029M358.407 420.234L370.503 392.31M382.599 364.386L370.503 392.31M370.503 392.31L348.675 412.339L313.362 424.327L283.888 438.947L290.561 391.287L309.191 359.708L340.056 349.181M340.056 349.181L354.793 341.287M340.056 349.181L317.255 345.965M317.255 345.965L332.27 330.468L348.675 317.602M317.255 345.965L299.459 359.708L290.561 379.298M290.561 379.298L283.888 364.386V345.965M290.561 379.298C288.337 374.327 283.888 360.702 283.888 345.965M290.561 379.298L279.439 392.31L271.097 416.433L257.75 409.123L246.906 391.287M283.888 345.965L299.459 312.632M246.906 391.287L234.115 379.298L222.437 367.602M246.906 391.287L257.75 420.234L263.868 438.947V455.322L257.75 484.269V500.643H237.174H218.822L208.534 484.269M208.534 484.269V458.538M208.534 484.269V500.643L185.455 505.906M185.455 505.906H161.82L137.629 500.643M185.455 505.906L178.643 511.462M137.629 552.982L158.205 528.129L171.83 517.018M137.629 552.982L130.399 570.819M137.629 552.982L171.83 517.018M171.83 517.018L178.643 511.462M178.643 511.462H204.085L234.115 517.018H253.579L263.868 537.193L274.156 557.076L253.579 566.433L229.944 583.684L208.534 597.135L188.514 607.076L174.055 622.573L162.237 624.474M150.42 626.374H130.399L111.491 622.573M150.42 626.374C143.746 626.374 126.618 625.614 111.491 622.573M150.42 626.374L162.237 624.474M111.491 622.573H99.5349M162.237 624.474L150.42 643.626M150.42 643.626L130.399 659.415M150.42 643.626L166.825 636.023L185.455 622.573L204.085 610.292L224.939 598.889L229.944 610.292L224.939 630.175L218.822 643.626M218.822 643.626L208.534 655.614M218.822 643.626L224.939 659.415M208.534 655.614L193.519 669.064L178.643 678.421M208.534 655.614C203.529 660.097 190.543 670.936 178.643 678.421M178.643 678.421L161.82 681.93M224.939 659.415L222.437 678.421L218.822 698.304M224.939 659.415L240.233 630.175L253.579 603.275L263.868 586.901L290.561 576.667L317.255 566.433H325.597L321.426 583.684L313.362 607.076L305.02 626.374L299.459 648.012L290.561 669.064L279.439 688.947L263.868 707.368L243.847 724.62L222.437 740.88M199.914 755.322L218.822 743.626L222.437 740.88M199.914 755.322L192.893 753.421M199.914 755.322C181.006 767.018 192.893 753.421 174.055 771.111M145.971 743.626L171.83 747.719L185.872 751.52M145.971 743.626H118.443L111.491 747.719M145.971 743.626C166.658 746.901 181.191 750.253 185.872 751.52M185.872 751.52L192.893 753.421M192.893 753.421L174.055 771.111M174.055 771.111L150.42 780.76L127.063 785.731M222.437 740.88L218.822 760.877L208.534 776.667M208.534 776.667L199.914 788.51L185.455 800.351L166.825 807.076M208.534 776.667C216.764 764.035 235.506 752.105 243.847 747.719L260.253 735.731L281.941 714.386V740.88L274.712 767.018L263.868 797.427L257.194 819.942L243.847 843.041L235.506 858.246L216.598 867.31L202.417 873.743L193.936 868.772M122.336 858.246L133.18 855.906H150.42L166.825 858.246L185.455 863.801L193.936 868.772M193.936 868.772L181.562 880.175L166.825 885.439H150.42M150.42 885.439L127.063 888.947H111.491H98.9788L85.91 885.439L70.0607 883.392M150.42 885.439L135.126 901.813M135.126 901.813L122.336 910.585L93.4176 919.357M135.126 901.813L148.473 895.088H166.825L191.294 888.947L226.886 875.79L210.202 895.088L202.417 905.906L188.792 919.357L172.664 938.947L153.478 955.322L140.41 966.725M140.41 966.725L110.101 993.041M140.41 966.725L163.766 955.322L188.792 933.392L202.417 921.404L210.202 910.585L211.871 917.602M192.963 992.164L202.417 976.959L211.871 962.047L213.539 947.135L215.207 931.637L211.871 917.602M211.871 917.602L226.886 895.088L240.511 880.175L263.868 851.52L290.005 807.076L293.62 800.351L299.181 819.942L302.24 836.316L299.181 851.52L290.005 871.111L284.722 892.456L282.497 910.585M282.497 910.585V929.591L286.39 944.211L288.615 953.275M282.497 910.585L295.844 877.544L303.63 858.246L311.416 868.772L314.752 881.93M314.752 881.93L319.757 895.088L325.04 907.953L327.265 913.509M314.752 881.93L317.811 860.877V851.52M317.811 851.52L331.714 858.246L345.617 865.848L354.793 875.79L359.52 887.485L362.578 899.766L364.525 905.906M317.811 851.52L314.752 831.93L311.416 812.047L313.362 760.877L316.421 717.602L320.87 684.854L326.987 659.415L341.168 675.497L355.349 688.947L366.749 700.936M366.749 700.936L381.208 710.292M366.749 700.936L355.349 675.497L345.339 663.216L336.997 643.626L335.051 630.175L341.168 610.292L350.344 590.409L363.969 569.357L379.818 548.012L396.502 532.222L409.848 517.018L428.2 505.906L440.157 500.643L459.76 502.836M750.748 701.813L741.572 710.585M750.748 701.813L763.817 690.409L775.217 678.129L786.34 664.678L793.847 658.83L797.184 674.62L801.633 693.333L805.248 731.345L808.584 763.801V802.982V827.836V842.749L801.633 853.567M801.633 853.567L786.34 860.292L772.993 871.696L763.817 883.684L759.09 905.029M801.633 853.567L808.584 863.801M808.584 863.801L805.248 881.345L801.633 895.965L794.125 915.263M808.584 863.801L821.097 853.567L827.214 871.696M827.214 871.696L833.888 888.947L836.39 909.123V927.544L830.829 955.029M827.214 871.696L821.097 827.836L823.878 802.982L836.39 815.556L847.791 838.363L862.25 857.368L876.431 877.544L892.836 895.965L907.573 909.123L904.237 921.696V938.947M904.237 938.947L907.573 955.029L912.578 970.526M904.237 938.947L912.578 970.526M904.237 938.947L916.193 915.263L928.984 930.76L944.833 944.211L959.292 955.029M912.578 970.526L920.086 981.93L928.984 991.871M959.292 955.029L970.137 963.801L982.093 973.45L994.606 981.93L1010.46 991.871M959.292 955.029L936.769 921.696L920.086 905.029L907.573 888.947L903.442 881.345H916.193L934.823 888.947L955.956 892.749H970.137L982.093 901.813L994.606 909.123L1005.73 915.263M1005.73 915.263L1026.58 918.187M1005.73 915.263L988.21 895.965L1015.18 892.749M1015.18 892.749L1033.26 888.947L1050.22 881.345M1015.18 892.749L976.254 886.608L949.282 881.345L934.823 875.497L945.945 865.556L962.629 860.292L976.254 857.368M976.254 857.368H997.108M976.254 857.368L955.956 853.567L934.823 860.292L922.867 868.772L895.061 857.368L878.933 845.38L866.977 820.234L853.074 784.854L842.786 757.076L838.893 734.269V720.526L853.074 726.082L869.757 737.778L887.553 749.181L895.061 754.444V765.848L904.237 774.62L916.193 784.854M916.193 784.854L926.203 794.211L940.106 798.889L955.956 805.614M916.193 784.854L907.573 759.415L922.867 765.848L942.887 772.573L962.629 778.421M962.629 778.421L979.591 782.807L997.108 784.854M962.629 778.421L936.769 761.754L955.956 754.444L972.361 749.181M972.361 749.181L1007.67 743.041M972.361 749.181L945.945 746.842L926.203 754.444L897.563 740.994L872.26 717.895L850.849 698.889L832.497 670.819L821.653 639.24L815.536 613.509L801.633 579.298L797.184 570.234H812.755L830.273 574.912L845.566 579.298L858.913 583.392L869.757 604.152L877.821 616.725L883.938 631.053L890.056 650.351L892.836 664.678L897.563 674.62L900.066 687.778M900.066 687.778V701.813M900.066 687.778L902.29 658.83L916.193 664.678M916.193 664.678L931.208 670.819L942.887 678.129L958.18 680.175M916.193 664.678L900.066 639.24L890.056 613.509L881.436 591.871L900.066 599.766L921.476 613.509L938.716 621.696L958.18 634.854M958.18 634.854L976.532 650.351L988.488 662.339M958.18 634.854L976.532 626.667M976.532 626.667H994.328H1009.34L1020.19 621.696M976.532 626.667L946.502 616.725L927.872 604.152L905.627 586.023L881.436 572.865L865.308 563.801L850.849 556.784L858.913 538.07L865.308 521.696L877.821 516.725L897.563 513.801H911.188H927.872L943.165 518.772L955.121 524.912L965.688 533.977M965.688 533.977L976.532 545.673L984.596 556.784L991.269 572.865M965.688 533.977L952.341 510.585L969.024 507.368M969.024 507.368L987.932 497.427M969.024 507.368L935.657 500.351H917.583L914.803 482.515L912.995 471.696M911.188 460.877L912.995 471.696M912.995 471.696L905.627 489.24L897.563 497.427H877.821H865.308L862.806 467.602L858.913 447.135L856.411 433.099L870.035 409.415L883.66 389.532L893.948 372.573M893.948 372.573L897.563 366.14M893.948 372.573L877.821 385.146L865.308 400.936L850.849 415.556L842.786 393.918L836.668 377.251L839.727 352.69M839.727 352.69L831.107 329.591L820.263 312.047M839.727 352.69L836.668 379.298L817.204 358.37M811.921 352.69L789.398 329.591L769.1 314.094M811.921 352.69L798.713 350.789M811.921 352.69L817.204 358.37M766.041 340.117L785.506 348.889L798.713 350.789M798.713 350.789L817.204 358.37M817.204 358.37L827.77 385.146L833.61 400.936L839.727 422.865V436.316L817.204 427.251L793.013 420.234L773.549 415.556M773.549 415.556L755.753 400.936L744.353 387.485L736.011 362.632M773.549 415.556L751.582 417.895M751.582 417.895L732.118 412.632L724.055 409.123" stroke="url(#paint0_linear_60_177)" stroke-width="20" stroke-linecap="round"/>
<defs>
<linearGradient id="paint0_linear_60_177" x1="523.091" y1="-1.46638" x2="523.091" y2="345.965" gradientUnits="userSpaceOnUse">
<stop stop-color="#0091B1"/>
<stop offset="1" stop-color="#0AEBDD"/>
</linearGradient>
</defs>
</svg>
