<svg width="1672" height="2010" viewBox="0 0 1672 2010" fill="none" xmlns="http://www.w3.org/2000/svg">
<path d="M914 1869.5L908 1862V1852.5L914 1845.5L920.5 1840.5L926 1836.5L934 1831.5L941 1822.5H951H959H970.5L979.5 1829V1840.5V1849.5L975 1862L970.5 1875L959 1881.5H947H936L926 1878.5L920.5 1875L914 1869.5Z" stroke="#04B4F2" stroke-width="5"/>
<path d="M726.364 1877L737.03 1869.5L746 1861.5L737.03 1846.5L730.727 1840L718.606 1831.5L707.939 1822.5L687.091 1816L674 1831.5L679.818 1853.5L687.091 1877L698.242 1885H712.788L726.364 1877Z" stroke="#04B4F2" stroke-width="5"/>
<path d="M786.5 1761L792.5 1769.5L786.5 1779.5L762 1785.5H741L723.5 1779.5L711 1769.5L689.5 1754L673.5 1741L659.5 1719.5L649.5 1694L642 1671V1649.5L649.5 1632.5H666.5H683.5L699.5 1649.5L711 1671L723.5 1694L736.5 1717L752 1729.5L769.5 1747L786.5 1761Z" stroke="#04B4F2" stroke-width="5"/>
<path d="M878 1754L870.5 1769.5L878 1785.5H905L923.5 1779.5L949.5 1769.5L963.5 1761L978 1741L992.5 1719.5L1006.5 1705.5L1015 1694V1671L1006.5 1649.5L992.5 1632.5H978L963.5 1649.5L949.5 1662.5L939.5 1684L923.5 1705.5L913.5 1719.5L896.5 1741L878 1754Z" stroke="#04B4F2" stroke-width="5"/>
<path d="M171.5 1292V1302.5V1358.5L166.5 1405L159.5 1459L150.5 1499V1532.5L139 1576.5L129 1630.5V1695.5V1734V1778V1809.5V1836L122.5 1868.5L100.5 1920.5L88 1875V1836V1783L94 1724V1676L100.5 1619L109.5 1567L122.5 1520.5L129 1474.5L139 1427.5L150.5 1392L159.5 1358.5L166.5 1325L171.5 1292Z" stroke="#04B4F2" stroke-width="5"/>
<path d="M1474 1378V1321.5V1293L1498 1369.5L1515 1412.5L1525.5 1458.5L1534 1506.5L1544.5 1584L1558 1645.5V1695.5V1757V1817V1879L1544 1944.5L1525.5 1863.5L1515 1786.5V1726.5V1676.5V1623.5L1506.5 1573.5L1494.5 1515L1486 1458.5L1474 1378Z" stroke="#04B4F2" stroke-width="5"/>
<path d="M446.794 767.92C447.578 765.273 446.068 762.49 443.42 761.706C440.773 760.922 437.99 762.432 437.206 765.08L446.794 767.92ZM434 793.5L429.206 792.08L429 792.775V793.5H434ZM434 824.5H429V824.864L429.053 825.224L434 824.5ZM456 865L452.375 868.444L452.705 868.791L453.094 869.069L456 865ZM484 885L481.094 889.069L481.913 889.654L482.896 889.877L484 885ZM510.5 891L509.396 895.877L509.941 896H510.5V891ZM544.5 891V896H545.4L546.244 895.686L544.5 891ZM587.5 875L589.244 879.686L589.469 879.602L589.686 879.497L587.5 875ZM623.5 857.5L625.686 861.997L625.927 861.88L626.155 861.737L623.5 857.5ZM665 831.5L667.655 835.737L667.778 835.66L667.896 835.576L665 831.5ZM703 804.5L705.896 808.576L706.2 808.36L706.468 808.102L703 804.5ZM730 778.5L726.967 774.525L726.738 774.699L726.532 774.898L730 778.5ZM768 749.5L771.701 752.862L764.967 745.525L768 749.5ZM688.5 837L684.799 833.638L684.712 833.734L684.629 833.835L688.5 837ZM623.5 916.5L626.406 920.569L626.949 920.181L627.371 919.665L623.5 916.5ZM592 939L594.436 943.366L594.679 943.231L594.906 943.069L592 939ZM544.5 965.5L545.207 970.45L546.126 970.319L546.936 969.866L544.5 965.5ZM502.5 971.5L500.469 976.069L501.783 976.653L503.207 976.45L502.5 971.5ZM475.5 959.5L471.877 962.946L472.562 963.666L473.469 964.069L475.5 959.5ZM456 939L451.755 941.642L452.025 942.076L452.377 942.446L456 939ZM442 916.5L437.229 917.997L437.419 918.602L437.755 919.142L442 916.5ZM434 891L429.02 891.445L429.068 891.982L429.229 892.497L434 891ZM431.5 863L426.718 861.539L426.433 862.472L426.52 863.445L431.5 863ZM697.5 827.094L693.799 823.732L697.5 827.094ZM681 865L676.415 863.004L676.372 863.104L676.333 863.205L681 865ZM647 928.5L642.789 925.805L642.778 925.821L642.768 925.838L647 928.5ZM627.5 959.5L630.575 963.443L631.266 962.904L631.732 962.162L627.5 959.5ZM602.5 979L599.425 975.057L598.876 975.486L598.465 976.047L602.5 979ZM587.5 999.5L590.658 1003.38L591.156 1002.97L591.535 1002.45L587.5 999.5ZM560.5 1021.5L562.764 1025.96L563.243 1025.71L563.658 1025.38L560.5 1021.5ZM529 1037.5L529.837 1042.43L530.587 1042.3L531.264 1041.96L529 1037.5ZM502.5 1042L500.264 1046.47L501.726 1047.2L503.337 1046.93L502.5 1042ZM475.5 1028.5L471.796 1031.86L472.426 1032.55L473.264 1032.97L475.5 1028.5ZM456 1007L451.409 1008.98L451.738 1009.74L452.296 1010.36L456 1007ZM445 981.5L440.079 982.386L440.181 982.952L440.409 983.48L445 981.5ZM440.5 956.5L435.519 956.936L435.539 957.162L435.579 957.386L440.5 956.5ZM441.981 916.064C441.74 913.313 439.315 911.278 436.564 911.519C433.813 911.76 431.778 914.185 432.019 916.936L441.981 916.064ZM465.75 1017.75L469.454 1014.39L465.75 1017.75ZM642 953.5L646.359 955.948L646.612 955.5L646.767 955.009L642 953.5ZM621.5 990L625.849 992.467L625.854 992.458L625.859 992.448L621.5 990ZM602.5 1023.5L606.45 1026.56L606.671 1026.28L606.849 1025.97L602.5 1023.5ZM580 1052.5L583.441 1056.13L583.717 1055.87L583.95 1055.56L580 1052.5ZM560.5 1071L557.059 1067.37L556.983 1067.44L556.91 1067.52L560.5 1071ZM544.5 1087.5L546.802 1091.94L547.523 1091.56L548.09 1090.98L544.5 1087.5ZM517.5 1101.5V1106.5H518.719L519.802 1105.94L517.5 1101.5ZM494.5 1101.5L491.534 1105.53L492.857 1106.5H494.5V1101.5ZM475.5 1087.5L470.965 1089.61L471.08 1089.85L471.221 1090.09L475.5 1087.5ZM465.75 1066.5L460.983 1068.01L461.08 1068.31L461.215 1068.61L465.75 1066.5ZM458 1042L453.009 1042.3L453.047 1042.92L453.233 1043.51L458 1042ZM460.991 1008.7C460.824 1005.94 458.454 1003.84 455.698 1004.01C452.941 1004.18 450.842 1006.55 451.009 1009.3L460.991 1008.7ZM780 845V840H778.988L778.056 840.393L780 845ZM894.5 845L896.476 840.407L895.53 840H894.5V845ZM985.524 889.593C988.061 890.684 991.002 889.512 992.093 886.976C993.184 884.439 992.012 881.498 989.476 880.407L985.524 889.593ZM517.5 1157L513.221 1159.59L514.68 1162H517.5V1157ZM544.5 1157V1162H545.718L546.799 1161.44L544.5 1157ZM572.5 1142.5L574.799 1146.94L575.651 1146.5L576.278 1145.77L572.5 1142.5ZM592 1120L595.778 1123.27L596.082 1122.92L596.316 1122.52L592 1120ZM611 1087.5L615.316 1090.02L615.428 1089.83L615.523 1089.63L611 1087.5ZM627.5 1052.5L623.351 1049.71L623.139 1050.02L622.977 1050.37L627.5 1052.5ZM647 1023.5L643.464 1019.96L643.121 1020.31L642.851 1020.71L647 1023.5ZM671 999.5L668.303 995.29L667.847 995.582L667.464 995.964L671 999.5ZM703 979L701.329 974.287L700.787 974.48L700.303 974.79L703 979ZM884 959.5L884.661 954.544L884.332 954.5H884V959.5ZM929 965.5L931.448 961.14L930.611 960.671L929.661 960.544L929 965.5ZM957.5 981.5L960.879 977.814L960.452 977.423L959.948 977.14L957.5 981.5ZM987.5 1009L991.062 1005.49L990.973 1005.4L990.879 1005.31L987.5 1009ZM1020 1042L1024.02 1039.02L1023.81 1038.74L1023.56 1038.49L1020 1042ZM1041.5 1071L1037.48 1073.98L1037.53 1074.04L1037.57 1074.09L1041.5 1071ZM1065.5 1101.5L1069.49 1098.49L1069.46 1098.45L1069.43 1098.41L1065.5 1101.5ZM1087 1130L1091.33 1127.51L1091.18 1127.24L1090.99 1126.99L1087 1130ZM1098.5 1150L1094.17 1152.49L1095.12 1154.16L1096.95 1154.75L1098.5 1150ZM1120 1157L1118.45 1161.75L1119.97 1162.25L1121.49 1161.77L1120 1157ZM1142.5 1150L1143.99 1154.77L1145.71 1154.24L1146.69 1152.72L1142.5 1150ZM1155.5 1130L1151.6 1126.88L1151.44 1127.07L1151.31 1127.28L1155.5 1130ZM1169.5 1112.5L1173.4 1115.62L1173.57 1115.42L1173.71 1115.2L1169.5 1112.5ZM1189.71 1090.2C1191.2 1087.87 1190.52 1084.78 1188.2 1083.29C1185.87 1081.8 1182.78 1082.48 1181.29 1084.8L1189.71 1090.2ZM764 990H769V989.513L768.906 989.035L764 990ZM764 1007L767.577 1010.49L769 1009.04V1007H764ZM753.5 1017.75L756.542 1021.72L756.827 1021.5L757.077 1021.24L753.5 1017.75ZM746 1023.5L742.958 1019.53L742.905 1019.57L742.854 1019.61L746 1023.5ZM735.5 1032L737.91 1036.38L738.3 1036.17L738.646 1035.89L735.5 1032ZM725.5 1037.5L727.552 1042.06L727.734 1041.98L727.91 1041.88L725.5 1037.5ZM715.5 1042L713.448 1037.44L711.549 1038.29L710.818 1040.24L715.5 1042ZM712.5 1050L707.818 1048.24L707.5 1049.09V1050H712.5ZM712.5 1052.5H707.5V1053.31L707.757 1054.08L712.5 1052.5ZM715.5 1061.5L710.757 1063.08L711.573 1065.53L714.044 1066.28L715.5 1061.5ZM727 1065L725.544 1069.78L726.256 1070H727V1065ZM749 1065L751.773 1060.84L750.514 1060H749V1065ZM758 1071H763V1068.32L760.773 1066.84L758 1071ZM758 1087.5L762.76 1089.03L763 1088.28V1087.5H758ZM753.5 1101.5L757.631 1104.32L758.039 1103.72L758.26 1103.03L753.5 1101.5ZM746 1112.5L748.906 1116.57L749.63 1116.05L750.131 1115.32L746 1112.5ZM735.5 1120V1125H737.102L738.406 1124.07L735.5 1120ZM715.5 1120V1115H714.813L714.152 1115.19L715.5 1120ZM703 1123.5L701.652 1118.69L698 1119.71V1123.5H703ZM703 1138.5H698V1141.05L700.059 1142.54L703 1138.5ZM708.5 1142.5L705.559 1146.54L705.781 1146.71L706.019 1146.84L708.5 1142.5ZM715.5 1146.5L713.019 1150.84L714.172 1151.5H715.5V1146.5ZM735.5 1146.5L738.427 1142.45L737.117 1141.5H735.5V1146.5ZM744.5 1153L749.432 1152.18L749.094 1150.15L747.427 1148.95L744.5 1153ZM746 1162H751V1161.59L750.932 1161.18L746 1162ZM746 1190L749.448 1193.62L751 1192.14V1190H746ZM735.5 1200V1205H737.5L738.948 1203.62L735.5 1200ZM708.5 1200V1195H706.874L705.559 1195.96L708.5 1200ZM703 1204L700.059 1199.96L699.742 1200.19L699.464 1200.46L703 1204ZM697.5 1209.5L693.964 1205.96L692.5 1207.43V1209.5H697.5ZM697.5 1230.5H692.5V1232.71L694.137 1234.2L697.5 1230.5ZM703 1235.5L699.637 1239.2L700.27 1239.78L701.06 1240.11L703 1235.5ZM712.5 1239.5L710.56 1244.11L711.49 1244.5H712.5V1239.5ZM725.5 1239.5L727.152 1234.78L726.35 1234.5H725.5V1239.5ZM735.5 1243L733.848 1247.72L734.65 1248H735.5V1243ZM741 1243L743.65 1238.76L742.434 1238H741V1243ZM749 1248H754V1245.23L751.65 1243.76L749 1248ZM749 1279L753.715 1280.66L754 1279.86V1279H749ZM746 1287.5L748.481 1291.84L750.096 1290.92L750.715 1289.16L746 1287.5ZM735.5 1293.5V1298.5H736.828L737.981 1297.84L735.5 1293.5ZM703 1293.5V1288.5H701.544L700.316 1289.28L703 1293.5ZM697.5 1297L694.816 1292.78L694.516 1292.97L694.246 1293.2L697.5 1297ZM690.5 1303L687.246 1299.2L685.5 1300.7V1303H690.5ZM690.5 1322H685.5V1324.43L687.411 1325.93L690.5 1322ZM697.5 1327.5L694.411 1331.43L695.771 1332.5H697.5V1327.5ZM708.5 1327.5L710.736 1323.03L709.68 1322.5H708.5V1327.5ZM715.5 1331L713.264 1335.47L714.32 1336H715.5V1331ZM744.5 1331H749.5V1326H744.5V1331ZM744.5 1345.5H739.5V1345.78L739.531 1346.05L744.5 1345.5ZM746 1359L750.939 1359.78L751.044 1359.12L750.969 1358.45L746 1359ZM744.5 1368.5L749.243 1370.08L749.374 1369.69L749.439 1369.28L744.5 1368.5ZM741 1379L744.166 1382.87L745.286 1381.95L745.743 1380.58L741 1379ZM735.5 1383.5V1388.5H737.285L738.666 1387.37L735.5 1383.5ZM703 1383.5V1378.5H702.219L701.476 1378.74L703 1383.5ZM690.5 1387.5L688.976 1382.74L688.07 1383.03L687.334 1383.63L690.5 1387.5ZM685 1392L681.834 1388.13L680 1389.63V1392H685ZM685 1412H680V1414.65L682.188 1416.13L685 1412ZM697.5 1420.5L694.688 1424.63L695.961 1425.5H697.5V1420.5ZM715.5 1420.5L716.585 1415.62L716.049 1415.5H715.5V1420.5ZM729 1423.5L727.915 1428.38L728.451 1428.5H729V1423.5ZM735.5 1423.5H740.5V1418.5H735.5V1423.5ZM735.5 1436L739.813 1438.53L740.5 1437.36V1436H735.5ZM727 1450.5L730.281 1454.27L730.899 1453.74L731.313 1453.03L727 1450.5ZM715.5 1460.5L716.585 1465.38L717.823 1465.11L718.781 1464.27L715.5 1460.5ZM697.5 1464.5V1469.5H698.049L698.585 1469.38L697.5 1464.5ZM685 1464.5L680.713 1467.07L682.169 1469.5H685V1464.5ZM900.5 961.7L899.839 966.656L900.5 961.7ZM894.5 1009H889.5V1011.87L891.981 1013.32L894.5 1009ZM909.5 1017.75L906.981 1022.07L907.504 1022.37L908.086 1022.55L909.5 1017.75ZM929 1023.5L933.198 1020.78L932.191 1019.23L930.414 1018.7L929 1023.5ZM934.5 1032L938.881 1029.59L938.795 1029.43L938.698 1029.28L934.5 1032ZM940 1042H945V1040.72L944.381 1039.59L940 1042ZM940 1052.5L944.577 1054.51L945 1053.55V1052.5H940ZM934.5 1065L936.006 1069.77L938.165 1069.09L939.077 1067.01L934.5 1065ZM915.5 1071L916.937 1075.79L916.971 1075.78L917.006 1075.77L915.5 1071ZM900.5 1075.5L899.063 1070.71L895.5 1071.78V1075.5H900.5ZM900.5 1101.5H895.5V1102.68L896.028 1103.74L900.5 1101.5ZM904.5 1109.5L900.028 1111.74L901.028 1113.74L903.184 1114.32L904.5 1109.5ZM915.5 1112.5L917.44 1107.89L917.135 1107.76L916.816 1107.68L915.5 1112.5ZM925 1116.5L923.06 1121.11L923.99 1121.5H925V1116.5ZM940 1116.5L943.536 1112.96L942.071 1111.5H940V1116.5ZM947 1123.5H952V1121.43L950.536 1119.96L947 1123.5ZM947 1146.5L948.348 1151.31L952 1150.29V1146.5H947ZM934.5 1150L933.152 1145.19L933.073 1145.21L932.994 1145.23L934.5 1150ZM925 1153L926.249 1157.84L926.378 1157.81L926.506 1157.77L925 1153ZM909.5 1157L908.251 1152.16L905.683 1152.82L904.791 1155.32L909.5 1157ZM904.5 1171L899.791 1169.32L899.5 1170.13V1171H904.5ZM904.5 1200H899.5V1204.12L903.542 1204.91L904.5 1200ZM925 1204L924.042 1208.91L924.517 1209H925V1204ZM947 1204L949.32 1199.57L948.23 1199H947V1204ZM957.5 1209.5H962.5V1206.47L959.82 1205.07L957.5 1209.5ZM957.5 1230.5L960.754 1234.3L962.5 1232.8V1230.5H957.5ZM947 1239.5L948.348 1244.31L949.414 1244.02L950.254 1243.3L947 1239.5ZM934.5 1243V1248H935.187L935.848 1247.81L934.5 1243ZM925 1243V1238H923.765L922.671 1238.58L925 1243ZM915.5 1248V1253H916.735L917.829 1252.42L915.5 1248ZM904.5 1248V1243H899.5V1248H904.5ZM904.5 1269.5H899.5V1269.78L899.531 1270.05L904.5 1269.5ZM906 1283L901.031 1283.55L901.089 1284.08L901.257 1284.58L906 1283ZM909.5 1293.5L904.757 1295.08L905.896 1298.5H909.5V1293.5ZM957.5 1293.5L959.87 1289.1L958.761 1288.5H957.5V1293.5ZM964 1297H969V1294.01L966.37 1292.6L964 1297ZM964 1322L967.23 1325.82L969 1324.32V1322H964ZM957.5 1327.5L959.081 1332.24L959.995 1331.94L960.73 1331.32L957.5 1327.5ZM947 1331V1336H947.811L948.581 1335.74L947 1331ZM934.5 1331V1326H933.865L933.251 1326.16L934.5 1331ZM919 1335V1340H919.635L920.249 1339.84L919 1335ZM909.5 1335V1330H905.532L904.631 1333.86L909.5 1335ZM906 1350L901.131 1348.86L901 1349.42V1350H906ZM906 1379H901V1381.7L903.264 1383.18L906 1379ZM919 1387.5L916.264 1391.68L917.51 1392.5H919V1387.5ZM969 1387.5L971.704 1383.29L970.469 1382.5H969V1387.5ZM976 1392H981V1389.27L978.704 1387.79L976 1392ZM976 1412L980.271 1414.6L981 1413.4V1412H976ZM969 1423.5V1428.5H971.81L973.271 1426.1L969 1423.5ZM925 1423.5V1418.5H924.275L923.58 1418.71L925 1423.5ZM911.5 1427.5L910.08 1422.71L907.297 1423.53L906.633 1426.35L911.5 1427.5ZM909.5 1436L904.633 1434.85L904.141 1436.94L905.318 1438.74L909.5 1436ZM919 1450.5L914.818 1453.24L915.519 1454.31L916.647 1454.91L919 1450.5ZM926.5 1454.5L930.404 1451.38L929.761 1450.57L928.853 1450.09L926.5 1454.5ZM934.5 1464.5L930.596 1467.62L930.769 1467.84L930.964 1468.04L934.5 1464.5ZM940 1470L936.464 1473.54L937.929 1475H940V1470ZM969 1470V1475H971.527L973.025 1472.97L969 1470ZM976 1460.5L980.025 1463.47L980.317 1463.07L980.526 1462.62L976 1460.5ZM987.5 1436L983.057 1433.71L983.014 1433.79L982.974 1433.88L987.5 1436ZM995.5 1420.5L992.192 1416.75L991.488 1417.37L991.057 1418.21L995.5 1420.5ZM1012.5 1405.5L1009.55 1401.46L1009.37 1401.6L1009.19 1401.75L1012.5 1405.5ZM1031 1392L1029.2 1387.34L1028.58 1387.57L1028.05 1387.96L1031 1392ZM1053 1383.5L1052.08 1378.59L1051.63 1378.67L1051.2 1378.84L1053 1383.5ZM1077 1379V1374H1076.54L1076.08 1374.09L1077 1379ZM1093 1379V1384H1093.38L1093.75 1383.94L1093 1379ZM1116 1375.5L1117.04 1370.61L1116.15 1370.42L1115.25 1370.56L1116 1375.5ZM1132.5 1379L1131.46 1383.89L1131.5 1383.9L1131.54 1383.91L1132.5 1379ZM1155.5 1383.5L1158.09 1379.23L1157.33 1378.76L1156.46 1378.59L1155.5 1383.5ZM1169.5 1392L1166.91 1396.27L1166.98 1396.32L1167.05 1396.36L1169.5 1392ZM1185.5 1401L1189.37 1397.83L1188.77 1397.1L1187.95 1396.64L1185.5 1401ZM1194.5 1412L1198.7 1409.29L1198.55 1409.05L1198.37 1408.83L1194.5 1412ZM1204.5 1427.5L1208.85 1425.04L1208.78 1424.91L1208.7 1424.79L1204.5 1427.5ZM1217.5 1450.5L1221.88 1448.09L1221.87 1448.07L1221.85 1448.04L1217.5 1450.5ZM1223 1460.5L1218.62 1462.91L1218.71 1463.08L1218.82 1463.24L1223 1460.5ZM1232.5 1475H1237.5V1473.51L1236.68 1472.26L1232.5 1475ZM1232.5 1528L1236.55 1530.93L1237.5 1529.62V1528H1232.5ZM1213 1555L1208.95 1552.07L1208.93 1552.09L1208.92 1552.11L1213 1555ZM1204.5 1567L1207.94 1570.62L1208.3 1570.29L1208.58 1569.89L1204.5 1567ZM1194.5 1576.5L1191.06 1572.88L1190.44 1573.46L1190.05 1574.21L1194.5 1576.5ZM1185.5 1594L1189.75 1596.64L1189.85 1596.47L1189.95 1596.29L1185.5 1594ZM1176.5 1608.5L1172.25 1605.86L1172.15 1606.03L1172.06 1606.2L1176.5 1608.5ZM1169.5 1622L1173.21 1625.35L1173.64 1624.87L1173.94 1624.3L1169.5 1622ZM1155.5 1637.5L1151.79 1634.15L1151.04 1634.98L1150.72 1636.04L1155.5 1637.5ZM1148.5 1660.5L1143.72 1659.04L1143.69 1659.14L1143.66 1659.24L1148.5 1660.5ZM1142.5 1683.5L1137.66 1682.24L1137.5 1682.86V1683.5H1142.5ZM1142.5 1743.5H1137.5V1744.49L1137.88 1745.41L1142.5 1743.5ZM1148.5 1758L1143.88 1759.91L1144.35 1761.04L1145.28 1761.82L1148.5 1758ZM1164.5 1771.5L1167.96 1767.89L1167.85 1767.78L1167.72 1767.68L1164.5 1771.5ZM1176.5 1783L1173.04 1786.61L1173.95 1787.48L1175.16 1787.82L1176.5 1783ZM1194.5 1788L1193.16 1792.82L1194.48 1793.18L1195.8 1792.83L1194.5 1788ZM1213 1783L1214.3 1787.83L1216.74 1787.17L1217.66 1784.82L1213 1783ZM1217.5 1771.5L1213.68 1768.27L1213.15 1768.9L1212.84 1769.68L1217.5 1771.5ZM1223 1765V1760H1220.68L1219.18 1761.77L1223 1765ZM1232.5 1765L1234.67 1760.49L1233.64 1760H1232.5V1765ZM1246 1771.5L1249.46 1767.89L1248.89 1767.34L1248.17 1766.99L1246 1771.5ZM1258 1783L1262.2 1780.28L1261.88 1779.79L1261.46 1779.39L1258 1783ZM1269 1800L1273.79 1798.56L1273.58 1797.88L1273.2 1797.28L1269 1800ZM1275 1820H1280V1819.27L1279.79 1818.56L1275 1820ZM1275 1889L1279.51 1891.16L1280 1890.14V1889H1275ZM1269 1901.5L1273.2 1904.22L1273.37 1903.95L1273.51 1903.66L1269 1901.5ZM1258 1918.5L1253.8 1915.78L1253.4 1916.4L1253.2 1917.1L1258 1918.5ZM679 1454.5L683.287 1451.93L683.057 1451.54L682.763 1451.21L679 1454.5ZM668.5 1442.5L664.088 1444.85L664.359 1445.36L664.737 1445.79L668.5 1442.5ZM660.5 1427.5L664.912 1425.15L664.681 1424.71L664.37 1424.33L660.5 1427.5ZM642.5 1405.5L646.37 1402.33L646.007 1401.89L645.554 1401.54L642.5 1405.5ZM625 1392L628.054 1388.04L627.362 1387.51L626.53 1387.24L625 1392ZM611 1387.5L612.53 1382.74L612.259 1382.65L611.981 1382.6L611 1387.5ZM591 1383.5L588.948 1388.06L589.464 1388.29L590.019 1388.4L591 1383.5ZM581 1379L583.052 1374.44L582.48 1374.18L581.862 1374.07L581 1379ZM561 1375.5L561.862 1370.57L561.434 1370.5H561V1375.5ZM529 1375.5V1370.5H528.428L527.871 1370.63L529 1375.5ZM494.5 1383.5L493.371 1378.63L492.9 1378.74L492.458 1378.94L494.5 1383.5ZM475.5 1392L473.458 1387.44L472.458 1387.88L471.737 1388.71L475.5 1392ZM458 1412L454.237 1408.71L453.973 1409.01L453.76 1409.35L458 1412ZM443 1436L438.76 1433.35L438.509 1433.75L438.338 1434.19L443 1436ZM433.5 1460.5L428.838 1458.69L428.698 1459.05L428.615 1459.43L433.5 1460.5ZM427.5 1488L422.615 1486.93L422.5 1487.46V1488H427.5ZM427.5 1537H422.5V1538.86L423.711 1540.26L427.5 1537ZM443 1555L447.101 1552.14L446.955 1551.93L446.789 1551.74L443 1555ZM458 1576.5L462.387 1574.1L462.256 1573.86L462.101 1573.64L458 1576.5ZM475.5 1608.5L471.113 1610.9L471.414 1611.45L471.841 1611.91L475.5 1608.5ZM502.5 1637.5L507.063 1635.46L506.725 1634.7L506.159 1634.09L502.5 1637.5ZM517.5 1671H522.5V1669.93L522.063 1668.96L517.5 1671ZM517.5 1743.5L521.907 1745.86L522.5 1744.75V1743.5H517.5ZM502.5 1771.5L505.107 1775.77L506.266 1775.06L506.907 1773.86L502.5 1771.5ZM475.5 1788V1793H476.907L478.107 1792.27L475.5 1788ZM456 1788L454.915 1792.88L455.451 1793H456V1788ZM433.5 1783L428.757 1784.58L429.652 1787.27L432.415 1787.88L433.5 1783ZM427.5 1765L432.243 1763.42C431.563 1761.38 429.652 1760 427.5 1760V1765ZM408.5 1765V1760H405.885L404.393 1762.15L408.5 1765ZM396 1783L400.028 1785.96L400.068 1785.91L400.107 1785.85L396 1783ZM383.5 1800L379.472 1797.04L378.875 1797.85L378.639 1798.83L383.5 1800ZM377 1827L372.139 1825.83L372 1826.41V1827H377ZM377 1867H372V1867.72L372.205 1868.42L377 1867ZM383.5 1889L378.705 1890.42L378.785 1890.69L378.896 1890.95L383.5 1889ZM396 1918.5L391.396 1920.45L391.415 1920.49L391.434 1920.54L396 1918.5ZM408.5 1946.5H413.5V1945.43L413.066 1944.46L408.5 1946.5ZM768 928.5L772.759 930.035L772.817 929.853L772.862 929.667L768 928.5ZM774 903.5L778.862 904.667L779 904.092V903.5H774ZM774 891H779V883.451L772.049 886.396L774 891ZM744.5 903.5L746.382 908.132L746.416 908.118L746.451 908.104L744.5 903.5ZM712.5 916.5L713.12 921.461L713.773 921.38L714.382 921.132L712.5 916.5ZM688.5 919.5V924.5H688.811L689.12 924.461L688.5 919.5ZM665 914.5C662.239 914.5 660 916.739 660 919.5C660 922.261 662.239 924.5 665 924.5V914.5ZM894.5 939H899.5V937.739L898.902 936.63L894.5 939ZM884 919.5H879V920.761L879.598 921.87L884 919.5ZM884 903.5L881.557 899.137L879 900.569V903.5H884ZM896.5 896.5V891.5H895.195L894.057 892.137L896.5 896.5ZM929 896.5L931.684 892.282L930.456 891.5H929V896.5ZM940 903.5L937.316 907.718L937.668 907.942L938.052 908.105L940 903.5ZM953 909L955.069 904.448L955.009 904.421L954.948 904.395L953 909ZM969.5 916.5L967.431 921.052L967.822 921.23L968.238 921.338L969.5 916.5ZM981 919.5L982.756 914.818L982.513 914.727L982.262 914.662L981 919.5ZM1003.24 933.182C1005.83 934.151 1008.71 932.841 1009.68 930.256C1010.65 927.67 1009.34 924.788 1006.76 923.818L1003.24 933.182ZM1251 1942.5L1246.2 1941.1L1246.14 1941.32L1246.09 1941.54L1251 1942.5ZM1246 1968L1250.9 1968.98L1250.9 1968.97L1250.91 1968.96L1246 1968ZM1241.5 1990.5V1995.5H1245.6L1246.4 1991.48L1241.5 1990.5ZM408.5 1982.5H403.5V1987.5H408.5V1982.5ZM528.5 1982.5V1987.5H532.104L533.243 1984.08L528.5 1982.5ZM540.5 1946.5L545.243 1948.08L545.345 1947.78L545.406 1947.46L540.5 1946.5ZM546 1918.5L550.906 1919.46L551 1918.99V1918.5H546ZM546 1900.5H551V1899.37L550.511 1898.34L546 1900.5ZM540.5 1889L545.011 1886.84L544.481 1885.74L543.5 1885L540.5 1889ZM528.5 1880L531.5 1876L530.167 1875H528.5V1880ZM523 1880H518V1885H523V1880ZM523 1867L519.746 1863.2L518 1864.7V1867H523ZM540.5 1852L538.624 1847.37L537.867 1847.67L537.246 1848.2L540.5 1852ZM561.5 1843.5V1838.5H560.526L559.624 1838.87L561.5 1843.5ZM601.5 1843.5H606.5V1838.5H601.5V1843.5ZM601.5 1861.5H596.5V1862.41L596.824 1863.27L601.5 1861.5ZM608.5 1880L603.824 1881.77L603.878 1881.91L603.94 1882.05L608.5 1880ZM622 1910L617.44 1912.05L617.665 1912.55L617.991 1912.99L622 1910ZM642.5 1937.5L638.491 1940.49L639.235 1941.49L640.36 1942.02L642.5 1937.5ZM661.5 1946.5L659.36 1951.02L659.829 1951.24L660.333 1951.36L661.5 1946.5ZM686.5 1952.5L685.333 1957.36L685.908 1957.5H686.5V1952.5ZM742.5 1952.5V1957.5H743.234L743.937 1957.29L742.5 1952.5ZM762.5 1946.5L763.937 1951.29L765.456 1950.83L766.435 1949.58L762.5 1946.5ZM777 1928L780.935 1931.08L781.054 1930.93L781.16 1930.77L777 1928ZM789 1910L785.556 1906.38L785.15 1906.76L784.84 1907.23L789 1910ZM799 1900.5V1895.5H797.004L795.556 1896.88L799 1900.5ZM855.5 1900.5L859.394 1897.36L857.893 1895.5H855.5V1900.5ZM870 1918.5L874.025 1915.53L873.961 1915.45L873.894 1915.36L870 1918.5ZM884 1937.5L879.975 1940.47L880.612 1941.33L881.549 1941.86L884 1937.5ZM900 1946.5L897.549 1950.86L898.017 1951.12L898.53 1951.28L900 1946.5ZM919.5 1952.5L918.03 1957.28L918.748 1957.5H919.5V1952.5ZM987.5 1952.5V1957.5H988.155L988.788 1957.33L987.5 1952.5ZM1010 1946.5L1011.29 1951.33L1013 1950.88L1014.04 1949.45L1010 1946.5ZM1023.5 1928L1019.5 1925L1019.48 1925.03L1019.46 1925.05L1023.5 1928ZM1037 1910L1041 1913L1041.42 1912.43L1041.67 1911.77L1037 1910ZM1042.5 1895.5L1047.17 1897.27L1047.27 1897.02L1047.34 1896.75L1042.5 1895.5ZM1046 1882L1041.46 1879.9L1041.27 1880.31L1041.16 1880.75L1046 1882ZM1055.5 1861.5L1060.04 1863.6L1060.18 1863.29L1060.28 1862.96L1055.5 1861.5ZM1061 1843.5V1838.5H1057.3L1056.22 1842.04L1061 1843.5ZM1094 1843.5L1097.79 1840.24L1096.29 1838.5H1094V1843.5ZM1109.5 1861.5L1113.95 1859.22L1113.68 1858.69L1113.29 1858.24L1109.5 1861.5ZM1120 1882L1124.91 1882.96L1125.24 1881.26L1124.45 1879.72L1120 1882ZM1114.5 1910L1119.32 1911.34L1119.37 1911.15L1119.41 1910.96L1114.5 1910ZM1109.5 1928L1104.68 1926.66L1104.27 1928.16L1104.77 1929.63L1109.5 1928ZM1114.5 1942.5L1119.31 1941.14L1119.27 1941.01L1119.23 1940.87L1114.5 1942.5ZM1120 1962L1115.19 1963.36L1115.24 1963.55L1115.31 1963.73L1120 1962ZM1130.5 1990.5L1125.81 1992.23L1127.01 1995.5H1130.5V1990.5ZM437.206 765.08L429.206 792.08L438.794 794.92L446.794 767.92L437.206 765.08ZM429 793.5V824.5H439V793.5H429ZM429.053 825.224L432.053 845.724L441.947 844.276L438.947 823.776L429.053 825.224ZM433.375 848.444L452.375 868.444L459.625 861.556L440.625 841.556L433.375 848.444ZM453.094 869.069L481.094 889.069L486.906 880.931L458.906 860.931L453.094 869.069ZM482.896 889.877L509.396 895.877L511.604 886.123L485.104 880.123L482.896 889.877ZM510.5 896H544.5V886H510.5V896ZM546.244 895.686L589.244 879.686L585.756 870.314L542.756 886.314L546.244 895.686ZM589.686 879.497L625.686 861.997L621.314 853.003L585.314 870.503L589.686 879.497ZM626.155 861.737L667.655 835.737L662.345 827.263L620.845 853.263L626.155 861.737ZM667.896 835.576L705.896 808.576L700.104 800.424L662.104 827.424L667.896 835.576ZM706.468 808.102L733.468 782.102L726.532 774.898L699.532 800.898L706.468 808.102ZM733.033 782.475L771.033 753.475L764.967 745.525L726.967 774.525L733.033 782.475ZM684.629 833.835L619.629 913.335L627.371 919.665L692.371 840.165L684.629 833.835ZM620.594 912.431L589.094 934.931L594.906 943.069L626.406 920.569L620.594 912.431ZM589.564 934.634L542.064 961.134L546.936 969.866L594.436 943.366L589.564 934.634ZM543.793 960.55L501.793 966.55L503.207 976.45L545.207 970.45L543.793 960.55ZM504.531 966.931L477.531 954.931L473.469 964.069L500.469 976.069L504.531 966.931ZM479.123 956.054L459.623 935.554L452.377 942.446L471.877 962.946L479.123 956.054ZM460.245 936.358L446.245 913.858L437.755 919.142L451.755 941.642L460.245 936.358ZM446.771 915.003L438.771 889.503L429.229 892.497L437.229 917.997L446.771 915.003ZM438.98 890.555L436.48 862.555L426.52 863.445L429.02 891.445L438.98 890.555ZM436.282 864.461L441.782 846.461L432.218 843.539L426.718 861.539L436.282 864.461ZM693.799 823.732L684.799 833.638L692.201 840.362L701.201 830.457L693.799 823.732ZM692.915 825.099L676.415 863.004L685.585 866.996L702.085 829.09L692.915 825.099ZM676.333 863.205L666.333 889.205L675.667 892.795L685.667 866.795L676.333 863.205ZM642.768 925.838L623.268 956.838L631.732 962.162L651.232 931.162L642.768 925.838ZM624.425 955.557L599.425 975.057L605.575 982.943L630.575 963.443L624.425 955.557ZM598.465 976.047L583.465 996.547L591.535 1002.45L606.535 981.953L598.465 976.047ZM584.342 995.624L557.342 1017.62L563.658 1025.38L590.658 1003.38L584.342 995.624ZM558.236 1017.04L526.736 1033.04L531.264 1041.96L562.764 1025.96L558.236 1017.04ZM528.163 1032.57L501.663 1037.07L503.337 1046.93L529.837 1042.43L528.163 1032.57ZM504.736 1037.53L477.736 1024.03L473.264 1032.97L500.264 1046.47L504.736 1037.53ZM460.591 1005.02L449.591 979.52L440.409 983.48L451.409 1008.98L460.591 1005.02ZM449.921 980.614L445.421 955.614L435.579 957.386L440.079 982.386L449.921 980.614ZM445.481 956.064L441.981 916.064L432.019 916.936L435.519 956.936L445.481 956.064ZM479.204 1025.14L469.454 1014.39L462.046 1021.11L471.796 1031.86L479.204 1025.14ZM469.454 1014.39L459.704 1003.64L452.296 1010.36L462.046 1021.11L469.454 1014.39ZM440.409 983.48C449.351 1004.21 458.316 1017 462.046 1021.11L469.454 1014.39C466.684 1011.34 458.249 999.591 449.591 979.52L440.409 983.48ZM666.789 888.305L648.549 916.805L656.971 922.195L675.211 893.695L666.789 888.305ZM648.549 916.805L642.789 925.805L651.211 931.195L656.971 922.195L648.549 916.805ZM647.993 917.991L637.233 951.991L646.767 955.009L657.527 921.009L647.993 917.991ZM637.641 951.052L617.141 987.552L625.859 992.448L646.359 955.948L637.641 951.052ZM617.151 987.533L598.151 1021.03L606.849 1025.97L625.849 992.467L617.151 987.533ZM598.55 1020.44L576.05 1049.44L583.95 1055.56L606.45 1026.56L598.55 1020.44ZM576.559 1048.87L557.059 1067.37L563.941 1074.63L583.441 1056.13L576.559 1048.87ZM556.91 1067.52L540.91 1084.02L548.09 1090.98L564.09 1074.48L556.91 1067.52ZM542.198 1083.06L515.198 1097.06L519.802 1105.94L546.802 1091.94L542.198 1083.06ZM517.5 1096.5H494.5V1106.5H517.5V1096.5ZM497.466 1097.47L478.466 1083.47L472.534 1091.53L491.534 1105.53L497.466 1097.47ZM480.035 1085.39L470.285 1064.39L461.215 1068.61L470.965 1089.61L480.035 1085.39ZM470.517 1064.99L462.767 1040.49L453.233 1043.51L460.983 1068.01L470.517 1064.99ZM462.991 1041.7L460.991 1008.7L451.009 1009.3L453.009 1042.3L462.991 1041.7ZM764.299 746.138L729.049 784.935L736.451 791.659L771.701 752.862L764.299 746.138ZM729.049 784.935L693.799 823.732L701.201 830.457L736.451 791.659L729.049 784.935ZM672.944 895.607L781.944 849.607L778.056 840.393L669.056 886.393L672.944 895.607ZM780 850H894.5V840H780V850ZM892.524 849.593L985.524 889.593L989.476 880.407L896.476 840.407L892.524 849.593ZM471.221 1090.09L513.221 1159.59L521.779 1154.41L479.779 1084.91L471.221 1090.09ZM517.5 1162H544.5V1152H517.5V1162ZM546.799 1161.44L574.799 1146.94L570.201 1138.06L542.201 1152.56L546.799 1161.44ZM576.278 1145.77L595.778 1123.27L588.222 1116.73L568.722 1139.23L576.278 1145.77ZM596.316 1122.52L615.316 1090.02L606.684 1084.98L587.684 1117.48L596.316 1122.52ZM615.523 1089.63L632.023 1054.63L622.977 1050.37L606.477 1085.37L615.523 1089.63ZM631.649 1055.29L651.149 1026.29L642.851 1020.71L623.351 1049.71L631.649 1055.29ZM650.536 1027.04L674.536 1003.04L667.464 995.964L643.464 1019.96L650.536 1027.04ZM673.697 1003.71L705.697 983.21L700.303 974.79L668.303 995.29L673.697 1003.71ZM704.671 983.713L759.671 964.213L756.329 954.787L701.329 974.287L704.671 983.713ZM758 964.5H884V954.5H758V964.5ZM926.552 969.86L955.052 985.86L959.948 977.14L931.448 961.14L926.552 969.86ZM954.121 985.186L984.121 1012.69L990.879 1005.31L960.879 977.814L954.121 985.186ZM983.938 1012.51L1016.44 1045.51L1023.56 1038.49L991.062 1005.49L983.938 1012.51ZM1015.98 1044.98L1037.48 1073.98L1045.52 1068.02L1024.02 1039.02L1015.98 1044.98ZM1037.57 1074.09L1061.57 1104.59L1069.43 1098.41L1045.43 1067.91L1037.57 1074.09ZM1061.51 1104.51L1083.01 1133.01L1090.99 1126.99L1069.49 1098.49L1061.51 1104.51ZM1082.67 1132.49L1094.17 1152.49L1102.83 1147.51L1091.33 1127.51L1082.67 1132.49ZM1096.95 1154.75L1118.45 1161.75L1121.55 1152.25L1100.05 1145.25L1096.95 1154.75ZM1121.49 1161.77L1143.99 1154.77L1141.01 1145.23L1118.51 1152.23L1121.49 1161.77ZM1146.69 1152.72L1159.69 1132.72L1151.31 1127.28L1138.31 1147.28L1146.69 1152.72ZM1159.4 1133.12L1173.4 1115.62L1165.6 1109.38L1151.6 1126.88L1159.4 1133.12ZM1173.71 1115.2L1189.71 1090.2L1181.29 1084.8L1165.29 1109.8L1173.71 1115.2ZM753.094 960.465L759.094 990.965L768.906 989.035L762.906 958.535L753.094 960.465ZM759 990V1007H769V990H759ZM760.423 1003.51L749.923 1014.26L757.077 1021.24L767.577 1010.49L760.423 1003.51ZM750.458 1013.78L742.958 1019.53L749.042 1027.47L756.542 1021.72L750.458 1013.78ZM742.854 1019.61L732.354 1028.11L738.646 1035.89L749.146 1027.39L742.854 1019.61ZM733.09 1027.62L723.09 1033.12L727.91 1041.88L737.91 1036.38L733.09 1027.62ZM723.448 1032.94L713.448 1037.44L717.552 1046.56L727.552 1042.06L723.448 1032.94ZM710.818 1040.24L707.818 1048.24L717.182 1051.76L720.182 1043.76L710.818 1040.24ZM707.5 1050V1052.5H717.5V1050H707.5ZM707.757 1054.08L710.757 1063.08L720.243 1059.92L717.243 1050.92L707.757 1054.08ZM714.044 1066.28L725.544 1069.78L728.456 1060.22L716.956 1056.72L714.044 1066.28ZM727 1070H735.5V1060H727V1070ZM735.5 1070H749V1060H735.5V1070ZM746.227 1069.16L755.227 1075.16L760.773 1066.84L751.773 1060.84L746.227 1069.16ZM753 1071V1087.5H763V1071H753ZM753.24 1085.97L748.74 1099.97L758.26 1103.03L762.76 1089.03L753.24 1085.97ZM749.369 1098.68L741.869 1109.68L750.131 1115.32L757.631 1104.32L749.369 1098.68ZM743.094 1108.43L732.594 1115.93L738.406 1124.07L748.906 1116.57L743.094 1108.43ZM735.5 1115H725.5V1125H735.5V1115ZM725.5 1115H715.5V1125H725.5V1115ZM714.152 1115.19L701.652 1118.69L704.348 1128.31L716.848 1124.81L714.152 1115.19ZM698 1123.5V1133.5H708V1123.5H698ZM698 1133.5V1138.5H708V1133.5H698ZM700.059 1142.54L705.559 1146.54L711.441 1138.46L705.941 1134.46L700.059 1142.54ZM706.019 1146.84L713.019 1150.84L717.981 1142.16L710.981 1138.16L706.019 1146.84ZM715.5 1151.5H725.5V1141.5H715.5V1151.5ZM725.5 1151.5H735.5V1141.5H725.5V1151.5ZM732.573 1150.55L741.573 1157.05L747.427 1148.95L738.427 1142.45L732.573 1150.55ZM739.568 1153.82L741.068 1162.82L750.932 1161.18L749.432 1152.18L739.568 1153.82ZM741 1162V1171H751V1162H741ZM741 1171V1179.5H751V1171H741ZM741 1179.5V1190H751V1179.5H741ZM742.552 1186.38L732.052 1196.38L738.948 1203.62L749.448 1193.62L742.552 1186.38ZM735.5 1195H725.5V1205H735.5V1195ZM725.5 1195H708.5V1205H725.5V1195ZM705.559 1195.96L700.059 1199.96L705.941 1208.04L711.441 1204.04L705.559 1195.96ZM699.464 1200.46L693.964 1205.96L701.036 1213.04L706.536 1207.54L699.464 1200.46ZM692.5 1209.5V1215.5H702.5V1209.5H692.5ZM692.5 1215.5V1225H702.5V1215.5H692.5ZM692.5 1225V1230.5H702.5V1225H692.5ZM694.137 1234.2L699.637 1239.2L706.363 1231.8L700.863 1226.8L694.137 1234.2ZM701.06 1240.11L710.56 1244.11L714.44 1234.89L704.94 1230.89L701.06 1240.11ZM712.5 1244.5H715.5V1234.5H712.5V1244.5ZM715.5 1244.5H725.5V1234.5H715.5V1244.5ZM723.848 1244.22L733.848 1247.72L737.152 1238.28L727.152 1234.78L723.848 1244.22ZM735.5 1248H741V1238H735.5V1248ZM738.35 1247.24L746.35 1252.24L751.65 1243.76L743.65 1238.76L738.35 1247.24ZM744 1248V1261H754V1248H744ZM744 1261V1269.5H754V1261H744ZM744 1269.5V1279H754V1269.5H744ZM744.285 1277.34L741.285 1285.84L750.715 1289.16L753.715 1280.66L744.285 1277.34ZM743.519 1283.16L733.019 1289.16L737.981 1297.84L748.481 1291.84L743.519 1283.16ZM735.5 1288.5H727V1298.5H735.5V1288.5ZM727 1288.5H712.5V1298.5H727V1288.5ZM712.5 1288.5H703V1298.5H712.5V1288.5ZM700.316 1289.28L694.816 1292.78L700.184 1301.22L705.684 1297.72L700.316 1289.28ZM694.246 1293.2L687.246 1299.2L693.754 1306.8L700.754 1300.8L694.246 1293.2ZM685.5 1303V1312.5H695.5V1303H685.5ZM685.5 1312.5V1322H695.5V1312.5H685.5ZM687.411 1325.93L694.411 1331.43L700.589 1323.57L693.589 1318.07L687.411 1325.93ZM697.5 1332.5H708.5V1322.5H697.5V1332.5ZM706.264 1331.97L713.264 1335.47L717.736 1326.53L710.736 1323.03L706.264 1331.97ZM715.5 1336H727V1326H715.5V1336ZM727 1336H735.5V1326H727V1336ZM735.5 1336H744.5V1326H735.5V1336ZM739.5 1331V1345.5H749.5V1331H739.5ZM739.531 1346.05L741.031 1359.55L750.969 1358.45L749.469 1344.95L739.531 1346.05ZM741.061 1358.22L739.561 1367.72L749.439 1369.28L750.939 1359.78L741.061 1358.22ZM739.757 1366.92L736.257 1377.42L745.743 1380.58L749.243 1370.08L739.757 1366.92ZM737.834 1375.13L732.334 1379.63L738.666 1387.37L744.166 1382.87L737.834 1375.13ZM735.5 1378.5H727V1388.5H735.5V1378.5ZM727 1378.5H715.5V1388.5H727V1378.5ZM715.5 1378.5H703V1388.5H715.5V1378.5ZM701.476 1378.74L688.976 1382.74L692.024 1392.26L704.524 1388.26L701.476 1378.74ZM687.334 1383.63L681.834 1388.13L688.166 1395.87L693.666 1391.37L687.334 1383.63ZM680 1392V1401H690V1392H680ZM680 1401V1412H690V1401H680ZM682.188 1416.13L694.688 1424.63L700.312 1416.37L687.812 1407.87L682.188 1416.13ZM697.5 1425.5H703V1415.5H697.5V1425.5ZM703 1425.5H715.5V1415.5H703V1425.5ZM714.415 1425.38L727.915 1428.38L730.085 1418.62L716.585 1415.62L714.415 1425.38ZM729 1428.5H735.5V1418.5H729V1428.5ZM730.5 1423.5V1436H740.5V1423.5H730.5ZM731.187 1433.47L722.687 1447.97L731.313 1453.03L739.813 1438.53L731.187 1433.47ZM723.719 1446.73L712.219 1456.73L718.781 1464.27L730.281 1454.27L723.719 1446.73ZM714.415 1455.62L696.415 1459.62L698.585 1469.38L716.585 1465.38L714.415 1455.62ZM697.5 1459.5H685V1469.5H697.5V1459.5ZM899.839 966.656L928.339 970.456L929.661 960.544L901.161 956.744L899.839 966.656ZM883.339 964.456L893.839 965.856L895.161 955.944L884.661 954.544L883.339 964.456ZM893.839 965.856L899.839 966.656L901.161 956.744L895.161 955.944L893.839 965.856ZM889.5 960.9V981.5H899.5V960.9H889.5ZM889.5 981.5V999.5H899.5V981.5H889.5ZM889.5 999.5V1009H899.5V999.5H889.5ZM891.981 1013.32L906.981 1022.07L912.019 1013.43L897.019 1004.68L891.981 1013.32ZM908.086 1022.55L927.586 1028.3L930.414 1018.7L910.914 1012.95L908.086 1022.55ZM924.802 1026.22L930.302 1034.72L938.698 1029.28L933.198 1020.78L924.802 1026.22ZM930.119 1034.41L935.619 1044.41L944.381 1039.59L938.881 1029.59L930.119 1034.41ZM935 1042V1052.5H945V1042H935ZM935.423 1050.49L929.923 1062.99L939.077 1067.01L944.577 1054.51L935.423 1050.49ZM932.994 1060.23L913.994 1066.23L917.006 1075.77L936.006 1069.77L932.994 1060.23ZM914.063 1066.21L899.063 1070.71L901.937 1080.29L916.937 1075.79L914.063 1066.21ZM895.5 1075.5V1094.5H905.5V1075.5H895.5ZM895.5 1094.5V1101.5H905.5V1094.5H895.5ZM896.028 1103.74L900.028 1111.74L908.972 1107.26L904.972 1099.26L896.028 1103.74ZM903.184 1114.32L914.184 1117.32L916.816 1107.68L905.816 1104.68L903.184 1114.32ZM913.56 1117.11L923.06 1121.11L926.94 1111.89L917.44 1107.89L913.56 1117.11ZM925 1121.5H934.5V1111.5H925V1121.5ZM934.5 1121.5H940V1111.5H934.5V1121.5ZM936.464 1120.04L943.464 1127.04L950.536 1119.96L943.536 1112.96L936.464 1120.04ZM942 1123.5V1133.5H952V1123.5H942ZM942 1133.5V1146.5H952V1133.5H942ZM945.652 1141.69L933.152 1145.19L935.848 1154.81L948.348 1151.31L945.652 1141.69ZM932.994 1145.23L923.494 1148.23L926.506 1157.77L936.006 1154.77L932.994 1145.23ZM923.751 1148.16L908.251 1152.16L910.749 1161.84L926.249 1157.84L923.751 1148.16ZM904.791 1155.32L899.791 1169.32L909.209 1172.68L914.209 1158.68L904.791 1155.32ZM899.5 1171V1185.5H909.5V1171H899.5ZM899.5 1185.5V1200H909.5V1185.5H899.5ZM903.542 1204.91L924.042 1208.91L925.958 1199.09L905.458 1195.09L903.542 1204.91ZM925 1209H934.5V1199H925V1209ZM934.5 1209H947V1199H934.5V1209ZM944.68 1208.43L955.18 1213.93L959.82 1205.07L949.32 1199.57L944.68 1208.43ZM952.5 1209.5V1215.5H962.5V1209.5H952.5ZM952.5 1215.5V1225H962.5V1215.5H952.5ZM952.5 1225V1230.5H962.5V1225H952.5ZM954.246 1226.7L943.746 1235.7L950.254 1243.3L960.754 1234.3L954.246 1226.7ZM945.652 1234.69L933.152 1238.19L935.848 1247.81L948.348 1244.31L945.652 1234.69ZM934.5 1238H925V1248H934.5V1238ZM922.671 1238.58L913.171 1243.58L917.829 1252.42L927.329 1247.42L922.671 1238.58ZM915.5 1243H904.5V1253H915.5V1243ZM899.5 1248V1261H909.5V1248H899.5ZM899.5 1261V1269.5H909.5V1261H899.5ZM899.531 1270.05L901.031 1283.55L910.969 1282.45L909.469 1268.95L899.531 1270.05ZM901.257 1284.58L904.757 1295.08L914.243 1291.92L910.743 1281.42L901.257 1284.58ZM909.5 1298.5H915.5V1288.5H909.5V1298.5ZM915.5 1298.5H929V1288.5H915.5V1298.5ZM929 1298.5H940V1288.5H929V1298.5ZM940 1298.5H952V1288.5H940V1298.5ZM952 1298.5H957.5V1288.5H952V1298.5ZM955.13 1297.9L961.63 1301.4L966.37 1292.6L959.87 1289.1L955.13 1297.9ZM959 1297V1307.5H969V1297H959ZM959 1307.5V1322H969V1307.5H959ZM960.77 1318.18L954.27 1323.68L960.73 1331.32L967.23 1325.82L960.77 1318.18ZM955.919 1322.76L945.419 1326.26L948.581 1335.74L959.081 1332.24L955.919 1322.76ZM947 1326H934.5V1336H947V1326ZM933.251 1326.16L917.751 1330.16L920.249 1339.84L935.749 1335.84L933.251 1326.16ZM919 1330H909.5V1340H919V1330ZM904.631 1333.86L901.131 1348.86L910.869 1351.14L914.369 1336.14L904.631 1333.86ZM901 1350V1359H911V1350H901ZM901 1359V1368.5H911V1359H901ZM901 1368.5V1379H911V1368.5H901ZM903.264 1383.18L916.264 1391.68L921.736 1383.32L908.736 1374.82L903.264 1383.18ZM919 1392.5H929V1382.5H919V1392.5ZM929 1392.5H940V1382.5H929V1392.5ZM940 1392.5H957.5V1382.5H940V1392.5ZM957.5 1392.5H969V1382.5H957.5V1392.5ZM966.296 1391.71L973.296 1396.21L978.704 1387.79L971.704 1383.29L966.296 1391.71ZM971 1392V1401H981V1392H971ZM971 1401V1412H981V1401H971ZM971.729 1409.4L964.729 1420.9L973.271 1426.1L980.271 1414.6L971.729 1409.4ZM969 1418.5H952V1428.5H969V1418.5ZM952 1418.5H940V1428.5H952V1418.5ZM940 1418.5H925V1428.5H940V1418.5ZM923.58 1418.71L910.08 1422.71L912.92 1432.29L926.42 1428.29L923.58 1418.71ZM906.633 1426.35L904.633 1434.85L914.367 1437.15L916.367 1428.65L906.633 1426.35ZM905.318 1438.74L914.818 1453.24L923.182 1447.76L913.682 1433.26L905.318 1438.74ZM916.647 1454.91L924.147 1458.91L928.853 1450.09L921.353 1446.09L916.647 1454.91ZM922.596 1457.62L930.596 1467.62L938.404 1461.38L930.404 1451.38L922.596 1457.62ZM930.964 1468.04L936.464 1473.54L943.536 1466.46L938.036 1460.96L930.964 1468.04ZM940 1475H957.5V1465H940V1475ZM957.5 1475H969V1465H957.5V1475ZM973.025 1472.97L980.025 1463.47L971.975 1457.53L964.975 1467.03L973.025 1472.97ZM980.526 1462.62L992.026 1438.12L982.974 1433.88L971.474 1458.38L980.526 1462.62ZM991.943 1438.29L999.943 1422.79L991.057 1418.21L983.057 1433.71L991.943 1438.29ZM998.808 1424.25L1015.81 1409.25L1009.19 1401.75L992.192 1416.75L998.808 1424.25ZM1015.45 1409.54L1033.95 1396.04L1028.05 1387.96L1009.55 1401.46L1015.45 1409.54ZM1032.8 1396.66L1054.8 1388.16L1051.2 1378.84L1029.2 1387.34L1032.8 1396.66ZM1053.92 1388.41L1077.92 1383.91L1076.08 1374.09L1052.08 1378.59L1053.92 1388.41ZM1077 1384H1093V1374H1077V1384ZM1093.75 1383.94L1116.75 1380.44L1115.25 1370.56L1092.25 1374.06L1093.75 1383.94ZM1114.96 1380.39L1131.46 1383.89L1133.54 1374.11L1117.04 1370.61L1114.96 1380.39ZM1131.54 1383.91L1154.54 1388.41L1156.46 1378.59L1133.46 1374.09L1131.54 1383.91ZM1152.91 1387.77L1166.91 1396.27L1172.09 1387.73L1158.09 1379.23L1152.91 1387.77ZM1167.05 1396.36L1183.05 1405.36L1187.95 1396.64L1171.95 1387.64L1167.05 1396.36ZM1181.63 1404.17L1190.63 1415.17L1198.37 1408.83L1189.37 1397.83L1181.63 1404.17ZM1190.3 1414.71L1200.3 1430.21L1208.7 1424.79L1198.7 1409.29L1190.3 1414.71ZM1200.15 1429.96L1213.15 1452.96L1221.85 1448.04L1208.85 1425.04L1200.15 1429.96ZM1213.12 1452.91L1218.62 1462.91L1227.38 1458.09L1221.88 1448.09L1213.12 1452.91ZM1218.82 1463.24L1228.32 1477.74L1236.68 1472.26L1227.18 1457.76L1218.82 1463.24ZM1227.5 1475V1494.5H1237.5V1475H1227.5ZM1227.5 1494.5V1512.5H1237.5V1494.5H1227.5ZM1227.5 1512.5V1528H1237.5V1512.5H1227.5ZM1228.45 1525.07L1208.95 1552.07L1217.05 1557.93L1236.55 1530.93L1228.45 1525.07ZM1208.92 1552.11L1200.42 1564.11L1208.58 1569.89L1217.08 1557.89L1208.92 1552.11ZM1201.06 1563.38L1191.06 1572.88L1197.94 1580.12L1207.94 1570.62L1201.06 1563.38ZM1190.05 1574.21L1181.05 1591.71L1189.95 1596.29L1198.95 1578.79L1190.05 1574.21ZM1181.25 1591.36L1172.25 1605.86L1180.75 1611.14L1189.75 1596.64L1181.25 1591.36ZM1172.06 1606.2L1165.06 1619.7L1173.94 1624.3L1180.94 1610.8L1172.06 1606.2ZM1165.79 1618.65L1151.79 1634.15L1159.21 1640.85L1173.21 1625.35L1165.79 1618.65ZM1150.72 1636.04L1143.72 1659.04L1153.28 1661.96L1160.28 1638.96L1150.72 1636.04ZM1143.66 1659.24L1137.66 1682.24L1147.34 1684.76L1153.34 1661.76L1143.66 1659.24ZM1137.5 1683.5V1699.5H1147.5V1683.5H1137.5ZM1137.5 1699.5V1715.5H1147.5V1699.5H1137.5ZM1137.5 1715.5V1743.5H1147.5V1715.5H1137.5ZM1137.88 1745.41L1143.88 1759.91L1153.12 1756.09L1147.12 1741.59L1137.88 1745.41ZM1145.28 1761.82L1161.28 1775.32L1167.72 1767.68L1151.72 1754.18L1145.28 1761.82ZM1161.04 1775.11L1173.04 1786.61L1179.96 1779.39L1167.96 1767.89L1161.04 1775.11ZM1175.16 1787.82L1193.16 1792.82L1195.84 1783.18L1177.84 1778.18L1175.16 1787.82ZM1195.8 1792.83L1214.3 1787.83L1211.7 1778.17L1193.2 1783.17L1195.8 1792.83ZM1217.66 1784.82L1222.16 1773.32L1212.84 1769.68L1208.34 1781.18L1217.66 1784.82ZM1221.32 1774.73L1226.82 1768.23L1219.18 1761.77L1213.68 1768.27L1221.32 1774.73ZM1223 1770H1232.5V1760H1223V1770ZM1230.33 1769.51L1243.83 1776.01L1248.17 1766.99L1234.67 1760.49L1230.33 1769.51ZM1242.54 1775.11L1254.54 1786.61L1261.46 1779.39L1249.46 1767.89L1242.54 1775.11ZM1253.8 1785.72L1264.8 1802.72L1273.2 1797.28L1262.2 1780.28L1253.8 1785.72ZM1264.21 1801.44L1270.21 1821.44L1279.79 1818.56L1273.79 1798.56L1264.21 1801.44ZM1270 1820V1844H1280V1820H1270ZM1270 1844V1867H1280V1844H1270ZM1270 1867V1889H1280V1867H1270ZM1270.49 1886.84L1264.49 1899.34L1273.51 1903.66L1279.51 1891.16L1270.49 1886.84ZM1264.8 1898.78L1253.8 1915.78L1262.2 1921.22L1273.2 1904.22L1264.8 1898.78ZM689.287 1461.93L683.287 1451.93L674.713 1457.07L680.713 1467.07L689.287 1461.93ZM682.763 1451.21L672.263 1439.21L664.737 1445.79L675.237 1457.79L682.763 1451.21ZM672.912 1440.15L664.912 1425.15L656.088 1429.85L664.088 1444.85L672.912 1440.15ZM664.37 1424.33L646.37 1402.33L638.63 1408.67L656.63 1430.67L664.37 1424.33ZM645.554 1401.54L628.054 1388.04L621.946 1395.96L639.446 1409.46L645.554 1401.54ZM626.53 1387.24L612.53 1382.74L609.47 1392.26L623.47 1396.76L626.53 1387.24ZM611.981 1382.6L591.981 1378.6L590.019 1388.4L610.019 1392.4L611.981 1382.6ZM593.052 1378.94L583.052 1374.44L578.948 1383.56L588.948 1388.06L593.052 1378.94ZM581.862 1374.07L561.862 1370.57L560.138 1380.43L580.138 1383.93L581.862 1374.07ZM561 1370.5H529V1380.5H561V1370.5ZM527.871 1370.63L493.371 1378.63L495.629 1388.37L530.129 1380.37L527.871 1370.63ZM492.458 1378.94L473.458 1387.44L477.542 1396.56L496.542 1388.06L492.458 1378.94ZM471.737 1388.71L454.237 1408.71L461.763 1415.29L479.263 1395.29L471.737 1388.71ZM453.76 1409.35L438.76 1433.35L447.24 1438.65L462.24 1414.65L453.76 1409.35ZM438.338 1434.19L428.838 1458.69L438.162 1462.31L447.662 1437.81L438.338 1434.19ZM428.615 1459.43L422.615 1486.93L432.385 1489.07L438.385 1461.57L428.615 1459.43ZM422.5 1488V1512.5H432.5V1488H422.5ZM422.5 1512.5V1537H432.5V1512.5H422.5ZM423.711 1540.26L439.211 1558.26L446.789 1551.74L431.289 1533.74L423.711 1540.26ZM438.899 1557.86L453.899 1579.36L462.101 1573.64L447.101 1552.14L438.899 1557.86ZM453.613 1578.9L471.113 1610.9L479.887 1606.1L462.387 1574.1L453.613 1578.9ZM471.841 1611.91L498.841 1640.91L506.159 1634.09L479.159 1605.09L471.841 1611.91ZM497.937 1639.54L512.937 1673.04L522.063 1668.96L507.063 1635.46L497.937 1639.54ZM512.5 1671V1699.5H522.5V1671H512.5ZM512.5 1699.5V1743.5H522.5V1699.5H512.5ZM513.093 1741.14L498.093 1769.14L506.907 1773.86L521.907 1745.86L513.093 1741.14ZM499.893 1767.23L472.893 1783.73L478.107 1792.27L505.107 1775.77L499.893 1767.23ZM475.5 1783H456V1793H475.5V1783ZM457.085 1783.12L434.585 1778.12L432.415 1787.88L454.915 1792.88L457.085 1783.12ZM438.243 1781.42L432.243 1763.42L422.757 1766.58L428.757 1784.58L438.243 1781.42ZM427.5 1760H408.5V1770H427.5V1760ZM404.393 1762.15L391.893 1780.15L400.107 1785.85L412.607 1767.85L404.393 1762.15ZM391.972 1780.04L379.472 1797.04L387.528 1802.96L400.028 1785.96L391.972 1780.04ZM378.639 1798.83L372.139 1825.83L381.861 1828.17L388.361 1801.17L378.639 1798.83ZM372 1827V1852H382V1827H372ZM372 1852V1867H382V1852H372ZM372.205 1868.42L378.705 1890.42L388.295 1887.58L381.795 1865.58L372.205 1868.42ZM378.896 1890.95L391.396 1920.45L400.604 1916.55L388.104 1887.05L378.896 1890.95ZM391.434 1920.54L403.934 1948.54L413.066 1944.46L400.566 1916.46L391.434 1920.54ZM403.5 1946.5V1970H413.5V1946.5H403.5ZM762.759 961.035L772.759 930.035L763.241 926.965L753.241 957.965L762.759 961.035ZM772.862 929.667L778.862 904.667L769.138 902.333L763.138 927.333L772.862 929.667ZM779 903.5V891H769V903.5H779ZM772.049 886.396L742.549 898.896L746.451 908.104L775.951 895.604L772.049 886.396ZM742.618 898.868L710.618 911.868L714.382 921.132L746.382 908.132L742.618 898.868ZM711.88 911.539L687.88 914.539L689.12 924.461L713.12 921.461L711.88 911.539ZM688.5 914.5H671V924.5H688.5V914.5ZM671 914.5H665V924.5H671V914.5ZM899.5 960.9V939H889.5V960.9H899.5ZM898.902 936.63L888.402 917.13L879.598 921.87L890.098 941.37L898.902 936.63ZM889 919.5V903.5H879V919.5H889ZM886.443 907.863L898.943 900.863L894.057 892.137L881.557 899.137L886.443 907.863ZM896.5 901.5H915.5V891.5H896.5V901.5ZM915.5 901.5H929V891.5H915.5V901.5ZM926.316 900.718L937.316 907.718L942.684 899.282L931.684 892.282L926.316 900.718ZM938.052 908.105L951.052 913.605L954.948 904.395L941.948 898.895L938.052 908.105ZM950.931 913.552L967.431 921.052L971.569 911.948L955.069 904.448L950.931 913.552ZM968.238 921.338L979.738 924.338L982.262 914.662L970.762 911.662L968.238 921.338ZM979.244 924.182L1003.24 933.182L1006.76 923.818L982.756 914.818L979.244 924.182ZM1253.2 1917.1L1246.2 1941.1L1255.8 1943.9L1262.8 1919.9L1253.2 1917.1ZM1246.09 1941.54L1241.09 1967.04L1250.91 1968.96L1255.91 1943.46L1246.09 1941.54ZM1241.1 1967.02L1236.6 1989.52L1246.4 1991.48L1250.9 1968.98L1241.1 1967.02ZM403.5 1970V1982.5H413.5V1970H403.5ZM408.5 1987.5H528.5V1977.5H408.5V1987.5ZM533.243 1984.08L545.243 1948.08L535.757 1944.92L523.757 1980.92L533.243 1984.08ZM545.406 1947.46L550.906 1919.46L541.094 1917.54L535.594 1945.54L545.406 1947.46ZM551 1918.5V1900.5H541V1918.5H551ZM550.511 1898.34L545.011 1886.84L535.989 1891.16L541.489 1902.66L550.511 1898.34ZM543.5 1885L531.5 1876L525.5 1884L537.5 1893L543.5 1885ZM528.5 1875H523V1885H528.5V1875ZM528 1880V1867H518V1880H528ZM526.254 1870.8L543.754 1855.8L537.246 1848.2L519.746 1863.2L526.254 1870.8ZM542.376 1856.63L563.376 1848.13L559.624 1838.87L538.624 1847.37L542.376 1856.63ZM561.5 1848.5H583V1838.5H561.5V1848.5ZM583 1848.5H601.5V1838.5H583V1848.5ZM596.5 1843.5V1861.5H606.5V1843.5H596.5ZM596.824 1863.27L603.824 1881.77L613.176 1878.23L606.176 1859.73L596.824 1863.27ZM603.94 1882.05L617.44 1912.05L626.56 1907.95L613.06 1877.95L603.94 1882.05ZM617.991 1912.99L638.491 1940.49L646.509 1934.51L626.009 1907.01L617.991 1912.99ZM640.36 1942.02L659.36 1951.02L663.64 1941.98L644.64 1932.98L640.36 1942.02ZM660.333 1951.36L685.333 1957.36L687.667 1947.64L662.667 1941.64L660.333 1951.36ZM686.5 1957.5H718.5V1947.5H686.5V1957.5ZM718.5 1957.5H742.5V1947.5H718.5V1957.5ZM743.937 1957.29L763.937 1951.29L761.063 1941.71L741.063 1947.71L743.937 1957.29ZM766.435 1949.58L780.935 1931.08L773.065 1924.92L758.565 1943.42L766.435 1949.58ZM781.16 1930.77L793.16 1912.77L784.84 1907.23L772.84 1925.23L781.16 1930.77ZM792.444 1913.62L802.444 1904.12L795.556 1896.88L785.556 1906.38L792.444 1913.62ZM799 1905.5H855.5V1895.5H799V1905.5ZM851.606 1903.64L866.106 1921.64L873.894 1915.36L859.394 1897.36L851.606 1903.64ZM865.975 1921.47L879.975 1940.47L888.025 1934.53L874.025 1915.53L865.975 1921.47ZM881.549 1941.86L897.549 1950.86L902.451 1942.14L886.451 1933.14L881.549 1941.86ZM898.53 1951.28L918.03 1957.28L920.97 1947.72L901.47 1941.72L898.53 1951.28ZM919.5 1957.5H951V1947.5H919.5V1957.5ZM951 1957.5H971.5V1947.5H951V1957.5ZM971.5 1957.5H987.5V1947.5H971.5V1957.5ZM988.788 1957.33L1011.29 1951.33L1008.71 1941.67L986.212 1947.67L988.788 1957.33ZM1014.04 1949.45L1027.54 1930.95L1019.46 1925.05L1005.96 1943.55L1014.04 1949.45ZM1027.5 1931L1041 1913L1033 1907L1019.5 1925L1027.5 1931ZM1041.67 1911.77L1047.17 1897.27L1037.83 1893.73L1032.33 1908.23L1041.67 1911.77ZM1047.34 1896.75L1050.84 1883.25L1041.16 1880.75L1037.66 1894.25L1047.34 1896.75ZM1050.54 1884.1L1060.04 1863.6L1050.96 1859.4L1041.46 1879.9L1050.54 1884.1ZM1060.28 1862.96L1065.78 1844.96L1056.22 1842.04L1050.72 1860.04L1060.28 1862.96ZM1061 1848.5H1094V1838.5H1061V1848.5ZM1090.21 1846.76L1105.71 1864.76L1113.29 1858.24L1097.79 1840.24L1090.21 1846.76ZM1105.05 1863.78L1115.55 1884.28L1124.45 1879.72L1113.95 1859.22L1105.05 1863.78ZM1115.09 1881.04L1109.59 1909.04L1119.41 1910.96L1124.91 1882.96L1115.09 1881.04ZM1109.68 1908.66L1104.68 1926.66L1114.32 1929.34L1119.32 1911.34L1109.68 1908.66ZM1104.77 1929.63L1109.77 1944.13L1119.23 1940.87L1114.23 1926.37L1104.77 1929.63ZM1109.69 1943.86L1115.19 1963.36L1124.81 1960.64L1119.31 1941.14L1109.69 1943.86ZM1115.31 1963.73L1125.81 1992.23L1135.19 1988.77L1124.69 1960.27L1115.31 1963.73ZM1130.5 1995.5H1241.5V1985.5H1130.5V1995.5Z" fill="url(#paint0_linear_72_201)"/>
<path d="M448.5 682.5L441 714.5V741.5L455 766L475 787.5L503.5 803H555.5L592 791.5L634 772.5L672 750.5L704.5 731L733 709L763.5 682.5" stroke="url(#paint1_linear_72_201)" stroke-width="20" stroke-linecap="round"/>
<path d="M574.5 296.5L567 301.5L548 324M548 324L553.5 344L581 369L609.5 377.5L641 392.5L689.5 397.5H733H758M548 324L521 355L500.5 384.5L488.5 420L494.5 436.5M548 324L500.5 317.5H473.5H432H390.5L384.5 299.5L399.5 287H420.5H438H463H500.5H526H541.5H567M764.5 457.5L712 472L668 488.5H633H592.5L558.5 481.5L526 472L500.5 453L494.5 436.5M494.5 436.5L476 457.5L463 476L458.5 503.5M458.5 503.5V535L473.5 561M458.5 503.5L420.5 472L399.5 453L376.5 436.5H358.5H338.5L310.5 453L304.5 476L298 503.5L292.5 539.5L286.5 568.5L280 604V665.5L270.5 711.5V767.5L262 825L254.5 878.5L244.5 931.5V976L254.5 1051L270.5 1084L280 1159V1189L270.5 1235L254.5 1270.5L244.5 1292L236 1334L217.5 1431.5L210 1486L198.5 1572.5L190 1651.5L180 1775L167 1867L158.5 1978.5M473.5 561L500.5 575.5L541.5 590.5L570 596H620.5L654.5 590.5L689.5 575.5L726.5 561L764.5 539.5M473.5 561L448.5 575.5L438 611V641L448.5 665.5L463 687L487.5 700L521.5 711.5H552.5L592.5 700L633 687L673 665.5L704.5 645.5L743 624.5L764.5 604" stroke="url(#paint2_linear_72_201)" stroke-width="10" stroke-linecap="round"/>
<path d="M577 289.5L655.75 299.14L696.5 316.025L728.5 327.782L741.25 330.409M885.5 440.1V406.079M885.5 440.1L923.5 471.619L959 478.623L1005 483.126L1039.5 488.129H1079L1108.5 483.126L1132 471.619L1155 449.105L1159.25 437.348M885.5 440.1V527.152M885.5 406.079V372.059L896 343.541L938 333.035L980 322.529H1057.5L1108.5 327.782M885.5 406.079H938H970.5L1025.5 397.574L1069.5 380.064L1092 357.55L1108.5 327.782M1108.5 327.782L1136.5 357.55L1155 372.059L1163.5 397.574V425.591L1159.25 437.348M1108.5 327.782L1143.5 316.025H1164H1193.5H1221.5H1247H1265.5H1287.5L1301 296.513V283.505L1280 275H1253.5H1227.25H1195.5H1164H1143.5H1124.5L1108.5 283.505V303.017M1108.5 327.782V303.017M885.5 527.152V550.166V592.942M885.5 527.152L923.5 550.166L959 565.676L990.5 575.182L1025.5 590.191L1069.5 599.696H1108.5L1143.5 590.191L1169.5 575.182L1189 556.17L1205.5 533.656V504.639M1205.5 504.639L1195.5 478.623L1169.5 449.105L1159.25 437.348M1205.5 504.639L1228 471.619L1253.5 449.105L1280 437.348H1316L1338 464.5L1347 483.126L1356 513.644L1363 540L1373 608.5L1378 656L1388.5 705.26L1393.5 752.038L1398 807.322L1403 865.5L1409.5 917.388L1415.5 960.915V1000.94L1398 1038.96L1388.5 1063.98L1377 1092.49L1370.5 1125.5V1159V1180.5L1377 1210L1388.5 1235.5L1398 1257L1403 1279.5L1414.5 1304L1422.5 1347L1429.5 1387L1437.5 1445L1448 1515.5L1460 1583.5L1464.5 1634.5L1472.5 1709.5L1477.5 1768.5L1487.5 1858L1503.5 1986M885.5 592.942V635.718V670.489M885.5 592.942L932 627.213L972.5 650.727L1015 678.744L1061.5 700.257L1093.5 711.764H1124.5H1164L1189 694.253L1205.5 678.744L1213.5 662.484M1195.5 556.17L1214 580.185L1221.5 615.706V646.224L1213.5 662.484M885.5 670.489V705.26V724.021M885.5 670.489L910 694.253L980 742.783L1025.5 775.302L1079.5 796.315L1108.5 807.322H1158L1193.5 796.315L1221.5 768.298L1227.25 752.038M1213.5 662.484L1221.5 683.247L1233 705.26V735.779L1227.25 752.038M885.5 724.021V742.783L856.5 753.289H793.5L772.5 742.783V718.768V661.234V580.185V513.644V449.105V372.059L754 333.035L741.25 330.409M885.5 724.021L918.5 768.298L950.5 807.322M950.5 807.322L980 820.33L1008.5 840.842L1040 853.35L1079.5 872.861L1124.5 888.371H1164L1205.5 880.866L1214 860.354L1224.74 840.842M950.5 807.322L995 872.861M1227.25 752.038C1229.17 759.793 1233 779.505 1233 796.315C1233 813.125 1233 822.998 1233 825.833L1224.74 840.842M1224.74 840.842L1228 880.866L1223 917.388L1210.55 935.9M995 872.861L1052.5 935.9L1100.5 963.416L1137.5 971.421L1168 964.917L1205.5 943.404L1210.55 935.9M995 872.861L1018 923.892L1034 963.416M1034 963.416L1057 983.929L1086 1010.94L1118 1038.96H1173.5L1187.5 1026M1034 963.416L1057 1020.45L1076 1042.46L1092 1063.98L1107.5 1082.99L1129 1096.5L1160.5 1102L1179 1092.49L1187.5 1073.48V1052.97V1042.46V1026M1210.55 935.9L1210 960.915L1205.5 1000.94L1193.5 1020.45L1187.5 1026M1108.5 303.017L1061.5 299.14H1039.5H1008.5H970.5H938H910L896 289.5L885.5 275L880 256.75M874.5 202.25V216V238.5L880 256.75M874.5 202.25V188.5L896 181.5H910L918.5 172.5L910 164.5L896 156.5H874.5V138.5L896 132.5L910 124.5L903 118L896 107.5H885.5H874.5V92.5L885.5 84.5H896L903 78L896 66.5H885.5L874.5 56V46L885.5 34.5L896 27.5L885.5 17.5L869 21H827.5H812H793.5L772.5 17.5L754 21L748 34.5L754 46L761.5 56V66.5L749 72L736.5 78V92.5L748 107.5H761.5V118V138.5L736.5 146.5L728.5 156.5V172.5L736.5 181.5H754L761.5 188.5L748 195.5L721.5 203.5L701 209L681.5 216L662.5 232L655 241.75M874.5 202.25L910 203.5L945 209L972.5 216L995 232L1000 238.5M880 256.75L910 260.5H923.5H945H970.5H980L990.5 254L1000 238.5M1000 238.5L1005 245L1008.5 251.5H1033H1057.5H1069.5H1093.5H1114.5H1132H1143.5H1159.25L1174.5 254H1193.5H1205.5H1221.5H1233H1253.5L1287.5 260.5L1310.5 268.5L1338 275L1347 283.505L1363 289.5L1373 296.513L1384.5 316.025L1399 327.782L1407 343.541L1413 357.55L1423.5 380.064V406.079L1426.5 433V449.105V471.619L1429.5 500V520V540L1432.5 561V580.185V599.696V615.706L1440 670.489L1446 724.021L1452.5 784.5L1460.5 853.35L1466 898.5L1472 935.9L1479.5 971.421L1489 1010.94L1495 1038.96L1506.5 1073.48L1513.5 1102L1527.5 1137V1159V1187V1210V1247V1279.5L1533.5 1310.5L1541 1347L1548 1381.5L1557.5 1411.5L1567 1445L1578.5 1474L1585.5 1515.5L1593 1558.5L1599 1602V1657L1606.5 1716.5L1613.5 1768.5V1806L1621 1864L1632.5 1902.5L1637 1928L1649.5 1968M655 241.75L647.5 251.5H623.5H603H577H523H485.5L450 260.5H417H383H349.5L308.5 275L284.5 283.505L264 303.017L247 322.529L239 343.541L231 372.059L221 425.591V458V488.129V513.644V535.5L211.5 565.676V592.942V674.5L204 742.783L192.5 826.5L185.5 903.5L179 971.5L170 1019L158.5 1061L137 1096L122 1124.5V1146V1181L129 1215V1260.5L122 1308L107.5 1363.5L97 1401L86 1447.5L72.5 1504L65.5 1555L55.5 1607.5L47.5 1665V1725L40.5 1776V1838.5L30.5 1884L19.5 1973M655 241.75L674.5 251.5L696.5 254L716.5 260.5H736.5H754H772.5M772.5 260.5V241.75L769.5 228V203.5V195.5M772.5 260.5L761.5 289.5L754 299.14L748 316.025L741.25 330.409" stroke="url(#paint3_linear_72_201)" stroke-width="10" stroke-linecap="round"/>
<path d="M10 1993.5V1874.96V1808.5L18 1710.52L27 1651.94V1609.59V1561.84V1486.51V1429.4L36 1365.89V1311.73L53 1259.05L79 1191.6L92.5 1166V1051.29V968.575V909.987L103.5 843.522L117 773.118L143 717.484V663.328L131 602.771V500.365L154 431.438L189 364.973L242.5 320.171L282 292L319 273.5L439.5 241.889L553 193.641L612.5 168.039L666 119.791V71.5418V10H988.5V71.5418V119.791L1051 176.901L1109 202.503L1170.5 226.627L1224 250.751L1280.5 258L1335 278.5L1369 293L1422.5 329.033L1468.5 377.281L1505 444.731L1523.5 505.288V585.047L1516 643.634L1505 716.007L1538.5 794.289L1552.5 861.738L1566.5 971.529V1072.46L1552.5 1170.43L1594 1240.84L1613.5 1311.73L1623 1463.86V1646.03L1639.5 1795.2L1660.5 1977L1493.5 1998.54L1482 1898.59L1470 1831.14L1456 1757.29L1418 1646.03L1384.5 1519.5L1355.5 1398.88L1340 1212.28L1324.5 1084.77L1307 740.132L1291 991.222L1271 1072.46L1251.5 1163.05L1236 1229.02L1227 1270.38L1243.5 1375.24L1251.5 1566.27L1276 1767.63L1312.5 1937.98V2001" stroke="#04B4F2" stroke-width="20"/>
<path d="M13 1984.5L167 1989L170.5 1899L191 1796L206.5 1705L239 1606L259.5 1523.5L275 1469L299 1378L307.5 1306L316.5 1206.5L331.5 1090L359.5 702L395 1090L424 1220.5V1290.5L410.5 1352.5L402 1462V1556L385 1672.5L369.5 1782.5L342 1911L338.5 1984.5L1317 1993" stroke="#04B4F2" stroke-width="20"/>
<defs>
<linearGradient id="paint0_linear_72_201" x1="449.211" y1="737.486" x2="449.211" y2="1101.5" gradientUnits="userSpaceOnUse">
<stop stop-color="#03B4F2"/>
<stop offset="0.520833" stop-color="#59DDFA"/>
<stop offset="1" stop-color="#0AEBDD"/>
</linearGradient>
<linearGradient id="paint1_linear_72_201" x1="457.974" y1="678.387" x2="457.974" y2="803" gradientUnits="userSpaceOnUse">
<stop stop-color="#03B4F2"/>
<stop offset="0.520833" stop-color="#59DDFA"/>
<stop offset="1" stop-color="#0AEBDD"/>
</linearGradient>
<linearGradient id="paint2_linear_72_201" x1="559.053" y1="290.468" x2="559.053" y2="397.5" gradientUnits="userSpaceOnUse">
<stop stop-color="#03B4F2"/>
<stop offset="0.520833" stop-color="#59DDFA"/>
<stop offset="1" stop-color="#0AEBDD"/>
</linearGradient>
<linearGradient id="paint3_linear_72_201" x1="670.711" y1="184.174" x2="670.711" y2="753.289" gradientUnits="userSpaceOnUse">
<stop stop-color="#03B4F2"/>
<stop offset="0.520833" stop-color="#59DDFA"/>
<stop offset="1" stop-color="#0AEBDD"/>
</linearGradient>
</defs>
</svg>
