<svg width="1226" height="1736" viewBox="0 0 1226 1736" fill="none" xmlns="http://www.w3.org/2000/svg">
<path d="M698.135 247.689L722.637 264.625L750.461 278.738L777.455 290.382L806.941 298.144H855.945M855.945 298.144L836.011 278.738L815.662 260.391L806.941 232.164L801.127 201.82L806.941 171.477L815.662 142.544L836.011 123.492L855.945 107.261L880.447 90.3252L909.102 85.0327H958.521H977.625L1009.19 93.8535L1044.07 107.261L1074.39 123.492L1089.34 135.841L1115.09 155.246L1134.19 177.475L1152.46 201.82L1167.41 222.638L1180.7 247.689L1193.57 278.738L1201.47 298.144L1210.19 328.135L1216 372.592V440.688L1210.19 475.619L1201.47 504.904L1187.35 531.719L1171.15 558.182L1148.31 584.997L1133.36 601.227L1110.93 624.162L1083.94 641.098L1059.44 653.447L1022.89 663.326H971.811L939.418 649.213L916.162 637.216L898.72 617.458L880.032 595.935L866.327 575.823L855.945 553.948L850.546 535.248V498.906L866.327 472.091M855.945 298.144L880.032 316.491M891.66 425.869L884.6 396.231L881.273 372.592M891.66 425.869L880.032 406.816L860.098 396.231L836.011 384.588L806.941 372.592L788.876 360.419M891.66 425.869L889.192 430.456M880.032 363.771V333.427V316.491M880.032 363.771L871.726 356.361L821.891 323.901L880.032 316.491M880.032 363.771L881.273 372.592M881.273 372.592L770.811 311.904L735.096 305.201L713.916 298.144L693.982 281.208V298.144L735.096 328.135L770.811 348.246L788.876 360.419M889.192 430.456L871.726 462.917L866.327 472.091M889.192 430.456L866.327 413.167M866.327 413.167L843.901 406.816L825.629 398.348L843.901 425.869L860.098 440.688L871.726 448.804L866.327 472.091M866.327 413.167L854.699 425.869M866.327 472.091L850.546 454.802L831.768 436.454M695.643 336.603L713.916 348.246L735.096 356.361L750.461 367.299L770.811 377.884L785.346 392.703L806.941 413.167L825.629 430.456L831.768 436.454M831.768 436.454L823.968 446.687L811.924 458.683L804.864 476.325L799.881 488.321L794.482 507.727V544.774V569.825L799.881 590.29L806.941 615.694L813.17 637.216L823.137 667.913L833.519 689.083L844.317 720.485L856.36 753.651L860.928 778.702L867.573 802.695L876.709 839.037L879.616 867.616L886.676 911.72L888.337 948.415V980.17V1015.81V1047.21V1086.02L882.939 1113.54L879.201 1140.36L872.141 1172.46L860.928 1212.69L851.792 1253.62L843.486 1283.61L825.213 1321.36L812.755 1346.41L794.067 1383.46L772.472 1399.69L794.067 1408.16L812.755 1422.98L825.213 1434.62L837.672 1449.09L845.978 1466.37L852.207 1487.9V1512.95L845.978 1535.53L837.672 1557.05L821.476 1583.51L794.067 1611.74L763.751 1631.85L738.833 1648.79L703.949 1660.78L670.311 1675.25L647.47 1690.07L633.765 1705.59L623.383 1723.59M788.876 360.419L811.094 348.246L817.738 343.659" stroke="url(#paint0_linear_47_112)" stroke-width="20" stroke-linecap="round"/>
<path d="M344.723 468.915L424.043 421.636L470.555 406.464L512.5 390.586L620.059 357.42" stroke="url(#paint1_linear_47_112)" stroke-width="15" stroke-linecap="round"/>
<path d="M533.679 419.871V695.08M533.679 419.871L595.973 393.627M533.679 419.871L491.32 429.75L463.08 449.156L446.676 458.506M634.179 377.531L595.973 393.627M595.973 393.627L586.836 715.545M361.749 521.839L396.011 494.848M446.676 458.506L430.272 467.856L396.011 494.848M446.676 458.506L459.342 467.856L470.14 490.437L475.123 513.371L479.692 544.068V574.412L475.123 600.168L470.14 624.161L459.342 658.386L446.676 689.788L431.933 721.896L418.644 748.005L406.185 776.585L392.066 820.336L382.929 848.21L373.377 873.967L364.656 914.895L355.52 967.115L352.613 1004.52V1060.97V1113.54L355.52 1142.12L361.334 1172.11L370.47 1229.62L386.667 1283.96L399.541 1312.19L417.813 1349.59L440.654 1400.39L479.692 1385.22L517.483 1378.52L555.689 1373.23H646.223H670.309L705.609 1378.52L733.433 1385.22L760.842 1395.1L783.683 1378.52L794.481 1356.29L812.338 1325.24L822.72 1301.95L833.518 1276.9L843.07 1245.85L851.791 1207.04L860.097 1177.76L867.572 1135.06L870.894 1095.9V1060.97V1020.39V990.755V954.413L867.572 920.541L863.004 888.08L856.774 860.559L848.884 820.336L839.747 790.345L828.95 761.06L817.322 731.069L810.677 710.252L797.388 682.731L785.344 658.386L774.132 631.923L762.919 605.461L756.274 582.88L746.723 554.3L743.4 507.373V467.856L752.952 432.926L762.919 411.756L772.886 390.233M396.011 494.848L408.677 518.664L419.475 539.834L423.627 560.651V602.638V632.276L413.661 663.678L406.601 691.552L394.973 721.896L384.175 748.005L372.547 781.877L361.334 822.806L354.274 853.502L345.138 893.725L340.154 931.126L336.832 978.405V1028.86V1079.67L341.816 1129.42L350.121 1179.17L357.596 1226.45L374.208 1283.96L390.404 1319.59L406.601 1353.82L432.764 1405.69L417.813 1416.27L403.694 1426.15L392.481 1437.79L380.437 1452.26L372.132 1468.84L365.487 1486.48V1516.12L370.886 1535.18L380.437 1553.52L397.88 1580.34L416.568 1598.69L436.086 1618.44L458.512 1633.97L485.09 1648.08L505.855 1657.96L527.035 1666.08L544.061 1677.37L558.181 1686.54L571.886 1698.54L581.022 1711.24L586.421 1725" stroke="url(#paint2_linear_47_112)" stroke-width="20" stroke-linecap="round"/>
<path d="M695.642 336.956L684.43 711.664" stroke="url(#paint3_linear_47_112)" stroke-width="15" stroke-linecap="round"/>
<path d="M534.926 29.6382L529.112 339.778M529.112 339.778L492.566 352.128L450.622 358.479M529.112 339.778C516.93 343.895 484.177 353.398 450.622 358.479M450.622 358.479L362.996 362.007L376.285 352.128L400.787 335.192L411.585 319.314L419.89 303.437L424.459 284.736V261.802L419.89 225.813L411.585 203.938L397.465 188.766L383.76 170.771L367.979 163.009L350.952 154.188L326.866 147.132L297.38 143.25H263.326L235.917 147.132L213.492 154.188L183.591 167.596L163.657 178.534L146.63 188.766L130.019 200.762L108.424 221.226L93.0578 239.221L78.1074 253.334L59.8347 280.15L47.376 305.906L34.0868 335.192L26.1963 362.007L15.814 386.352L10 419.519V459.036V490.791L15.814 527.133L27.0269 562.416L44.0537 600.522L56.9277 625.573L76.4463 645.332L103.855 674.617L131.68 693.67L166.979 709.9L197.711 719.779L228.027 724.013H255.021L271.217 719.779L291.151 709.9L313.576 696.14L332.264 677.792L347.63 660.856L358.843 640.039L371.717 612.871L375.455 585.35L371.717 552.537L365.488 531.72L362.165 523.604L347.63 503.493M556.936 362.007V358.479L544.062 368.358L515.407 377.179L480.523 386.352L438.994 391.645H407.847L396.219 396.068M352.198 412.815L396.219 396.068M347.63 503.493L342.231 491.849V470.679L352.198 443.158L347.63 412.815L352.198 406.111M347.63 503.493L371.717 491.849L393.727 474.208L419.89 458.683L443.977 438.219L469.725 420.577L414.492 451.274L400.787 458.683L375.455 470.679L362.165 476.325M362.165 362.007L350.952 369.416L347.63 377.179L352.198 394.467V406.111M347.63 483.734L362.165 476.325M352.198 406.111L446.261 371.886L389.99 383.177L365.488 386.352H352.198M362.165 476.325L371.717 483.734M396.219 396.068L407.847 406.111L416.983 416.343" stroke="url(#paint4_linear_47_112)" stroke-width="20" stroke-linecap="round"/>
<path d="M628.764 20.4643C628.764 21.3983 628.292 22.8477 626.221 24.7323C624.149 26.6184 620.872 28.5465 616.399 30.2686C607.485 33.7001 594.832 35.9286 580.607 35.9286C566.382 35.9286 553.729 33.7001 544.816 30.2686C540.343 28.5465 537.065 26.6184 534.993 24.7323C532.923 22.8477 532.45 21.3983 532.45 20.4643C532.45 19.5303 532.923 18.0809 534.993 16.1964C537.065 14.3102 540.343 12.3822 544.816 10.66C553.729 7.2285 566.382 5 580.607 5C594.832 5 607.485 7.2285 616.399 10.66C620.872 12.3822 624.149 14.3102 626.221 16.1964C628.292 18.0809 628.764 19.5303 628.764 20.4643Z" stroke="#4FDEF6" stroke-width="10"/>
<path d="M630.425 690.847C630.425 691.781 629.953 693.231 627.882 695.115C625.81 697.001 622.533 698.929 618.06 700.651C609.146 704.083 596.494 706.311 582.268 706.311C568.043 706.311 555.391 704.083 546.477 700.651C542.004 698.929 538.726 697.001 536.654 695.115C534.584 693.231 534.111 691.781 534.111 690.847C534.111 689.913 534.584 688.464 536.654 686.579C538.726 684.693 542.004 682.765 546.477 681.043C555.391 677.611 568.043 675.383 582.268 675.383C596.494 675.383 609.146 677.611 618.06 681.043C622.533 682.765 625.81 684.693 627.882 686.579C629.953 688.464 630.425 689.913 630.425 690.847Z" stroke="#4FDEF6" stroke-width="10"/>
<path d="M587.252 77.6235L593.066 365.535" stroke="url(#paint5_linear_47_112)" stroke-width="15" stroke-linecap="round"/>
<path d="M684.43 68.4497L688.583 286.5" stroke="url(#paint6_linear_47_112)" stroke-width="15" stroke-linecap="round"/>
<path d="M684.083 68.4497C684.083 69.5728 683.509 71.1464 681.376 73.0874C679.242 75.0297 675.904 76.9855 671.397 78.7206C662.412 82.1793 649.696 84.414 635.426 84.414C621.155 84.414 608.439 82.1793 599.455 78.7206C594.948 76.9855 591.609 75.0297 589.475 73.0874C587.342 71.1464 586.769 69.5728 586.769 68.4497C586.769 67.3265 587.342 65.7529 589.475 63.8119C591.609 61.8696 594.948 59.9139 599.455 58.1788C608.439 54.7201 621.155 52.4854 635.426 52.4854C649.696 52.4854 662.412 54.7201 671.397 58.1788C675.904 59.9139 679.242 61.8696 681.376 63.8119C683.509 65.7529 684.083 67.3265 684.083 68.4497Z" stroke="#27C5F5" stroke-width="9"/>
<path d="M684.083 711.311C684.083 712.434 683.509 714.008 681.376 715.949C679.242 717.891 675.904 719.847 671.397 721.582C662.412 725.041 649.696 727.275 635.426 727.275C621.155 727.275 608.439 725.041 599.455 721.582C594.948 719.847 591.609 717.891 589.475 715.949C587.342 714.008 586.769 712.434 586.769 711.311C586.769 710.188 587.342 708.614 589.475 706.673C591.609 704.731 594.948 702.775 599.455 701.04C608.439 697.581 621.155 695.347 635.426 695.347C649.696 695.347 662.412 697.581 671.397 701.04C675.904 702.775 679.242 704.731 681.376 706.673C683.509 708.614 684.083 710.188 684.083 711.311Z" stroke="#27C5F5" stroke-width="9"/>
<path d="M294.473 250.511L305.686 147.837L410.754 237.456L352.613 243.984M294.473 250.511L165.318 179.592L155.351 288.264M294.473 250.511L352.613 243.984M155.351 288.264L35.7475 338.367L50.075 409.22M155.351 288.264L248.168 388.469M155.351 288.264L288.659 255.804L268.413 322.136M155.351 288.264L102.713 348.742M340.985 488.674L248.168 388.469M340.985 488.674L294.473 575.118M340.985 488.674L147.097 456.902M248.168 388.469L268.413 322.136M248.168 388.469L147.097 456.902M268.413 322.136L355.105 359.89L352.613 243.984M294.473 575.118L340.985 653.799L239.239 604.579M294.473 575.118L198.956 496.083L191.481 565.062M294.473 575.118L239.239 604.579M184.006 634.041L239.239 604.579M184.006 634.041L191.481 565.062M184.006 634.041L134.171 690.141L106.762 559.593M239.239 604.579V720.132M191.481 565.062L106.762 551.919M191.481 565.062L147.097 456.902M22.043 538.776L106.762 551.919M106.762 551.919L64.4025 480.073M22.043 408.228L64.4025 480.073M64.4025 480.073L50.075 409.22M50.075 409.22L102.713 348.742M102.713 348.742L147.097 456.902" stroke="url(#paint7_linear_47_112)" stroke-width="15" stroke-linecap="round"/>
<path d="M986.76 540.893L975.547 643.567L870.479 553.948L928.62 547.42M986.76 540.893L1115.92 611.812L1125.88 503.14M986.76 540.893L928.62 547.42M1125.88 503.14L1171.98 531.366L1208.11 431.515M1125.88 503.14L1033.06 402.935M1125.88 503.14L992.574 535.6L1012.82 469.268M1125.88 503.14L1178.52 442.662M878.37 306.259L1033.06 402.935M878.37 306.259L986.76 216.287M878.37 306.259L1134.14 334.502M1033.06 402.935L1012.82 469.268M1033.06 402.935L1134.14 334.502M1012.82 469.268L926.128 431.515L928.62 547.42M986.76 216.287L820.229 145.72L1041.99 186.825M986.76 216.287L1082.28 295.321L1089.75 226.342M986.76 216.287L1041.99 186.825M1097.23 157.364L1041.99 186.825M1097.23 157.364L1089.75 226.342M1097.23 157.364L1122.14 186.825L1167 244.16M1041.99 186.825L936.925 92.0894M1089.75 226.342L1167 244.16M1089.75 226.342L1134.14 334.502M1167 244.16L1134.14 334.502M1134.14 334.502L1208.11 431.515M1134.14 334.502L1178.52 442.662M1208.11 431.515L1178.52 442.662" stroke="url(#paint8_linear_47_112)" stroke-width="15" stroke-linecap="round"/>
<path d="M442.316 1407.8L504.194 1462.49M504.194 1462.49L372.963 1509.77L522.052 1560.23M504.194 1462.49L522.052 1385.58M504.194 1462.49L522.052 1556.7M522.052 1560.23L504.194 1649.85L632.519 1601.16M522.052 1560.23L632.519 1601.16M632.519 1601.16L595.143 1723.24M632.519 1601.16L742.57 1636.44M742.57 1636.44L678.616 1502.72M742.57 1636.44L826.874 1446.26L678.616 1502.72M678.616 1502.72L573.963 1528.47M678.616 1502.72L632.519 1426.15M573.963 1528.47L632.519 1426.15M573.963 1528.47L522.052 1385.58M632.519 1426.15L522.052 1385.58M632.519 1426.15L696.889 1385.58" stroke="url(#paint9_linear_47_112)" stroke-width="15" stroke-linecap="round"/>
<ellipse cx="283.178" cy="250.166" rx="14.0376" ry="12.3572" fill="url(#paint10_diamond_47_112)"/>
<ellipse cx="186.001" cy="559.248" rx="14.0376" ry="12.3572" fill="url(#paint11_diamond_47_112)"/>
<ellipse cx="102.943" cy="356.722" rx="14.0376" ry="12.3572" fill="url(#paint12_diamond_47_112)"/>
<ellipse cx="297.297" cy="578.302" rx="14.0376" ry="12.3572" fill="url(#paint13_diamond_47_112)"/>
<ellipse cx="248.293" cy="389.183" rx="14.0376" ry="12.3572" fill="url(#paint14_diamond_47_112)"/>
<ellipse cx="102.943" cy="547.252" rx="14.0376" ry="12.3572" fill="url(#paint15_diamond_47_112)"/>
<ellipse cx="985.847" cy="221.234" rx="14.0376" ry="12.3572" fill="url(#paint16_diamond_47_112)"/>
<ellipse cx="1034.85" cy="401.885" rx="14.0376" ry="12.3572" fill="url(#paint17_diamond_47_112)"/>
<ellipse cx="985.847" cy="536.667" rx="14.0376" ry="12.3572" fill="url(#paint18_diamond_47_112)"/>
<ellipse cx="1123.72" cy="502.795" rx="14.0376" ry="12.3572" fill="url(#paint19_diamond_47_112)"/>
<ellipse cx="1137.84" cy="336.258" rx="14.0376" ry="12.3572" fill="url(#paint20_diamond_47_112)"/>
<ellipse cx="1034.85" cy="183.128" rx="14.0376" ry="12.3572" fill="url(#paint21_diamond_47_112)"/>
<ellipse cx="522.385" cy="1559.88" rx="14.0376" ry="12.3572" fill="url(#paint22_diamond_47_112)"/>
<ellipse cx="678.534" cy="1500.61" rx="14.0376" ry="12.3572" fill="url(#paint23_diamond_47_112)"/>
<ellipse cx="494.145" cy="1462.5" rx="14.0376" ry="12.3572" fill="url(#paint24_diamond_47_112)"/>
<ellipse cx="629.53" cy="1425.1" rx="14.0376" ry="12.3572" fill="url(#paint25_diamond_47_112)"/>
<ellipse cx="629.53" cy="1602.93" rx="14.0376" ry="12.3572" fill="url(#paint26_diamond_47_112)"/>
<defs>
<linearGradient id="paint0_linear_47_112" x1="716.342" y1="65.2957" x2="716.342" y2="663.326" gradientUnits="userSpaceOnUse">
<stop stop-color="#0091B1"/>
<stop offset="1" stop-color="#29D1E8" stop-opacity="0.81"/>
</linearGradient>
<linearGradient id="paint1_linear_47_112" x1="359.214" y1="353.615" x2="359.214" y2="468.915" gradientUnits="userSpaceOnUse">
<stop stop-color="#03B4F2"/>
<stop offset="0.520833" stop-color="#59DDFA"/>
<stop offset="1" stop-color="#0AEBDD"/>
</linearGradient>
<linearGradient id="paint2_linear_47_112" x1="538.969" y1="365.994" x2="538.969" y2="715.545" gradientUnits="userSpaceOnUse">
<stop stop-color="#0091B1"/>
<stop offset="1" stop-color="#29D1E8" stop-opacity="0.81"/>
</linearGradient>
<linearGradient id="paint3_linear_47_112" x1="685.02" y1="324.167" x2="685.02" y2="711.664" gradientUnits="userSpaceOnUse">
<stop stop-color="#03B4F2"/>
<stop offset="0.520833" stop-color="#59DDFA"/>
<stop offset="1" stop-color="#0AEBDD"/>
</linearGradient>
<linearGradient id="paint4_linear_47_112" x1="527.844" y1="19.2097" x2="527.844" y2="335.192" gradientUnits="userSpaceOnUse">
<stop stop-color="#0091B1"/>
<stop offset="1" stop-color="#0AEBDD"/>
</linearGradient>
<linearGradient id="paint5_linear_47_112" x1="587.558" y1="67.7972" x2="587.558" y2="365.535" gradientUnits="userSpaceOnUse">
<stop stop-color="#03B4F2"/>
<stop offset="0.520833" stop-color="#59DDFA"/>
<stop offset="1" stop-color="#0AEBDD"/>
</linearGradient>
<linearGradient id="paint6_linear_47_112" x1="684.648" y1="61.0077" x2="684.648" y2="286.5" gradientUnits="userSpaceOnUse">
<stop stop-color="#03B4F2"/>
<stop offset="0.520833" stop-color="#59DDFA"/>
<stop offset="1" stop-color="#0AEBDD"/>
</linearGradient>
<linearGradient id="paint7_linear_47_112" x1="42.5014" y1="128.305" x2="42.5014" y2="720.132" gradientUnits="userSpaceOnUse">
<stop stop-color="#03B4F2"/>
<stop offset="0.520833" stop-color="#59DDFA"/>
<stop offset="1" stop-color="#0AEBDD"/>
</linearGradient>
<linearGradient id="paint8_linear_47_112" x1="1238.73" y1="663.1" x2="1238.73" y2="71.2723" gradientUnits="userSpaceOnUse">
<stop stop-color="#0091B1"/>
<stop offset="1" stop-color="#0AEBDD"/>
</linearGradient>
<linearGradient id="paint9_linear_47_112" x1="396.853" y1="1374.05" x2="396.853" y2="1723.24" gradientUnits="userSpaceOnUse">
<stop stop-color="#0091B1"/>
<stop offset="1" stop-color="#0AEBDD"/>
</linearGradient>
<radialGradient id="paint10_diamond_47_112" cx="0" cy="0" r="1" gradientUnits="userSpaceOnUse" gradientTransform="translate(283.178 250.166) rotate(90) scale(12.3572 14.0376)">
<stop stop-color="white"/>
<stop offset="0.5" stop-color="#93E5F7"/>
<stop offset="1" stop-color="#25A7C4"/>
</radialGradient>
<radialGradient id="paint11_diamond_47_112" cx="0" cy="0" r="1" gradientUnits="userSpaceOnUse" gradientTransform="translate(186.001 559.248) rotate(90) scale(12.3572 14.0376)">
<stop stop-color="white"/>
<stop offset="0.5" stop-color="#93E5F7"/>
<stop offset="1" stop-color="#25A7C4"/>
</radialGradient>
<radialGradient id="paint12_diamond_47_112" cx="0" cy="0" r="1" gradientUnits="userSpaceOnUse" gradientTransform="translate(102.943 356.722) rotate(90) scale(12.3572 14.0376)">
<stop stop-color="white"/>
<stop offset="0.5" stop-color="#93E5F7"/>
<stop offset="1" stop-color="#25A7C4"/>
</radialGradient>
<radialGradient id="paint13_diamond_47_112" cx="0" cy="0" r="1" gradientUnits="userSpaceOnUse" gradientTransform="translate(297.297 578.302) rotate(90) scale(12.3572 14.0376)">
<stop stop-color="white"/>
<stop offset="0.5" stop-color="#93E5F7"/>
<stop offset="1" stop-color="#25A7C4"/>
</radialGradient>
<radialGradient id="paint14_diamond_47_112" cx="0" cy="0" r="1" gradientUnits="userSpaceOnUse" gradientTransform="translate(248.293 389.183) rotate(90) scale(12.3572 14.0376)">
<stop stop-color="white"/>
<stop offset="0.5" stop-color="#93E5F7"/>
<stop offset="1" stop-color="#25A7C4"/>
</radialGradient>
<radialGradient id="paint15_diamond_47_112" cx="0" cy="0" r="1" gradientUnits="userSpaceOnUse" gradientTransform="translate(102.943 547.252) rotate(90) scale(12.3572 14.0376)">
<stop stop-color="white"/>
<stop offset="0.5" stop-color="#93E5F7"/>
<stop offset="1" stop-color="#25A7C4"/>
</radialGradient>
<radialGradient id="paint16_diamond_47_112" cx="0" cy="0" r="1" gradientUnits="userSpaceOnUse" gradientTransform="translate(985.847 221.234) rotate(90) scale(12.3572 14.0376)">
<stop stop-color="white"/>
<stop offset="0.5" stop-color="#93E5F7"/>
<stop offset="1" stop-color="#25A7C4"/>
</radialGradient>
<radialGradient id="paint17_diamond_47_112" cx="0" cy="0" r="1" gradientUnits="userSpaceOnUse" gradientTransform="translate(1034.85 401.885) rotate(90) scale(12.3572 14.0376)">
<stop stop-color="white"/>
<stop offset="0.5" stop-color="#93E5F7"/>
<stop offset="1" stop-color="#25A7C4"/>
</radialGradient>
<radialGradient id="paint18_diamond_47_112" cx="0" cy="0" r="1" gradientUnits="userSpaceOnUse" gradientTransform="translate(985.847 536.667) rotate(90) scale(12.3572 14.0376)">
<stop stop-color="white"/>
<stop offset="0.5" stop-color="#93E5F7"/>
<stop offset="1" stop-color="#25A7C4"/>
</radialGradient>
<radialGradient id="paint19_diamond_47_112" cx="0" cy="0" r="1" gradientUnits="userSpaceOnUse" gradientTransform="translate(1123.72 502.795) rotate(90) scale(12.3572 14.0376)">
<stop stop-color="white"/>
<stop offset="0.5" stop-color="#93E5F7"/>
<stop offset="1" stop-color="#25A7C4"/>
</radialGradient>
<radialGradient id="paint20_diamond_47_112" cx="0" cy="0" r="1" gradientUnits="userSpaceOnUse" gradientTransform="translate(1137.84 336.258) rotate(90) scale(12.3572 14.0376)">
<stop stop-color="white"/>
<stop offset="0.5" stop-color="#93E5F7"/>
<stop offset="1" stop-color="#25A7C4"/>
</radialGradient>
<radialGradient id="paint21_diamond_47_112" cx="0" cy="0" r="1" gradientUnits="userSpaceOnUse" gradientTransform="translate(1034.85 183.128) rotate(90) scale(12.3572 14.0376)">
<stop stop-color="white"/>
<stop offset="0.5" stop-color="#93E5F7"/>
<stop offset="1" stop-color="#25A7C4"/>
</radialGradient>
<radialGradient id="paint22_diamond_47_112" cx="0" cy="0" r="1" gradientUnits="userSpaceOnUse" gradientTransform="translate(522.385 1559.88) rotate(90) scale(12.3572 14.0376)">
<stop stop-color="white"/>
<stop offset="0.5" stop-color="#93E5F7"/>
<stop offset="1" stop-color="#25A7C4"/>
</radialGradient>
<radialGradient id="paint23_diamond_47_112" cx="0" cy="0" r="1" gradientUnits="userSpaceOnUse" gradientTransform="translate(678.534 1500.61) rotate(90) scale(12.3572 14.0376)">
<stop stop-color="white"/>
<stop offset="0.5" stop-color="#93E5F7"/>
<stop offset="1" stop-color="#25A7C4"/>
</radialGradient>
<radialGradient id="paint24_diamond_47_112" cx="0" cy="0" r="1" gradientUnits="userSpaceOnUse" gradientTransform="translate(494.145 1462.5) rotate(90) scale(12.3572 14.0376)">
<stop stop-color="white"/>
<stop offset="0.5" stop-color="#93E5F7"/>
<stop offset="1" stop-color="#25A7C4"/>
</radialGradient>
<radialGradient id="paint25_diamond_47_112" cx="0" cy="0" r="1" gradientUnits="userSpaceOnUse" gradientTransform="translate(629.53 1425.1) rotate(90) scale(12.3572 14.0376)">
<stop stop-color="white"/>
<stop offset="0.5" stop-color="#93E5F7"/>
<stop offset="1" stop-color="#25A7C4"/>
</radialGradient>
<radialGradient id="paint26_diamond_47_112" cx="0" cy="0" r="1" gradientUnits="userSpaceOnUse" gradientTransform="translate(629.53 1602.93) rotate(90) scale(12.3572 14.0376)">
<stop stop-color="white"/>
<stop offset="0.5" stop-color="#93E5F7"/>
<stop offset="1" stop-color="#25A7C4"/>
</radialGradient>
</defs>
</svg>
