<svg width="820" height="1236" viewBox="0 0 820 1236" fill="none" xmlns="http://www.w3.org/2000/svg">
<path d="M466.474 175.895L482.728 187.922L501.185 197.945L519.092 206.213L538.651 211.725H571.158M571.158 211.725L557.934 197.945L544.436 184.915L538.651 164.87L534.794 143.322L538.651 121.774L544.436 101.227L557.934 87.6971L571.158 76.1712L587.411 64.1442L606.419 60.3857H639.202H651.874L672.81 66.6498L695.951 76.1712L716.061 87.6971L725.978 96.4667L743.058 110.248L755.731 126.033L767.852 143.322L777.769 158.105L786.585 175.895L795.124 197.945L800.359 211.725L806.144 233.023L810.001 264.594V312.953L806.144 337.758L800.359 358.555L790.992 377.598L780.248 396.39L765.097 415.433L755.18 426.959L740.304 443.245L722.397 455.272L706.144 464.042L681.901 471.058H648.017L626.529 461.035L611.103 452.516L599.532 438.485L587.136 423.2L578.045 408.918L571.158 393.383L567.576 380.103V354.296L578.045 335.253M571.158 211.725L587.136 224.755M594.849 302.429L590.166 281.382L587.959 264.594M594.849 302.429L587.136 288.899L573.912 281.382L557.934 273.113L538.651 264.594L526.667 255.95M594.849 302.429L593.212 305.686M587.136 258.33V236.782V224.755M587.136 258.33L581.626 253.068L548.568 230.017L587.136 224.755M587.136 258.33L587.959 264.594M587.959 264.594L514.684 221.497L490.992 216.737L476.943 211.725L463.72 199.698V211.725L490.992 233.023L514.684 247.305L526.667 255.95M593.212 305.686L581.626 328.738L578.045 335.253M593.212 305.686L578.045 293.409M578.045 293.409L563.169 288.899L551.047 282.885L563.169 302.429L573.912 312.953L581.626 318.716L578.045 335.253M578.045 293.409L570.331 302.429M578.045 335.253L567.576 322.975L555.12 309.946M464.822 239.037L476.943 247.305L490.992 253.068L501.185 260.836L514.684 268.353L524.326 278.876L538.651 293.409L551.047 305.686L555.12 309.946M555.12 309.946L549.946 317.212L541.957 325.731L537.273 338.26L533.968 346.779L530.386 360.56V386.869V404.659L533.968 419.191L538.651 437.232L542.783 452.516L549.395 474.315L556.282 489.349L563.444 511.649L571.433 535.202L574.463 552.992L578.871 570.03L584.932 595.838L586.86 616.133L591.543 647.454L592.645 673.512V696.063V721.37V743.67V771.232L589.064 790.775L586.585 809.818L581.901 832.619L574.463 861.183L568.403 890.249L562.893 911.547L550.772 938.357L542.507 956.147L530.111 982.456L515.786 993.982L530.111 999.995L542.507 1010.52L550.772 1018.79L559.036 1029.06L564.546 1041.34L568.678 1056.62V1074.41L564.546 1090.45L559.036 1105.73L548.293 1124.52L530.111 1144.57L510.001 1158.85L493.472 1170.88L470.331 1179.4L448.017 1189.67L432.866 1200.19L423.775 1211.22L416.888 1224M526.667 255.95L541.406 247.305L545.813 244.048" stroke="url(#paint0_linear_60_145)" stroke-width="20" stroke-linecap="round"/>
<path d="M232.038 332.998L284.655 299.423L315.509 288.648L343.333 277.373L414.683 253.82" stroke="url(#paint1_linear_60_145)" stroke-width="15" stroke-linecap="round"/>
<path d="M357.382 298.169V493.608M357.382 298.169L398.704 279.532M357.382 298.169L329.283 305.185L310.55 318.966L299.669 325.606M424.049 268.102L398.704 279.532M398.704 279.532L392.644 508.14M243.333 370.582L266.06 351.414M299.669 325.606L288.787 332.246L266.06 351.414M299.669 325.606L308.071 332.246L315.233 348.282L318.539 364.568L321.57 386.367V407.915L318.539 426.206L315.233 443.245L308.071 467.549L299.669 489.849L289.889 512.651L281.074 531.192L272.809 551.488L263.443 582.557L257.382 602.352L251.046 620.643L245.261 649.708L239.2 686.791L237.272 713.351V753.441V790.775L239.2 811.07L243.057 832.368L249.118 873.21L259.862 911.797L268.401 931.842L280.523 958.401L295.674 994.482L321.57 983.708L346.638 978.947L371.983 975.189H432.038H448.016L471.432 978.947L489.889 983.708L508.071 990.724L523.222 978.947L530.385 963.162L542.231 941.112L549.118 924.575L556.28 906.785L562.616 884.736L568.401 857.174L573.911 836.377L578.87 806.059L581.074 778.247V753.441V724.626V703.579V677.771L578.87 653.717L575.839 630.665L571.707 611.122L566.473 582.557L560.412 561.26L553.25 540.463L545.536 519.165L541.129 504.382L532.313 484.838L524.324 467.549L516.886 448.757L509.448 429.965L505.04 413.929L498.704 393.633L496.501 360.309V332.246L502.837 307.44L509.448 292.406L516.06 277.122M266.06 351.414L274.462 368.327L281.625 383.36L284.379 398.143V427.96V449.008L277.768 471.308L273.085 491.102L265.371 512.651L258.209 531.192L250.495 555.246L243.057 584.311L238.374 606.11L232.313 634.674L229.008 661.234L226.804 694.809V730.64V766.721L230.109 802.05L235.619 837.38L240.578 870.955L251.597 911.797L262.341 937.103L273.085 961.408L290.44 998.241L280.523 1005.76L271.156 1012.77L263.718 1021.04L255.729 1031.31L250.22 1043.09L245.812 1055.62V1076.67L249.393 1090.2L255.729 1103.23L267.3 1122.27L279.696 1135.3L292.644 1149.33L307.52 1160.35L325.151 1170.38L338.925 1177.39L352.974 1183.16L364.269 1191.17L373.636 1197.69L382.727 1206.21L388.787 1215.23L392.368 1225" stroke="url(#paint2_linear_60_145)" stroke-width="20" stroke-linecap="round"/>
<path d="M464.821 239.287L457.383 505.384" stroke="url(#paint3_linear_60_145)" stroke-width="15" stroke-linecap="round"/>
<path d="M358.209 21.0469L354.352 241.291M354.352 241.291L330.11 250.061L302.286 254.571M354.352 241.291C346.272 244.215 324.545 250.963 302.286 254.571M302.286 254.571L244.16 257.077L252.975 250.061L269.228 238.034L276.391 226.759L281.901 215.483L284.931 202.204V185.917L281.901 160.36L276.391 144.825L267.025 134.051L257.934 121.272L247.465 115.759L236.171 109.495L220.193 104.484L200.633 101.728H178.044L159.862 104.484L144.986 109.495L125.151 119.017L111.928 126.784L100.634 134.051L89.6143 142.57L75.2892 157.102L65.0964 169.881L55.179 179.903L43.0578 198.946L34.7934 217.237L25.978 238.034L20.7438 257.077L13.8567 274.366L10 297.918V325.981V348.532L13.8567 374.34L21.2948 399.396L32.5895 426.457L41.1295 444.247L54.0771 458.278L72.2589 479.075L90.7162 492.605L114.132 504.131L134.518 511.147L154.628 514.154H172.534L183.278 511.147L196.501 504.131L211.377 494.359L223.774 481.33L233.967 469.303L241.405 454.52L249.945 435.227L252.424 415.683L249.945 392.38L245.813 377.597L243.609 371.834L233.967 357.552M372.81 257.077V254.571L364.27 261.587L345.261 267.851L322.121 274.366L294.573 278.124H273.912L266.198 281.265M236.997 293.158L266.198 281.265M233.967 357.552L230.386 349.284V334.25L236.997 314.706L233.967 293.158L236.997 288.397M233.967 357.552L249.945 349.284L264.545 336.756L281.901 325.731L297.879 311.198L314.958 298.67L278.319 320.469L269.228 325.731L252.424 334.25L243.609 338.259M243.609 257.077L236.171 262.339L233.967 267.851L236.997 280.128V288.397M233.967 343.521L243.609 338.259M236.997 288.397L299.394 264.092L262.066 272.11L245.813 274.366H236.997M243.609 338.259L249.945 343.521M266.198 281.265L273.912 288.397L279.972 295.663" stroke="url(#paint4_linear_60_145)" stroke-width="20" stroke-linecap="round"/>
<path d="M418.773 14.5326C418.773 14.7773 418.674 15.4768 417.513 16.6083C416.336 17.7553 414.373 19.0186 411.54 20.186C405.899 22.511 397.76 24.0652 388.512 24.0652C379.264 24.0652 371.124 22.511 365.483 20.186C362.651 19.0186 360.688 17.7553 359.51 16.6083C358.349 15.4768 358.25 14.7773 358.25 14.5326C358.25 14.288 358.349 13.5884 359.51 12.4569C360.688 11.3099 362.651 10.0466 365.483 8.87929C371.124 6.55428 379.264 5 388.512 5C397.76 5 405.899 6.55428 411.54 8.87929C414.373 10.0466 416.336 11.3099 417.513 12.4569C418.674 13.5884 418.773 14.288 418.773 14.5326Z" stroke="#4FDEF6" stroke-width="10"/>
<path d="M419.875 490.601C419.875 490.846 419.776 491.545 418.615 492.677C417.437 493.824 415.474 495.087 412.642 496.254C407 498.579 398.861 500.134 389.613 500.134C380.365 500.134 372.226 498.579 366.585 496.254C363.752 495.087 361.789 493.824 360.612 492.677C359.451 491.545 359.352 490.846 359.352 490.601C359.352 490.356 359.451 489.657 360.612 488.525C361.789 487.378 363.752 486.115 366.585 484.948C372.226 482.623 380.365 481.068 389.613 481.068C398.861 481.068 407 482.623 412.642 484.948C415.474 486.115 417.437 487.378 418.615 488.525C419.776 489.657 419.875 490.356 419.875 490.601Z" stroke="#4FDEF6" stroke-width="10"/>
<path d="M392.92 55.124L396.777 259.583" stroke="url(#paint5_linear_60_145)" stroke-width="15" stroke-linecap="round"/>
<path d="M457.383 48.6094L460.138 203.457" stroke="url(#paint6_linear_60_145)" stroke-width="15" stroke-linecap="round"/>
<path d="M455.638 48.6088C455.638 49.0296 455.45 49.8504 454.226 51.0426C452.988 52.2488 450.963 53.5423 448.095 54.7244C442.38 57.0799 434.173 58.6414 424.876 58.6414C415.579 58.6414 407.372 57.0799 401.657 54.7244C398.789 53.5423 396.764 52.2488 395.526 51.0426C394.302 49.8504 394.114 49.0296 394.114 48.6088C394.114 48.188 394.302 47.3672 395.526 46.175C396.764 44.9688 398.789 43.6753 401.657 42.4932C407.372 40.1377 415.579 38.5762 424.876 38.5762C434.173 38.5762 442.38 40.1377 448.095 42.4932C450.963 43.6753 452.988 44.9688 454.226 46.175C455.45 47.3672 455.638 48.188 455.638 48.6088Z" stroke="#27C5F5" stroke-width="9"/>
<path d="M455.638 505.134C455.638 505.555 455.45 506.376 454.226 507.568C452.988 508.774 450.963 510.068 448.095 511.25C442.38 513.605 434.173 515.167 424.876 515.167C415.579 515.167 407.372 513.605 401.657 511.25C398.789 510.068 396.764 508.774 395.526 507.568C394.302 506.376 394.114 505.555 394.114 505.134C394.114 504.713 394.302 503.893 395.526 502.7C396.764 501.494 398.789 500.201 401.657 499.019C407.372 496.663 415.579 495.102 424.876 495.102C434.173 495.102 442.38 496.663 448.095 499.019C450.963 500.201 452.988 501.494 454.226 502.7C455.45 503.893 455.638 504.713 455.638 505.134Z" stroke="#27C5F5" stroke-width="9"/>
<path d="M198.704 177.899L206.142 104.985L275.839 168.628L237.272 173.264M198.704 177.899L113.03 127.536L106.418 204.709M198.704 177.899L237.272 173.264M106.418 204.709L27.0792 240.289L36.5833 290.605M106.418 204.709L167.988 275.869M106.418 204.709L194.848 181.657L181.418 228.763M106.418 204.709L71.5006 247.657M229.558 347.029L167.988 275.869M229.558 347.029L198.704 408.417M229.558 347.029L100.943 324.466M167.988 275.869L181.418 228.763M167.988 275.869L100.943 324.466M181.418 228.763L238.925 255.573L237.272 173.264M198.704 408.417L229.558 464.292L162.065 429.338M198.704 408.417L135.344 352.291L130.385 401.275M198.704 408.417L162.065 429.338M125.426 450.26L162.065 429.338M125.426 450.26L130.385 401.275M125.426 450.26L92.3684 490.1L74.1866 397.392M162.065 429.338V511.398M130.385 401.275L74.1866 391.942M130.385 401.275L100.943 324.466M17.9883 382.609L74.1866 391.942M74.1866 391.942L46.0874 340.921M17.9883 289.9L46.0874 340.921M46.0874 340.921L36.5833 290.605M36.5833 290.605L71.5006 247.657M71.5006 247.657L100.943 324.466" stroke="url(#paint7_linear_60_145)" stroke-width="15" stroke-linecap="round"/>
<path d="M657.934 384.113L650.496 457.026L580.799 393.383L619.366 388.748M657.934 384.113L743.609 434.476L750.22 357.302M657.934 384.113L619.366 388.748M750.22 357.302L780.799 377.347L804.766 306.438M750.22 357.302L688.65 286.143M750.22 357.302L661.79 380.354L675.22 333.248M750.22 357.302L785.138 314.355M586.033 217.489L688.65 286.143M586.033 217.489L657.934 153.595M586.033 217.489L755.695 237.545M688.65 286.143L675.22 333.248M688.65 286.143L755.695 237.545M675.22 333.248L617.713 306.438L619.366 388.748M657.934 153.595L547.465 103.483L694.573 132.673M657.934 153.595L721.295 209.721L726.253 160.736M657.934 153.595L694.573 132.673M731.212 111.751L694.573 132.673M731.212 111.751L726.253 160.736M731.212 111.751L747.741 132.673L777.493 173.39M694.573 132.673L624.876 65.3972M726.253 160.736L777.493 173.39M726.253 160.736L755.695 237.545M777.493 173.39L755.695 237.545M755.695 237.545L804.766 306.438M755.695 237.545L785.138 314.355M804.766 306.438L785.138 314.355" stroke="url(#paint8_linear_60_145)" stroke-width="15" stroke-linecap="round"/>
<path d="M296.777 999.744L337.824 1038.58M337.824 1038.58L250.771 1072.16L349.67 1107.99M337.824 1038.58L349.67 983.959M337.824 1038.58L349.67 1105.48M349.67 1107.99L337.824 1171.63L422.948 1137.05M349.67 1107.99L422.948 1137.05M422.948 1137.05L398.154 1223.75M422.948 1137.05L495.95 1162.11M495.95 1162.11L453.526 1067.15M495.95 1162.11L551.873 1027.06L453.526 1067.15M453.526 1067.15L384.105 1085.44M453.526 1067.15L422.948 1012.77M384.105 1085.44L422.948 1012.77M384.105 1085.44L349.67 983.959M422.948 1012.77L349.67 983.959M422.948 1012.77L465.647 983.959" stroke="url(#paint9_linear_60_145)" stroke-width="15" stroke-linecap="round"/>
<ellipse cx="191.212" cy="177.654" rx="9.31185" ry="8.7754" fill="url(#paint10_diamond_60_145)"/>
<ellipse cx="126.75" cy="397.146" rx="9.31185" ry="8.7754" fill="url(#paint11_diamond_60_145)"/>
<ellipse cx="71.6536" cy="253.324" rx="9.31185" ry="8.7754" fill="url(#paint12_diamond_60_145)"/>
<ellipse cx="200.578" cy="410.678" rx="9.31185" ry="8.7754" fill="url(#paint13_diamond_60_145)"/>
<ellipse cx="168.072" cy="276.377" rx="9.31185" ry="8.7754" fill="url(#paint14_diamond_60_145)"/>
<ellipse cx="71.6536" cy="388.628" rx="9.31185" ry="8.7754" fill="url(#paint15_diamond_60_145)"/>
<ellipse cx="657.327" cy="157.108" rx="9.31185" ry="8.7754" fill="url(#paint16_diamond_60_145)"/>
<ellipse cx="689.835" cy="285.396" rx="9.31185" ry="8.7754" fill="url(#paint17_diamond_60_145)"/>
<ellipse cx="657.327" cy="381.111" rx="9.31185" ry="8.7754" fill="url(#paint18_diamond_60_145)"/>
<ellipse cx="748.788" cy="357.057" rx="9.31185" ry="8.7754" fill="url(#paint19_diamond_60_145)"/>
<ellipse cx="758.154" cy="238.792" rx="9.31185" ry="8.7754" fill="url(#paint20_diamond_60_145)"/>
<ellipse cx="689.835" cy="130.047" rx="9.31185" ry="8.7754" fill="url(#paint21_diamond_60_145)"/>
<ellipse cx="349.89" cy="1107.74" rx="9.31185" ry="8.7754" fill="url(#paint22_diamond_60_145)"/>
<ellipse cx="453.471" cy="1065.65" rx="9.31185" ry="8.7754" fill="url(#paint23_diamond_60_145)"/>
<ellipse cx="331.158" cy="1038.59" rx="9.31185" ry="8.7754" fill="url(#paint24_diamond_60_145)"/>
<ellipse cx="420.965" cy="1012.03" rx="9.31185" ry="8.7754" fill="url(#paint25_diamond_60_145)"/>
<ellipse cx="420.965" cy="1138.31" rx="9.31185" ry="8.7754" fill="url(#paint26_diamond_60_145)"/>
<defs>
<linearGradient id="paint0_linear_60_145" x1="478.552" y1="46.3696" x2="478.552" y2="471.058" gradientUnits="userSpaceOnUse">
<stop stop-color="#0091B1"/>
<stop offset="1" stop-color="#29D1E8" stop-opacity="0.81"/>
</linearGradient>
<linearGradient id="paint1_linear_60_145" x1="241.651" y1="251.118" x2="241.651" y2="332.998" gradientUnits="userSpaceOnUse">
<stop stop-color="#03B4F2"/>
<stop offset="0.520833" stop-color="#59DDFA"/>
<stop offset="1" stop-color="#0AEBDD"/>
</linearGradient>
<linearGradient id="paint2_linear_60_145" x1="360.891" y1="259.909" x2="360.891" y2="508.14" gradientUnits="userSpaceOnUse">
<stop stop-color="#0091B1"/>
<stop offset="1" stop-color="#29D1E8" stop-opacity="0.81"/>
</linearGradient>
<linearGradient id="paint3_linear_60_145" x1="457.774" y1="230.205" x2="457.774" y2="505.384" gradientUnits="userSpaceOnUse">
<stop stop-color="#03B4F2"/>
<stop offset="0.520833" stop-color="#59DDFA"/>
<stop offset="1" stop-color="#0AEBDD"/>
</linearGradient>
<linearGradient id="paint4_linear_60_145" x1="353.511" y1="13.6412" x2="353.511" y2="238.034" gradientUnits="userSpaceOnUse">
<stop stop-color="#0091B1"/>
<stop offset="1" stop-color="#0AEBDD"/>
</linearGradient>
<linearGradient id="paint5_linear_60_145" x1="393.123" y1="48.1459" x2="393.123" y2="259.583" gradientUnits="userSpaceOnUse">
<stop stop-color="#03B4F2"/>
<stop offset="0.520833" stop-color="#59DDFA"/>
<stop offset="1" stop-color="#0AEBDD"/>
</linearGradient>
<linearGradient id="paint6_linear_60_145" x1="457.528" y1="43.3245" x2="457.528" y2="203.457" gradientUnits="userSpaceOnUse">
<stop stop-color="#03B4F2"/>
<stop offset="0.520833" stop-color="#59DDFA"/>
<stop offset="1" stop-color="#0AEBDD"/>
</linearGradient>
<linearGradient id="paint7_linear_60_145" x1="31.5594" y1="91.1146" x2="31.5594" y2="511.398" gradientUnits="userSpaceOnUse">
<stop stop-color="#03B4F2"/>
<stop offset="0.520833" stop-color="#59DDFA"/>
<stop offset="1" stop-color="#0AEBDD"/>
</linearGradient>
<linearGradient id="paint8_linear_60_145" x1="825.079" y1="470.897" x2="825.079" y2="50.614" gradientUnits="userSpaceOnUse">
<stop stop-color="#0091B1"/>
<stop offset="1" stop-color="#0AEBDD"/>
</linearGradient>
<linearGradient id="paint9_linear_60_145" x1="266.619" y1="975.775" x2="266.619" y2="1223.75" gradientUnits="userSpaceOnUse">
<stop stop-color="#0091B1"/>
<stop offset="1" stop-color="#0AEBDD"/>
</linearGradient>
<radialGradient id="paint10_diamond_60_145" cx="0" cy="0" r="1" gradientUnits="userSpaceOnUse" gradientTransform="translate(191.212 177.654) rotate(90) scale(8.7754 9.31185)">
<stop stop-color="white"/>
<stop offset="0.5" stop-color="#93E5F7"/>
<stop offset="1" stop-color="#25A7C4"/>
</radialGradient>
<radialGradient id="paint11_diamond_60_145" cx="0" cy="0" r="1" gradientUnits="userSpaceOnUse" gradientTransform="translate(126.75 397.146) rotate(90) scale(8.7754 9.31185)">
<stop stop-color="white"/>
<stop offset="0.5" stop-color="#93E5F7"/>
<stop offset="1" stop-color="#25A7C4"/>
</radialGradient>
<radialGradient id="paint12_diamond_60_145" cx="0" cy="0" r="1" gradientUnits="userSpaceOnUse" gradientTransform="translate(71.6536 253.324) rotate(90) scale(8.7754 9.31185)">
<stop stop-color="white"/>
<stop offset="0.5" stop-color="#93E5F7"/>
<stop offset="1" stop-color="#25A7C4"/>
</radialGradient>
<radialGradient id="paint13_diamond_60_145" cx="0" cy="0" r="1" gradientUnits="userSpaceOnUse" gradientTransform="translate(200.578 410.678) rotate(90) scale(8.7754 9.31185)">
<stop stop-color="white"/>
<stop offset="0.5" stop-color="#93E5F7"/>
<stop offset="1" stop-color="#25A7C4"/>
</radialGradient>
<radialGradient id="paint14_diamond_60_145" cx="0" cy="0" r="1" gradientUnits="userSpaceOnUse" gradientTransform="translate(168.072 276.377) rotate(90) scale(8.7754 9.31185)">
<stop stop-color="white"/>
<stop offset="0.5" stop-color="#93E5F7"/>
<stop offset="1" stop-color="#25A7C4"/>
</radialGradient>
<radialGradient id="paint15_diamond_60_145" cx="0" cy="0" r="1" gradientUnits="userSpaceOnUse" gradientTransform="translate(71.6536 388.628) rotate(90) scale(8.7754 9.31185)">
<stop stop-color="white"/>
<stop offset="0.5" stop-color="#93E5F7"/>
<stop offset="1" stop-color="#25A7C4"/>
</radialGradient>
<radialGradient id="paint16_diamond_60_145" cx="0" cy="0" r="1" gradientUnits="userSpaceOnUse" gradientTransform="translate(657.327 157.108) rotate(90) scale(8.7754 9.31185)">
<stop stop-color="white"/>
<stop offset="0.5" stop-color="#93E5F7"/>
<stop offset="1" stop-color="#25A7C4"/>
</radialGradient>
<radialGradient id="paint17_diamond_60_145" cx="0" cy="0" r="1" gradientUnits="userSpaceOnUse" gradientTransform="translate(689.835 285.396) rotate(90) scale(8.7754 9.31185)">
<stop stop-color="white"/>
<stop offset="0.5" stop-color="#93E5F7"/>
<stop offset="1" stop-color="#25A7C4"/>
</radialGradient>
<radialGradient id="paint18_diamond_60_145" cx="0" cy="0" r="1" gradientUnits="userSpaceOnUse" gradientTransform="translate(657.327 381.111) rotate(90) scale(8.7754 9.31185)">
<stop stop-color="white"/>
<stop offset="0.5" stop-color="#93E5F7"/>
<stop offset="1" stop-color="#25A7C4"/>
</radialGradient>
<radialGradient id="paint19_diamond_60_145" cx="0" cy="0" r="1" gradientUnits="userSpaceOnUse" gradientTransform="translate(748.788 357.057) rotate(90) scale(8.7754 9.31185)">
<stop stop-color="white"/>
<stop offset="0.5" stop-color="#93E5F7"/>
<stop offset="1" stop-color="#25A7C4"/>
</radialGradient>
<radialGradient id="paint20_diamond_60_145" cx="0" cy="0" r="1" gradientUnits="userSpaceOnUse" gradientTransform="translate(758.154 238.792) rotate(90) scale(8.7754 9.31185)">
<stop stop-color="white"/>
<stop offset="0.5" stop-color="#93E5F7"/>
<stop offset="1" stop-color="#25A7C4"/>
</radialGradient>
<radialGradient id="paint21_diamond_60_145" cx="0" cy="0" r="1" gradientUnits="userSpaceOnUse" gradientTransform="translate(689.835 130.047) rotate(90) scale(8.7754 9.31185)">
<stop stop-color="white"/>
<stop offset="0.5" stop-color="#93E5F7"/>
<stop offset="1" stop-color="#25A7C4"/>
</radialGradient>
<radialGradient id="paint22_diamond_60_145" cx="0" cy="0" r="1" gradientUnits="userSpaceOnUse" gradientTransform="translate(349.89 1107.74) rotate(90) scale(8.7754 9.31185)">
<stop stop-color="white"/>
<stop offset="0.5" stop-color="#93E5F7"/>
<stop offset="1" stop-color="#25A7C4"/>
</radialGradient>
<radialGradient id="paint23_diamond_60_145" cx="0" cy="0" r="1" gradientUnits="userSpaceOnUse" gradientTransform="translate(453.471 1065.65) rotate(90) scale(8.7754 9.31185)">
<stop stop-color="white"/>
<stop offset="0.5" stop-color="#93E5F7"/>
<stop offset="1" stop-color="#25A7C4"/>
</radialGradient>
<radialGradient id="paint24_diamond_60_145" cx="0" cy="0" r="1" gradientUnits="userSpaceOnUse" gradientTransform="translate(331.158 1038.59) rotate(90) scale(8.7754 9.31185)">
<stop stop-color="white"/>
<stop offset="0.5" stop-color="#93E5F7"/>
<stop offset="1" stop-color="#25A7C4"/>
</radialGradient>
<radialGradient id="paint25_diamond_60_145" cx="0" cy="0" r="1" gradientUnits="userSpaceOnUse" gradientTransform="translate(420.965 1012.03) rotate(90) scale(8.7754 9.31185)">
<stop stop-color="white"/>
<stop offset="0.5" stop-color="#93E5F7"/>
<stop offset="1" stop-color="#25A7C4"/>
</radialGradient>
<radialGradient id="paint26_diamond_60_145" cx="0" cy="0" r="1" gradientUnits="userSpaceOnUse" gradientTransform="translate(420.965 1138.31) rotate(90) scale(8.7754 9.31185)">
<stop stop-color="white"/>
<stop offset="0.5" stop-color="#93E5F7"/>
<stop offset="1" stop-color="#25A7C4"/>
</radialGradient>
</defs>
</svg>
