<svg width="1700" height="1700" viewBox="0 0 1700 1700" fill="none" xmlns="http://www.w3.org/2000/svg">
<path d="M519.217 720L490.05 693.779L475.089 671.759L450.795 649.872L433.611 636.793L413.316 628.251L391.096 623.714H368.58H347.841L327.102 619.71L311.696 617.308L299.993 609.968L293.623 599.024L285.92 580.207L275.551 553.782L269.626 533.496L266.07 514.412L269.626 493.993L275.551 482.249L293.623 478.512H316.584L342.36 487.053L355.988 495.995L380.282 510.675L396.133 526.156L407.391 537.9L421.908 551.38L437.611 564.325L454.794 580.207L467.386 594.487L482.792 609.968L500.864 619.71L512.567 628.251L537.009 634.791L557.748 636.793H582.635L602.485 639.595H609.299L618.213 656" stroke="url(#paint0_linear_140_915)" stroke-width="20"/>
<path d="M1190.88 732L1219.47 710.862L1236.06 691.911L1250.87 677.497L1268.06 663.084L1282.87 654.809L1295.46 650.138L1309.68 645.601H1321.24H1332.64H1342.86H1352.64H1372.05H1382.27L1391.45 642.932L1401.08 637.326L1411.45 629.052L1416.49 622.379L1422.86 607.432L1430.26 590.483L1436.04 576.069V557.518L1439.45 539.101V520.551L1433.08 512.276L1416.49 507.205L1405.67 502L1386.86 507.205L1372.05 512.276L1352.64 517.481L1342.86 528.825L1328.05 539.101L1306.27 553.515L1288.65 568.862L1275.46 582.342L1260.06 596.622L1246.87 607.432L1230.28 622.379L1210.88 633.723L1190.88 642.932L1172.06 650.138H1159.03H1141.25H1120.66L1102.98 671.5" stroke="url(#paint1_linear_140_915)" stroke-width="20"/>
<path d="M781.58 1336.51L771.211 1393.23V1396.83L776.988 1403.24L785.135 1410.18L795.801 1415.65L814.466 1423.13L825.428 1431H839.797H865.128L886.015 1428.06L912.383 1415.65L925.123 1400.71V1379.49L919.049 1362.54L908.532 1336.51V1312.49L912.383 1289.67L919.049 1268.18L925.123 1237.09L931.641 1197.98L938.899 1174.09L943.195 1146.73V1109.63L938.899 1085.34V1052.65L947.639 1028.89V1015.01L943.195 990.589L938.899 964.431L932.233 935.604V907.311V878.618L943.195 845.787L952.083 822.165L964.23 789.334L972.378 773.453L979.637 753.701L990.598 718.869L997.265 699.117L1006 681.767L1015.34 664.818H1026.89H1045.7H1058.59L1073.7 668.288L1101.11 674.961L1118.88 684.703L1142.88 699.117L1157.4 704.589L1169.69 718.869L1182.14 734.216L1194.58 753.701L1197.84 778.524V802.413L1212.65 822.165L1225.98 840.983L1241.39 850.992L1269.39 857.932L1316.2 850.992L1348.05 836.045L1365.23 822.165L1381.08 802.413L1392.64 783.062L1403.75 747.295L1410.86 726.476L1415.3 694.98L1425.08 674.961L1433.23 660.147L1442.56 643.732L1451.45 624.914L1461.22 602.093L1468.19 583.943L1471 561.655V529.225L1468.19 511.875L1463.89 498.263L1455.45 485.451L1441.22 473.707L1428.78 462.363H1412.93H1388.64L1370.12 471.838L1353.68 481.847L1331.75 493.725L1311.46 508.005L1296.05 521.351L1278.13 532.428L1259.02 546.174L1241.39 561.655L1225.98 569.262L1208.8 579.005L1190.58 589.281L1169.69 595.42L1142.88 593.418H1118.88L1101.11 589.281L1089.11 585.678L1058.59 575.802L1032.37 559.92L1019.63 555.783L999.783 542.037L987.784 532.428L970.156 524.287L950.602 510.674L935.937 500.798L923.641 492.124L909.421 483.449L898.162 477.71L886.163 470.237L869.572 466.366L857.573 463.297H846.908L832.983 468.101L814.022 473.44L799.504 482.248L775.507 493.592L758.323 505.736L734.325 522.552L705.439 535.764L678.626 550.712L654.036 563.524L636.112 568.328L621.15 573.8L605.151 578.738L584.264 583.009H568.71L552.415 581.274L534.491 573.8L514.197 563.524L498.346 556.984L483.385 546.174L470.349 535.764L457.165 526.823L442.203 514.411L425.168 499.864L409.613 489.054L393.319 475.308L378.357 467.567L362.062 455.823L349.915 447.549L327.991 437.673L309.03 431H291.698L277.773 434.603L258.22 447.549L242.221 466.366L231.259 487.319L228 518.148L231.259 555.249L244.295 594.086L260.738 624.247L282.81 659.346L285.328 691.376L288.143 722.472L302.067 754.502L317.325 774.254L342.212 799.344L364.136 820.297L395.689 835.511L429.167 842.451L466.053 833.509L487.977 815.492L495.68 801.479L505.16 784.13L510.938 749.431V735.284L557.008 686.438L617.743 655.877L693.588 648.536L714.031 712.73L724.4 743.692L760.101 840.983L775.803 889.294V923.993L769.433 954.422L753.583 1004.87L757.138 1048.51V1085.34V1146.73L760.693 1181.43L765.285 1216.13L781.58 1268.18L785.135 1297.14L781.58 1336.51Z" stroke="url(#paint2_linear_140_915)" stroke-width="20" stroke-linecap="round" stroke-linejoin="bevel"/>
<path d="M692.49 572.332L708.47 580.976L719.419 583.901H731.552H746.052H751.675L758.777 593.742L769.874 601.986L775.497 614.752L781.267 625.922L787.925 641.614L795.767 658.502L803.905 687.225V703.183L807.9 720.47L811.747 734.831L815.002 752.65L819.145 771.533L827.727 794.14L833.35 812.092L838.084 830.177L840.452 847.464L844.743 867.544L848.294 883.501L850.809 898.793V927.251L848.294 951.187L845.778 967.809L843.411 982.437L840.896 996.798V1059.03L827.727 1061.03H812.487H799.319L808.492 1071.53H793.696V1080.44V1093.47V1112.36V1126.05L795.767 1134.96L801.834 1140.15L805.681 1148.79L808.492 1155.44L810.268 1163.69L812.487 1175.92L808.492 1183.5L801.834 1188.29L799.319 1197.2V1203.31L801.834 1209.03L808.492 1215.15L810.268 1220.2L816.334 1227.91L822.401 1232.97V1240.28L818.849 1243.21L816.334 1249.32L812.487 1260.1V1269.4L810.268 1278.31V1285.63L808.492 1295.2V1304.78V1312.49L810.268 1319.14L816.334 1328.05L818.849 1335.09V1344.4L822.401 1349.46V1360.36V1374.06V1382.97L816.334 1386.82V1393.47L812.487 1396.4V1401.18L810.268 1404.11L808.492 1409.43V1421" stroke="url(#paint3_linear_140_915)" stroke-width="20" stroke-linecap="round" stroke-linejoin="bevel"/>
<path d="M692.403 571.664L714.475 561.788L734.622 554.047L757.879 550.711H781.877H806.912L825.28 557.384L845.427 561.788L863.203 571.664L868.091 576.068L883.497 568.327L905.421 561.788L922.605 557.384H943.492H959.342H977.711L1001.56 568.327L1016.82 576.068L1030.3 583.808V590.481L1001.56 595.419H977.711L967.342 601.425L954.454 609.165L943.492 629.051L937.863 637.325L930.012 650.004L926.901 674.827L922.605 692.977L917.716 719.535L908.532 742.09L900.533 764.644L895.052 787.332L887.645 809.886L874.906 833.642L870.61 857.931L865.721 885.557L862.61 920.79V951.085L865.721 980.846V998.062L870.61 1024.49V1066.93H885.867H900.533V1076.33L909.125 1079.6V1100.02V1128.18V1139.79L900.533 1156.34L892.682 1166.22V1178.36V1187.71V1197.05L900.533 1204.25V1216.93L892.682 1225.74L882.164 1231.35L877.276 1242.82V1253.37L882.164 1260.17L886.608 1270.85L889.571 1282.06V1291.67V1303.15V1313.02L886.608 1323.43L879.201 1331.57L871.647 1343.72V1354.13L868.98 1362.54V1378.68V1386.42V1392.7L874.757 1401.37L876.831 1408.04L879.201 1411.25V1427.13" stroke="url(#paint4_linear_140_915)" stroke-width="20" stroke-linecap="round" stroke-linejoin="bevel"/>
<path d="M459.599 721.959C472.913 742.735 477.991 764.864 475.752 783.699C473.513 802.524 464.073 817.663 448.712 825.653C433.352 833.643 414.079 833.438 394.863 825.772C375.638 818.103 356.905 803.076 343.591 782.3C330.277 761.524 325.199 739.394 327.438 720.56C329.677 701.734 339.117 686.595 354.478 678.605C369.838 670.615 389.111 670.82 408.327 678.486C427.552 686.156 446.285 701.183 459.599 721.959Z" stroke="url(#paint5_linear_140_915)" stroke-width="15"/>
<path d="M1361.74 800.984C1348.43 821.76 1329.69 836.787 1310.47 844.457C1291.25 852.123 1271.98 852.327 1256.62 844.338C1241.26 836.348 1231.82 821.208 1229.58 802.383C1227.34 783.549 1232.42 761.419 1245.73 740.643C1259.05 719.867 1277.78 704.84 1297 697.17C1316.22 689.504 1335.49 689.3 1350.85 697.29C1366.21 705.279 1375.65 720.419 1377.89 739.244C1380.13 758.079 1375.05 780.208 1361.74 800.984Z" stroke="url(#paint6_linear_140_915)" stroke-width="15"/>
<path d="M380.432 749.667L341.18 767L349.03 689L380.432 749.667ZM380.432 749.667L413.143 689L425.655 737.708M380.432 749.667L364.731 803.333M380.432 749.667L404.638 787.5M404.638 787.5L428.844 825.333L471.695 785.333L438.166 786.417M404.638 787.5L438.166 786.417M438.166 786.417L425.655 737.708M425.655 737.708L467.115 741.667" stroke="url(#paint7_linear_140_915)" stroke-width="10"/>
<path d="M1298.21 795.568L1313.51 835.668L1244.64 827.648L1298.21 795.568ZM1298.21 795.568L1244.64 762.151L1287.65 749.369M1298.21 795.568H1363.06M1298.21 795.568L1331.61 770.839M1331.61 770.839L1372.54 744.001L1329.7 702.335L1330.66 736.587M1331.61 770.839L1330.66 736.587M1330.66 736.587L1287.65 749.369M1287.65 749.369L1289.4 728.191V702.335" stroke="url(#paint8_linear_140_915)" stroke-width="10"/>
<ellipse cx="380.641" cy="750.341" rx="7.40675" ry="6.67289" fill="url(#paint9_diamond_140_915)"/>
<ellipse cx="1295.88" cy="798.341" rx="7.40675" ry="6.67289" fill="url(#paint10_diamond_140_915)"/>
<ellipse cx="1328.59" cy="737.005" rx="7.40675" ry="6.67289" fill="url(#paint11_diamond_140_915)"/>
<ellipse cx="440.174" cy="786.341" rx="7.40675" ry="6.67289" fill="url(#paint12_diamond_140_915)"/>
<ellipse cx="427.09" cy="737.005" rx="7.40675" ry="6.67289" fill="url(#paint13_diamond_140_915)"/>
<circle cx="850" cy="850" r="849.5" stroke="white"/>
<defs>
<linearGradient id="paint0_linear_140_915" x1="404.508" y1="657.043" x2="404.508" y2="714.065" gradientUnits="userSpaceOnUse">
<stop stop-color="#057189"/>
<stop offset="0.526042" stop-color="#15CEF9"/>
<stop offset="1" stop-color="#0797B7"/>
</linearGradient>
<linearGradient id="paint1_linear_140_915" x1="1227.76" y1="677.497" x2="1227.76" y2="733.549" gradientUnits="userSpaceOnUse">
<stop stop-color="#057189"/>
<stop offset="0.473958" stop-color="#15CEF9"/>
<stop offset="1" stop-color="#0797B7"/>
</linearGradient>
<linearGradient id="paint2_linear_140_915" x1="849.5" y1="646.15" x2="849.5" y2="1390.67" gradientUnits="userSpaceOnUse">
<stop stop-color="#057189"/>
<stop offset="0.494792" stop-color="#15CEF9"/>
<stop offset="1" stop-color="#0797B7"/>
</linearGradient>
<linearGradient id="paint3_linear_140_915" x1="771.65" y1="762.089" x2="771.65" y2="1418.74" gradientUnits="userSpaceOnUse">
<stop stop-color="#057189"/>
<stop offset="0.494792" stop-color="#15CEF9"/>
<stop offset="1" stop-color="#0797B7"/>
</linearGradient>
<linearGradient id="paint4_linear_140_915" x1="861.351" y1="746.673" x2="861.351" y2="1424.8" gradientUnits="userSpaceOnUse">
<stop stop-color="#057189"/>
<stop offset="0.494792" stop-color="#15CEF9"/>
<stop offset="1" stop-color="#0797B7"/>
</linearGradient>
<linearGradient id="paint5_linear_140_915" x1="350.431" y1="672.29" x2="437.59" y2="839.858" gradientUnits="userSpaceOnUse">
<stop stop-color="#057189"/>
<stop offset="0.510417" stop-color="#15CEF9"/>
<stop offset="1" stop-color="#0797B7"/>
</linearGradient>
<linearGradient id="paint6_linear_140_915" x1="1354.9" y1="690.975" x2="1267.74" y2="858.542" gradientUnits="userSpaceOnUse">
<stop stop-color="#057189"/>
<stop offset="0.510417" stop-color="#15CEF9"/>
<stop offset="1" stop-color="#0797B7"/>
</linearGradient>
<linearGradient id="paint7_linear_140_915" x1="406.437" y1="689" x2="406.437" y2="825.333" gradientUnits="userSpaceOnUse">
<stop stop-color="#028BCB"/>
<stop offset="0.0001" stop-color="#057189"/>
<stop offset="0.588542" stop-color="#15CEF9"/>
<stop offset="1" stop-color="#0797B7"/>
</linearGradient>
<linearGradient id="paint8_linear_140_915" x1="1244.64" y1="769.001" x2="1365.02" y2="769.001" gradientUnits="userSpaceOnUse">
<stop stop-color="#028BCB"/>
<stop offset="0.0001" stop-color="#057189"/>
<stop offset="0.588442" stop-color="#15CEF9"/>
<stop offset="0.588542" stop-color="#25A7C4"/>
<stop offset="1" stop-color="#0797B7"/>
</linearGradient>
<radialGradient id="paint9_diamond_140_915" cx="0" cy="0" r="1" gradientUnits="userSpaceOnUse" gradientTransform="translate(380.641 750.341) rotate(90) scale(6.67289 7.40675)">
<stop stop-color="white"/>
<stop offset="0.5" stop-color="#93E5F7"/>
<stop offset="1" stop-color="#25A7C4"/>
</radialGradient>
<radialGradient id="paint10_diamond_140_915" cx="0" cy="0" r="1" gradientUnits="userSpaceOnUse" gradientTransform="translate(1295.88 798.341) rotate(90) scale(6.67289 7.40675)">
<stop stop-color="white"/>
<stop offset="0.5" stop-color="#93E5F7"/>
<stop offset="1" stop-color="#25A7C4"/>
</radialGradient>
<radialGradient id="paint11_diamond_140_915" cx="0" cy="0" r="1" gradientUnits="userSpaceOnUse" gradientTransform="translate(1328.59 737.005) rotate(90) scale(6.67289 7.40675)">
<stop stop-color="white"/>
<stop offset="0.5" stop-color="#93E5F7"/>
<stop offset="1" stop-color="#25A7C4"/>
</radialGradient>
<radialGradient id="paint12_diamond_140_915" cx="0" cy="0" r="1" gradientUnits="userSpaceOnUse" gradientTransform="translate(440.174 786.341) rotate(90) scale(6.67289 7.40675)">
<stop stop-color="white"/>
<stop offset="0.5" stop-color="#93E5F7"/>
<stop offset="1" stop-color="#25A7C4"/>
</radialGradient>
<radialGradient id="paint13_diamond_140_915" cx="0" cy="0" r="1" gradientUnits="userSpaceOnUse" gradientTransform="translate(427.09 737.005) rotate(90) scale(6.67289 7.40675)">
<stop stop-color="white"/>
<stop offset="0.5" stop-color="#93E5F7"/>
<stop offset="1" stop-color="#25A7C4"/>
</radialGradient>
</defs>
</svg>
