<svg width="1700" height="1700" viewBox="0 0 1700 1700" fill="none" xmlns="http://www.w3.org/2000/svg">
<path d="M1027.14 607.399V587.68V576.674M1027.14 607.399L1021.63 602.584L988.568 581.489L1027.14 576.674M1027.14 607.399L1027.96 613.131M1027.14 576.674L1011.16 564.751L997.934 552.14L984.436 540.217L978.651 521.874L974.794 502.155L978.651 482.436L984.436 463.634L997.934 451.252L1011.16 440.705L1027.41 429.699L1046.42 426.26H1079.2H1091.87L1112.81 431.992L1135.95 440.705L1156.06 451.252L1165.98 459.278L1183.06 471.889L1195.73 486.334L1207.85 502.155L1217.77 515.683L1226.58 531.963L1235.12 552.14L1240.36 564.751L1246.14 584.241L1250 613.131V657.384L1246.14 680.084L1240.36 699.115L1230.99 716.541L1220.25 733.738L1205.1 751.164L1195.18 761.711L1180.3 776.615L1162.4 787.621L1146.14 795.646L1121.9 802.067H1088.02L1066.53 792.895L1051.1 785.099L1039.53 772.259L1027.14 758.272L1018.04 745.203L1011.16 730.987L1007.58 718.834V695.217L1018.04 677.791M1027.96 613.131L1030.17 628.494L1034.85 647.754L1033.21 650.735M1027.96 613.131L954.684 573.693L935.5 567.5L922.728 559.707L899 540.217M1033.21 650.735L1021.63 671.83L1018.04 677.791M1033.21 650.735L1018.04 639.5M1018.04 639.5L1003.17 635.373L941.185 609.692M1018.04 639.5L1010.33 647.754M941.185 609.692L1003.17 647.754L1013.91 657.384L1021.63 662.658L1018.04 677.791M941.185 609.692L954.684 616.571L964.326 626.201M941.185 609.692L930.992 602.584L916.943 597.31L904.822 589.744M995.12 654.633L989.945 661.282L981.957 669.078L977.273 680.543L973.968 688.339L970.386 700.95V725.025V741.305L973.968 754.603L978.651 771.112L982.783 785.099L989.395 805.047L996.282 818.805L1003.44 839.212L1011.43 860.765L1014.46 877.044L1018.87 892.636L1024.93 916.253L1026.86 934.826L1031.54 963.487L1032.65 987.333V1007.97V1031.13V1051.53V1076.76L1029.06 1094.64L1026.58 1112.07L1021.9 1132.93L1014.46 1159.07L1008.4 1185.67L1002.89 1205.16L990.772 1229.69L982.507 1245.97L970.111 1270.05L955.786 1280.6L970.111 1286.1L982.507 1295.73L990.772 1303.3L999.036 1312.7L1004.55 1323.93L1008.68 1337.92V1354.2L1004.55 1368.87L999.036 1382.86L988.293 1400.06L970.111 1418.4L950.001 1431.47L933.472 1442.47L910.331 1450.27L888.017 1459.67L872.866 1469.3L863.775 1479.39L856.888 1491.08" stroke="url(#paint0_linear_140_919)" stroke-width="20" stroke-linecap="round"/>
<path d="M672.038 675.727L724.655 645.002L755.509 635.142L791.5 616" stroke="url(#paint1_linear_140_919)" stroke-width="15" stroke-linecap="round"/>
<path d="M787.382 822.702C787.382 828.225 791.859 832.702 797.382 832.702C802.905 832.702 807.382 828.225 807.382 822.702H787.382ZM836 635L845.999 635.167L846.212 622.399L833.765 625.253L836 635ZM822.645 835.834C822.553 841.356 826.955 845.907 832.477 845.999C837.999 846.092 842.55 841.69 842.642 836.168L822.645 835.834ZM769.283 650.276L767.055 640.527L765.242 640.941L763.698 641.98L769.283 650.276ZM750.55 662.887L755.425 671.618L755.789 671.415L756.134 671.182L750.55 662.887ZM728.787 675.039L723.912 666.308L723.264 666.669L722.677 667.122L728.787 675.039ZM677.223 702.204C672.85 705.578 672.042 711.858 675.416 716.23C678.79 720.602 685.07 721.411 689.442 718.037L677.223 702.204ZM748.071 675.039L757.057 670.653L755.959 668.403L753.931 666.936L748.071 675.039ZM755.233 689.713L764.996 687.548L764.739 686.392L764.22 685.327L755.233 689.713ZM758.539 704.617L768.426 703.116L768.375 702.782L768.302 702.452L758.539 704.617ZM761.569 724.566H771.569V723.81L771.456 723.064L761.569 724.566ZM761.569 744.285L771.409 746.066L771.569 745.183V744.285H761.569ZM758.539 761.023L768.322 763.097L768.352 762.951L768.379 762.804L758.539 761.023ZM755.233 776.615L764.752 779.68L764.909 779.191L765.016 778.689L755.233 776.615ZM748.071 798.856L757.318 802.663L757.468 802.297L757.589 801.921L748.071 798.856ZM739.668 819.263L748.723 823.506L748.824 823.29L748.915 823.07L739.668 819.263ZM729.889 840.128L738.763 844.738L738.857 844.557L738.944 844.372L729.889 840.128ZM721.073 857.095L712.2 852.485L712.06 852.754L711.937 853.03L721.073 857.095ZM712.809 875.668L703.673 871.602L703.468 872.062L703.311 872.539L712.809 875.668ZM703.443 904.1L712.926 907.273L712.933 907.251L712.94 907.229L703.443 904.1ZM697.382 922.214L706.734 925.754L706.803 925.572L706.865 925.387L697.382 922.214ZM691.046 938.952L681.694 935.412L681.432 936.104L681.274 936.827L691.046 938.952ZM685.261 965.55L675.489 963.424L675.449 963.607L675.417 963.792L685.261 965.55ZM679.2 999.485L669.356 997.727L669.27 998.207L669.231 998.694L679.2 999.485ZM677.272 1023.79L667.303 1023L667.272 1023.39V1023.79H677.272ZM677.272 1094.64H667.272V1095.16L667.325 1095.67L677.272 1094.64ZM683.057 1132.7L692.928 1131.1L692.9 1130.93L692.867 1130.76L683.057 1132.7ZM689.118 1170.08L679.246 1171.68L679.354 1172.34L679.551 1172.99L689.118 1170.08ZM699.861 1205.39L690.294 1208.3L690.499 1208.97L690.796 1209.61L699.861 1205.39ZM708.401 1223.73L699.336 1227.95L699.392 1228.07L699.452 1228.19L708.401 1223.73ZM720.522 1248.04L729.611 1243.86L729.544 1243.72L729.471 1243.57L720.522 1248.04ZM735.674 1281.05L726.585 1285.22L730.488 1293.73L739.232 1290.4L735.674 1281.05ZM761.569 1271.19L759.857 1261.34L758.91 1261.51L758.011 1261.85L761.569 1271.19ZM786.638 1266.84L785.293 1256.93L785.109 1256.95L784.926 1256.98L786.638 1266.84ZM811.982 1263.4V1253.4H811.307L810.638 1253.49L811.982 1263.4ZM888.015 1263.4L889.469 1253.5L888.746 1253.4H888.015V1263.4ZM911.431 1266.84L913.729 1257.1L913.31 1257.01L912.885 1256.94L911.431 1266.84ZM929.889 1271.19L933.218 1261.76L932.71 1261.58L932.186 1261.46L929.889 1271.19ZM948.071 1277.61L944.741 1287.04L949.636 1288.77L953.867 1285.76L948.071 1277.61ZM963.222 1266.84L969.018 1274.99L971.065 1273.53L972.181 1271.28L963.222 1266.84ZM970.385 1252.39L961.761 1247.33L961.582 1247.63L961.425 1247.95L970.385 1252.39ZM982.23 1232.21L990.854 1237.28L991.117 1236.83L991.332 1236.36L982.23 1232.21ZM989.117 1217.08L998.219 1221.22L998.245 1221.17L998.271 1221.11L989.117 1217.08ZM996.28 1200.8L1005.43 1204.83L1005.66 1204.32L1005.82 1203.8L996.28 1200.8ZM1002.62 1180.62L1012.16 1183.62L1012.27 1183.24L1012.36 1182.86L1002.62 1180.62ZM1008.4 1155.4L998.796 1152.62L998.717 1152.89L998.654 1153.17L1008.4 1155.4ZM1013.91 1136.37L1023.52 1139.15L1023.66 1138.65L1023.75 1138.13L1013.91 1136.37ZM1018.87 1108.63L1028.71 1110.39L1028.79 1109.94L1028.83 1109.49L1018.87 1108.63ZM1021.07 1083.18L1031.04 1084.04L1031.07 1083.61V1083.18H1021.07ZM1021.07 991.23H1031.07V990.731L1031.02 990.234L1021.07 991.23ZM1018.87 969.218L1028.82 968.222L1028.8 968.009L1028.77 967.796L1018.87 969.218ZM1015.84 948.124L1025.74 946.702L1025.68 946.284L1025.58 945.873L1015.84 948.124ZM1011.71 930.239L1001.9 932.202L1001.93 932.347L1001.96 932.49L1011.71 930.239ZM1006.47 904.1L1016.28 902.137L1016.18 901.627L1016.02 901.131L1006.47 904.1ZM1000.41 884.61L1009.96 881.641L1009.87 881.362L1009.77 881.088L1000.41 884.61ZM993.25 865.579L1002.61 862.057L1002.58 861.978L1002.55 861.899L993.25 865.579ZM985.536 846.089L976.028 849.187L976.124 849.482L976.238 849.769L985.536 846.089ZM981.128 832.561L990.636 829.463L990.415 828.783L990.098 828.14L981.128 832.561ZM972.313 814.677L981.283 810.256L981.261 810.212L981.239 810.169L972.313 814.677ZM964.324 798.856L955.146 802.826L955.264 803.098L955.398 803.363L964.324 798.856ZM949.448 764.462L939.871 767.339L940.038 767.897L940.27 768.432L949.448 764.462ZM945.04 749.788L954.618 746.911L954.564 746.734L954.505 746.559L945.04 749.788ZM938.704 731.215L928.73 731.936L928.823 733.223L929.24 734.444L938.704 731.215ZM936.5 700.719H926.5V701.08L926.526 701.44L936.5 700.719ZM936.5 675.039L926.868 672.35L926.5 673.669V675.039H936.5ZM942.836 652.339L934.738 646.472L933.687 647.924L933.205 649.651L942.836 652.339ZM960.598 644.868L966.465 636.77L950.269 625.036L944.402 633.134L960.598 644.868ZM714.462 708.057L723.332 703.439L723.292 703.362L723.25 703.286L714.462 708.057ZM721.624 721.814L731.423 719.819L731.143 718.442L730.494 717.196L721.624 721.814ZM724.379 735.342H734.379V734.334L734.178 733.347L724.379 735.342ZM724.379 781.888L733.892 784.97L734.379 783.468V781.888H724.379ZM717.768 802.295L708.254 799.213L708.161 799.5L708.086 799.792L717.768 802.295ZM713.084 820.409L722.397 824.052L722.616 823.493L722.766 822.912L713.084 820.409ZM705.371 840.128L714.584 844.017L714.635 843.895L714.684 843.771L705.371 840.128ZM698.208 857.095L688.996 853.206L688.874 853.494L688.771 853.788L698.208 857.095ZM690.495 879.107L681.058 875.8L680.951 876.104L680.864 876.414L690.495 879.107ZM683.057 905.705L673.426 903.012L673.37 903.215L673.322 903.419L683.057 905.705ZM678.374 925.653L668.638 923.368L668.635 923.381L668.632 923.395L678.374 925.653ZM672.313 951.792L662.572 949.534L662.467 949.985L662.404 950.445L672.313 951.792ZM669.007 976.097L659.099 974.749L659.056 975.064L659.033 975.382L669.007 976.097ZM666.803 1006.82L656.829 1006.11L656.803 1006.46V1006.82H666.803ZM666.803 1072.63H656.803V1073.14L656.855 1073.65L666.803 1072.63ZM670.109 1104.96L660.161 1105.98L660.195 1106.31L660.251 1106.64L670.109 1104.96ZM675.619 1137.29L685.491 1135.69L685.484 1135.65L685.477 1135.61L675.619 1137.29ZM680.578 1168.01L670.705 1169.61L670.806 1170.23L670.986 1170.84L680.578 1168.01ZM691.597 1205.39L682.005 1208.22L682.214 1208.92L682.526 1209.6L691.597 1205.39ZM702.341 1228.55L693.269 1232.75L693.302 1232.83L693.336 1232.9L702.341 1228.55ZM713.084 1250.79L704.08 1255.14L704.135 1255.25L704.194 1255.36L713.084 1250.79ZM730.44 1284.49L736.139 1292.71L743.345 1287.71L739.33 1279.91L730.44 1284.49ZM720.522 1291.37L726.176 1299.62L726.199 1299.6L726.222 1299.59L720.522 1291.37ZM711.156 1297.79L705.502 1289.54L704.704 1290.09L704.025 1290.78L711.156 1297.79ZM703.718 1305.36L696.587 1298.35L696.333 1298.61L696.098 1298.88L703.718 1305.36ZM695.729 1314.76L688.109 1308.28L687.355 1309.17L686.825 1310.21L695.729 1314.76ZM690.219 1325.54L681.316 1320.98L681.075 1321.45L680.886 1321.95L690.219 1325.54ZM685.812 1337L676.478 1333.41L675.812 1335.14V1337H685.812ZM685.812 1356.26H675.812V1357.68L676.205 1359.04L685.812 1356.26ZM689.393 1368.64L679.787 1371.42L680.075 1372.42L680.562 1373.33L689.393 1368.64ZM695.729 1380.57L686.899 1385.26L687.128 1385.69L687.398 1386.1L695.729 1380.57ZM707.299 1397.99L698.968 1403.52L699.576 1404.44L700.367 1405.2L707.299 1397.99ZM719.696 1409.91L726.738 1402.81L726.683 1402.76L726.628 1402.71L719.696 1409.91ZM732.644 1422.75L725.602 1429.86L726.262 1430.51L727.031 1431.03L732.644 1422.75ZM747.52 1432.84L741.907 1441.12L742.388 1441.45L742.905 1441.71L747.52 1432.84ZM765.151 1442.01L760.536 1450.89L760.729 1450.99L760.926 1451.08L765.151 1442.01ZM778.925 1448.44L774.7 1457.5L775.049 1457.66L775.41 1457.8L778.925 1448.44ZM792.974 1453.71L798.422 1445.32L797.508 1444.73L796.488 1444.35L792.974 1453.71ZM804.269 1461.05L798.821 1469.43L798.86 1469.46L798.899 1469.48L804.269 1461.05ZM813.635 1467.01L820.145 1459.42L819.605 1458.95L819.005 1458.57L813.635 1467.01ZM822.726 1474.8L830.787 1468.89L830.107 1467.96L829.236 1467.21L822.726 1474.8ZM828.787 1483.06L838.07 1479.34L837.598 1478.16L836.847 1477.14L828.787 1483.06ZM823.085 1495.72C825.138 1500.85 830.959 1503.34 836.086 1501.28C841.213 1499.23 843.705 1493.41 841.651 1488.28L823.085 1495.72ZM679.2 1113.21L669.254 1114.25L669.301 1114.7L669.39 1115.15L679.2 1113.21ZM787.382 643.855V822.702H807.382V643.855H787.382ZM799.617 653.602L838.235 644.747L833.765 625.253L795.147 634.108L799.617 653.602ZM826.001 634.833L822.645 835.834L842.642 836.168L845.999 635.167L826.001 634.833ZM795.155 634.107L767.055 640.527L771.51 660.024L799.609 653.604L795.155 634.107ZM763.698 641.98L744.966 654.591L756.134 671.182L774.867 658.571L763.698 641.98ZM745.675 654.155L734.793 660.232L744.544 677.694L755.425 671.618L745.675 654.155ZM734.793 660.232L723.912 666.308L733.662 683.77L744.544 677.694L734.793 660.232ZM733.809 677.066L742.211 683.142L753.931 666.936L745.528 660.86L733.809 677.066ZM739.084 679.425L746.247 694.1L764.22 685.327L757.057 670.653L739.084 679.425ZM745.47 691.879L748.776 706.783L768.302 702.452L764.996 687.548L745.47 691.879ZM748.652 706.119L751.683 726.067L771.456 723.064L768.426 703.116L748.652 706.119ZM751.569 724.566V744.285H771.569V724.566H751.569ZM751.729 742.503L748.699 759.241L768.379 762.804L771.409 746.066L751.729 742.503ZM748.756 758.949L745.451 774.54L765.016 778.689L768.322 763.097L748.756 758.949ZM745.715 773.549L738.552 795.79L757.589 801.921L764.752 779.68L745.715 773.549ZM738.824 795.048L730.422 815.455L748.915 823.07L757.318 802.663L738.824 795.048ZM730.614 815.019L720.834 835.884L738.944 844.372L748.723 823.506L730.614 815.019ZM721.015 835.518L712.2 852.485L729.947 861.706L738.763 844.738L721.015 835.518ZM711.937 853.03L703.673 871.602L721.945 879.733L730.21 861.161L711.937 853.03ZM703.311 872.539L693.945 900.971L712.94 907.229L722.307 878.797L703.311 872.539ZM693.959 900.927L687.899 919.041L706.865 925.387L712.926 907.273L693.959 900.927ZM688.03 918.674L681.694 935.412L700.398 942.492L706.734 925.754L688.03 918.674ZM681.274 936.827L675.489 963.424L695.032 967.675L700.817 941.077L681.274 936.827ZM675.417 963.792L669.356 997.727L689.044 1001.24L695.105 967.308L675.417 963.792ZM669.231 998.694L667.303 1023L687.24 1024.58L689.169 1000.28L669.231 998.694ZM667.272 1023.79V1060.48H687.272V1023.79H667.272ZM667.272 1060.48V1094.64H687.272V1060.48H667.272ZM673.186 1134.3L679.246 1171.68L698.989 1168.48L692.928 1131.1L673.186 1134.3ZM679.551 1172.99L690.294 1208.3L709.428 1202.48L698.684 1167.17L679.551 1172.99ZM690.796 1209.61L699.336 1227.95L717.467 1219.51L708.927 1201.17L690.796 1209.61ZM699.452 1228.19L711.574 1252.5L729.471 1243.57L717.35 1219.27L699.452 1228.19ZM711.434 1252.21L726.585 1285.22L744.763 1276.88L729.611 1243.86L711.434 1252.21ZM739.232 1290.4L765.128 1280.54L758.011 1261.85L732.116 1271.71L739.232 1290.4ZM763.281 1281.05L788.35 1276.69L784.926 1256.98L759.857 1261.34L763.281 1281.05ZM787.983 1276.75L813.327 1273.31L810.638 1253.49L785.293 1256.93L787.983 1276.75ZM811.982 1273.4H872.038V1253.4H811.982V1273.4ZM872.038 1273.4H888.015V1253.4H872.038V1273.4ZM886.562 1273.29L909.978 1276.73L912.885 1256.94L889.469 1253.5L886.562 1273.29ZM909.134 1276.57L927.592 1280.93L932.186 1261.46L913.729 1257.1L909.134 1276.57ZM926.559 1280.62L944.741 1287.04L951.4 1268.18L933.218 1261.76L926.559 1280.62ZM953.867 1285.76L969.018 1274.99L957.426 1258.69L942.275 1269.46L953.867 1285.76ZM972.181 1271.28L979.344 1256.83L961.425 1247.95L954.263 1262.39L972.181 1271.28ZM979.008 1257.45L990.854 1237.28L973.607 1227.15L961.761 1247.33L979.008 1257.45ZM991.332 1236.36L998.219 1221.22L980.016 1212.94L973.129 1228.07L991.332 1236.36ZM998.271 1221.11L1005.43 1204.83L987.127 1196.77L979.964 1213.05L998.271 1221.11ZM1005.82 1203.8L1012.16 1183.62L993.075 1177.63L986.739 1197.81L1005.82 1203.8ZM1012.36 1182.86L1018.15 1157.64L998.654 1153.17L992.869 1178.39L1012.36 1182.86ZM1018.01 1158.18L1023.52 1139.15L1004.31 1133.59L998.796 1152.62L1018.01 1158.18ZM1023.75 1138.13L1028.71 1110.39L1009.03 1106.87L1004.07 1134.61L1023.75 1138.13ZM1028.83 1109.49L1031.04 1084.04L1011.11 1082.31L1008.91 1107.76L1028.83 1109.49ZM1031.07 1083.18V1060.48H1011.07V1083.18H1031.07ZM1031.07 1060.48V1034.11H1011.07V1060.48H1031.07ZM1031.07 1034.11V1014.85H1011.07V1034.11H1031.07ZM1031.07 1014.85V991.23H1011.07V1014.85H1031.07ZM1031.02 990.234L1028.82 968.222L1008.92 970.215L1011.12 992.226L1031.02 990.234ZM1028.77 967.796L1025.74 946.702L1005.94 949.546L1008.97 970.64L1028.77 967.796ZM1025.58 945.873L1021.45 927.988L1001.96 932.49L1006.1 950.375L1025.58 945.873ZM1021.51 928.276L1016.28 902.137L996.667 906.063L1001.9 932.202L1021.51 928.276ZM1016.02 901.131L1009.96 881.641L990.863 887.58L996.924 907.069L1016.02 901.131ZM1009.77 881.088L1002.61 862.057L983.891 869.102L991.053 888.133L1009.77 881.088ZM1002.55 861.899L994.834 842.409L976.238 849.769L983.951 869.259L1002.55 861.899ZM995.044 842.992L990.636 829.463L971.62 835.659L976.028 849.187L995.044 842.992ZM990.098 828.14L981.283 810.256L963.343 819.098L972.159 836.983L990.098 828.14ZM981.239 810.169L973.251 794.348L955.398 803.363L963.386 819.184L981.239 810.169ZM973.502 794.886L966.064 777.689L947.708 785.629L955.146 802.826L973.502 794.886ZM966.064 777.689L958.626 760.492L940.27 768.432L947.708 785.629L966.064 777.689ZM959.025 761.585L954.618 746.911L935.463 752.664L939.871 767.339L959.025 761.585ZM954.505 746.559L948.169 727.986L929.24 734.444L935.576 753.016L954.505 746.559ZM948.678 730.494L946.474 699.999L926.526 701.44L928.73 731.936L948.678 730.494ZM946.5 700.719V675.039H926.5V700.719H946.5ZM946.132 677.727L952.468 655.028L933.205 649.651L926.868 672.35L946.132 677.727ZM950.934 658.206L960.598 644.868L944.402 633.134L934.738 646.472L950.934 658.206ZM722.677 667.122L699.95 684.663L712.169 700.496L734.897 682.955L722.677 667.122ZM699.95 684.663L677.223 702.204L689.442 718.037L712.169 700.496L699.95 684.663ZM697.271 697.351L705.673 712.828L723.25 703.286L714.848 687.809L697.271 697.351ZM705.592 712.675L712.755 726.432L730.494 717.196L723.332 703.439L705.592 712.675ZM711.825 723.81L714.58 737.338L734.178 733.347L731.423 719.819L711.825 723.81ZM714.379 735.342V762.628H734.379V735.342H714.379ZM714.379 762.628V781.888H734.379V762.628H714.379ZM714.866 778.806L708.254 799.213L727.281 805.377L733.892 784.97L714.866 778.806ZM708.086 799.792L703.403 817.906L722.766 822.912L727.449 804.798L708.086 799.792ZM703.772 816.766L696.058 836.485L714.684 843.771L722.397 824.052L703.772 816.766ZM696.158 836.239L688.996 853.206L707.421 860.984L714.584 844.017L696.158 836.239ZM688.771 853.788L681.058 875.8L699.932 882.414L707.646 860.402L688.771 853.788ZM680.864 876.414L673.426 903.012L692.687 908.398L700.125 881.8L680.864 876.414ZM673.322 903.419L668.638 923.368L688.109 927.939L692.792 907.991L673.322 903.419ZM668.632 923.395L662.572 949.534L682.055 954.051L688.115 927.912L668.632 923.395ZM662.404 950.445L659.099 974.749L678.916 977.445L682.222 953.14L662.404 950.445ZM659.033 975.382L656.829 1006.11L676.778 1007.54L678.982 976.813L659.033 975.382ZM656.803 1006.82V1039.61H676.803V1006.82H656.803ZM656.803 1039.61V1072.63H676.803V1039.61H656.803ZM656.855 1073.65L660.161 1105.98L680.057 1103.94L676.752 1071.61L656.855 1073.65ZM660.251 1106.64L665.761 1138.97L685.477 1135.61L679.967 1103.28L660.251 1106.64ZM665.747 1138.88L670.705 1169.61L690.45 1166.42L685.491 1135.69L665.747 1138.88ZM670.986 1170.84L682.005 1208.22L701.189 1202.56L690.169 1165.19L670.986 1170.84ZM682.526 1209.6L693.269 1232.75L711.412 1224.34L700.668 1201.18L682.526 1209.6ZM693.336 1232.9L704.08 1255.14L722.089 1246.44L711.345 1224.2L693.336 1232.9ZM704.194 1255.36L721.549 1289.07L739.33 1279.91L721.975 1246.21L704.194 1255.36ZM724.741 1276.28L714.823 1283.15L726.222 1299.59L736.139 1292.71L724.741 1276.28ZM714.869 1283.12L705.502 1289.54L716.81 1306.04L726.176 1299.62L714.869 1283.12ZM704.025 1290.78L696.587 1298.35L710.849 1312.37L718.287 1304.8L704.025 1290.78ZM696.098 1298.88L688.109 1308.28L703.349 1321.23L711.338 1311.83L696.098 1298.88ZM686.825 1310.21L681.316 1320.98L699.123 1330.09L704.633 1319.31L686.825 1310.21ZM680.886 1321.95L676.478 1333.41L695.146 1340.59L699.553 1329.12L680.886 1321.95ZM675.812 1337V1356.26H695.812V1337H675.812ZM676.205 1359.04L679.787 1371.42L698.999 1365.86L695.418 1353.48L676.205 1359.04ZM680.562 1373.33L686.899 1385.26L704.56 1375.87L698.224 1363.95L680.562 1373.33ZM687.398 1386.1L698.968 1403.52L715.63 1392.46L704.06 1375.03L687.398 1386.1ZM700.367 1405.2L712.764 1417.12L726.628 1402.71L714.231 1390.78L700.367 1405.2ZM712.654 1417.01L725.602 1429.86L739.685 1415.65L726.738 1402.81L712.654 1417.01ZM727.031 1431.03L741.907 1441.12L753.133 1424.57L738.257 1414.48L727.031 1431.03ZM742.905 1441.71L760.536 1450.89L769.765 1433.14L752.135 1423.97L742.905 1441.71ZM760.926 1451.08L774.7 1457.5L783.149 1439.37L769.375 1432.95L760.926 1451.08ZM775.41 1457.8L789.46 1463.07L796.488 1444.35L782.439 1439.07L775.41 1457.8ZM787.527 1462.09L798.821 1469.43L809.717 1452.66L798.422 1445.32L787.527 1462.09ZM798.899 1469.48L808.266 1475.44L819.005 1458.57L809.638 1452.61L798.899 1469.48ZM807.126 1474.6L816.217 1482.39L829.236 1467.21L820.145 1459.42L807.126 1474.6ZM814.666 1480.72L820.726 1488.98L836.847 1477.14L830.787 1468.89L814.666 1480.72ZM819.504 1486.78L823.085 1495.72L841.651 1488.28L838.07 1479.34L819.504 1486.78ZM667.325 1095.67L669.254 1114.25L689.147 1112.18L687.218 1093.61L667.325 1095.67ZM669.39 1115.15L673.247 1134.64L692.867 1130.76L689.01 1111.27L669.39 1115.15Z" fill="url(#paint2_linear_140_919)"/>
<path d="M798.209 390.26L794.352 591.806M794.352 591.806L770.11 599.831L742.286 603.958M794.352 591.806C786.272 594.481 764.545 600.657 742.286 603.958M742.286 603.958L684.16 606.251L692.975 599.831L709.229 588.825L716.391 578.507L721.901 568.189L724.931 556.037V541.133L721.901 517.745L716.391 503.529L707.025 493.67L697.934 481.976L687.465 476.931L676.171 471.199L660.193 466.613L640.633 464.091H618.044L599.862 466.613L584.986 471.199L565.151 479.912L551.928 487.02L540.634 493.67L529.614 501.466L515.289 514.764L505.096 526.458L495.179 535.63L483.058 553.056L474.793 569.794L465.978 588.825L460.744 606.251L453.857 622.072L450 643.626V669.306V689.942L453.857 713.559L461.295 736.488L472.59 761.251L481.129 777.531L494.077 790.371L512.259 809.402L530.716 821.784L554.132 832.331L574.518 838.752L594.628 841.503H612.534L623.278 838.752L636.501 832.331L651.377 823.389L663.774 811.466L673.967 800.46L681.405 786.932L689.945 769.277L692.424 751.392L689.945 730.068L685.813 716.54L683.609 711.266L673.967 698.197L670.386 690.63V676.873L676.997 658.988L673.967 639.269L676.997 634.913V627.346L668 619L683.609 610.378L683.609 606.251M835 603.958L804.27 610.378L785.262 616.111L762.121 622.072L734.573 625.512H713.912L706.198 628.386L676.997 639.269" stroke="url(#paint3_linear_140_919)" stroke-width="20" stroke-linecap="round"/>
<path d="M858.773 384.299C858.773 384.305 858.773 384.322 858.763 384.359C858.753 384.398 858.727 384.476 858.662 384.595C858.528 384.842 858.242 385.238 857.675 385.743C856.51 386.782 854.542 387.945 851.681 389.024C845.996 391.168 837.805 392.598 828.512 392.598C819.218 392.598 811.028 391.168 805.342 389.024C802.482 387.945 800.513 386.782 799.349 385.743C798.782 385.238 798.495 384.842 798.361 384.595C798.297 384.476 798.271 384.398 798.26 384.359C798.25 384.322 798.25 384.305 798.25 384.299C798.25 384.293 798.25 384.276 798.26 384.239C798.271 384.2 798.297 384.122 798.361 384.003C798.495 383.756 798.782 383.36 799.349 382.854C800.513 381.816 802.482 380.652 805.342 379.573C811.028 377.429 819.218 376 828.512 376C837.805 376 845.996 377.429 851.681 379.573C854.542 380.652 856.51 381.816 857.675 382.854C858.242 383.36 858.528 383.756 858.662 384.003C858.727 384.122 858.753 384.2 858.763 384.239C858.773 384.276 858.773 384.293 858.773 384.299Z" stroke="url(#paint4_linear_140_919)" stroke-width="10"/>
<path d="M841.5 834C841.5 834.627 841.199 835.465 840.144 836.481C839.082 837.504 837.414 838.54 835.149 839.463C830.63 841.304 824.214 842.5 817 842.5C809.786 842.5 803.37 841.304 798.851 839.463C796.586 838.54 794.918 837.504 793.856 836.481C792.801 835.465 792.5 834.627 792.5 834C792.5 833.373 792.801 832.535 793.856 831.519C794.918 830.496 796.586 829.46 798.851 828.537C803.37 826.696 809.786 825.5 817 825.5C824.214 825.5 830.63 826.696 835.149 828.537C837.414 829.46 839.082 830.496 840.144 831.519C841.199 832.535 841.5 833.373 841.5 834Z" stroke="url(#paint5_linear_140_919)" stroke-width="5"/>
<path d="M835 402L839 649" stroke="url(#paint6_linear_140_919)" stroke-width="15" stroke-linecap="round"/>
<path d="M897.383 415.482L891.5 828" stroke="url(#paint7_linear_140_919)" stroke-width="15" stroke-linecap="round"/>
<path d="M895.638 415.482C895.638 415.58 895.602 416.203 894.372 417.3C893.145 418.394 891.115 419.584 888.222 420.676C882.467 422.846 874.214 424.281 864.876 424.281C855.538 424.281 847.285 422.846 841.53 420.676C838.636 419.584 836.606 418.394 835.38 417.3C834.15 416.203 834.114 415.58 834.114 415.482C834.114 415.385 834.15 414.761 835.38 413.665C836.606 412.571 838.636 411.381 841.53 410.289C847.285 408.119 855.538 406.684 864.876 406.684C874.214 406.684 882.467 408.119 888.222 410.289C891.115 411.381 893.145 412.571 894.372 413.665C895.602 414.761 895.638 415.385 895.638 415.482Z" stroke="url(#paint8_linear_140_919)" stroke-width="9"/>
<path d="M894.023 836.299C894.023 837.169 893.565 838.293 892.089 839.609C890.614 840.924 888.339 842.222 885.313 843.363C879.28 845.639 870.777 847.098 861.262 847.098C851.746 847.098 843.243 845.639 837.21 843.363C834.184 842.222 831.909 840.924 830.435 839.609C828.958 838.293 828.5 837.169 828.5 836.299C828.5 835.429 828.958 834.305 830.435 832.988C831.909 831.674 834.184 830.375 837.21 829.234C843.243 826.959 851.746 825.5 861.262 825.5C870.777 825.5 879.28 826.959 885.313 829.234C888.339 830.375 890.614 831.674 892.089 832.988C893.565 834.305 894.023 835.429 894.023 836.299Z" stroke="url(#paint9_linear_140_919)" stroke-width="5"/>
<path d="M638.705 533.794V480.5L703 516L677.272 529.553M638.705 533.794L546.418 508V558.328M638.705 533.794L677.272 529.553M546.418 558.328L496.5 555M546.418 558.328L607.988 623.447M546.418 558.328L634.848 537.234L621.418 580.34L607.988 623.447M546.418 558.328L511.501 597.63M657.113 689L607.988 623.447M657.113 689L626.259 734.653M657.113 689L540.943 667.918M607.988 623.447L540.943 667.918M684.5 591.5L677.272 529.553M626.259 734.653L657.113 785.784L602.066 763.887L605 830L565.426 783.033M626.259 734.653L575.344 693.38L570.385 738.207M565.426 783.033L570.385 738.207M565.426 783.033V819L481.5 746.5M570.385 738.207L481.5 743.5M570.385 738.207L540.943 667.918M465.5 632.5L481.5 743.5M481.5 743.5L535 667.918L468.5 629L511.501 597.63M511.501 597.63L540.943 667.918" stroke="url(#paint10_linear_140_919)" stroke-width="10" stroke-linecap="square"/>
<path d="M1097.93 722.503L1087 781.5L1030 722.503H1058.5M1097.93 722.503L1171.21 761L1190.22 697.969M1097.93 722.503H1058.5M1190.22 697.969L1216.5 715.5M1190.22 697.969L1128.65 632.851M1190.22 697.969L1101.79 719.064L1115.22 675.957M1190.22 697.969L1238 648L1195.7 588.379M1042.5 570.5L1128.65 632.851M1042.5 570.5L1097.93 511.556M1042.5 570.5L1195.7 588.379M1128.65 632.851L1115.22 675.957M1128.65 632.851L1195.7 588.379M1115.22 675.957L1050 651.5L1058.5 722.503M1097.93 511.556L991 475.5L1134.57 492.41M1097.93 511.556L1191.98 579.5M1097.93 511.556L1134.57 492.41M1134.57 492.41L1161.5 475.5L1176.5 511.556L1195.7 588.379M1134.57 492.41L1090 440M1229 575L1195.7 588.379" stroke="url(#paint11_linear_140_919)" stroke-width="10" stroke-linecap="square"/>
<path d="M759.5 1286.5L777.824 1321.41M777.824 1321.41L708 1341L789.669 1384.92M777.824 1321.41L800 1281M777.824 1321.41L789.669 1382.63M789.669 1384.92L780 1429.5L862.948 1411.52M789.669 1384.92L862.948 1411.52M862.948 1411.52L854 1486M862.948 1411.52L927 1429.5M927 1429.5L893.526 1347.55M927 1429.5L991.873 1310.86M893.526 1347.55L861.855 1411.12M893.526 1347.55L862.948 1297.79M893.526 1347.55L991.873 1310.86M861.855 1411.12L862.948 1297.79M861.855 1411.12L800 1281M862.948 1297.79L800 1281M862.948 1297.79L991.873 1310.86" stroke="url(#paint12_linear_140_919)" stroke-width="10" stroke-linecap="square"/>
<ellipse cx="631.212" cy="533.571" rx="9.31185" ry="8.03039" fill="url(#paint13_diamond_140_919)"/>
<ellipse cx="566.75" cy="734.429" rx="9.31185" ry="8.03039" fill="url(#paint14_diamond_140_919)"/>
<ellipse cx="511.654" cy="602.818" rx="9.31185" ry="8.03039" fill="url(#paint15_diamond_140_919)"/>
<ellipse cx="640.578" cy="746.812" rx="9.31185" ry="8.03039" fill="url(#paint16_diamond_140_919)"/>
<ellipse cx="608.072" cy="623.913" rx="9.31185" ry="8.03039" fill="url(#paint17_diamond_140_919)"/>
<ellipse cx="479.312" cy="747.03" rx="9.31185" ry="8.03039" fill="url(#paint18_diamond_140_919)"/>
<ellipse cx="1097.33" cy="514.769" rx="9.31185" ry="8.03039" fill="url(#paint19_diamond_140_919)"/>
<ellipse cx="1129.84" cy="632.167" rx="9.31185" ry="8.03039" fill="url(#paint20_diamond_140_919)"/>
<ellipse cx="1097.33" cy="719.755" rx="9.31185" ry="8.03039" fill="url(#paint21_diamond_140_919)"/>
<ellipse cx="1188.79" cy="697.743" rx="9.31185" ry="8.03039" fill="url(#paint22_diamond_140_919)"/>
<ellipse cx="1198.15" cy="589.519" rx="9.31185" ry="8.03039" fill="url(#paint23_diamond_140_919)"/>
<ellipse cx="1129.84" cy="490.007" rx="9.31185" ry="8.03039" fill="url(#paint24_diamond_140_919)"/>
<ellipse cx="789.89" cy="1384.7" rx="9.31185" ry="8.03039" fill="url(#paint25_diamond_140_919)"/>
<ellipse cx="893.471" cy="1346.18" rx="9.31185" ry="8.03039" fill="url(#paint26_diamond_140_919)"/>
<ellipse cx="771.158" cy="1321.41" rx="9.31185" ry="8.03039" fill="url(#paint27_diamond_140_919)"/>
<ellipse cx="860.965" cy="1297.11" rx="9.31185" ry="8.03039" fill="url(#paint28_diamond_140_919)"/>
<ellipse cx="860.965" cy="1412.67" rx="9.31185" ry="8.03039" fill="url(#paint29_diamond_140_919)"/>
<circle cx="850" cy="850" r="849.5" stroke="white"/>
<defs>
<linearGradient id="paint0_linear_140_919" x1="918.552" y1="413.434" x2="918.552" y2="802.067" gradientUnits="userSpaceOnUse">
<stop stop-color="#057189"/>
<stop offset="0.5" stop-color="#15CEF9"/>
<stop offset="1" stop-color="#0797B7"/>
</linearGradient>
<linearGradient id="paint1_linear_140_919" x1="681.651" y1="600.799" x2="681.651" y2="675.727" gradientUnits="userSpaceOnUse">
<stop stop-color="#057189"/>
<stop offset="0.520833" stop-color="#15CEF9"/>
<stop offset="1" stop-color="#0797B7"/>
</linearGradient>
<linearGradient id="paint2_linear_140_919" x1="800.891" y1="608.843" x2="800.891" y2="836" gradientUnits="userSpaceOnUse">
<stop stop-color="#057189"/>
<stop offset="0.510417" stop-color="#15CEF9"/>
<stop offset="1" stop-color="#0797B7"/>
</linearGradient>
<linearGradient id="paint3_linear_140_919" x1="793.512" y1="383.483" x2="793.512" y2="588.825" gradientUnits="userSpaceOnUse">
<stop stop-color="#0797B7"/>
<stop offset="0.541667" stop-color="#15CEF9"/>
<stop offset="1" stop-color="#0797B7"/>
</linearGradient>
<linearGradient id="paint4_linear_140_919" x1="828.512" y1="371" x2="828.512" y2="397.598" gradientUnits="userSpaceOnUse">
<stop stop-color="#057189"/>
<stop offset="0.5" stop-color="#15CEF9"/>
<stop offset="1" stop-color="#0797B7"/>
</linearGradient>
<linearGradient id="paint5_linear_140_919" x1="817" y1="823" x2="817" y2="845" gradientUnits="userSpaceOnUse">
<stop stop-color="#057189"/>
<stop offset="0.5" stop-color="#15CEF9"/>
<stop offset="1" stop-color="#0797B7"/>
</linearGradient>
<linearGradient id="paint6_linear_140_919" x1="835.211" y1="393.57" x2="835.211" y2="649" gradientUnits="userSpaceOnUse">
<stop stop-color="#057189"/>
<stop offset="0.520833" stop-color="#15CEF9"/>
<stop offset="1" stop-color="#0797B7"/>
</linearGradient>
<linearGradient id="paint7_linear_140_919" x1="897.528" y1="410.646" x2="897.528" y2="557.184" gradientUnits="userSpaceOnUse">
<stop stop-color="#057189"/>
<stop offset="0.520833" stop-color="#15CEF9"/>
<stop offset="1" stop-color="#0797B7"/>
</linearGradient>
<linearGradient id="paint8_linear_140_919" x1="864.876" y1="402.184" x2="864.876" y2="428.781" gradientUnits="userSpaceOnUse">
<stop stop-color="#057189"/>
<stop offset="0.484375" stop-color="#15CEF9"/>
<stop offset="1" stop-color="#0797B7"/>
</linearGradient>
<linearGradient id="paint9_linear_140_919" x1="861.262" y1="823" x2="861.262" y2="849.598" gradientUnits="userSpaceOnUse">
<stop stop-color="#057189"/>
<stop offset="0.484375" stop-color="#15CEF9"/>
<stop offset="1" stop-color="#0797B7"/>
</linearGradient>
<linearGradient id="paint10_linear_140_919" x1="471.56" y1="454.379" x2="471.56" y2="838.981" gradientUnits="userSpaceOnUse">
<stop stop-color="#057189"/>
<stop offset="0.520833" stop-color="#15CEF9"/>
<stop offset="1" stop-color="#0797B7"/>
</linearGradient>
<linearGradient id="paint11_linear_140_919" x1="1265.08" y1="801.92" x2="1265.08" y2="417.318" gradientUnits="userSpaceOnUse">
<stop stop-color="#057189"/>
<stop offset="0.46875" stop-color="#15CEF9"/>
<stop offset="1" stop-color="#0797B7"/>
</linearGradient>
<linearGradient id="paint12_linear_140_919" x1="706.619" y1="1263.93" x2="706.619" y2="1490.85" gradientUnits="userSpaceOnUse">
<stop stop-color="#057189"/>
<stop offset="0.479167" stop-color="#15CEF9"/>
<stop offset="1" stop-color="#0797B7"/>
</linearGradient>
<radialGradient id="paint13_diamond_140_919" cx="0" cy="0" r="1" gradientUnits="userSpaceOnUse" gradientTransform="translate(631.212 533.571) rotate(90) scale(8.03039 9.31185)">
<stop stop-color="white"/>
<stop offset="0.5" stop-color="#93E5F7"/>
<stop offset="1" stop-color="#25A7C4"/>
</radialGradient>
<radialGradient id="paint14_diamond_140_919" cx="0" cy="0" r="1" gradientUnits="userSpaceOnUse" gradientTransform="translate(566.75 734.429) rotate(90) scale(8.03039 9.31185)">
<stop stop-color="white"/>
<stop offset="0.5" stop-color="#93E5F7"/>
<stop offset="1" stop-color="#25A7C4"/>
</radialGradient>
<radialGradient id="paint15_diamond_140_919" cx="0" cy="0" r="1" gradientUnits="userSpaceOnUse" gradientTransform="translate(511.654 602.817) rotate(90) scale(8.03039 9.31185)">
<stop stop-color="white"/>
<stop offset="0.5" stop-color="#93E5F7"/>
<stop offset="1" stop-color="#25A7C4"/>
</radialGradient>
<radialGradient id="paint16_diamond_140_919" cx="0" cy="0" r="1" gradientUnits="userSpaceOnUse" gradientTransform="translate(640.578 746.812) rotate(90) scale(8.03039 9.31185)">
<stop stop-color="white"/>
<stop offset="0.5" stop-color="#93E5F7"/>
<stop offset="1" stop-color="#25A7C4"/>
</radialGradient>
<radialGradient id="paint17_diamond_140_919" cx="0" cy="0" r="1" gradientUnits="userSpaceOnUse" gradientTransform="translate(608.072 623.913) rotate(90) scale(8.03039 9.31185)">
<stop stop-color="white"/>
<stop offset="0.5" stop-color="#93E5F7"/>
<stop offset="1" stop-color="#25A7C4"/>
</radialGradient>
<radialGradient id="paint18_diamond_140_919" cx="0" cy="0" r="1" gradientUnits="userSpaceOnUse" gradientTransform="translate(479.312 747.03) rotate(90) scale(8.03039 9.31185)">
<stop stop-color="white"/>
<stop offset="0.5" stop-color="#93E5F7"/>
<stop offset="1" stop-color="#25A7C4"/>
</radialGradient>
<radialGradient id="paint19_diamond_140_919" cx="0" cy="0" r="1" gradientUnits="userSpaceOnUse" gradientTransform="translate(1097.33 514.769) rotate(90) scale(8.03039 9.31185)">
<stop stop-color="white"/>
<stop offset="0.5" stop-color="#93E5F7"/>
<stop offset="1" stop-color="#25A7C4"/>
</radialGradient>
<radialGradient id="paint20_diamond_140_919" cx="0" cy="0" r="1" gradientUnits="userSpaceOnUse" gradientTransform="translate(1129.84 632.167) rotate(90) scale(8.03039 9.31185)">
<stop stop-color="white"/>
<stop offset="0.5" stop-color="#93E5F7"/>
<stop offset="1" stop-color="#25A7C4"/>
</radialGradient>
<radialGradient id="paint21_diamond_140_919" cx="0" cy="0" r="1" gradientUnits="userSpaceOnUse" gradientTransform="translate(1097.33 719.755) rotate(90) scale(8.03039 9.31185)">
<stop stop-color="white"/>
<stop offset="0.5" stop-color="#93E5F7"/>
<stop offset="1" stop-color="#25A7C4"/>
</radialGradient>
<radialGradient id="paint22_diamond_140_919" cx="0" cy="0" r="1" gradientUnits="userSpaceOnUse" gradientTransform="translate(1188.79 697.743) rotate(90) scale(8.03039 9.31185)">
<stop stop-color="white"/>
<stop offset="0.5" stop-color="#93E5F7"/>
<stop offset="1" stop-color="#25A7C4"/>
</radialGradient>
<radialGradient id="paint23_diamond_140_919" cx="0" cy="0" r="1" gradientUnits="userSpaceOnUse" gradientTransform="translate(1198.15 589.519) rotate(90) scale(8.03039 9.31185)">
<stop stop-color="white"/>
<stop offset="0.5" stop-color="#93E5F7"/>
<stop offset="1" stop-color="#25A7C4"/>
</radialGradient>
<radialGradient id="paint24_diamond_140_919" cx="0" cy="0" r="1" gradientUnits="userSpaceOnUse" gradientTransform="translate(1129.84 490.007) rotate(90) scale(8.03039 9.31185)">
<stop stop-color="white"/>
<stop offset="0.5" stop-color="#93E5F7"/>
<stop offset="1" stop-color="#25A7C4"/>
</radialGradient>
<radialGradient id="paint25_diamond_140_919" cx="0" cy="0" r="1" gradientUnits="userSpaceOnUse" gradientTransform="translate(789.89 1384.7) rotate(90) scale(8.03039 9.31185)">
<stop stop-color="white"/>
<stop offset="0.5" stop-color="#93E5F7"/>
<stop offset="1" stop-color="#25A7C4"/>
</radialGradient>
<radialGradient id="paint26_diamond_140_919" cx="0" cy="0" r="1" gradientUnits="userSpaceOnUse" gradientTransform="translate(893.471 1346.18) rotate(90) scale(8.03039 9.31185)">
<stop stop-color="white"/>
<stop offset="0.5" stop-color="#93E5F7"/>
<stop offset="1" stop-color="#25A7C4"/>
</radialGradient>
<radialGradient id="paint27_diamond_140_919" cx="0" cy="0" r="1" gradientUnits="userSpaceOnUse" gradientTransform="translate(771.158 1321.41) rotate(90) scale(8.03039 9.31185)">
<stop stop-color="white"/>
<stop offset="0.5" stop-color="#93E5F7"/>
<stop offset="1" stop-color="#25A7C4"/>
</radialGradient>
<radialGradient id="paint28_diamond_140_919" cx="0" cy="0" r="1" gradientUnits="userSpaceOnUse" gradientTransform="translate(860.965 1297.11) rotate(90) scale(8.03039 9.31185)">
<stop stop-color="white"/>
<stop offset="0.5" stop-color="#93E5F7"/>
<stop offset="1" stop-color="#25A7C4"/>
</radialGradient>
<radialGradient id="paint29_diamond_140_919" cx="0" cy="0" r="1" gradientUnits="userSpaceOnUse" gradientTransform="translate(860.965 1412.67) rotate(90) scale(8.03039 9.31185)">
<stop stop-color="white"/>
<stop offset="0.5" stop-color="#93E5F7"/>
<stop offset="1" stop-color="#25A7C4"/>
</radialGradient>
</defs>
</svg>
