<svg width="1700" height="1700" viewBox="0 0 1700 1700" fill="none" xmlns="http://www.w3.org/2000/svg">
<path d="M682.437 348.047L683.968 346.98M696.474 338.266L710.423 332.989L722.253 326.231L737.88 322.081C739.734 322.081 743.901 322.081 745.737 322.081C747.574 322.081 755.096 316.785 758.627 314.137L768.162 310.758M696.474 338.266L683.968 346.98M696.474 338.266L738.674 339.481M768.162 310.758H785.554L796.237 305.482H822.546M768.162 310.758L780.875 340.696M822.546 305.482L841.616 307.379L855.653 305.482L861.392 304L876.753 305.482L885.494 307.379M822.546 305.482L854.02 359.273M885.494 307.379L893.351 305.482H902.621L913.657 309.276L925.046 310.758L934.051 316.094L954.091 322.378L961.596 329.373L967.776 332.1L972.985 339.57L977.929 340.696L981.99 347.336M885.494 307.379L814.953 376.74L872.391 390.672M885.494 307.379L910.125 340.696M981.99 347.336L991.878 353.383L994.438 358.837L1000 362.749V371.345V375.851L996.204 380.119L997.969 386.166L994.438 390.672M981.99 347.336L946.057 344.016M994.438 390.672L991.878 399.861L981.99 404.9M994.438 390.672L946.057 344.016M981.99 404.9L969.806 412.725L958.506 416.875L952.061 418.95H939.436H930.696M981.99 404.9L930.696 392.776M683.968 346.98L680.51 348.788M686.586 473.609H680.141L673.696 470.111L666.015 461.871L662.661 459.974L655.951 454.401L651.801 445.627L646.416 440.766L639 430.569V421.944M686.586 473.609L687.557 478.766L689.588 482.857L693.119 486.947L696.915 490.326L703.36 493.113L711.129 496.61L719.693 498.745H730.817L737.615 497.915L743 498.745L748.386 497.915L754.301 500.582L760.393 502.124L762.07 503.428M686.586 473.609L689.588 467.028L700.623 460.211L713.438 455.231M796.325 444.856L797.296 447.702L794.912 455.231L793.765 460.329L791.293 466.435L792.087 468.273V475.209L786.967 479.833L785.466 489.319L781.758 495.543C781.228 496.334 779.056 498.448 774.607 500.582C770.157 502.717 766.985 502.499 765.955 502.124L762.07 503.428M796.325 444.856L808.155 446.398M796.325 444.856L770.987 445.627M808.155 446.398H817.16L830.315 451.615L840.026 454.579L843.999 455.231L853.534 458.136H862.539L874.193 456.239L886.994 452.8M808.155 446.398L839.938 440.292M808.155 446.398L810.862 425.174M886.994 452.8L899.178 442.9L905.888 434.185L907.212 423.04M886.994 452.8L886.515 451.615M907.212 423.04L915.599 422.032L930.696 418.95M907.212 423.04L874.745 422.492M930.696 418.95V392.776M930.696 418.95L885.494 413.064M762.07 503.428V521.213V528.208L764.189 537.575L765.955 548.72V559.095V572.374V581.504L756.508 600M780.875 340.696L738.674 339.481M780.875 340.696L762.549 357.533M780.875 340.696L890.084 353.383M738.674 339.481V379.467M738.674 379.467L762.549 357.533M738.674 379.467L680.51 348.788M738.674 379.467L645.401 388.271M762.549 357.533L812.834 375.851M812.834 375.851V392.776M812.834 375.851L854.02 359.273M812.834 409.702L842.278 421.944M812.834 409.702V392.776M812.834 409.702L810.862 425.174M842.278 421.944L871.721 434.185L839.938 440.292M842.278 421.944L874.745 422.492M874.745 422.492L886.515 451.615M874.745 422.492L843.79 407.634M839.938 440.292L886.515 451.615M812.834 392.776L843.79 407.634M843.79 407.634L885.494 413.064M930.696 392.776L890.084 353.383M890.084 353.383L885.494 413.064M885.494 413.064L872.391 390.672M854.02 359.273L872.391 390.672M910.125 340.696L952.061 323.978M910.125 340.696L946.057 344.016M680.51 348.788L677.051 350.596L667.251 357.533L661.336 364.469L653.391 372.057L650.036 379.467L646.416 384.151L645.401 388.271M645.401 388.271L644.385 392.391V401.224L641.56 411.421L639 419.187V421.944M662.661 366.129L719.693 452.8M719.693 452.8L679.347 437.372M719.693 452.8L713.438 455.231M639 421.944L679.347 437.372M679.347 437.372L748.386 393.494M786.967 368.974L767.676 381.234M748.386 393.494L754.301 418.95M748.386 393.494L767.676 381.234M754.301 418.95L786.487 422.492M754.301 418.95L745.737 446.398M810.862 425.174L798.674 423.833M767.676 381.234L786.487 422.492M786.487 422.492L798.674 423.833M745.737 446.398L770.987 445.627M745.737 446.398H733.907M770.987 445.627L798.674 423.833M770.987 445.627L733.907 446.398M733.907 446.398C722.536 451.52 715.523 454.421 713.438 455.231" stroke="url(#paint0_linear_140_925)" stroke-width="10" stroke-linecap="round" stroke-linejoin="round"/>
<ellipse cx="845.284" cy="345.849" rx="7.26358" ry="5.73297" fill="url(#paint1_diamond_140_925)"/>
<ellipse cx="737.784" cy="376.235" rx="7.26358" ry="5.73297" fill="url(#paint2_diamond_140_925)"/>
<ellipse cx="874.34" cy="422.671" rx="7.26358" ry="5.73297" fill="url(#paint3_diamond_140_925)"/>
<ellipse cx="699.287" cy="425.539" rx="7.26358" ry="5.73297" fill="url(#paint4_diamond_140_925)"/>
<ellipse cx="930.269" cy="390.567" rx="7.26358" ry="5.73297" fill="url(#paint5_diamond_140_925)"/>
<path d="M591.304 851.746L589.614 845.591L588.818 840.682L588.521 838.85M591.304 851.746L588.521 847.789L583.75 845.591L577.985 843.173M591.304 851.746L590.713 852.699M588.521 838.85V832.548V829.031M588.521 838.85L586.533 837.311M588.521 829.031L582.756 825.221L577.985 821.191L573.115 817.38L571.028 811.518L569.636 805.217L571.028 798.915L573.115 792.907L577.985 788.95L582.756 785.579L588.62 782.062L595.478 780.963H607.306H611.878L619.431 782.795L627.78 785.579L635.036 788.95L638.614 791.514L644.776 795.545L649.348 800.161L653.722 805.217L657.3 809.54L660.48 814.742L663.561 821.191L665.45 825.221L667.537 831.449L668.929 840.682V854.824L667.537 862.078L665.45 868.16L662.071 873.728L658.194 879.224L652.728 884.793L649.15 888.164L643.782 892.926L637.322 896.444L631.458 899.008L622.711 901.06H610.486L602.734 898.129L597.168 895.638L592.993 891.534L588.521 887.064L585.241 882.888L582.756 878.345L581.464 874.461V866.914L585.241 861.345M588.521 829.031L574.606 830.57M590.713 852.699L586.533 859.44L585.241 861.345M590.713 852.699L585.241 849.108M585.241 849.108L579.874 847.789H577.985L579.874 851.746L583.75 854.824L586.533 856.509L585.241 861.345M585.241 849.108L582.458 851.746M585.241 861.345L581.464 857.755L576.97 853.944M571.028 849.108L575.5 852.699L576.97 853.944M576.97 853.944L575.103 856.069L572.22 858.561L570.531 862.224L569.338 864.716L568.046 868.746V876.44V881.642L569.338 885.892L571.028 891.168L572.519 895.638L574.904 902.012L577.389 906.409L579.973 912.93L582.855 919.818L583.949 925.021L585.539 930.003L587.725 937.551L588.421 943.486L590.111 952.645" stroke="url(#paint6_linear_140_925)" stroke-width="10" stroke-linecap="round"/>
<path d="M343.878 843.448L347.133 840.973L353.134 836.731L355.779 832.754L357.813 828.776L358.932 824.092V818.346L357.813 809.331L355.779 803.851L352.321 800.05L348.964 795.543L345.099 793.598L340.929 791.388L335.029 789.621L327.808 788.648H319.467L312.754 789.621L307.261 791.388L299.938 794.747L295.056 797.487L290.886 800.05L286.817 803.056L281.528 808.182L277.765 812.69L274.103 816.225L269.627 822.943L266.576 829.395L263.321 836.731L261.389 843.448L258.846 849.547L257.422 857.855V867.755V875.71L258.846 884.813L261.592 893.652L265.762 903.198L268.916 909.473L273.696 914.423L280.409 921.759L287.224 926.532L295.87 930.598L303.396 933.073L310.821 934.133H317.433L321.4 933.073L326.282 930.598L331.774 927.151L336.352 922.555L340.115 918.312L342.861 913.097L346.014 906.291L346.93 899.397L346.014 891.177L344.489 885.962L343.675 883.93L340.115 878.891M340.115 878.891L338.793 875.975V870.671L341.234 863.777L340.115 856.176L341.234 854.497V851.58L340.115 847.249L340.929 845.304L343.675 843.448M340.115 878.891L346.014 875.975L352.321 893.652V914.423L353.134 937.445L348.964 967.833L347.133 984.25M340.115 873.942L343.675 872.086L346.014 873.942" stroke="url(#paint7_linear_140_925)" stroke-width="10" stroke-linecap="round"/>
<path d="M319.562 818.999L321.702 794.936L341.753 815.939L330.657 817.469M319.562 818.999L294.914 802.378L293.012 827.847M319.562 818.999L330.657 817.469M293.012 827.847L270.188 839.589L272.922 856.195M293.012 827.847L310.725 851.332M293.012 827.847L318.452 820.239L314.589 835.785M293.012 827.847L282.967 842.021M328.438 874.816L310.725 851.332M328.438 874.816L319.562 895.076M328.438 874.816L291.437 867.37M310.725 851.332L314.589 835.785M310.725 851.332L291.437 867.37M314.589 835.785L331.133 844.633L330.657 817.469M319.562 895.076L328.438 913.516L309.021 901.98M319.562 895.076L301.334 876.553L299.907 892.719M319.562 895.076L309.021 901.98M298.481 908.885L309.021 901.98M298.481 908.885L299.907 892.719M298.481 908.885L288.97 922.033L283.74 891.437M309.021 901.98V929.062M299.907 892.719L283.74 889.639M299.907 892.719L291.437 867.37M267.572 886.558L283.74 889.639M283.74 889.639L275.656 872.8M267.572 855.962L275.656 872.8M275.656 872.8L272.922 856.195M272.922 856.195L282.967 842.021M282.967 842.021L291.437 867.37" stroke="url(#paint8_linear_140_925)" stroke-width="5" stroke-linecap="round"/>
<path d="M614.002 871.39L611.497 890.639L588.019 873.837L601.01 872.613M614.002 871.39L642.863 884.685L645.09 864.312M614.002 871.39L601.01 872.613M645.09 864.312L655.39 869.604L663.464 850.884M645.09 864.312L624.349 845.526M645.09 864.312L615.301 870.397L619.825 857.962M645.09 864.312L656.852 852.974M589.782 827.401L624.349 845.526M589.782 827.401L614.002 810.533M589.782 827.401L646.934 832.696M624.349 845.526L619.825 857.962M624.349 845.526L646.934 832.696M619.825 857.962L600.454 850.884L601.01 872.613M614.002 810.533L576.79 797.304L626.344 805.01M614.002 810.533L635.346 825.351L637.016 812.419M614.002 810.533L626.344 805.01M638.687 799.487L626.344 805.01M638.687 799.487L637.016 812.419M638.687 799.487L644.255 805.01L654.277 815.759M626.344 805.01L602.866 787.249M637.016 812.419L654.277 815.759M637.016 812.419L646.934 832.696M654.277 815.759L646.934 832.696M646.934 832.696L663.464 850.884M646.934 832.696L656.852 852.974M663.464 850.884L656.852 852.974" stroke="url(#paint9_linear_140_925)" stroke-width="5" stroke-linecap="round"/>
<ellipse cx="394.851" cy="859.902" rx="7.80847" ry="6.98576" fill="url(#paint10_diamond_140_925)"/>
<ellipse cx="504.17" cy="881.558" rx="7.80847" ry="6.98576" fill="url(#paint11_diamond_140_925)"/>
<path d="M354.247 830.212L369.986 842.37M397.657 859.812L376.648 846.426L369.986 842.37M397.657 859.812L371.267 881.513M397.657 859.812L454.976 862.347M344.877 903.214L369.986 842.37M344.877 903.214L371.267 881.513M344.877 903.214L387.376 907.929M371.267 881.513L404.221 899.721M444.435 919.979L429.875 912.644M404.221 899.721L429.875 912.644M404.221 899.721L454.976 862.347M429.875 912.644L387.376 907.929M387.376 907.929L371.747 930.458M355.028 954.559L371.747 930.458M371.747 930.458L413.982 958.75M454.976 862.347L480.354 871.93M454.976 862.347L453.024 912.644L480.354 871.93M505.731 881.513L549.068 846.28L586.549 873.524M505.731 881.513L480.354 871.93M505.731 881.513L586.549 873.524M586.549 873.524L615.831 814.844" stroke="url(#paint12_linear_140_925)" stroke-width="3"/>
<ellipse cx="301.959" cy="830.112" rx="10.9612" ry="8.63244" fill="url(#paint13_diamond_140_925)"/>
<ellipse cx="646.313" cy="858.055" rx="10.9612" ry="8.63244" fill="url(#paint14_diamond_140_925)"/>
<ellipse cx="296.494" cy="881.807" rx="10.9612" ry="8.63244" fill="url(#paint15_diamond_140_925)"/>
<path d="M1280.17 866.779L1272.63 902.21L1293.25 891.461M1313.87 880.713L1293.25 891.461M1293.25 891.461L1305.32 905.992M1317.39 920.522L1305.32 905.992M1305.32 905.992L1304.26 906.584M1304.26 906.584L1268.1 926.892V928.484L1283.69 940.029M1304.26 906.584L1300.29 930.475M1283.69 940.029L1297.78 949.185L1300.29 930.475M1283.69 940.029L1268.1 953.963L1288.72 987.801L1263.07 981.829M1300.29 930.475L1313.87 946.399" stroke="url(#paint16_linear_140_925)" stroke-width="5"/>
<path d="M1262.36 982.747L1251.23 995.114L1244.66 999.901H1232.53L1218.37 990.726L1211.8 978.359L1205.99 966.191L1200.17 954.023L1193.6 937.069L1187.03 920.114V896.975L1193.6 875.034L1200.17 864.661L1209.27 861.869L1218.37 859.076L1225.96 862.268L1231.77 868.651L1237.58 875.034L1241.43 879.422L1251.23 890.592L1256.79 899.568M1262.36 982.747L1265.39 992.321L1272.47 998.306L1288.64 997.508L1296.73 990.726L1304.82 980.752L1314.43 956.816L1318.47 941.257L1320.49 927.694V908.544L1318.47 883.81L1314.43 875.034L1310.89 869.848L1304.82 864.661L1295.72 862.268L1282.58 864.661L1273.98 869.848L1265.39 880.619L1256.79 899.568M1262.36 982.747L1264.11 978.359L1268.42 967.587V945.646V935.672V925.699L1262.36 908.544L1256.79 899.568M1256.79 899.568L1254.27 898.893" stroke="url(#paint17_linear_140_925)" stroke-width="10"/>
<path d="M1155.55 783.188L1170.73 800.767H1189.42L1199.35 793.735L1210.44 782.309L1218.62 774.399L1227.96 767.807H1235.55H1255.99L1268.83 774.399L1279.34 785.385L1288.69 795.932L1304.45 800.767H1326.64L1339.49 789.78L1345.04 782.089L1350.58 774.399L1358.18 754.623L1363.43 740.999V721.663V712.215V702.766V682.99L1361.68 670.246L1358.47 660.358L1355.26 650.47L1347.08 643.438H1338.91H1330.15L1324.31 646.075L1315.55 654.425L1306.79 663.654L1301.53 668.927L1292.19 677.717L1282.26 687.824L1271.75 695.735L1260.07 697.932H1241.39H1221.54L1212.19 693.098L1204.6 685.627L1195.84 677.717L1192.34 668.927L1190.75 664.972L1186.5 654.425L1180.08 643.438H1173.65H1164.89H1159.05L1155.55 647.657L1153.21 650.47L1146.79 657.062L1142.12 664.972L1139.78 672.004L1136.28 682.111L1132.19 695.735V704.963V719.466V725.618V737.923L1136.28 744.076L1142.12 752.865L1146.79 762.973L1149.71 774.399L1155.55 783.188Z" stroke="url(#paint18_linear_140_925)" stroke-width="10"/>
<path d="M1155.55 783.188L1170.73 800.767H1189.42L1199.35 793.735L1210.44 782.309L1218.62 774.399L1227.96 767.807H1235.55H1255.99L1268.83 774.399L1279.34 785.385L1288.69 795.932L1304.45 800.767H1326.64L1339.49 789.78L1345.04 782.089L1350.58 774.399L1358.18 754.623L1363.43 740.999V721.663V712.215V702.766V682.99L1361.68 670.246L1358.47 660.358L1355.26 650.47L1347.08 643.438H1338.91H1330.15L1324.31 646.075L1315.55 654.425L1306.79 663.654L1301.53 668.927L1292.19 677.717L1282.26 687.824L1271.75 695.735L1260.07 697.932H1241.39H1221.54L1212.19 693.098L1204.6 685.627L1195.84 677.717L1192.34 668.927L1190.75 664.972L1186.5 654.425L1180.08 643.438H1173.65H1164.89H1159.05L1155.55 647.657L1153.21 650.47L1146.79 657.062L1142.12 664.972L1139.78 672.004L1136.28 682.111L1132.19 695.735V704.963V719.466V725.618V737.923L1136.28 744.076L1142.12 752.865L1146.79 762.973L1149.71 774.399L1155.55 783.188Z" stroke="url(#paint19_linear_140_925)" stroke-width="10"/>
<path d="M454.245 909.669L427.671 935.556L418.683 944.302L414.752 955.496L414.384 956.545L404.614 958.644H378.43L363.189 955.496L354.592 952.348L350.684 939.404V922.262L348.73 912.118L344.822 901.273L338.569 891.478L332.707 877.485L330.362 861.393V848.099L338.569 836.555L354.201 825.361L381.948 823.612L393.085 826.935L404.223 830.258L418.683 836.555L427.671 848.099L436.659 854.746L452.247 857.227L454.245 857.545H474.176L504.658 854.746L531.623 848.099L550.381 842.152L573.048 828.509L594.541 819.414L609.001 813.117L617.599 811.717L623.851 810.668H625.024L630.886 814.516L635.575 822.912V830.958L632.449 842.152L623.851 850.898L609.001 860.693L589.461 869.439L573.048 874.336L540.611 888.679L511.302 897.425L482.383 904.072L467.923 909.669H454.245ZM454.245 909.669L452.247 911.615" stroke="url(#paint20_linear_140_925)" stroke-width="10"/>
<path d="M782.234 1194.64L776.414 1188.35L772.301 1183.3L765.623 1178.28L760.899 1175.28L755.321 1173.32L749.212 1172.28H743.023H737.322L731.621 1171.36L727.386 1170.81L724.169 1169.13L722.418 1166.62L720.3 1162.3L717.45 1156.24L715.821 1151.59L714.844 1147.21L715.821 1142.52L717.45 1139.83L722.418 1138.97H728.73L735.815 1140.93L739.561 1142.98L746.24 1146.35L750.597 1149.9L753.692 1152.6L757.682 1155.69L761.999 1158.66L766.722 1162.3L770.184 1165.58L774.419 1169.13L779.387 1171.36L782.604 1173.32L789.323 1174.82L795.024 1175.28H801.865L807.321 1175.92H809.195L810.945 1177.86" stroke="url(#paint21_linear_140_925)" stroke-width="5"/>
<path d="M971.051 1199.31L976.925 1192.27L981.485 1187.93L985.557 1184.62L990.281 1181.31L994.353 1179.41L997.814 1178.34L1001.72 1177.3H1004.9H1008.04H1010.85H1013.53H1018.87H1021.68L1024.2 1176.69L1026.85 1175.4L1029.7 1173.51L1031.08 1171.98L1032.83 1168.55L1034.87 1164.66L1036.46 1161.35V1157.1L1037.4 1152.87V1148.62L1035.64 1146.72L1031.08 1145.56L1028.11 1144.36L1022.94 1145.56L1018.87 1146.72L1013.53 1147.91L1010.85 1150.51L1006.77 1152.87L1000.79 1156.18L995.941 1159.7L992.317 1162.79L988.082 1166.07L984.458 1168.55L979.897 1171.98L974.563 1174.58L969.065 1176.69L963.894 1178.34H960.31H955.424H949.764L939.754 1181.71" stroke="url(#paint22_linear_140_925)" stroke-width="5"/>
<path d="M856.553 1335.79L853.702 1348.8V1349.63L855.29 1351.1L857.53 1352.69L860.462 1353.94L865.593 1355.66L868.606 1357.47H872.556H879.52L885.261 1356.79L892.51 1353.94L896.012 1350.52V1345.65L894.342 1341.76L891.451 1335.79V1330.28L892.51 1325.04L894.342 1320.12L896.012 1312.98L897.803 1304.01L899.799 1298.53L900.98 1292.26V1283.75L899.799 1278.17V1270.67L902.201 1265.23V1262.04L900.98 1256.44L899.799 1250.44L897.966 1243.83V1237.34V1230.75L900.98 1223.22L903.423 1217.8L906.762 1210.27L909.002 1206.63L910.997 1202.1L914.01 1194.11L915.843 1189.58L918.245 1185.6L920.811 1181.71H923.987H929.159H932.701L936.855 1182.51L944.388 1184.04L949.275 1186.27L955.872 1189.58L959.862 1190.83L963.242 1194.11L966.663 1197.63L970.083 1202.1L970.979 1207.79V1213.27L975.051 1217.8L978.716 1222.12L982.951 1224.42L990.647 1226.01L1003.52 1224.42L1012.27 1220.99L1016.99 1217.8L1021.35 1213.27L1024.53 1208.83L1027.58 1200.63L1029.54 1195.85L1030.76 1188.63L1033.45 1184.04L1035.69 1180.64L1038.25 1176.87L1040.69 1172.56L1043.38 1167.32L1045.3 1163.16L1046.07 1158.05V1150.61L1045.3 1146.63L1044.11 1143.5L1041.79 1140.56L1037.88 1137.87L1034.46 1135.27H1030.11H1023.43L1018.34 1137.44L1013.82 1139.74L1007.79 1142.46L1002.21 1145.74L997.977 1148.8L993.05 1151.34L987.797 1154.49L982.951 1158.05L978.716 1159.79L973.993 1162.03L968.984 1164.38L963.242 1165.79L955.872 1165.33H949.275L944.388 1164.38L941.09 1163.56L932.701 1161.29L925.494 1157.65L921.992 1156.7L916.535 1153.55L913.237 1151.34L908.391 1149.47L903.016 1146.35L898.984 1144.09L895.604 1142.1L891.695 1140.11L888.6 1138.79L885.302 1137.07L880.741 1136.19L877.443 1135.48H874.511L870.683 1136.58L865.471 1137.81L861.48 1139.83L854.883 1142.43L850.16 1145.22L843.563 1149.08L835.622 1152.11L828.252 1155.54L821.492 1158.47L816.565 1159.58L812.452 1160.83L808.054 1161.96L802.312 1162.94H798.037L793.557 1162.55L788.63 1160.83L783.051 1158.47L778.694 1156.97L774.581 1154.49L770.998 1152.11L767.374 1150.06L763.261 1147.21L758.578 1143.87L754.302 1141.39L749.823 1138.24L745.71 1136.46L741.231 1133.77L737.891 1131.87L731.865 1129.6L726.652 1128.07H721.888L718.06 1128.9L712.685 1131.87L708.287 1136.19L705.274 1140.99L704.378 1148.07L705.274 1156.58L708.857 1165.48L713.377 1172.4L719.445 1180.45L720.137 1187.8L720.911 1194.94L724.738 1202.28L728.933 1206.81L735.774 1212.57L741.801 1217.38L750.474 1220.87L759.677 1222.46L769.817 1220.41L775.844 1216.27L777.961 1213.06L780.567 1209.08L782.155 1201.12V1197.87L794.82 1186.67L811.515 1179.66L832.364 1177.98L837.984 1192.7L840.834 1199.8L850.648 1222.12L854.965 1233.2V1241.16L853.214 1248.14L848.857 1259.71L849.834 1269.73V1278.17V1292.26L850.811 1300.22L852.073 1308.18L856.553 1320.12L857.53 1326.76L856.553 1335.79Z" stroke="url(#paint23_linear_140_925)" stroke-width="10" stroke-linecap="round" stroke-linejoin="bevel"/>
<path d="M832.062 1160.5L836.455 1162.48L839.465 1163.15H842.8H846.786H848.332L850.284 1165.41L853.335 1167.3L854.88 1170.23L856.467 1172.79L858.297 1176.39L860.453 1180.26L862.69 1186.85V1190.51L863.788 1194.48L864.845 1197.77L865.74 1201.86L866.879 1206.19L869.238 1211.38L870.784 1215.49L872.085 1219.64L872.736 1223.61L873.916 1228.21L874.892 1231.87L875.583 1235.38V1241.91L874.892 1247.4L874.2 1251.21L873.549 1254.57L872.858 1257.86V1272.14L869.238 1272.6H865.049H861.429L863.951 1275.01H859.883V1277.05V1280.04V1284.37V1287.51L860.453 1289.56L862.12 1290.75L863.178 1292.73L863.951 1294.26L864.439 1296.15L865.049 1298.95L863.951 1300.69L862.12 1301.79L861.429 1303.83V1305.24L862.12 1306.55L863.951 1307.95L864.439 1309.11L866.106 1310.88L867.774 1312.04V1313.72L866.798 1314.39L866.106 1315.79L865.049 1318.26V1320.4L864.439 1322.44V1324.12L863.951 1326.31V1328.51V1330.28L864.439 1331.81L866.106 1333.85L866.798 1335.47V1337.6L867.774 1338.76V1341.26V1344.4V1346.45L866.106 1347.33V1348.86L865.049 1349.53V1350.63L864.439 1351.3L863.951 1352.52V1355.17" stroke="url(#paint24_linear_140_925)" stroke-width="5" stroke-linecap="round" stroke-linejoin="bevel"/>
<path d="M832.039 1160.34L838.107 1158.08L843.645 1156.3L850.038 1155.53H856.635H863.516L868.566 1157.06L874.104 1158.08L878.991 1160.34L880.334 1161.35L884.569 1159.58L890.596 1158.08L895.32 1157.06H901.061H905.419H910.468L917.024 1159.58L921.218 1161.35L924.924 1163.13V1164.66L917.024 1165.79H910.468L907.617 1167.17L904.075 1168.94L901.061 1173.5L899.514 1175.4L897.356 1178.31L896.501 1184.01L895.32 1188.17L893.976 1194.26L891.451 1199.43L889.252 1204.61L887.746 1209.81L885.71 1214.99L882.207 1220.44L881.027 1226.01L879.683 1232.34L878.828 1240.43V1247.38L879.683 1254.2V1258.15L881.027 1264.21V1273.95H885.221H889.252V1276.11L891.614 1276.86V1281.54V1288V1290.66L889.252 1294.46L887.094 1296.73V1299.51V1301.65V1303.8L889.252 1305.45V1308.36L887.094 1310.38L884.203 1311.67L882.859 1314.3V1316.72L884.203 1318.28L885.424 1320.73L886.239 1323.3V1325.5V1328.14V1330.4L885.424 1332.79L883.388 1334.66L881.312 1337.44V1339.83L880.579 1341.76V1345.46V1347.24V1348.68L882.167 1350.67L882.737 1352.2L883.388 1352.93V1356.58" stroke="url(#paint25_linear_140_925)" stroke-width="5" stroke-linecap="round" stroke-linejoin="bevel"/>
<path d="M767.578 1195.02C774.766 1204.38 772.828 1214.52 764.639 1218.07C756.45 1221.62 743.805 1217.82 736.617 1208.46C729.429 1199.1 731.366 1188.96 739.555 1185.41C747.745 1181.85 760.39 1185.66 767.578 1195.02Z" stroke="url(#paint26_linear_140_925)" stroke-width="5"/>
<path d="M1015.57 1212.74C1008.38 1222.1 995.737 1225.91 987.548 1222.36C979.359 1218.8 977.422 1208.67 984.61 1199.31C991.797 1189.95 1004.44 1186.14 1012.63 1189.69C1020.82 1193.25 1022.76 1203.38 1015.57 1212.74Z" stroke="url(#paint27_linear_140_925)" stroke-width="5"/>
<path d="M856.015 1479.98L857.674 1473.15L859.571 1461.13V1447.47L858.55 1443.1L856.252 1433.26L850.561 1421.24L845.345 1418.51L836.335 1415.78H826.851L818.79 1421.24L811.203 1433.26L808.357 1444.74V1456.21V1471.51L811.203 1482.99L814.996 1490.64L823.532 1495.56L831.119 1498.29H840.129L848.19 1495.56L854.355 1486.82L856.015 1479.98ZM856.015 1479.98L854.355 1478.78" stroke="url(#paint28_linear_140_925)" stroke-width="10"/>
<path d="M937.749 1479.98L939.409 1473.15L941.305 1461.13V1447.47L940.284 1443.1L937.986 1433.26L932.296 1421.24L927.079 1418.51L918.07 1415.78H908.586L900.524 1421.24L892.937 1433.26L890.092 1444.74V1456.21V1471.51L892.937 1482.99L896.731 1490.64L905.266 1495.56L912.853 1498.29H921.863L929.925 1495.56L936.089 1486.82L937.749 1479.98ZM937.749 1479.98L936.089 1478.78" stroke="url(#paint29_linear_140_925)" stroke-width="10"/>
<path d="M1000.21 1212.25L1002.78 1220.49L987.605 1219.67L1000.21 1212.25ZM1000.21 1212.25L984.501 1204.26L997.879 1202.15M1000.21 1212.25H1016.57M1000.21 1212.25L1007.59 1206.84M1007.59 1206.84L1017.87 1200.69L1006.75 1190.51L1007.38 1199.35M1007.59 1206.84L1007.38 1199.35M1007.38 1199.35L997.879 1202.15M997.879 1202.15L998.265 1197.52V1193.33V1189.13" stroke="url(#paint30_linear_140_925)" stroke-width="4"/>
<path d="M745.456 1200.57L734.897 1201.79L736.243 1188.57L745.456 1200.57ZM745.456 1200.57L755 1188.04L758.724 1198.21M745.456 1200.57L739.365 1210.42M745.456 1200.57L752.558 1208.06M752.558 1208.06L759.659 1215.54L767.764 1207.84H762.394M752.558 1208.06L762.394 1207.84M762.394 1207.84L758.724 1198.21M758.724 1198.21H769.04" stroke="url(#paint31_linear_140_925)" stroke-width="4"/>
<path d="M1200.76 873.93L1229.6 885.876L1243.26 891.053L1216.69 898.818M1190.13 906.584L1216.69 898.818M1216.69 898.818L1198.73 930.875L1229.09 926.694M1259.45 922.512L1229.09 926.694M1229.09 926.694L1243.26 950.786M1259.45 973.485L1243.26 950.786M1243.26 950.786L1233.9 971.493M1224.54 992.201L1233.9 971.493M1233.9 971.493L1224.54 926.694" stroke="url(#paint32_linear_140_925)" stroke-width="5"/>
<ellipse cx="1227.12" cy="925.363" rx="10.0875" ry="7.97642" fill="url(#paint33_diamond_140_925)"/>
<ellipse cx="1304.46" cy="911.061" rx="12.9328" ry="6.32613" fill="url(#paint34_diamond_140_925)"/>
<path d="M855.95 1453.85L842.903 1439.97M842.903 1439.97L827.924 1424.03L811.979 1464.51L827.441 1452.24M842.903 1439.97L827.441 1452.24M827.441 1452.24L839.038 1469.82M850.635 1487.41L839.038 1469.82M839.038 1469.82L824.542 1491.14" stroke="url(#paint35_linear_140_925)" stroke-width="3"/>
<path d="M937.684 1453.85L924.638 1439.97M924.638 1439.97L909.659 1424.03L893.713 1464.51L909.175 1452.24M924.638 1439.97L909.175 1452.24M909.175 1452.24L920.772 1469.82M932.369 1487.41L920.772 1469.82M920.772 1469.82L906.276 1491.14" stroke="url(#paint36_linear_140_925)" stroke-width="3"/>
<path d="M1153.58 657.19L1178.16 678.243L1204.5 694.471M1204.5 694.471L1224.98 771.224L1157.67 787.014L1188.7 742.168M1204.5 694.471L1203.36 694.257M1141.29 683.506L1167.04 687.453M1167.04 687.453L1150.65 714.427M1167.04 687.453L1203.36 694.257M1134.26 741.4L1150.65 714.427M1150.65 714.427L1188.7 742.168M1188.7 742.168L1226.74 769.909L1256.38 726.049M1188.7 742.168L1203.36 694.257M1256.38 726.049L1273.56 700.611L1317.46 714.207M1256.38 726.049L1304.59 726.855M1304.59 726.855L1361.36 727.804L1317.46 714.207M1304.59 726.855L1292.4 750.172M1275.91 781.751L1292.4 750.172M1292.4 750.172L1350.83 777.365M1317.46 714.207L1337.66 691.401M1357.85 668.594L1337.66 691.401M1337.66 691.401L1309.27 668.594" stroke="url(#paint37_linear_140_925)" stroke-width="3"/>
<ellipse cx="1186.51" cy="739.156" rx="7.75965" ry="8.25147" fill="url(#paint38_diamond_140_925)"/>
<ellipse cx="1337.56" cy="691.846" rx="7.75965" ry="8.25147" fill="url(#paint39_diamond_140_925)"/>
<path d="M1084.26 425.049C1084.26 574.487 970.405 695.098 830.6 695.098C690.796 695.098 576.945 574.487 576.945 425.049C576.945 275.611 690.796 155 830.6 155C970.405 155 1084.26 275.611 1084.26 425.049Z" stroke="url(#paint40_linear_140_925)" stroke-width="10"/>
<path d="M712.31 875.03C712.31 1024.47 598.46 1145.08 458.655 1145.08C318.85 1145.08 205 1024.47 205 875.03C205 725.592 318.85 604.98 458.655 604.98C598.46 604.98 712.31 725.592 712.31 875.03Z" stroke="url(#paint41_linear_140_925)" stroke-width="10"/>
<path d="M1495 820.57C1495 970.008 1381.15 1090.62 1241.34 1090.62C1101.54 1090.62 987.689 970.008 987.689 820.57C987.689 671.132 1101.54 550.521 1241.34 550.521C1381.15 550.521 1495 671.132 1495 820.57Z" stroke="url(#paint42_linear_140_925)" stroke-width="10"/>
<path d="M1132.37 1274.95C1132.37 1424.39 1018.52 1545 878.711 1545C738.906 1545 625.056 1424.39 625.056 1274.95C625.056 1125.51 738.906 1004.9 878.711 1004.9C1018.52 1004.9 1132.37 1125.51 1132.37 1274.95Z" stroke="url(#paint43_linear_140_925)" stroke-width="10"/>
<circle cx="850" cy="850" r="849.5" stroke="white" stroke-opacity="0.36"/>
<defs>
<linearGradient id="paint0_linear_140_925" x1="819.5" y1="304" x2="819.5" y2="600" gradientUnits="userSpaceOnUse">
<stop stop-color="#057189"/>
<stop offset="0.5" stop-color="#15CEF9"/>
<stop offset="1" stop-color="#0797B7"/>
</linearGradient>
<radialGradient id="paint1_diamond_140_925" cx="0" cy="0" r="1" gradientUnits="userSpaceOnUse" gradientTransform="translate(845.284 345.849) rotate(90) scale(5.73297 7.26358)">
<stop stop-color="white"/>
<stop offset="0.5" stop-color="#93E5F7"/>
<stop offset="1" stop-color="#25A7C4"/>
</radialGradient>
<radialGradient id="paint2_diamond_140_925" cx="0" cy="0" r="1" gradientUnits="userSpaceOnUse" gradientTransform="translate(737.784 376.235) rotate(90) scale(5.73297 7.26358)">
<stop stop-color="white"/>
<stop offset="0.5" stop-color="#93E5F7"/>
<stop offset="1" stop-color="#25A7C4"/>
</radialGradient>
<radialGradient id="paint3_diamond_140_925" cx="0" cy="0" r="1" gradientUnits="userSpaceOnUse" gradientTransform="translate(874.34 422.671) rotate(90) scale(5.73297 7.26358)">
<stop stop-color="white"/>
<stop offset="0.5" stop-color="#93E5F7"/>
<stop offset="1" stop-color="#25A7C4"/>
</radialGradient>
<radialGradient id="paint4_diamond_140_925" cx="0" cy="0" r="1" gradientUnits="userSpaceOnUse" gradientTransform="translate(699.287 425.539) rotate(90) scale(5.73297 7.26358)">
<stop stop-color="white"/>
<stop offset="0.5" stop-color="#93E5F7"/>
<stop offset="1" stop-color="#25A7C4"/>
</radialGradient>
<radialGradient id="paint5_diamond_140_925" cx="0" cy="0" r="1" gradientUnits="userSpaceOnUse" gradientTransform="translate(930.269 390.567) rotate(90) scale(5.73297 7.26358)">
<stop stop-color="white"/>
<stop offset="0.5" stop-color="#93E5F7"/>
<stop offset="1" stop-color="#25A7C4"/>
</radialGradient>
<linearGradient id="paint6_linear_140_925" x1="618.487" y1="780.963" x2="618.487" y2="952.645" gradientUnits="userSpaceOnUse">
<stop stop-color="#057189"/>
<stop offset="0.515625" stop-color="#15CEF9"/>
<stop offset="1" stop-color="#0797B7"/>
</linearGradient>
<linearGradient id="paint7_linear_140_925" x1="384.253" y1="757.576" x2="384.253" y2="836.731" gradientUnits="userSpaceOnUse">
<stop stop-color="#057189"/>
<stop offset="0.46875" stop-color="#15CEF9"/>
<stop offset="1" stop-color="#0797B7"/>
</linearGradient>
<linearGradient id="paint8_linear_140_925" x1="271.476" y1="790.358" x2="271.476" y2="929.062" gradientUnits="userSpaceOnUse">
<stop stop-color="#057189"/>
<stop offset="0.520833" stop-color="#15CEF9"/>
<stop offset="1" stop-color="#0797B7"/>
</linearGradient>
<linearGradient id="paint9_linear_140_925" x1="670.307" y1="894.301" x2="670.307" y2="783.347" gradientUnits="userSpaceOnUse">
<stop stop-color="#057189"/>
<stop offset="0.473958" stop-color="#15CEF9"/>
<stop offset="1" stop-color="#0797B7"/>
</linearGradient>
<radialGradient id="paint10_diamond_140_925" cx="0" cy="0" r="1" gradientUnits="userSpaceOnUse" gradientTransform="translate(394.851 859.902) rotate(90) scale(6.98576 7.80847)">
<stop stop-color="white"/>
<stop offset="0.5" stop-color="#93E5F7"/>
<stop offset="1" stop-color="#25A7C4"/>
</radialGradient>
<radialGradient id="paint11_diamond_140_925" cx="0" cy="0" r="1" gradientUnits="userSpaceOnUse" gradientTransform="translate(504.17 881.558) rotate(90) scale(6.98576 7.80847)">
<stop stop-color="white"/>
<stop offset="0.5" stop-color="#93E5F7"/>
<stop offset="1" stop-color="#25A7C4"/>
</radialGradient>
<linearGradient id="paint12_linear_140_925" x1="480.354" y1="814.844" x2="480.354" y2="958.75" gradientUnits="userSpaceOnUse">
<stop stop-color="#057189"/>
<stop offset="0.479167" stop-color="#15CEF9"/>
<stop offset="1" stop-color="#0797B7"/>
</linearGradient>
<radialGradient id="paint13_diamond_140_925" cx="0" cy="0" r="1" gradientUnits="userSpaceOnUse" gradientTransform="translate(301.959 830.112) rotate(90) scale(8.63244 10.9612)">
<stop stop-color="white"/>
<stop offset="0.5" stop-color="#93E5F7"/>
<stop offset="1" stop-color="#25A7C4"/>
</radialGradient>
<radialGradient id="paint14_diamond_140_925" cx="0" cy="0" r="1" gradientUnits="userSpaceOnUse" gradientTransform="translate(646.313 858.055) rotate(90) scale(8.63244 10.9612)">
<stop stop-color="white"/>
<stop offset="0.5" stop-color="#93E5F7"/>
<stop offset="1" stop-color="#25A7C4"/>
</radialGradient>
<radialGradient id="paint15_diamond_140_925" cx="0" cy="0" r="1" gradientUnits="userSpaceOnUse" gradientTransform="translate(296.494 881.807) rotate(90) scale(8.63244 10.9612)">
<stop stop-color="white"/>
<stop offset="0.5" stop-color="#93E5F7"/>
<stop offset="1" stop-color="#25A7C4"/>
</radialGradient>
<linearGradient id="paint16_linear_140_925" x1="1290.23" y1="866.779" x2="1290.23" y2="987.801" gradientUnits="userSpaceOnUse">
<stop stop-color="#057189"/>
<stop offset="0.505208" stop-color="#15CEF9"/>
<stop offset="1" stop-color="#0797B7"/>
</linearGradient>
<linearGradient id="paint17_linear_140_925" x1="1253.76" y1="859.076" x2="1253.76" y2="999.901" gradientUnits="userSpaceOnUse">
<stop stop-color="#057189"/>
<stop offset="0.505208" stop-color="#15CEF9"/>
<stop offset="1" stop-color="#0797B7"/>
</linearGradient>
<linearGradient id="paint18_linear_140_925" x1="1247.81" y1="643.438" x2="1247.81" y2="800.767" gradientUnits="userSpaceOnUse">
<stop stop-color="#057189"/>
<stop offset="0.505208" stop-color="#15CEF9"/>
<stop offset="1" stop-color="#0797B7"/>
</linearGradient>
<linearGradient id="paint19_linear_140_925" x1="1247.81" y1="643.438" x2="1247.81" y2="800.767" gradientUnits="userSpaceOnUse">
<stop stop-color="#057189"/>
<stop offset="0.505208" stop-color="#15CEF9"/>
<stop offset="1" stop-color="#0797B7"/>
</linearGradient>
<linearGradient id="paint20_linear_140_925" x1="482.969" y1="810.668" x2="482.969" y2="958.644" gradientUnits="userSpaceOnUse">
<stop stop-color="#057189"/>
<stop offset="0.515625" stop-color="#15CEF9"/>
<stop offset="1" stop-color="#0797B7"/>
</linearGradient>
<linearGradient id="paint21_linear_140_925" x1="752.899" y1="1179.93" x2="752.899" y2="1193.01" gradientUnits="userSpaceOnUse">
<stop stop-color="#057189"/>
<stop offset="0.458333" stop-color="#15CEF9"/>
<stop offset="1" stop-color="#0797B7"/>
</linearGradient>
<linearGradient id="paint22_linear_140_925" x1="979.205" y1="1184.62" x2="979.205" y2="1197.48" gradientUnits="userSpaceOnUse">
<stop stop-color="#057189"/>
<stop offset="0.494792" stop-color="#15CEF9"/>
<stop offset="1" stop-color="#0797B7"/>
</linearGradient>
<linearGradient id="paint23_linear_140_925" x1="875.223" y1="1177.43" x2="875.223" y2="1348.21" gradientUnits="userSpaceOnUse">
<stop stop-color="#057189"/>
<stop offset="0.479167" stop-color="#15CEF9"/>
<stop offset="1" stop-color="#0797B7"/>
</linearGradient>
<linearGradient id="paint24_linear_140_925" x1="853.823" y1="1204.02" x2="853.823" y2="1354.65" gradientUnits="userSpaceOnUse">
<stop stop-color="#057189"/>
<stop offset="0.5" stop-color="#15CEF9"/>
<stop offset="1" stop-color="#0797B7"/>
</linearGradient>
<linearGradient id="paint25_linear_140_925" x1="878.482" y1="1200.49" x2="878.482" y2="1356.04" gradientUnits="userSpaceOnUse">
<stop stop-color="#057189"/>
<stop offset="0.5" stop-color="#15CEF9"/>
<stop offset="1" stop-color="#0797B7"/>
</linearGradient>
<linearGradient id="paint26_linear_140_925" x1="738.033" y1="1183.42" x2="755.87" y2="1224.52" gradientUnits="userSpaceOnUse">
<stop stop-color="#057189"/>
<stop offset="0.463542" stop-color="#15CEF9"/>
<stop offset="1" stop-color="#0797B7"/>
</linearGradient>
<linearGradient id="paint27_linear_140_925" x1="1014.15" y1="1187.71" x2="996.317" y2="1228.81" gradientUnits="userSpaceOnUse">
<stop stop-color="#057189"/>
<stop offset="0.463542" stop-color="#15CEF9"/>
<stop offset="1" stop-color="#0797B7"/>
</linearGradient>
<linearGradient id="paint28_linear_140_925" x1="833.964" y1="1415.78" x2="833.964" y2="1498.29" gradientUnits="userSpaceOnUse">
<stop stop-color="#057189"/>
<stop offset="0.505208" stop-color="#15CEF9"/>
<stop offset="1" stop-color="#0797B7"/>
</linearGradient>
<linearGradient id="paint29_linear_140_925" x1="915.699" y1="1415.78" x2="915.699" y2="1498.29" gradientUnits="userSpaceOnUse">
<stop stop-color="#057189"/>
<stop offset="0.505208" stop-color="#15CEF9"/>
<stop offset="1" stop-color="#0797B7"/>
</linearGradient>
<linearGradient id="paint30_linear_140_925" x1="988.381" y1="1206.44" x2="1014.97" y2="1206.44" gradientUnits="userSpaceOnUse">
<stop stop-color="#028BCB"/>
<stop offset="0.0001" stop-color="#057189"/>
<stop offset="0.588542" stop-color="#15CEF9"/>
<stop offset="1" stop-color="#0797B7"/>
</linearGradient>
<linearGradient id="paint31_linear_140_925" x1="753.086" y1="1188.57" x2="753.086" y2="1215.54" gradientUnits="userSpaceOnUse">
<stop stop-color="#028BCB"/>
<stop offset="0.0001" stop-color="#057189"/>
<stop offset="0.588542" stop-color="#15CEF9"/>
<stop offset="1" stop-color="#0797B7"/>
</linearGradient>
<linearGradient id="paint32_linear_140_925" x1="1224.79" y1="873.93" x2="1224.79" y2="992.201" gradientUnits="userSpaceOnUse">
<stop stop-color="#057189"/>
<stop offset="0.505208" stop-color="#15CEF9"/>
<stop offset="1" stop-color="#0797B7"/>
</linearGradient>
<radialGradient id="paint33_diamond_140_925" cx="0" cy="0" r="1" gradientUnits="userSpaceOnUse" gradientTransform="translate(1227.12 925.363) rotate(90) scale(7.97642 10.0875)">
<stop stop-color="white"/>
<stop offset="0.5" stop-color="#93E5F7"/>
<stop offset="1" stop-color="#25A7C4"/>
</radialGradient>
<radialGradient id="paint34_diamond_140_925" cx="0" cy="0" r="1" gradientUnits="userSpaceOnUse" gradientTransform="translate(1304.46 911.061) rotate(90) scale(6.32613 12.9328)">
<stop stop-color="white"/>
<stop offset="0.5" stop-color="#93E5F7"/>
<stop offset="1" stop-color="#25A7C4"/>
</radialGradient>
<linearGradient id="paint35_linear_140_925" x1="833.964" y1="1424.03" x2="833.964" y2="1491.14" gradientUnits="userSpaceOnUse">
<stop stop-color="#057189"/>
<stop offset="0.505208" stop-color="#15CEF9"/>
<stop offset="1" stop-color="#0797B7"/>
</linearGradient>
<linearGradient id="paint36_linear_140_925" x1="915.699" y1="1424.03" x2="915.699" y2="1491.14" gradientUnits="userSpaceOnUse">
<stop stop-color="#057189"/>
<stop offset="0.505208" stop-color="#15CEF9"/>
<stop offset="1" stop-color="#0797B7"/>
</linearGradient>
<linearGradient id="paint37_linear_140_925" x1="1247.81" y1="657.19" x2="1247.81" y2="787.014" gradientUnits="userSpaceOnUse">
<stop stop-color="#057189"/>
<stop offset="0.505208" stop-color="#15CEF9"/>
<stop offset="1" stop-color="#0797B7"/>
</linearGradient>
<radialGradient id="paint38_diamond_140_925" cx="0" cy="0" r="1" gradientUnits="userSpaceOnUse" gradientTransform="translate(1186.51 739.156) rotate(90) scale(8.25147 7.75965)">
<stop stop-color="white"/>
<stop offset="0.5" stop-color="#93E5F7"/>
<stop offset="1" stop-color="#25A7C4"/>
</radialGradient>
<radialGradient id="paint39_diamond_140_925" cx="0" cy="0" r="1" gradientUnits="userSpaceOnUse" gradientTransform="translate(1337.56 691.846) rotate(90) scale(8.25147 7.75965)">
<stop stop-color="white"/>
<stop offset="0.5" stop-color="#93E5F7"/>
<stop offset="1" stop-color="#25A7C4"/>
</radialGradient>
<linearGradient id="paint40_linear_140_925" x1="830.6" y1="150" x2="830.6" y2="700.098" gradientUnits="userSpaceOnUse">
<stop stop-color="#057189"/>
<stop offset="0.536458" stop-color="#15CEF9"/>
<stop offset="1" stop-color="#0797B7"/>
</linearGradient>
<linearGradient id="paint41_linear_140_925" x1="458.655" y1="599.98" x2="458.655" y2="1150.08" gradientUnits="userSpaceOnUse">
<stop stop-color="#057189"/>
<stop offset="0.536458" stop-color="#15CEF9"/>
<stop offset="1" stop-color="#0797B7"/>
</linearGradient>
<linearGradient id="paint42_linear_140_925" x1="1241.34" y1="545.521" x2="1241.34" y2="1095.62" gradientUnits="userSpaceOnUse">
<stop stop-color="#057189"/>
<stop offset="0.536458" stop-color="#15CEF9"/>
<stop offset="1" stop-color="#0797B7"/>
</linearGradient>
<linearGradient id="paint43_linear_140_925" x1="878.711" y1="999.902" x2="878.711" y2="1550" gradientUnits="userSpaceOnUse">
<stop stop-color="#057189"/>
<stop offset="0.536458" stop-color="#15CEF9"/>
<stop offset="1" stop-color="#0797B7"/>
</linearGradient>
</defs>
</svg>
