<svg width="1700" height="1700" viewBox="0 0 1700 1700" fill="none" xmlns="http://www.w3.org/2000/svg">
<path d="M735.383 412.215L761.043 392.107L784.629 373.319L814.438 359.913L856.067 351.865M856.067 351.865V315M856.067 351.865L908.07 469.874M856.067 351.865L926.471 400.407M856.067 351.865L837.682 393.44M856.067 315H924.013V331.757L917.788 355.216M856.067 315L917.788 355.216M917.788 355.216L937.197 359.913M937.197 359.913L953.166 369.307L960.1 373.319L974.65 355.216M937.197 359.913L926.471 400.407M974.65 355.216L985.051 341.151V315M974.65 355.216L1046.09 337.799M974.65 355.216L1001.7 396.804M985.051 315H1046.09V337.799M985.051 315L1023.9 373.319M1046.09 337.799L1035.01 355.216L1023.9 373.319M1023.9 373.319L1001.7 396.804M1001.7 396.804L1023.9 416.912M1001.7 396.804L917.788 473.885M1001.7 396.804L917.271 435.141M1023.9 416.912L1028.75 387.41L1039.15 363.95M1023.9 416.912L1084.73 389.12M1023.9 416.912L917.788 473.885M1039.15 363.95L1050.26 351.865H1079.39M1039.15 363.95L1084.73 389.12M1079.39 351.865L1098.8 359.913L1118.21 373.319L1118.57 373.663M1079.39 351.865L1084.73 389.12M1139.04 406.172L1132.79 387.41L1118.57 373.663M1139.04 406.172V424.275L1132.79 447.074M1139.04 406.172L1092.27 441.717M1132.79 447.074L1122.39 465.177L1098.8 487.291L1092.27 441.717M1132.79 447.074L1092.27 441.717M1118.57 373.663L1084.73 389.12M1039.15 359.913L1001.7 504.073M1001.7 504.073L1084.73 389.12M1001.7 504.073L917.788 473.885M1084.73 389.12L1092.27 441.717M940.664 501.382L928.189 483.279L917.788 473.885M917.788 473.885L908.07 469.874M908.07 469.874H892.811H882.41L867.86 483.279L857.172 494.83M908.07 469.874L917.271 435.141M908.07 469.874L821.303 430.479M857.172 494.83L856.067 496.025L848.424 504.073L842.883 522.175V529.538L724.273 565.083L752.035 603.954L729.841 508.084L784.629 502.382M857.172 494.83L784.629 502.382M857.172 494.83L819.297 435.014M784.629 502.382L741.608 435.014H819.297M819.297 435.014L784.629 369.307L837.682 393.44M819.297 435.014L821.303 430.479M926.471 400.407L917.271 435.141M837.682 393.44L821.303 430.479" stroke="url(#paint0_linear_140_918)" stroke-width="10" stroke-linecap="round" stroke-linejoin="bevel"/>
<path d="M638.284 632.314L629.958 592.047M629.958 592.047L616.616 556.629L589.984 529.259M629.958 592.047L748.226 600.095L721.568 566.277M629.958 592.047L713.977 650.594M629.958 592.047L675.763 567.889M589.984 529.259L543.339 497.041M589.984 529.259L675.763 567.889M589.984 529.259L661.606 458.398M543.339 497.041L508.355 480.944M543.339 497.041L500.029 379.489M543.339 497.041L611.127 505.749M508.355 480.944L490.022 458.398M508.355 480.944L638.284 421.356M490.022 458.398L478.361 421.356M490.022 458.398L583.313 371.441M478.361 421.356L500.029 379.489M478.361 421.356L616.616 395.586M500.029 379.489L543.339 366.617M543.339 366.617L583.313 371.441M543.339 366.617L611.127 505.749M583.313 371.441L616.616 395.586M616.616 395.586L638.284 421.356M638.284 421.356L661.606 458.398M638.284 421.356L665.208 512.697M661.606 458.398V421.356M661.606 458.398L668.685 513.144M661.606 458.398L721.568 395.586M661.606 458.398H727.687M661.606 421.356L684.929 356.943M661.606 421.356L743.235 434.253M684.929 356.943L721.568 395.586M684.929 356.943L727.687 458.398M721.568 395.586L743.235 434.253M743.235 434.253C741.021 427.271 735.587 422.325 731.574 458.398M731.574 458.398C727.561 494.471 723.231 530.317 721.568 543.731M731.574 458.398L675.763 567.889M731.574 458.398H727.687M721.568 543.731V566.277M721.568 543.731L675.763 567.889M721.568 566.277L709.88 654.555M675.763 567.889L668.685 513.144M668.685 513.144L665.208 512.697M665.208 512.697L611.127 505.749" stroke="url(#paint1_linear_140_918)" stroke-width="10" stroke-linecap="round" stroke-linejoin="bevel"/>
<g filter="url(#filter0_d_140_918)">
<path d="M672.926 1242.39L622.367 1176.12L581.054 1113.34L579.393 1108.15M672.926 1242.39L743.104 1307.94M672.926 1242.39L666.99 1073.35M743.104 1307.94L826.388 1355.09L827.569 1355.5M743.104 1307.94L666.99 1073.35M743.104 1307.94L853.755 1242.39M964.38 1385L1008.4 1367.76M964.38 1385H917.997M964.38 1385L978.667 1242.39M1008.4 1367.76L1051.24 1327.49M1008.4 1367.76L853.755 1242.39M1051.24 1327.49L1091.68 1280.35M1051.24 1327.49L978.667 1242.39M1091.68 1280.35L1127.38 1217.1M1091.68 1280.35L978.667 1242.39M1127.38 1217.1L1159.5 1155M1127.38 1217.1L990.565 1080.25M1159.5 1155L1178.54 1113.34M1159.5 1155L978.667 1242.39M1178.54 1113.34L1196.37 1062.99M1178.54 1113.34L990.565 1080.25M1196.37 1062.99L1215.1 998.007M1196.37 1062.99L1083.36 1026.2M1216.59 992.839L1230.88 929.594L1238 881.304V846.8M1216.59 992.839L1059.56 830.953M1216.59 992.839L1215.1 998.007M1051.24 638.635L1134.52 668.543L1172.58 700.737L1196.37 736.383L1199.21 741.381M1051.24 638.635L992.929 648.994L923.933 638.635M1051.24 638.635L1059.56 830.953M923.933 638.635L890.63 658.184L853.755 700.737M923.933 638.635L1059.56 830.953M923.933 638.635L905.761 724.907M853.755 700.737L827.569 736.383L816.88 765.149M853.755 700.737L905.761 724.907M816.88 765.149H765.717M816.88 765.149L905.761 724.907M816.88 765.149L666.99 1073.35M765.717 765.149L713.373 750.195L688.395 712.238V700.737L699.111 680.044L666.99 684.64M765.717 765.149L678.888 872.088M666.99 684.64L645.559 693.856L634.869 718.001V759.386L609.866 793.889M666.99 684.64L678.888 872.088M609.866 793.889L593.214 824.94L581.054 855.991L564.665 889.353L552.767 929.594M609.866 793.889L678.888 872.088M552.767 929.594L545.623 974.457M552.767 929.594L678.888 872.088M545.623 974.457L552.767 1025.06M545.623 974.457L666.99 1073.35M552.767 1025.06L579.393 1108.15M552.767 1025.06L666.99 1073.35M579.393 1108.15L666.99 1073.35M666.99 1073.35L853.755 951.454M666.99 1073.35L678.888 872.088M853.755 1242.39L827.569 1355.5M853.755 1242.39L917.997 1385M853.755 1242.39L990.565 1080.25M853.755 1242.39V962.956M827.569 1355.5L912.035 1385H917.997M990.565 1080.25L857.334 954.823M853.755 951.454L857.334 954.823M853.755 951.454V962.956M853.755 951.454L1083.36 1026.2M857.334 954.823L905.761 724.907M1199.21 741.381L1222.53 782.388L1238 841.037V846.8M1199.21 741.381L1059.56 830.953M853.755 962.956L1059.56 830.953M1238 846.8L1059.56 830.953M1059.56 830.953L1083.36 1026.2M1215.1 998.007L1083.36 1026.2" stroke="url(#paint2_linear_140_918)" stroke-width="15" stroke-linecap="round" stroke-linejoin="bevel" shape-rendering="crispEdges"/>
</g>
<path d="M579.793 1114.86L554.527 1085.94M554.527 1085.94V1041.64L515.262 1025.36M554.527 1085.94L516.155 1026.74M515.262 1025.36L516.155 1026.74M515.262 1025.36L516.155 920.507M484.401 965.699L516.155 1026.74M484.401 965.699L516.155 920.507M484.401 965.699L467.566 913.271M516.155 1026.74L545.177 981.974L516.155 920.507M516.155 920.507L568.552 878.005L518.535 783.075M516.155 920.507L467.566 913.271M516.155 920.507L461 820.143M467.566 913.271L604.087 802.066M467.566 913.271L461 820.143M604.087 802.066L467.566 819.314M604.087 802.066V709.853M461 820.143L467.566 770.432L491.86 732.449M461 820.143L467.566 819.314M491.86 732.449L518.535 783.075M491.86 732.449L516.155 697.209M518.535 783.075L467.566 819.314M518.535 783.075L516.155 697.209M518.535 783.075L604.087 709.853M516.155 697.209L604.087 709.853M604.087 709.853L545.177 664.66M604.087 709.853L644.324 697.209L639.623 634.828M604.087 709.853L639.623 634.828M604.087 709.853L583.522 645.669M518.535 697.209L545.177 664.66M545.177 664.66L583.522 645.669M639.623 634.828H604.087L583.522 645.669M639.623 634.828H673.294L713.53 654.708L698.56 681.823L639.623 634.828Z" stroke="url(#paint3_linear_140_918)" stroke-width="10" stroke-linecap="round" stroke-linejoin="bevel"/>
<path d="M1203.14 544.645C1203.14 561.882 1199.33 577.239 1193.42 588.108C1187.41 599.17 1179.93 604.489 1172.89 604.489C1165.86 604.489 1158.38 599.17 1152.36 588.108C1146.45 577.239 1142.65 561.882 1142.65 544.645C1142.65 527.408 1146.45 512.05 1152.36 501.181C1158.38 490.119 1165.86 484.801 1172.89 484.801C1179.93 484.801 1187.41 490.119 1193.42 501.181C1199.33 512.05 1203.14 527.408 1203.14 544.645Z" stroke="#03B4F2" stroke-width="10"/>
<path d="M699.111 682.586L727.687 708M727.687 708L760.832 761.038L829.408 730.114L727.687 708ZM727.687 708L925.404 635.083M727.687 708L750.537 612.994M750.537 612.994L710.536 651.662L852.258 695.864M750.537 612.994L784.838 575.444M750.537 612.994L815.672 621.222M784.838 575.444L815.672 553.33M784.838 575.444L815.672 621.222M815.672 553.33L852.258 529.032M815.672 553.33L852.258 690.329V529.032M852.258 529.032L888.818 515.071M895.673 512.453L944.839 504.735H997.394M895.673 512.453L888.818 515.071M895.673 512.453L976.829 612.994M895.673 512.453L1043.12 537.868M997.394 504.735L1054.54 496.991L1099.12 490.365L1168.82 479.32M997.394 504.735L1043.12 537.868M1168.82 479.32L1141.4 529.032M1168.82 479.32L1099.12 537.868M1168.82 479.32L1205.41 529.032L1158.55 593.114M1141.4 529.032L1198.55 575.444L1158.55 593.114M1141.4 529.032L1099.12 537.868M1158.55 593.114V606.368M1158.55 606.368H1131.1M1158.55 606.368L1099.12 537.868M1131.1 606.368H1099.12L1064.81 599.741M1131.1 606.368L1043.12 537.868M1064.81 599.741L1020.24 606.368L976.829 612.994M1064.81 599.741L1043.12 537.868M976.829 612.994L939.114 624.038L925.404 635.083M976.829 612.994L1043.12 537.868M925.404 635.083L815.672 621.222M925.404 635.083L888.818 515.071M815.672 621.222L888.818 515.071M1043.12 537.868L1099.12 496.991M1043.12 537.868H1099.12" stroke="url(#paint4_linear_140_918)" stroke-width="10" stroke-linecap="round" stroke-linejoin="bevel"/>
<ellipse cx="521.488" cy="779.851" rx="10.5057" ry="10.1557" fill="url(#paint5_diamond_140_918)"/>
<ellipse cx="521.488" cy="923.804" rx="10.5057" ry="10.1557" fill="url(#paint6_diamond_140_918)"/>
<ellipse cx="602.801" cy="705.105" rx="10.5057" ry="10.1557" fill="url(#paint7_diamond_140_918)"/>
<ellipse cx="857.773" cy="954.781" rx="13.1321" ry="12.6946" fill="url(#paint8_diamond_140_918)"/>
<ellipse cx="857.773" cy="954.781" rx="13.1321" ry="12.6946" fill="url(#paint9_diamond_140_918)"/>
<ellipse cx="856.304" cy="1245.28" rx="13.1321" ry="12.6946" fill="url(#paint10_diamond_140_918)"/>
<ellipse cx="664.103" cy="1073.2" rx="13.1321" ry="12.6946" fill="url(#paint11_diamond_140_918)"/>
<ellipse cx="677.232" cy="874.855" rx="13.1321" ry="12.6946" fill="url(#paint12_diamond_140_918)"/>
<ellipse cx="1063.16" cy="832.456" rx="13.1321" ry="12.6946" fill="url(#paint13_diamond_140_918)"/>
<ellipse cx="985.995" cy="1245.28" rx="13.1321" ry="12.6946" fill="url(#paint14_diamond_140_918)"/>
<ellipse cx="852.52" cy="687.332" rx="7.87926" ry="7.61674" fill="url(#paint15_diamond_140_918)"/>
<ellipse cx="756.078" cy="603.953" rx="7.87926" ry="7.61674" fill="url(#paint16_diamond_140_918)"/>
<ellipse cx="1082.97" cy="389.06" rx="7.87926" ry="7.61674" fill="url(#paint17_diamond_140_918)"/>
<ellipse cx="999.811" cy="396.677" rx="7.87926" ry="7.61674" fill="url(#paint18_diamond_140_918)"/>
<ellipse cx="822.057" cy="430.242" rx="7.87926" ry="7.61674" fill="url(#paint19_diamond_140_918)"/>
<ellipse cx="732.127" cy="707.644" rx="7.87926" ry="7.61674" fill="url(#paint20_diamond_140_918)"/>
<ellipse cx="1104.87" cy="491.785" rx="7.87926" ry="7.61674" fill="url(#paint21_diamond_140_918)"/>
<ellipse cx="1048.82" cy="537.029" rx="7.87926" ry="7.61674" fill="url(#paint22_diamond_140_918)"/>
<ellipse cx="740.319" cy="430.242" rx="7.87926" ry="7.61674" fill="url(#paint23_diamond_140_918)"/>
<ellipse cx="891.813" cy="519.255" rx="7.87926" ry="7.61674" fill="url(#paint24_diamond_140_918)"/>
<ellipse cx="553.479" cy="404.294" rx="7.87926" ry="7.61674" fill="url(#paint25_diamond_140_918)"/>
<ellipse cx="677.655" cy="565.972" rx="7.87926" ry="7.61674" fill="url(#paint26_diamond_140_918)"/>
<circle cx="850" cy="850" r="849.5" stroke="white"/>
<defs>
<filter id="filter0_d_140_918" x="534.197" y="631.219" width="715.303" height="769.281" filterUnits="userSpaceOnUse" color-interpolation-filters="sRGB">
<feFlood flood-opacity="0" result="BackgroundImageFix"/>
<feColorMatrix in="SourceAlpha" type="matrix" values="0 0 0 0 0 0 0 0 0 0 0 0 0 0 0 0 0 0 127 0" result="hardAlpha"/>
<feOffset dy="4"/>
<feGaussianBlur stdDeviation="2"/>
<feComposite in2="hardAlpha" operator="out"/>
<feColorMatrix type="matrix" values="0 0 0 0 0 0 0 0 0 0 0 0 0 0 0 0 0 0 0.25 0"/>
<feBlend mode="normal" in2="BackgroundImageFix" result="effect1_dropShadow_140_918"/>
<feBlend mode="normal" in="SourceGraphic" in2="effect1_dropShadow_140_918" result="shape"/>
</filter>
<linearGradient id="paint0_linear_140_918" x1="931.656" y1="315" x2="931.656" y2="603.954" gradientUnits="userSpaceOnUse">
<stop stop-color="#0797B7"/>
<stop offset="0.479167" stop-color="#15CEF9"/>
<stop offset="1" stop-color="#057189"/>
</linearGradient>
<linearGradient id="paint1_linear_140_918" x1="613.293" y1="356.943" x2="613.293" y2="654.555" gradientUnits="userSpaceOnUse">
<stop stop-color="#057189"/>
<stop offset="0.520833" stop-color="#15CEF9"/>
<stop offset="1" stop-color="#0AEBDD"/>
<stop offset="1" stop-color="#0797B7"/>
</linearGradient>
<linearGradient id="paint2_linear_140_918" x1="891.812" y1="638.635" x2="891.812" y2="1385" gradientUnits="userSpaceOnUse">
<stop stop-color="#0091B1"/>
<stop offset="1" stop-color="#0AEBDD"/>
</linearGradient>
<linearGradient id="paint3_linear_140_918" x1="587.265" y1="634.828" x2="587.265" y2="1114.86" gradientUnits="userSpaceOnUse">
<stop stop-color="#0797B7"/>
<stop offset="0.479167" stop-color="#15CEF9"/>
<stop offset="1" stop-color="#057189"/>
</linearGradient>
<linearGradient id="paint4_linear_140_918" x1="952.259" y1="479.32" x2="952.259" y2="761.038" gradientUnits="userSpaceOnUse">
<stop stop-color="#0797B7"/>
<stop offset="0.552083" stop-color="#15CEF9"/>
<stop offset="1" stop-color="#057189"/>
</linearGradient>
<radialGradient id="paint5_diamond_140_918" cx="0" cy="0" r="1" gradientUnits="userSpaceOnUse" gradientTransform="translate(521.488 779.851) rotate(90) scale(10.1557 10.5057)">
<stop stop-color="#0288C9"/>
<stop offset="1" stop-color="#59DDFA"/>
</radialGradient>
<radialGradient id="paint6_diamond_140_918" cx="0" cy="0" r="1" gradientUnits="userSpaceOnUse" gradientTransform="translate(521.488 923.804) rotate(90) scale(10.1557 10.5057)">
<stop stop-color="#0288C9"/>
<stop offset="1" stop-color="#59DDFA"/>
</radialGradient>
<radialGradient id="paint7_diamond_140_918" cx="0" cy="0" r="1" gradientUnits="userSpaceOnUse" gradientTransform="translate(602.801 705.105) rotate(90) scale(10.1557 10.5057)">
<stop stop-color="#0288C9"/>
<stop offset="1" stop-color="#59DDFA"/>
</radialGradient>
<radialGradient id="paint8_diamond_140_918" cx="0" cy="0" r="1" gradientUnits="userSpaceOnUse" gradientTransform="translate(857.773 954.781) rotate(90) scale(12.6946 13.1321)">
<stop stop-color="white"/>
<stop offset="0.5" stop-color="#93E5F7"/>
<stop offset="1" stop-color="#25A7C4"/>
</radialGradient>
<radialGradient id="paint9_diamond_140_918" cx="0" cy="0" r="1" gradientUnits="userSpaceOnUse" gradientTransform="translate(857.773 954.781) rotate(90) scale(12.6946 13.1321)">
<stop stop-color="white"/>
<stop offset="0.5" stop-color="#93E5F7"/>
<stop offset="1" stop-color="#25A7C4"/>
</radialGradient>
<radialGradient id="paint10_diamond_140_918" cx="0" cy="0" r="1" gradientUnits="userSpaceOnUse" gradientTransform="translate(856.304 1245.28) rotate(90) scale(12.6946 13.1321)">
<stop stop-color="white"/>
<stop offset="0.5" stop-color="#93E5F7"/>
<stop offset="1" stop-color="#25A7C4"/>
</radialGradient>
<radialGradient id="paint11_diamond_140_918" cx="0" cy="0" r="1" gradientUnits="userSpaceOnUse" gradientTransform="translate(664.103 1073.2) rotate(90) scale(12.6946 13.1321)">
<stop stop-color="white"/>
<stop offset="0.5" stop-color="#93E5F7"/>
<stop offset="1" stop-color="#25A7C4"/>
</radialGradient>
<radialGradient id="paint12_diamond_140_918" cx="0" cy="0" r="1" gradientUnits="userSpaceOnUse" gradientTransform="translate(677.232 874.855) rotate(90) scale(12.6946 13.1321)">
<stop stop-color="white"/>
<stop offset="0.5" stop-color="#93E5F7"/>
<stop offset="1" stop-color="#25A7C4"/>
</radialGradient>
<radialGradient id="paint13_diamond_140_918" cx="0" cy="0" r="1" gradientUnits="userSpaceOnUse" gradientTransform="translate(1063.16 832.456) rotate(90) scale(12.6946 13.1321)">
<stop stop-color="white"/>
<stop offset="0.5" stop-color="#93E5F7"/>
<stop offset="1" stop-color="#25A7C4"/>
</radialGradient>
<radialGradient id="paint14_diamond_140_918" cx="0" cy="0" r="1" gradientUnits="userSpaceOnUse" gradientTransform="translate(985.995 1245.28) rotate(90) scale(12.6946 13.1321)">
<stop stop-color="white"/>
<stop offset="0.5" stop-color="#93E5F7"/>
<stop offset="1" stop-color="#25A7C4"/>
</radialGradient>
<radialGradient id="paint15_diamond_140_918" cx="0" cy="0" r="1" gradientUnits="userSpaceOnUse" gradientTransform="translate(852.52 687.332) rotate(90) scale(7.61674 7.87926)">
<stop stop-color="#0288C9"/>
<stop offset="1" stop-color="#59DDFA"/>
</radialGradient>
<radialGradient id="paint16_diamond_140_918" cx="0" cy="0" r="1" gradientUnits="userSpaceOnUse" gradientTransform="translate(756.078 603.953) rotate(90) scale(7.61674 7.87926)">
<stop stop-color="#0288C9"/>
<stop offset="1" stop-color="#59DDFA"/>
</radialGradient>
<radialGradient id="paint17_diamond_140_918" cx="0" cy="0" r="1" gradientUnits="userSpaceOnUse" gradientTransform="translate(1082.97 389.06) rotate(90) scale(7.61674 7.87926)">
<stop stop-color="#0288C9"/>
<stop offset="1" stop-color="#59DDFA"/>
</radialGradient>
<radialGradient id="paint18_diamond_140_918" cx="0" cy="0" r="1" gradientUnits="userSpaceOnUse" gradientTransform="translate(999.811 396.677) rotate(90) scale(7.61674 7.87926)">
<stop stop-color="#0288C9"/>
<stop offset="1" stop-color="#59DDFA"/>
</radialGradient>
<radialGradient id="paint19_diamond_140_918" cx="0" cy="0" r="1" gradientUnits="userSpaceOnUse" gradientTransform="translate(822.057 430.242) rotate(90) scale(7.61674 7.87926)">
<stop stop-color="#0288C9"/>
<stop offset="1" stop-color="#59DDFA"/>
</radialGradient>
<radialGradient id="paint20_diamond_140_918" cx="0" cy="0" r="1" gradientUnits="userSpaceOnUse" gradientTransform="translate(732.127 707.644) rotate(90) scale(7.61674 7.87926)">
<stop stop-color="#0288C9"/>
<stop offset="1" stop-color="#59DDFA"/>
</radialGradient>
<radialGradient id="paint21_diamond_140_918" cx="0" cy="0" r="1" gradientUnits="userSpaceOnUse" gradientTransform="translate(1104.87 491.785) rotate(90) scale(7.61674 7.87926)">
<stop stop-color="#0288C9"/>
<stop offset="1" stop-color="#59DDFA"/>
</radialGradient>
<radialGradient id="paint22_diamond_140_918" cx="0" cy="0" r="1" gradientUnits="userSpaceOnUse" gradientTransform="translate(1048.82 537.029) rotate(90) scale(7.61674 7.87926)">
<stop stop-color="#0288C9"/>
<stop offset="1" stop-color="#59DDFA"/>
</radialGradient>
<radialGradient id="paint23_diamond_140_918" cx="0" cy="0" r="1" gradientUnits="userSpaceOnUse" gradientTransform="translate(740.319 430.242) rotate(90) scale(7.61674 7.87926)">
<stop stop-color="#0288C9"/>
<stop offset="1" stop-color="#59DDFA"/>
</radialGradient>
<radialGradient id="paint24_diamond_140_918" cx="0" cy="0" r="1" gradientUnits="userSpaceOnUse" gradientTransform="translate(891.813 519.255) rotate(90) scale(7.61674 7.87926)">
<stop stop-color="#0288C9"/>
<stop offset="1" stop-color="#59DDFA"/>
</radialGradient>
<radialGradient id="paint25_diamond_140_918" cx="0" cy="0" r="1" gradientUnits="userSpaceOnUse" gradientTransform="translate(553.479 404.294) rotate(90) scale(7.61674 7.87926)">
<stop stop-color="#0288C9"/>
<stop offset="1" stop-color="#59DDFA"/>
</radialGradient>
<radialGradient id="paint26_diamond_140_918" cx="0" cy="0" r="1" gradientUnits="userSpaceOnUse" gradientTransform="translate(677.655 565.972) rotate(90) scale(7.61674 7.87926)">
<stop stop-color="#0288C9"/>
<stop offset="1" stop-color="#59DDFA"/>
</radialGradient>
</defs>
</svg>
