<svg width="1700" height="1700" viewBox="0 0 1700 1700" fill="none" xmlns="http://www.w3.org/2000/svg">
<path d="M874.191 250.368L889.762 240.135L886.426 217.62L874.191 203H826.087L811.628 217.62V233.409L825.392 257.825M874.191 250.368H834.429L825.392 257.825M874.191 250.368L883.923 265.281V286.041L865.849 303.585M830.536 303.585L816.355 286.041V265.281L825.392 257.825M830.536 303.585H865.849M830.536 303.585L816.355 314.111L814.965 334.287L822.194 353M865.849 303.585L886.426 316.743V336.626L874.191 353M874.191 353H848.193H822.194M874.191 353L883.923 366.45V388.088L865.849 403M822.194 353L816.355 370.836V391.304L830.536 403M830.536 403H865.849M830.536 403L816.355 415.281L814.965 436.333L822.194 454.17M865.849 403L886.426 415.281V433.117L874.191 454.17M874.191 454.17H822.194M874.191 454.17L888.928 465.281V485.456L874.191 505.632M822.194 454.17L808.569 465.281V488.965L816.355 505.632M816.355 505.632H860.566H874.191M816.355 505.632L803.842 517.035V538.965L799.949 560.602L795.779 584.287L788.271 605.339L778.539 621.421L763.246 636.918L756.572 641.596M874.191 505.632L894.489 517.035V538.965V572.298L908.392 605.339L927.578 631.947L941.759 644.813M756.572 641.596L753.514 542.181V488.965L750.455 440.135L735.162 415.281L704.019 403L672.321 398.906L628.665 406.801L593.352 421.713L556.37 443.351L524.115 472.298L494.085 505.632L464.055 546.567L427.629 589.842L395.93 641.596L372.295 687.795L348.66 745.105L331.143 812.064L320.02 863.234L309.454 944.813L303.615 1014.7L300 1083.41V1139.26L311.122 1198.03L322.801 1235.16L336.982 1277.56L357.558 1302.42H385.364L419.287 1297.44L461.83 1282.53L494.641 1263.53L541.633 1235.16L581.117 1212.65L623.938 1186.92L661.754 1157.68L697.624 1126.1L718.2 1078.44L714.585 1029.02L710.971 984.579L718.2 928.731L728.766 871.421L742.947 815.573V750.076L749.76 695.836M756.572 641.596L715.142 661.187L686.501 677.269L664.813 693.643L644.793 717.328L630.056 730.193L607.255 735.164L576.946 730.193L564.156 707.678V671.421L569.439 644.813L589.459 631.947L622.27 621.421L648.408 613.234M756.572 641.596L749.76 695.836M941.759 644.813L950.379 693.643M941.759 644.813L982.356 664.696L1010.16 679.608L1028.24 693.351L1048.26 711.772L1061.32 726.977L1079.4 733.994H1097.75L1117.77 731.07L1129.73 717.912L1135.57 695.836L1132.79 658.556L1126.67 645.982L1110.26 632.532L1093.3 626.099L1063.55 617.912L1041.58 610.895M950.379 693.643V738.673V800.076L964.282 857.678L976.517 910.895L987.083 973.76L984.024 1035.75V1081.95L999.039 1126.1L1048.26 1169.37L1086.63 1193.64L1133.34 1221.13L1194.24 1257.39L1236.22 1278.73L1297.67 1303H1334.38L1352.73 1292.77L1370.53 1257.39L1383.59 1215.57L1393.33 1174.93L1400 1129.9V1023.76L1393.6 957.094L1384.43 891.596L1370.53 826.977L1356.62 772.883L1336.6 717.912L1310.19 660.602L1284.61 613.234L1255.13 572.298L1228.99 538.965L1192.85 493.351L1161.98 460.31L1121.39 433.117L1084.96 415.281L1055.76 405.632L1022.67 403L994.312 405.632L967.619 422.298L953.16 440.719L951.213 483.409V545.69V602.123V693.643M950.379 693.643L914.232 661.187L900.329 651.538L883.923 641.596L860.566 627.854H840.546L822.194 636.918L803.842 655.924L778.539 671.421L749.76 695.836M950.379 693.643L968.731 695.836L987.639 706.801L1010.16 722.298L1028.24 738.673L1040.75 756.801L1053.82 776.392L1065.22 800.076L1073.28 824.053L1070.22 841.012L1062.99 857.678L1057.15 871.129L1049.09 880.778L1040.75 894.813M648.408 613.234L686.501 598.029M648.408 613.234L660.503 585.31M672.599 557.386L660.503 585.31M660.503 585.31L638.675 605.339L603.362 617.327L573.888 631.947L580.561 584.287L599.191 552.708L630.056 542.181M630.056 542.181L644.793 534.287M630.056 542.181L607.255 538.965M607.255 538.965L622.27 523.468L638.675 510.602M607.255 538.965L589.459 552.708L580.561 572.298M580.561 572.298L573.888 557.386V538.965M580.561 572.298C578.337 567.327 573.888 553.702 573.888 538.965M580.561 572.298L569.439 585.31L561.097 609.433L547.75 602.123L536.906 584.287M573.888 538.965L589.459 505.632M536.906 584.287L524.115 572.298L512.437 560.602M536.906 584.287L547.75 613.234L553.868 631.947V648.322L547.75 677.269V693.643H527.174H508.822L498.534 677.269M498.534 677.269V651.538M498.534 677.269V693.643L475.455 698.906M475.455 698.906H451.82L427.629 693.643M475.455 698.906L468.643 704.462M427.629 745.982L448.205 721.129L461.83 710.018M427.629 745.982L420.399 763.819M427.629 745.982L461.83 710.018M461.83 710.018L468.643 704.462M468.643 704.462H494.085L524.115 710.018H543.579L553.868 730.193L564.156 750.076L543.579 759.433L519.944 776.684L498.534 790.135L478.514 800.076L464.055 815.573L452.237 817.474M440.42 819.374H420.399L401.491 815.573M440.42 819.374C433.746 819.374 416.618 818.614 401.491 815.573M440.42 819.374L452.237 817.474M401.491 815.573H389.535M452.237 817.474L440.42 836.626M440.42 836.626L420.399 852.415M440.42 836.626L456.825 829.023L475.455 815.573L494.085 803.292L514.939 791.889L519.944 803.292L514.939 823.175L508.822 836.626M508.822 836.626L498.534 848.614M508.822 836.626L514.939 852.415M498.534 848.614L483.519 862.064L468.643 871.421M498.534 848.614C493.529 853.097 480.543 863.936 468.643 871.421M468.643 871.421L451.82 874.93M514.939 852.415L512.437 871.421L508.822 891.304M514.939 852.415L530.233 823.175L543.579 796.275L553.868 779.901L580.561 769.667L607.255 759.433H615.597L611.426 776.684L603.362 800.076L595.02 819.374L589.459 841.012L580.561 862.064L569.439 881.947L553.868 900.368L533.847 917.62L512.437 933.88M489.914 948.322L508.822 936.626L512.437 933.88M489.914 948.322L482.893 946.421M489.914 948.322C471.006 960.018 482.893 946.421 464.055 964.111M435.971 936.626L461.83 940.719L475.872 944.52M435.971 936.626H408.443L401.491 940.719M435.971 936.626C456.658 939.901 471.191 943.253 475.872 944.52M475.872 944.52L482.893 946.421M482.893 946.421L464.055 964.111M464.055 964.111L440.42 973.76L417.063 978.731M512.437 933.88L508.822 953.877L498.534 969.667M498.534 969.667L489.914 981.51L475.455 993.351L456.825 1000.08M498.534 969.667C506.764 957.035 525.506 945.105 533.847 940.719L550.253 928.731L571.941 907.386V933.88L564.712 960.018L553.868 990.427L547.194 1012.94L533.847 1036.04L525.506 1051.25L506.598 1060.31L492.417 1066.74L483.936 1061.77M412.336 1051.25L423.18 1048.91H440.42L456.825 1051.25L475.455 1056.8L483.936 1061.77M483.936 1061.77L471.562 1073.18L456.825 1078.44H440.42M440.42 1078.44L417.063 1081.95H401.491H388.979L375.91 1078.44L360.061 1076.39M440.42 1078.44L425.126 1094.81M425.126 1094.81L412.336 1103.58L383.418 1112.36M425.126 1094.81L438.473 1088.09H456.825L481.294 1081.95L516.886 1068.79L500.202 1088.09L492.417 1098.91L478.792 1112.36L462.664 1131.95L443.478 1148.32L430.41 1159.73M430.41 1159.73L400.101 1186.04M430.41 1159.73L453.766 1148.32L478.792 1126.39L492.417 1114.4L500.202 1103.58L501.871 1110.6M482.963 1185.16L492.417 1169.96L501.871 1155.05L503.539 1140.13L505.207 1124.64L501.871 1110.6M501.871 1110.6L516.886 1088.09L530.511 1073.18L553.868 1044.52L580.005 1000.08L583.62 993.351L589.181 1012.94L592.24 1029.32L589.181 1044.52L580.005 1064.11L574.722 1085.46L572.497 1103.58M572.497 1103.58V1122.59L576.39 1137.21L578.615 1146.27M572.497 1103.58L585.844 1070.54L593.63 1051.25L601.416 1061.77L604.752 1074.93M604.752 1074.93L609.757 1088.09L615.04 1100.95L617.265 1106.51M604.752 1074.93L607.811 1053.88V1044.52M607.811 1044.52L621.714 1051.25L635.617 1058.85L644.793 1068.79L649.52 1080.49L652.578 1092.77L654.525 1098.91M607.811 1044.52L604.752 1024.93L601.416 1005.05L603.362 953.877L606.421 910.602L610.87 877.854L616.987 852.415L631.168 868.497L645.349 881.947L656.749 893.936M656.749 893.936L671.208 903.292M656.749 893.936L645.349 868.497L635.339 856.216L626.997 836.626L625.051 823.175L631.168 803.292L640.344 783.409L653.969 762.357L669.818 741.012L686.501 725.222L699.848 710.018L718.2 698.906L730.157 693.643L749.76 695.836M1040.75 894.813L1031.57 903.585M1040.75 894.813L1053.82 883.409L1065.22 871.129L1076.34 857.678L1083.85 851.83L1087.18 867.62L1091.63 886.333L1095.25 924.345L1098.58 956.801V995.982V1020.84V1035.75L1091.63 1046.57M1091.63 1046.57L1076.34 1053.29L1062.99 1064.7L1053.82 1076.68L1049.09 1098.03M1091.63 1046.57L1098.58 1056.8M1098.58 1056.8L1095.25 1074.35L1091.63 1088.96L1084.13 1108.26M1098.58 1056.8L1111.1 1046.57L1117.21 1064.7M1117.21 1064.7L1123.89 1081.95L1126.39 1102.12V1120.54L1120.83 1148.03M1117.21 1064.7L1111.1 1020.84L1113.88 995.982L1126.39 1008.56L1137.79 1031.36L1152.25 1050.37L1166.43 1070.54L1182.84 1088.96L1197.57 1102.12L1194.24 1114.7V1131.95M1194.24 1131.95L1197.57 1148.03L1202.58 1163.53M1194.24 1131.95L1202.58 1163.53M1194.24 1131.95L1206.19 1108.26L1218.98 1123.76L1234.83 1137.21L1249.29 1148.03M1202.58 1163.53L1210.09 1174.93L1218.98 1184.87M1249.29 1148.03L1260.14 1156.8L1272.09 1166.45L1284.61 1174.93L1300.46 1184.87M1249.29 1148.03L1226.77 1114.7L1210.09 1098.03L1197.57 1081.95L1193.44 1074.35H1206.19L1224.82 1081.95L1245.96 1085.75H1260.14L1272.09 1094.81L1284.61 1102.12L1295.73 1108.26M1295.73 1108.26L1316.58 1111.19M1295.73 1108.26L1278.21 1088.96L1305.18 1085.75M1305.18 1085.75L1323.26 1081.95L1340.22 1074.35M1305.18 1085.75L1266.25 1079.61L1239.28 1074.35L1224.82 1068.5L1235.95 1058.56L1252.63 1053.29L1266.25 1050.37M1266.25 1050.37H1287.11M1266.25 1050.37L1245.96 1046.57L1224.82 1053.29L1212.87 1061.77L1185.06 1050.37L1168.93 1038.38L1156.98 1013.23L1143.07 977.854L1132.79 950.076L1128.89 927.269V913.526L1143.07 919.082L1159.76 930.778L1177.55 942.181L1185.06 947.444V958.848L1194.24 967.62L1206.19 977.854M1206.19 977.854L1216.2 987.211L1230.11 991.889L1245.96 998.614M1206.19 977.854L1197.57 952.415L1212.87 958.848L1232.89 965.573L1252.63 971.421M1252.63 971.421L1269.59 975.807L1287.11 977.854M1252.63 971.421L1226.77 954.754L1245.96 947.444L1262.36 942.181M1262.36 942.181L1297.67 936.041M1262.36 942.181L1235.95 939.842L1216.2 947.444L1187.56 933.994L1162.26 910.895L1140.85 891.889L1122.5 863.819L1111.65 832.24L1105.54 806.509L1091.63 772.298L1087.18 763.234H1102.76L1120.27 767.912L1135.57 772.298L1148.91 776.392L1159.76 797.152L1167.82 809.725L1173.94 824.053L1180.06 843.351L1182.84 857.678L1187.56 867.62L1190.07 880.778M1190.07 880.778V894.813M1190.07 880.778L1192.29 851.83L1206.19 857.678M1206.19 857.678L1221.21 863.819L1232.89 871.129L1248.18 873.175M1206.19 857.678L1190.07 832.24L1180.06 806.509L1171.44 784.871L1190.07 792.766L1211.48 806.509L1228.72 814.696L1248.18 827.854M1248.18 827.854L1266.53 843.351L1278.49 855.339M1248.18 827.854L1266.53 819.667M1266.53 819.667H1284.33H1299.34L1310.19 814.696M1266.53 819.667L1236.5 809.725L1217.87 797.152L1195.63 779.023L1171.44 765.865L1155.31 756.801L1140.85 749.784L1148.91 731.07L1155.31 714.696L1167.82 709.725L1187.56 706.801H1201.19H1217.87L1233.16 711.772L1245.12 717.912L1255.69 726.977M1255.69 726.977L1266.53 738.673L1274.6 749.784L1281.27 765.865M1255.69 726.977L1242.34 703.585L1259.02 700.368M1259.02 700.368L1277.93 690.427M1259.02 700.368L1225.66 693.351H1207.58L1204.8 675.515L1203 664.696M1201.19 653.877L1203 664.696M1203 664.696L1195.63 682.24L1187.56 690.427H1167.82H1155.31L1152.81 660.602L1148.91 640.135L1146.41 626.099L1160.04 602.415L1173.66 582.532L1183.95 565.573M1183.95 565.573L1187.56 559.14M1183.95 565.573L1167.82 578.146L1155.31 593.936L1140.85 608.556L1132.79 586.918L1126.67 570.251L1129.73 545.69M1129.73 545.69L1121.11 522.591L1110.26 505.047M1129.73 545.69L1126.67 572.298L1107.2 551.37M1101.92 545.69L1079.4 522.591L1059.1 507.094M1101.92 545.69L1088.71 543.789M1101.92 545.69L1107.2 551.37M1056.04 533.117L1075.51 541.889L1088.71 543.789M1088.71 543.789L1107.2 551.37M1107.2 551.37L1117.77 578.146L1123.61 593.936L1129.73 615.865V629.316L1107.2 620.251L1083.01 613.234L1063.55 608.556M1063.55 608.556L1045.75 593.936L1034.35 580.485L1026.01 555.632M1063.55 608.556L1041.58 610.895M1041.58 610.895L1022.12 605.632L1014.05 602.123" stroke="url(#paint0_linear_140_920)" stroke-width="20" stroke-linecap="round"/>
<circle cx="850" cy="850" r="849.5" stroke="white"/>
<defs>
<linearGradient id="paint0_linear_140_920" x1="813.091" y1="191.534" x2="813.091" y2="538.965" gradientUnits="userSpaceOnUse">
<stop stop-color="#0797B7"/>
<stop offset="0.526042" stop-color="#15CEF9"/>
<stop offset="1" stop-color="#0091B1"/>
</linearGradient>
</defs>
</svg>
