<svg width="1700" height="1700" viewBox="0 0 1700 1700" fill="none" xmlns="http://www.w3.org/2000/svg">
<path d="M575.326 457.412L578.326 454.295M602.825 428.842L630.151 413.432L653.327 393.694L683.939 381.573C687.571 381.573 695.734 381.573 699.332 381.573C702.929 381.573 717.664 366.106 724.582 358.372L743.261 348.502M602.825 428.842L578.326 454.295M602.825 428.842L685.496 432.392M743.261 348.502H777.332L798.259 333.092H849.799M743.261 348.502L768.166 435.941M849.799 333.092L887.156 338.633L914.655 333.092L925.897 328.764L955.99 333.092L973.112 338.633M849.799 333.092L911.455 490.199M973.112 338.633L988.505 333.092H1006.66L1028.28 344.174L1050.59 348.502L1068.24 364.086L1107.49 382.439L1122.2 402.87L1134.3 410.835L1144.51 432.652L1154.19 435.941L1162.15 455.334M973.112 338.633L834.925 541.214L947.445 581.904M973.112 338.633L1021.37 435.941M1162.15 455.334L1181.52 472.995L1186.53 488.924L1197.43 500.352V525.458V538.617L1189.99 551.084L1193.45 568.745L1186.53 581.904M1162.15 455.334L1091.76 445.638M1186.53 581.904L1181.52 608.742L1162.15 623.459M1186.53 581.904L1091.76 445.638M1162.15 623.459L1138.28 646.314L1116.14 658.435L1103.52 664.495H1078.79H1061.66M1162.15 623.459L1061.66 588.051M578.326 454.295L571.551 459.576M583.455 824.136H570.829L558.204 813.92L543.157 789.853L536.585 784.312L523.441 768.036L515.312 742.411L504.762 728.213L490.234 698.432V673.239M583.455 824.136L585.357 839.2L589.335 851.147L596.253 863.094L603.69 872.963L616.315 881.101L631.535 891.317L648.311 897.55H670.103L683.42 895.126L693.97 897.55L704.52 895.126L716.108 902.918L728.041 907.419L731.327 911.229M583.455 824.136L589.335 804.917L610.954 785.005L636.058 770.461M798.432 740.16L800.335 748.471L795.665 770.461L793.417 785.351L788.574 803.185L790.131 808.553V828.811L780.099 842.316L777.159 870.02L769.895 888.2C768.858 890.509 764.603 896.684 755.886 902.918C747.17 909.151 740.955 908.516 738.937 907.419L731.327 911.229M798.432 740.16L821.608 744.662M798.432 740.16L748.795 742.411M821.608 744.662H839.249L865.018 759.899L884.043 768.556M821.608 744.662L883.87 726.828M821.608 744.662L826.909 682.675M884.043 768.556L891.826 770.461L910.504 778.945H928.145L950.975 773.404L976.052 763.362M884.043 768.556L875.222 792.45L865.018 816.691L844.437 847.511L818.494 854.09L821.608 881.101L804.831 897.55L790.131 917.981L780.099 940.144L777.159 963.173M976.052 763.362L999.92 734.446L1013.06 708.993L1015.66 676.442M976.052 763.362L975.114 759.899M1015.66 676.442L1032.09 673.498L1061.66 664.495M1015.66 676.442L952.056 674.84M1061.66 664.495V588.051M1061.66 664.495L973.112 647.305M731.327 911.229V963.173V983.604L735.478 1010.96L738.937 1043.51V1073.81V1112.6V1139.26L720.432 1193.28L693.624 1249.21L642.604 1345.13M768.166 435.941L685.496 432.392M768.166 435.941L732.266 485.115M768.166 435.941L982.106 472.995M685.496 432.392V549.179M685.496 549.179L732.266 485.115M685.496 549.179L571.551 459.576M685.496 549.179L502.773 574.891M732.266 485.115L830.774 538.617M830.774 538.617V588.051M830.774 538.617L911.455 490.199M830.774 637.484L888.453 673.239M830.774 637.484V588.051M830.774 637.484L826.909 682.675M888.453 673.239L946.132 708.993L883.87 726.828M888.453 673.239L952.056 674.84M952.056 674.84L975.114 759.899M952.056 674.84L891.415 631.445M883.87 726.828L975.114 759.899M830.774 588.051L891.415 631.445M891.415 631.445L973.112 647.305M1061.66 588.051L982.106 472.995M982.106 472.995L973.112 647.305M973.112 647.305L947.445 581.904M911.455 490.199L947.445 581.904M1021.37 435.941L1103.52 387.114M1021.37 435.941L1091.76 445.638M571.551 459.576L564.776 464.857L545.579 485.115L533.991 505.373L518.425 527.536L511.853 549.179L504.762 562.858L502.773 574.891M502.773 574.891L500.784 586.925V612.724L495.25 642.505L490.234 665.187V673.239M536.585 510.221L648.311 763.362M648.311 763.362L569.273 718.3M648.311 763.362L636.058 770.461M490.234 673.239L569.273 718.3M569.273 718.3L704.52 590.147M780.099 518.532L742.31 554.34M704.52 590.147L716.108 664.495M704.52 590.147L742.31 554.34M716.108 664.495L779.159 674.84M716.108 664.495L699.332 744.662M826.909 682.675L803.034 678.758M742.31 554.34L779.159 674.84M779.159 674.84L803.034 678.758M699.332 744.662L748.795 742.411M699.332 744.662H676.156M748.795 742.411L803.034 678.758M748.795 742.411L676.156 744.662M676.156 744.662C653.88 759.622 640.142 768.094 636.058 770.461" stroke="url(#paint0_linear_140_924)" stroke-width="20" stroke-linecap="round" stroke-linejoin="round"/>
<path d="M780.618 967.328L785.633 974.081V984.643L790.476 992.261L792.897 998.668L799.296 1004.21L809.155 1009.23L817.629 1014.42L825.585 1021.87L836.308 1035.03L794.973 1021.87L796.875 1046.46L799.296 1057.19L783.558 1037.28L796.875 1066.19L802.409 1070.35L863.288 1092.51L866.401 1097.53L845.128 1094.94L823.855 1090.26H807.425L831.984 1116.06H825.585L809.155 1104.29L790.476 1100.48V1116.06V1128.53V1133.55L842.88 1170.6L787.363 1151.9L780.272 1144.98L783.558 1156.4L802.409 1189.99L805.177 1198.13L777.159 1174.41L774.737 1193.28V1205.58L783.558 1216.31L802.409 1235.36L805.177 1263.41V1280.72L792.205 1256.14L787.363 1240.9L768.684 1228.26V1251.98L766.609 1277.95L758.653 1316.56L753.464 1266.7L749.314 1248.86L743.26 1262.02V1269.47L749.314 1276.05L754.502 1315.18V1333.53L743.26 1316.56L739.974 1302.02V1291.8L731.154 1284.71V1302.02L724.236 1322.8L716.626 1333.53L725.965 1344.1" stroke="url(#paint1_linear_140_924)" stroke-width="10" stroke-linecap="round" stroke-linejoin="round"/>
<path d="M1037.45 1341.32L1046.27 1328.51L1051.98 1312.06L1058.89 1295.09L1064.43 1276.39L1069.79 1259.6L1074.81 1246.79L1076.88 1237.09L1084.15 1227.57L1093.31 1223.76L1102.82 1222.2H1149.18H1164.91H1181.86L1197.77 1220.99H1214.55L1240.67 1219.43L1265.57 1215.79L1284.08 1211.12L1294.8 1205.23L1306.21 1198.31L1315.21 1189.99L1322.64 1180.99L1328.7 1172.16L1336.48 1160.56L1341.84 1150.17L1344.44 1135.8V1128.01L1341.84 1119L1340.29 1112.25L1336.48 1103.08L1332.33 1090.78L1331.12 1080.91V1073.64L1332.33 1061.35L1336.48 1053.04L1341.84 1048.88L1350.32 1040.92L1354.12 1036.76V1027.76V1019.96L1352.22 1012.52L1343.05 1003.34L1347.72 1001.27L1357.75 994.512L1362.08 987.933L1365.71 979.622L1367.61 969.926L1365.71 965.943L1357.75 955.208L1354.12 947.59L1352.22 937.893L1354.12 925.081L1359.48 917.462L1373.15 914.346L1384.56 909.671L1393.55 902.745L1404.28 893.049L1412.41 884.911L1415 872.617V861.19L1412.41 849.589L1393.55 823.097L1359.48 759.033L1328.18 711.591L1306.56 678.174V664.841L1310.02 628.654V586.06L1296.01 551.257L1283.56 511.607L1259.86 454.468L1231.33 403.563L1200.02 358.892L1176.33 333.785L1136.72 304.524L1081.72 275.262L1018.25 257.255L959.794 250.156L899.953 246H829.735L775.429 250.156L720.431 257.255L666.816 271.799L613.893 294.827L560.97 329.63L512.544 373.955L466.366 440.27L425.031 541.907L415 618.265L425.031 721.114L446.304 801.281L481.24 884.045L533.99 981.7L543.848 1040.74L533.99 1108.44L505.107 1189.82L471.382 1258.73L418.805 1342.71L471.382 1345.65H644.159L1035.89 1342.71" stroke="url(#paint2_linear_140_924)" stroke-width="20" stroke-linecap="round" stroke-linejoin="round"/>
<path d="M933.159 782.235L941.634 799.203M1207.11 1119H1152.81L1136.38 1115.89L1115.8 1107.58L1085.87 1094.76L1060.97 1084.2L1046.61 1078.83L1027.42 1061.69L1020.5 1049.57L998.708 997.802L974.494 956.247L961.35 920.059L959.102 890.798L954.259 862.228L949.186 822.924M941.634 799.203L942.672 801.281L946.995 805.956L947.286 808.207M941.634 799.203L936.445 808.553L923.993 819.808L912.924 833.486L899.93 841.797M830.773 804.224H824.719C824.719 803.705 823.993 804.017 821.087 809.419C818.182 814.821 819.877 820.789 821.087 823.097L824.719 829.677L828.87 835.91V841.97L815.38 865.172V879.716L819.358 890.798L823.682 899.628L828.87 907.593L832.848 910.19C833.77 911.229 836.307 913.272 839.074 913.134C841.841 912.995 841.38 911.691 840.804 911.056L842.187 892.183V879.37M948.001 813.747L939.731 820.673L934.716 826.733L929.873 832.101L928.317 835.391L939.731 841.797L942.672 843.479M948.001 813.747L949.186 822.924M948.001 813.747L947.286 808.207M1186.19 908.805L1140.35 905.515L1109.91 899.109L1048.34 879.024L1010.64 872.964L987.639 871.578L969.306 860.151L954.259 850.108L942.672 843.479M1186.19 908.805L1191.55 916.77L1202.27 922.31L1212.99 924.561H1221.47M1186.19 908.805L1196.39 903.957L1204 901.891M1221.47 924.561L1235.3 921.271M1221.47 924.561L1224.75 919.194M949.186 822.924L958.064 812.882L969.673 799.203M1046.44 696.008L1036.76 710.725L1016 730.291L996.286 743.45L992.481 756.263L988.676 763.362L982.796 775.136L977.608 789.853L969.673 799.203M899.93 841.797L894.245 845.433L878.68 848.896L861.212 846.299L855.332 848.896L850.489 852.653M899.93 841.797L918.977 854.783L947.341 871.578L976.224 885.43L1010.64 905.861L1042.46 926.466L1049.9 929.583M1227 968.016L1175.46 955.035L1135.68 942.742L1089.51 935.123L1056.13 933.045L1049.9 929.583M1227 968.016L1230.46 968.887L1271.8 979.622L1227 968.016ZM1227 968.016L1228.89 976.852M1229.08 977.717L1228.89 976.852M1228.89 976.852L1231.15 979.968L1241.36 983.431M1049.9 929.583L1058.2 921.791L1067.2 917.635L1077.92 915.731L1091.75 916.597L1101.96 917.635L1108.19 922.31L1121.5 923.176L1145.37 925.946L1166.99 931.66L1190.68 941.53L1211.78 948.802L1228.89 953.477L1236.59 955.554M1276.47 969.753L1270.07 968.016L1260.21 964.904L1244.3 957.632L1236.59 955.554M1236.59 955.554L1238.94 961.268L1241.36 965.77L1244.3 968.887L1249.49 969.753M1280.62 884.564L1271.62 886.642H1261.77L1247.24 889.066L1236.51 892.702L1221.47 896.685L1206.59 901.186L1204 901.891M1204 901.891L1205.04 906.554C1204.52 907.247 1204.93 909.151 1210.74 911.229C1216.56 913.307 1222.51 914.98 1224.75 915.558L1232.19 916.77L1234.69 916.496M1243.26 915.558L1234.69 916.496M1234.69 916.496L1237.9 910.363M942.672 843.479L962.042 841.797L972.678 841.105M995.594 839.719L983.315 840.412L972.678 841.105M995.594 839.719L1012.89 848.55L1028.63 860.497L1040.73 868.808H1043.33L1072.04 871.578L1100.75 879.024L1135.68 890.971L1156.96 897.724L1188.78 901.186L1198.98 901.891L1211.78 902.918M995.594 839.719C995.883 838.623 998.604 834.525 1007.18 826.907C1015.76 819.288 1020.79 814.959 1022.23 813.747L1023.88 812.189M1084.84 731.676L1064.43 756.263L1057.51 762.583M1034.52 800.761L1031.57 804.917L1023.88 812.189M1034.52 800.761L1036.24 798.337L1047.13 776.002L1050.59 768.903L1057.51 762.583M1034.52 800.761L1048 808.207L1056.3 809.938L1076.02 812.189L1083.8 809.938L1092.1 815.825L1100.4 818.422L1105.94 821.366H1119.08L1124.62 818.422M1034.52 800.761L1022.23 796.087L1006.32 794.701L989.714 796.087L973.111 800.761L969.673 799.203M1023.88 812.189C1035.98 812.189 1040.85 811.727 1041.77 811.497L1055.78 807.514H1070.65H1078.61L1083.8 802.839L1089.85 800.761L1094.7 798.337M969.673 799.203L975.027 809.938M969.673 799.203V812.189L958.064 828.984L936.445 846.299L921.745 853.225L915.864 860.497L909.292 883.006L908.081 904.649L899.93 907.593L894.245 904.649L887.327 895.992M969.673 799.203L963.916 791.412M947.286 808.207L928.317 820.673L920.534 825.521V838.334L915.864 845.433V848.55L918.977 850.108L938.521 856.688L963.772 899.974L987.639 941.876L1020.33 993.993L1034.16 1012M1235.13 1136.67L1191.37 1112.25L1145.37 1089.57L1091.24 1066.2L1049.38 1031.17M972.678 841.105L969.673 848.896L987.639 856.688L1033.47 880.409L1073.25 904.13C1077.98 912.73 1088.88 927.955 1094.7 920.059C1100.51 912.164 1108.99 907.304 1112.51 905.861L1124.62 907.247L1149 916.597M1278.2 1128.53L1264.88 1110.35L1254.33 1103.77L1241.7 1101.17L1228.9 1103.77L1220.08 1108.79L1210.4 1110.35L1200.19 1108.79L1121.16 1076.41L1094.52 1066.2L1057.16 1030.01L1039.52 989.491L1012.89 935.296L999.745 892.183L988.523 842.836M975.027 809.938L986.082 832.101L988.523 842.836M975.027 809.938L986.082 812.882L994.557 812.535L1006.32 808.553L1014.79 804.917C1014.99 805.263 1016.24 804.605 1019.63 799.203C1023.03 793.801 1029 784.486 1031.57 780.503L1054.57 740.16M877.642 796.087L881.966 808.553L876.259 814.44L875.394 823.097L878.68 833.486L884.387 841.278L883.35 848.896L877.642 869.154L878.68 876.08L880.409 887.335L887.327 895.992M887.327 895.992L908.081 935.296L930.154 971.311M1225.79 1158.48L1212.65 1154.67L1160.24 1130.26L1127.04 1119L1066.85 1097.88L1017.04 1074.68L986.255 1049.57L979.156 1040.22M930.154 971.311L944.055 993.993L979.156 1040.22M930.154 971.311L959.102 977.717L1025.17 991.742L1075.84 989.491L1101.09 996.937L1125.13 1003.86L1134.75 1005.24M1211.78 1015.98L1165.09 1009.58L1134.75 1005.24M1034.16 1012L1048 1030.01L1049.38 1031.17M1034.16 1012L1076.71 1019.79L1112.16 1024.12L1117.35 1025.42M1135.68 1030.01L1160.24 1049.92L1192.07 1063.77M1135.68 1030.01L1140.01 1025.16L1147.44 1024.12H1153.33L1161.97 1026.2L1164.22 1028.62M1135.68 1030.01L1117.35 1025.42M1117.35 1025.42V1033.12L1128.25 1043.69L1132.74 1053.04M988.523 842.836L996.978 858.073L1016.35 890.798L1027.76 910.363L1033.82 938.759L1031.4 969.926L1038.14 1006.11L1049.38 1031.17M955.816 850.628L959.102 863.96L974.494 890.798L990.579 921.098L996.805 948.975L996.43 953.65M1201.41 1101.52L1178.23 1094.59H1175.98L1155.05 1105.15L1128.42 1097.88L1093.14 1088.04M996.43 953.65L994.211 981.353L997.843 1016.68L1006.49 1040.22L1020.5 1055.46L1059.76 1074.68L1090.54 1087.32L1093.14 1088.04M996.43 953.65L1049.9 963M1049.9 963L1073.25 969.926H1117.35L1141.05 980.314L1159.9 984.682M1049.9 963C1052.81 972.973 1058.26 982.392 1060.62 985.855L1069.79 993.993M1224.75 999.707L1159.9 984.682M1159.9 984.682L1166.3 996.071M1134.75 1005.24L1140.01 1014.08M952.53 776.002L963.916 791.412M963.916 791.412L977.608 771.153L979.51 768.037M1057.51 762.583L1034.52 751.415L1019.63 755.051L1009.26 756.263L988.676 755.051L982.559 763.362M982.559 763.362L981.412 764.92L979.51 768.037M982.559 763.362L1003.9 765.959L1019.63 768.903L1027.24 772.019L1052.67 778.252H1062.7L1086.39 768.903L1114.24 770.461L1177.19 789.853L1189.3 794.701L1213.17 818.422L1242.91 840.412L1256.92 855.476M979.51 768.037L1013.41 771.153C1016.35 772.019 1023.23 773.82 1027.24 774.097C1031.26 774.374 1040.1 772.827 1044.02 772.019L1059.93 765.959L1073.77 761.457L1105.07 760.765L1121.68 768.037M850.489 852.653L848.414 854.264L842.187 866.557V879.37M850.489 852.653L863.633 857.9L871.762 869.154V898.762L861.648 913.134M779.406 966.463L796.182 947.59L819.358 935.296L861.039 913.999L861.648 913.134M842.187 879.37L846.511 890.798L840.804 922.137V940.491L842.187 943.861M1108.19 1107.58L1085.01 1115.89L1058.38 1122.29L1030.88 1125.06L996.978 1123.51L965.328 1118.49L949.071 1111.05M861.648 913.134L853.602 932.526L836.307 965.251V983.431L848.759 999.187L871.416 1019.73M1069.1 1123.51L1022.75 1111.91L980.548 1101.52L931.949 1074.16L896.494 1042.47L871.416 1019.73M944.142 1108.79L922.955 1099.09L888.884 1071.91L871.416 1042.47L863.979 1008.36L852.391 968.714L842.187 943.861M944.142 1108.79L955.989 1144.98V1159.52V1182.72L958.929 1208.69L963.944 1221.68M944.142 1108.79L949.071 1111.05M949.071 1111.05L977.953 1111.91L1003.03 1099.09L1022.75 1085.24L1035.2 1057.19C1034.62 1047.03 1032.74 1024.92 1029.84 1017.71C1026.93 1010.51 1025.51 1006.98 1025.17 1006.11M979.156 1040.22L1046.61 1051.13L1097.98 1055.46L1103.08 1057.1M1174.77 1085.24L1159.9 1082.99L1108.19 1058.75L1103.08 1057.1M1103.08 1057.1L1113.55 1049.57L1122.71 1046.46L1141.74 1047.84M1093.14 1088.04L1101.27 1082.99L1104.9 1076.41C1107.26 1076.04 1113.06 1073.47 1117.35 1066.2C1119.15 1063.15 1120.38 1059.99 1121.2 1057.1M1121.2 1057.1C1122.35 1053.1 1122.71 1049.64 1122.71 1047.84C1119.86 1052.29 1115.57 1060.36 1121.2 1057.1ZM1121.2 1057.1L1128.25 1053.04M842.187 943.861L832.848 959.883L823.163 1015.64L824.546 1019.1L836.307 1016.68H861.558L871.416 1019.73M824.546 1019.73L835.096 1023.95L848.759 1025.16L859.309 1026.2H869.686" stroke="#15CEF9" stroke-width="5"/>
<path d="M848.24 1252.33L827.14 1345.31M848.24 1252.33L864.844 1322.8M848.24 1252.33L850.39 1236.22M850.39 1236.22L857.234 1184.97L852.449 1180.47M850.39 1236.22C847.999 1242.54 845.657 1248.41 843.375 1253.89M806.732 1317.58C806.01 1318.2 805.374 1318.66 804.83 1318.99L785.286 1345.31L806.732 1317.58ZM806.732 1317.58C807.423 1316.98 808.194 1316.24 809.038 1315.35M809.038 1315.35L819.531 1343.58L802.754 1300.98M809.038 1315.35C816.135 1307.87 828.491 1289.56 843.375 1253.89M809.038 1315.35L823.947 1281.94L841.258 1237.96M802.754 1300.98L775.082 1345.31M802.754 1300.98L803.227 1295.61M804.83 1277.43L803.227 1295.61M803.227 1295.61L804.83 1194.67M804.83 1194.67L816.072 1204.89L804.83 1292.15L781.309 1345.31L800.852 1277.43L799.122 1274.66L789.264 1345.31L802.754 1277.43L792.55 1345.31L789.783 1253.71L765.224 1294.23L764.54 1297.02M804.83 1194.67L818.839 1164.37L830.254 1139.96M764.54 1297.02L758.825 1320.37L762.111 1343.58L754.155 1332.67L758.825 1345.31L756.231 1315.35L760.727 1345.83L762.111 1313.45L763.322 1344.44L764.252 1308.25M764.54 1297.02L764.252 1308.25M764.252 1308.25C785.656 1297.03 784.195 1076.3 780.79 967.328L770.931 1345.31M843.375 1253.89L844.421 1248.34M844.421 1248.34L830.772 1343.58M844.421 1248.34L846.382 1237.96M878.334 1091.99L881.274 1066.19V1019.96H871.935L869.513 1076.41L868.602 1091.99M878.334 1091.99L876.085 1109.65L862.903 1159.17M878.334 1091.99L899.261 1104.63L920.88 1114.85L944.228 1124.72L994.384 1135.97L1047.83 1143.25M878.334 1091.99L840.976 1057.19L817.657 1034.51M868.602 1091.99L867.265 1114.85L863.872 1122.81M868.602 1091.99L863.844 1082.3M837.172 1034.51L851.526 1057.19L863.844 1082.3M811.748 1028.45L817.657 1034.51M863.844 1082.3L851.526 1080.91H837.172M817.657 1034.51L811.748 1066.19V1070.35M844.421 1172.92L842.879 1171.47V1166.97L857.234 1138.4L862.249 1126.62M844.421 1172.92L841.841 1193.63L836.134 1213.54L831.897 1222.03M844.421 1172.92L852.449 1180.47M830.945 1223.93L828.351 1229.13L823.947 1236.22M830.945 1223.93L811.056 1257L823.947 1236.22M830.945 1223.93L831.897 1222.03M831.897 1222.03L838.728 1227.74L847.722 1230.86M847.722 1230.86L857.234 1180.47L862.903 1159.17M847.722 1230.86L846.382 1237.96M823.947 1236.22L836.134 1237.96H841.258M846.382 1237.96H841.258M841.258 1237.96L852.449 1180.47M852.449 1180.47L856.136 1160.21M862.249 1126.62L863.872 1122.81M862.249 1126.62L856.136 1160.21M862.903 1159.17L863.872 1122.81M831.897 1161.43H850.39L856.136 1160.21" stroke="#15CEF9" stroke-width="5"/>
<path d="M849.798 1153.11L833.022 1148.44H828.352M814.862 1148.44H828.352M828.352 1148.44L831.984 1129.39V1117.79L824.547 1102.04L818.321 1091.65L806.387 1060.65L800.334 1054.94" stroke="#15CEF9" stroke-width="5"/>
<path d="M828.698 1148.61L822.644 1190L815.381 1221.68L811.403 1255.96L809.327 1277.78L803.793 1302.89L798.604 1317.26L795.491 1329.9" stroke="#15CEF9" stroke-width="5"/>
<path d="M848.069 847.165L849.712 850.108M848.069 855.995H829.044H826.796H848.069ZM848.069 855.995L849.712 854.524M849.712 854.524L851.355 853.052L849.712 850.108M849.712 854.524L839.248 852.013M849.712 850.108L861.559 831.755L876.779 807.861L891.479 777.041L911.023 751.588L950.801 714.015L984.527 682.676L987.201 679.386M1041.43 609.954L1031.4 625.018L987.201 679.386M1041.43 609.954V581.039L1049.04 537.406L1063.22 526.151L1073.42 507.798V491.695M1041.43 609.954L1073.77 602.682L1110.95 592.639L1120.47 589.869L1138.8 592.639L1170.45 598.873H1191.89L1208.67 592.639M1048 537.406L1041.95 514.724V491.695L1043.68 473.168V442.002M987.201 679.386C998.483 683.264 1003.72 685.273 1004.93 685.792C1006.32 685.792 1009.36 685.792 1010.47 685.792C1011.58 685.792 1018.08 683.715 1021.19 682.676L1028.98 679.386L1046.1 675.403M1046.1 675.403L1054.92 672.287M1046.1 675.403L1067.37 681.464L1083.63 684.58L1105.25 681.464H1117.35L1140.7 689.428L1161.63 697.393M1046.1 675.403L1018.08 691.679M1046.1 675.403L1067.37 676.789H1091.24L1106.63 674.191L1130.15 663.11M1054.92 672.287L1067.37 667.785L1097.12 658.089L1117.35 652.375L1149.52 645.622L1168.89 642.159H1205.21H1243.09L1260.38 638.696L1270.41 632.117C1274.8 628.654 1283.83 620.655 1284.94 616.361C1286.05 612.066 1287.71 609.146 1288.4 608.223L1291.34 593.851M1054.92 672.287L1073.77 674.191H1086.74L1102.31 672.287L1130.15 663.11M1130.15 663.11L1172.52 654.972L1181.52 652.375H1216.11L1255.19 650.297C1255.66 650.297 1257.96 649.605 1263.5 646.834C1269.03 644.064 1274.33 638.408 1276.29 635.926L1286.33 623.113L1292.9 603.721V600.777M1027.76 718.517L1049.9 717.305L1079.3 720.248L1097.12 724.404L1107.49 734.273" stroke="#15CEF9" stroke-width="5"/>
<path d="M856.196 840.413L852.91 817.557L864.844 800.243L867.438 791.585L870.724 749.511L885.944 708.475L894.072 662.591L898.754 650.471M954.259 548.314L934.716 565.975L931.764 572.382M931.764 572.382L914.135 610.647L898.754 650.471M931.764 572.382L930.219 549.353M898.754 650.471L891.305 615.495L885.944 595.237L878.68 568.053" stroke="#15CEF9" stroke-width="5"/>
<path d="M1120.98 589.523L1124.44 576.71L1131.53 569.092L1145.37 557.664" stroke="#15CEF9" stroke-width="5"/>
<path d="M842.187 878.678L835.788 882.487H828.524M824.373 881.448L828.524 882.487M828.524 882.487V889.932L820.73 916.077M780.617 967.156L796.355 953.477L818.666 923.003L820.73 916.077M820.73 916.077L786.67 933.046L734.958 958.498L722.369 972.35M794.626 1346L785.632 1235.71L767.299 1170.43L748.102 1112.43L718.7 1050.09L712.961 1030.87M722.369 972.35L715.76 979.622L707.286 999.188L708.669 1016.5L712.444 1029.14M722.369 972.35L682.727 985.509L654.017 1006.11L644.332 1029.14L635.165 1069.83L622.021 1106.88L603.169 1141.69L590.89 1174.07L582.242 1227.57L573.249 1311.89L570.136 1346M712.961 1030.87L701.232 1056.5L683.937 1092.17L667.507 1117.97L659.897 1143.42V1176.32L672.695 1220.12L687.915 1253.54M712.961 1030.87L712.444 1029.14M712.444 1029.14L729.769 993.301" stroke="#15CEF9" stroke-width="5"/>
<path d="M934 837L951.295 851.544L965.131 871.283L958.04 909.029L973.952 951.104L981.561 992.659L995.916 1034.73L1013.9 1056.72L1033.79 1070.57L1066.31 1086.16L1102.8 1096.37H1154.34L1210.89 1081.83L1239.95 1063.3L1257.94 1046.16L1271.77 1017.94L1272.64 997.507" stroke="#15CEF9" stroke-width="5"/>
<path d="M962.907 1096.67L971.382 1127.49V1146.02L967.75 1170.78V1191.21L974.668 1206.79" stroke="#15CEF9" stroke-width="5"/>
<path d="M1083.63 770.461L1100.75 779.638L1110.26 781.196H1135.34L1138.63 779.638" stroke="#15CEF9" stroke-width="5"/>
<path d="M1056.13 762.15L1074.63 763.709H1092.45H1105.07L1136.9 772.539L1180.13 788.469L1211.61 820.501L1240.84 837.469L1254.33 841.278C1253.98 841.913 1254.95 842.802 1261.59 841.278C1268.23 839.755 1271.85 839.258 1272.83 839.201" stroke="#15CEF9" stroke-width="5"/>
<path d="M1032.95 714.188L1063.74 715.573L1094 720.767L1124.62 737.735L1141.22 751.76" stroke="#15CEF9" stroke-width="5"/>
<circle cx="850" cy="850" r="849.5" stroke="white"/>
<defs>
<linearGradient id="paint0_linear_140_924" x1="843.832" y1="328.764" x2="843.832" y2="1345.13" gradientUnits="userSpaceOnUse">
<stop stop-color="#057189"/>
<stop offset="0.458333" stop-color="#15CEF9"/>
<stop offset="1" stop-color="#0797B7"/>
</linearGradient>
<linearGradient id="paint1_linear_140_924" x1="791.514" y1="967.328" x2="791.514" y2="1344.1" gradientUnits="userSpaceOnUse">
<stop stop-color="#057189"/>
<stop offset="0.458333" stop-color="#15CEF9"/>
<stop offset="1" stop-color="#0797B7"/>
</linearGradient>
<linearGradient id="paint2_linear_140_924" x1="915" y1="246" x2="915" y2="1345.65" gradientUnits="userSpaceOnUse">
<stop stop-color="#057189"/>
<stop offset="0.458333" stop-color="#15CEF9"/>
<stop offset="1" stop-color="#0797B7"/>
</linearGradient>
</defs>
</svg>
